<svg id="STRETCH_ICON" data-name="STRETCH ICON" xmlns="http://www.w3.org/2000/svg" width="1400" height="510" viewBox="0 0 1400 510">
  <defs>
    <style>
      .cls-1 {
        fill: #231f20;
      }

      .cls-1, .cls-2 {
        fill-rule: evenodd;
      }
    </style>
  </defs>
  <path id="Moves_with_your_body_for_maximum_mobility_and_ultimate_comfort." data-name="Moves with your body for maximum mobility and ultimate comfort." class="cls-1" d="M176.041,361.13l3.979-9.255,1.638,8.751h1.5l-2.611-13.378-4.5,10.641-4.5-10.641-2.61,13.378h1.494l1.62-8.751Zm9.2-4.5a4.222,4.222,0,0,0,1.278,3.061,4.314,4.314,0,0,0,3.1,1.278,4.39,4.39,0,0,0,3.1-1.3,4.282,4.282,0,0,0,0-6.1,4.341,4.341,0,0,0-3.1-1.279,4.294,4.294,0,0,0-3.1,1.261A4.229,4.229,0,0,0,185.237,356.629Zm1.458,0a2.911,2.911,0,1,1,2.917,3.042A2.957,2.957,0,0,1,186.7,356.629Zm12.978,4.5,3.962-8.553h-1.549l-2.431,5.618-2.412-5.618h-1.549Zm13.519-4.321v-0.27c0-2.665-1.512-4.268-3.871-4.268a4,4,0,0,0-4.015,4.3c0,2.628,1.657,4.393,4.1,4.393a4.015,4.015,0,0,0,3.727-2.2l-1.044-.7a2.947,2.947,0,0,1-2.611,1.747,2.643,2.643,0,0,1-2.664-2.881v-0.126h6.373Zm-1.476-1.117h-4.9a2.355,2.355,0,0,1,2.448-2.214A2.211,2.211,0,0,1,211.716,355.692Zm3.6,3.583a3.313,3.313,0,0,0,3.169,1.693c1.782,0,2.935-1.062,2.935-2.557,0-1.314-.775-1.89-2.341-2.395-1.332-.432-2.071-0.54-2.071-1.386a1.241,1.241,0,0,1,1.369-1.206,1.9,1.9,0,0,1,1.836,1.152l1.117-.684a2.878,2.878,0,0,0-2.863-1.6c-1.711,0-2.845,1.027-2.845,2.431,0,1.585,1.188,1.927,3.169,2.611,0.846,0.288,1.26.612,1.26,1.224a1.314,1.314,0,0,1-1.512,1.207,2.172,2.172,0,0,1-2.053-1.279Zm20.216-6.986h-0.216l-2.449,5.78-2.143-5.492h-1.53l3.583,8.553,2.647-6.176,2.646,6.176,3.583-8.553H240.1l-2.161,5.492Zm8.494,8.337h1.386v-8.049h-1.386v8.049Zm-0.324-11.92a1.008,1.008,0,0,0,2.016.018,1.022,1.022,0,0,0-1.008-1.026A1.006,1.006,0,0,0,243.7,348.706Zm5.724,5.006v6.914h1.4v-6.914h1.477v-1.135h-1.477v-3.241h-1.4v3.241h-1.477v1.135h1.477Zm5.345,6.914h1.369v-4.159a3.1,3.1,0,0,1,.468-2.125,2.457,2.457,0,0,1,1.963-.864c1.44,0,2.106.792,2.106,2.412v4.736h1.4v-5.474a2.706,2.706,0,0,0-3.025-2.863,3.3,3.3,0,0,0-2.935,1.531V347h-1.351v13.63Zm16.812,3.925h1.549l5.4-11.974h-1.512l-2.485,5.78-2.341-5.78h-1.584l3.151,7.257Zm8.5-7.922a4.222,4.222,0,0,0,1.278,3.061,4.314,4.314,0,0,0,3.1,1.278,4.39,4.39,0,0,0,3.1-1.3,4.282,4.282,0,0,0,0-6.1,4.341,4.341,0,0,0-3.1-1.279,4.294,4.294,0,0,0-3.1,1.261A4.229,4.229,0,0,0,280.077,356.629Zm1.458,0a2.911,2.911,0,1,1,2.917,3.042A2.957,2.957,0,0,1,281.535,356.629Zm11.628-4.052h-1.44v4.7c0,2.431,1.278,3.691,3.655,3.691,2.413,0,3.673-1.26,3.673-3.691v-4.7h-1.4v3.962c0,2.124-.468,3.114-2.232,3.114s-2.251-.99-2.251-3.114v-3.962Zm9.468,8.049H304V356.7c0-2.107.72-3.151,2.179-3.151a2.586,2.586,0,0,1,.846.162l0.468-1.243a2.768,2.768,0,0,0-.936-0.162c-1.224,0-1.981.576-2.7,1.945v-1.675h-1.224v8.049ZM316.041,347v13.63h1.314v-1.459a3.277,3.277,0,0,0,2.935,1.8c2.305,0,3.853-1.711,3.853-4.339,0-2.7-1.548-4.34-3.8-4.34a3.1,3.1,0,0,0-2.935,1.8V347h-1.368Zm1.314,9.651a2.71,2.71,0,0,1,2.737-2.989,2.486,2.486,0,0,1,2.593,2.809c0,2.016-1.027,3.169-2.629,3.169C318.4,359.636,317.355,358.555,317.355,356.647Zm9.233-.018a4.219,4.219,0,0,0,1.279,3.061,4.312,4.312,0,0,0,3.1,1.278,4.388,4.388,0,0,0,3.1-1.3,4.28,4.28,0,0,0,0-6.1,4.339,4.339,0,0,0-3.1-1.279,4.293,4.293,0,0,0-3.1,1.261A4.226,4.226,0,0,0,326.588,356.629Zm1.459,0a2.91,2.91,0,1,1,2.917,3.042A2.957,2.957,0,0,1,328.047,356.629ZM345.868,347H344.5v7.094a3.1,3.1,0,0,0-2.935-1.8c-2.251,0-3.8,1.639-3.8,4.34,0,2.628,1.548,4.339,3.853,4.339a3.251,3.251,0,0,0,2.917-1.8v1.459h1.332V347Zm-1.332,9.651c0,1.908-1.044,2.989-2.7,2.989-1.6,0-2.611-1.153-2.611-3.169a2.486,2.486,0,0,1,2.593-2.809A2.7,2.7,0,0,1,344.536,356.647Zm4.714,7.9H350.8l5.4-11.974h-1.512l-2.485,5.78-2.341-5.78h-1.584l3.151,7.257ZM169.577,386.626h1.4v-6.914h2.107v-1.135h-2.142v-2.142c0-1.549.035-2.287,1.062-2.287a2.21,2.21,0,0,1,1.08.288v-1.422a3.727,3.727,0,0,0-1.188-.18c-1.927,0-2.323,1.008-2.323,3.421v2.322h-1.548v1.135h1.548v6.914Zm5.094-4a4.222,4.222,0,0,0,1.278,3.061,4.312,4.312,0,0,0,3.1,1.278,4.393,4.393,0,0,0,3.1-1.3,4.283,4.283,0,0,0,0-6.1,4.341,4.341,0,0,0-3.1-1.279,4.293,4.293,0,0,0-3.1,1.261A4.229,4.229,0,0,0,174.671,382.629Zm1.458,0a2.911,2.911,0,1,1,2.917,3.043A2.957,2.957,0,0,1,176.129,382.629Zm10.349,4h1.369V382.7c0-2.107.72-3.151,2.179-3.151a2.586,2.586,0,0,1,.846.162l0.468-1.243a2.768,2.768,0,0,0-.936-0.162c-1.225,0-1.981.576-2.7,1.945v-1.675h-1.225v8.049Zm24.61,0h1.368v-5.474a2.623,2.623,0,0,0-2.863-2.863,3.182,3.182,0,0,0-2.863,1.639,2.708,2.708,0,0,0-2.7-1.639,3.128,3.128,0,0,0-2.791,1.531v-1.243h-1.351v8.049h1.333v-4.159a3.258,3.258,0,0,1,.432-2.125,2.279,2.279,0,0,1,1.836-.864c1.369,0,2,.792,2,2.412v4.736h1.332v-4.159a3.25,3.25,0,0,1,.451-2.125,2.245,2.245,0,0,1,1.818-.864c1.369,0,2,.792,2,2.412v4.736Zm12.454-8.049h-1.368v1.513a3.113,3.113,0,0,0-2.953-1.8c-2.25,0-3.781,1.639-3.781,4.34,0,2.628,1.549,4.339,3.853,4.339a3.237,3.237,0,0,0,2.917-1.8v1.459h1.332v-8.049Zm-1.332,4.106c0,1.854-1.008,2.916-2.629,2.916-1.71,0-2.683-1.1-2.683-3.042,0-1.837.973-2.9,2.629-2.9A2.712,2.712,0,0,1,222.21,382.683Zm3.58,3.943h1.71l2.179-3.115,2.2,3.115h1.711l-3.115-4.159,3.025-3.89h-1.711l-2.106,2.881-2.089-2.881h-1.71l3.006,3.89Zm10.17,0h1.386v-8.049H235.96v8.049Zm-0.324-11.92a1.008,1.008,0,0,0,2.016.018,1.022,1.022,0,0,0-1.008-1.026A1.006,1.006,0,0,0,235.636,374.706Zm16.707,11.92h1.368v-5.474a2.623,2.623,0,0,0-2.862-2.863,3.18,3.18,0,0,0-2.863,1.639,2.709,2.709,0,0,0-2.7-1.639,3.129,3.129,0,0,0-2.791,1.531v-1.243h-1.35v8.049h1.332v-4.159a3.258,3.258,0,0,1,.432-2.125,2.281,2.281,0,0,1,1.837-.864c1.368,0,2,.792,2,2.412v4.736h1.333v-4.159a3.257,3.257,0,0,1,.45-2.125,2.245,2.245,0,0,1,1.819-.864c1.368,0,2,.792,2,2.412v4.736Zm6.261-8.049h-1.44v4.7c0,2.431,1.278,3.691,3.655,3.691,2.412,0,3.673-1.26,3.673-3.691v-4.7h-1.405v3.962c0,2.124-.468,3.114-2.232,3.114s-2.251-.99-2.251-3.114v-3.962Zm20.649,8.049h1.368v-5.474a2.623,2.623,0,0,0-2.863-2.863,3.18,3.18,0,0,0-2.862,1.639,2.71,2.71,0,0,0-2.7-1.639,3.128,3.128,0,0,0-2.791,1.531v-1.243h-1.35v8.049h1.332v-4.159a3.258,3.258,0,0,1,.432-2.125,2.28,2.28,0,0,1,1.837-.864c1.368,0,2,.792,2,2.412v4.736h1.333v-4.159a3.257,3.257,0,0,1,.45-2.125,2.245,2.245,0,0,1,1.818-.864c1.369,0,2,.792,2,2.412v4.736Zm22.374,0H303v-5.474a2.623,2.623,0,0,0-2.863-2.863,3.182,3.182,0,0,0-2.863,1.639,2.708,2.708,0,0,0-2.7-1.639,3.128,3.128,0,0,0-2.791,1.531v-1.243h-1.351v8.049h1.333v-4.159a3.258,3.258,0,0,1,.432-2.125,2.279,2.279,0,0,1,1.836-.864c1.369,0,2,.792,2,2.412v4.736h1.332v-4.159a3.25,3.25,0,0,1,.451-2.125,2.245,2.245,0,0,1,1.818-.864c1.369,0,2,.792,2,2.412v4.736Zm4.316-4a4.222,4.222,0,0,0,1.278,3.061,4.316,4.316,0,0,0,3.1,1.278,4.391,4.391,0,0,0,3.1-1.3,4.281,4.281,0,0,0,0-6.1,4.34,4.34,0,0,0-3.1-1.279,4.3,4.3,0,0,0-3.1,1.261A4.229,4.229,0,0,0,305.943,382.629Zm1.458,0a2.911,2.911,0,1,1,2.917,3.043A2.957,2.957,0,0,1,307.4,382.629ZM317.733,373v13.63h1.314v-1.459a3.278,3.278,0,0,0,2.935,1.8c2.3,0,3.853-1.711,3.853-4.339,0-2.7-1.548-4.34-3.8-4.34a3.107,3.107,0,0,0-2.935,1.8V373h-1.368Zm1.314,9.651a2.711,2.711,0,0,1,2.737-2.989,2.486,2.486,0,0,1,2.593,2.809c0,2.016-1.026,3.169-2.629,3.169C320.092,385.636,319.047,384.555,319.047,382.647ZM329,386.626h1.386v-8.049H329v8.049Zm-0.324-11.92a1.008,1.008,0,0,0,2.016.018,1.022,1.022,0,0,0-1.008-1.026A1.006,1.006,0,0,0,328.677,374.706Zm5.58,11.92h1.4V373h-1.4v13.63Zm5.255,0H340.9v-8.049h-1.387v8.049Zm-0.324-11.92a1.009,1.009,0,0,0,2.017.018A1.022,1.022,0,0,0,340.2,373.7,1.007,1.007,0,0,0,339.188,374.706Zm5.724,5.006v6.914h1.405v-6.914h1.476v-1.135h-1.476v-3.241h-1.405v3.241h-1.476v1.135h1.476Zm5.022,10.839h1.548l5.4-11.974h-1.512l-2.485,5.78-2.341-5.78h-1.584l3.151,7.257ZM177.616,404.577h-1.368v1.513a3.114,3.114,0,0,0-2.953-1.8c-2.251,0-3.781,1.639-3.781,4.34,0,2.628,1.548,4.339,3.853,4.339a3.238,3.238,0,0,0,2.917-1.8v1.459h1.332v-8.049Zm-1.332,4.106c0,1.854-1.009,2.916-2.629,2.916-1.711,0-2.683-1.1-2.683-3.042,0-1.837.972-2.9,2.629-2.9A2.713,2.713,0,0,1,176.284,408.683Zm4.984,3.943h1.368v-4.159a3.1,3.1,0,0,1,.468-2.125,2.458,2.458,0,0,1,1.963-.864c1.44,0,2.106.792,2.106,2.412v4.736h1.405v-5.474a2.706,2.706,0,0,0-3.025-2.863,3.306,3.306,0,0,0-2.935,1.531v-1.243h-1.35v8.049ZM199.684,399h-1.369v7.094a3.1,3.1,0,0,0-2.935-1.8c-2.25,0-3.8,1.639-3.8,4.34,0,2.628,1.549,4.339,3.853,4.339a3.25,3.25,0,0,0,2.917-1.8v1.459h1.333V399Zm-1.333,9.651c0,1.908-1.044,2.988-2.7,2.988-1.6,0-2.611-1.152-2.611-3.168a2.485,2.485,0,0,1,2.592-2.809A2.7,2.7,0,0,1,198.351,408.647Zm12.545-4.07h-1.441v4.7c0,2.431,1.279,3.691,3.655,3.691,2.413,0,3.673-1.26,3.673-3.691v-4.7h-1.4v3.962c0,2.124-.468,3.114-2.233,3.114s-2.25-.99-2.25-3.114v-3.962Zm9.521,8.049h1.405V399h-1.405v13.63Zm5.4-6.914v6.914h1.4v-6.914H228.7v-1.135h-1.477v-3.241h-1.4v3.241h-1.476v1.135h1.476Zm5.418,6.914h1.386v-8.049h-1.386v8.049Zm-0.324-11.92a1.008,1.008,0,0,0,2.016.018,1.022,1.022,0,0,0-1.008-1.026A1.006,1.006,0,0,0,230.911,400.706Zm16.707,11.92h1.368v-5.474a2.623,2.623,0,0,0-2.862-2.863,3.18,3.18,0,0,0-2.863,1.639,2.709,2.709,0,0,0-2.7-1.639,3.129,3.129,0,0,0-2.791,1.531v-1.243h-1.35v8.049h1.332v-4.159a3.258,3.258,0,0,1,.432-2.125,2.281,2.281,0,0,1,1.837-.864c1.368,0,2,.792,2,2.412v4.736h1.333v-4.159a3.257,3.257,0,0,1,.45-2.125,2.245,2.245,0,0,1,1.818-.864c1.369,0,2,.792,2,2.412v4.736Zm12.455-8.049H258.7v1.513a3.113,3.113,0,0,0-2.953-1.8c-2.25,0-3.781,1.639-3.781,4.34,0,2.628,1.549,4.339,3.853,4.339a3.237,3.237,0,0,0,2.917-1.8v1.459h1.333v-8.049Zm-1.333,4.106c0,1.854-1.008,2.916-2.628,2.916-1.711,0-2.683-1.1-2.683-3.042,0-1.837.972-2.9,2.629-2.9A2.712,2.712,0,0,1,258.74,408.683Zm5.2-2.971v6.914h1.405v-6.914h1.476v-1.135h-1.476v-3.241H263.94v3.241h-1.476v1.135h1.476Zm12.53,3.1v-0.27c0-2.665-1.512-4.268-3.871-4.268a4,4,0,0,0-4.015,4.3c0,2.628,1.656,4.393,4.105,4.393a4.016,4.016,0,0,0,3.727-2.2l-1.044-.7a2.949,2.949,0,0,1-2.611,1.747,2.644,2.644,0,0,1-2.665-2.881v-0.126h6.374Zm-1.476-1.117h-4.9a2.356,2.356,0,0,1,2.449-2.214A2.212,2.212,0,0,1,274.994,407.692Zm16.83,3.025a4.13,4.13,0,0,1-2.485.918,3.008,3.008,0,0,1,.108-6.013,4.045,4.045,0,0,1,2.233.7v-1.477a5.743,5.743,0,0,0-2.5-.558,4.121,4.121,0,0,0-4.195,4.394,3.989,3.989,0,0,0,4.141,4.285,5.313,5.313,0,0,0,2.7-.648v-1.6Zm2.157-2.088a4.223,4.223,0,0,0,1.279,3.061,4.312,4.312,0,0,0,3.1,1.278,4.395,4.395,0,0,0,3.1-1.3,4.283,4.283,0,0,0,0-6.1,4.343,4.343,0,0,0-3.1-1.279,4.293,4.293,0,0,0-3.1,1.261A4.23,4.23,0,0,0,293.981,408.629Zm1.459,0a2.911,2.911,0,1,1,2.917,3.043A2.957,2.957,0,0,1,295.44,408.629Zm21.531,4h1.368v-5.474a2.623,2.623,0,0,0-2.863-2.863,3.182,3.182,0,0,0-2.863,1.639,2.708,2.708,0,0,0-2.7-1.639,3.128,3.128,0,0,0-2.791,1.531v-1.243h-1.351v8.049H307.1v-4.159a3.258,3.258,0,0,1,.432-2.125,2.279,2.279,0,0,1,1.836-.864c1.369,0,2,.792,2,2.412v4.736H312.7v-4.159a3.25,3.25,0,0,1,.451-2.125,2.245,2.245,0,0,1,1.818-.864c1.369,0,2,.792,2,2.412v4.736Zm5.324,0h1.4v-6.914h2.106v-1.135h-2.142v-2.142c0-1.549.036-2.287,1.062-2.287a2.21,2.21,0,0,1,1.08.288v-1.422a3.727,3.727,0,0,0-1.188-.18c-1.927,0-2.323,1.008-2.323,3.421v2.322h-1.548v1.135H322.3v6.914Zm5.094-4a4.222,4.222,0,0,0,1.278,3.061,4.314,4.314,0,0,0,3.1,1.278,4.393,4.393,0,0,0,3.1-1.3,4.283,4.283,0,0,0,0-6.1,4.341,4.341,0,0,0-3.1-1.279,4.294,4.294,0,0,0-3.1,1.261A4.229,4.229,0,0,0,327.389,408.629Zm1.458,0a2.911,2.911,0,1,1,2.917,3.043A2.957,2.957,0,0,1,328.847,408.629Zm10.35,4h1.368V408.7c0-2.107.72-3.151,2.179-3.151a2.586,2.586,0,0,1,.846.162l0.468-1.243a2.768,2.768,0,0,0-.936-0.162c-1.224,0-1.981.576-2.7,1.945v-1.675H339.2v8.049Zm7.416-6.914v6.914h1.4v-6.914h1.477v-1.135h-1.477v-3.241h-1.4v3.241h-1.477v1.135h1.477Zm5.544,6.05a1.018,1.018,0,0,0,1.044,1.026,1.034,1.034,0,0,0,1.062-1.026A1.053,1.053,0,0,0,352.157,411.762Z"/>
  <path id="STRETCH" class="cls-2" d="M208.686,329.3l-1.409,2.32a5.486,5.486,0,0,0,4.066,1.681c2.689,0,4.385-1.649,4.385-4.034,0-2.112-1.12-2.865-3.153-3.409-1.04-.272-1.825-0.448-1.825-1.264a1.093,1.093,0,0,1,1.265-.961,3.469,3.469,0,0,1,2.193.913l0.976-2.241a5.775,5.775,0,0,0-3.393-1.025A3.665,3.665,0,0,0,207.837,325c0,1.792,1.009,2.625,3.073,3.169,1.3,0.336,1.921.608,1.921,1.521a1.263,1.263,0,0,1-1.424,1.184A3.765,3.765,0,0,1,208.686,329.3Zm17.632,3.7h3.121v-8.74H232v-2.7h-8.227v2.7h2.545V333Zm17.328-6.034v-3.01h0.625c1.3,0,1.888.385,1.888,1.585,0,1.008-.624,1.425-1.937,1.425h-0.576ZM240.717,333h2.929v-4.482L246.271,333h3.522l-3.122-4.61a3.032,3.032,0,0,0,2.562-3.265,3.4,3.4,0,0,0-1.281-2.8c-0.976-.753-2.193-0.769-3.778-0.769h-3.457V333Zm17.456,0h7.011v-2.561h-3.97V328.5h3.746v-2.449h-3.746v-1.985h3.97v-2.513h-7.011V333Zm17.92,0h3.122v-8.74h2.561v-2.7h-8.228v2.7h2.545V333Zm22.394-11a6.605,6.605,0,0,0-2.961-.721,6.006,6.006,0,0,0,0,12,6.617,6.617,0,0,0,2.961-.72v-3.41a3.423,3.423,0,0,1-2.641,1.377,3.259,3.259,0,0,1,0-6.5,3.426,3.426,0,0,1,2.641,1.377V322Zm8.957,11h3.121v-4.658h4.162V333h3.121V321.555h-3.121v4.45h-4.162v-4.45h-3.121V333Z"/>
  <path id="Engineered_to_maintain_shape_after_multiple_washes_and_wears." data-name="Engineered to maintain shape after multiple washes and wears." class="cls-1" d="M454.827,360.626h6.788V359.2h-5.258V354.27h5.258v-1.423h-5.258v-3.691h5.258v-1.4h-6.788v12.874Zm10.134,0h1.368v-4.159a3.1,3.1,0,0,1,.468-2.125,2.458,2.458,0,0,1,1.963-.864c1.44,0,2.107.792,2.107,2.412v4.736h1.4v-5.474a2.706,2.706,0,0,0-3.025-2.863,3.306,3.306,0,0,0-2.935,1.531v-1.243h-1.35v8.049Zm18.416-8.049h-1.369v1.5a3.126,3.126,0,0,0-2.952-1.783c-2.251,0-3.782,1.6-3.782,4.286,0,2.61,1.549,4.3,3.854,4.3a3.232,3.232,0,0,0,2.916-1.783v1.351a3.431,3.431,0,0,1-.342,1.836,2.477,2.477,0,0,1-2.3,1.063c-1.549,0-2.4-.7-2.4-1.891v-0.108h-1.549c0.054,2.017,1.459,3.2,3.926,3.2a4.226,4.226,0,0,0,3.241-1.206,3.722,3.722,0,0,0,.756-2.863v-7.905Zm-1.333,4.052c0,1.854-1.008,2.934-2.628,2.934-1.711,0-2.683-1.1-2.683-3.042,0-1.837.972-2.9,2.629-2.9A2.7,2.7,0,0,1,482.044,356.629Zm5.093,4h1.386v-8.049h-1.386v8.049Zm-0.325-11.92a1.009,1.009,0,0,0,2.017.018,1.022,1.022,0,0,0-1.008-1.026A1.007,1.007,0,0,0,486.812,348.706Zm5.508,11.92h1.369v-4.159a3.1,3.1,0,0,1,.468-2.125,2.456,2.456,0,0,1,1.962-.864c1.441,0,2.107.792,2.107,2.412v4.736h1.4v-5.474a2.706,2.706,0,0,0-3.025-2.863,3.3,3.3,0,0,0-2.935,1.531v-1.243H492.32v8.049Zm18.11-3.817v-0.27c0-2.665-1.512-4.268-3.871-4.268a4,4,0,0,0-4.015,4.3c0,2.628,1.656,4.393,4.105,4.393a4.015,4.015,0,0,0,3.727-2.2l-1.044-.7a2.947,2.947,0,0,1-2.611,1.747,2.644,2.644,0,0,1-2.665-2.881v-0.126h6.374Zm-1.476-1.117h-4.9a2.356,2.356,0,0,1,2.449-2.214A2.211,2.211,0,0,1,508.954,355.692Zm11.628,1.117v-0.27c0-2.665-1.512-4.268-3.871-4.268a4,4,0,0,0-4.015,4.3c0,2.628,1.656,4.393,4.105,4.393a4.015,4.015,0,0,0,3.727-2.2l-1.044-.7a2.949,2.949,0,0,1-2.611,1.747,2.644,2.644,0,0,1-2.665-2.881v-0.126h6.374Zm-1.476-1.117h-4.9a2.356,2.356,0,0,1,2.449-2.214A2.212,2.212,0,0,1,519.106,355.692Zm4.462,4.934h1.368V356.7c0-2.107.721-3.151,2.179-3.151a2.586,2.586,0,0,1,.846.162l0.468-1.243a2.768,2.768,0,0,0-.936-0.162c-1.224,0-1.98.576-2.7,1.945v-1.675h-1.224v8.049Zm14.384-3.817v-0.27c0-2.665-1.512-4.268-3.871-4.268a4,4,0,0,0-4.015,4.3c0,2.628,1.656,4.393,4.105,4.393a4.016,4.016,0,0,0,3.727-2.2l-1.044-.7a2.949,2.949,0,0,1-2.611,1.747,2.643,2.643,0,0,1-2.665-2.881v-0.126h6.374Zm-1.476-1.117h-4.9a2.356,2.356,0,0,1,2.449-2.214A2.212,2.212,0,0,1,536.476,355.692ZM548.41,347h-1.368v7.094a3.107,3.107,0,0,0-2.935-1.8c-2.251,0-3.8,1.639-3.8,4.34,0,2.628,1.548,4.339,3.853,4.339a3.252,3.252,0,0,0,2.917-1.8v1.459h1.332V347Zm-1.332,9.651c0,1.908-1.045,2.989-2.7,2.989-1.6,0-2.611-1.153-2.611-3.169a2.486,2.486,0,0,1,2.593-2.809A2.7,2.7,0,0,1,547.078,356.647Zm11.464-2.935v6.914h1.4v-6.914h1.476v-1.135h-1.476v-3.241h-1.4v3.241h-1.477v1.135h1.477Zm4.7,2.917a4.219,4.219,0,0,0,1.279,3.061,4.312,4.312,0,0,0,3.1,1.278,4.388,4.388,0,0,0,3.1-1.3,4.28,4.28,0,0,0,0-6.1,4.34,4.34,0,0,0-3.1-1.279,4.292,4.292,0,0,0-3.1,1.261A4.226,4.226,0,0,0,563.239,356.629Zm1.459,0a2.91,2.91,0,1,1,2.916,3.042A2.956,2.956,0,0,1,564.7,356.629Zm27.74,4h1.369v-5.474a2.624,2.624,0,0,0-2.863-2.863,3.181,3.181,0,0,0-2.863,1.639,2.708,2.708,0,0,0-2.7-1.639,3.13,3.13,0,0,0-2.791,1.531v-1.243h-1.35v8.049h1.332v-4.159a3.251,3.251,0,0,1,.433-2.125,2.279,2.279,0,0,1,1.836-.864c1.369,0,2,.792,2,2.412v4.736h1.332v-4.159a3.257,3.257,0,0,1,.45-2.125,2.246,2.246,0,0,1,1.819-.864c1.368,0,2,.792,2,2.412v4.736Zm12.455-8.049h-1.368v1.513a3.115,3.115,0,0,0-2.953-1.8c-2.251,0-3.781,1.639-3.781,4.34,0,2.628,1.548,4.339,3.853,4.339a3.239,3.239,0,0,0,2.917-1.8v1.459h1.332v-8.049Zm-1.332,4.106c0,1.854-1.009,2.916-2.629,2.916-1.711,0-2.683-1.1-2.683-3.042,0-1.837.972-2.9,2.629-2.9A2.713,2.713,0,0,1,603.561,356.683Zm5.056,3.943H610v-8.049h-1.386v8.049Zm-0.324-11.92a1.008,1.008,0,0,0,2.016.018A1.022,1.022,0,0,0,609.3,347.7,1.006,1.006,0,0,0,608.293,348.706Zm5.507,11.92h1.369v-4.159a3.1,3.1,0,0,1,.468-2.125,2.457,2.457,0,0,1,1.963-.864c1.44,0,2.106.792,2.106,2.412v4.736h1.4v-5.474a2.706,2.706,0,0,0-3.025-2.863,3.3,3.3,0,0,0-2.935,1.531v-1.243H613.8v8.049Zm11.142-6.914v6.914h1.4v-6.914h1.476v-1.135h-1.476v-3.241h-1.4v3.241h-1.476v1.135h1.476Zm12.836-1.135H636.41v1.513a3.114,3.114,0,0,0-2.953-1.8c-2.251,0-3.781,1.639-3.781,4.34,0,2.628,1.548,4.339,3.853,4.339a3.238,3.238,0,0,0,2.917-1.8v1.459h1.332v-8.049Zm-1.332,4.106c0,1.854-1.008,2.916-2.629,2.916-1.71,0-2.683-1.1-2.683-3.042,0-1.837.973-2.9,2.629-2.9A2.712,2.712,0,0,1,636.446,356.683Zm5.056,3.943h1.386v-8.049H641.5v8.049Zm-0.324-11.92a1.008,1.008,0,0,0,2.016.018,1.022,1.022,0,0,0-1.008-1.026A1.006,1.006,0,0,0,641.178,348.706Zm5.508,11.92h1.368v-4.159a3.1,3.1,0,0,1,.468-2.125,2.457,2.457,0,0,1,1.963-.864c1.44,0,2.106.792,2.106,2.412v4.736H654v-5.474a2.706,2.706,0,0,0-3.025-2.863,3.3,3.3,0,0,0-2.935,1.531v-1.243h-1.35v8.049Zm-178.3,24.649a3.314,3.314,0,0,0,3.169,1.693c1.783,0,2.935-1.062,2.935-2.557,0-1.314-.774-1.89-2.341-2.395-1.332-.432-2.07-0.54-2.07-1.386a1.24,1.24,0,0,1,1.368-1.206,1.905,1.905,0,0,1,1.837,1.152l1.116-.684a2.877,2.877,0,0,0-2.863-1.6c-1.71,0-2.845,1.027-2.845,2.431,0,1.585,1.189,1.927,3.169,2.611,0.847,0.288,1.261.612,1.261,1.224a1.314,1.314,0,0,1-1.513,1.207,2.17,2.17,0,0,1-2.052-1.279Zm9.073,1.351h1.368v-4.159a3.1,3.1,0,0,1,.468-2.125,2.457,2.457,0,0,1,1.963-.864c1.44,0,2.106.792,2.106,2.412v4.736h1.4v-5.474a2.706,2.706,0,0,0-3.025-2.863,3.3,3.3,0,0,0-2.935,1.531V373h-1.35v13.63Zm18.416-8.049h-1.369v1.513a3.113,3.113,0,0,0-2.953-1.8c-2.25,0-3.781,1.639-3.781,4.34,0,2.628,1.549,4.339,3.853,4.339a3.237,3.237,0,0,0,2.917-1.8v1.459h1.333v-8.049Zm-1.333,4.106c0,1.854-1.008,2.916-2.629,2.916-1.71,0-2.682-1.1-2.682-3.042,0-1.837.972-2.9,2.628-2.9A2.712,2.712,0,0,1,494.545,382.683Zm4.984,7.868H500.9v-5.384a3.105,3.105,0,0,0,2.935,1.8c2.251,0,3.8-1.621,3.8-4.339,0-2.647-1.548-4.34-3.853-4.34a3.246,3.246,0,0,0-2.935,1.8v-1.513h-1.314v11.974Zm1.332-7.922c0-1.909,1.045-3.007,2.7-3.007,1.6,0,2.611,1.152,2.611,3.169a2.5,2.5,0,0,1-2.593,2.827A2.7,2.7,0,0,1,500.861,382.629Zm17.048,0.18v-0.27c0-2.665-1.512-4.268-3.871-4.268a4,4,0,0,0-4.015,4.3c0,2.628,1.656,4.393,4.105,4.393a4.016,4.016,0,0,0,3.727-2.2l-1.044-.7a2.95,2.95,0,0,1-2.611,1.747,2.644,2.644,0,0,1-2.665-2.881v-0.126h6.374Zm-1.476-1.117h-4.9a2.356,2.356,0,0,1,2.449-2.214A2.212,2.212,0,0,1,516.433,381.692Zm18.144-3.115h-1.368v1.513a3.115,3.115,0,0,0-2.953-1.8c-2.251,0-3.781,1.639-3.781,4.34,0,2.628,1.548,4.339,3.853,4.339a3.239,3.239,0,0,0,2.917-1.8v1.459h1.332v-8.049Zm-1.332,4.106c0,1.854-1.009,2.916-2.629,2.916-1.711,0-2.683-1.1-2.683-3.042,0-1.837.972-2.9,2.629-2.9A2.713,2.713,0,0,1,533.245,382.683Zm5.344,3.943h1.4v-6.914H542.1v-1.135h-2.143v-2.142c0-1.549.036-2.287,1.062-2.287a2.214,2.214,0,0,1,1.081.288v-1.422a3.733,3.733,0,0,0-1.189-.18c-1.926,0-2.322,1.008-2.322,3.421v2.322H537.04v1.135h1.549v6.914Zm5.957-6.914v6.914h1.4v-6.914h1.476v-1.135h-1.476v-3.241h-1.4v3.241H543.07v1.135h1.476Zm12.53,3.1v-0.27c0-2.665-1.512-4.268-3.871-4.268a4,4,0,0,0-4.015,4.3c0,2.628,1.656,4.393,4.1,4.393a4.015,4.015,0,0,0,3.727-2.2l-1.044-.7a2.949,2.949,0,0,1-2.611,1.747,2.644,2.644,0,0,1-2.665-2.881v-0.126h6.374Zm-1.476-1.117h-4.9a2.356,2.356,0,0,1,2.449-2.214A2.212,2.212,0,0,1,555.6,381.692Zm4.462,4.934h1.368V382.7c0-2.107.72-3.151,2.179-3.151a2.586,2.586,0,0,1,.846.162l0.468-1.243a2.768,2.768,0,0,0-.936-0.162c-1.224,0-1.981.576-2.7,1.945v-1.675h-1.224v8.049Zm24.609,0h1.369v-5.474a2.624,2.624,0,0,0-2.863-2.863,3.18,3.18,0,0,0-2.863,1.639,2.709,2.709,0,0,0-2.7-1.639,3.129,3.129,0,0,0-2.791,1.531v-1.243h-1.35v8.049H574.8v-4.159a3.258,3.258,0,0,1,.432-2.125,2.281,2.281,0,0,1,1.837-.864c1.368,0,2,.792,2,2.412v4.736H580.4v-4.159a3.257,3.257,0,0,1,.45-2.125,2.245,2.245,0,0,1,1.819-.864c1.368,0,2,.792,2,2.412v4.736Zm6.261-8.049h-1.44v4.7c0,2.431,1.278,3.691,3.655,3.691,2.412,0,3.673-1.26,3.673-3.691v-4.7h-1.405v3.962c0,2.124-.468,3.114-2.232,3.114s-2.251-.99-2.251-3.114v-3.962Zm9.522,8.049h1.4V373h-1.4v13.63Zm5.4-6.914v6.914h1.405v-6.914h1.476v-1.135h-1.476v-3.241h-1.405v3.241h-1.476v1.135h1.476Zm5.418,6.914h1.387v-8.049h-1.387v8.049Zm-0.324-11.92a1.009,1.009,0,0,0,2.017.018,1.022,1.022,0,0,0-1.009-1.026A1.006,1.006,0,0,0,610.947,374.706Zm5.508,15.845h1.368v-5.384a3.105,3.105,0,0,0,2.935,1.8c2.251,0,3.8-1.621,3.8-4.339,0-2.647-1.548-4.34-3.853-4.34a3.246,3.246,0,0,0-2.935,1.8v-1.513h-1.314v11.974Zm1.332-7.922c0-1.909,1.045-3.007,2.7-3.007,1.6,0,2.611,1.152,2.611,3.169a2.5,2.5,0,0,1-2.593,2.827A2.7,2.7,0,0,1,617.787,382.629Zm9.936,4h1.4V373h-1.4v13.63Zm12.368-3.817v-0.27c0-2.665-1.513-4.268-3.871-4.268a4,4,0,0,0-4.016,4.3c0,2.628,1.657,4.393,4.106,4.393a4.017,4.017,0,0,0,3.727-2.2l-1.045-.7a2.947,2.947,0,0,1-2.61,1.747,2.643,2.643,0,0,1-2.665-2.881v-0.126h6.374Zm-1.477-1.117h-4.9a2.356,2.356,0,0,1,2.449-2.214A2.211,2.211,0,0,1,638.614,381.692Zm-159.54,22.6h-0.216l-2.449,5.78-2.143-5.492h-1.53l3.583,8.553,2.647-6.176,2.647,6.176,3.583-8.553h-1.549l-2.161,5.492Zm15.912,0.288h-1.368v1.513a3.114,3.114,0,0,0-2.953-1.8c-2.251,0-3.781,1.639-3.781,4.34,0,2.628,1.548,4.339,3.853,4.339a3.238,3.238,0,0,0,2.917-1.8v1.459h1.332v-8.049Zm-1.332,4.106c0,1.854-1.008,2.916-2.629,2.916-1.71,0-2.683-1.1-2.683-3.042,0-1.837.973-2.9,2.629-2.9A2.712,2.712,0,0,1,493.654,408.683Zm4.138,2.592a3.312,3.312,0,0,0,3.168,1.693c1.783,0,2.935-1.062,2.935-2.557,0-1.314-.774-1.89-2.34-2.395-1.333-.432-2.071-0.54-2.071-1.386a1.24,1.24,0,0,1,1.368-1.206,1.9,1.9,0,0,1,1.837,1.152l1.116-.684a2.877,2.877,0,0,0-2.863-1.6c-1.71,0-2.844,1.027-2.844,2.431,0,1.585,1.188,1.927,3.169,2.611,0.846,0.288,1.26.612,1.26,1.224a1.314,1.314,0,0,1-1.513,1.207,2.17,2.17,0,0,1-2.052-1.279Zm9.072,1.351h1.368v-4.159a3.1,3.1,0,0,1,.468-2.125,2.458,2.458,0,0,1,1.963-.864c1.44,0,2.106.792,2.106,2.412v4.736h1.4v-5.474a2.706,2.706,0,0,0-3.025-2.863,3.306,3.306,0,0,0-2.935,1.531V399h-1.35v13.63Zm18.11-3.817v-0.27c0-2.665-1.513-4.268-3.871-4.268a4,4,0,0,0-4.016,4.3c0,2.628,1.657,4.393,4.106,4.393a4.017,4.017,0,0,0,3.727-2.2l-1.045-.7a2.947,2.947,0,0,1-2.61,1.747,2.643,2.643,0,0,1-2.665-2.881v-0.126h6.374Zm-1.477-1.117h-4.9a2.356,2.356,0,0,1,2.449-2.214A2.211,2.211,0,0,1,523.5,407.692Zm3.6,3.583a3.314,3.314,0,0,0,3.169,1.693c1.783,0,2.935-1.062,2.935-2.557,0-1.314-.774-1.89-2.341-2.395-1.332-.432-2.07-0.54-2.07-1.386a1.24,1.24,0,0,1,1.368-1.206,1.905,1.905,0,0,1,1.837,1.152l1.116-.684a2.877,2.877,0,0,0-2.863-1.6c-1.71,0-2.845,1.027-2.845,2.431,0,1.585,1.189,1.927,3.169,2.611,0.847,0.288,1.261.612,1.261,1.224a1.315,1.315,0,0,1-1.513,1.207,2.17,2.17,0,0,1-2.052-1.279Zm22.773-6.7H548.5v1.513a3.113,3.113,0,0,0-2.953-1.8c-2.25,0-3.781,1.639-3.781,4.34,0,2.628,1.549,4.339,3.853,4.339a3.237,3.237,0,0,0,2.917-1.8v1.459h1.333v-8.049Zm-1.333,4.106c0,1.854-1.008,2.916-2.629,2.916-1.71,0-2.682-1.1-2.682-3.042,0-1.837.972-2.9,2.628-2.9A2.712,2.712,0,0,1,548.535,408.683Zm4.984,3.943h1.369v-4.159a3.1,3.1,0,0,1,.468-2.125,2.456,2.456,0,0,1,1.962-.864c1.441,0,2.107.792,2.107,2.412v4.736h1.4v-5.474a2.706,2.706,0,0,0-3.025-2.863,3.3,3.3,0,0,0-2.934,1.531v-1.243h-1.351v8.049ZM571.935,399h-1.368v7.094a3.106,3.106,0,0,0-2.935-1.8c-2.251,0-3.8,1.639-3.8,4.34,0,2.628,1.548,4.339,3.853,4.339a3.251,3.251,0,0,0,2.917-1.8v1.459h1.332V399Zm-1.332,9.651c0,1.908-1.044,2.988-2.7,2.988-1.6,0-2.611-1.152-2.611-3.168a2.486,2.486,0,0,1,2.593-2.809A2.7,2.7,0,0,1,570.6,408.647Zm16.181-4.358h-0.216l-2.449,5.78-2.142-5.492h-1.531l3.583,8.553,2.647-6.176,2.647,6.176,3.583-8.553h-1.548l-2.161,5.492Zm15.607,4.52v-0.27c0-2.665-1.513-4.268-3.872-4.268a4,4,0,0,0-4.015,4.3c0,2.628,1.657,4.393,4.105,4.393a4.017,4.017,0,0,0,3.728-2.2l-1.045-.7a2.947,2.947,0,0,1-2.61,1.747,2.643,2.643,0,0,1-2.665-2.881v-0.126h6.374Zm-1.477-1.117h-4.9a2.355,2.355,0,0,1,2.448-2.214A2.211,2.211,0,0,1,600.914,407.692Zm11.935-3.115H611.48v1.513a3.113,3.113,0,0,0-2.953-1.8c-2.25,0-3.781,1.639-3.781,4.34,0,2.628,1.549,4.339,3.853,4.339a3.237,3.237,0,0,0,2.917-1.8v1.459h1.333v-8.049Zm-1.333,4.106c0,1.854-1.008,2.916-2.629,2.916-1.71,0-2.682-1.1-2.682-3.042,0-1.837.972-2.9,2.628-2.9A2.712,2.712,0,0,1,611.516,408.683Zm5,3.943h1.369V408.7c0-2.107.72-3.151,2.178-3.151a2.586,2.586,0,0,1,.846.162l0.469-1.243a2.778,2.778,0,0,0-.937-0.162c-1.224,0-1.98.576-2.7,1.945v-1.675h-1.224v8.049Zm6.354-1.351a3.313,3.313,0,0,0,3.169,1.693c1.782,0,2.935-1.062,2.935-2.557,0-1.314-.775-1.89-2.341-2.395-1.332-.432-2.071-0.54-2.071-1.386a1.241,1.241,0,0,1,1.369-1.206,1.9,1.9,0,0,1,1.836,1.152l1.117-.684a2.879,2.879,0,0,0-2.863-1.6c-1.711,0-2.845,1.027-2.845,2.431,0,1.585,1.188,1.927,3.169,2.611,0.846,0.288,1.26.612,1.26,1.224a1.314,1.314,0,0,1-1.512,1.207,2.172,2.172,0,0,1-2.053-1.279Zm9.27,0.487a1.018,1.018,0,0,0,1.044,1.026,1.034,1.034,0,0,0,1.063-1.026A1.054,1.054,0,0,0,632.142,411.762Z"/>
  <path id="RETAINS_FIT" data-name="RETAINS FIT" class="cls-2" d="M475.136,326.966v-3.01h0.625c1.3,0,1.888.385,1.888,1.585,0,1.008-.624,1.425-1.936,1.425h-0.577ZM472.207,333h2.929v-4.482L477.761,333h3.522l-3.121-4.61a3.032,3.032,0,0,0,2.561-3.265,3.394,3.394,0,0,0-1.281-2.8c-0.976-.753-2.193-0.769-3.777-0.769h-3.458V333Zm17.456,0h7.011v-2.561H492.7V328.5h3.746v-2.449H492.7v-1.985h3.97v-2.513h-7.011V333Zm17.921,0h3.121v-8.74h2.561v-2.7h-8.227v2.7h2.545V333Zm12.386,0h3.105l0.593-2.049H528.1L528.678,333h3.105l-3.954-11.445h-3.9Zm4.37-4.274,1.153-3.777c0.047-.176.192-0.689,0.4-1.537q0.312,1.272.384,1.537l1.168,3.777H524.34ZM540.147,333H543.3V321.555h-3.153V333Zm12.863,0h3.01v-5.65a18.955,18.955,0,0,0-.176-2.257,16.227,16.227,0,0,0,1.04,2L561.206,333H564.2V321.555h-2.993v5.651a18.985,18.985,0,0,0,.176,2.257,17,17,0,0,0-1.041-2.017l-4.321-5.891h-3.01V333Zm21.345-3.7-1.409,2.32a5.486,5.486,0,0,0,4.066,1.681c2.689,0,4.385-1.649,4.385-4.034,0-2.112-1.12-2.865-3.153-3.409-1.04-.272-1.825-0.448-1.825-1.264a1.093,1.093,0,0,1,1.265-.961,3.469,3.469,0,0,1,2.193.913l0.976-2.241a5.775,5.775,0,0,0-3.393-1.025A3.665,3.665,0,0,0,573.506,325c0,1.792,1.009,2.625,3.073,3.169,1.3,0.336,1.921.608,1.921,1.521a1.263,1.263,0,0,1-1.424,1.184A3.765,3.765,0,0,1,574.355,329.3Zm28.191,3.7h3.041v-4.5h3.746v-2.449h-3.746v-1.985h3.97v-2.513h-7.011V333Zm15.984,0h3.153V321.555H618.53V333Zm14.512,0h3.122v-8.74h2.561v-2.7H630.5v2.7h2.545V333Z"/>
  <path id="Minimal_water_penetration_keeps_you_dry_all_day." data-name="Minimal water penetration keeps you dry all day." class="cls-1" d="M793.476,360.13l3.979-9.255,1.639,8.751h1.494l-2.611-13.378-4.5,10.641-4.5-10.641-2.611,13.378h1.494l1.621-8.751Zm9.916-.5h1.387v-8.049h-1.387v8.049Zm-0.324-11.92a1.009,1.009,0,0,0,2.017.018,1.023,1.023,0,0,0-1.009-1.026A1.006,1.006,0,0,0,803.068,347.706Zm5.508,11.92h1.368v-4.159a3.1,3.1,0,0,1,.468-2.125,2.46,2.46,0,0,1,1.963-.864c1.44,0,2.107.792,2.107,2.412v4.736h1.4v-5.474a2.706,2.706,0,0,0-3.025-2.863,3.306,3.306,0,0,0-2.935,1.531v-1.243h-1.35v8.049Zm11,0h1.386v-8.049h-1.386v8.049Zm-0.324-11.92a1.008,1.008,0,0,0,2.016.018,1.022,1.022,0,0,0-1.008-1.026A1.006,1.006,0,0,0,819.25,347.706Zm16.707,11.92h1.368v-5.474a2.623,2.623,0,0,0-2.863-2.863,3.18,3.18,0,0,0-2.862,1.639,2.71,2.71,0,0,0-2.7-1.639,3.128,3.128,0,0,0-2.791,1.531v-1.243h-1.35v8.049h1.332v-4.159a3.258,3.258,0,0,1,.432-2.125,2.28,2.28,0,0,1,1.837-.864c1.368,0,2,.792,2,2.412v4.736h1.333v-4.159a3.257,3.257,0,0,1,.45-2.125,2.245,2.245,0,0,1,1.818-.864c1.369,0,2,.792,2,2.412v4.736Zm12.455-8.049h-1.369v1.513a3.111,3.111,0,0,0-2.953-1.8c-2.25,0-3.781,1.639-3.781,4.34,0,2.628,1.549,4.339,3.853,4.339a3.237,3.237,0,0,0,2.917-1.8v1.459h1.333v-8.049Zm-1.333,4.106c0,1.854-1.008,2.916-2.629,2.916-1.71,0-2.682-1.1-2.682-3.042,0-1.837.972-2.9,2.628-2.9A2.712,2.712,0,0,1,847.079,355.683Zm5.056,3.943h1.4V346h-1.4v13.63Zm16.327-8.337h-0.216l-2.448,5.78-2.143-5.492h-1.531l3.584,8.553,2.646-6.176L871,360.13l3.583-8.553h-1.548l-2.161,5.492Zm15.913,0.288h-1.369v1.513a3.111,3.111,0,0,0-2.952-1.8c-2.251,0-3.782,1.639-3.782,4.34,0,2.628,1.549,4.339,3.854,4.339a3.236,3.236,0,0,0,2.916-1.8v1.459h1.333v-8.049Zm-1.333,4.106c0,1.854-1.008,2.916-2.628,2.916-1.711,0-2.683-1.1-2.683-3.042,0-1.837.972-2.9,2.629-2.9A2.712,2.712,0,0,1,883.042,355.683Zm5.2-2.971v6.914h1.405v-6.914h1.476v-1.135h-1.476v-3.241h-1.405v3.241h-1.476v1.135h1.476Zm12.53,3.1v-0.27c0-2.665-1.512-4.268-3.871-4.268a4,4,0,0,0-4.015,4.3c0,2.628,1.656,4.393,4.105,4.393a4.015,4.015,0,0,0,3.727-2.2l-1.044-.7a2.949,2.949,0,0,1-2.611,1.747,2.644,2.644,0,0,1-2.665-2.881v-0.126h6.374Zm-1.476-1.117h-4.9a2.356,2.356,0,0,1,2.449-2.214A2.211,2.211,0,0,1,899.3,354.692Zm4.462,4.934h1.368V355.7c0-2.107.721-3.151,2.179-3.151a2.586,2.586,0,0,1,.846.162l0.468-1.243a2.768,2.768,0,0,0-.936-0.162c-1.224,0-1.98.576-2.7,1.945v-1.675h-1.224v8.049ZM771.676,389.551h1.369v-5.384a3.1,3.1,0,0,0,2.934,1.8c2.251,0,3.8-1.621,3.8-4.339,0-2.647-1.549-4.34-3.854-4.34a3.243,3.243,0,0,0-2.934,1.8v-1.513h-1.315v11.974Zm1.333-7.922c0-1.909,1.044-3.007,2.7-3.007,1.6,0,2.611,1.152,2.611,3.169a2.5,2.5,0,0,1-2.593,2.826A2.7,2.7,0,0,1,773.009,381.629Zm17.047,0.18v-0.27c0-2.665-1.512-4.268-3.871-4.268a4,4,0,0,0-4.015,4.3c0,2.628,1.656,4.393,4.105,4.393a4.015,4.015,0,0,0,3.727-2.2l-1.044-.7a2.949,2.949,0,0,1-2.611,1.747,2.644,2.644,0,0,1-2.665-2.881v-0.126h6.374Zm-1.476-1.117h-4.9a2.356,2.356,0,0,1,2.449-2.214A2.212,2.212,0,0,1,788.58,380.692Zm4.444,4.934h1.368v-4.159a3.1,3.1,0,0,1,.468-2.125,2.46,2.46,0,0,1,1.963-.864c1.44,0,2.107.792,2.107,2.412v4.736h1.4v-5.474a2.706,2.706,0,0,0-3.025-2.863,3.307,3.307,0,0,0-2.935,1.531v-1.243h-1.35v8.049Zm18.11-3.817v-0.27c0-2.665-1.513-4.268-3.871-4.268a4,4,0,0,0-4.015,4.3c0,2.628,1.656,4.393,4.1,4.393a4.016,4.016,0,0,0,3.727-2.2l-1.044-.7a2.95,2.95,0,0,1-2.611,1.747,2.643,2.643,0,0,1-2.665-2.881v-0.126h6.374Zm-1.477-1.117h-4.9a2.356,2.356,0,0,1,2.449-2.214A2.211,2.211,0,0,1,809.657,380.692Zm4.661-1.98v6.914h1.4v-6.914H817.2v-1.135h-1.477v-3.241h-1.4v3.241h-1.477v1.135h1.477Zm5.363,6.914h1.369V381.7c0-2.107.72-3.151,2.178-3.151a2.587,2.587,0,0,1,.847.162l0.468-1.243a2.768,2.768,0,0,0-.936-0.162c-1.225,0-1.981.576-2.7,1.945v-1.675h-1.225v8.049Zm14.691-8.049H833v1.513a3.111,3.111,0,0,0-2.953-1.8c-2.25,0-3.781,1.639-3.781,4.34,0,2.628,1.549,4.339,3.853,4.339a3.237,3.237,0,0,0,2.917-1.8v1.459h1.333v-8.049Zm-1.333,4.106c0,1.854-1.008,2.916-2.629,2.916-1.71,0-2.682-1.1-2.682-3.042,0-1.837.972-2.9,2.628-2.9A2.712,2.712,0,0,1,833.039,381.683Zm5.2-2.971v6.914h1.4v-6.914h1.476v-1.135h-1.476v-3.241h-1.4v3.241h-1.476v1.135h1.476Zm5.418,6.914h1.386v-8.049h-1.386v8.049Zm-0.324-11.92a1.008,1.008,0,0,0,2.016.018,1.022,1.022,0,0,0-1.008-1.026A1.006,1.006,0,0,0,843.333,373.706Zm4.859,7.923a4.223,4.223,0,0,0,1.279,3.061,4.312,4.312,0,0,0,3.1,1.278,4.395,4.395,0,0,0,3.1-1.3,4.283,4.283,0,0,0,0-6.1,4.343,4.343,0,0,0-3.1-1.279,4.293,4.293,0,0,0-3.1,1.261A4.23,4.23,0,0,0,848.192,381.629Zm1.459,0a2.911,2.911,0,1,1,2.917,3.043A2.957,2.957,0,0,1,849.651,381.629Zm10.331,4h1.369v-4.159a3.1,3.1,0,0,1,.468-2.125,2.457,2.457,0,0,1,1.963-.864c1.44,0,2.106.792,2.106,2.412v4.736h1.4v-5.474a2.706,2.706,0,0,0-3.025-2.863,3.3,3.3,0,0,0-2.935,1.531v-1.243h-1.351v8.049Zm17.154,0h1.387v-4.249l4.141,4.249h1.926l-4.375-4.357,4.015-3.692h-1.836l-3.871,3.655V372h-1.387v13.63Zm16.94-3.817v-0.27c0-2.665-1.512-4.268-3.871-4.268a4,4,0,0,0-4.015,4.3c0,2.628,1.656,4.393,4.1,4.393a4.015,4.015,0,0,0,3.727-2.2l-1.044-.7a2.949,2.949,0,0,1-2.611,1.747,2.644,2.644,0,0,1-2.665-2.881v-0.126h6.374Zm-1.476-1.117h-4.9a2.356,2.356,0,0,1,2.449-2.214A2.211,2.211,0,0,1,892.6,380.692Zm11.628,1.117v-0.27c0-2.665-1.512-4.268-3.871-4.268a4,4,0,0,0-4.015,4.3c0,2.628,1.656,4.393,4.105,4.393a4.015,4.015,0,0,0,3.727-2.2l-1.044-.7a2.949,2.949,0,0,1-2.611,1.747,2.644,2.644,0,0,1-2.665-2.881v-0.126h6.374Zm-1.476-1.117h-4.9a2.356,2.356,0,0,1,2.449-2.214A2.212,2.212,0,0,1,902.752,380.692Zm4.444,8.859h1.368v-5.384a3.1,3.1,0,0,0,2.935,1.8c2.251,0,3.8-1.621,3.8-4.339,0-2.647-1.548-4.34-3.853-4.34a3.245,3.245,0,0,0-2.935,1.8v-1.513H907.2v11.974Zm1.332-7.922c0-1.909,1.045-3.007,2.7-3.007,1.6,0,2.611,1.152,2.611,3.169a2.5,2.5,0,0,1-2.593,2.826A2.7,2.7,0,0,1,908.528,381.629Zm9.017,2.646a3.315,3.315,0,0,0,3.169,1.693c1.783,0,2.935-1.062,2.935-2.557,0-1.314-.774-1.89-2.34-2.395-1.333-.432-2.071-0.54-2.071-1.386a1.24,1.24,0,0,1,1.368-1.206,1.9,1.9,0,0,1,1.837,1.152l1.116-.684a2.877,2.877,0,0,0-2.863-1.6c-1.71,0-2.844,1.027-2.844,2.431,0,1.584,1.188,1.927,3.168,2.611,0.847,0.288,1.261.612,1.261,1.224a1.314,1.314,0,0,1-1.513,1.207,2.17,2.17,0,0,1-2.052-1.279ZM781.821,415.551h1.548l5.4-11.974h-1.513l-2.485,5.78-2.34-5.78h-1.585L784,410.834Zm8.5-7.922a4.219,4.219,0,0,0,1.279,3.061,4.312,4.312,0,0,0,3.1,1.278,4.395,4.395,0,0,0,3.1-1.3,4.283,4.283,0,0,0,0-6.1,4.343,4.343,0,0,0-3.1-1.279,4.293,4.293,0,0,0-3.1,1.261A4.226,4.226,0,0,0,790.316,407.629Zm1.459,0a2.911,2.911,0,1,1,2.917,3.043A2.957,2.957,0,0,1,791.775,407.629Zm11.628-4.052h-1.441v4.7c0,2.431,1.279,3.691,3.655,3.691,2.413,0,3.673-1.26,3.673-3.691v-4.7h-1.4v3.962c0,2.124-.468,3.115-2.233,3.115s-2.25-.991-2.25-3.115v-3.962ZM826.552,398h-1.368v7.094a3.1,3.1,0,0,0-2.935-1.8c-2.251,0-3.8,1.639-3.8,4.34,0,2.628,1.548,4.339,3.853,4.339a3.251,3.251,0,0,0,2.917-1.8v1.459h1.332V398Zm-1.332,9.651c0,1.908-1.044,2.988-2.7,2.988-1.6,0-2.611-1.152-2.611-3.168a2.486,2.486,0,0,1,2.593-2.809A2.7,2.7,0,0,1,825.22,407.647Zm5.056,3.979h1.368V407.7c0-2.107.721-3.151,2.179-3.151a2.586,2.586,0,0,1,.846.162l0.468-1.243a2.768,2.768,0,0,0-.936-0.162c-1.224,0-1.98.576-2.7,1.945v-1.675h-1.224v8.049Zm6.876,3.925H838.7l5.4-11.974h-1.513l-2.484,5.78-2.341-5.78H836.18l3.15,7.257ZM860,403.577h-1.369v1.513a3.111,3.111,0,0,0-2.952-1.8c-2.251,0-3.782,1.639-3.782,4.34,0,2.628,1.549,4.339,3.854,4.339a3.239,3.239,0,0,0,2.917-1.8v1.459H860v-8.049Zm-1.332,4.106c0,1.854-1.009,2.916-2.629,2.916-1.711,0-2.683-1.1-2.683-3.042,0-1.837.972-2.9,2.629-2.9A2.713,2.713,0,0,1,858.664,407.683Zm5.055,3.943h1.4V398h-1.4v13.63Zm5.256,0h1.4V398h-1.4v13.63ZM887.859,398h-1.368v7.094a3.1,3.1,0,0,0-2.935-1.8c-2.251,0-3.8,1.639-3.8,4.34,0,2.628,1.548,4.339,3.853,4.339a3.251,3.251,0,0,0,2.917-1.8v1.459h1.332V398Zm-1.332,9.651c0,1.908-1.045,2.988-2.7,2.988-1.6,0-2.611-1.152-2.611-3.168a2.486,2.486,0,0,1,2.593-2.809A2.7,2.7,0,0,1,886.527,407.647Zm12.528-4.07h-1.368v1.513a3.113,3.113,0,0,0-2.953-1.8c-2.251,0-3.781,1.639-3.781,4.34,0,2.628,1.548,4.339,3.853,4.339a3.239,3.239,0,0,0,2.917-1.8v1.459h1.332v-8.049Zm-1.332,4.106c0,1.854-1.009,2.916-2.629,2.916-1.711,0-2.683-1.1-2.683-3.042,0-1.837.972-2.9,2.629-2.9A2.713,2.713,0,0,1,897.723,407.683Zm4.659,7.868h1.549l5.4-11.974H907.82l-2.485,5.78-2.34-5.78H901.41l3.151,7.257Zm7.756-4.789a1.018,1.018,0,0,0,1.044,1.026,1.035,1.035,0,0,0,1.063-1.026A1.054,1.054,0,0,0,910.138,410.762Z"/>
  <path id="WATER_RESISTANT" data-name="WATER RESISTANT" class="cls-2" d="M734.037,321.555h-2.513l-1.44,5.475c-0.144.544-.288,1.12-0.4,1.712-0.1-.56-0.209-1.136-0.353-1.712l-1.312-5.475h-3.153L728.1,333H731l1.393-4.882c0.128-.432.24-0.944,0.384-1.537q0.264,1.105.384,1.537L734.565,333h2.9l3.233-11.445h-3.153L736.2,327c-0.1.4-.208,0.96-0.352,1.68a16.8,16.8,0,0,0-.368-1.68ZM747.321,333h3.105l0.592-2.049h4.434L756.028,333h3.105l-3.953-11.445h-3.906Zm4.369-4.274,1.153-3.777c0.048-.176.192-0.689,0.4-1.537q0.312,1.272.384,1.537l1.168,3.777h-3.1ZM768.4,333h3.121v-8.74h2.561v-2.7h-8.228v2.7H768.4V333Zm14.4,0h7.011v-2.561h-3.97V328.5h3.745v-2.449h-3.745v-1.985h3.97v-2.513H782.8V333Zm19.2-6.034v-3.01h0.624c1.3,0,1.889.385,1.889,1.585,0,1.008-.625,1.425-1.937,1.425H802ZM799.069,333H802v-4.482L804.623,333h3.521l-3.121-4.61a3.031,3.031,0,0,0,2.561-3.265,3.394,3.394,0,0,0-1.281-2.8c-0.976-.753-2.192-0.769-3.777-0.769h-3.457V333Zm32.592-6.034v-3.01h0.625c1.3,0,1.888.385,1.888,1.585,0,1.008-.624,1.425-1.936,1.425h-0.577ZM828.732,333h2.929v-4.482L834.286,333h3.522l-3.121-4.61a3.032,3.032,0,0,0,2.561-3.265,3.4,3.4,0,0,0-1.281-2.8c-0.976-.753-2.193-0.769-3.777-0.769h-3.458V333Zm17.456,0H853.2v-2.561h-3.97V328.5h3.746v-2.449h-3.746v-1.985h3.97v-2.513h-7.011V333Zm16.784-3.7-1.409,2.32a5.488,5.488,0,0,0,4.066,1.681c2.689,0,4.386-1.649,4.386-4.034,0-2.112-1.121-2.865-3.153-3.409-1.041-.272-1.825-0.448-1.825-1.264a1.092,1.092,0,0,1,1.264-.961,3.465,3.465,0,0,1,2.193.913l0.977-2.241a5.778,5.778,0,0,0-3.394-1.025A3.665,3.665,0,0,0,862.124,325c0,1.792,1.008,2.625,3.073,3.169,1.3,0.336,1.921.608,1.921,1.521a1.264,1.264,0,0,1-1.425,1.184A3.766,3.766,0,0,1,862.972,329.3Zm16.064,3.7h3.153V321.555h-3.153V333Zm13.376-3.7L891,331.623a5.488,5.488,0,0,0,4.066,1.681c2.689,0,4.386-1.649,4.386-4.034,0-2.112-1.121-2.865-3.154-3.409-1.04-.272-1.824-0.448-1.824-1.264a1.092,1.092,0,0,1,1.264-.961,3.467,3.467,0,0,1,2.193.913l0.976-2.241a5.773,5.773,0,0,0-3.393-1.025A3.665,3.665,0,0,0,891.563,325c0,1.792,1.009,2.625,3.074,3.169,1.3,0.336,1.92.608,1.92,1.521a1.263,1.263,0,0,1-1.424,1.184A3.766,3.766,0,0,1,892.412,329.3Zm17.632,3.7h3.121v-8.74h2.561v-2.7H907.5v2.7h2.545V333Zm12.387,0h3.1l0.592-2.049h4.434L931.138,333h3.106l-3.954-11.445h-3.906Zm4.37-4.274,1.152-3.777c0.048-.176.192-0.689,0.4-1.537q0.312,1.272.384,1.537l1.169,3.777h-3.1ZM942.527,333h3.009v-5.65a18.955,18.955,0,0,0-.176-2.257,16.312,16.312,0,0,0,1.041,2L950.723,333h2.993V321.555h-2.993v5.651a18.985,18.985,0,0,0,.176,2.257,17.175,17.175,0,0,0-1.041-2.017l-4.322-5.891h-3.009V333Zm22.481,0h3.121v-8.74h2.561v-2.7h-8.227v2.7h2.545V333Z"/>
  <path id="Ultra-tough_defense_against_spills_and_stains_for_worry-free_we" data-name="Ultra-tough defense against spills and stains for worry-free we" class="cls-1" d="M1052.64,346.752v8.012c0,3.475,1.64,5.2,4.99,5.2s4.99-1.729,4.99-5.2v-8.012h-1.55v8.012c0,2.575-1.05,3.781-3.44,3.781s-3.44-1.206-3.44-3.781v-8.012h-1.55Zm13.84,12.874h1.41V346h-1.41v13.63Zm5.4-6.914v6.914h1.41v-6.914h1.47v-1.135h-1.47v-3.241h-1.41v3.241h-1.47v1.135h1.47Zm5.37,6.914h1.36V355.7c0-2.107.72-3.151,2.18-3.151a2.637,2.637,0,0,1,.85.162l0.47-1.243a2.825,2.825,0,0,0-.94-0.162c-1.22,0-1.98.576-2.7,1.945v-1.675h-1.22v8.049Zm14.69-8.049h-1.37v1.513a3.12,3.12,0,0,0-2.96-1.8c-2.25,0-3.78,1.639-3.78,4.34,0,2.628,1.55,4.339,3.86,4.339a3.221,3.221,0,0,0,2.91-1.8v1.459h1.34v-8.049Zm-1.34,4.106c0,1.854-1,2.916-2.63,2.916-1.71,0-2.68-1.1-2.68-3.042,0-1.837.97-2.9,2.63-2.9A2.71,2.71,0,0,1,1090.6,355.683Zm4.83-.757v1.387h4.1v-1.387h-4.1Zm7.86-2.214v6.914h1.41v-6.914h1.47v-1.135h-1.47v-3.241h-1.41v3.241h-1.48v1.135h1.48Zm4.7,2.917a4.208,4.208,0,0,0,1.28,3.061,4.315,4.315,0,0,0,3.09,1.278,4.407,4.407,0,0,0,3.1-1.3,4.279,4.279,0,0,0,0-6.1,4.352,4.352,0,0,0-3.1-1.279,4.3,4.3,0,0,0-3.09,1.261A4.216,4.216,0,0,0,1107.99,355.629Zm1.46,0a2.908,2.908,0,1,1,2.91,3.043A2.952,2.952,0,0,1,1109.45,355.629Zm11.63-4.052h-1.45v4.7c0,2.431,1.28,3.691,3.66,3.691,2.41,0,3.67-1.26,3.67-3.691v-4.7h-1.4v3.962c0,2.124-.47,3.115-2.23,3.115s-2.25-.991-2.25-3.115v-3.962Zm16.93,0h-1.36v1.5a3.134,3.134,0,0,0-2.96-1.783c-2.25,0-3.78,1.6-3.78,4.286,0,2.61,1.55,4.3,3.86,4.3a3.226,3.226,0,0,0,2.91-1.783v1.351a3.4,3.4,0,0,1-.34,1.836,2.472,2.472,0,0,1-2.3,1.063c-1.55,0-2.4-.7-2.4-1.891v-0.108h-1.55c0.06,2.017,1.46,3.2,3.93,3.2a4.228,4.228,0,0,0,3.24-1.206,3.744,3.744,0,0,0,.75-2.863v-7.905Zm-1.33,4.052c0,1.854-1.01,2.934-2.63,2.934-1.71,0-2.68-1.1-2.68-3.042,0-1.837.97-2.9,2.63-2.9A2.694,2.694,0,0,1,1136.68,355.629Zm5.02,4h1.37v-4.159a3.091,3.091,0,0,1,.47-2.125,2.452,2.452,0,0,1,1.96-.864c1.44,0,2.11.792,2.11,2.412v4.736h1.4v-5.474a2.7,2.7,0,0,0-3.02-2.863,3.323,3.323,0,0,0-2.94,1.531V346h-1.35v13.63ZM1166.33,346h-1.37v7.094a3.1,3.1,0,0,0-2.93-1.8c-2.26,0-3.8,1.639-3.8,4.34,0,2.628,1.54,4.339,3.85,4.339a3.257,3.257,0,0,0,2.92-1.8v1.459h1.33V346Zm-1.33,9.651c0,1.908-1.05,2.988-2.7,2.988-1.61,0-2.62-1.152-2.62-3.168a2.487,2.487,0,0,1,2.6-2.809A2.7,2.7,0,0,1,1165,355.647Zm12.22,0.162v-0.27c0-2.665-1.51-4.268-3.87-4.268a4,4,0,0,0-4.02,4.3c0,2.628,1.66,4.393,4.11,4.393a4.011,4.011,0,0,0,3.72-2.2l-1.04-.7a2.952,2.952,0,0,1-2.61,1.747,2.646,2.646,0,0,1-2.67-2.881v-0.126h6.38Zm-1.48-1.117h-4.9a2.363,2.363,0,0,1,2.45-2.214A2.212,2.212,0,0,1,1175.74,354.692Zm4.81,4.934h1.4v-6.914h2.11v-1.135h-2.15v-2.142c0-1.549.04-2.287,1.07-2.287a2.21,2.21,0,0,1,1.08.288v-1.422a3.765,3.765,0,0,0-1.19-.18c-1.93,0-2.32,1.008-2.32,3.421v2.322H1179v1.135h1.55v6.914Zm12.92-3.817v-0.27c0-2.665-1.51-4.268-3.87-4.268a3.993,3.993,0,0,0-4.01,4.3c0,2.628,1.65,4.393,4.1,4.393a4.016,4.016,0,0,0,3.73-2.2l-1.05-.7a2.941,2.941,0,0,1-2.61,1.747,2.639,2.639,0,0,1-2.66-2.881v-0.126h6.37Zm-1.47-1.117h-4.9a2.351,2.351,0,0,1,2.45-2.214A2.212,2.212,0,0,1,1192,354.692Zm4.44,4.934h1.37v-4.159a3.091,3.091,0,0,1,.47-2.125,2.452,2.452,0,0,1,1.96-.864c1.44,0,2.11.792,2.11,2.412v4.736h1.4v-5.474a2.706,2.706,0,0,0-3.03-2.863,3.3,3.3,0,0,0-2.93,1.531v-1.243h-1.35v8.049Zm10.08-1.351a3.31,3.31,0,0,0,3.17,1.693c1.78,0,2.93-1.062,2.93-2.557,0-1.314-.77-1.89-2.34-2.395-1.33-.432-2.07-0.54-2.07-1.386a1.242,1.242,0,0,1,1.37-1.206,1.911,1.911,0,0,1,1.84,1.152l1.11-.684a2.868,2.868,0,0,0-2.86-1.6c-1.71,0-2.84,1.027-2.84,2.431,0,1.584,1.18,1.927,3.16,2.611,0.85,0.288,1.26.612,1.26,1.224a1.311,1.311,0,0,1-1.51,1.207,2.166,2.166,0,0,1-2.05-1.279Zm16.26-2.466v-0.27c0-2.665-1.52-4.268-3.88-4.268a3.993,3.993,0,0,0-4.01,4.3c0,2.628,1.66,4.393,4.1,4.393a4.016,4.016,0,0,0,3.73-2.2l-1.04-.7a2.952,2.952,0,0,1-2.61,1.747,2.646,2.646,0,0,1-2.67-2.881v-0.126h6.38Zm-1.48-1.117h-4.9a2.363,2.363,0,0,1,2.45-2.214A2.212,2.212,0,0,1,1221.3,354.692Zm-178.7,22.885h-1.37v1.513a3.106,3.106,0,0,0-2.95-1.8c-2.25,0-3.78,1.639-3.78,4.34,0,2.628,1.55,4.339,3.85,4.339a3.247,3.247,0,0,0,2.92-1.8v1.459h1.33v-8.049Zm-1.33,4.106c0,1.854-1.01,2.916-2.63,2.916-1.71,0-2.68-1.1-2.68-3.042,0-1.837.97-2.9,2.62-2.9A2.717,2.717,0,0,1,1041.27,381.683Zm12.47-4.106h-1.37v1.5a3.119,3.119,0,0,0-2.95-1.783c-2.25,0-3.78,1.6-3.78,4.286,0,2.61,1.55,4.3,3.85,4.3a3.24,3.24,0,0,0,2.92-1.783v1.351a3.489,3.489,0,0,1-.34,1.836,2.49,2.49,0,0,1-2.31,1.063c-1.55,0-2.39-.7-2.39-1.891v-0.108h-1.55c0.05,2.017,1.46,3.2,3.92,3.2a4.2,4.2,0,0,0,3.24-1.206,3.708,3.708,0,0,0,.76-2.863v-7.905Zm-1.33,4.052c0,1.854-1.01,2.934-2.63,2.934-1.71,0-2.68-1.1-2.68-3.042,0-1.837.97-2.9,2.63-2.9A2.7,2.7,0,0,1,1052.41,381.629Zm12.51-4.052h-1.37v1.513a3.106,3.106,0,0,0-2.95-1.8c-2.25,0-3.78,1.639-3.78,4.34,0,2.628,1.54,4.339,3.85,4.339a3.247,3.247,0,0,0,2.92-1.8v1.459h1.33v-8.049Zm-1.33,4.106c0,1.854-1.01,2.916-2.63,2.916-1.71,0-2.69-1.1-2.69-3.042,0-1.837.98-2.9,2.63-2.9A2.717,2.717,0,0,1,1063.59,381.683Zm5.05,3.943h1.39v-8.049h-1.39v8.049Zm-0.32-11.92a1.005,1.005,0,0,0,2.01.018,1.02,1.02,0,0,0-1-1.026A1.007,1.007,0,0,0,1068.32,373.706Zm5.51,11.92h1.36v-4.159a3.091,3.091,0,0,1,.47-2.125,2.459,2.459,0,0,1,1.97-.864c1.44,0,2.1.792,2.1,2.412v4.736h1.41v-5.474a2.711,2.711,0,0,0-3.03-2.863,3.3,3.3,0,0,0-2.93,1.531v-1.243h-1.35v8.049Zm10.08-1.351a3.3,3.3,0,0,0,3.16,1.693c1.79,0,2.94-1.062,2.94-2.557,0-1.314-.77-1.89-2.34-2.395-1.33-.432-2.07-0.54-2.07-1.386a1.242,1.242,0,0,1,1.37-1.206,1.9,1.9,0,0,1,1.83,1.152l1.12-.684a2.877,2.877,0,0,0-2.86-1.6c-1.71,0-2.85,1.027-2.85,2.431,0,1.584,1.19,1.927,3.17,2.611,0.85,0.288,1.26.612,1.26,1.224a1.311,1.311,0,0,1-1.51,1.207,2.166,2.166,0,0,1-2.05-1.279Zm9.28-5.563v6.914h1.41v-6.914h1.47v-1.135h-1.47v-3.241h-1.41v3.241h-1.47v1.135h1.47Zm10.71,5.563a3.319,3.319,0,0,0,3.17,1.693c1.78,0,2.94-1.062,2.94-2.557,0-1.314-.78-1.89-2.34-2.395-1.34-.432-2.07-0.54-2.07-1.386a1.233,1.233,0,0,1,1.36-1.206,1.9,1.9,0,0,1,1.84,1.152l1.12-.684a2.882,2.882,0,0,0-2.87-1.6c-1.71,0-2.84,1.027-2.84,2.431,0,1.584,1.19,1.927,3.17,2.611,0.84,0.288,1.26.612,1.26,1.224a1.316,1.316,0,0,1-1.51,1.207,2.179,2.179,0,0,1-2.06-1.279Zm9.08,5.276h1.36v-5.384a3.121,3.121,0,0,0,2.94,1.8c2.25,0,3.8-1.621,3.8-4.339,0-2.647-1.55-4.34-3.86-4.34a3.24,3.24,0,0,0-2.93,1.8v-1.513h-1.31v11.974Zm1.33-7.922c0-1.909,1.04-3.007,2.7-3.007,1.6,0,2.61,1.152,2.61,3.169,0,1.782-.99,2.826-2.59,2.826A2.7,2.7,0,0,1,1114.31,381.629Zm9.93,4h1.39v-8.049h-1.39v8.049Zm-0.32-11.92a1.01,1.01,0,0,0,2.02.018,1.022,1.022,0,0,0-1.01-1.026A1.007,1.007,0,0,0,1123.92,373.706Zm5.58,11.92h1.4V372h-1.4v13.63Zm5.26,0h1.4V372h-1.4v13.63Zm4.33-1.351a3.319,3.319,0,0,0,3.17,1.693c1.78,0,2.94-1.062,2.94-2.557,0-1.314-.78-1.89-2.34-2.395-1.34-.432-2.07-0.54-2.07-1.386a1.233,1.233,0,0,1,1.36-1.206,1.9,1.9,0,0,1,1.84,1.152l1.12-.684a2.892,2.892,0,0,0-2.87-1.6c-1.71,0-2.84,1.027-2.84,2.431,0,1.584,1.19,1.927,3.17,2.611,0.84,0.288,1.26.612,1.26,1.224a1.316,1.316,0,0,1-1.51,1.207,2.179,2.179,0,0,1-2.06-1.279Zm22.77-6.7h-1.36v1.513a3.13,3.13,0,0,0-2.96-1.8c-2.25,0-3.78,1.639-3.78,4.34,0,2.628,1.55,4.339,3.86,4.339a3.232,3.232,0,0,0,2.91-1.8v1.459h1.33v-8.049Zm-1.33,4.106c0,1.854-1.01,2.916-2.63,2.916-1.71,0-2.68-1.1-2.68-3.042,0-1.837.97-2.9,2.63-2.9A2.71,2.71,0,0,1,1160.53,381.683Zm4.99,3.943h1.36v-4.159a3.091,3.091,0,0,1,.47-2.125,2.473,2.473,0,0,1,1.97-.864c1.44,0,2.1.792,2.1,2.412v4.736h1.41v-5.474a2.711,2.711,0,0,0-3.03-2.863,3.3,3.3,0,0,0-2.93,1.531v-1.243h-1.35v8.049ZM1183.93,372h-1.37v7.094a3.1,3.1,0,0,0-2.93-1.8c-2.25,0-3.8,1.639-3.8,4.34,0,2.628,1.55,4.339,3.85,4.339a3.246,3.246,0,0,0,2.92-1.8v1.459h1.33V372Zm-1.33,9.651c0,1.908-1.04,2.988-2.7,2.988-1.6,0-2.61-1.152-2.61-3.168a2.485,2.485,0,0,1,2.59-2.809A2.7,2.7,0,0,1,1182.6,381.647Zm10.4,2.628a3.319,3.319,0,0,0,3.17,1.693c1.78,0,2.94-1.062,2.94-2.557,0-1.314-.78-1.89-2.35-2.395-1.33-.432-2.07-0.54-2.07-1.386a1.242,1.242,0,0,1,1.37-1.206,1.9,1.9,0,0,1,1.84,1.152l1.12-.684a2.892,2.892,0,0,0-2.87-1.6c-1.71,0-2.84,1.027-2.84,2.431,0,1.584,1.19,1.927,3.17,2.611,0.84,0.288,1.26.612,1.26,1.224a1.321,1.321,0,0,1-1.52,1.207,2.175,2.175,0,0,1-2.05-1.279Zm9.29-5.563v6.914h1.4v-6.914h1.48v-1.135h-1.48v-3.241h-1.4v3.241h-1.48v1.135h1.48Zm12.84-1.135h-1.37v1.513a3.11,3.11,0,0,0-2.96-1.8c-2.25,0-3.78,1.639-3.78,4.34,0,2.628,1.55,4.339,3.86,4.339a3.221,3.221,0,0,0,2.91-1.8v1.459h1.34v-8.049Zm-1.34,4.106c0,1.854-1,2.916-2.63,2.916-1.71,0-2.68-1.1-2.68-3.042,0-1.837.97-2.9,2.63-2.9A2.71,2.71,0,0,1,1213.79,381.683Zm5.06,3.943h1.39v-8.049h-1.39v8.049Zm-0.32-11.92a1.005,1.005,0,0,0,2.01.018,1.022,1.022,0,0,0-1.01-1.026A1,1,0,0,0,1218.53,373.706Zm5.5,11.92h1.37v-4.159a3.091,3.091,0,0,1,.47-2.125,2.452,2.452,0,0,1,1.96-.864c1.44,0,2.11.792,2.11,2.412v4.736h1.4v-5.474a2.7,2.7,0,0,0-3.02-2.863,3.323,3.323,0,0,0-2.94,1.531v-1.243h-1.35v8.049Zm10.08-1.351a3.319,3.319,0,0,0,3.17,1.693c1.78,0,2.94-1.062,2.94-2.557,0-1.314-.78-1.89-2.34-2.395-1.34-.432-2.07-0.54-2.07-1.386a1.233,1.233,0,0,1,1.36-1.206,1.9,1.9,0,0,1,1.84,1.152l1.12-.684a2.892,2.892,0,0,0-2.87-1.6c-1.71,0-2.84,1.027-2.84,2.431,0,1.584,1.19,1.927,3.17,2.611,0.84,0.288,1.26.612,1.26,1.224a1.316,1.316,0,0,1-1.51,1.207,2.179,2.179,0,0,1-2.06-1.279Zm-180.43,27.351h1.41v-6.914h2.1v-1.135h-2.14v-2.142c0-1.549.04-2.287,1.06-2.287a2.21,2.21,0,0,1,1.08.288v-1.422a3.722,3.722,0,0,0-1.19-.18c-1.92,0-2.32,1.008-2.32,3.421v2.322h-1.55v1.135h1.55v6.914Zm5.09-4a4.248,4.248,0,0,0,1.28,3.061,4.321,4.321,0,0,0,3.1,1.278,4.407,4.407,0,0,0,3.1-1.3,4.279,4.279,0,0,0,0-6.1,4.352,4.352,0,0,0-3.1-1.279,4.3,4.3,0,0,0-3.1,1.261A4.255,4.255,0,0,0,1058.77,407.629Zm1.46,0a2.913,2.913,0,1,1,2.92,3.043A2.96,2.96,0,0,1,1060.23,407.629Zm10.35,4h1.37V407.7c0-2.107.72-3.151,2.18-3.151a2.637,2.637,0,0,1,.85.162l0.46-1.243a2.725,2.725,0,0,0-.93-0.162c-1.23,0-1.98.576-2.7,1.945v-1.675h-1.23v8.049Zm18.35-8.337h-0.22l-2.45,5.78-2.14-5.492h-1.53l3.58,8.553,2.65-6.176,2.64,6.176,3.59-8.553h-1.55l-2.16,5.492Zm7.77,4.34a4.208,4.208,0,0,0,1.28,3.061,4.321,4.321,0,0,0,3.1,1.278,4.367,4.367,0,0,0,3.09-1.3,4.279,4.279,0,0,0,0-6.1,4.406,4.406,0,0,0-6.19-.018A4.216,4.216,0,0,0,1096.7,407.629Zm1.46,0a2.908,2.908,0,1,1,2.92,3.043A2.953,2.953,0,0,1,1098.16,407.629Zm10.35,4h1.37V407.7c0-2.107.72-3.151,2.17-3.151a2.543,2.543,0,0,1,.85.162l0.47-1.243a2.782,2.782,0,0,0-.94-0.162c-1.22,0-1.98.576-2.7,1.945v-1.675h-1.22v8.049Zm7.22,0h1.36V407.7c0-2.107.72-3.151,2.18-3.151a2.637,2.637,0,0,1,.85.162l0.47-1.243a2.782,2.782,0,0,0-.94-0.162c-1.22,0-1.98.576-2.7,1.945v-1.675h-1.22v8.049Zm6.87,3.925h1.55l5.4-11.974h-1.51l-2.49,5.78-2.34-5.78h-1.58l3.15,7.257Zm8.65-8.625v1.387h4.1v-1.387h-4.1Zm8.01,4.7h1.4v-6.914h2.11v-1.135h-2.14v-2.142c0-1.549.03-2.287,1.06-2.287a2.21,2.21,0,0,1,1.08.288v-1.422a3.722,3.722,0,0,0-1.19-.18c-1.92,0-2.32,1.008-2.32,3.421v2.322h-1.55v1.135h1.55v6.914Zm5.76,0h1.37V407.7c0-2.107.72-3.151,2.18-3.151a2.535,2.535,0,0,1,.84.162l0.47-1.243a2.782,2.782,0,0,0-.94-0.162c-1.22,0-1.98.576-2.7,1.945v-1.675h-1.22v8.049Zm14.38-3.817v-0.27c0-2.665-1.51-4.268-3.87-4.268a3.993,3.993,0,0,0-4.01,4.3c0,2.628,1.65,4.393,4.1,4.393a4.016,4.016,0,0,0,3.73-2.2l-1.04-.7a2.965,2.965,0,0,1-2.62,1.747,2.644,2.644,0,0,1-2.66-2.881v-0.126h6.37Zm-1.47-1.117h-4.9a2.351,2.351,0,0,1,2.45-2.214A2.212,2.212,0,0,1,1157.93,406.692Zm11.63,1.117v-0.27c0-2.665-1.52-4.268-3.88-4.268a3.993,3.993,0,0,0-4.01,4.3c0,2.628,1.66,4.393,4.1,4.393a4.016,4.016,0,0,0,3.73-2.2l-1.04-.7a2.952,2.952,0,0,1-2.61,1.747,2.646,2.646,0,0,1-2.67-2.881v-0.126h6.38Zm-1.48-1.117h-4.9a2.363,2.363,0,0,1,2.45-2.214A2.212,2.212,0,0,1,1168.08,406.692Zm15.59-3.4h-0.22l-2.45,5.78-2.14-5.492h-1.53l3.58,8.553,2.65-6.176,2.65,6.176,3.58-8.553h-1.55l-2.16,5.492Zm15.6,4.52v-0.27c0-2.665-1.51-4.268-3.87-4.268a3.993,3.993,0,0,0-4.01,4.3c0,2.628,1.65,4.393,4.1,4.393a4.016,4.016,0,0,0,3.73-2.2l-1.05-.7a2.941,2.941,0,0,1-2.61,1.747,2.644,2.644,0,0,1-2.66-2.881v-0.126h6.37Zm-1.47-1.117h-4.9a2.351,2.351,0,0,1,2.45-2.214A2.212,2.212,0,0,1,1197.8,406.692Zm11.93-3.115h-1.37v1.513a3.106,3.106,0,0,0-2.95-1.8c-2.25,0-3.78,1.639-3.78,4.34,0,2.628,1.55,4.339,3.85,4.339a3.247,3.247,0,0,0,2.92-1.8v1.459h1.33v-8.049Zm-1.33,4.106c0,1.854-1.01,2.916-2.63,2.916-1.71,0-2.68-1.1-2.68-3.042,0-1.837.97-2.9,2.63-2.9A2.715,2.715,0,0,1,1208.4,407.683Zm5,3.943h1.37V407.7c0-2.107.72-3.151,2.18-3.151a2.535,2.535,0,0,1,.84.162l0.47-1.243a2.725,2.725,0,0,0-.93-0.162c-1.23,0-1.99.576-2.71,1.945v-1.675h-1.22v8.049Zm5.56-.864a1.02,1.02,0,0,0,1.05,1.026,1.035,1.035,0,0,0,1.06-1.026A1.055,1.055,0,0,0,1218.96,410.762Z"/>
  <path id="STAIN_RESISTANT" data-name="STAIN RESISTANT" class="cls-2" d="M1019.69,329.3l-1.4,2.32a5.465,5.465,0,0,0,4.06,1.681c2.69,0,4.39-1.649,4.39-4.034,0-2.112-1.12-2.865-3.16-3.409-1.04-.272-1.82-0.448-1.82-1.264a1.087,1.087,0,0,1,1.26-.961,3.471,3.471,0,0,1,2.2.913l0.97-2.241a5.762,5.762,0,0,0-3.39-1.025,3.663,3.663,0,0,0-3.95,3.714c0,1.792,1,2.625,3.07,3.169,1.3,0.336,1.92.608,1.92,1.521a1.265,1.265,0,0,1-1.43,1.184A3.782,3.782,0,0,1,1019.69,329.3Zm17.64,3.7h3.12v-8.74h2.56v-2.7h-8.23v2.7h2.55V333Zm12.38,0h3.11l0.59-2.049h4.43l0.58,2.049h3.11l-3.96-11.445h-3.9Zm4.37-4.274,1.16-3.777c0.04-.176.19-0.689,0.4-1.537,0.2,0.848.33,1.361,0.38,1.537l1.17,3.777h-3.11ZM1069.89,333h3.15V321.555h-3.15V333Zm12.86,0h3.01v-5.65a19.208,19.208,0,0,0-.17-2.257,15.054,15.054,0,0,0,1.04,2l4.32,5.906h2.99V321.555h-2.99v5.651a19.238,19.238,0,0,0,.17,2.257,15.8,15.8,0,0,0-1.04-2.017l-4.32-5.891h-3.01V333Zm35.97-6.034v-3.01h0.63c1.29,0,1.88.385,1.88,1.585,0,1.008-.62,1.425-1.93,1.425h-0.58ZM1115.79,333h2.93v-4.482l2.63,4.482h3.52l-3.12-4.61a3.035,3.035,0,0,0,2.56-3.265,3.4,3.4,0,0,0-1.28-2.8c-0.98-.753-2.2-0.769-3.78-0.769h-3.46V333Zm17.46,0h7.01v-2.561h-3.97V328.5h3.75v-2.449h-3.75v-1.985h3.97v-2.513h-7.01V333Zm16.78-3.7-1.41,2.32a5.5,5.5,0,0,0,4.07,1.681c2.69,0,4.39-1.649,4.39-4.034,0-2.112-1.13-2.865-3.16-3.409-1.04-.272-1.82-0.448-1.82-1.264a1.087,1.087,0,0,1,1.26-.961,3.447,3.447,0,0,1,2.19.913l0.98-2.241a5.762,5.762,0,0,0-3.39-1.025,3.671,3.671,0,0,0-3.96,3.714c0,1.792,1.01,2.625,3.08,3.169,1.29,0.336,1.92.608,1.92,1.521a1.265,1.265,0,0,1-1.43,1.184A3.764,3.764,0,0,1,1150.03,329.3Zm16.07,3.7h3.15V321.555h-3.15V333Zm13.37-3.7-1.41,2.32a5.5,5.5,0,0,0,4.07,1.681c2.69,0,4.39-1.649,4.39-4.034,0-2.112-1.13-2.865-3.16-3.409-1.04-.272-1.82-0.448-1.82-1.264a1.087,1.087,0,0,1,1.26-.961,3.447,3.447,0,0,1,2.19.913l0.98-2.241a5.762,5.762,0,0,0-3.39-1.025,3.671,3.671,0,0,0-3.96,3.714c0,1.792,1.01,2.625,3.08,3.169,1.29,0.336,1.92.608,1.92,1.521a1.265,1.265,0,0,1-1.43,1.184A3.764,3.764,0,0,1,1179.47,329.3Zm17.63,3.7h3.13v-8.74h2.56v-2.7h-8.23v2.7h2.54V333Zm12.39,0h3.11l0.59-2.049h4.43L1218.2,333h3.1l-3.95-11.445h-3.91Zm4.37-4.274,1.15-3.777c0.05-.176.2-0.689,0.4-1.537q0.315,1.272.39,1.537l1.17,3.777h-3.11ZM1229.59,333h3.01v-5.65a19.508,19.508,0,0,0-.18-2.257,16.55,16.55,0,0,0,1.04,2l4.32,5.906h3V321.555h-3v5.651a19.541,19.541,0,0,0,.18,2.257,17.435,17.435,0,0,0-1.04-2.017l-4.32-5.891h-3.01V333Zm22.48,0h3.12v-8.74h2.56v-2.7h-8.23v2.7h2.55V333Z"/>
  <path id="TAILORING_PERFORMANCE" data-name="TAILORING + PERFORMANCE" class="cls-2" d="M390.071,75h8.223V59.609h4.576V52.122H385.5v7.487h4.576V75Zm17.48,0h8.831l0.7-2.88h6.208L424.03,75h8.831l-8-22.878H415.71Zm10.911-8.319,0.7-2.592a23.2,23.2,0,0,0,.928-5.024h0.16a23.2,23.2,0,0,0,.928,5.024l0.7,2.592h-3.424ZM440.7,75h8.352V52.122H440.7V75Zm19.2,0h16.223V67.577h-8V52.122H459.9V75Zm48.8-11.391a11.753,11.753,0,0,0-3.456-8.543,12.85,12.85,0,0,0-17.535,0,12.248,12.248,0,0,0,0,17.055,12.766,12.766,0,0,0,17.5.032A11.653,11.653,0,0,0,508.7,63.609Zm-12.223,4.32c-2.24,0-3.872-1.664-3.872-4.32s1.632-4.352,3.872-4.352,3.839,1.7,3.839,4.352S498.717,67.929,496.478,67.929ZM518.558,75h8.063V67.449l4,7.552h9.215l-6.111-9.311c2.656-.32,4.415-2.592,4.415-5.856,0-4.9-3.135-7.711-9.247-7.711H518.558V75Zm8.063-16.991h1.28a2.136,2.136,0,0,1,2.432,2.272c0,1.408-.864,2.208-2.432,2.208h-1.28v-4.48ZM548.029,75h8.352V52.122h-8.352V75Zm19.2,0h7.935V66.745a23.391,23.391,0,0,0-.256-3.616L581.948,75h8.128V52.122H582.14v8.319a23.032,23.032,0,0,0,.256,3.648l-7.1-11.967H567.23V75Zm48-8.191c-0.192,1.184-1.216,1.888-2.816,1.888-2.624,0-4.191-1.856-4.191-5.088,0-3.2,1.663-5.12,4-5.12a3.654,3.654,0,0,1,3.264,1.888l7.327-2.72a11.856,11.856,0,0,0-10.719-6.048,12.2,12.2,0,0,0-8.767,3.424,11.774,11.774,0,0,0-3.456,8.575,11.648,11.648,0,0,0,3.456,8.575,12.862,12.862,0,0,0,18.655-1.248,12.458,12.458,0,0,0,2.367-7.807,15.308,15.308,0,0,0-.064-1.7H611.644v5.376h3.584Zm49.28-10.879h-4.384v7.391h-7.168v4.256h7.168V75h4.384V67.577h7.167V63.321h-7.167V55.929Zm45.311,2.56h1.28c1.6,0,2.432.736,2.432,1.92S712.7,62.3,711.1,62.3h-1.28V58.489ZM701.564,75h8.223V68.249h2.592c6.08,0,8.992-2.24,8.992-7.775,0-5.952-3.232-8.351-9.984-8.351h-9.823V75Zm29.056,0h15.487V68.793h-7.424v-2.4h6.56V60.537h-6.56V58.329h7.232V52.122H730.62V75Zm25.216,0H763.9V67.449l4,7.552h9.215L771,65.689c2.655-.32,4.415-2.592,4.415-5.856,0-4.9-3.136-7.711-9.247-7.711H755.836V75ZM763.9,58.009h1.28a2.136,2.136,0,0,1,2.432,2.272c0,1.408-.864,2.208-2.432,2.208H763.9v-4.48ZM785.147,75h8.224V66.841h6.4V60.985h-6.4V58.329h7.071V52.122H785.147V75Zm48.158-11.391a11.756,11.756,0,0,0-3.455-8.543,12.85,12.85,0,0,0-17.535,0,12.248,12.248,0,0,0,0,17.055,12.766,12.766,0,0,0,17.5.032A11.656,11.656,0,0,0,833.305,63.609Zm-12.223,4.32c-2.24,0-3.871-1.664-3.871-4.32s1.631-4.352,3.871-4.352,3.84,1.7,3.84,4.352S823.322,67.929,821.082,67.929ZM843.163,75h8.063V67.449l4,7.552h9.215l-6.112-9.311c2.656-.32,4.416-2.592,4.416-5.856,0-4.9-3.136-7.711-9.247-7.711H843.163V75Zm8.063-16.991h1.28a2.136,2.136,0,0,1,2.432,2.272c0,1.408-.864,2.208-2.432,2.208h-1.28v-4.48ZM893.369,75h8.063l-3.616-22.878h-8.479l-1.7,5.568a42.678,42.678,0,0,0-1.568,6.784h-0.128a36.771,36.771,0,0,0-1.5-6.688l-1.631-5.664h-8.48L870.426,75h8.064l0.992-9.055c0.128-1.216.224-2.624,0.352-4.192a34.033,34.033,0,0,0,1.024,4.448l2.623,8.8h4.9L891,66.2a34.033,34.033,0,0,0,1.024-4.448c0.16,1.856.256,3.264,0.352,4.192Zm13.7,0H915.9l0.7-2.88h6.207L923.545,75h8.832l-8-22.878h-9.151Zm10.912-8.319,0.7-2.592a23.208,23.208,0,0,0,.927-5.024h0.16a23.2,23.2,0,0,0,.928,5.024l0.7,2.592h-3.423ZM940.058,75h7.935V66.745a23.391,23.391,0,0,0-.256-3.616L954.777,75H962.9V52.122h-7.935v8.319a23.032,23.032,0,0,0,.256,3.648l-7.1-11.967h-8.063V75Zm50.27-13.791V52.73a13.208,13.208,0,0,0-5.375-1.152c-7.1,0-12.255,5.088-12.255,12.031a11.568,11.568,0,0,0,4.735,9.631,12.378,12.378,0,0,0,7.424,2.368,14.15,14.15,0,0,0,5.375-1.088l0.256-8.607c-1.824,1.344-3.391,2.112-5.087,2.112a4.091,4.091,0,0,1-4.32-4.416,4.25,4.25,0,0,1,4.48-4.544A6.728,6.728,0,0,1,990.328,61.209ZM1000.35,75h15.48V68.793h-7.42v-2.4h6.56V60.537h-6.56V58.329h7.23V52.122h-15.29V75Z"/>
</svg>
