<svg xmlns="http://www.w3.org/2000/svg" width="1400" height="1437"><defs><style>.cls-2{fill-rule:evenodd;fill:#fff}</style></defs><path id="KEVIN_LOVE_Pro_Basketball_Player" data-name="KEVIN LOVE Pro Basketball Player" d="M1196.99 1100.4a.365.365 0 0 0 0-.48h-3.75a.956.956 0 0 1-.36-.12l-12.36-17.28 7.12-8.32c1.36-1.52 1.48-1.68 1.8-1.68h3.16a.975.975 0 0 0 0-.48h-7.8a.51.51 0 0 0 0 .48h3.32c.24 0 .32.12-1.08 1.68l-10.16 11.92v-13.44a.161.161 0 0 1 .2-.16h3.52a.51.51 0 0 0 0-.48h-13.04a.51.51 0 0 0 0 .48h3.52a.161.161 0 0 1 .2.16v27.08a.161.161 0 0 1-.2.16h-3.52a.51.51 0 0 0 0 .48h13.04a.51.51 0 0 0 0-.48h-3.52a.161.161 0 0 1-.2-.16v-13.4l9.4 13.44c.04.04 0 .12-.16.12h-3.8a.51.51 0 0 0 0 .48h14.67zm25.29-.12V1091a.433.433 0 0 0-.44 0c0 4.12-2.84 8.92-9.36 8.92h-3.96c-.2 0-.28-.04-.28-.16v-13.68h.92a5.287 5.287 0 0 1 5.24 5.4.363.363 0 0 0 .4 0v-11.28a.363.363 0 0 0-.4 0 5.263 5.263 0 0 1-5.24 5.4h-.92v-12.92c0-.12.08-.16.28-.16h3.84c4.96 0 7.36 4.4 7.36 8.12a.51.51 0 0 0 .48 0v-8.48c0-.04 0-.12-.16-.12h-21.08a.51.51 0 0 0 0 .48h3.52c.16 0 .24.04.24.16v27.08c0 .12-.08.16-.24.16h-3.52a.51.51 0 0 0 0 .48h23.2a.106.106 0 0 0 .12-.12zm33.79-27.76a.51.51 0 0 0 0-.48h-8.11a.51.51 0 0 0 0 .48h3.6c.24 0 .28.12-.24 1.68l-6.72 19.48-8.72-21c-.04-.12 0-.16.16-.16h4.08a.51.51 0 0 0 0-.48h-14.2a.51.51 0 0 0 0 .48h3.64a.266.266 0 0 1 .32.16l12.16 28.32a.421.421 0 0 0 .52 0l9.2-26.8c.56-1.52.68-1.68.96-1.68h3.35zm17.17 27.88a.51.51 0 0 0 0-.48h-3.52c-.16 0-.24-.04-.24-.16v-27.08c0-.12.08-.16.24-.16h3.52a.51.51 0 0 0 0-.48h-13.04a.51.51 0 0 0 0 .48h3.52a.161.161 0 0 1 .2.16v27.08a.161.161 0 0 1-.2.16h-3.52a.51.51 0 0 0 0 .48h13.04zm33.63-27.88a.51.51 0 0 0 0-.48h-7.95a.51.51 0 0 0 0 .48h3.52c.16 0 .24.04.24.16v18.64l-11.96-18.56a1.124 1.124 0 0 0-.88-.72h-9.72a.365.365 0 0 0 0 .48h3.48c.2 0 .24.04.24.16v27.08c0 .12-.04.16-.24.16h-3.48a.365.365 0 0 0 0 .48h7.96a.51.51 0 0 0 0-.48h-3.52c-.16 0-.2-.04-.2-.16v-26.84l18.28 28c.12.16.51.12.51 0v-28.24c0-.12.08-.16.24-.16h3.48zm-117.03 75.76v-9.64a.433.433 0 0 0-.44 0c0 4.08-2.84 9.28-8.84 9.28h-3.48a.161.161 0 0 1-.2-.16v-27.08a.161.161 0 0 1 .2-.16h3.52a.51.51 0 0 0 0-.48h-13.04a.51.51 0 0 0 0 .48h3.52a.161.161 0 0 1 .2.16v27.08a.161.161 0 0 1-.2.16h-3.52a.51.51 0 0 0 0 .48h22.16a.106.106 0 0 0 .12-.12zm32.59-14.04c0-8.24-5.79-14.88-12.95-14.88-7.48 0-12.92 6.92-12.92 14.88 0 8.2 5.8 14.84 12.92 14.84 7.16 0 12.95-6.64 12.95-14.84zm-6.11 0c0 7.92-.72 10.96-2.56 12.88a5.553 5.553 0 0 1-4.28 1.52 5.374 5.374 0 0 1-4.2-1.52c-1.88-1.92-2.6-4.96-2.6-12.88 0-6.92.72-10.96 2.6-12.88a5.374 5.374 0 0 1 4.2-1.52 5.553 5.553 0 0 1 4.28 1.52c1.84 1.92 2.56 5.96 2.56 12.88zm39.84-13.72a.51.51 0 0 0 0-.48h-8.12a.51.51 0 0 0 0 .48h3.6c.24 0 .28.12-.24 1.68l-6.72 19.48-8.72-21c-.04-.12 0-.16.16-.16h4.08a.51.51 0 0 0 0-.48H1226a.51.51 0 0 0 0 .48h3.64a.266.266 0 0 1 .32.16l12.16 28.32a.421.421 0 0 0 .52 0l9.2-26.8c.56-1.52.68-1.68.96-1.68h3.36zm27.4 27.76V1139a.433.433 0 0 0-.44 0c0 4.12-2.84 8.92-9.36 8.92h-3.96c-.2 0-.28-.04-.28-.16v-13.68h.92a5.287 5.287 0 0 1 5.24 5.4.363.363 0 0 0 .4 0v-11.28a.363.363 0 0 0-.4 0 5.263 5.263 0 0 1-5.24 5.4h-.92v-12.92c0-.12.08-.16.28-.16h3.84c4.96 0 7.36 4.4 7.36 8.12a.51.51 0 0 0 .48 0v-8.48c0-.04 0-.12-.16-.12h-21.08a.51.51 0 0 0 0 .48h3.52c.16 0 .24.04.24.16v27.08c0 .12-.08.16-.24.16h-3.52a.51.51 0 0 0 0 .48h23.2a.106.106 0 0 0 .12-.12zm-116.88 28.12h1.53l.74-5.65h1.16c1.53 0 2.77-.04 3.76-.81a3.653 3.653 0 0 0 1.38-3.05 3.191 3.191 0 0 0-1.15-2.59c-.97-.77-2.14-.77-3.65-.77h-2.07zm2.45-7l.62-4.49h1.11a3.7 3.7 0 0 1 1.96.34 1.877 1.877 0 0 1 .87 1.7 2.223 2.223 0 0 1-1.23 2.14 5.384 5.384 0 0 1-2.28.31h-1.05zm12.56.27l.36-1.43a2.129 2.129 0 0 0-.81-.18 2.853 2.853 0 0 0-2.36 1.57l.21-1.28h-1.38l-1.06 8.05h1.36l.51-3.8c.29-2.12.97-3.17 2.23-3.17a1.989 1.989 0 0 1 .94.24zm1.72 3.04a3.819 3.819 0 0 0 4.06 4.03c2.62 0 4.51-1.93 4.51-4.82a3.842 3.842 0 0 0-4.03-3.86 4.507 4.507 0 0 0-4.54 4.65zm4.47-3.51a2.74 2.74 0 0 1 2.72 2.97 3.172 3.172 0 0 1-3.04 3.46 2.7 2.7 0 0 1-2.74-2.96 3.179 3.179 0 0 1 3.06-3.47zm12.76 7.2h2.36c1.94 0 3.33-.04 4.36-.74a3.673 3.673 0 0 0 1.53-3.15 2.789 2.789 0 0 0-2.24-2.83 2.877 2.877 0 0 0 2.36-3.08 2.934 2.934 0 0 0-.99-2.32c-.83-.7-1.91-.75-3.4-.75h-2.29zm1.69-1.37l.61-4.63h1.34a4.22 4.22 0 0 1 2.14.36 1.941 1.941 0 0 1 .94 1.75 2.3 2.3 0 0 1-1.32 2.2 7.291 7.291 0 0 1-2.81.32h-.9zm.78-5.94l.55-4.18h1.16a3.525 3.525 0 0 1 1.83.31 1.769 1.769 0 0 1 .85 1.6 2.079 2.079 0 0 1-1.19 1.98 5.366 5.366 0 0 1-2.18.29h-1.02zm15.39-.74l-.22 1.62a2.917 2.917 0 0 0-2.93-1.91c-2.36 0-4.14 1.93-4.14 4.61 0 2.45 1.45 4.05 3.47 4.05a3.427 3.427 0 0 0 2.94-1.53l-.2 1.21h1.4l1.06-8.05h-1.38zm-3.33 7.1a2.538 2.538 0 0 1-2.54-2.78 3.088 3.088 0 0 1 3.04-3.36c1.33 0 2.31 1.06 2.31 2.73 0 2-1.3 3.41-2.81 3.41zm6.64-.22a3.7 3.7 0 0 0 3.17 1.51c1.83 0 2.95-1.01 2.95-2.63 0-1.26-.67-1.74-2-2.32-1.01-.43-1.64-.67-1.64-1.35a1.336 1.336 0 0 1 1.46-1.17 2.352 2.352 0 0 1 1.98.99l.85-1.01a3.62 3.62 0 0 0-2.74-1.19 2.645 2.645 0 0 0-2.92 2.54c0 1.15.65 1.62 1.91 2.23 1.1.54 1.75.69 1.75 1.48a1.389 1.389 0 0 1-1.64 1.28 2.571 2.571 0 0 1-2.23-1.42zm10.89-3.39l1.19-9.07h-1.39l-1.8 13.63h1.39l.57-4.27 3.28 4.27h1.84l-3.46-4.38 4.41-3.67h-1.94zm13.7-.37h-4.99a2.756 2.756 0 0 1 2.77-2.27 2.064 2.064 0 0 1 2.22 2.27zm1.33 1.15c.02-.22.02-.43.02-.63 0-2.5-1.32-3.93-3.55-3.93a4.38 4.38 0 0 0-4.32 4.67 3.7 3.7 0 0 0 3.92 4.01 4.16 4.16 0 0 0 3.39-1.82l-.97-.79a3.036 3.036 0 0 1-2.47 1.41c-1.51 0-2.47-1.05-2.47-2.78v-.14h6.45zm2.75 3.78h1.41l.9-6.88h1.78l.14-1.17h-1.76l.43-3.24h-1.42l-.42 3.24h-1.49l-.16 1.17h1.49zm7.02 0l.2-1.57a2.942 2.942 0 0 0 2.93 1.91 3.814 3.814 0 0 0 3.08-1.51 5.019 5.019 0 0 0 1.05-3.03c0-2.53-1.44-4.12-3.5-4.12a3.45 3.45 0 0 0-2.89 1.53l.91-6.84h-1.4l-1.8 13.63h1.42zm3.3-7a2.5 2.5 0 0 1 2.53 2.75 3.1 3.1 0 0 1-3.04 3.37c-1.33 0-2.3-1.07-2.3-2.74 0-2 1.29-3.38 2.81-3.38zm13.69-1.05l-.21 1.62a2.921 2.921 0 0 0-2.94-1.91c-2.35 0-4.14 1.93-4.14 4.61 0 2.45 1.46 4.05 3.48 4.05a3.41 3.41 0 0 0 2.93-1.53l-.2 1.21h1.41l1.06-8.05h-1.39zm-3.33 7.1a2.543 2.543 0 0 1-2.54-2.78 3.1 3.1 0 0 1 3.05-3.36c1.33 0 2.3 1.06 2.3 2.73 0 2-1.29 3.41-2.81 3.41zm8.71.95l1.79-13.63h-1.41l-1.8 13.63h1.42zm5.24 0l1.79-13.63h-1.41l-1.8 13.63h1.42zm9.97 0h1.53l.74-5.65h1.16c1.53 0 2.77-.04 3.76-.81a3.653 3.653 0 0 0 1.38-3.05 3.191 3.191 0 0 0-1.15-2.59c-.97-.77-2.14-.77-3.65-.77h-2.07zm2.45-7l.62-4.49h1.11a3.7 3.7 0 0 1 1.96.34 1.877 1.877 0 0 1 .87 1.7 2.223 2.223 0 0 1-1.23 2.14 5.384 5.384 0 0 1-2.28.31h-1.05zm9.31 7l1.78-13.63h-1.4l-1.8 13.63h1.42zm10.96-8.05l-.21 1.62a2.93 2.93 0 0 0-2.94-1.91c-2.36 0-4.14 1.93-4.14 4.61 0 2.45 1.46 4.05 3.48 4.05a3.41 3.41 0 0 0 2.93-1.53l-.2 1.21h1.41l1.06-8.05h-1.39zm-3.33 7.1a2.538 2.538 0 0 1-2.54-2.78 3.089 3.089 0 0 1 3.05-3.36c1.33 0 2.3 1.06 2.3 2.73 0 2-1.3 3.41-2.81 3.41zm6.57 4.87h1.57l6.93-11.97h-1.6l-3.14 5.74-1.65-5.74h-1.5l2.2 7.17zm16.26-8.85h-4.99a2.748 2.748 0 0 1 2.77-2.27 2.064 2.064 0 0 1 2.22 2.27zm1.33 1.15c.02-.22.02-.43.02-.63 0-2.5-1.32-3.93-3.55-3.93a4.38 4.38 0 0 0-4.32 4.67 3.7 3.7 0 0 0 3.92 4.01 4.16 4.16 0 0 0 3.39-1.82l-.97-.79a3.036 3.036 0 0 1-2.47 1.41c-1.51 0-2.47-1.05-2.47-2.78v-.14h6.45zm7.45-2.95l.36-1.43a2.129 2.129 0 0 0-.81-.18 2.853 2.853 0 0 0-2.36 1.57l.22-1.28h-1.39l-1.06 8.05h1.37l.5-3.8c.29-2.12.97-3.17 2.23-3.17a1.961 1.961 0 0 1 .94.24z" fill-rule="evenodd"/><path class="cls-2" d="M438.83 511.787H435V509.8h9.8v1.988h-3.831V522h-2.139v-10.213zm13.006-2.075h1.964L459.116 522h-2.243l-1.225-2.946h-5.711L448.7 522h-2.173zm3.036 7.443l-2.087-4.881-2.071 4.881h4.158zm8.5-7.356h2.128V522h-2.123v-12.2zm7.42 0h2.122v10.251h6.348V522H470.8v-12.2zm11.523 6.136v-.035a6.314 6.314 0 0 1 12.628-.036v.036a6.314 6.314 0 0 1-12.623.035zm10.4 0v-.035a4.161 4.161 0 0 0-4.1-4.341 4.1 4.1 0 0 0-4.073 4.305v.036a4.163 4.163 0 0 0 4.107 4.34 4.1 4.1 0 0 0 4.073-4.305zm6.866-6.136h5.384a4.833 4.833 0 0 1 3.484 1.22 3.715 3.715 0 0 1 1 2.633v.035a3.651 3.651 0 0 1-2.88 3.694l3.261 4.62h-2.5l-2.967-4.253h-2.653V522h-2.122v-12.2zm5.228 6.049c1.518 0 2.485-.8 2.485-2.04v-.034c0-1.308-.932-2.023-2.5-2.023h-3.084v4.1h3.106zm9.437-6.049h2.122V522h-2.122v-12.2zm7.418 0h1.966l6.469 8.437V509.8h2.088V522h-1.776l-6.66-8.681V522h-2.087v-12.2zm15.165 6.136v-.035a6.185 6.185 0 0 1 6.227-6.311 6.486 6.486 0 0 1 4.642 1.655l-1.346 1.622a4.7 4.7 0 0 0-3.382-1.307 4.11 4.11 0 0 0-3.917 4.305v.036a4.058 4.058 0 0 0 4.107 4.358 4.89 4.89 0 0 0 2.915-.925v-2.283H543v-1.865h5.14v5.125a7.652 7.652 0 0 1-5.037 1.9 6.023 6.023 0 0 1-6.267-6.275zm20.1-1.367v-3.011h-2.246v3.011h-3v2.206h3v3.016h2.246v-3.016h3v-2.206h-3zm-118.012 13.325H435v9.938h2.008v-3.085h1.717c2.375 0 3.97-1.384 3.97-3.473.005-2.053-1.482-3.38-3.778-3.38zm1.743 3.447a1.626 1.626 0 0 1-1.882 1.544h-1.77v-3.116h1.77c1.194 0 1.882.565 1.882 1.572zm6.936 2.406h4.764V531.9h-4.76v-2.156h5.376v-1.849h-7.384v9.938h7.45v-1.848H447.6v-2.237zm16.816-2.654a3.1 3.1 0 0 0-.834-2.193 4 4 0 0 0-2.865-1.006h-4.4v9.938h2.008v-3.346h1.833l2.286 3.276.049.07h2.385l-2.62-3.71a3 3 0 0 0 2.158-3.029zm-6.094-1.324h2.263a1.475 1.475 0 1 1 .013 2.882h-2.276v-2.882zm9.431 8.063h2.009v-3.908h4.79v-1.875h-4.79v-2.28h5.4v-1.875h-7.411v9.938zm15.178-10.1a5.083 5.083 0 0 0-5.147 5.131v.031A5 5 0 0 0 482.9 538a5.1 5.1 0 0 0 5.151-5.164 5 5 0 0 0-5.124-5.107zm3.037 5.131v.031a3.063 3.063 0 0 1-3.037 3.215 3.1 3.1 0 0 1-3.06-3.272 3.061 3.061 0 0 1 3.034-3.216 3.123 3.123 0 0 1 3.063 3.24zm13.5-1.768a3.085 3.085 0 0 0-.841-2.193 3.968 3.968 0 0 0-2.858-1.006h-4.4v9.938h2.008v-3.346h1.827l2.286 3.276.05.07h2.385l-2.62-3.71a3 3 0 0 0 2.164-3.031zm-2.035.124a1.52 1.52 0 0 1-1.786 1.434h-2.273v-2.882h2.259a1.522 1.522 0 0 1 1.801 1.446zm10.209 1.07l-2.749-4.316-.05-.077H502.8v9.938h1.979v-6.463l2.663 4.028.053.076h.231l2.739-4.131v6.488h2.009v-9.938h-2.038zm13.759-4.463h-1.767l-4.324 10.008h2.081l.973-2.316h4.267l.966 2.316h2.134l-4.284-9.908zm.476 5.856h-2.752l1.369-3.235zm13.327.519l-4.79-6.237-.05-.067h-1.8v9.938h1.978v-6.5l4.939 6.428.05.067h1.647v-9.938H535.2v6.3zm12.958.709a3.553 3.553 0 0 1-2.614 1.2 3.257 3.257 0 0 1 0-6.488 3.542 3.542 0 0 1 2.544 1.15l.129.117 1.3-1.5-.119-.114a5.065 5.065 0 0 0-3.834-1.541 4.988 4.988 0 0 0-5.068 5.131v.031a5 5 0 0 0 5 5.107 5.076 5.076 0 0 0 3.977-1.755l.112-.117-1.3-1.333zm6.4 1.077v-2.237h4.764V531.9h-4.764v-2.156h5.376v-1.849h-7.384v9.938H560v-1.848h-5.442zm-46.482-74.418l.807-.193a18.761 18.761 0 0 0 14.919-18.9 18.01 18.01 0 0 0-5.256-12.965c-4.328-4.294-10.337-6.511-18.219-6.511 0 0-34.416.022-34.7.032-7.118.278-12.618 2.474-16.655 6.479a18.018 18.018 0 0 0-5.256 12.965 19.6 19.6 0 0 0 5.632 13.94 13.279 13.279 0 0 0 2.1 1.64l-.193.087c-.335.154-.822.389-.822.389l-.046.021a18.482 18.482 0 0 0-10.415 17 20.242 20.242 0 0 0 6.635 14.985c4.682 4.395 10.565 6.355 19.076 6.355h21.488v-35h13.567l20.48 35h7.9l-20.847-35zm-27.728 28.3h-16.063c-5.6 0-10.247-1.5-13.236-4.469a13.757 13.757 0 0 1-4.257-9.911 13.173 13.173 0 0 1 3.805-9.124 15.308 15.308 0 0 1 8.545-4.293 15.811 15.811 0 0 1 2.353-.176h18.853v27.973zm0-34.591s-17.027-.02-17.5-.059a15.045 15.045 0 0 1-2.691-.469 13.073 13.073 0 0 1-2.431-.925 11.991 11.991 0 0 1-3.087-2.216 13.1 13.1 0 0 1-3.815-9.245 11.452 11.452 0 0 1 1.4-5.552 11.069 11.069 0 0 1 2.1-2.7 12.154 12.154 0 0 1 2.972-2.248 13.522 13.522 0 0 1 1.406-.656q.368-.147.753-.278.77-.26 1.609-.454t1.754-.321a26.8 26.8 0 0 1 2.914-.239l14.616-.016v25.38zm6.821 0v-25.38h13.566c5.711 0 9.676 1.344 12.458 4.212a11.206 11.206 0 0 1 3.5 8.254 13.1 13.1 0 0 1-3.815 9.245 13.321 13.321 0 0 1-9.641 3.669h-16.068zm70.822-.064h-12.757v-12.89h-6.656v12.89H525.82v6.726h12.758v12.891h6.656v-12.895h12.757v-6.726z"/><path id="THE_NEW" data-name="THE NEW" class="cls-2" d="M380.167 110h9.433l3.311-17.926h5.328l1.439-7.811h-20.231l-1.476 7.811h5.507zm27.144 0h9.323l1.728-9.251h5.075L421.709 110h9.323l4.787-25.737h-9.358l-1.62 8.891h-5.076l1.62-8.891h-9.323zm38.052 0h18.429l1.3-6.983h-9.143l.5-2.772h7.883l1.188-6.515h-7.883l.468-2.484h8.387l1.26-6.983h-17.638zm53.675 0h9.431l1.332-7.2a46.056 46.056 0 0 0 .828-6.083L515.38 110h9.431l4.751-25.737h-9.323l-2.483 13.39a34.844 34.844 0 0 0-1.584-5.219l-2.952-8.171h-9.431zm40.068 0h18.429l1.3-6.983h-9.143l.5-2.772h7.883l1.188-6.515h-7.883l.468-2.484h8.387l1.26-6.983h-17.638zm34.919 0h9.287l3.888-9.179a36.987 36.987 0 0 0 1.655-5l.864 14.179h9.395l11.015-25.737h-9.791l-3.564 9.215a44.962 44.962 0 0 0-1.583 4.931l-.9-14.146h-7.415l-5.616 14.29c.072-.9.108-1.8.108-2.772q0-1.674-.108-3.564l-.324-7.955h-8.963z"/><path id="RAPID_MOVEMENT_CHINO" data-name="RAPID MOVEMENT CHINO" class="cls-2" d="M350.176 208h18.9v-17.7l9.374 17.7h21.6l-14.324-21.824c6.225-.75 10.35-6.075 10.35-13.725 0-11.474-7.35-18.074-21.675-18.074h-24.225V208zm18.9-39.823h3c3.749 0 5.7 2.025 5.7 5.324s-2.025 5.175-5.7 5.175h-3v-10.5zM411.751 208h20.7l1.65-6.75h14.549l1.725 6.75h20.7l-18.749-53.623h-21.451zm25.574-19.5l1.65-6.075a54.38 54.38 0 0 0 2.175-11.774h.375a54.451 54.451 0 0 0 2.174 11.774l1.65 6.075h-8.024zm71.1-19.2h3c3.75 0 5.7 1.724 5.7 4.5s-1.95 4.425-5.7 4.425h-3V169.3zm-19.35 38.7h19.274v-15.824h6.075c14.249 0 21.074-5.25 21.074-18.225 0-13.949-7.575-19.574-23.4-19.574h-23.023V208zm68.474 0h19.575v-53.623h-19.575V208zm45 0h14.175c10.724 0 18.974-.525 25.949-5.325a26.307 26.307 0 0 0-3.3-44.923c-4.95-2.475-11.925-3.375-21.224-3.375h-15.6V208zm19.125-16.349v-20.774h.826c7.8 0 11.7 3.3 11.7 10.349 0 7.274-3.977 10.274-12.526 10.425zM274.108 293h18.9l-8.474-53.623h-19.875l-3.975 13.05a100 100 0 0 0-3.675 15.9h-.3a86.164 86.164 0 0 0-3.525-15.674l-3.825-13.275h-19.874L220.335 293h18.9l2.325-21.224c.3-2.85.524-6.15.824-9.825a79.776 79.776 0 0 0 2.4 10.425l6.15 20.624h11.475l6.149-20.624a79.776 79.776 0 0 0 2.4-10.425c.375 4.35.6 7.65.825 9.825zm94.65-26.7a27.546 27.546 0 0 0-8.1-20.024 30.116 30.116 0 0 0-41.1 0 28.708 28.708 0 0 0 0 39.973 29.92 29.92 0 0 0 41.023.075 27.313 27.313 0 0 0 8.177-20.024zm-28.649 10.125c-5.25 0-9.075-3.9-9.075-10.125s3.825-10.2 9.075-10.2 9 3.974 9 10.2-3.75 10.126-9 10.126zM403.292 293h17.924l20.4-53.623h-20.475l-6 19.874a77.077 77.077 0 0 0-2.775 12.225h-.375a61.561 61.561 0 0 0-2.624-12.675l-5.7-19.424h-20.849zm55.724 0h36.3v-14.549h-17.4v-5.625h15.374V259.1h-15.374v-5.174h16.949v-14.55h-35.849V293zm108.073 0h18.9l-8.474-53.623H557.64l-3.975 13.05a100 100 0 0 0-3.675 15.9h-.3a86.164 86.164 0 0 0-3.525-15.674l-3.825-13.275h-19.874L513.316 293h18.9l2.325-21.224c.3-2.85.525-6.15.825-9.825a79.946 79.946 0 0 0 2.4 10.425L543.915 293h11.475l6.149-20.624a79.776 79.776 0 0 0 2.4-10.425c.375 4.35.6 7.65.825 9.825zm39.227 0h36.3v-14.549h-17.4v-5.625h15.374V259.1h-15.375v-5.174h16.95v-14.55h-35.849V293zm59.1 0h18.6v-19.349a54.83 54.83 0 0 0-.6-8.475L699.914 293h19.05v-53.623h-18.6v19.5a54.107 54.107 0 0 0 .6 8.55l-16.649-28.049h-18.9V293zm85.274 0h19.274v-36.073h10.724v-17.55h-40.723v17.55h10.725V293zm-368.04 52.676V325.8a30.964 30.964 0 0 0-12.6-2.7c-16.649 0-28.724 11.925-28.724 28.2 0 9.375 3.9 17.249 11.1 22.574a29.007 29.007 0 0 0 17.4 5.55 33.167 33.167 0 0 0 12.6-2.55l.6-20.174c-4.275 3.15-7.95 4.95-11.925 4.95-6.3 0-10.124-4.2-10.124-10.35 0-6.525 4.274-10.649 10.5-10.649 4.048.001 7.648 1.649 11.173 5.025zM406.126 378H425.4v-18.9h11.774V378h19.275v-53.623h-19.275v17.849H425.4v-17.849h-19.274V378zm75.825 0h19.574v-53.623h-19.574V378zm45 0h18.6v-19.349a54.83 54.83 0 0 0-.6-8.475L561.449 378H580.5v-53.623h-18.6v19.5a53.988 53.988 0 0 0 .6 8.55l-16.65-28.05h-18.9V378zm133.8-26.7a27.55 27.55 0 0 0-8.1-20.024 30.117 30.117 0 0 0-41.1 0 28.711 28.711 0 0 0 0 39.973 29.921 29.921 0 0 0 41.024.075 27.315 27.315 0 0 0 8.172-20.024zM632.1 361.426c-5.249 0-9.074-3.9-9.074-10.125s3.825-10.2 9.074-10.2 9 3.975 9 10.2-3.752 10.125-9 10.125z"/><path id="_4_pro_athletes_are_ready_to_show_you_how._" data-name="4 pro athletes are ready to show you how." class="cls-2" d="M306.5 690.473l1.856-2.816a17.6 17.6 0 0 0 1.568-2.848 14.108 14.108 0 0 0-.16 2.56v3.1H306.5zM309.157 701H317v-4.544h2.463v-5.983H317v-12.351h-9.024l-8.607 12.351v5.983h9.791V701zm39.488-16.511h1.28c1.6 0 2.432.736 2.432 1.92s-.832 1.888-2.432 1.888h-1.28v-3.808zM340.389 701h8.224v-6.751h2.592c6.079 0 8.991-2.24 8.991-7.776 0-5.952-3.232-8.351-9.983-8.351h-9.824V701zm26.176 0h8.064v-7.551l4 7.551h9.216l-6.112-9.311c2.656-.32 4.416-2.592 4.416-5.856 0-4.9-3.136-7.711-9.248-7.711h-10.336V701zm8.064-16.991h1.279a2.136 2.136 0 0 1 2.432 2.272c0 1.408-.864 2.208-2.432 2.208h-1.279v-4.48zm42.014 5.6a11.754 11.754 0 0 0-3.456-8.544 12.851 12.851 0 0 0-17.534 0 12.249 12.249 0 0 0 0 17.055 12.764 12.764 0 0 0 17.5.032 11.652 11.652 0 0 0 3.49-8.543zm-12.223 4.32c-2.24 0-3.872-1.664-3.872-4.32s1.632-4.352 3.872-4.352 3.84 1.7 3.84 4.352-1.6 4.32-3.84 4.32zM435.076 701h8.831l.7-2.88h6.208l.736 2.88h8.831l-8-22.878h-9.151zm10.911-8.319l.7-2.592a23.2 23.2 0 0 0 .928-5.024h.16a23.2 23.2 0 0 0 .928 5.024l.7 2.592h-3.424zM466.8 701h8.224v-15.391h4.576v-7.487h-17.38v7.487h4.58V701zm18.977 0H494v-8.063h5.024V701h8.223v-22.878h-8.223v7.615H494v-7.615h-8.223V701zm29.312 0h16.222v-7.423h-8v-15.455h-8.223V701zm22.272 0h15.486v-6.208h-7.423v-2.4h6.56v-5.856h-6.56v-2.208h7.231v-6.207h-15.299V701zm25.279 0h8.224v-15.391h4.575v-7.487H558.06v7.487h4.575V701zm18.976 0H597.1v-6.208h-7.423v-2.4h6.559v-5.856h-6.559v-2.208h7.231v-6.207h-15.297V701zm20.256-1.952a17.964 17.964 0 0 0 8.992 2.56c5.983 0 9.887-3.712 9.887-8.607a6.106 6.106 0 0 0-5.088-6.144c-2.719-.608-4.255-.768-4.255-1.888 0-.672.64-1.088 1.792-1.088a8.187 8.187 0 0 1 4.7 1.792l2.5-5.983a15.88 15.88 0 0 0-7.711-2.08c-5.824 0-9.568 3.519-9.568 8.319 0 3.328 1.984 5.472 5.888 6.3 1.888.416 3.04.544 3.04 1.6 0 .735-.64 1.183-1.824 1.183-1.728 0-3.52-.863-5.728-2.367zM638.475 701h8.831l.7-2.88h6.208l.736 2.88h8.831l-8-22.878h-9.152zm10.911-8.319l.7-2.592a23.2 23.2 0 0 0 .928-5.024h.16a23.2 23.2 0 0 0 .928 5.024l.7 2.592h-3.424zm19.2 8.319h8.064v-7.551l4 7.551h9.215l-6.112-9.311c2.656-.32 4.416-2.592 4.416-5.856 0-4.9-3.136-7.711-9.247-7.711h-10.336V701zm8.064-16.991h1.28a2.136 2.136 0 0 1 2.432 2.272c0 1.408-.864 2.208-2.432 2.208h-1.28v-4.48zM695.018 701h15.487v-6.208h-7.424v-2.4h6.56v-5.856h-6.56v-2.208h7.232v-6.207h-15.295V701zm-465.357 40h8.064v-7.551l4 7.551h9.216l-6.112-9.311c2.656-.32 4.416-2.592 4.416-5.856 0-4.9-3.136-7.711-9.248-7.711h-10.336V741zm8.064-16.991h1.28a2.136 2.136 0 0 1 2.431 2.272c0 1.408-.864 2.208-2.431 2.208h-1.28v-4.48zM256.093 741h15.487v-6.208h-7.424v-2.4h6.56v-5.856h-6.56v-2.208h7.232v-6.207h-15.295V741zm19.3 0h8.831l.7-2.88h6.208l.736 2.88h8.832l-8-22.878h-9.152zm10.911-8.319l.7-2.592a23.2 23.2 0 0 0 .928-5.024h.16a23.2 23.2 0 0 0 .928 5.024l.7 2.592h-3.42zM305.5 741h6.048c4.576 0 8.095-.224 11.071-2.272a11.223 11.223 0 0 0-1.408-19.166c-2.111-1.056-5.087-1.44-9.055-1.44H305.5V741zm8.16-6.976v-8.863h.352c3.328 0 4.991 1.408 4.991 4.416-.003 3.104-1.695 4.384-5.343 4.447zM337.45 741h8.287v-10.111l7.936-12.767h-9.311l-1.888 4.447a18.1 18.1 0 0 0-.7 1.888 18.3 18.3 0 0 0-.672-1.888l-1.92-4.447H329.8l7.647 12.767V741zm37.631 0h8.224v-15.391h4.575v-7.487h-17.374v7.487h4.575V741zm42.619-11.391a11.754 11.754 0 0 0-3.456-8.544 12.852 12.852 0 0 0-17.535 0 12.251 12.251 0 0 0 0 17.055 12.766 12.766 0 0 0 17.5.032 11.652 11.652 0 0 0 3.491-8.543zm-12.223 4.319c-2.24 0-3.872-1.663-3.872-4.319s1.632-4.352 3.872-4.352 3.839 1.7 3.839 4.352-1.595 4.319-3.835 4.319zm31.616 5.12a17.96 17.96 0 0 0 8.991 2.56c5.984 0 9.887-3.712 9.887-8.607a6.106 6.106 0 0 0-5.087-6.144c-2.72-.608-4.256-.768-4.256-1.888 0-.672.64-1.088 1.792-1.088a8.189 8.189 0 0 1 4.7 1.792l2.5-5.983a15.875 15.875 0 0 0-7.711-2.08c-5.824 0-9.567 3.519-9.567 8.319 0 3.328 1.984 5.472 5.887 6.3 1.888.416 3.04.544 3.04 1.6 0 .735-.64 1.183-1.824 1.183-1.728 0-3.52-.863-5.727-2.367zM462.248 741h8.224v-8.063h5.028V741h8.224v-22.878H475.5v7.615h-5.023v-7.615h-8.224V741zm52.959-11.391a11.754 11.754 0 0 0-3.456-8.544 12.852 12.852 0 0 0-17.535 0 12.249 12.249 0 0 0 0 17.055 12.766 12.766 0 0 0 17.5.032 11.652 11.652 0 0 0 3.491-8.543zm-12.223 4.319c-2.24 0-3.872-1.663-3.872-4.319s1.632-4.352 3.872-4.352 3.839 1.7 3.839 4.352-1.6 4.319-3.839 4.319zm32.543-4.511h.288a22.922 22.922 0 0 0 .64 3.776l1.728 7.807h7.167l6.688-22.878h-8.256L541.99 728.2a31.182 31.182 0 0 0-.511 4.512h-.192a22.079 22.079 0 0 0-.544-3.9l-2.176-10.687h-5.792l-2.175 10.684a22.079 22.079 0 0 0-.544 3.9h-.192a31.151 31.151 0 0 0-.512-4.512l-1.792-10.079h-8.26L525.992 741h7.167l1.728-7.807a22.922 22.922 0 0 0 .64-3.776zM575.175 741h8.287v-10.111l7.936-12.767h-9.312l-1.887 4.447a18.1 18.1 0 0 0-.7 1.888 18.3 18.3 0 0 0-.672-1.888l-1.92-4.447h-9.376l7.648 12.767V741zm43.245-11.391a11.754 11.754 0 0 0-3.456-8.544 12.852 12.852 0 0 0-17.535 0 12.249 12.249 0 0 0 0 17.055 12.766 12.766 0 0 0 17.5.032 11.652 11.652 0 0 0 3.491-8.543zm-12.22 4.319c-2.239 0-3.871-1.663-3.871-4.319s1.632-4.352 3.871-4.352 3.84 1.7 3.84 4.352-1.604 4.319-3.84 4.319zm18.945-3.391c0 2.752.224 4.927 1.312 6.655 1.728 2.72 5.055 4.416 9.183 4.416s7.455-1.664 9.183-4.416c1.088-1.728 1.344-3.9 1.344-6.655v-12.415h-8.227V730.6c0 2.4-.416 3.807-2.3 3.807-1.92 0-2.272-1.407-2.272-3.807v-12.478h-8.223v12.415zM668.436 741h8.224v-8.063h5.023V741h8.224v-22.878h-8.224v7.615h-5.023v-7.615h-8.224V741zm52.964-11.391a11.754 11.754 0 0 0-3.456-8.544 12.852 12.852 0 0 0-17.535 0 12.249 12.249 0 0 0 0 17.055 12.766 12.766 0 0 0 17.5.032 11.652 11.652 0 0 0 3.491-8.543zm-12.224 4.319c-2.239 0-3.871-1.663-3.871-4.319s1.632-4.352 3.871-4.352 3.84 1.7 3.84 4.352-1.605 4.319-3.845 4.319zm32.544-4.511h.28a22.922 22.922 0 0 0 .64 3.776l1.731 7.807h7.167l6.688-22.878h-8.256l-1.792 10.078a31.151 31.151 0 0 0-.512 4.512h-.192a22.079 22.079 0 0 0-.544-3.9l-2.175-10.687h-5.792l-2.176 10.687a22.079 22.079 0 0 0-.544 3.9h-.192a31.151 31.151 0 0 0-.512-4.512l-1.792-10.079h-8.255L732.179 741h7.168l1.728-7.807a22.922 22.922 0 0 0 .64-3.776zm16.321 8.319c0 2.016 1.887 3.744 4.447 3.744s4.448-1.76 4.448-3.744-1.92-3.743-4.448-3.743-4.452 1.727-4.452 3.743z"/></svg>