<svg id="CTA_underline_copy" data-name="CTA_underline copy" xmlns="http://www.w3.org/2000/svg" width="1400" height="850"><defs><style>.cls-1{fill:#fff}.cls-1,.cls-2{fill-rule:evenodd}</style></defs><path id="_I_wear_these_pants_all_the_time._They_ve_got_great_stretch_and" data-name="“I wear these pants all the time. They’ve got great stretch and" class="cls-1" d="M669.709 419.112l-.846-.342-1.819 4.069 1.171.432zm2.629 0l-.846-.342-1.819 4.069 1.206.432zm3.49 0v12.01h1.333v-12.01h-1.333zm9.017 4.538l3.673 7.994 2.3-5.582 2.305 5.582 3.709-7.994H695.4l-2.233 5.077-2.323-5.654-2.341 5.654-2.214-5.077h-1.441zm19.8 4.969a2.976 2.976 0 0 1-.774 1.026 2.272 2.272 0 0 1-1.53.541 2.394 2.394 0 0 1-2.377-2.539h5.816a5.017 5.017 0 0 0-.7-2.809 3.343 3.343 0 0 0-2.827-1.369c-2.25 0-3.619 1.729-3.619 3.962a3.576 3.576 0 0 0 3.691 3.907 3.627 3.627 0 0 0 2.485-.918 4.514 4.514 0 0 0 .919-1.207zm-4.591-2.053a2.27 2.27 0 0 1 2.2-1.944 2.236 2.236 0 0 1 2.2 1.944h-4.393zm14.329-1.854a3.091 3.091 0 0 0-2.557-1.243 3.947 3.947 0 0 0 0 7.869 3.149 3.149 0 0 0 2.557-1.261v1.045h1.3v-7.472h-1.3v1.062zm-2.413-.09a2.8 2.8 0 0 1 0 5.564c-1.548 0-2.448-1.207-2.448-2.809a2.483 2.483 0 0 1 2.45-2.755zm7.055 6.5h1.3v-3.943a3.223 3.223 0 0 1 .433-2.017 1.255 1.255 0 0 1 1.044-.468 1.333 1.333 0 0 1 .756.252l.612-1.17a2.738 2.738 0 0 0-1.152-.307 2.078 2.078 0 0 0-1.693.991v-.81h-1.3v7.472zm13.95-6.284v-1.188h-1.3v-2.7h-1.3v2.7h-.793v1.188h.793v6.284h1.3v-6.284h1.3zm2.123 6.284h1.3v-3.907a3.148 3.148 0 0 1 .54-2.017 1.633 1.633 0 0 1 1.314-.576 1.467 1.467 0 0 1 1.225.54 2.2 2.2 0 0 1 .342 1.368v4.592h1.3v-4.628a3.331 3.331 0 0 0-.432-2 2.535 2.535 0 0 0-2.143-1.027 2.635 2.635 0 0 0-2.142 1.045V418h-1.3v13.126zm14.726-2.5a2.976 2.976 0 0 1-.774 1.026 2.274 2.274 0 0 1-1.531.541 2.393 2.393 0 0 1-2.376-2.539h5.815a5.017 5.017 0 0 0-.7-2.809 3.343 3.343 0 0 0-2.827-1.369c-2.25 0-3.619 1.729-3.619 3.962a3.576 3.576 0 0 0 3.691 3.907 3.627 3.627 0 0 0 2.485-.918 4.489 4.489 0 0 0 .918-1.207zm-4.591-2.053a2.27 2.27 0 0 1 2.2-1.944 2.236 2.236 0 0 1 2.2 1.944h-4.393zm12.744-1.746a2.156 2.156 0 0 0-2.052-1.351 2.009 2.009 0 0 0-2.179 2.089 1.622 1.622 0 0 0 .342 1.1 4.856 4.856 0 0 0 1.819 1.1c.7.306 1.206.54 1.206 1.242a1.16 1.16 0 0 1-1.224 1.189 1.691 1.691 0 0 1-1.513-1.225l-1.116.468a2.672 2.672 0 0 0 2.611 1.909 2.376 2.376 0 0 0 2.574-2.449 1.768 1.768 0 0 0-.4-1.206 4.551 4.551 0 0 0-1.872-1.153c-.847-.36-1.207-.522-1.207-1.062a.826.826 0 0 1 .9-.846 1.145 1.145 0 0 1 1.044.756zm8.641 3.8a2.992 2.992 0 0 1-.775 1.026 2.272 2.272 0 0 1-1.53.541 2.394 2.394 0 0 1-2.377-2.539h5.816a5.017 5.017 0 0 0-.7-2.809 3.346 3.346 0 0 0-2.827-1.369c-2.251 0-3.619 1.729-3.619 3.962a3.576 3.576 0 0 0 3.691 3.907 3.63 3.63 0 0 0 2.485-.918 4.489 4.489 0 0 0 .918-1.207zm-4.592-2.053a2.27 2.27 0 0 1 2.2-1.944 2.236 2.236 0 0 1 2.2 1.944h-4.393zm14.994 3.511a3.17 3.17 0 0 0 2.611 1.261 3.636 3.636 0 0 0 3.583-3.907 3.7 3.7 0 0 0-3.637-3.962 3.215 3.215 0 0 0-2.557 1.225v-1.048h-1.3v11.613h1.3v-5.186zm2.431.109a2.556 2.556 0 0 1-2.5-2.773 2.593 2.593 0 0 1 2.484-2.791 2.562 2.562 0 0 1 2.449 2.809 2.517 2.517 0 0 1-2.431 2.751zm12.366-5.474a3.091 3.091 0 0 0-2.557-1.243 3.947 3.947 0 0 0 0 7.869 3.149 3.149 0 0 0 2.557-1.261v1.045h1.3v-7.476h-1.3v1.062zm-2.413-.09a2.8 2.8 0 0 1 0 5.564c-1.548 0-2.449-1.207-2.449-2.809a2.484 2.484 0 0 1 2.451-2.759zm7.055 6.5h1.3v-3.907a3.148 3.148 0 0 1 .54-2.017 1.636 1.636 0 0 1 1.315-.576 1.466 1.466 0 0 1 1.224.54 2.2 2.2 0 0 1 .342 1.368v4.592h1.3v-4.628a3.331 3.331 0 0 0-.432-2 2.538 2.538 0 0 0-2.143-1.027 2.638 2.638 0 0 0-2.143 1.045v-.866h-1.3v7.472zm11.988-6.284v-1.192h-1.3v-2.7h-1.3v2.7h-.793v1.188h.793v6.284h1.3v-6.284h1.3zm6.265-.018a2.157 2.157 0 0 0-2.053-1.351 2.01 2.01 0 0 0-2.179 2.089 1.618 1.618 0 0 0 .343 1.1 4.859 4.859 0 0 0 1.818 1.1c.7.306 1.206.54 1.206 1.242a1.16 1.16 0 0 1-1.224 1.189 1.691 1.691 0 0 1-1.512-1.225l-1.117.468a2.672 2.672 0 0 0 2.611 1.909 2.377 2.377 0 0 0 2.575-2.449 1.768 1.768 0 0 0-.4-1.206 4.557 4.557 0 0 0-1.873-1.153c-.846-.36-1.206-.522-1.206-1.062a.825.825 0 0 1 .9-.846 1.145 1.145 0 0 1 1.044.756zM672.95 450.712a3.091 3.091 0 0 0-2.557-1.242 3.946 3.946 0 0 0 0 7.868 3.149 3.149 0 0 0 2.557-1.261v1.045h1.3v-7.472h-1.3v1.062zm-2.413-.09a2.8 2.8 0 0 1 0 5.564c-1.548 0-2.448-1.207-2.448-2.809a2.483 2.483 0 0 1 2.448-2.755zm7.055-6.622v13.126h1.3V444h-1.3zm4.644 0v13.126h1.3V444h-1.3zm12.366 6.842v-1.192h-1.3v-2.7h-1.3v2.7h-.793v1.188h.793v6.284h1.3v-6.284h1.3zm2.123 6.284h1.3v-3.907a3.148 3.148 0 0 1 .54-2.017 1.633 1.633 0 0 1 1.314-.576 1.467 1.467 0 0 1 1.225.54 2.2 2.2 0 0 1 .342 1.368v4.592h1.3v-4.628a3.331 3.331 0 0 0-.432-2 2.534 2.534 0 0 0-2.143-1.026 2.635 2.635 0 0 0-2.142 1.044V444h-1.3v13.126zm14.726-2.5a2.976 2.976 0 0 1-.774 1.026 2.274 2.274 0 0 1-1.531.541 2.394 2.394 0 0 1-2.376-2.539h5.815a5.017 5.017 0 0 0-.7-2.809 3.343 3.343 0 0 0-2.827-1.368c-2.251 0-3.619 1.728-3.619 3.961a3.576 3.576 0 0 0 3.691 3.907 3.627 3.627 0 0 0 2.485-.918 4.489 4.489 0 0 0 .918-1.207zm-4.591-2.053a2.27 2.27 0 0 1 2.2-1.944 2.236 2.236 0 0 1 2.2 1.944h-4.4zm16.326-1.728v-1.195h-1.3v-2.7h-1.3v2.7h-.786v1.188h.792v6.284h1.3v-6.284h1.3zm2.123-1.188v7.472h1.3v-7.479h-1.3zm-.27-2.827a.918.918 0 1 0 .918-.919.922.922 0 0 0-.918.912zm4.913 10.3h1.3v-4.069c0-.9.162-2.431 1.638-2.431 1.369 0 1.351 1.548 1.351 2.07v4.43h1.3v-4.159c0-.9.162-2.341 1.657-2.341 1.224 0 1.332 1.116 1.332 1.962v4.538h1.3v-4.736c0-1.062-.216-2.916-2.43-2.916a2.5 2.5 0 0 0-2.251 1.206 2.237 2.237 0 0 0-2.035-1.206 2.17 2.17 0 0 0-1.854.972v-.8h-1.3v7.472zm18.776-2.5a2.976 2.976 0 0 1-.774 1.026 2.272 2.272 0 0 1-1.531.541 2.394 2.394 0 0 1-2.376-2.539h5.815a5.017 5.017 0 0 0-.7-2.809 3.343 3.343 0 0 0-2.827-1.368c-2.25 0-3.619 1.728-3.619 3.961a3.576 3.576 0 0 0 3.691 3.907 3.627 3.627 0 0 0 2.485-.918 4.489 4.489 0 0 0 .918-1.207zm-4.591-2.053a2.27 2.27 0 0 1 2.2-1.944 2.236 2.236 0 0 1 2.2 1.944h-4.393zm8.531 3.836a.9.9 0 1 0 .9-.9.915.915 0 0 0-.9.887zm16.364-10.029v-1.261h-7.166v1.261h2.916v10.749h1.333v-10.76h2.917zm1.078 10.749h1.3v-3.907a3.148 3.148 0 0 1 .54-2.017 1.636 1.636 0 0 1 1.315-.576 1.466 1.466 0 0 1 1.224.54 2.2 2.2 0 0 1 .342 1.368v4.592h1.3v-4.628a3.331 3.331 0 0 0-.432-2 2.537 2.537 0 0 0-2.143-1.026 2.638 2.638 0 0 0-2.143 1.044V444h-1.3v13.126zm14.725-2.5a2.976 2.976 0 0 1-.774 1.026 2.272 2.272 0 0 1-1.53.541 2.394 2.394 0 0 1-2.377-2.539h5.816a5.017 5.017 0 0 0-.7-2.809 3.346 3.346 0 0 0-2.827-1.368c-2.251 0-3.619 1.728-3.619 3.961a3.576 3.576 0 0 0 3.691 3.907 3.63 3.63 0 0 0 2.485-.932 4.489 4.489 0 0 0 .918-1.207zm-4.591-2.053a2.27 2.27 0 0 1 2.2-1.944 2.236 2.236 0 0 1 2.2 1.944h-4.393zm8.586 8.7h1.44l5.492-11.613h-1.441L791.89 455l-2.646-5.347h-1.477l3.439 6.77zm9.017-12.424l.847.342 1.818-4.069-1.206-.432zm4.752.811l3.673 7.958 3.673-7.958h-1.44l-2.233 5.041-2.233-5.041H802.6zm15.158 4.969a2.976 2.976 0 0 1-.774 1.026 2.276 2.276 0 0 1-1.531.541 2.394 2.394 0 0 1-2.377-2.539h5.816a5.017 5.017 0 0 0-.7-2.809 3.343 3.343 0 0 0-2.827-1.368c-2.251 0-3.619 1.728-3.619 3.961a3.576 3.576 0 0 0 3.691 3.907 3.629 3.629 0 0 0 2.485-.918 4.489 4.489 0 0 0 .918-1.207zm-4.592-2.053a2.272 2.272 0 0 1 2.2-1.944 2.236 2.236 0 0 1 2.2 1.944h-4.394zM672.95 476.712a3.108 3.108 0 0 0-2.557-1.243 3.684 3.684 0 0 0-2.556 1.009 3.915 3.915 0 0 0-1.081 2.9 4.046 4.046 0 0 0 1.081 2.953 3.578 3.578 0 0 0 2.556 1.008 3.149 3.149 0 0 0 2.557-1.261v1.081a3.473 3.473 0 0 1-.414 1.908 2.094 2.094 0 0 1-1.981 1.045 2.311 2.311 0 0 1-1.8-.721 2.352 2.352 0 0 1-.576-1.548H666.9a3.364 3.364 0 0 0 .973 2.413 3.7 3.7 0 0 0 2.664 1.008 3.635 3.635 0 0 0 2.989-1.386 4.7 4.7 0 0 0 .72-2.935v-7.293h-1.3v1.062zm-2.413-.09a2.4 2.4 0 0 1 1.693.666 2.954 2.954 0 0 1 .792 2.107 3.028 3.028 0 0 1-.846 2.16 2.212 2.212 0 0 1-1.639.631 2.261 2.261 0 0 1-1.6-.613 2.88 2.88 0 0 1-.846-2.2 2.845 2.845 0 0 1 .756-2.053 2.316 2.316 0 0 1 1.69-.698zm10.548 6.716a3.935 3.935 0 1 0-3.961-3.925 3.832 3.832 0 0 0 3.961 3.925zm0-6.716a2.786 2.786 0 1 1-2.629 2.791 2.586 2.586 0 0 1 2.629-2.791zm9.468.216v-1.188h-1.3v-2.7h-1.3v2.7h-.792v1.188h.792v6.284h1.3v-6.284h1.3zm12.942-.126a3.108 3.108 0 0 0-2.557-1.243 3.684 3.684 0 0 0-2.556 1.009 3.915 3.915 0 0 0-1.081 2.9 4.046 4.046 0 0 0 1.081 2.953 3.578 3.578 0 0 0 2.556 1.008 3.149 3.149 0 0 0 2.557-1.261v1.081a3.473 3.473 0 0 1-.414 1.908 2.094 2.094 0 0 1-1.981 1.045 2.311 2.311 0 0 1-1.8-.721 2.352 2.352 0 0 1-.576-1.548h-1.279a3.369 3.369 0 0 0 .973 2.413 3.7 3.7 0 0 0 2.664 1.008 3.635 3.635 0 0 0 2.989-1.386 4.7 4.7 0 0 0 .72-2.935v-7.293h-1.3v1.062zm-2.413-.09a2.4 2.4 0 0 1 1.693.666 2.954 2.954 0 0 1 .792 2.107 3.028 3.028 0 0 1-.846 2.16 2.212 2.212 0 0 1-1.639.631 2.261 2.261 0 0 1-1.6-.613 2.88 2.88 0 0 1-.846-2.2 2.845 2.845 0 0 1 .756-2.053 2.316 2.316 0 0 1 1.69-.698zm7.055 6.5h1.3v-3.943a3.225 3.225 0 0 1 .432-2.017 1.255 1.255 0 0 1 1.044-.468 1.333 1.333 0 0 1 .756.252l.612-1.17a2.738 2.738 0 0 0-1.152-.307 2.076 2.076 0 0 0-1.692.991v-.81h-1.3v7.472zm11.342-2.5a2.976 2.976 0 0 1-.774 1.026 2.274 2.274 0 0 1-1.531.541 2.4 2.4 0 0 1-2.377-2.539h5.816a5.017 5.017 0 0 0-.7-2.809 3.343 3.343 0 0 0-2.827-1.369c-2.25 0-3.619 1.729-3.619 3.962a3.577 3.577 0 0 0 3.691 3.907 3.629 3.629 0 0 0 2.485-.918 4.489 4.489 0 0 0 .918-1.207zm-4.591-2.053a2.27 2.27 0 0 1 2.2-1.944 2.236 2.236 0 0 1 2.2 1.944h-4.393zm14.329-1.854a3.093 3.093 0 0 0-2.557-1.243 3.947 3.947 0 0 0 0 7.869 3.151 3.151 0 0 0 2.557-1.261v1.045h1.3v-7.475h-1.3v1.062zm-2.413-.09a2.8 2.8 0 0 1 0 5.564c-1.548 0-2.449-1.207-2.449-2.809a2.484 2.484 0 0 1 2.445-2.758zm9.684.216v-1.191h-1.3v-2.7h-1.3v2.7h-.788v1.188h.8v6.284h1.3v-6.284h1.3zm11.358-.018a2.158 2.158 0 0 0-2.053-1.351 2.01 2.01 0 0 0-2.179 2.089 1.622 1.622 0 0 0 .342 1.1 4.865 4.865 0 0 0 1.819 1.1c.7.306 1.206.54 1.206 1.242a1.16 1.16 0 0 1-1.224 1.189 1.691 1.691 0 0 1-1.512-1.225l-1.117.468a2.672 2.672 0 0 0 2.611 1.909 2.377 2.377 0 0 0 2.575-2.449 1.768 1.768 0 0 0-.4-1.206 4.557 4.557 0 0 0-1.873-1.153c-.846-.36-1.206-.522-1.206-1.062a.825.825 0 0 1 .9-.846 1.145 1.145 0 0 1 1.044.756zm5.723.018v-1.191h-1.3v-2.7h-1.3v2.7h-.792v1.188h.792v6.284h1.3v-6.284h1.3zm2.123 6.284h1.3v-3.943a3.225 3.225 0 0 1 .432-2.017 1.257 1.257 0 0 1 1.045-.468 1.333 1.333 0 0 1 .756.252l.612-1.17a2.738 2.738 0 0 0-1.152-.307 2.078 2.078 0 0 0-1.693.991v-.81h-1.3v7.472zm11.342-2.5a2.979 2.979 0 0 1-.775 1.026 2.272 2.272 0 0 1-1.53.541 2.394 2.394 0 0 1-2.377-2.539h5.816a5.017 5.017 0 0 0-.7-2.809 3.345 3.345 0 0 0-2.827-1.369c-2.251 0-3.619 1.729-3.619 3.962a3.576 3.576 0 0 0 3.691 3.907 3.63 3.63 0 0 0 2.485-.918 4.489 4.489 0 0 0 .918-1.207zm-4.592-2.053a2.271 2.271 0 0 1 2.2-1.944 2.236 2.236 0 0 1 2.2 1.944h-4.394zm11.233-1.728v-1.194h-1.3v-2.7h-1.3v2.7h-.785v1.188h.792v6.284h1.3v-6.284h1.3zm7.974-.648a3.955 3.955 0 0 0-2.322-.721 3.935 3.935 0 1 0 0 7.869 3.99 3.99 0 0 0 2.376-.774v-1.549a3.186 3.186 0 0 1-2.412 1.171 2.786 2.786 0 0 1 .018-5.564 3.013 3.013 0 0 1 2.34 1.116v-1.554zm2.932 6.932h1.3v-3.907a3.148 3.148 0 0 1 .54-2.017 1.633 1.633 0 0 1 1.314-.576 1.467 1.467 0 0 1 1.225.54 2.2 2.2 0 0 1 .342 1.368v4.592h1.3V478.5a3.331 3.331 0 0 0-.432-2 2.535 2.535 0 0 0-2.143-1.027 2.635 2.635 0 0 0-2.142 1.045V470h-1.3v13.126zm20.18-6.41a3.1 3.1 0 0 0-2.557-1.243 3.947 3.947 0 0 0 0 7.869 3.152 3.152 0 0 0 2.557-1.261v1.045h1.3v-7.478h-1.3v1.062zm-2.413-.09a2.8 2.8 0 0 1 0 5.564c-1.549 0-2.449-1.207-2.449-2.809a2.483 2.483 0 0 1 2.449-2.761zm7.055 6.5h1.3v-3.907a3.148 3.148 0 0 1 .54-2.017 1.634 1.634 0 0 1 1.315-.576 1.466 1.466 0 0 1 1.224.54 2.2 2.2 0 0 1 .342 1.368v4.592h1.3V478.5a3.331 3.331 0 0 0-.432-2 2.535 2.535 0 0 0-2.142-1.027 2.636 2.636 0 0 0-2.143 1.045v-.868h-1.3v7.472zm15.085-6.41a3.091 3.091 0 0 0-2.557-1.243 3.947 3.947 0 0 0 0 7.869 3.149 3.149 0 0 0 2.557-1.261v1.045h1.3V470h-1.3v6.716zm-2.413-.09a2.8 2.8 0 0 1 0 5.564c-1.548 0-2.448-1.207-2.448-2.809a2.483 2.483 0 0 1 2.448-2.761zm-154.851 32.5h1.3v-3.943a3.225 3.225 0 0 1 .432-2.017A1.255 1.255 0 0 1 670 502.7a1.333 1.333 0 0 1 .756.252l.613-1.17a2.746 2.746 0 0 0-1.153-.306 2.076 2.076 0 0 0-1.692.99v-.81h-1.3v7.472zm11.342-2.5a2.976 2.976 0 0 1-.774 1.026 2.272 2.272 0 0 1-1.531.541 2.394 2.394 0 0 1-2.376-2.539h5.815a5.017 5.017 0 0 0-.7-2.809 3.343 3.343 0 0 0-2.827-1.368c-2.25 0-3.619 1.728-3.619 3.961a3.576 3.576 0 0 0 3.691 3.907 3.627 3.627 0 0 0 2.485-.918 4.489 4.489 0 0 0 .918-1.207zm-4.591-2.053a2.27 2.27 0 0 1 2.2-1.944 2.236 2.236 0 0 1 2.2 1.944h-4.393zm14.455-2.376a3.958 3.958 0 0 0-2.323-.72 3.934 3.934 0 1 0 0 7.868 3.992 3.992 0 0 0 2.377-.774v-1.549a3.188 3.188 0 0 1-2.413 1.171 2.786 2.786 0 0 1 .018-5.564 3.015 3.015 0 0 1 2.341 1.116v-1.557zm6.425 7.148a3.934 3.934 0 1 0-3.961-3.925 3.832 3.832 0 0 0 3.961 3.916zm0-6.716a2.786 2.786 0 1 1-2.629 2.791 2.587 2.587 0 0 1 2.629-2.8zm5.758-.972l3.674 7.958 3.673-7.958h-1.441l-2.232 5.041-2.233-5.041h-1.441zm15.158 4.969a2.976 2.976 0 0 1-.774 1.026 2.272 2.272 0 0 1-1.53.541 2.394 2.394 0 0 1-2.377-2.539h5.816a5.009 5.009 0 0 0-.7-2.809 3.342 3.342 0 0 0-2.826-1.368c-2.251 0-3.619 1.728-3.619 3.961a3.576 3.576 0 0 0 3.691 3.907 3.626 3.626 0 0 0 2.484-.918 4.493 4.493 0 0 0 .919-1.207zm-4.591-2.053a2.27 2.27 0 0 1 2.2-1.944 2.236 2.236 0 0 1 2.2 1.944h-4.4zm8.6 4.556h1.3v-3.943a3.225 3.225 0 0 1 .432-2.017 1.255 1.255 0 0 1 1.044-.468 1.338 1.338 0 0 1 .757.252l.612-1.17a2.742 2.742 0 0 0-1.153-.306 2.076 2.076 0 0 0-1.692.99v-.81h-1.3v7.472zm6.768 4.141h1.441l5.491-11.613h-1.44L729.612 507l-2.647-5.347h-1.476l3.439 6.77zm8.028-1.747l.846.343 1.819-4.07-1.189-.432zm17.443-8.8a3.091 3.091 0 0 0-2.556-1.242 3.946 3.946 0 0 0 0 7.868 3.149 3.149 0 0 0 2.556-1.261v1.045h1.3v-7.485h-1.3v1.062zm-2.412-.09a2.8 2.8 0 0 1 0 5.564c-1.549 0-2.449-1.207-2.449-2.809a2.483 2.483 0 0 1 2.452-2.768zm7.054 6.5h1.3v-3.907a3.148 3.148 0 0 1 .54-2.017 1.633 1.633 0 0 1 1.314-.576 1.468 1.468 0 0 1 1.225.54 2.2 2.2 0 0 1 .342 1.368v4.592h1.3v-4.628a3.331 3.331 0 0 0-.432-2 2.534 2.534 0 0 0-2.143-1.026 2.635 2.635 0 0 0-2.142 1.044v-.875h-1.3v7.472zm20.179-6.41a3.091 3.091 0 0 0-2.556-1.242 3.946 3.946 0 0 0 0 7.868 3.149 3.149 0 0 0 2.556-1.261v1.045h1.3v-7.485h-1.3v1.062zm-2.412-.09a2.8 2.8 0 0 1 0 5.564c-1.549 0-2.449-1.207-2.449-2.809a2.483 2.483 0 0 1 2.452-2.768zm7.058-6.635v13.126h1.3V496h-1.3zm4.643 0v13.126h1.3V496h-1.3zm4.32 9.957h3.961v-1.337h-3.961v1.333zm12.71-3.241a3.093 3.093 0 0 0-2.557-1.242 3.946 3.946 0 0 0 0 7.868 3.151 3.151 0 0 0 2.557-1.261v1.045h1.3v-7.476h-1.3v1.062zm-2.413-.09a2.8 2.8 0 0 1 0 5.564c-1.548 0-2.449-1.207-2.449-2.809a2.484 2.484 0 0 1 2.449-2.759zm7.055 6.5h1.3v-3.943a3.225 3.225 0 0 1 .432-2.017 1.257 1.257 0 0 1 1.045-.468 1.333 1.333 0 0 1 .756.252l.612-1.17a2.737 2.737 0 0 0-1.152-.306 2.076 2.076 0 0 0-1.693.99v-.81h-1.3v7.472zm9.289.216a3.934 3.934 0 1 0-3.961-3.925 3.832 3.832 0 0 0 3.961 3.921zm0-6.716a2.786 2.786 0 1 1-2.629 2.791 2.587 2.587 0 0 1 2.629-2.795zm8.135-.972h-1.3v4.5a2.973 2.973 0 0 0 .684 2.251 3.261 3.261 0 0 0 4.573 0 2.973 2.973 0 0 0 .684-2.251v-4.5h-1.3v4.357a2.543 2.543 0 0 1-.36 1.6 1.786 1.786 0 0 1-2.629 0 2.543 2.543 0 0 1-.36-1.6v-4.361zm7.992 7.472h1.3v-3.907a3.148 3.148 0 0 1 .54-2.017 1.633 1.633 0 0 1 1.314-.576 1.467 1.467 0 0 1 1.225.54 2.2 2.2 0 0 1 .342 1.368v4.592h1.3v-4.628a3.331 3.331 0 0 0-.432-2 2.534 2.534 0 0 0-2.143-1.026 2.635 2.635 0 0 0-2.142 1.044v-.866h-1.3v7.472zm15.085-6.41a3.091 3.091 0 0 0-2.557-1.242 3.946 3.946 0 0 0 0 7.868 3.149 3.149 0 0 0 2.557-1.261v1.045h1.3V496h-1.3v6.716zm-2.413-.09a2.8 2.8 0 0 1 0 5.564c-1.548 0-2.449-1.207-2.449-2.809a2.484 2.484 0 0 1 2.449-2.759zM666.144 527.65l3.673 7.994 2.3-5.582 2.3 5.582 3.71-7.994H676.7l-2.232 5.077-2.323-5.654-2.341 5.654-2.215-5.077h-1.44zm14.256 0v7.472h1.3v-7.472h-1.3zm-.27-2.827a.919.919 0 1 0 .918-.919.922.922 0 0 0-.918.919zm4.914 10.3h1.3v-3.907a3.143 3.143 0 0 1 .541-2.017 1.633 1.633 0 0 1 1.314-.576 1.466 1.466 0 0 1 1.224.54 2.2 2.2 0 0 1 .342 1.368v4.592h1.3v-4.628a3.331 3.331 0 0 0-.432-2 2.536 2.536 0 0 0-2.143-1.026 2.639 2.639 0 0 0-2.143 1.044v-.863h-1.3v7.472zm8.568 2.4l.846.342 1.818-4.07-1.188-.432zm11.717-9.867v7.472h1.3v-7.478h-1.3zm-.27-2.827a.919.919 0 1 0 .919-.919.922.922 0 0 0-.919.913zm8.083 4.015v-1.194h-1.836v-3.115a2.25 2.25 0 0 1 .162-1.081.908.908 0 0 1 .828-.4 2.351 2.351 0 0 1 .846.162v-1.26a2.5 2.5 0 0 0-.918-.162 2.329 2.329 0 0 0-1.5.486 2.585 2.585 0 0 0-.72 2.107v3.259h-.72v1.188h.72v6.284h1.3v-6.284h1.836zm7.127 10.425h1.44l5.491-11.619h-1.44l-2.43 5.35-2.647-5.347h-1.477l3.439 6.77zm12.691-3.925a3.934 3.934 0 1 0-3.96-3.931 3.833 3.833 0 0 0 3.96 3.925zm0-6.716a2.786 2.786 0 1 1-2.629 2.791 2.586 2.586 0 0 1 2.629-2.797zm8.135-.972h-1.3v4.5a2.969 2.969 0 0 0 .685 2.251 3.261 3.261 0 0 0 4.573 0 2.973 2.973 0 0 0 .684-2.251v-4.5h-1.3v4.357a2.543 2.543 0 0 1-.36 1.6 1.786 1.786 0 0 1-2.629 0 2.543 2.543 0 0 1-.36-1.6v-4.363zm18.811 1.062a3.093 3.093 0 0 0-2.557-1.242 3.946 3.946 0 0 0 0 7.868 3.155 3.155 0 0 0 2.557-1.26v1.044h1.3v-7.478h-1.3v1.062zm-2.413-.09a2.8 2.8 0 0 1 0 5.564c-1.549 0-2.449-1.207-2.449-2.809a2.484 2.484 0 0 1 2.449-2.761zm11.2.2a2.156 2.156 0 0 0-2.053-1.35 2.008 2.008 0 0 0-2.178 2.088 1.622 1.622 0 0 0 .342 1.1 4.859 4.859 0 0 0 1.818 1.1c.7.306 1.207.54 1.207 1.242a1.16 1.16 0 0 1-1.225 1.189 1.691 1.691 0 0 1-1.512-1.225l-1.116.468a2.671 2.671 0 0 0 2.61 1.909 2.377 2.377 0 0 0 2.575-2.449 1.768 1.768 0 0 0-.4-1.206 4.549 4.549 0 0 0-1.873-1.153c-.846-.36-1.206-.522-1.206-1.062a.825.825 0 0 1 .9-.846 1.147 1.147 0 0 1 1.045.756zm3.1-6.824v13.126h1.3v-3.079l.324-.324 2.989 3.4h1.692l-3.781-4.267 3.205-3.205h-1.692l-2.737 2.772V522h-1.3zm13.589 13.126h1.3v-4.069c0-.9.162-2.431 1.638-2.431 1.368 0 1.351 1.548 1.351 2.07v4.43h1.3v-4.159c0-.9.162-2.341 1.656-2.341 1.225 0 1.333 1.116 1.333 1.962v4.538h1.3v-4.736c0-1.062-.216-2.916-2.431-2.916a2.494 2.494 0 0 0-2.25 1.206 2.237 2.237 0 0 0-2.035-1.206 2.17 2.17 0 0 0-1.854.972v-.8h-1.3v7.472zm18.776-2.5a2.976 2.976 0 0 1-.774 1.026 2.276 2.276 0 0 1-1.531.541 2.394 2.394 0 0 1-2.377-2.539h5.816a5.017 5.017 0 0 0-.7-2.809 3.343 3.343 0 0 0-2.827-1.368c-2.251 0-3.619 1.728-3.619 3.961a3.576 3.576 0 0 0 3.691 3.907 3.629 3.629 0 0 0 2.485-.918 4.473 4.473 0 0 0 .918-1.207zm-4.592-2.053a2.272 2.272 0 0 1 2.2-1.944 2.236 2.236 0 0 1 2.2 1.944h-4.394zm8.532 3.836a.9.9 0 1 0 .9-.9.915.915 0 0 0-.909.887zm4.9-7.563l.846.342 1.819-4.069-1.207-.432zm2.629 0l.846.342 1.818-4.069-1.17-.432z"/><path id="Matt_is_wearing_the_Fulton_skinny_fit._" data-name="Matt is wearing the Fulton skinny fit." class="cls-2" d="M126.5 800.122l1.188-8.355 4.033 8.859 4.088-8.859 1.134 8.355h1.368l-1.872-12.694-4.7 10.155-4.609-10.137-2 12.676h1.37zm20.881-6.41a3.091 3.091 0 0 0-2.557-1.242 3.946 3.946 0 0 0 0 7.868 3.149 3.149 0 0 0 2.557-1.261v1.045h1.3v-7.472h-1.3v1.062zm-2.413-.09a2.8 2.8 0 0 1 0 5.564c-1.548 0-2.449-1.207-2.449-2.809a2.484 2.484 0 0 1 2.452-2.755zm9.684.216v-1.188h-1.3v-2.7h-1.3v2.7h-.782v1.188h.792v6.284h1.3v-6.284h1.3zm5.111 0v-1.188h-1.3v-2.7h-1.3v2.7h-.793v1.188h.793v6.284h1.3v-6.284h1.3zm7.217-1.188v7.472h1.3v-7.472h-1.3zm-.27-2.827a.919.919 0 1 0 .918-.919.922.922 0 0 0-.915.919zm9.055 4a2.155 2.155 0 0 0-2.052-1.35 2.008 2.008 0 0 0-2.179 2.088 1.622 1.622 0 0 0 .342 1.1 4.856 4.856 0 0 0 1.819 1.1c.7.306 1.206.54 1.206 1.242a1.16 1.16 0 0 1-1.224 1.189 1.691 1.691 0 0 1-1.513-1.225l-1.116.468a2.672 2.672 0 0 0 2.611 1.909 2.376 2.376 0 0 0 2.574-2.449 1.768 1.768 0 0 0-.4-1.206 4.551 4.551 0 0 0-1.872-1.153c-.847-.36-1.207-.522-1.207-1.062a.826.826 0 0 1 .9-.846 1.145 1.145 0 0 1 1.044.756zm7.108-1.17l3.673 7.994 2.305-5.582 2.3 5.582 3.709-7.994h-1.441l-2.232 5.077-2.323-5.654-2.341 5.654-2.214-5.077h-1.441zm19.8 4.969a2.976 2.976 0 0 1-.774 1.026 2.272 2.272 0 0 1-1.531.541 2.394 2.394 0 0 1-2.368-2.542h5.815a5.017 5.017 0 0 0-.7-2.809 3.343 3.343 0 0 0-2.827-1.368c-2.25 0-3.619 1.728-3.619 3.961a3.576 3.576 0 0 0 3.691 3.907 3.627 3.627 0 0 0 2.485-.918 4.489 4.489 0 0 0 .918-1.207zm-4.591-2.053a2.27 2.27 0 0 1 2.2-1.944 2.236 2.236 0 0 1 2.2 1.944h-4.393zm14.329-1.854a3.091 3.091 0 0 0-2.557-1.242 3.946 3.946 0 0 0 0 7.868 3.149 3.149 0 0 0 2.557-1.261v1.045h1.3v-7.475h-1.3v1.062zm-2.413-.09a2.8 2.8 0 0 1 0 5.564c-1.548 0-2.449-1.207-2.449-2.809a2.484 2.484 0 0 1 2.451-2.758zm7.055 6.5h1.3v-3.943a3.225 3.225 0 0 1 .432-2.017 1.257 1.257 0 0 1 1.045-.468 1.333 1.333 0 0 1 .756.252l.612-1.17a2.737 2.737 0 0 0-1.152-.306 2.078 2.078 0 0 0-1.693.99v-.81h-1.3v7.472zm6.228-7.472v7.472h1.3v-7.475h-1.3zm-.27-2.827a.918.918 0 1 0 .918-.919.922.922 0 0 0-.913.916zm4.914 10.3h1.3v-3.907a3.148 3.148 0 0 1 .54-2.017 1.634 1.634 0 0 1 1.315-.576 1.466 1.466 0 0 1 1.224.54 2.2 2.2 0 0 1 .342 1.368v4.592h1.3v-4.628a3.331 3.331 0 0 0-.432-2 2.534 2.534 0 0 0-2.142-1.026 2.636 2.636 0 0 0-2.143 1.044v-.866h-1.3v7.472zm15.085-6.41a3.107 3.107 0 0 0-2.557-1.242 3.683 3.683 0 0 0-2.556 1.008 3.915 3.915 0 0 0-1.081 2.9 4.046 4.046 0 0 0 1.081 2.953 3.578 3.578 0 0 0 2.556 1.008 3.149 3.149 0 0 0 2.557-1.261v1.081a3.473 3.473 0 0 1-.414 1.908 2.094 2.094 0 0 1-1.981 1.045 2.311 2.311 0 0 1-1.8-.721 2.352 2.352 0 0 1-.576-1.548h-1.279a3.364 3.364 0 0 0 .973 2.413 3.7 3.7 0 0 0 2.664 1.008 3.635 3.635 0 0 0 2.989-1.386 4.7 4.7 0 0 0 .72-2.935v-7.297h-1.3v1.062zm-2.413-.09a2.4 2.4 0 0 1 1.693.666 2.954 2.954 0 0 1 .792 2.107 3.028 3.028 0 0 1-.846 2.16 2.212 2.212 0 0 1-1.639.631 2.261 2.261 0 0 1-1.6-.613 2.88 2.88 0 0 1-.846-2.2 2.845 2.845 0 0 1 .756-2.053 2.316 2.316 0 0 1 1.693-.702zm14.778.216v-1.192h-1.3v-2.7h-1.3v2.7H252v1.188h.792v6.284h1.3v-6.284h1.3zm2.123 6.284h1.3v-3.907a3.148 3.148 0 0 1 .54-2.017 1.634 1.634 0 0 1 1.315-.576 1.466 1.466 0 0 1 1.224.54 2.2 2.2 0 0 1 .342 1.368v4.592h1.3v-4.628a3.331 3.331 0 0 0-.432-2 2.534 2.534 0 0 0-2.142-1.026 2.636 2.636 0 0 0-2.143 1.044V787h-1.3v13.126zm14.725-2.5a2.976 2.976 0 0 1-.774 1.026 2.272 2.272 0 0 1-1.531.541 2.394 2.394 0 0 1-2.376-2.539h5.815a5.008 5.008 0 0 0-.7-2.809 3.343 3.343 0 0 0-2.827-1.368c-2.25 0-3.619 1.728-3.619 3.961a3.576 3.576 0 0 0 3.691 3.907 3.627 3.627 0 0 0 2.485-.918 4.489 4.489 0 0 0 .918-1.207zm-4.591-2.053a2.27 2.27 0 0 1 2.2-1.944 2.236 2.236 0 0 1 2.2 1.944h-4.393zm19.5-7.454h-5.474v12.01h1.333v-5.949h4v-1.26h-4v-3.547h4.141v-1.261zm3.832 4.538h-1.3v4.5a2.973 2.973 0 0 0 .684 2.251 3.261 3.261 0 0 0 4.573 0 2.969 2.969 0 0 0 .685-2.251v-4.5h-1.3v4.357a2.543 2.543 0 0 1-.36 1.6 1.786 1.786 0 0 1-2.629 0 2.543 2.543 0 0 1-.36-1.6v-4.364zm7.992-5.657v13.126h1.3V787h-1.3zm7.272 6.842v-1.192h-1.3v-2.7h-1.3v2.7h-.793v1.188h.793v6.284h1.3v-6.284h1.3zm5.616 6.5a3.934 3.934 0 1 0-3.961-3.925 3.833 3.833 0 0 0 3.961 3.921zm0-6.716a2.787 2.787 0 1 1-2.628 2.791 2.586 2.586 0 0 1 2.628-2.795zm6.839 6.5h1.3v-3.907a3.148 3.148 0 0 1 .54-2.017 1.633 1.633 0 0 1 1.314-.576 1.466 1.466 0 0 1 1.224.54 2.191 2.191 0 0 1 .343 1.368v4.592h1.3v-4.628a3.331 3.331 0 0 0-.432-2 2.536 2.536 0 0 0-2.143-1.026 2.635 2.635 0 0 0-2.142 1.044v-.866h-1.3v7.472zm18.6-6.3a2.156 2.156 0 0 0-2.053-1.35 2.008 2.008 0 0 0-2.178 2.088 1.622 1.622 0 0 0 .342 1.1 4.859 4.859 0 0 0 1.818 1.1c.7.306 1.207.54 1.207 1.242a1.16 1.16 0 0 1-1.225 1.189 1.691 1.691 0 0 1-1.512-1.225l-1.116.468a2.671 2.671 0 0 0 2.61 1.909 2.377 2.377 0 0 0 2.575-2.449 1.768 1.768 0 0 0-.4-1.206 4.549 4.549 0 0 0-1.873-1.153c-.846-.36-1.206-.522-1.206-1.062a.825.825 0 0 1 .9-.846 1.147 1.147 0 0 1 1.045.756zm3.089-6.826v13.126h1.3v-3.079l.324-.324 2.989 3.4h1.692l-3.781-4.267 3.205-3.205h-1.692l-2.737 2.772V787h-1.3zm8.5 5.654v7.472h1.3v-7.476h-1.3zm-.27-2.827a.919.919 0 1 0 .919-.919.922.922 0 0 0-.921.915zm4.914 10.3h1.3v-3.907a3.148 3.148 0 0 1 .54-2.017 1.633 1.633 0 0 1 1.314-.576 1.468 1.468 0 0 1 1.225.54 2.2 2.2 0 0 1 .342 1.368v4.592h1.3v-4.628a3.331 3.331 0 0 0-.432-2 2.534 2.534 0 0 0-2.143-1.026 2.635 2.635 0 0 0-2.142 1.044v-.867h-1.3v7.472zm9.36 0h1.3v-3.907a3.143 3.143 0 0 1 .541-2.017 1.633 1.633 0 0 1 1.314-.576 1.466 1.466 0 0 1 1.224.54 2.2 2.2 0 0 1 .342 1.368v4.592h1.3v-4.628a3.331 3.331 0 0 0-.432-2 2.536 2.536 0 0 0-2.143-1.026 2.639 2.639 0 0 0-2.143 1.044v-.867h-1.3v7.472zm9.342 4.141h1.44l5.492-11.613h-1.441L375.275 798l-2.647-5.347h-1.477l3.44 6.77zm17.46-10.425v-1.193h-1.836v-2.809a2.068 2.068 0 0 1 .252-1.171 1.871 1.871 0 0 1 2.7 0 2.267 2.267 0 0 1 .252 1.171v.306h1.3v-.306a3.556 3.556 0 0 0-.432-1.963 2.827 2.827 0 0 0-2.467-1.1 2.784 2.784 0 0 0-2.467 1.1 3.217 3.217 0 0 0-.432 1.963v2.809h-.72v1.188h.72v6.284h1.3v-6.284h1.836zm1.369-1.188v7.472h1.3v-7.477h-1.3zm7.271 1.188v-1.193h-1.3v-2.7h-1.3v2.7h-.792v1.188h.792v6.284h1.3v-6.284h1.3zm2.051 5.564a.9.9 0 1 0 .9-.9.915.915 0 0 0-.904.893z"/><path id="MATT_RYAN_Pro_Football_Player" data-name="MATT RYAN Pro Football Player" class="cls-1" d="M692.23 310.52a.78.78 0 0 0 0-.384h-2.816c-.16 0-.224-.032-.224-.128v-21.663c0-.1.064-.128.224-.128h2.816a.78.78 0 0 0 0-.384h-7.3a.682.682 0 0 0-.448.576l-4.9 15.551-5.7-15.551a.621.621 0 0 0-.48-.576h-7.327a.408.408 0 0 0 0 .384h2.825c.128 0 .16.032.16.128v21.663c0 .1-.032.128-.16.128h-2.816a.408.408 0 0 0 0 .384h6.367a.408.408 0 0 0 0-.384h-2.783c-.16 0-.192-.032-.192-.128v-21.183l8.031 22.11a.292.292 0 0 0 .384 0l6.848-21.886v20.959c0 .1-.064.128-.192.128h-2.784a.408.408 0 0 0 0 .384h10.467zm26.176 0a.408.408 0 0 0 0-.384h-2.72a.386.386 0 0 1-.256-.1l-8.511-22.655a.292.292 0 0 0-.384 0l-7.648 21.407c-.447 1.248-.511 1.344-.8 1.344h-2.432a.408.408 0 0 0 0 .384h6.111a.292.292 0 0 0 0-.384h-2.784c-.16 0-.128-.192.256-1.344l2.144-5.888h6.848l2.432 7.136c.032.032-.032.1-.128.1h-2.88a.292.292 0 0 0 0 .384h10.751zm-10.335-8h-6.56l3.36-9.471zm31.935-6.847v-7.744a.076.076 0 0 0-.064-.1H720.3a.1.1 0 0 0-.1.1v7.744a.408.408 0 0 0 .384 0c0-3.712 2.111-7.456 6.719-7.456h.32c.128 0 .192.032.192.128v21.663c0 .1-.064.128-.192.128h-2.784a.408.408 0 0 0 0 .384h10.432a.408.408 0 0 0 0-.384h-2.816c-.128 0-.192-.032-.192-.128v-21.663c0-.1.064-.128.192-.128h.352c4.607 0 6.847 3.744 6.847 7.456a.347.347 0 0 0 .352 0zm24.32 0v-7.744a.076.076 0 0 0-.064-.1h-19.647a.1.1 0 0 0-.1.1v7.744a.408.408 0 0 0 .384 0c0-3.712 2.112-7.456 6.72-7.456h.32c.128 0 .192.032.192.128v21.663c0 .1-.064.128-.192.128h-2.784a.408.408 0 0 0 0 .384h10.435a.408.408 0 0 0 0-.384h-2.816c-.128 0-.192-.032-.192-.128v-21.663c0-.1.064-.128.192-.128h.352c4.608 0 6.848 3.744 6.848 7.456a.347.347 0 0 0 .352 0zm-75.616 52.671a.342.342 0 0 0-.224-.288 2.284 2.284 0 0 1-1.824.8c-1.183 0-1.951-1.024-1.951-2.656v-2.88c0-3.168-1.952-6.112-6.944-6.208 3.488-.1 6.016-2.4 6.016-5.311 0-3.136-2.912-5.568-7.648-5.568h-9.887a.408.408 0 0 0 0 .384h2.816a.129.129 0 0 1 .16.128v21.663a.129.129 0 0 1-.16.128h-2.816a.408.408 0 0 0 0 .384h10.271a.78.78 0 0 0 0-.384h-2.656c-.128 0-.192-.032-.192-.128V337.3h1.888c2.88 0 4.608 1.056 4.608 3.872v2.08c0 4.576 2.976 6.207 5.6 6.207a3.844 3.844 0 0 0 2.943-1.115zm-9.41-16.415c0 4.063-.64 4.991-3.744 4.991h-1.888v-10.175c0-.1.064-.128.192-.128h1.5c2.983 0 3.94 1.312 3.94 5.312zm31.967-5.312a.408.408 0 0 0 0-.384h-6.463a.408.408 0 0 0 0 .384h3.008c.223 0 .192.1-.384 1.344l-4.7 10.143-5.792-11.359c.032-.064 0-.128.128-.128h3.264a.408.408 0 0 0 0-.384h-11.456a.408.408 0 0 0 0 .384h3.008a.333.333 0 0 1 .256.128l6.239 12.287v9.376c0 .1-.064.128-.192.128H695.4a.408.408 0 0 0 0 .384h10.432a.408.408 0 0 0 0-.384h-2.784c-.16 0-.224-.032-.224-.128v-9.632L707.5 328.7c.928-1.952 1.087-2.08 1.279-2.08h2.5zm23.169 22.3a.408.408 0 0 0 0-.384h-2.72a.386.386 0 0 1-.256-.1l-8.512-22.655a.292.292 0 0 0-.384 0l-7.647 21.407c-.448 1.248-.512 1.344-.8 1.344h-2.432a.408.408 0 0 0 0 .384h6.115a.292.292 0 0 0 0-.384h-2.784c-.16 0-.128-.192.256-1.344l2.144-5.888h6.847l2.432 7.136c.032.032-.032.1-.128.1h-2.88a.292.292 0 0 0 0 .384h10.752zm-10.336-8h-6.559l3.36-9.471zm35.007-14.3a.4.4 0 0 0 0-.384h-6.367a.408.408 0 0 0 0 .384h2.816c.128 0 .192.032.192.128v14.911l-9.568-14.847a.9.9 0 0 0-.7-.576h-7.78a.292.292 0 0 0 0 .384h2.784c.16 0 .192.032.192.128v21.663c0 .1-.032.128-.192.128H737.7a.292.292 0 0 0 0 .384h6.368a.408.408 0 0 0 0-.384h-2.816c-.128 0-.16-.032-.16-.128v-21.471l14.623 22.4c.1.127.416.095.416 0v-22.592c0-.1.064-.128.192-.128h2.783zm-93.426 50.3h1.531l.738-5.654h1.152c1.531 0 2.773-.036 3.763-.81a3.644 3.644 0 0 0 1.387-3.043 3.209 3.209 0 0 0-1.153-2.593c-.972-.774-2.142-.774-3.655-.774h-2.07zm2.449-7l.612-4.483h1.116a3.665 3.665 0 0 1 1.963.342 1.862 1.862 0 0 1 .864 1.693 2.223 2.223 0 0 1-1.224 2.142 5.462 5.462 0 0 1-2.287.306h-1.044zm12.555.271l.36-1.423a2.008 2.008 0 0 0-.81-.18 2.843 2.843 0 0 0-2.359 1.567l.216-1.279h-1.387l-1.062 8.049h1.369l.5-3.8c.288-2.124.972-3.169 2.232-3.169a2.045 2.045 0 0 1 .944.233zm1.726 3.042a3.814 3.814 0 0 0 4.051 4.034c2.629 0 4.52-1.927 4.52-4.826a3.847 3.847 0 0 0-4.034-3.853 4.5 4.5 0 0 0-4.534 4.643zm4.465-3.511a2.74 2.74 0 0 1 2.719 2.971 3.163 3.163 0 0 1-3.043 3.457 2.7 2.7 0 0 1-2.737-2.953 3.184 3.184 0 0 1 3.064-3.477zm12.743 7.2h1.548l.833-6.247h5.077l.18-1.387h-5.077l.5-3.835h5.077l.2-1.4h-6.644zm9.224-3.692a3.813 3.813 0 0 0 4.051 4.034c2.629 0 4.519-1.927 4.519-4.826a3.846 3.846 0 0 0-4.033-3.853 4.5 4.5 0 0 0-4.534 4.646zm4.465-3.511a2.741 2.741 0 0 1 2.719 2.971 3.164 3.164 0 0 1-3.043 3.457 2.7 2.7 0 0 1-2.737-2.953 3.183 3.183 0 0 1 3.064-3.474zm6.353 3.511a3.813 3.813 0 0 0 4.051 4.034c2.629 0 4.519-1.927 4.519-4.826a3.846 3.846 0 0 0-4.033-3.853 4.5 4.5 0 0 0-4.534 4.646zm4.465-3.511a2.741 2.741 0 0 1 2.719 2.971 3.164 3.164 0 0 1-3.043 3.457 2.7 2.7 0 0 1-2.737-2.953 3.183 3.183 0 0 1 3.064-3.474zm6.911 7.2h1.4l.9-6.879h1.783l.144-1.17h-1.765l.432-3.241h-1.422l-.414 3.241h-1.494l-.163 1.17h1.5zm7.02 0l.2-1.567a2.945 2.945 0 0 0 2.935 1.909 3.816 3.816 0 0 0 3.079-1.513 5.048 5.048 0 0 0 1.044-3.025c0-2.538-1.441-4.123-3.493-4.123a3.456 3.456 0 0 0-2.9 1.531l.918-6.843h-1.4l-1.8 13.631h1.423zm3.3-7a2.511 2.511 0 0 1 2.538 2.755 3.093 3.093 0 0 1-3.043 3.367c-1.332 0-2.3-1.062-2.3-2.737-.006-2.001 1.29-3.386 2.803-3.386zm13.7-1.044l-.216 1.621a2.921 2.921 0 0 0-2.935-1.909c-2.358 0-4.141 1.927-4.141 4.609 0 2.449 1.458 4.052 3.475 4.052a3.433 3.433 0 0 0 2.935-1.531l-.2 1.207h1.4l1.063-8.049h-1.387zm-3.331 7.094a2.536 2.536 0 0 1-2.539-2.773 3.094 3.094 0 0 1 3.043-3.367c1.333 0 2.3 1.063 2.3 2.737.001 1.998-1.295 3.402-2.808 3.402zm8.711.955l1.783-13.631h-1.4l-1.8 13.631h1.422zm5.238 0l1.783-13.631h-1.4l-1.8 13.631h1.422zm9.972 0h1.53l.738-5.654h1.153c1.53 0 2.772-.036 3.763-.81a3.646 3.646 0 0 0 1.386-3.043 3.211 3.211 0 0 0-1.152-2.593c-.972-.774-2.143-.774-3.655-.774h-2.071zm2.448-7l.613-4.483h1.116a3.664 3.664 0 0 1 1.962.342 1.86 1.86 0 0 1 .865 1.693 2.222 2.222 0 0 1-1.225 2.142 5.46 5.46 0 0 1-2.286.306h-1.045zm9.306 7l1.783-13.631h-1.4l-1.8 13.631h1.416zm10.964-8.049l-.216 1.621a2.923 2.923 0 0 0-2.935-1.909c-2.359 0-4.141 1.927-4.141 4.609 0 2.449 1.458 4.052 3.475 4.052a3.432 3.432 0 0 0 2.934-1.531l-.2 1.207h1.4l1.062-8.049h-1.386zm-3.331 7.094a2.535 2.535 0 0 1-2.539-2.773 3.093 3.093 0 0 1 3.043-3.367c1.332 0 2.305 1.063 2.305 2.737-.004 1.998-1.301 3.402-2.813 3.402zm6.568 4.88h1.567l6.932-11.974h-1.6l-3.133 5.744-1.656-5.744h-1.5l2.2 7.166zm16.256-8.859h-4.987a2.761 2.761 0 0 1 2.772-2.269 2.06 2.06 0 0 1 2.211 2.268zm1.332 1.152c.018-.216.018-.432.018-.63 0-2.5-1.314-3.925-3.547-3.925a4.377 4.377 0 0 0-4.321 4.663 3.7 3.7 0 0 0 3.925 4.016 4.165 4.165 0 0 0 3.385-1.819l-.972-.792a3.029 3.029 0 0 1-2.467 1.4c-1.512 0-2.466-1.044-2.466-2.773v-.144h6.445zm7.452-2.952l.36-1.423a2.008 2.008 0 0 0-.81-.18 2.843 2.843 0 0 0-2.359 1.567l.216-1.279h-1.387l-1.062 8.048h1.369l.5-3.8c.288-2.124.972-3.169 2.232-3.169a2.048 2.048 0 0 1 .937.235z"/><path class="cls-2" d="M125 837h151.01v3H125v-3z"/><path id="SHOP_the_look" data-name="SHOP the look" class="cls-2" d="M131.725 817.182a4.84 4.84 0 0 0-3.05-1.056 3.239 3.239 0 0 0-2.541.976 3.351 3.351 0 0 0-.893 2.4 2.69 2.69 0 0 0 .616 1.855 3.432 3.432 0 0 0 1.432.848l.847.3a4.947 4.947 0 0 1 1.2.592.956.956 0 0 1 .354.768 1.123 1.123 0 0 1-.37.864 1.6 1.6 0 0 1-1.078.368 2.319 2.319 0 0 1-1.293-.384 6.318 6.318 0 0 1-.949-.813l-1.232 1.76a6.567 6.567 0 0 0 1.509 1.167 4.217 4.217 0 0 0 2.033.448 3.457 3.457 0 0 0 3.819-3.727 2.718 2.718 0 0 0-.755-1.984 4.07 4.07 0 0 0-1.4-.816l-.77-.3a4.07 4.07 0 0 1-1.294-.608.764.764 0 0 1-.231-.591.974.974 0 0 1 .262-.672 1.256 1.256 0 0 1 1-.368 2.45 2.45 0 0 1 1.725.768zm7.254-.816h-2.371v10.67h2.371v-4.527h4.1v4.527h2.371v-10.67h-2.371v4.063h-4.1v-4.063zm16.619-.24a5.4 5.4 0 0 0-4.02 1.568 6.078 6.078 0 0 0-1.586 4.047 5.418 5.418 0 0 0 5.606 5.535 5.379 5.379 0 0 0 3.973-1.567 5.836 5.836 0 0 0 0-8.031 5.375 5.375 0 0 0-3.971-1.552zm-.016 2.272a3.228 3.228 0 0 1 2.264.912 3.429 3.429 0 0 1 .893 2.4 3.261 3.261 0 0 1-.893 2.384 3.05 3.05 0 0 1-2.279.912 2.957 2.957 0 0 1-2.2-.88 3.246 3.246 0 0 1-.94-2.4 3.328 3.328 0 0 1 .909-2.415 3.088 3.088 0 0 1 2.246-.911zm10.135-2.032v10.67h2.372v-3.743h1.448a3.417 3.417 0 0 0 2.617-.944 3.5 3.5 0 0 0 .878-2.512 3.351 3.351 0 0 0-1-2.591 3.758 3.758 0 0 0-2.695-.88h-3.619zm2.372 2.016h.8a1.8 1.8 0 0 1 1.324.4 1.437 1.437 0 0 1 .385 1.039 1.516 1.516 0 0 1-.385 1.056 1.768 1.768 0 0 1-1.278.4h-.847v-2.9zm21.408.064v-2.08h-6.838v2.08h2.233v8.59h2.372v-8.59h2.236zm6.392-2.08h-2.371v10.67h2.371v-4.527h4.1v4.527h2.372v-10.67h-2.372v4.063h-4.1v-4.063zm17.3 0h-5.806v10.67h5.806v-2.079h-3.434v-2.368h3.264v-2.08h-3.264v-2.063h3.434v-2.08zm11.059 0v10.67h5.552v-2.079h-3.187v-8.591h-2.372zm14.477-.24a5.4 5.4 0 0 0-4.019 1.568 6.078 6.078 0 0 0-1.586 4.047 5.416 5.416 0 0 0 5.6 5.535 5.375 5.375 0 0 0 3.973-1.567 5.833 5.833 0 0 0 0-8.031 5.372 5.372 0 0 0-3.972-1.552zm-.015 2.272a3.23 3.23 0 0 1 2.264.912 3.429 3.429 0 0 1 .893 2.4 3.261 3.261 0 0 1-.893 2.384 3.05 3.05 0 0 1-2.279.912 2.961 2.961 0 0 1-2.2-.88 3.249 3.249 0 0 1-.939-2.4 3.328 3.328 0 0 1 .909-2.415 3.088 3.088 0 0 1 2.241-.911zm15.263-2.272a5.4 5.4 0 0 0-4.019 1.568 6.078 6.078 0 0 0-1.586 4.047 5.416 5.416 0 0 0 5.6 5.535 5.375 5.375 0 0 0 3.973-1.567 5.833 5.833 0 0 0 0-8.031 5.372 5.372 0 0 0-3.972-1.552zm-.015 2.272a3.232 3.232 0 0 1 2.264.912 3.429 3.429 0 0 1 .893 2.4 3.261 3.261 0 0 1-.893 2.384 3.051 3.051 0 0 1-2.28.912 2.96 2.96 0 0 1-2.2-.88 3.249 3.249 0 0 1-.939-2.4 3.328 3.328 0 0 1 .909-2.415 3.088 3.088 0 0 1 2.242-.911zm12.507-2.032h-2.372v10.67h2.372V822.3l3.68 4.735h3.049l-4.481-5.615 4.158-5.055h-2.9l-3.511 4.447v-4.447z"/><path class="cls-1" d="M912 724h151.01v3H912v-3z"/><path id="SHOP_the_look-2" data-name="SHOP the look" class="cls-1" d="M918.725 704.182a4.84 4.84 0 0 0-3.05-1.056 3.239 3.239 0 0 0-2.541.976 3.351 3.351 0 0 0-.893 2.4 2.69 2.69 0 0 0 .616 1.855 3.432 3.432 0 0 0 1.432.848l.847.3a4.947 4.947 0 0 1 1.2.592.956.956 0 0 1 .354.768 1.123 1.123 0 0 1-.37.864 1.6 1.6 0 0 1-1.078.368 2.319 2.319 0 0 1-1.293-.384 6.318 6.318 0 0 1-.949-.813l-1.232 1.76a6.567 6.567 0 0 0 1.509 1.167 4.217 4.217 0 0 0 2.033.448 3.457 3.457 0 0 0 3.819-3.727 2.718 2.718 0 0 0-.755-1.984 4.07 4.07 0 0 0-1.4-.816l-.77-.3a4.07 4.07 0 0 1-1.294-.608.761.761 0 0 1-.231-.591.974.974 0 0 1 .262-.672 1.256 1.256 0 0 1 1-.368 2.45 2.45 0 0 1 1.725.768zm7.254-.816h-2.371v10.67h2.371v-4.527h4.1v4.527h2.371v-10.67h-2.371v4.063h-4.1v-4.063zm16.619-.24a5.4 5.4 0 0 0-4.02 1.568 6.078 6.078 0 0 0-1.586 4.047 5.418 5.418 0 0 0 5.606 5.535 5.379 5.379 0 0 0 3.973-1.567 5.836 5.836 0 0 0 0-8.031 5.375 5.375 0 0 0-3.971-1.552zm-.016 2.272a3.228 3.228 0 0 1 2.264.912 3.429 3.429 0 0 1 .893 2.4 3.261 3.261 0 0 1-.893 2.384 3.05 3.05 0 0 1-2.279.912 2.957 2.957 0 0 1-2.2-.88 3.246 3.246 0 0 1-.94-2.4 3.328 3.328 0 0 1 .909-2.415 3.088 3.088 0 0 1 2.246-.911zm10.135-2.032v10.67h2.372v-3.743h1.447a3.418 3.418 0 0 0 2.618-.944 3.5 3.5 0 0 0 .878-2.512 3.351 3.351 0 0 0-1-2.591 3.758 3.758 0 0 0-2.695-.88h-3.619zm2.372 2.016h.8a1.8 1.8 0 0 1 1.324.4 1.437 1.437 0 0 1 .385 1.039 1.516 1.516 0 0 1-.385 1.056 1.768 1.768 0 0 1-1.278.4h-.847v-2.9zm21.408.064v-2.08h-6.838v2.08h2.233v8.59h2.372v-8.59h2.236zm6.392-2.08h-2.371v10.67h2.371v-4.527h4.1v4.527h2.372v-10.67h-2.372v4.063h-4.1v-4.063zm17.291 0h-5.8v10.67h5.8v-2.079h-3.429v-2.368h3.269v-2.08h-3.269v-2.063h3.429v-2.08zm11.06 0v10.67h5.56v-2.079h-3.18v-8.591h-2.38zm14.48-.24a5.4 5.4 0 0 0-4.02 1.568 6.093 6.093 0 0 0-1.58 4.047 5.414 5.414 0 0 0 5.6 5.535 5.353 5.353 0 0 0 3.97-1.567 5.812 5.812 0 0 0 0-8.031 5.367 5.367 0 0 0-3.97-1.552zm-.01 2.272a3.222 3.222 0 0 1 2.26.912 3.437 3.437 0 0 1 .89 2.4 3.261 3.261 0 0 1-.89 2.384 3.042 3.042 0 0 1-2.28.912 2.952 2.952 0 0 1-2.2-.88 3.254 3.254 0 0 1-.94-2.4 3.316 3.316 0 0 1 .91-2.415 3.075 3.075 0 0 1 2.25-.911zm15.26-2.272a5.4 5.4 0 0 0-4.02 1.568 6.1 6.1 0 0 0-1.59 4.047 5.43 5.43 0 0 0 5.61 5.535 5.37 5.37 0 0 0 3.97-1.567 5.839 5.839 0 0 0 0-8.031 5.367 5.367 0 0 0-3.97-1.552zm-.02 2.272a3.247 3.247 0 0 1 2.27.912 3.437 3.437 0 0 1 .89 2.4 3.261 3.261 0 0 1-.89 2.384 3.059 3.059 0 0 1-2.28.912 2.952 2.952 0 0 1-2.2-.88 3.216 3.216 0 0 1-.94-2.4 3.316 3.316 0 0 1 .91-2.415 3.068 3.068 0 0 1 2.24-.911zm12.51-2.032h-2.37v10.67h2.37V709.3l3.68 4.735h3.05l-4.48-5.615 4.16-5.055h-2.9l-3.51 4.447v-4.447z"/></svg>