<svg xmlns="http://www.w3.org/2000/svg" width="1400" height="800" viewBox="0 0 1400 800">
  <defs>
    <style>
      .cls-1 {
        fill: #fff;
      }

      .cls-1, .cls-2 {
        fill-rule: evenodd;
      }
    </style>
  </defs>
  <path id="_So_comfortable_and_easy_to_move_in_I_was_a_fan_instantly._" data-name="“So comfortable and easy to move in—I was a fan instantly.”" class="cls-1" d="M661.709,380.112l-0.846-.342-1.819,4.069,1.171,0.432Zm2.629,0-0.846-.342-1.819,4.069,1.206,0.432Zm9.918,1.675a3.634,3.634,0,0,0-1.17-1.333,3.256,3.256,0,0,0-1.927-.54,3.1,3.1,0,0,0-3.367,3.1,2.493,2.493,0,0,0,.829,1.963,5.315,5.315,0,0,0,1.6.99l1.08,0.5a5.246,5.246,0,0,1,1.441.828,1.793,1.793,0,0,1,.594,1.405,2.459,2.459,0,0,1-4.141,1.71,2.834,2.834,0,0,1-.721-1.53l-1.3.36a4.359,4.359,0,0,0,1.116,2.125,3.854,3.854,0,0,0,6.41-2.719,2.89,2.89,0,0,0-.864-2.179,5.832,5.832,0,0,0-1.854-1.134l-1.153-.5a3.905,3.905,0,0,1-1.26-.757,1.259,1.259,0,0,1-.45-1.044,1.842,1.842,0,0,1,2.016-1.854,2.163,2.163,0,0,1,1.351.414,2.893,2.893,0,0,1,.7.9Zm6.965,10.551a3.934,3.934,0,1,0-3.961-3.925A3.832,3.832,0,0,0,681.221,392.338Zm0-6.716a2.786,2.786,0,1,1-2.629,2.791A2.587,2.587,0,0,1,681.221,385.622Zm17.784-.432a3.957,3.957,0,0,0-2.322-.72,3.935,3.935,0,1,0,0,7.868,3.99,3.99,0,0,0,2.376-.774v-1.549a3.186,3.186,0,0,1-2.412,1.171,2.786,2.786,0,0,1,.018-5.564,3.013,3.013,0,0,1,2.34,1.116V385.19Zm6.425,7.148a3.934,3.934,0,1,0-3.961-3.925A3.832,3.832,0,0,0,705.43,392.338Zm0-6.716a2.787,2.787,0,1,1-2.628,2.791A2.586,2.586,0,0,1,705.43,385.622Zm6.839,6.5h1.3v-4.069c0-.9.162-2.431,1.639-2.431,1.368,0,1.35,1.548,1.35,2.07v4.43h1.3v-4.159c0-.9.162-2.341,1.656-2.341,1.225,0,1.333,1.116,1.333,1.962v4.538h1.3v-4.736c0-1.062-.216-2.916-2.431-2.916a2.494,2.494,0,0,0-2.25,1.206,2.239,2.239,0,0,0-2.035-1.206,2.173,2.173,0,0,0-1.855.972V384.65h-1.3v7.472Zm16.4-6.284V384.65h-1.837v-3.115a2.25,2.25,0,0,1,.162-1.081,0.911,0.911,0,0,1,.829-0.4,2.351,2.351,0,0,1,.846.162v-1.26a2.5,2.5,0,0,0-.918-0.162,2.325,2.325,0,0,0-1.5.486,2.585,2.585,0,0,0-.72,2.107v3.259h-0.72v1.188h0.72v6.284h1.3v-6.284h1.837Zm5.544,6.5a3.934,3.934,0,1,0-3.961-3.925A3.832,3.832,0,0,0,734.212,392.338Zm0-6.716a2.786,2.786,0,1,1-2.629,2.791A2.587,2.587,0,0,1,734.212,385.622Zm6.839,6.5h1.3v-3.943a3.225,3.225,0,0,1,.432-2.017,1.255,1.255,0,0,1,1.044-.468,1.336,1.336,0,0,1,.757.252l0.612-1.17a2.738,2.738,0,0,0-1.153-.306,2.076,2.076,0,0,0-1.692.99v-0.81h-1.3v7.472Zm9.216-6.284V384.65h-1.3v-2.7h-1.3v2.7h-0.792v1.188h0.792v6.284h1.3v-6.284h1.3Zm7.849-.126a3.093,3.093,0,0,0-2.557-1.242,3.946,3.946,0,0,0,0,7.868,3.151,3.151,0,0,0,2.557-1.261v1.045h1.3V384.65h-1.3v1.062Zm-2.413-.09a2.8,2.8,0,0,1,0,5.564c-1.548,0-2.449-1.207-2.449-2.809A2.484,2.484,0,0,1,755.7,385.622Zm8.351,5.455a3.172,3.172,0,0,0,2.611,1.261,3.636,3.636,0,0,0,3.583-3.907,3.7,3.7,0,0,0-3.637-3.961,3.214,3.214,0,0,0-2.557,1.224V379h-1.3v13.126h1.3v-1.045Zm2.431,0.109a2.556,2.556,0,0,1-2.5-2.773,2.593,2.593,0,0,1,2.485-2.791,2.563,2.563,0,0,1,2.449,2.809A2.517,2.517,0,0,1,766.485,391.186ZM773.126,379v13.126h1.3V379h-1.3Zm10.189,10.623a2.976,2.976,0,0,1-.774,1.026,2.272,2.272,0,0,1-1.531.541,2.394,2.394,0,0,1-2.376-2.539h5.815a5.017,5.017,0,0,0-.7-2.809,3.343,3.343,0,0,0-2.827-1.368c-2.25,0-3.619,1.728-3.619,3.961a3.577,3.577,0,0,0,3.691,3.907,3.627,3.627,0,0,0,2.485-.918,4.489,4.489,0,0,0,.918-1.207Zm-4.591-2.053a2.27,2.27,0,0,1,2.2-1.944,2.236,2.236,0,0,1,2.2,1.944h-4.393Zm19.423-1.854a3.094,3.094,0,0,0-2.557-1.242,3.946,3.946,0,0,0,0,7.868,3.152,3.152,0,0,0,2.557-1.261v1.045h1.3V384.65h-1.3v1.062Zm-2.413-.09a2.8,2.8,0,0,1,0,5.564c-1.549,0-2.449-1.207-2.449-2.809A2.484,2.484,0,0,1,795.734,385.622Zm7.055,6.5h1.3v-3.907a3.148,3.148,0,0,1,.54-2.017,1.634,1.634,0,0,1,1.315-.576,1.466,1.466,0,0,1,1.224.54,2.2,2.2,0,0,1,.342,1.368v4.592h1.3v-4.628a3.331,3.331,0,0,0-.432-2,2.534,2.534,0,0,0-2.142-1.026,2.636,2.636,0,0,0-2.143,1.044V384.65h-1.3v7.472Zm15.085-6.41a3.091,3.091,0,0,0-2.557-1.242,3.946,3.946,0,0,0,0,7.868,3.149,3.149,0,0,0,2.557-1.261v1.045h1.3V379h-1.3v6.716Zm-2.413-.09a2.8,2.8,0,0,1,0,5.564c-1.548,0-2.448-1.207-2.448-2.809A2.483,2.483,0,0,1,815.461,385.622Zm-150.691,30a2.976,2.976,0,0,1-.774,1.026,2.272,2.272,0,0,1-1.531.54,2.393,2.393,0,0,1-2.376-2.538H665.9a5.017,5.017,0,0,0-.7-2.809,3.343,3.343,0,0,0-2.827-1.368c-2.25,0-3.619,1.728-3.619,3.961a3.576,3.576,0,0,0,3.691,3.907,3.627,3.627,0,0,0,2.485-.918,4.489,4.489,0,0,0,.918-1.207Zm-4.591-2.053a2.27,2.27,0,0,1,2.2-1.944,2.236,2.236,0,0,1,2.2,1.944h-4.393Zm14.329-1.854a3.093,3.093,0,0,0-2.557-1.242,3.946,3.946,0,0,0,0,7.868,3.151,3.151,0,0,0,2.557-1.261v1.045h1.3V410.65h-1.3v1.062Zm-2.413-.09a2.8,2.8,0,0,1,0,5.563c-1.548,0-2.449-1.206-2.449-2.808A2.484,2.484,0,0,1,672.1,411.622Zm11.2,0.2a2.155,2.155,0,0,0-2.053-1.35,2.008,2.008,0,0,0-2.178,2.088,1.622,1.622,0,0,0,.342,1.1,4.856,4.856,0,0,0,1.819,1.1c0.7,0.306,1.206.54,1.206,1.242a1.159,1.159,0,0,1-1.224,1.188,1.691,1.691,0,0,1-1.513-1.224l-1.116.468a2.671,2.671,0,0,0,2.61,1.909,2.377,2.377,0,0,0,2.575-2.449,1.768,1.768,0,0,0-.4-1.206,4.551,4.551,0,0,0-1.872-1.153c-0.847-.36-1.207-0.522-1.207-1.062a0.825,0.825,0,0,1,.9-0.846,1.146,1.146,0,0,1,1.045.756Zm3.077,10.443h1.44L693.3,410.65h-1.441L689.429,416l-2.647-5.347h-1.477l3.439,6.77Zm16.92-10.425V410.65h-1.3v-2.7h-1.3v2.7H699.9v1.188H700.7v6.284h1.3v-6.284h1.3Zm5.616,6.5a3.934,3.934,0,1,0-3.961-3.925A3.832,3.832,0,0,0,708.9,418.338Zm0-6.716a2.786,2.786,0,1,1-2.629,2.791A2.586,2.586,0,0,1,708.9,411.622Zm11.933,6.5h1.3v-4.069c0-.9.162-2.431,1.638-2.431,1.369,0,1.351,1.548,1.351,2.07v4.43h1.3v-4.159c0-.9.162-2.341,1.657-2.341,1.224,0,1.332,1.116,1.332,1.962v4.538h1.3v-4.736c0-1.062-.216-2.916-2.431-2.916a2.5,2.5,0,0,0-2.251,1.206,2.237,2.237,0,0,0-2.034-1.206,2.17,2.17,0,0,0-1.855.972V410.65h-1.3v7.472Zm16.723,0.216a3.934,3.934,0,1,0-3.962-3.925A3.833,3.833,0,0,0,737.56,418.338Zm0-6.716a2.786,2.786,0,1,1-2.629,2.791A2.586,2.586,0,0,1,737.56,411.622Zm5.758-.972,3.673,7.958,3.673-7.958h-1.44l-2.233,5.041-2.233-5.041h-1.44Zm15.158,4.969a2.976,2.976,0,0,1-.774,1.026,2.274,2.274,0,0,1-1.531.54,2.393,2.393,0,0,1-2.376-2.538h5.815a5.017,5.017,0,0,0-.7-2.809,3.343,3.343,0,0,0-2.827-1.368c-2.25,0-3.619,1.728-3.619,3.961a3.576,3.576,0,0,0,3.691,3.907,3.627,3.627,0,0,0,2.485-.918,4.489,4.489,0,0,0,.918-1.207Zm-4.591-2.053a2.27,2.27,0,0,1,2.2-1.944,2.236,2.236,0,0,1,2.2,1.944h-4.393Zm13.7-2.916v7.472h1.3V410.65h-1.3Zm-0.27-2.827a0.918,0.918,0,1,0,.918-0.919A0.922,0.922,0,0,0,767.312,407.823Zm4.914,10.3h1.3v-3.907a3.148,3.148,0,0,1,.54-2.017,1.634,1.634,0,0,1,1.315-.576,1.466,1.466,0,0,1,1.224.54,2.2,2.2,0,0,1,.342,1.368v4.592h1.3v-4.628a3.331,3.331,0,0,0-.432-2,2.534,2.534,0,0,0-2.142-1.026,2.636,2.636,0,0,0-2.143,1.044V410.65h-1.3v7.472Zm9.395-3.259h11.884V413.71H781.621v1.153Zm15.588-8.751v12.01h1.333v-12.01h-1.333Zm9.017,4.538,3.673,7.994,2.3-5.582,2.305,5.582,3.709-7.994h-1.44l-2.233,5.077-2.323-5.654-2.34,5.654-2.215-5.077h-1.441Zm19.982,1.062a3.091,3.091,0,0,0-2.556-1.242,3.946,3.946,0,0,0,0,7.868,3.149,3.149,0,0,0,2.556-1.261v1.045h1.3V410.65h-1.3v1.062Zm-2.412-.09a2.8,2.8,0,0,1,0,5.563c-1.549,0-2.449-1.206-2.449-2.808A2.483,2.483,0,0,1,823.8,411.622Zm11.2,0.2a2.157,2.157,0,0,0-2.053-1.35,2.009,2.009,0,0,0-2.179,2.088,1.622,1.622,0,0,0,.342,1.1,4.873,4.873,0,0,0,1.819,1.1c0.7,0.306,1.206.54,1.206,1.242a1.159,1.159,0,0,1-1.224,1.188,1.693,1.693,0,0,1-1.513-1.224l-1.116.468a2.672,2.672,0,0,0,2.611,1.909,2.377,2.377,0,0,0,2.575-2.449,1.768,1.768,0,0,0-.4-1.206,4.564,4.564,0,0,0-1.873-1.153c-0.846-.36-1.206-0.522-1.206-1.062a0.825,0.825,0,0,1,.9-0.846,1.145,1.145,0,0,1,1.044.756ZM664.95,437.712a3.091,3.091,0,0,0-2.557-1.242,3.946,3.946,0,0,0,0,7.868,3.149,3.149,0,0,0,2.557-1.261v1.045h1.3V436.65h-1.3v1.062Zm-2.413-.09a2.8,2.8,0,0,1,0,5.564c-1.548,0-2.448-1.207-2.448-2.809A2.483,2.483,0,0,1,662.537,437.622Zm15.318,0.216V436.65h-1.837v-3.115a2.25,2.25,0,0,1,.162-1.081,0.91,0.91,0,0,1,.829-0.4,2.351,2.351,0,0,1,.846.162v-1.26a2.5,2.5,0,0,0-.918-0.162,2.325,2.325,0,0,0-1.5.486,2.585,2.585,0,0,0-.72,2.107v3.259H674v1.188h0.72v6.284h1.3v-6.284h1.837Zm7.776-.126a3.091,3.091,0,0,0-2.556-1.242,3.946,3.946,0,0,0,0,7.868,3.149,3.149,0,0,0,2.556-1.261v1.045h1.3V436.65h-1.3v1.062Zm-2.412-.09a2.8,2.8,0,0,1,0,5.564c-1.549,0-2.449-1.207-2.449-2.809A2.483,2.483,0,0,1,683.219,437.622Zm7.054,6.5h1.3v-3.907a3.148,3.148,0,0,1,.54-2.017,1.633,1.633,0,0,1,1.314-.576,1.467,1.467,0,0,1,1.225.54,2.2,2.2,0,0,1,.342,1.368v4.592h1.3v-4.628a3.331,3.331,0,0,0-.432-2,2.534,2.534,0,0,0-2.143-1.026,2.635,2.635,0,0,0-2.142,1.044V436.65h-1.3v7.472Zm14.454-7.472v7.472h1.3V436.65h-1.3Zm-0.27-2.827a0.918,0.918,0,1,0,.918-0.919A0.922,0.922,0,0,0,704.457,433.823Zm4.914,10.3h1.3v-3.907a3.148,3.148,0,0,1,.54-2.017,1.635,1.635,0,0,1,1.315-.576,1.466,1.466,0,0,1,1.224.54,2.2,2.2,0,0,1,.342,1.368v4.592h1.3v-4.628a3.324,3.324,0,0,0-.433-2,2.534,2.534,0,0,0-2.142-1.026,2.636,2.636,0,0,0-2.143,1.044V436.65h-1.3v7.472Zm13.5-6.3a2.156,2.156,0,0,0-2.053-1.35,2.008,2.008,0,0,0-2.178,2.088,1.622,1.622,0,0,0,.342,1.1,4.859,4.859,0,0,0,1.818,1.1c0.7,0.306,1.207.54,1.207,1.242a1.161,1.161,0,0,1-1.225,1.189,1.691,1.691,0,0,1-1.512-1.225l-1.117.468a2.673,2.673,0,0,0,2.611,1.909,2.377,2.377,0,0,0,2.575-2.449,1.768,1.768,0,0,0-.4-1.206,4.549,4.549,0,0,0-1.873-1.153c-0.846-.36-1.206-0.522-1.206-1.062a0.825,0.825,0,0,1,.9-0.846,1.145,1.145,0,0,1,1.044.756Zm5.723,0.018V436.65h-1.3v-2.7H726v2.7H725.21v1.188H726v6.284h1.3v-6.284h1.3Zm7.849-.126a3.091,3.091,0,0,0-2.557-1.242,3.946,3.946,0,0,0,0,7.868,3.151,3.151,0,0,0,2.557-1.261v1.045h1.3V436.65h-1.3v1.062Zm-2.413-.09a2.8,2.8,0,0,1,0,5.564c-1.548,0-2.449-1.207-2.449-2.809A2.484,2.484,0,0,1,734.031,437.622Zm7.055,6.5h1.3v-3.907a3.148,3.148,0,0,1,.54-2.017,1.636,1.636,0,0,1,1.315-.576,1.466,1.466,0,0,1,1.224.54,2.2,2.2,0,0,1,.342,1.368v4.592h1.3v-4.628a3.331,3.331,0,0,0-.432-2,2.537,2.537,0,0,0-2.143-1.026,2.638,2.638,0,0,0-2.143,1.044V436.65h-1.3v7.472Zm11.988-6.284V436.65h-1.3v-2.7h-1.3v2.7h-0.793v1.188h0.793v6.284h1.3v-6.284h1.3ZM755.2,431v13.126h1.3V431h-1.3Zm4.626,17.267h1.441l5.491-11.613h-1.44L762.884,442l-2.647-5.347h-1.476l3.439,6.77Zm8.352-4.861a0.9,0.9,0,1,0,.9-0.9A0.915,0.915,0,0,0,768.175,443.4Zm4.9-7.563,0.846,0.342,1.819-4.069-1.207-.432Zm2.629,0,0.846,0.342,1.819-4.069-1.171-.432Z"/>
  <path id="DIDI_GREGORIUS_Pro_Baseball_Player" data-name="DIDI GREGORIUS Pro Baseball Player" class="cls-1" d="M679.726,252.192c0-6.271-4.607-11.359-10.3-11.359H659.248a0.408,0.408,0,0,0,0,.384h2.784c0.128,0,.192.032,0.192,0.128v21.663c0,0.1-.064.128-0.192,0.128h-2.784a0.408,0.408,0,0,0,0,.384h10.175C675.119,263.52,679.726,258.432,679.726,252.192Zm-4.895,0c0,6.048-.544,8.32-2.016,9.792a4.406,4.406,0,0,1-3.392,1.152h-2.56q-0.192,0-.192-0.1v-21.7c0-.1.064-0.128,0.192-0.128h2.56a4.529,4.529,0,0,1,3.392,1.152C674.287,243.841,674.831,246.913,674.831,252.192Zm21.376,11.328a0.408,0.408,0,0,0,0-.384h-2.816c-0.128,0-.192-0.032-0.192-0.128V241.345c0-.1.064-0.128,0.192-0.128h2.816a0.408,0.408,0,0,0,0-.384H685.776a0.408,0.408,0,0,0,0,.384h2.815a0.129,0.129,0,0,1,.16.128v21.663a0.129,0.129,0,0,1-.16.128h-2.815a0.408,0.408,0,0,0,0,.384h10.431Zm26.143-11.328c0-6.271-4.608-11.359-10.3-11.359H701.872a0.408,0.408,0,0,0,0,.384h2.783c0.128,0,.192.032,0.192,0.128v21.663c0,0.1-.064.128-0.192,0.128h-2.783a0.408,0.408,0,0,0,0,.384h10.175C717.742,263.52,722.35,258.432,722.35,252.192Zm-4.9,0c0,6.048-.544,8.32-2.015,9.792a4.406,4.406,0,0,1-3.392,1.152h-2.56q-0.192,0-.192-0.1v-21.7c0-.1.064-0.128,0.192-0.128h2.56a4.529,4.529,0,0,1,3.392,1.152C716.91,243.841,717.454,246.913,717.454,252.192ZM738.83,263.52a0.408,0.408,0,0,0,0-.384h-2.815c-0.128,0-.192-0.032-0.192-0.128V241.345c0-.1.064-0.128,0.192-0.128h2.815a0.408,0.408,0,0,0,0-.384H728.4a0.408,0.408,0,0,0,0,.384h2.816a0.129,0.129,0,0,1,.16.128v21.663a0.129,0.129,0,0,1-.16.128H728.4a0.408,0.408,0,0,0,0,.384H738.83Zm-58.016,29.824a0.408,0.408,0,0,0,0-.384H670.351a0.78,0.78,0,0,0,0,.384h2.816q0.192,0,.192.1v5.792c0,1.792-.992,2.88-3.872,2.88A4.245,4.245,0,0,1,666.1,300.9c-1.5-1.536-1.631-4.384-1.631-10.3,0-5.535.576-8.767,2.015-10.3a4.442,4.442,0,0,1,3.424-1.216c3.264,0,5.92,4.224,5.92,7.392a0.408,0.408,0,0,0,.384,0v-7.68a0.4,0.4,0,0,0-.384,0,1.473,1.473,0,0,1-1.568.768c-1.152,0-2.816-.864-4.352-0.864-5.983,0-10.335,5.536-10.335,11.9,0,6.144,3.776,11.871,9.919,11.871,3.584,0,5.088-1.535,6.528-1.535a1.23,1.23,0,0,1,1.376,1.088,0.451,0.451,0,0,0,.448.032V293.44q0-.1.192-0.1h2.783Zm25.92,8a0.342,0.342,0,0,0-.224-0.288,2.284,2.284,0,0,1-1.824.8c-1.184,0-1.952-1.024-1.952-2.656v-2.88c0-3.168-1.952-6.112-6.943-6.208,3.488-.1,6.015-2.4,6.015-5.311,0-3.136-2.911-5.568-7.647-5.568h-9.887a0.408,0.408,0,0,0,0,.384h2.815a0.129,0.129,0,0,1,.16.128v21.663a0.129,0.129,0,0,1-.16.128h-2.815a0.408,0.408,0,0,0,0,.384h10.271a0.78,0.78,0,0,0,0-.384h-2.656c-0.128,0-.192-0.032-0.192-0.128V290.3h1.888c2.88,0,4.608,1.056,4.608,3.872v2.08c0,4.576,2.975,6.207,5.6,6.207A3.845,3.845,0,0,0,706.734,301.344Zm-9.407-16.415c0,4.063-.64,4.991-3.744,4.991H691.7V279.745c0-.1.064-0.128,0.192-0.128h1.5C696.367,279.617,697.327,280.929,697.327,284.929Zm30.719,16.9V294.4a0.347,0.347,0,0,0-.352,0c0,3.3-2.272,7.136-7.488,7.136h-3.167c-0.16,0-.224-0.032-0.224-0.128V290.464h0.736a4.229,4.229,0,0,1,4.191,4.32,0.291,0.291,0,0,0,.32,0v-9.023a0.291,0.291,0,0,0-.32,0,4.209,4.209,0,0,1-4.191,4.319h-0.736V279.745c0-.1.064-0.128,0.224-0.128h3.072c3.967,0,5.887,3.52,5.887,6.5a0.408,0.408,0,0,0,.384,0v-6.784c0-.032,0-0.1-0.128-0.1H709.391a0.408,0.408,0,0,0,0,.384h2.816c0.128,0,.192.032,0.192,0.128v21.663c0,0.1-.064.128-0.192,0.128h-2.816a0.408,0.408,0,0,0,0,.384H727.95A0.085,0.085,0,0,0,728.046,301.824Zm26.816-8.48a0.408,0.408,0,0,0,0-.384H744.4a0.78,0.78,0,0,0,0,.384h2.816q0.192,0,.192.1v5.792c0,1.792-.992,2.88-3.872,2.88a4.244,4.244,0,0,1-3.391-1.216c-1.5-1.536-1.632-4.384-1.632-10.3,0-5.535.576-8.767,2.016-10.3a4.441,4.441,0,0,1,3.423-1.216c3.264,0,5.92,4.224,5.92,7.392a0.408,0.408,0,0,0,.384,0v-7.68a0.4,0.4,0,0,0-.384,0,1.473,1.473,0,0,1-1.568.768c-1.152,0-2.816-.864-4.352-0.864-5.983,0-10.335,5.536-10.335,11.9,0,6.144,3.776,11.871,9.919,11.871,3.584,0,5.088-1.535,6.528-1.535a1.23,1.23,0,0,1,1.376,1.088,0.451,0.451,0,0,0,.448.032V293.44q0-.1.192-0.1h2.784Zm24.479-2.752c0-6.591-4.639-11.9-10.367-11.9-5.983,0-10.335,5.536-10.335,11.9,0,6.56,4.64,11.871,10.335,11.871C774.7,302.463,779.341,297.152,779.341,290.592Zm-4.895,0c0,6.336-.576,8.768-2.048,10.3a4.442,4.442,0,0,1-3.424,1.216,4.3,4.3,0,0,1-3.36-1.216c-1.5-1.536-2.08-3.968-2.08-10.3,0-5.535.577-8.767,2.08-10.3a4.3,4.3,0,0,1,3.36-1.216,4.442,4.442,0,0,1,3.424,1.216C773.87,281.825,774.446,285.057,774.446,290.592Zm33.375,10.752a0.342,0.342,0,0,0-.224-0.288,2.284,2.284,0,0,1-1.824.8c-1.184,0-1.952-1.024-1.952-2.656v-2.88c0-3.168-1.951-6.112-6.943-6.208,3.488-.1,6.015-2.4,6.015-5.311,0-3.136-2.911-5.568-7.647-5.568h-9.887a0.408,0.408,0,0,0,0,.384h2.816a0.129,0.129,0,0,1,.16.128v21.663a0.129,0.129,0,0,1-.16.128h-2.816a0.408,0.408,0,0,0,0,.384H795.63a0.78,0.78,0,0,0,0-.384h-2.656c-0.128,0-.192-0.032-0.192-0.128V290.3h1.888c2.88,0,4.608,1.056,4.608,3.872v2.08c0,4.576,2.976,6.207,5.6,6.207A3.845,3.845,0,0,0,807.821,301.344Zm-9.407-16.415c0,4.063-.64,4.991-3.744,4.991h-1.888V279.745c0-.1.064-0.128,0.192-0.128h1.5C797.454,279.617,798.414,280.929,798.414,284.929Zm22.528,16.991a0.408,0.408,0,0,0,0-.384h-2.816c-0.128,0-.192-0.032-0.192-0.128V279.745c0-.1.064-0.128,0.192-0.128h2.816a0.408,0.408,0,0,0,0-.384H810.51a0.408,0.408,0,0,0,0,.384h2.816a0.129,0.129,0,0,1,.16.128v21.663a0.129,0.129,0,0,1-.16.128H810.51a0.408,0.408,0,0,0,0,.384h10.432Zm26.847-22.3a0.408,0.408,0,0,0,0-.384h-6.464a0.408,0.408,0,0,0,0,.384h2.88c0.128,0,.192.032,0.192,0.128V295.2c0,3.936-1.952,6.624-6.431,6.624-3.584,0-4.576-2.368-4.576-6.24V279.745c0-.1.064-0.128,0.224-0.128h2.816a0.408,0.408,0,0,0,0-.384H825.967a0.4,0.4,0,0,0,0,.384h2.815c0.128,0,.192.032,0.192,0.128v15.839c0,4.768,3.392,6.879,8.16,6.879,5.343,0,7.679-2.847,7.679-7.263V279.745a0.129,0.129,0,0,1,.16-0.128h2.816Zm20.384,15.167c0-3.9-2.56-5.344-6.655-6.879-4-1.44-5.7-2.72-5.7-5.024a3.762,3.762,0,0,1,4.1-3.808,5.786,5.786,0,0,1,5.439,5.76,0.347,0.347,0,0,0,.352,0v-6.048c0-.1-0.352-0.1-0.352,0a1.118,1.118,0,0,1-1.311.768c-1.6,0-2.4-.864-4.16-0.864-3.2,0-6.144,3.04-6.144,7.168,0,3.807,2.368,5.407,5.344,6.495,4.9,1.792,6.783,2.528,6.783,5.632,0,2.08-1.663,4.128-5.343,4.128-4.128,0-7.072-4.96-7.072-7.52a0.292,0.292,0,0,0-.384,0v7.775c0,0.1.32,0.1,0.384,0a1.7,1.7,0,0,1,1.728-1.215c1.344,0,3.136,1.311,5.376,1.311A7.58,7.58,0,0,0,868.173,294.784ZM658.684,329.92h1.531l0.738-5.654h1.152c1.531,0,2.773-.036,3.763-0.81a3.644,3.644,0,0,0,1.387-3.043,3.209,3.209,0,0,0-1.153-2.593c-0.972-.774-2.142-0.774-3.655-0.774h-2.07Zm2.449-7,0.612-4.483h1.116a3.665,3.665,0,0,1,1.963.342,1.862,1.862,0,0,1,.864,1.693,2.223,2.223,0,0,1-1.224,2.142,5.462,5.462,0,0,1-2.287.306h-1.044Zm12.555,0.271,0.36-1.423a2.008,2.008,0,0,0-.81-0.18,2.844,2.844,0,0,0-2.359,1.566l0.216-1.278h-1.386l-1.063,8.049h1.369l0.5-3.8c0.288-2.124.972-3.169,2.232-3.169A2.048,2.048,0,0,1,673.688,323.186Zm1.726,3.042a3.814,3.814,0,0,0,4.051,4.034c2.629,0,4.52-1.927,4.52-4.826a3.847,3.847,0,0,0-4.034-3.853A4.5,4.5,0,0,0,675.414,326.228Zm4.465-3.511a2.74,2.74,0,0,1,2.719,2.971,3.163,3.163,0,0,1-3.043,3.457,2.7,2.7,0,0,1-2.737-2.953A3.184,3.184,0,0,1,679.879,322.717Zm12.761,7.2H695c1.944,0,3.331-.036,4.357-0.739a3.678,3.678,0,0,0,1.53-3.151,2.774,2.774,0,0,0-2.232-2.826,2.885,2.885,0,0,0,2.358-3.079,2.94,2.94,0,0,0-.99-2.323c-0.828-.7-1.908-0.756-3.4-0.756h-2.287Zm1.692-1.369,0.613-4.627h1.332a4.206,4.206,0,0,1,2.143.36,1.912,1.912,0,0,1,.936,1.746,2.3,2.3,0,0,1-1.314,2.2,7.219,7.219,0,0,1-2.809.324h-0.9Zm0.775-5.942,0.558-4.177h1.152a3.59,3.59,0,0,1,1.837.306,1.774,1.774,0,0,1,.846,1.6,2.085,2.085,0,0,1-1.188,1.98,5.386,5.386,0,0,1-2.179.288h-1.026Zm15.391-.738-0.216,1.621a2.922,2.922,0,0,0-2.935-1.909c-2.359,0-4.141,1.927-4.141,4.609,0,2.449,1.458,4.052,3.475,4.052a3.435,3.435,0,0,0,2.935-1.531l-0.2,1.207h1.4l1.062-8.049H710.5Zm-3.331,7.094a2.536,2.536,0,0,1-2.539-2.773,3.094,3.094,0,0,1,3.043-3.367c1.333,0,2.3,1.063,2.3,2.737C709.976,327.561,708.679,328.965,707.167,328.965Zm6.64-.216a3.722,3.722,0,0,0,3.169,1.513c1.837,0,2.953-1.009,2.953-2.629,0-1.261-.666-1.747-2-2.323-1.009-.432-1.639-0.666-1.639-1.35a1.337,1.337,0,0,1,1.459-1.171,2.368,2.368,0,0,1,1.98.991l0.846-1.009a3.6,3.6,0,0,0-2.736-1.188,2.643,2.643,0,0,0-2.917,2.539c0,1.152.648,1.62,1.908,2.232,1.1,0.541,1.747.685,1.747,1.477a1.391,1.391,0,0,1-1.639,1.278,2.574,2.574,0,0,1-2.232-1.422ZM729,324.986h-4.987a2.761,2.761,0,0,1,2.773-2.269A2.06,2.06,0,0,1,729,324.986Zm1.333,1.152c0.018-.216.018-0.432,0.018-0.63,0-2.5-1.315-3.925-3.547-3.925a4.377,4.377,0,0,0-4.322,4.663,3.7,3.7,0,0,0,3.925,4.016,4.165,4.165,0,0,0,3.385-1.819l-0.972-.792a3.029,3.029,0,0,1-2.467,1.4c-1.512,0-2.466-1.044-2.466-2.773v-0.144h6.446Zm3.706,3.782,0.2-1.567a2.945,2.945,0,0,0,2.935,1.909,3.816,3.816,0,0,0,3.079-1.513,5.048,5.048,0,0,0,1.044-3.025c0-2.538-1.441-4.123-3.493-4.123a3.457,3.457,0,0,0-2.9,1.531l0.918-6.843h-1.4l-1.8,13.631h1.423Zm3.3-7a2.511,2.511,0,0,1,2.538,2.755,3.092,3.092,0,0,1-3.042,3.367c-1.333,0-2.305-1.062-2.305-2.737C734.526,324.3,735.822,322.915,737.335,322.915Zm13.7-1.044-0.216,1.621a2.921,2.921,0,0,0-2.935-1.909c-2.358,0-4.141,1.927-4.141,4.609,0,2.449,1.458,4.052,3.475,4.052a3.433,3.433,0,0,0,2.935-1.531l-0.2,1.207h1.4l1.063-8.049h-1.387Zm-3.331,7.094a2.535,2.535,0,0,1-2.538-2.773,3.093,3.093,0,0,1,3.042-3.367c1.333,0,2.3,1.063,2.3,2.737C750.511,327.561,749.215,328.965,747.7,328.965Zm8.711,0.955,1.783-13.631h-1.4l-1.8,13.631h1.422Zm5.238,0,1.783-13.631h-1.4l-1.8,13.631h1.422Zm9.972,0h1.53l0.738-5.654h1.153c1.53,0,2.773-.036,3.763-0.81a3.646,3.646,0,0,0,1.386-3.043,3.211,3.211,0,0,0-1.152-2.593c-0.972-.774-2.143-0.774-3.655-0.774h-2.071Zm2.448-7,0.613-4.483H775.8a3.664,3.664,0,0,1,1.962.342,1.86,1.86,0,0,1,.865,1.693,2.222,2.222,0,0,1-1.225,2.142,5.46,5.46,0,0,1-2.286.306h-1.045Zm9.306,7,1.783-13.631h-1.4l-1.8,13.631h1.422Zm10.964-8.049-0.216,1.621a2.922,2.922,0,0,0-2.935-1.909c-2.359,0-4.141,1.927-4.141,4.609,0,2.449,1.458,4.052,3.475,4.052a3.432,3.432,0,0,0,2.934-1.531l-0.2,1.207h1.4l1.062-8.049h-1.386Zm-3.331,7.094a2.535,2.535,0,0,1-2.539-2.773,3.093,3.093,0,0,1,3.043-3.367c1.332,0,2.3,1.063,2.3,2.737C793.819,327.561,792.522,328.965,791.01,328.965Zm6.568,4.88h1.567l6.932-11.974h-1.6l-3.133,5.744-1.656-5.744H798.19l2.2,7.166Zm16.256-8.859h-4.987a2.761,2.761,0,0,1,2.772-2.269A2.06,2.06,0,0,1,813.834,324.986Zm1.333,1.152c0.018-.216.018-0.432,0.018-0.63,0-2.5-1.315-3.925-3.548-3.925a4.377,4.377,0,0,0-4.321,4.663,3.7,3.7,0,0,0,3.925,4.016,4.165,4.165,0,0,0,3.385-1.819l-0.972-.792a3.029,3.029,0,0,1-2.467,1.4c-1.512,0-2.466-1.044-2.466-2.773v-0.144h6.446Zm7.451-2.952,0.36-1.423a2.008,2.008,0,0,0-.81-0.18,2.844,2.844,0,0,0-2.359,1.566l0.216-1.278h-1.387l-1.062,8.049h1.369l0.5-3.8c0.288-2.124.972-3.169,2.232-3.169A2.045,2.045,0,0,1,822.618,323.186Z"/>
  <path class="cls-2" d="M116,774h151.01v3H116v-3Z"/>
  <path id="SHOP_the_look" data-name="SHOP the look" class="cls-2" d="M122.725,754.182a4.84,4.84,0,0,0-3.05-1.056,3.235,3.235,0,0,0-2.54.976,3.352,3.352,0,0,0-.894,2.4,2.69,2.69,0,0,0,.616,1.855,3.429,3.429,0,0,0,1.433.848l0.846,0.3a4.947,4.947,0,0,1,1.2.592,0.956,0.956,0,0,1,.354.768,1.123,1.123,0,0,1-.37.864,1.6,1.6,0,0,1-1.078.368,2.319,2.319,0,0,1-1.293-.384A6.367,6.367,0,0,1,117,760.9l-1.232,1.76a6.567,6.567,0,0,0,1.509,1.167,4.217,4.217,0,0,0,2.033.448,3.457,3.457,0,0,0,3.819-3.727,2.718,2.718,0,0,0-.755-1.984,4.07,4.07,0,0,0-1.4-.816l-0.77-.3a4.05,4.05,0,0,1-1.293-.608,0.757,0.757,0,0,1-.232-0.591,0.974,0.974,0,0,1,.262-0.672,1.256,1.256,0,0,1,1-.368,2.45,2.45,0,0,1,1.725.768Zm7.254-.816h-2.371v10.67h2.371v-4.527h4.1v4.527h2.371v-10.67h-2.371v4.063h-4.1v-4.063Zm16.619-.24a5.4,5.4,0,0,0-4.02,1.568,6.078,6.078,0,0,0-1.586,4.047,5.418,5.418,0,0,0,5.606,5.535,5.379,5.379,0,0,0,3.973-1.567,5.836,5.836,0,0,0,0-8.031A5.375,5.375,0,0,0,146.6,753.126Zm-0.016,2.272a3.23,3.23,0,0,1,2.264.912,3.429,3.429,0,0,1,.893,2.4,3.261,3.261,0,0,1-.893,2.384,3.05,3.05,0,0,1-2.279.912,2.957,2.957,0,0,1-2.2-.88,3.246,3.246,0,0,1-.94-2.4,3.328,3.328,0,0,1,.909-2.415A3.088,3.088,0,0,1,146.582,755.4Zm10.135-2.032v10.67h2.372v-3.743h1.448a3.421,3.421,0,0,0,2.618-.944,3.509,3.509,0,0,0,.877-2.512,3.351,3.351,0,0,0-1-2.591,3.759,3.759,0,0,0-2.695-.88h-3.619Zm2.372,2.016h0.8a1.8,1.8,0,0,1,1.324.4,1.437,1.437,0,0,1,.385,1.039,1.516,1.516,0,0,1-.385,1.056,1.768,1.768,0,0,1-1.278.4h-0.847v-2.9Zm21.408,0.064v-2.08h-6.838v2.08h2.233v8.59h2.372v-8.59H180.5Zm6.392-2.08h-2.371v10.67h2.371v-4.527h4.1v4.527h2.372v-10.67h-2.372v4.063h-4.1v-4.063Zm17.3,0h-5.806v10.67h5.806v-2.079h-3.434v-2.368h3.264v-2.08h-3.264v-2.063h3.434v-2.08Zm11.059,0v10.67H220.8v-2.079h-3.187v-8.591h-2.372Zm14.477-.24a5.4,5.4,0,0,0-4.019,1.568,6.078,6.078,0,0,0-1.586,4.047,5.416,5.416,0,0,0,5.6,5.535,5.375,5.375,0,0,0,3.973-1.567,5.833,5.833,0,0,0,0-8.031A5.372,5.372,0,0,0,229.721,753.126Zm-0.015,2.272a3.232,3.232,0,0,1,2.264.912,3.429,3.429,0,0,1,.893,2.4,3.261,3.261,0,0,1-.893,2.384,3.05,3.05,0,0,1-2.279.912,2.961,2.961,0,0,1-2.2-.88,3.249,3.249,0,0,1-.939-2.4,3.328,3.328,0,0,1,.909-2.415A3.088,3.088,0,0,1,229.706,755.4Zm15.263-2.272a5.4,5.4,0,0,0-4.019,1.568,6.078,6.078,0,0,0-1.586,4.047,5.416,5.416,0,0,0,5.6,5.535,5.375,5.375,0,0,0,3.973-1.567,5.833,5.833,0,0,0,0-8.031A5.372,5.372,0,0,0,244.969,753.126Zm-0.015,2.272a3.23,3.23,0,0,1,2.264.912,3.429,3.429,0,0,1,.893,2.4,3.261,3.261,0,0,1-.893,2.384,3.05,3.05,0,0,1-2.279.912,2.961,2.961,0,0,1-2.2-.88,3.249,3.249,0,0,1-.939-2.4,3.328,3.328,0,0,1,.909-2.415A3.088,3.088,0,0,1,244.954,755.4Zm12.507-2.032h-2.372v10.67h2.372V759.3l3.68,4.735h3.049l-4.481-5.615,4.158-5.055h-2.9l-3.511,4.447v-4.447Z"/>
  <path class="cls-2" d="M901,666H1052.01v3H901v-3Z"/>
  <path id="SHOP_the_look-2" data-name="SHOP the look" class="cls-2" d="M907.725,646.182a4.84,4.84,0,0,0-3.05-1.056,3.239,3.239,0,0,0-2.541.976,3.356,3.356,0,0,0-.893,2.4,2.69,2.69,0,0,0,.616,1.855,3.432,3.432,0,0,0,1.432.848l0.847,0.3a4.947,4.947,0,0,1,1.2.592,0.956,0.956,0,0,1,.354.768,1.123,1.123,0,0,1-.37.864,1.6,1.6,0,0,1-1.078.368,2.319,2.319,0,0,1-1.293-.384A6.367,6.367,0,0,1,902,652.9l-1.232,1.76a6.567,6.567,0,0,0,1.509,1.167,4.217,4.217,0,0,0,2.033.448,3.457,3.457,0,0,0,3.819-3.727,2.718,2.718,0,0,0-.755-1.984,4.07,4.07,0,0,0-1.4-.816l-0.77-.3a4.07,4.07,0,0,1-1.294-.608,0.76,0.76,0,0,1-.231-0.591,0.974,0.974,0,0,1,.262-0.672,1.256,1.256,0,0,1,1-.368,2.45,2.45,0,0,1,1.725.768Zm7.254-.816h-2.371v10.67h2.371v-4.527h4.1v4.527h2.371v-10.67h-2.371v4.063h-4.1v-4.063Zm16.619-.24a5.4,5.4,0,0,0-4.02,1.568,6.078,6.078,0,0,0-1.586,4.047,5.418,5.418,0,0,0,5.606,5.535,5.379,5.379,0,0,0,3.973-1.567,5.836,5.836,0,0,0,0-8.031A5.375,5.375,0,0,0,931.6,645.126Zm-0.016,2.272a3.228,3.228,0,0,1,2.264.912,3.431,3.431,0,0,1,.893,2.4,3.261,3.261,0,0,1-.893,2.384,3.05,3.05,0,0,1-2.279.912,2.957,2.957,0,0,1-2.2-.88,3.246,3.246,0,0,1-.94-2.4,3.33,3.33,0,0,1,.909-2.415A3.088,3.088,0,0,1,931.582,647.4Zm10.135-2.032v10.67h2.372v-3.743h1.447a3.418,3.418,0,0,0,2.618-.944,3.5,3.5,0,0,0,.878-2.512,3.351,3.351,0,0,0-1-2.591,3.758,3.758,0,0,0-2.695-.88h-3.619Zm2.372,2.016h0.8a1.8,1.8,0,0,1,1.324.4,1.437,1.437,0,0,1,.385,1.039,1.516,1.516,0,0,1-.385,1.056,1.768,1.768,0,0,1-1.278.4h-0.847v-2.9Zm21.408,0.064v-2.08h-6.838v2.08h2.233v8.59h2.372v-8.59H965.5Zm6.392-2.08h-2.371v10.67h2.371v-4.527h4.1v4.527h2.372v-10.67h-2.372v4.063h-4.1v-4.063Zm17.3,0h-5.806v10.67h5.806v-2.079h-3.434v-2.368h3.264v-2.08h-3.264v-2.063h3.434v-2.08Zm11.055,0v10.67h5.56v-2.079h-3.18v-8.591h-2.38Zm14.48-.24a5.4,5.4,0,0,0-4.02,1.568,6.093,6.093,0,0,0-1.58,4.047,5.414,5.414,0,0,0,5.6,5.535,5.353,5.353,0,0,0,3.97-1.567,5.812,5.812,0,0,0,0-8.031A5.367,5.367,0,0,0,1014.72,645.126Zm-0.01,2.272a3.222,3.222,0,0,1,2.26.912,3.439,3.439,0,0,1,.89,2.4,3.261,3.261,0,0,1-.89,2.384,3.042,3.042,0,0,1-2.28.912,2.952,2.952,0,0,1-2.2-.88,3.254,3.254,0,0,1-.94-2.4,3.318,3.318,0,0,1,.91-2.415A3.075,3.075,0,0,1,1014.71,647.4Zm15.26-2.272a5.4,5.4,0,0,0-4.02,1.568,6.1,6.1,0,0,0-1.59,4.047,5.43,5.43,0,0,0,5.61,5.535,5.37,5.37,0,0,0,3.97-1.567,5.839,5.839,0,0,0,0-8.031A5.367,5.367,0,0,0,1029.97,645.126Zm-0.02,2.272a3.247,3.247,0,0,1,2.27.912,3.439,3.439,0,0,1,.89,2.4,3.261,3.261,0,0,1-.89,2.384,3.059,3.059,0,0,1-2.28.912,2.952,2.952,0,0,1-2.2-.88,3.216,3.216,0,0,1-.94-2.4,3.318,3.318,0,0,1,.91-2.415A3.068,3.068,0,0,1,1029.95,647.4Zm12.51-2.032h-2.37v10.67h2.37V651.3l3.68,4.735h3.05l-4.48-5.615,4.16-5.055h-2.9l-3.51,4.447v-4.447Z"/>
  <path id="Didi_is_wearing_the_Aiden_slim_fit._" data-name="Didi is wearing the Aiden slim fit. " class="cls-2" d="M115.548,739.122h2.431a6.009,6.009,0,0,0,4.393-1.387,5.713,5.713,0,0,0,2.107-4.609,5.854,5.854,0,0,0-2.052-4.609,6.53,6.53,0,0,0-4.43-1.405h-2.449v12.01Zm1.333-10.749h1.17c3.043,0,5.06,1.872,5.06,4.753a4.6,4.6,0,0,1-1.621,3.655,5.132,5.132,0,0,1-3.439,1.08h-1.17v-9.488ZM127.5,731.65v7.472h1.3V731.65h-1.3Zm-0.27-2.827a0.919,0.919,0,1,0,.918-0.919A0.922,0.922,0,0,0,127.23,728.823Zm10.64,3.889a3.093,3.093,0,0,0-2.557-1.242,3.946,3.946,0,0,0,0,7.868,3.151,3.151,0,0,0,2.557-1.261v1.045h1.3V726h-1.3v6.716Zm-2.413-.09a2.8,2.8,0,0,1,0,5.564c-1.548,0-2.449-1.207-2.449-2.809A2.484,2.484,0,0,1,135.457,732.622Zm6.875-.972v7.472h1.3V731.65h-1.3Zm-0.27-2.827a0.918,0.918,0,1,0,.918-0.919A0.922,0.922,0,0,0,142.062,728.823Zm10.007,2.827v7.472h1.3V731.65h-1.3Zm-0.27-2.827a0.919,0.919,0,1,0,.919-0.919A0.923,0.923,0,0,0,151.8,728.823Zm9.056,4a2.157,2.157,0,0,0-2.053-1.35,2.009,2.009,0,0,0-2.179,2.088,1.622,1.622,0,0,0,.342,1.1,4.873,4.873,0,0,0,1.819,1.1c0.7,0.306,1.206.54,1.206,1.242a1.16,1.16,0,0,1-1.224,1.189,1.691,1.691,0,0,1-1.512-1.225l-1.117.468a2.672,2.672,0,0,0,2.611,1.909,2.377,2.377,0,0,0,2.575-2.449,1.768,1.768,0,0,0-.4-1.206,4.557,4.557,0,0,0-1.873-1.153c-0.846-.36-1.206-0.522-1.206-1.062a0.825,0.825,0,0,1,.9-0.846,1.145,1.145,0,0,1,1.044.756Zm7.108-1.17,3.673,7.994,2.3-5.582,2.305,5.582,3.709-7.994h-1.44l-2.233,5.077-2.323-5.654-2.34,5.654L169.4,731.65h-1.44Zm19.8,4.969a2.976,2.976,0,0,1-.774,1.026,2.272,2.272,0,0,1-1.53.541,2.394,2.394,0,0,1-2.377-2.539H188.9a5.017,5.017,0,0,0-.7-2.809,3.346,3.346,0,0,0-2.827-1.368c-2.251,0-3.619,1.728-3.619,3.961a3.576,3.576,0,0,0,3.691,3.907,3.626,3.626,0,0,0,2.484-.918,4.473,4.473,0,0,0,.919-1.207Zm-4.591-2.053a2.27,2.27,0,0,1,2.2-1.944,2.236,2.236,0,0,1,2.2,1.944h-4.393Zm14.329-1.854a3.091,3.091,0,0,0-2.557-1.242,3.946,3.946,0,0,0,0,7.868,3.149,3.149,0,0,0,2.557-1.261v1.045h1.3V731.65h-1.3v1.062Zm-2.412-.09a2.8,2.8,0,0,1,0,5.564c-1.549,0-2.449-1.207-2.449-2.809A2.483,2.483,0,0,1,195.09,732.622Zm7.054,6.5h1.3v-3.943a3.225,3.225,0,0,1,.432-2.017,1.255,1.255,0,0,1,1.044-.468,1.333,1.333,0,0,1,.756.252l0.613-1.17a2.746,2.746,0,0,0-1.153-.306,2.076,2.076,0,0,0-1.692.99v-0.81h-1.3v7.472Zm6.228-7.472v7.472h1.3V731.65h-1.3Zm-0.27-2.827a0.919,0.919,0,1,0,.918-0.919A0.922,0.922,0,0,0,208.1,728.823Zm4.914,10.3h1.3v-3.907a3.143,3.143,0,0,1,.541-2.017,1.633,1.633,0,0,1,1.314-.576,1.466,1.466,0,0,1,1.224.54,2.2,2.2,0,0,1,.342,1.368v4.592h1.3v-4.628a3.331,3.331,0,0,0-.432-2,2.536,2.536,0,0,0-2.143-1.026,2.638,2.638,0,0,0-2.143,1.044V731.65h-1.3v7.472Zm15.085-6.41a3.107,3.107,0,0,0-2.556-1.242,3.684,3.684,0,0,0-2.557,1.008,3.919,3.919,0,0,0-1.08,2.9,4.05,4.05,0,0,0,1.08,2.953,3.579,3.579,0,0,0,2.557,1.008,3.149,3.149,0,0,0,2.556-1.261v1.081a3.473,3.473,0,0,1-.414,1.908,2.093,2.093,0,0,1-1.98,1.045,2.313,2.313,0,0,1-1.8-.721,2.352,2.352,0,0,1-.576-1.548h-1.278a3.368,3.368,0,0,0,.972,2.413,3.7,3.7,0,0,0,2.665,1.008,3.638,3.638,0,0,0,2.989-1.386,4.7,4.7,0,0,0,.72-2.935V731.65h-1.3v1.062Zm-2.412-.09a2.4,2.4,0,0,1,1.692.666,2.954,2.954,0,0,1,.792,2.107,3.028,3.028,0,0,1-.846,2.16,2.212,2.212,0,0,1-1.638.631,2.261,2.261,0,0,1-1.6-.613,2.88,2.88,0,0,1-.846-2.2,2.845,2.845,0,0,1,.756-2.053A2.318,2.318,0,0,1,225.689,732.622Zm14.777,0.216V731.65h-1.3v-2.7h-1.3v2.7h-0.792v1.188h0.792v6.284h1.3v-6.284h1.3Zm2.123,6.284h1.3v-3.907a3.143,3.143,0,0,1,.541-2.017,1.633,1.633,0,0,1,1.314-.576,1.466,1.466,0,0,1,1.224.54,2.2,2.2,0,0,1,.342,1.368v4.592h1.3v-4.628a3.331,3.331,0,0,0-.432-2,2.536,2.536,0,0,0-2.143-1.026,2.638,2.638,0,0,0-2.143,1.044V726h-1.3v13.126Zm14.726-2.5a2.992,2.992,0,0,1-.775,1.026,2.272,2.272,0,0,1-1.53.541,2.394,2.394,0,0,1-2.377-2.539h5.816a5.017,5.017,0,0,0-.7-2.809,3.344,3.344,0,0,0-2.827-1.368c-2.251,0-3.619,1.728-3.619,3.961a3.576,3.576,0,0,0,3.691,3.907,3.63,3.63,0,0,0,2.485-.918,4.489,4.489,0,0,0,.918-1.207Zm-4.592-2.053a2.27,2.27,0,0,1,2.2-1.944,2.236,2.236,0,0,1,2.2,1.944h-4.393Zm22.052,4.556h1.476l-5.383-12.586-5.528,12.586h1.477l1.44-3.385h5.113Zm-6-4.646,2.053-4.807,2.016,4.807h-4.069Zm9.737-2.826v7.472h1.3V731.65h-1.3Zm-0.27-2.827a0.919,0.919,0,1,0,.919-0.919A0.922,0.922,0,0,0,278.246,728.823Zm10.64,3.889a3.091,3.091,0,0,0-2.557-1.242,3.946,3.946,0,0,0,0,7.868,3.149,3.149,0,0,0,2.557-1.261v1.045h1.3V726h-1.3v6.716Zm-2.413-.09a2.8,2.8,0,0,1,0,5.564c-1.548,0-2.449-1.207-2.449-2.809A2.484,2.484,0,0,1,286.473,732.622Zm12.6,4a2.979,2.979,0,0,1-.775,1.026,2.272,2.272,0,0,1-1.53.541,2.394,2.394,0,0,1-2.377-2.539h5.816a5.017,5.017,0,0,0-.7-2.809,3.344,3.344,0,0,0-2.827-1.368c-2.251,0-3.619,1.728-3.619,3.961a3.576,3.576,0,0,0,3.691,3.907,3.63,3.63,0,0,0,2.485-.918,4.489,4.489,0,0,0,.918-1.207Zm-4.592-2.053a2.271,2.271,0,0,1,2.2-1.944,2.236,2.236,0,0,1,2.2,1.944h-4.393Zm8.6,4.556h1.3v-3.907a3.148,3.148,0,0,1,.54-2.017,1.634,1.634,0,0,1,1.315-.576,1.466,1.466,0,0,1,1.224.54,2.2,2.2,0,0,1,.342,1.368v4.592h1.3v-4.628a3.331,3.331,0,0,0-.432-2,2.534,2.534,0,0,0-2.142-1.026,2.636,2.636,0,0,0-2.143,1.044V731.65h-1.3v7.472Zm18.594-6.3a2.155,2.155,0,0,0-2.052-1.35,2.008,2.008,0,0,0-2.179,2.088,1.622,1.622,0,0,0,.342,1.1,4.865,4.865,0,0,0,1.819,1.1c0.7,0.306,1.206.54,1.206,1.242a1.16,1.16,0,0,1-1.224,1.189,1.691,1.691,0,0,1-1.513-1.225l-1.116.468a2.672,2.672,0,0,0,2.611,1.909,2.377,2.377,0,0,0,2.575-2.449,1.764,1.764,0,0,0-.4-1.206,4.551,4.551,0,0,0-1.872-1.153c-0.846-.36-1.206-0.522-1.206-1.062a0.825,0.825,0,0,1,.9-0.846,1.145,1.145,0,0,1,1.044.756ZM324.775,726v13.126h1.3V726h-1.3Zm4.644,5.654v7.472h1.3V731.65h-1.3Zm-0.27-2.827a0.918,0.918,0,1,0,.918-0.919A0.922,0.922,0,0,0,329.149,728.823Zm4.914,10.3h1.3v-4.069c0-.9.162-2.431,1.639-2.431,1.368,0,1.35,1.548,1.35,2.07v4.43h1.3v-4.159c0-.9.162-2.341,1.657-2.341,1.224,0,1.332,1.116,1.332,1.962v4.538h1.3v-4.736c0-1.062-.216-2.916-2.431-2.916a2.5,2.5,0,0,0-2.251,1.206,2.237,2.237,0,0,0-2.034-1.206,2.17,2.17,0,0,0-1.855.972V731.65h-1.3v7.472Zm21.492-6.284V731.65h-1.836v-2.809a2.068,2.068,0,0,1,.252-1.171,1.871,1.871,0,0,1,2.7,0,2.267,2.267,0,0,1,.252,1.171v0.306h1.3v-0.306a3.556,3.556,0,0,0-.432-1.963,2.827,2.827,0,0,0-2.467-1.1,2.781,2.781,0,0,0-2.466,1.1,3.21,3.21,0,0,0-.433,1.963v2.809H351.7v1.188h0.72v6.284h1.3v-6.284h1.836Zm1.369-1.188v7.472h1.3V731.65h-1.3Zm7.271,1.188V731.65h-1.3v-2.7h-1.3v2.7H360.81v1.188H361.6v6.284h1.3v-6.284h1.3Zm2.051,5.564a0.9,0.9,0,1,0,.9-0.9A0.915,0.915,0,0,0,366.246,738.4Z"/>
</svg>
