<svg xmlns="http://www.w3.org/2000/svg" width="1400" height="800"><defs><style>.cls-1{fill:#fff}.cls-1,.cls-2{fill-rule:evenodd}</style></defs><path id="_So_comfortable_and_easy_to_move_in_I_was_a_fan_instantly._" data-name="“So comfortable and easy to move in—I was a fan instantly.”" class="cls-1" d="M661.709 380.112l-.846-.342-1.819 4.069 1.171.432zm2.629 0l-.846-.342-1.819 4.069 1.206.432zm9.918 1.675a3.634 3.634 0 0 0-1.17-1.333 3.256 3.256 0 0 0-1.927-.54 3.1 3.1 0 0 0-3.367 3.1 2.493 2.493 0 0 0 .829 1.963 5.315 5.315 0 0 0 1.6.99l1.08.5a5.246 5.246 0 0 1 1.441.828 1.793 1.793 0 0 1 .594 1.405 2.459 2.459 0 0 1-4.141 1.71 2.834 2.834 0 0 1-.721-1.53l-1.3.36a4.359 4.359 0 0 0 1.116 2.125 3.854 3.854 0 0 0 6.41-2.719 2.89 2.89 0 0 0-.864-2.179 5.832 5.832 0 0 0-1.854-1.134l-1.153-.5a3.905 3.905 0 0 1-1.26-.757 1.259 1.259 0 0 1-.45-1.044 1.842 1.842 0 0 1 2.016-1.854 2.163 2.163 0 0 1 1.351.414 2.893 2.893 0 0 1 .7.9zm6.965 10.551a3.934 3.934 0 1 0-3.961-3.925 3.832 3.832 0 0 0 3.961 3.925zm0-6.716a2.786 2.786 0 1 1-2.629 2.791 2.587 2.587 0 0 1 2.629-2.791zm17.784-.432a3.957 3.957 0 0 0-2.322-.72 3.935 3.935 0 1 0 0 7.868 3.99 3.99 0 0 0 2.376-.774v-1.549a3.186 3.186 0 0 1-2.412 1.171 2.786 2.786 0 0 1 .018-5.564 3.013 3.013 0 0 1 2.34 1.116v-1.548zm6.425 7.148a3.934 3.934 0 1 0-3.961-3.925 3.832 3.832 0 0 0 3.961 3.925zm0-6.716a2.787 2.787 0 1 1-2.628 2.791 2.586 2.586 0 0 1 2.628-2.791zm6.839 6.5h1.3v-4.069c0-.9.162-2.431 1.639-2.431 1.368 0 1.35 1.548 1.35 2.07v4.43h1.3v-4.159c0-.9.162-2.341 1.656-2.341 1.225 0 1.333 1.116 1.333 1.962v4.538h1.3v-4.736c0-1.062-.216-2.916-2.431-2.916a2.494 2.494 0 0 0-2.25 1.206 2.239 2.239 0 0 0-2.035-1.206 2.173 2.173 0 0 0-1.855.972v-.792h-1.3v7.472zm16.4-6.284v-1.188h-1.837v-3.115a2.25 2.25 0 0 1 .162-1.081.911.911 0 0 1 .829-.4 2.351 2.351 0 0 1 .846.162v-1.26a2.5 2.5 0 0 0-.918-.162 2.325 2.325 0 0 0-1.5.486 2.585 2.585 0 0 0-.72 2.107v3.259h-.72v1.188h.72v6.284h1.3v-6.284h1.837zm5.544 6.5a3.934 3.934 0 1 0-3.961-3.925 3.832 3.832 0 0 0 3.96 3.925zm0-6.716a2.786 2.786 0 1 1-2.629 2.791 2.587 2.587 0 0 1 2.628-2.791zm6.839 6.5h1.3v-3.943a3.225 3.225 0 0 1 .432-2.017 1.255 1.255 0 0 1 1.044-.468 1.336 1.336 0 0 1 .757.252l.612-1.17a2.738 2.738 0 0 0-1.153-.306 2.076 2.076 0 0 0-1.692.99v-.81h-1.3v7.472zm9.216-6.284v-1.188h-1.3v-2.7h-1.3v2.7h-.792v1.188h.792v6.284h1.3v-6.284h1.3zm7.849-.126a3.093 3.093 0 0 0-2.557-1.242 3.946 3.946 0 0 0 0 7.868 3.151 3.151 0 0 0 2.557-1.261v1.045h1.3v-7.472h-1.3v1.062zm-2.413-.09a2.8 2.8 0 0 1 0 5.564c-1.548 0-2.449-1.207-2.449-2.809a2.484 2.484 0 0 1 2.445-2.755zm8.351 5.455a3.172 3.172 0 0 0 2.611 1.261 3.636 3.636 0 0 0 3.583-3.907 3.7 3.7 0 0 0-3.637-3.961 3.214 3.214 0 0 0-2.557 1.224V379h-1.3v13.126h1.3v-1.045zm2.431.109a2.556 2.556 0 0 1-2.5-2.773 2.593 2.593 0 0 1 2.485-2.791 2.563 2.563 0 0 1 2.449 2.809 2.517 2.517 0 0 1-2.435 2.755zm6.64-12.186v13.126h1.3V379h-1.3zm10.189 10.623a2.976 2.976 0 0 1-.774 1.026 2.272 2.272 0 0 1-1.531.541 2.394 2.394 0 0 1-2.376-2.539h5.815a5.017 5.017 0 0 0-.7-2.809 3.343 3.343 0 0 0-2.827-1.368c-2.25 0-3.619 1.728-3.619 3.961a3.577 3.577 0 0 0 3.691 3.907 3.627 3.627 0 0 0 2.485-.918 4.489 4.489 0 0 0 .918-1.207zm-4.591-2.053a2.27 2.27 0 0 1 2.2-1.944 2.236 2.236 0 0 1 2.2 1.944h-4.393zm19.423-1.854a3.094 3.094 0 0 0-2.557-1.242 3.946 3.946 0 0 0 0 7.868 3.152 3.152 0 0 0 2.557-1.261v1.045h1.3v-7.476h-1.3v1.062zm-2.413-.09a2.8 2.8 0 0 1 0 5.564c-1.549 0-2.449-1.207-2.449-2.809a2.484 2.484 0 0 1 2.449-2.759zm7.055 6.5h1.3v-3.907a3.148 3.148 0 0 1 .54-2.017 1.634 1.634 0 0 1 1.315-.576 1.466 1.466 0 0 1 1.224.54 2.2 2.2 0 0 1 .342 1.368v4.592h1.3v-4.628a3.331 3.331 0 0 0-.432-2 2.534 2.534 0 0 0-2.142-1.026 2.636 2.636 0 0 0-2.143 1.044v-.866h-1.3v7.472zm15.085-6.41a3.091 3.091 0 0 0-2.557-1.242 3.946 3.946 0 0 0 0 7.868 3.149 3.149 0 0 0 2.557-1.261v1.045h1.3V379h-1.3v6.716zm-2.413-.09a2.8 2.8 0 0 1 0 5.564c-1.548 0-2.448-1.207-2.448-2.809a2.483 2.483 0 0 1 2.448-2.759zm-150.691 30a2.976 2.976 0 0 1-.774 1.026 2.272 2.272 0 0 1-1.531.54 2.393 2.393 0 0 1-2.376-2.538h5.811a5.017 5.017 0 0 0-.7-2.809 3.343 3.343 0 0 0-2.827-1.368c-2.25 0-3.619 1.728-3.619 3.961a3.576 3.576 0 0 0 3.691 3.907 3.627 3.627 0 0 0 2.485-.918 4.489 4.489 0 0 0 .918-1.207zm-4.591-2.053a2.27 2.27 0 0 1 2.2-1.944 2.236 2.236 0 0 1 2.2 1.944h-4.393zm14.329-1.854a3.093 3.093 0 0 0-2.557-1.242 3.946 3.946 0 0 0 0 7.868 3.151 3.151 0 0 0 2.557-1.261v1.045h1.3v-7.479h-1.3v1.062zm-2.413-.09a2.8 2.8 0 0 1 0 5.563c-1.548 0-2.449-1.206-2.449-2.808a2.484 2.484 0 0 1 2.454-2.762zm11.2.2a2.155 2.155 0 0 0-2.053-1.35 2.008 2.008 0 0 0-2.178 2.088 1.622 1.622 0 0 0 .342 1.1 4.856 4.856 0 0 0 1.819 1.1c.7.306 1.206.54 1.206 1.242a1.159 1.159 0 0 1-1.224 1.188 1.691 1.691 0 0 1-1.513-1.224l-1.116.468a2.671 2.671 0 0 0 2.61 1.909 2.377 2.377 0 0 0 2.575-2.449 1.768 1.768 0 0 0-.4-1.206 4.551 4.551 0 0 0-1.872-1.153c-.847-.36-1.207-.522-1.207-1.062a.825.825 0 0 1 .9-.846 1.146 1.146 0 0 1 1.045.756zm3.077 10.443h1.44l5.488-11.622h-1.441l-2.43 5.35-2.647-5.347h-1.477l3.439 6.77zm16.92-10.425v-1.197h-1.3v-2.7h-1.3v2.7h-.792v1.188h.8v6.284h1.3v-6.284h1.3zm5.616 6.5a3.934 3.934 0 1 0-3.961-3.925 3.832 3.832 0 0 0 3.953 3.916zm0-6.716a2.786 2.786 0 1 1-2.629 2.791 2.586 2.586 0 0 1 2.621-2.8zm11.933 6.5h1.3v-4.069c0-.9.162-2.431 1.638-2.431 1.369 0 1.351 1.548 1.351 2.07v4.43h1.3v-4.159c0-.9.162-2.341 1.657-2.341 1.224 0 1.332 1.116 1.332 1.962v4.538h1.3v-4.736c0-1.062-.216-2.916-2.431-2.916a2.5 2.5 0 0 0-2.251 1.206 2.237 2.237 0 0 0-2.034-1.206 2.17 2.17 0 0 0-1.855.972v-.801h-1.3v7.472zm16.723.216a3.934 3.934 0 1 0-3.962-3.925 3.833 3.833 0 0 0 3.958 3.916zm0-6.716a2.786 2.786 0 1 1-2.629 2.791 2.586 2.586 0 0 1 2.625-2.8zm5.758-.972l3.673 7.958 3.673-7.958h-1.44l-2.233 5.041-2.233-5.041h-1.44zm15.158 4.969a2.976 2.976 0 0 1-.774 1.026 2.274 2.274 0 0 1-1.531.54 2.393 2.393 0 0 1-2.376-2.538h5.815a5.017 5.017 0 0 0-.7-2.809 3.343 3.343 0 0 0-2.827-1.368c-2.25 0-3.619 1.728-3.619 3.961a3.576 3.576 0 0 0 3.691 3.907 3.627 3.627 0 0 0 2.485-.918 4.489 4.489 0 0 0 .918-1.207zm-4.591-2.053a2.27 2.27 0 0 1 2.2-1.944 2.236 2.236 0 0 1 2.2 1.944h-4.393zm13.7-2.916v7.472h1.3v-7.481h-1.3zm-.27-2.827a.918.918 0 1 0 .918-.919.922.922 0 0 0-.925.91zm4.914 10.3h1.3v-3.907a3.148 3.148 0 0 1 .54-2.017 1.634 1.634 0 0 1 1.315-.576 1.466 1.466 0 0 1 1.224.54 2.2 2.2 0 0 1 .342 1.368v4.592h1.3v-4.628a3.331 3.331 0 0 0-.432-2 2.534 2.534 0 0 0-2.142-1.026 2.636 2.636 0 0 0-2.143 1.044v-.872h-1.3v7.472zm9.395-3.259h11.884v-1.163h-11.891v1.153zm15.588-8.751v12.01h1.333v-12.01h-1.333zm9.017 4.538l3.673 7.994 2.3-5.582 2.305 5.582 3.709-7.994h-1.44l-2.233 5.077-2.323-5.654-2.34 5.654-2.215-5.077h-1.441zm19.982 1.062a3.091 3.091 0 0 0-2.556-1.242 3.946 3.946 0 0 0 0 7.868 3.149 3.149 0 0 0 2.556-1.261v1.045h1.3v-7.482h-1.3v1.062zm-2.412-.09a2.8 2.8 0 0 1 0 5.563c-1.549 0-2.449-1.206-2.449-2.808a2.483 2.483 0 0 1 2.446-2.765zm11.2.2a2.157 2.157 0 0 0-2.053-1.35 2.009 2.009 0 0 0-2.179 2.088 1.622 1.622 0 0 0 .342 1.1 4.873 4.873 0 0 0 1.819 1.1c.7.306 1.206.54 1.206 1.242a1.159 1.159 0 0 1-1.224 1.188 1.693 1.693 0 0 1-1.513-1.224l-1.116.468a2.672 2.672 0 0 0 2.611 1.909 2.377 2.377 0 0 0 2.575-2.449 1.768 1.768 0 0 0-.4-1.206 4.564 4.564 0 0 0-1.873-1.153c-.846-.36-1.206-.522-1.206-1.062a.825.825 0 0 1 .9-.846 1.145 1.145 0 0 1 1.044.756zm-170.053 25.88a3.091 3.091 0 0 0-2.557-1.242 3.946 3.946 0 0 0 0 7.868 3.149 3.149 0 0 0 2.557-1.261v1.045h1.3v-7.472h-1.3v1.062zm-2.413-.09a2.8 2.8 0 0 1 0 5.564c-1.548 0-2.448-1.207-2.448-2.809a2.483 2.483 0 0 1 2.448-2.755zm15.318.216v-1.188h-1.837v-3.115a2.25 2.25 0 0 1 .162-1.081.91.91 0 0 1 .829-.4 2.351 2.351 0 0 1 .846.162v-1.26a2.5 2.5 0 0 0-.918-.162 2.325 2.325 0 0 0-1.5.486 2.585 2.585 0 0 0-.72 2.107v3.259H674v1.188h.72v6.284h1.3v-6.284h1.837zm7.776-.126a3.091 3.091 0 0 0-2.556-1.242 3.946 3.946 0 0 0 0 7.868 3.149 3.149 0 0 0 2.556-1.261v1.045h1.3v-7.472h-1.3v1.062zm-2.412-.09a2.8 2.8 0 0 1 0 5.564c-1.549 0-2.449-1.207-2.449-2.809a2.483 2.483 0 0 1 2.449-2.755zm7.054 6.5h1.3v-3.907a3.148 3.148 0 0 1 .54-2.017 1.633 1.633 0 0 1 1.314-.576 1.467 1.467 0 0 1 1.225.54 2.2 2.2 0 0 1 .342 1.368v4.592h1.3v-4.628a3.331 3.331 0 0 0-.432-2 2.534 2.534 0 0 0-2.143-1.026 2.635 2.635 0 0 0-2.142 1.044v-.862h-1.3v7.472zm14.454-7.472v7.472h1.3v-7.472h-1.3zm-.27-2.827a.918.918 0 1 0 .918-.919.922.922 0 0 0-.918.919zm4.914 10.3h1.3v-3.907a3.148 3.148 0 0 1 .54-2.017 1.635 1.635 0 0 1 1.315-.576 1.466 1.466 0 0 1 1.224.54 2.2 2.2 0 0 1 .342 1.368v4.592h1.3v-4.628a3.324 3.324 0 0 0-.433-2 2.534 2.534 0 0 0-2.142-1.026 2.636 2.636 0 0 0-2.143 1.044v-.863h-1.3v7.472zm13.5-6.3a2.156 2.156 0 0 0-2.053-1.35 2.008 2.008 0 0 0-2.178 2.088 1.622 1.622 0 0 0 .342 1.1 4.859 4.859 0 0 0 1.818 1.1c.7.306 1.207.54 1.207 1.242a1.161 1.161 0 0 1-1.225 1.189 1.691 1.691 0 0 1-1.512-1.225l-1.117.468a2.673 2.673 0 0 0 2.611 1.909 2.377 2.377 0 0 0 2.575-2.449 1.768 1.768 0 0 0-.4-1.206 4.549 4.549 0 0 0-1.873-1.153c-.846-.36-1.206-.522-1.206-1.062a.825.825 0 0 1 .9-.846 1.145 1.145 0 0 1 1.044.756zm5.723.018v-1.191h-1.3v-2.7H726v2.7h-.79v1.188h.79v6.284h1.3v-6.284h1.3zm7.849-.126a3.091 3.091 0 0 0-2.557-1.242 3.946 3.946 0 0 0 0 7.868 3.151 3.151 0 0 0 2.557-1.261v1.045h1.3v-7.475h-1.3v1.062zm-2.413-.09a2.8 2.8 0 0 1 0 5.564c-1.548 0-2.449-1.207-2.449-2.809a2.484 2.484 0 0 1 2.45-2.758zm7.055 6.5h1.3v-3.907a3.148 3.148 0 0 1 .54-2.017 1.636 1.636 0 0 1 1.315-.576 1.466 1.466 0 0 1 1.224.54 2.2 2.2 0 0 1 .342 1.368v4.592h1.3v-4.628a3.331 3.331 0 0 0-.432-2 2.537 2.537 0 0 0-2.143-1.026 2.638 2.638 0 0 0-2.143 1.044v-.865h-1.3v7.472zm11.988-6.284v-1.191h-1.3v-2.7h-1.3v2.7h-.793v1.188h.793v6.284h1.3v-6.284h1.3zM755.2 431v13.126h1.3V431h-1.3zm4.626 17.267h1.441l5.491-11.613h-1.44L762.884 442l-2.647-5.347h-1.476l3.439 6.77zm8.352-4.861a.9.9 0 1 0 .9-.9.915.915 0 0 0-.903.894zm4.9-7.563l.846.342 1.819-4.069-1.207-.432zm2.629 0l.846.342 1.819-4.069-1.171-.432z"/><path id="DIDI_GREGORIUS_Pro_Baseball_Player" data-name="DIDI GREGORIUS Pro Baseball Player" class="cls-1" d="M679.726 252.192c0-6.271-4.607-11.359-10.3-11.359h-10.178a.408.408 0 0 0 0 .384h2.784c.128 0 .192.032.192.128v21.663c0 .1-.064.128-.192.128h-2.784a.408.408 0 0 0 0 .384h10.175c5.696 0 10.303-5.088 10.303-11.328zm-4.895 0c0 6.048-.544 8.32-2.016 9.792a4.406 4.406 0 0 1-3.392 1.152h-2.56q-.192 0-.192-.1v-21.7c0-.1.064-.128.192-.128h2.56a4.529 4.529 0 0 1 3.392 1.152c1.472 1.481 2.016 4.553 2.016 9.832zm21.376 11.328a.408.408 0 0 0 0-.384h-2.816c-.128 0-.192-.032-.192-.128v-21.663c0-.1.064-.128.192-.128h2.816a.408.408 0 0 0 0-.384h-10.431a.408.408 0 0 0 0 .384h2.815a.129.129 0 0 1 .16.128v21.663a.129.129 0 0 1-.16.128h-2.815a.408.408 0 0 0 0 .384h10.431zm26.143-11.328c0-6.271-4.608-11.359-10.3-11.359h-10.178a.408.408 0 0 0 0 .384h2.783c.128 0 .192.032.192.128v21.663c0 .1-.064.128-.192.128h-2.783a.408.408 0 0 0 0 .384h10.175c5.695 0 10.303-5.088 10.303-11.328zm-4.9 0c0 6.048-.544 8.32-2.015 9.792a4.406 4.406 0 0 1-3.392 1.152h-2.56q-.192 0-.192-.1v-21.7c0-.1.064-.128.192-.128h2.56a4.529 4.529 0 0 1 3.392 1.152c1.475 1.481 2.019 4.553 2.019 9.832zm21.38 11.328a.408.408 0 0 0 0-.384h-2.815c-.128 0-.192-.032-.192-.128v-21.663c0-.1.064-.128.192-.128h2.815a.408.408 0 0 0 0-.384H728.4a.408.408 0 0 0 0 .384h2.816a.129.129 0 0 1 .16.128v21.663a.129.129 0 0 1-.16.128H728.4a.408.408 0 0 0 0 .384h10.43zm-58.016 29.824a.408.408 0 0 0 0-.384h-10.463a.78.78 0 0 0 0 .384h2.816q.192 0 .192.1v5.792c0 1.792-.992 2.88-3.872 2.88a4.245 4.245 0 0 1-3.387-1.216c-1.5-1.536-1.631-4.384-1.631-10.3 0-5.535.576-8.767 2.015-10.3a4.442 4.442 0 0 1 3.424-1.216c3.264 0 5.92 4.224 5.92 7.392a.408.408 0 0 0 .384 0v-7.68a.4.4 0 0 0-.384 0 1.473 1.473 0 0 1-1.568.768c-1.152 0-2.816-.864-4.352-.864-5.983 0-10.335 5.536-10.335 11.9 0 6.144 3.776 11.871 9.919 11.871 3.584 0 5.088-1.535 6.528-1.535a1.23 1.23 0 0 1 1.376 1.088.451.451 0 0 0 .448.032v-8.616q0-.1.192-.1h2.783zm25.92 8a.342.342 0 0 0-.224-.288 2.284 2.284 0 0 1-1.824.8c-1.184 0-1.952-1.024-1.952-2.656v-2.88c0-3.168-1.952-6.112-6.943-6.208 3.488-.1 6.015-2.4 6.015-5.311 0-3.136-2.911-5.568-7.647-5.568h-9.887a.408.408 0 0 0 0 .384h2.815a.129.129 0 0 1 .16.128v21.663a.129.129 0 0 1-.16.128h-2.815a.408.408 0 0 0 0 .384h10.271a.78.78 0 0 0 0-.384h-2.656c-.128 0-.192-.032-.192-.128V290.3h1.888c2.88 0 4.608 1.056 4.608 3.872v2.08c0 4.576 2.975 6.207 5.6 6.207a3.845 3.845 0 0 0 2.943-1.115zm-9.407-16.415c0 4.063-.64 4.991-3.744 4.991H691.7v-10.175c0-.1.064-.128.192-.128h1.5c2.975 0 3.935 1.312 3.935 5.312zm30.719 16.9V294.4a.347.347 0 0 0-.352 0c0 3.3-2.272 7.136-7.488 7.136h-3.167c-.16 0-.224-.032-.224-.128v-10.944h.736a4.229 4.229 0 0 1 4.191 4.32.291.291 0 0 0 .32 0v-9.023a.291.291 0 0 0-.32 0 4.209 4.209 0 0 1-4.191 4.319h-.736v-10.335c0-.1.064-.128.224-.128h3.072c3.967 0 5.887 3.52 5.887 6.5a.408.408 0 0 0 .384 0v-6.784c0-.032 0-.1-.128-.1h-16.863a.408.408 0 0 0 0 .384h2.816c.128 0 .192.032.192.128v21.663c0 .1-.064.128-.192.128h-2.816a.408.408 0 0 0 0 .384h18.559a.085.085 0 0 0 .096-.096zm26.816-8.48a.408.408 0 0 0 0-.384H744.4a.78.78 0 0 0 0 .384h2.816q.192 0 .192.1v5.792c0 1.792-.992 2.88-3.872 2.88a4.244 4.244 0 0 1-3.391-1.216c-1.5-1.536-1.632-4.384-1.632-10.3 0-5.535.576-8.767 2.016-10.3a4.441 4.441 0 0 1 3.423-1.216c3.264 0 5.92 4.224 5.92 7.392a.408.408 0 0 0 .384 0v-7.68a.4.4 0 0 0-.384 0 1.473 1.473 0 0 1-1.568.768c-1.152 0-2.816-.864-4.352-.864-5.983 0-10.335 5.536-10.335 11.9 0 6.144 3.776 11.871 9.919 11.871 3.584 0 5.088-1.535 6.528-1.535a1.23 1.23 0 0 1 1.376 1.088.451.451 0 0 0 .448.032v-8.621q0-.1.192-.1h2.784zm24.479-2.752c0-6.591-4.639-11.9-10.367-11.9-5.983 0-10.335 5.536-10.335 11.9 0 6.56 4.64 11.871 10.335 11.871 5.726-.005 10.367-5.316 10.367-11.876zm-4.895 0c0 6.336-.576 8.768-2.048 10.3a4.442 4.442 0 0 1-3.424 1.216 4.3 4.3 0 0 1-3.36-1.216c-1.5-1.536-2.08-3.968-2.08-10.3 0-5.535.577-8.767 2.08-10.3a4.3 4.3 0 0 1 3.36-1.216 4.442 4.442 0 0 1 3.424 1.216c1.472 1.528 2.048 4.76 2.048 10.295zm33.375 10.752a.342.342 0 0 0-.224-.288 2.284 2.284 0 0 1-1.824.8c-1.184 0-1.952-1.024-1.952-2.656v-2.88c0-3.168-1.951-6.112-6.943-6.208 3.488-.1 6.015-2.4 6.015-5.311 0-3.136-2.911-5.568-7.647-5.568h-9.887a.408.408 0 0 0 0 .384h2.816a.129.129 0 0 1 .16.128v21.663a.129.129 0 0 1-.16.128h-2.816a.408.408 0 0 0 0 .384h10.271a.78.78 0 0 0 0-.384h-2.656c-.128 0-.192-.032-.192-.128V290.3h1.888c2.88 0 4.608 1.056 4.608 3.872v2.08c0 4.576 2.976 6.207 5.6 6.207a3.845 3.845 0 0 0 2.943-1.115zm-9.407-16.415c0 4.063-.64 4.991-3.744 4.991h-1.888v-10.18c0-.1.064-.128.192-.128h1.5c2.98 0 3.94 1.312 3.94 5.312zm22.528 16.991a.408.408 0 0 0 0-.384h-2.816c-.128 0-.192-.032-.192-.128v-21.668c0-.1.064-.128.192-.128h2.816a.408.408 0 0 0 0-.384H810.51a.408.408 0 0 0 0 .384h2.816a.129.129 0 0 1 .16.128v21.663a.129.129 0 0 1-.16.128h-2.816a.408.408 0 0 0 0 .384h10.432zm26.847-22.3a.408.408 0 0 0 0-.384h-6.464a.408.408 0 0 0 0 .384h2.88c.128 0 .192.032.192.128V295.2c0 3.936-1.952 6.624-6.431 6.624-3.584 0-4.576-2.368-4.576-6.24v-15.839c0-.1.064-.128.224-.128h2.816a.408.408 0 0 0 0-.384h-10.463a.4.4 0 0 0 0 .384h2.815c.128 0 .192.032.192.128v15.839c0 4.768 3.392 6.879 8.16 6.879 5.343 0 7.679-2.847 7.679-7.263v-15.455a.129.129 0 0 1 .16-.128h2.816zm20.384 15.167c0-3.9-2.56-5.344-6.655-6.879-4-1.44-5.7-2.72-5.7-5.024a3.762 3.762 0 0 1 4.1-3.808 5.786 5.786 0 0 1 5.439 5.76.347.347 0 0 0 .352 0v-6.048c0-.1-.352-.1-.352 0a1.118 1.118 0 0 1-1.311.768c-1.6 0-2.4-.864-4.16-.864-3.2 0-6.144 3.04-6.144 7.168 0 3.807 2.368 5.407 5.344 6.495 4.9 1.792 6.783 2.528 6.783 5.632 0 2.08-1.663 4.128-5.343 4.128-4.128 0-7.072-4.96-7.072-7.52a.292.292 0 0 0-.384 0v7.775c0 .1.32.1.384 0a1.7 1.7 0 0 1 1.728-1.215c1.344 0 3.136 1.311 5.376 1.311a7.58 7.58 0 0 0 7.615-7.687zM658.684 329.92h1.531l.738-5.654h1.152c1.531 0 2.773-.036 3.763-.81a3.644 3.644 0 0 0 1.387-3.043 3.209 3.209 0 0 0-1.153-2.593c-.972-.774-2.142-.774-3.655-.774h-2.07zm2.449-7l.612-4.483h1.116a3.665 3.665 0 0 1 1.963.342 1.862 1.862 0 0 1 .864 1.693 2.223 2.223 0 0 1-1.224 2.142 5.462 5.462 0 0 1-2.287.306h-1.044zm12.555.271l.36-1.423a2.008 2.008 0 0 0-.81-.18 2.844 2.844 0 0 0-2.359 1.566l.216-1.278h-1.386l-1.063 8.049h1.369l.5-3.8c.288-2.124.972-3.169 2.232-3.169a2.048 2.048 0 0 1 .941.23zm1.726 3.042a3.814 3.814 0 0 0 4.051 4.034c2.629 0 4.52-1.927 4.52-4.826a3.847 3.847 0 0 0-4.034-3.853 4.5 4.5 0 0 0-4.537 4.64zm4.465-3.511a2.74 2.74 0 0 1 2.719 2.971 3.163 3.163 0 0 1-3.043 3.457 2.7 2.7 0 0 1-2.737-2.953 3.184 3.184 0 0 1 3.061-3.48zm12.761 7.2H695c1.944 0 3.331-.036 4.357-.739a3.678 3.678 0 0 0 1.53-3.151 2.774 2.774 0 0 0-2.232-2.826 2.885 2.885 0 0 0 2.358-3.079 2.94 2.94 0 0 0-.99-2.323c-.828-.7-1.908-.756-3.4-.756h-2.287zm1.692-1.369l.613-4.627h1.332a4.206 4.206 0 0 1 2.143.36 1.912 1.912 0 0 1 .936 1.746 2.3 2.3 0 0 1-1.314 2.2 7.219 7.219 0 0 1-2.809.324h-.9zm.775-5.942l.558-4.177h1.152a3.59 3.59 0 0 1 1.837.306 1.774 1.774 0 0 1 .846 1.6 2.085 2.085 0 0 1-1.188 1.98 5.386 5.386 0 0 1-2.179.288h-1.026zm15.391-.738l-.216 1.621a2.922 2.922 0 0 0-2.935-1.909c-2.359 0-4.141 1.927-4.141 4.609 0 2.449 1.458 4.052 3.475 4.052a3.435 3.435 0 0 0 2.935-1.531l-.2 1.207h1.4l1.062-8.049H710.5zm-3.331 7.094a2.536 2.536 0 0 1-2.539-2.773 3.094 3.094 0 0 1 3.043-3.367c1.333 0 2.3 1.063 2.3 2.737.005 1.997-1.292 3.401-2.804 3.401zm6.64-.216a3.722 3.722 0 0 0 3.169 1.513c1.837 0 2.953-1.009 2.953-2.629 0-1.261-.666-1.747-2-2.323-1.009-.432-1.639-.666-1.639-1.35a1.337 1.337 0 0 1 1.459-1.171 2.368 2.368 0 0 1 1.98.991l.846-1.009a3.6 3.6 0 0 0-2.736-1.188 2.643 2.643 0 0 0-2.917 2.539c0 1.152.648 1.62 1.908 2.232 1.1.541 1.747.685 1.747 1.477a1.391 1.391 0 0 1-1.639 1.278 2.574 2.574 0 0 1-2.232-1.422zM729 324.986h-4.987a2.761 2.761 0 0 1 2.773-2.269 2.06 2.06 0 0 1 2.214 2.269zm1.333 1.152c.018-.216.018-.432.018-.63 0-2.5-1.315-3.925-3.547-3.925a4.377 4.377 0 0 0-4.322 4.663 3.7 3.7 0 0 0 3.925 4.016 4.165 4.165 0 0 0 3.385-1.819l-.972-.792a3.029 3.029 0 0 1-2.467 1.4c-1.512 0-2.466-1.044-2.466-2.773v-.144h6.446zm3.706 3.782l.2-1.567a2.945 2.945 0 0 0 2.935 1.909 3.816 3.816 0 0 0 3.079-1.513 5.048 5.048 0 0 0 1.044-3.025c0-2.538-1.441-4.123-3.493-4.123a3.457 3.457 0 0 0-2.9 1.531l.918-6.843h-1.4l-1.8 13.631h1.423zm3.3-7a2.511 2.511 0 0 1 2.538 2.755 3.092 3.092 0 0 1-3.042 3.367c-1.333 0-2.305-1.062-2.305-2.737-.004-2.005 1.292-3.39 2.805-3.39zm13.7-1.044l-.216 1.621a2.921 2.921 0 0 0-2.935-1.909c-2.358 0-4.141 1.927-4.141 4.609 0 2.449 1.458 4.052 3.475 4.052a3.433 3.433 0 0 0 2.935-1.531l-.2 1.207h1.4l1.063-8.049h-1.387zm-3.331 7.094a2.535 2.535 0 0 1-2.538-2.773 3.093 3.093 0 0 1 3.042-3.367c1.333 0 2.3 1.063 2.3 2.737-.001 1.994-1.297 3.398-2.812 3.398zm8.711.955l1.783-13.631h-1.4l-1.8 13.631h1.422zm5.238 0l1.783-13.631h-1.4l-1.8 13.631h1.422zm9.972 0h1.53l.738-5.654h1.153c1.53 0 2.773-.036 3.763-.81a3.646 3.646 0 0 0 1.386-3.043 3.211 3.211 0 0 0-1.152-2.593c-.972-.774-2.143-.774-3.655-.774h-2.071zm2.448-7l.613-4.483h1.11a3.664 3.664 0 0 1 1.962.342 1.86 1.86 0 0 1 .865 1.693 2.222 2.222 0 0 1-1.225 2.142 5.46 5.46 0 0 1-2.286.306h-1.045zm9.306 7l1.783-13.631h-1.4l-1.8 13.631h1.422zm10.964-8.049l-.216 1.621a2.922 2.922 0 0 0-2.935-1.909c-2.359 0-4.141 1.927-4.141 4.609 0 2.449 1.458 4.052 3.475 4.052a3.432 3.432 0 0 0 2.934-1.531l-.2 1.207h1.4l1.062-8.049h-1.386zm-3.331 7.094a2.535 2.535 0 0 1-2.539-2.773 3.093 3.093 0 0 1 3.043-3.367c1.332 0 2.3 1.063 2.3 2.737-.001 1.994-1.298 3.398-2.81 3.398zm6.568 4.88h1.567l6.932-11.974h-1.6l-3.133 5.744-1.656-5.744h-1.504l2.2 7.166zm16.256-8.859h-4.987a2.761 2.761 0 0 1 2.772-2.269 2.06 2.06 0 0 1 2.209 2.264zm1.333 1.152c.018-.216.018-.432.018-.63 0-2.5-1.315-3.925-3.548-3.925a4.377 4.377 0 0 0-4.321 4.663 3.7 3.7 0 0 0 3.925 4.016 4.165 4.165 0 0 0 3.385-1.819l-.972-.792a3.029 3.029 0 0 1-2.467 1.4c-1.512 0-2.466-1.044-2.466-2.773v-.144h6.446zm7.451-2.952l.36-1.423a2.008 2.008 0 0 0-.81-.18 2.844 2.844 0 0 0-2.359 1.566l.216-1.278h-1.387l-1.062 8.049h1.369l.5-3.8c.288-2.124.972-3.169 2.232-3.169a2.045 2.045 0 0 1 .935.23z"/><path class="cls-2" d="M116 774h151.01v3H116v-3z"/><path id="SHOP_the_look" data-name="SHOP the look" class="cls-2" d="M122.725 754.182a4.84 4.84 0 0 0-3.05-1.056 3.235 3.235 0 0 0-2.54.976 3.352 3.352 0 0 0-.894 2.4 2.69 2.69 0 0 0 .616 1.855 3.429 3.429 0 0 0 1.433.848l.846.3a4.947 4.947 0 0 1 1.2.592.956.956 0 0 1 .354.768 1.123 1.123 0 0 1-.37.864 1.6 1.6 0 0 1-1.078.368 2.319 2.319 0 0 1-1.293-.384 6.367 6.367 0 0 1-.949-.813l-1.232 1.76a6.567 6.567 0 0 0 1.509 1.167 4.217 4.217 0 0 0 2.033.448 3.457 3.457 0 0 0 3.819-3.727 2.718 2.718 0 0 0-.755-1.984 4.07 4.07 0 0 0-1.4-.816l-.77-.3a4.05 4.05 0 0 1-1.293-.608.757.757 0 0 1-.232-.591.974.974 0 0 1 .262-.672 1.256 1.256 0 0 1 1-.368 2.45 2.45 0 0 1 1.725.768zm7.254-.816h-2.371v10.67h2.371v-4.527h4.1v4.527h2.371v-10.67h-2.371v4.063h-4.1v-4.063zm16.619-.24a5.4 5.4 0 0 0-4.02 1.568 6.078 6.078 0 0 0-1.586 4.047 5.418 5.418 0 0 0 5.606 5.535 5.379 5.379 0 0 0 3.973-1.567 5.836 5.836 0 0 0 0-8.031 5.375 5.375 0 0 0-3.971-1.552zm-.016 2.272a3.23 3.23 0 0 1 2.264.912 3.429 3.429 0 0 1 .893 2.4 3.261 3.261 0 0 1-.893 2.384 3.05 3.05 0 0 1-2.279.912 2.957 2.957 0 0 1-2.2-.88 3.246 3.246 0 0 1-.94-2.4 3.328 3.328 0 0 1 .909-2.415 3.088 3.088 0 0 1 2.246-.911zm10.135-2.032v10.67h2.372v-3.743h1.448a3.421 3.421 0 0 0 2.618-.944 3.509 3.509 0 0 0 .877-2.512 3.351 3.351 0 0 0-1-2.591 3.759 3.759 0 0 0-2.695-.88h-3.619zm2.372 2.016h.8a1.8 1.8 0 0 1 1.324.4 1.437 1.437 0 0 1 .385 1.039 1.516 1.516 0 0 1-.385 1.056 1.768 1.768 0 0 1-1.278.4h-.847v-2.9zm21.408.064v-2.08h-6.838v2.08h2.233v8.59h2.372v-8.59h2.236zm6.392-2.08h-2.371v10.67h2.371v-4.527h4.1v4.527h2.372v-10.67h-2.372v4.063h-4.1v-4.063zm17.3 0h-5.806v10.67h5.806v-2.079h-3.434v-2.368h3.264v-2.08h-3.264v-2.063h3.434v-2.08zm11.059 0v10.67h5.552v-2.079h-3.187v-8.591h-2.372zm14.477-.24a5.4 5.4 0 0 0-4.019 1.568 6.078 6.078 0 0 0-1.586 4.047 5.416 5.416 0 0 0 5.6 5.535 5.375 5.375 0 0 0 3.973-1.567 5.833 5.833 0 0 0 0-8.031 5.372 5.372 0 0 0-3.972-1.552zm-.015 2.272a3.232 3.232 0 0 1 2.264.912 3.429 3.429 0 0 1 .893 2.4 3.261 3.261 0 0 1-.893 2.384 3.05 3.05 0 0 1-2.279.912 2.961 2.961 0 0 1-2.2-.88 3.249 3.249 0 0 1-.939-2.4 3.328 3.328 0 0 1 .909-2.415 3.088 3.088 0 0 1 2.241-.911zm15.263-2.272a5.4 5.4 0 0 0-4.019 1.568 6.078 6.078 0 0 0-1.586 4.047 5.416 5.416 0 0 0 5.6 5.535 5.375 5.375 0 0 0 3.973-1.567 5.833 5.833 0 0 0 0-8.031 5.372 5.372 0 0 0-3.972-1.552zm-.015 2.272a3.23 3.23 0 0 1 2.264.912 3.429 3.429 0 0 1 .893 2.4 3.261 3.261 0 0 1-.893 2.384 3.05 3.05 0 0 1-2.279.912 2.961 2.961 0 0 1-2.2-.88 3.249 3.249 0 0 1-.939-2.4 3.328 3.328 0 0 1 .909-2.415 3.088 3.088 0 0 1 2.241-.911zm12.507-2.032h-2.372v10.67h2.372V759.3l3.68 4.735h3.049l-4.481-5.615 4.158-5.055h-2.9l-3.511 4.447v-4.447z"/><path class="cls-2" d="M901 666h151.01v3H901v-3z"/><path id="SHOP_the_look-2" data-name="SHOP the look" class="cls-2" d="M907.725 646.182a4.84 4.84 0 0 0-3.05-1.056 3.239 3.239 0 0 0-2.541.976 3.356 3.356 0 0 0-.893 2.4 2.69 2.69 0 0 0 .616 1.855 3.432 3.432 0 0 0 1.432.848l.847.3a4.947 4.947 0 0 1 1.2.592.956.956 0 0 1 .354.768 1.123 1.123 0 0 1-.37.864 1.6 1.6 0 0 1-1.078.368 2.319 2.319 0 0 1-1.293-.384 6.367 6.367 0 0 1-.949-.813l-1.232 1.76a6.567 6.567 0 0 0 1.509 1.167 4.217 4.217 0 0 0 2.033.448 3.457 3.457 0 0 0 3.819-3.727 2.718 2.718 0 0 0-.755-1.984 4.07 4.07 0 0 0-1.4-.816l-.77-.3a4.07 4.07 0 0 1-1.294-.608.76.76 0 0 1-.231-.591.974.974 0 0 1 .262-.672 1.256 1.256 0 0 1 1-.368 2.45 2.45 0 0 1 1.725.768zm7.254-.816h-2.371v10.67h2.371v-4.527h4.1v4.527h2.371v-10.67h-2.371v4.063h-4.1v-4.063zm16.619-.24a5.4 5.4 0 0 0-4.02 1.568 6.078 6.078 0 0 0-1.586 4.047 5.418 5.418 0 0 0 5.606 5.535 5.379 5.379 0 0 0 3.973-1.567 5.836 5.836 0 0 0 0-8.031 5.375 5.375 0 0 0-3.971-1.552zm-.016 2.272a3.228 3.228 0 0 1 2.264.912 3.431 3.431 0 0 1 .893 2.4 3.261 3.261 0 0 1-.893 2.384 3.05 3.05 0 0 1-2.279.912 2.957 2.957 0 0 1-2.2-.88 3.246 3.246 0 0 1-.94-2.4 3.33 3.33 0 0 1 .909-2.415 3.088 3.088 0 0 1 2.246-.911zm10.135-2.032v10.67h2.372v-3.743h1.447a3.418 3.418 0 0 0 2.618-.944 3.5 3.5 0 0 0 .878-2.512 3.351 3.351 0 0 0-1-2.591 3.758 3.758 0 0 0-2.695-.88h-3.619zm2.372 2.016h.8a1.8 1.8 0 0 1 1.324.4 1.437 1.437 0 0 1 .385 1.039 1.516 1.516 0 0 1-.385 1.056 1.768 1.768 0 0 1-1.278.4h-.847v-2.9zm21.408.064v-2.08h-6.838v2.08h2.233v8.59h2.372v-8.59h2.236zm6.392-2.08h-2.371v10.67h2.371v-4.527h4.1v4.527h2.372v-10.67h-2.372v4.063h-4.1v-4.063zm17.3 0h-5.806v10.67h5.806v-2.079h-3.434v-2.368h3.264v-2.08h-3.264v-2.063h3.434v-2.08zm11.055 0v10.67h5.56v-2.079h-3.18v-8.591h-2.38zm14.48-.24a5.4 5.4 0 0 0-4.02 1.568 6.093 6.093 0 0 0-1.58 4.047 5.414 5.414 0 0 0 5.6 5.535 5.353 5.353 0 0 0 3.97-1.567 5.812 5.812 0 0 0 0-8.031 5.367 5.367 0 0 0-3.974-1.552zm-.01 2.272a3.222 3.222 0 0 1 2.26.912 3.439 3.439 0 0 1 .89 2.4 3.261 3.261 0 0 1-.89 2.384 3.042 3.042 0 0 1-2.28.912 2.952 2.952 0 0 1-2.2-.88 3.254 3.254 0 0 1-.94-2.4 3.318 3.318 0 0 1 .91-2.415 3.075 3.075 0 0 1 2.246-.911zm15.26-2.272a5.4 5.4 0 0 0-4.02 1.568 6.1 6.1 0 0 0-1.59 4.047 5.43 5.43 0 0 0 5.61 5.535 5.37 5.37 0 0 0 3.97-1.567 5.839 5.839 0 0 0 0-8.031 5.367 5.367 0 0 0-3.974-1.552zm-.02 2.272a3.247 3.247 0 0 1 2.27.912 3.439 3.439 0 0 1 .89 2.4 3.261 3.261 0 0 1-.89 2.384 3.059 3.059 0 0 1-2.28.912 2.952 2.952 0 0 1-2.2-.88 3.216 3.216 0 0 1-.94-2.4 3.318 3.318 0 0 1 .91-2.415 3.068 3.068 0 0 1 2.236-.911zm12.51-2.032h-2.37v10.67h2.37V651.3l3.68 4.735h3.05l-4.48-5.615 4.16-5.055h-2.9l-3.51 4.447v-4.447z"/><path id="Didi_is_wearing_the_Aiden_slim_fit._" data-name="Didi is wearing the Aiden slim fit." class="cls-2" d="M115.548 739.122h2.431a6.009 6.009 0 0 0 4.393-1.387 5.713 5.713 0 0 0 2.107-4.609 5.854 5.854 0 0 0-2.052-4.609 6.53 6.53 0 0 0-4.43-1.405h-2.449v12.01zm1.333-10.749h1.17c3.043 0 5.06 1.872 5.06 4.753a4.6 4.6 0 0 1-1.621 3.655 5.132 5.132 0 0 1-3.439 1.08h-1.17v-9.488zm10.619 3.277v7.472h1.3v-7.472h-1.3zm-.27-2.827a.919.919 0 1 0 .918-.919.922.922 0 0 0-.918.919zm10.64 3.889a3.093 3.093 0 0 0-2.557-1.242 3.946 3.946 0 0 0 0 7.868 3.151 3.151 0 0 0 2.557-1.261v1.045h1.3V726h-1.3v6.716zm-2.413-.09a2.8 2.8 0 0 1 0 5.564c-1.548 0-2.449-1.207-2.449-2.809a2.484 2.484 0 0 1 2.449-2.755zm6.875-.972v7.472h1.3v-7.472h-1.3zm-.27-2.827a.918.918 0 1 0 .918-.919.922.922 0 0 0-.918.919zm10.007 2.827v7.472h1.3v-7.472h-1.3zm-.27-2.827a.919.919 0 1 0 .919-.919.923.923 0 0 0-.918.919zm9.056 4a2.157 2.157 0 0 0-2.053-1.35 2.009 2.009 0 0 0-2.179 2.088 1.622 1.622 0 0 0 .342 1.1 4.873 4.873 0 0 0 1.819 1.1c.7.306 1.206.54 1.206 1.242a1.16 1.16 0 0 1-1.224 1.189 1.691 1.691 0 0 1-1.512-1.225l-1.117.468a2.672 2.672 0 0 0 2.611 1.909 2.377 2.377 0 0 0 2.575-2.449 1.768 1.768 0 0 0-.4-1.206 4.557 4.557 0 0 0-1.873-1.153c-.846-.36-1.206-.522-1.206-1.062a.825.825 0 0 1 .9-.846 1.145 1.145 0 0 1 1.044.756zm7.108-1.17l3.673 7.994 2.3-5.582 2.305 5.582 3.709-7.994h-1.44l-2.233 5.077-2.323-5.654-2.34 5.654-2.214-5.08h-1.44zm19.8 4.969a2.976 2.976 0 0 1-.774 1.026 2.272 2.272 0 0 1-1.53.541 2.394 2.394 0 0 1-2.377-2.539h5.818a5.017 5.017 0 0 0-.7-2.809 3.346 3.346 0 0 0-2.827-1.368c-2.251 0-3.619 1.728-3.619 3.961a3.576 3.576 0 0 0 3.691 3.907 3.626 3.626 0 0 0 2.484-.918 4.473 4.473 0 0 0 .919-1.207zm-4.591-2.053a2.27 2.27 0 0 1 2.2-1.944 2.236 2.236 0 0 1 2.2 1.944h-4.393zm14.329-1.854a3.091 3.091 0 0 0-2.557-1.242 3.946 3.946 0 0 0 0 7.868 3.149 3.149 0 0 0 2.557-1.261v1.045h1.3v-7.475h-1.3v1.062zm-2.412-.09a2.8 2.8 0 0 1 0 5.564c-1.549 0-2.449-1.207-2.449-2.809a2.483 2.483 0 0 1 2.45-2.758zm7.054 6.5h1.3v-3.943a3.225 3.225 0 0 1 .432-2.017 1.255 1.255 0 0 1 1.044-.468 1.333 1.333 0 0 1 .756.252l.613-1.17a2.746 2.746 0 0 0-1.153-.306 2.076 2.076 0 0 0-1.692.99v-.81h-1.3v7.472zm6.228-7.472v7.472h1.3v-7.475h-1.3zm-.27-2.827a.919.919 0 1 0 .918-.919.922.922 0 0 0-.919.916zm4.914 10.3h1.3v-3.907a3.143 3.143 0 0 1 .541-2.017 1.633 1.633 0 0 1 1.314-.576 1.466 1.466 0 0 1 1.224.54 2.2 2.2 0 0 1 .342 1.368v4.592h1.3v-4.628a3.331 3.331 0 0 0-.432-2 2.536 2.536 0 0 0-2.143-1.026 2.638 2.638 0 0 0-2.143 1.044v-.866h-1.3v7.472zm15.085-6.41a3.107 3.107 0 0 0-2.556-1.242 3.684 3.684 0 0 0-2.557 1.008 3.919 3.919 0 0 0-1.08 2.9 4.05 4.05 0 0 0 1.08 2.953 3.579 3.579 0 0 0 2.557 1.008 3.149 3.149 0 0 0 2.556-1.261v1.081a3.473 3.473 0 0 1-.414 1.908 2.093 2.093 0 0 1-1.98 1.045 2.313 2.313 0 0 1-1.8-.721 2.352 2.352 0 0 1-.576-1.548h-1.278a3.368 3.368 0 0 0 .972 2.413 3.7 3.7 0 0 0 2.665 1.008 3.638 3.638 0 0 0 2.989-1.386 4.7 4.7 0 0 0 .72-2.935v-7.297h-1.3v1.062zm-2.412-.09a2.4 2.4 0 0 1 1.692.666 2.954 2.954 0 0 1 .792 2.107 3.028 3.028 0 0 1-.846 2.16 2.212 2.212 0 0 1-1.638.631 2.261 2.261 0 0 1-1.6-.613 2.88 2.88 0 0 1-.846-2.2 2.845 2.845 0 0 1 .756-2.053 2.318 2.318 0 0 1 1.691-.702zm14.777.216v-1.192h-1.3v-2.7h-1.3v2.7h-.792v1.188h.792v6.284h1.3v-6.284h1.3zm2.123 6.284h1.3v-3.907a3.143 3.143 0 0 1 .541-2.017 1.633 1.633 0 0 1 1.314-.576 1.466 1.466 0 0 1 1.224.54 2.2 2.2 0 0 1 .342 1.368v4.592h1.3v-4.628a3.331 3.331 0 0 0-.432-2 2.536 2.536 0 0 0-2.143-1.026 2.638 2.638 0 0 0-2.143 1.044V726h-1.3v13.126zm14.726-2.5a2.992 2.992 0 0 1-.775 1.026 2.272 2.272 0 0 1-1.53.541 2.394 2.394 0 0 1-2.377-2.539h5.816a5.017 5.017 0 0 0-.7-2.809 3.344 3.344 0 0 0-2.827-1.368c-2.251 0-3.619 1.728-3.619 3.961a3.576 3.576 0 0 0 3.691 3.907 3.63 3.63 0 0 0 2.485-.918 4.489 4.489 0 0 0 .918-1.207zm-4.592-2.053a2.27 2.27 0 0 1 2.2-1.944 2.236 2.236 0 0 1 2.2 1.944h-4.393zm22.052 4.556h1.476l-5.383-12.586-5.528 12.586h1.477l1.44-3.385h5.113zm-6-4.646l2.053-4.807 2.016 4.807h-4.069zm9.737-2.826v7.472h1.3v-7.479h-1.3zm-.27-2.827a.919.919 0 1 0 .919-.919.922.922 0 0 0-.914.912zm10.64 3.889a3.091 3.091 0 0 0-2.557-1.242 3.946 3.946 0 0 0 0 7.868 3.149 3.149 0 0 0 2.557-1.261v1.045h1.3V726h-1.3v6.716zm-2.413-.09a2.8 2.8 0 0 1 0 5.564c-1.548 0-2.449-1.207-2.449-2.809a2.484 2.484 0 0 1 2.454-2.762zm12.6 4a2.979 2.979 0 0 1-.775 1.026 2.272 2.272 0 0 1-1.53.541 2.394 2.394 0 0 1-2.377-2.539h5.816a5.017 5.017 0 0 0-.7-2.809 3.344 3.344 0 0 0-2.827-1.368c-2.251 0-3.619 1.728-3.619 3.961a3.576 3.576 0 0 0 3.691 3.907 3.63 3.63 0 0 0 2.485-.918 4.489 4.489 0 0 0 .918-1.207zm-4.592-2.053a2.271 2.271 0 0 1 2.2-1.944 2.236 2.236 0 0 1 2.2 1.944h-4.393zm8.6 4.556h1.3v-3.907a3.148 3.148 0 0 1 .54-2.017 1.634 1.634 0 0 1 1.315-.576 1.466 1.466 0 0 1 1.224.54 2.2 2.2 0 0 1 .342 1.368v4.592h1.3v-4.628a3.331 3.331 0 0 0-.432-2 2.534 2.534 0 0 0-2.142-1.026 2.636 2.636 0 0 0-2.143 1.044v-.872h-1.3v7.472zm18.594-6.3a2.155 2.155 0 0 0-2.052-1.35 2.008 2.008 0 0 0-2.179 2.088 1.622 1.622 0 0 0 .342 1.1 4.865 4.865 0 0 0 1.819 1.1c.7.306 1.206.54 1.206 1.242a1.16 1.16 0 0 1-1.224 1.189 1.691 1.691 0 0 1-1.513-1.225l-1.116.468a2.672 2.672 0 0 0 2.611 1.909 2.377 2.377 0 0 0 2.575-2.449 1.764 1.764 0 0 0-.4-1.206 4.551 4.551 0 0 0-1.872-1.153c-.846-.36-1.206-.522-1.206-1.062a.825.825 0 0 1 .9-.846 1.145 1.145 0 0 1 1.044.756zm3.105-6.832v13.126h1.3V726h-1.3zm4.644 5.654v7.472h1.3v-7.476h-1.3zm-.27-2.827a.918.918 0 1 0 .918-.919.922.922 0 0 0-.918.915zm4.914 10.3h1.3v-4.069c0-.9.162-2.431 1.639-2.431 1.368 0 1.35 1.548 1.35 2.07v4.43h1.3v-4.159c0-.9.162-2.341 1.657-2.341 1.224 0 1.332 1.116 1.332 1.962v4.538h1.3v-4.736c0-1.062-.216-2.916-2.431-2.916a2.5 2.5 0 0 0-2.251 1.206 2.237 2.237 0 0 0-2.034-1.206 2.17 2.17 0 0 0-1.855.972v-.797h-1.3v7.472zm21.492-6.284v-1.193h-1.836v-2.809a2.068 2.068 0 0 1 .252-1.171 1.871 1.871 0 0 1 2.7 0 2.267 2.267 0 0 1 .252 1.171v.306h1.3v-.306a3.556 3.556 0 0 0-.432-1.963 2.827 2.827 0 0 0-2.467-1.1 2.781 2.781 0 0 0-2.466 1.1 3.21 3.21 0 0 0-.433 1.963v2.809h-.725v1.188h.72v6.284h1.3v-6.284h1.836zm1.369-1.188v7.472h1.3v-7.477h-1.3zm7.271 1.188v-1.193h-1.3v-2.7h-1.3v2.7h-.785v1.188h.79v6.284h1.3v-6.284h1.3zm2.051 5.564a.9.9 0 1 0 .9-.9.915.915 0 0 0-.9.893z"/></svg>