<svg xmlns="http://www.w3.org/2000/svg" width="1400" height="165"><path data-name="Rectangle 87 copy 4" d="M291.205 6H1134l-113.12 553H178z" fill-rule="evenodd"/><path data-name="AVAILABLE IN FOUR DISTINCT FITS" d="M418.015 50.164h4.657l.888-3.072h6.649l.864 3.072h4.656L429.8 33h-5.856zm6.553-6.409l1.728-5.664c.072-.264.288-1.032.6-2.3q.468 1.908.576 2.3l1.752 5.664h-4.656zm22.066 6.409h3.553l7.2-17.164h-4.968l-3.408 9.6c-.072.192-.288.96-.6 2.3q-.468-2.016-.576-2.3L444.4 33h-4.968zm14.482 0h4.657l.888-3.072h6.648l.865 3.072h4.656L472.9 33h-5.856zm6.553-6.409l1.728-5.664c.072-.264.288-1.032.6-2.3q.468 1.908.576 2.3l1.752 5.664h-4.656zm17.711 6.409h4.729V33h-4.729v17.164zm13.3 0h10.489v-4.008h-5.809V33h-4.68v17.164zm15.552 0h4.656l.888-3.072h6.649l.864 3.072h4.656L526.013 33h-5.857zm6.552-6.409l1.729-5.664c.072-.264.288-1.032.6-2.3q.468 1.908.576 2.3l1.752 5.664h-4.661zm21.936 2.9v-3.74h1.7c2.016 0 2.976.312 2.976 1.944 0 1.416-1.056 1.8-3.048 1.8h-1.632zm-4.344 3.5h4.848c2.808 0 4.849-.048 6.385-.864a4.325 4.325 0 0 0 2.232-4.032 3.975 3.975 0 0 0-3.888-4.344c2.184-.6 3.12-1.656 3.12-3.624a3.821 3.821 0 0 0-2.424-3.7 12.955 12.955 0 0 0-5.065-.6h-5.208v17.173zm4.344-10.3v-3.444h1.008c1.9 0 2.952.216 2.952 1.752 0 1.416-1.056 1.7-3.024 1.7h-.936zm16.728 10.3h10.488v-3.999h-5.808V33h-4.68v17.164zm17.567 0h10.513v-3.84h-5.952v-2.9h5.616v-3.668h-5.616v-2.976h5.952V33h-10.517v17.164zm30.84 0h4.728V33h-4.728v17.164zm13.3 0h4.512v-8.464a28.437 28.437 0 0 0-.264-3.384 24.272 24.272 0 0 0 1.56 3l6.481 8.857h4.488V33h-4.488v8.473a28.439 28.439 0 0 0 .264 3.384 25.672 25.672 0 0 0-1.56-3.024L625.659 33h-4.512v17.164zm37.559 0h4.561v-6.736h5.616v-3.672h-5.616v-2.976h5.952V33h-10.521v17.164zm26.3-3.5c-2.737 0-4.489-2.208-4.489-5.04 0-2.808 1.848-5.041 4.489-5.041 2.616 0 4.488 2.256 4.488 5.041-.002 2.812-1.827 5.045-4.491 5.045zm9.168-5.04a8.724 8.724 0 0 0-2.664-6.361 9.3 9.3 0 0 0-12.985 0 8.875 8.875 0 0 0 .648 13.3 9.451 9.451 0 0 0 5.833 2.064 9.352 9.352 0 0 0 6.5-2.64 8.739 8.739 0 0 0 2.665-6.359zM701.81 33v9.265c0 2.688.12 4.7 1.488 6.265 1.224 1.416 3.24 2.088 6.144 2.088 5.449 0 7.633-2.232 7.633-7.417V33h-4.656v8.233c0 3.672-.12 5.448-2.977 5.448-2.424 0-2.976-1.32-2.976-4.368V33h-4.656zm28.008 8.113V36.6h.936c1.944 0 2.832.576 2.832 2.376 0 1.512-.936 2.136-2.9 2.136h-.864zm-4.392 9.049h4.392v-6.719l3.936 6.721h5.281l-4.681-6.913a4.547 4.547 0 0 0 3.841-4.9 5.093 5.093 0 0 0-1.92-4.2C734.81 33.026 732.986 33 730.61 33h-5.184v17.164zm37.128-3.84v-9.479h.792c3.528 0 5.28 1.344 5.28 4.752 0 3.36-1.7 4.728-5.28 4.728h-.792zm-4.633 3.84h4.779c2.856 0 5.232-.1 7.368-1.608a8.094 8.094 0 0 0 3.313-6.961 8.035 8.035 0 0 0-3.313-6.961C767.81 33.05 765.242 33 762.049 33h-4.128v17.164zm23.3 0h4.728V33h-4.728v17.164zm14.064-5.544l-2.112 3.48a8.229 8.229 0 0 0 6.1 2.52c4.033 0 6.577-2.472 6.577-6.049 0-3.168-1.68-4.3-4.729-5.112-1.56-.408-2.736-.672-2.736-1.9a1.638 1.638 0 0 1 1.9-1.44 5.207 5.207 0 0 1 3.289 1.368l1.464-3.36a8.671 8.671 0 0 0-5.089-1.536c-3.6 0-5.928 2.376-5.928 5.569 0 2.688 1.512 3.936 4.608 4.752 1.944.5 2.88.912 2.88 2.28a1.9 1.9 0 0 1-2.136 1.776c-1.373.006-2.716-.786-4.084-2.347zm20.448 5.544h4.68V37.059h3.841V33H811.92v4.056h3.817v13.108zm15.719 0h4.729V33h-4.729v17.164zm13.3 0h4.513v-8.471a28.437 28.437 0 0 0-.265-3.384 24.272 24.272 0 0 0 1.56 3l6.48 8.857h4.489V33h-4.489v8.473a28.439 28.439 0 0 0 .264 3.384 25.672 25.672 0 0 0-1.56-3.024L849.265 33h-4.513v17.164zm37.681-16.489a9.918 9.918 0 0 0-4.44-1.08c-5.065 0-8.713 3.816-8.713 9s3.648 9 8.713 9a9.919 9.919 0 0 0 4.44-1.08V44.4a5.134 5.134 0 0 1-3.96 2.064 4.5 4.5 0 0 1-4.513-4.776c0-2.9 1.8-4.968 4.513-4.968a5.134 5.134 0 0 1 3.96 2.064v-5.11zm9.911 16.489h4.68V37.059h3.841V33h-12.337v4.056h3.816v13.108zm27.911 0h4.561v-6.743h5.616v-3.672h-5.616v-2.976h5.952V33h-10.513v17.164zm17.976 0h4.729V33h-4.729v17.164zm15.768 0h4.681V37.059h3.84V33h-12.337v4.056H954v13.108zm16.368-5.544l-2.112 3.48a8.229 8.229 0 0 0 6.1 2.52c4.033 0 6.577-2.472 6.577-6.049 0-3.168-1.68-4.3-4.729-5.112-1.56-.408-2.736-.672-2.736-1.9a1.638 1.638 0 0 1 1.9-1.44 5.2 5.2 0 0 1 3.289 1.368l1.464-3.36a8.669 8.669 0 0 0-5.089-1.536c-3.6 0-5.928 2.376-5.928 5.569 0 2.688 1.512 3.936 4.608 4.752 1.944.5 2.881.912 2.881 2.28a1.9 1.9 0 0 1-2.137 1.776c-1.376.006-2.72-.786-4.088-2.347z" fill="#fff" fill-rule="evenodd"/></svg>