<svg xmlns="http://www.w3.org/2000/svg" width="1400" height="800" viewBox="0 0 1400 800">
  <defs>
    <style>
      .cls-1 {
        fill: #fff;
      }

      .cls-1, .cls-2 {
        fill-rule: evenodd;
      }
    </style>
  </defs>
  <path id="_Tees_polos_or_button-downs_these_chinos_work_with_everything" data-name="“Tees, polos or button-downs, these chinos work with everything" class="cls-1" d="M529.709,329.112l-0.846-.342-1.819,4.069,1.171,0.432Zm2.629,0-0.846-.342-1.819,4.069,1.206,0.432Zm10.116,1.261v-1.261h-7.166v1.261h2.917v10.749h1.332V330.373h2.917Zm6.408,8.246a2.979,2.979,0,0,1-.775,1.026,2.271,2.271,0,0,1-1.53.54,2.393,2.393,0,0,1-2.377-2.538H550a5.017,5.017,0,0,0-.7-2.809,3.344,3.344,0,0,0-2.827-1.368c-2.251,0-3.619,1.728-3.619,3.961a3.576,3.576,0,0,0,3.691,3.907,3.63,3.63,0,0,0,2.485-.918,4.489,4.489,0,0,0,.918-1.207Zm-4.592-2.053a2.271,2.271,0,0,1,2.2-1.944,2.237,2.237,0,0,1,2.2,1.944H544.27Zm14.149,2.053a2.976,2.976,0,0,1-.774,1.026,2.271,2.271,0,0,1-1.53.54,2.393,2.393,0,0,1-2.377-2.538h5.816a5.009,5.009,0,0,0-.7-2.809,3.342,3.342,0,0,0-2.826-1.368c-2.251,0-3.619,1.728-3.619,3.961a3.576,3.576,0,0,0,3.691,3.907,3.626,3.626,0,0,0,2.484-.918,4.473,4.473,0,0,0,.919-1.207Zm-4.591-2.053a2.27,2.27,0,0,1,2.2-1.944,2.236,2.236,0,0,1,2.2,1.944h-4.393Zm12.745-1.746a2.156,2.156,0,0,0-2.053-1.35,2.009,2.009,0,0,0-2.179,2.088,1.618,1.618,0,0,0,.343,1.1,4.859,4.859,0,0,0,1.818,1.1c0.7,0.306,1.206.54,1.206,1.242a1.159,1.159,0,0,1-1.224,1.188,1.69,1.69,0,0,1-1.512-1.224l-1.117.468a2.673,2.673,0,0,0,2.611,1.909,2.377,2.377,0,0,0,2.575-2.449,1.768,1.768,0,0,0-.4-1.206,4.557,4.557,0,0,0-1.873-1.153c-0.846-.36-1.206-0.522-1.206-1.062a0.825,0.825,0,0,1,.9-0.846,1.145,1.145,0,0,1,1.044.756Zm2.3,8.7,0.846,0.343,1.819-4.07-1.188-.432Zm13.014-3.439a3.172,3.172,0,0,0,2.611,1.261,3.636,3.636,0,0,0,3.583-3.907,3.7,3.7,0,0,0-3.637-3.961,3.214,3.214,0,0,0-2.557,1.224V333.65h-1.3v11.613h1.3v-5.186Zm2.431,0.108a2.556,2.556,0,0,1-2.5-2.772,2.593,2.593,0,0,1,2.485-2.791,2.563,2.563,0,0,1,2.449,2.809A2.517,2.517,0,0,1,584.32,340.185Zm10.134,1.153a3.934,3.934,0,1,0-3.962-3.925A3.833,3.833,0,0,0,594.454,341.338Zm0-6.716a2.786,2.786,0,1,1-2.629,2.791A2.586,2.586,0,0,1,594.454,334.622ZM601.292,328v13.126h1.3V328h-1.3Zm8.137,13.342a3.934,3.934,0,1,0-3.961-3.925A3.832,3.832,0,0,0,609.429,341.338Zm0-6.716a2.786,2.786,0,1,1-2.629,2.791A2.586,2.586,0,0,1,609.429,334.622Zm10.98,0.2a2.155,2.155,0,0,0-2.052-1.35,2.008,2.008,0,0,0-2.179,2.088,1.622,1.622,0,0,0,.342,1.1,4.856,4.856,0,0,0,1.819,1.1c0.7,0.306,1.206.54,1.206,1.242a1.159,1.159,0,0,1-1.224,1.188,1.691,1.691,0,0,1-1.513-1.224l-1.116.468a2.672,2.672,0,0,0,2.611,1.909,2.376,2.376,0,0,0,2.574-2.449,1.768,1.768,0,0,0-.4-1.206,4.551,4.551,0,0,0-1.872-1.153c-0.847-.36-1.207-0.522-1.207-1.062a0.826,0.826,0,0,1,.9-0.846,1.145,1.145,0,0,1,1.044.756Zm11.682,6.518a3.934,3.934,0,1,0-3.962-3.925A3.833,3.833,0,0,0,632.091,341.338Zm0-6.716a2.786,2.786,0,1,1-2.629,2.791A2.586,2.586,0,0,1,632.091,334.622Zm6.838,6.5h1.3v-3.943a3.225,3.225,0,0,1,.432-2.017,1.255,1.255,0,0,1,1.044-.468,1.333,1.333,0,0,1,.756.252l0.613-1.17a2.746,2.746,0,0,0-1.153-.306,2.076,2.076,0,0,0-1.692.99v-0.81h-1.3v7.472ZM528.521,366.077a3.17,3.17,0,0,0,2.611,1.261,3.636,3.636,0,0,0,3.583-3.907,3.7,3.7,0,0,0-3.638-3.961,3.212,3.212,0,0,0-2.556,1.224V354h-1.3v13.126h1.3v-1.045Zm2.43,0.109a2.556,2.556,0,0,1-2.5-2.773,2.593,2.593,0,0,1,2.484-2.791,2.562,2.562,0,0,1,2.449,2.809A2.517,2.517,0,0,1,530.951,366.186Zm7.938-6.536h-1.3v4.5a2.973,2.973,0,0,0,.684,2.251,3.262,3.262,0,0,0,4.574,0,2.973,2.973,0,0,0,.684-2.251v-4.5h-1.3v4.357a2.543,2.543,0,0,1-.36,1.6,1.785,1.785,0,0,1-2.628,0,2.543,2.543,0,0,1-.36-1.6V359.65Zm10.62,1.188V359.65h-1.3v-2.7h-1.3v2.7h-0.792v1.188h0.792v6.284h1.3v-6.284h1.3Zm5.111,0V359.65h-1.3v-2.7h-1.3v2.7h-0.792v1.188h0.792v6.284h1.3v-6.284h1.3Zm5.616,6.5a3.934,3.934,0,1,0-3.961-3.925A3.832,3.832,0,0,0,560.236,367.338Zm0-6.716a2.787,2.787,0,1,1-2.628,2.791A2.586,2.586,0,0,1,560.236,360.622Zm6.839,6.5h1.3v-3.907a3.143,3.143,0,0,1,.541-2.017,1.633,1.633,0,0,1,1.314-.576,1.466,1.466,0,0,1,1.224.54,2.2,2.2,0,0,1,.342,1.368v4.592h1.3v-4.628a3.331,3.331,0,0,0-.432-2,2.536,2.536,0,0,0-2.143-1.026,2.639,2.639,0,0,0-2.143,1.044V359.65h-1.3v7.472Zm9.036-3.169h3.961V362.62h-3.961v1.333Zm12.709-3.241a3.091,3.091,0,0,0-2.556-1.242,3.946,3.946,0,0,0,0,7.868,3.149,3.149,0,0,0,2.556-1.261v1.045h1.3V354h-1.3v6.716Zm-2.412-.09a2.8,2.8,0,0,1,0,5.564c-1.549,0-2.449-1.207-2.449-2.809A2.483,2.483,0,0,1,586.408,360.622Zm10.547,6.716a3.934,3.934,0,1,0-3.961-3.925A3.833,3.833,0,0,0,596.955,367.338Zm0-6.716a2.787,2.787,0,1,1-2.628,2.791A2.586,2.586,0,0,1,596.955,360.622Zm5.759-.972,3.673,7.994,2.305-5.582,2.3,5.582,3.709-7.994h-1.44l-2.233,5.077-2.322-5.654-2.341,5.654-2.215-5.077h-1.44Zm14.256,7.472h1.3v-3.907a3.143,3.143,0,0,1,.541-2.017,1.633,1.633,0,0,1,1.314-.576,1.466,1.466,0,0,1,1.224.54,2.2,2.2,0,0,1,.342,1.368v4.592h1.3v-4.628a3.331,3.331,0,0,0-.432-2,2.536,2.536,0,0,0-2.143-1.026,2.638,2.638,0,0,0-2.143,1.044V359.65h-1.3v7.472Zm13.5-6.3a2.155,2.155,0,0,0-2.053-1.35,2.008,2.008,0,0,0-2.178,2.088,1.622,1.622,0,0,0,.342,1.1,4.859,4.859,0,0,0,1.818,1.1c0.7,0.306,1.207.54,1.207,1.242a1.16,1.16,0,0,1-1.225,1.189,1.691,1.691,0,0,1-1.512-1.225l-1.116.468a2.671,2.671,0,0,0,2.61,1.909,2.377,2.377,0,0,0,2.575-2.449,1.768,1.768,0,0,0-.4-1.206,4.549,4.549,0,0,0-1.873-1.153c-0.846-.36-1.206-0.522-1.206-1.062a0.825,0.825,0,0,1,.9-0.846,1.146,1.146,0,0,1,1.045.756Zm2.3,8.7,0.847,0.342,1.818-4.07-1.188-.432Zm14.347-8.679V359.65h-1.3v-2.7h-1.3v2.7h-0.792v1.188h0.792v6.284h1.3v-6.284h1.3Zm2.123,6.284h1.3v-3.907a3.148,3.148,0,0,1,.54-2.017,1.636,1.636,0,0,1,1.315-.576,1.466,1.466,0,0,1,1.224.54,2.2,2.2,0,0,1,.342,1.368v4.592h1.3v-4.628a3.331,3.331,0,0,0-.432-2,2.537,2.537,0,0,0-2.143-1.026,2.638,2.638,0,0,0-2.143,1.044V354h-1.3v13.126Zm14.725-2.5a2.976,2.976,0,0,1-.774,1.026,2.272,2.272,0,0,1-1.53.541,2.394,2.394,0,0,1-2.377-2.539H665.1a5.017,5.017,0,0,0-.7-2.809,3.346,3.346,0,0,0-2.827-1.368c-2.251,0-3.619,1.728-3.619,3.961a3.576,3.576,0,0,0,3.691,3.907,3.626,3.626,0,0,0,2.484-.918,4.473,4.473,0,0,0,.919-1.207Zm-4.591-2.053a2.27,2.27,0,0,1,2.2-1.944,2.236,2.236,0,0,1,2.2,1.944h-4.393Zm12.745-1.746a2.156,2.156,0,0,0-2.053-1.35,2.008,2.008,0,0,0-2.178,2.088,1.622,1.622,0,0,0,.342,1.1,4.859,4.859,0,0,0,1.818,1.1c0.7,0.306,1.207.54,1.207,1.242a1.161,1.161,0,0,1-1.225,1.189,1.691,1.691,0,0,1-1.512-1.225l-1.117.468a2.673,2.673,0,0,0,2.611,1.909,2.377,2.377,0,0,0,2.575-2.449,1.768,1.768,0,0,0-.4-1.206,4.549,4.549,0,0,0-1.873-1.153c-0.846-.36-1.206-0.522-1.206-1.062a0.825,0.825,0,0,1,.9-0.846,1.145,1.145,0,0,1,1.044.756Zm8.64,3.8a2.976,2.976,0,0,1-.774,1.026,2.272,2.272,0,0,1-1.531.541,2.394,2.394,0,0,1-2.376-2.539H681.9a5.017,5.017,0,0,0-.7-2.809,3.343,3.343,0,0,0-2.827-1.368c-2.25,0-3.619,1.728-3.619,3.961a3.577,3.577,0,0,0,3.691,3.907,3.627,3.627,0,0,0,2.485-.918,4.489,4.489,0,0,0,.918-1.207Zm-4.591-2.053a2.27,2.27,0,0,1,2.2-1.944,2.236,2.236,0,0,1,2.2,1.944h-4.393Zm-143.1,23.624a3.958,3.958,0,0,0-2.323-.72,3.934,3.934,0,1,0,0,7.868,3.99,3.99,0,0,0,2.377-.774v-1.549a3.185,3.185,0,0,1-2.413,1.17,2.785,2.785,0,0,1,.018-5.563,3.014,3.014,0,0,1,2.341,1.116V386.19Zm2.932,6.932h1.3v-3.907a3.148,3.148,0,0,1,.54-2.017,1.633,1.633,0,0,1,1.314-.576,1.466,1.466,0,0,1,1.224.54,2.191,2.191,0,0,1,.343,1.368v4.592h1.3v-4.628a3.331,3.331,0,0,0-.432-2,2.536,2.536,0,0,0-2.143-1.026,2.635,2.635,0,0,0-2.142,1.044V380h-1.3v13.126Zm9.36-7.472v7.472h1.3V385.65h-1.3Zm-0.27-2.827a0.918,0.918,0,1,0,.918-0.919A0.922,0.922,0,0,0,545.1,382.823Zm4.914,10.3h1.3v-3.907a3.148,3.148,0,0,1,.54-2.017,1.635,1.635,0,0,1,1.315-.576,1.466,1.466,0,0,1,1.224.54,2.2,2.2,0,0,1,.342,1.368v4.592h1.3v-4.628a3.324,3.324,0,0,0-.433-2,2.534,2.534,0,0,0-2.142-1.026,2.636,2.636,0,0,0-2.143,1.044V385.65h-1.3v7.472Zm12.853,0.216a3.934,3.934,0,1,0-3.962-3.925A3.833,3.833,0,0,0,562.865,393.338Zm0-6.716a2.786,2.786,0,1,1-2.629,2.791A2.586,2.586,0,0,1,562.865,386.622Zm10.979,0.2a2.155,2.155,0,0,0-2.052-1.35,2.008,2.008,0,0,0-2.179,2.088,1.622,1.622,0,0,0,.342,1.1,4.865,4.865,0,0,0,1.819,1.1c0.7,0.306,1.206.54,1.206,1.242a1.159,1.159,0,0,1-1.224,1.188,1.692,1.692,0,0,1-1.513-1.224l-1.116.468a2.672,2.672,0,0,0,2.611,1.909,2.377,2.377,0,0,0,2.575-2.449,1.768,1.768,0,0,0-.4-1.206,4.564,4.564,0,0,0-1.873-1.153c-0.846-.36-1.206-0.522-1.206-1.062a0.825,0.825,0,0,1,.9-0.846,1.145,1.145,0,0,1,1.044.756Zm7.109-1.17,3.673,7.994,2.3-5.582,2.305,5.582,3.709-7.994H591.5l-2.233,5.077-2.323-5.654-2.34,5.654-2.215-5.077h-1.44Zm17.749,7.688a3.934,3.934,0,1,0-3.961-3.925A3.833,3.833,0,0,0,598.7,393.338Zm0-6.716a2.786,2.786,0,1,1-2.629,2.791A2.587,2.587,0,0,1,598.7,386.622Zm6.838,6.5h1.3v-3.943a3.225,3.225,0,0,1,.432-2.017,1.255,1.255,0,0,1,1.044-.468,1.338,1.338,0,0,1,.757.252l0.612-1.17a2.742,2.742,0,0,0-1.153-.306,2.076,2.076,0,0,0-1.692.99v-0.81h-1.3v7.472ZM611.768,380v13.126h1.3v-3.079l0.324-.324,2.989,3.4h1.692l-3.781-4.267,3.205-3.205H615.8l-2.736,2.772V380h-1.3Zm12.51,5.654,3.673,7.994,2.3-5.582,2.3,5.582,3.709-7.994h-1.44l-2.233,5.077-2.323-5.654-2.34,5.654-2.215-5.077h-1.44Zm14.256,0v7.472h1.3V385.65h-1.3Zm-0.27-2.827a0.918,0.918,0,1,0,.918-0.919A0.922,0.922,0,0,0,638.264,382.823Zm7.543,4.015V385.65h-1.3v-2.7h-1.3v2.7h-0.793v1.188h0.793v6.284h1.3v-6.284h1.3Zm2.122,6.284h1.3v-3.907a3.148,3.148,0,0,1,.54-2.017,1.633,1.633,0,0,1,1.314-.576,1.467,1.467,0,0,1,1.225.54,2.2,2.2,0,0,1,.342,1.368v4.592h1.3v-4.628a3.331,3.331,0,0,0-.432-2,2.534,2.534,0,0,0-2.142-1.026,2.636,2.636,0,0,0-2.143,1.044V380h-1.3v13.126Zm-115.159,23.5a2.976,2.976,0,0,1-.774,1.026,2.274,2.274,0,0,1-1.531.541,2.394,2.394,0,0,1-2.376-2.539H533.9a5.017,5.017,0,0,0-.7-2.809,3.343,3.343,0,0,0-2.827-1.368c-2.25,0-3.619,1.728-3.619,3.961a3.576,3.576,0,0,0,3.691,3.907,3.627,3.627,0,0,0,2.485-.918,4.489,4.489,0,0,0,.918-1.207Zm-4.591-2.053a2.27,2.27,0,0,1,2.2-1.944,2.236,2.236,0,0,1,2.2,1.944h-4.393Zm7.523-2.916,3.673,7.958,3.673-7.958h-1.44l-2.233,5.041-2.233-5.041H535.7Zm15.158,4.969a2.976,2.976,0,0,1-.774,1.026,2.276,2.276,0,0,1-1.531.541,2.394,2.394,0,0,1-2.377-2.539h5.816a5.017,5.017,0,0,0-.7-2.809,3.344,3.344,0,0,0-2.827-1.368c-2.251,0-3.619,1.728-3.619,3.961a3.576,3.576,0,0,0,3.691,3.907,3.629,3.629,0,0,0,2.485-.918,4.489,4.489,0,0,0,.918-1.207Zm-4.592-2.053a2.271,2.271,0,0,1,2.2-1.944,2.236,2.236,0,0,1,2.2,1.944h-4.394Zm8.6,4.556h1.3v-3.943a3.225,3.225,0,0,1,.432-2.017,1.255,1.255,0,0,1,1.045-.468,1.333,1.333,0,0,1,.756.252l0.612-1.17a2.737,2.737,0,0,0-1.152-.306,2.076,2.076,0,0,0-1.693.99v-0.81h-1.3v7.472Zm6.768,4.141h1.44l5.492-11.613h-1.441L564.7,417l-2.646-5.347h-1.477l3.439,6.77Zm11.826-10.425V411.65h-1.3v-2.7h-1.3v2.7h-0.792v1.188h0.792v6.284h1.3v-6.284h1.3Zm2.123,6.284h1.3v-3.907a3.148,3.148,0,0,1,.54-2.017,1.633,1.633,0,0,1,1.314-.576,1.466,1.466,0,0,1,1.224.54,2.191,2.191,0,0,1,.343,1.368v4.592h1.3v-4.628a3.331,3.331,0,0,0-.432-2,2.536,2.536,0,0,0-2.143-1.026,2.635,2.635,0,0,0-2.142,1.044V406h-1.3v13.126Zm9.36-7.472v7.472h1.3V411.65h-1.3Zm-0.27-2.827a0.918,0.918,0,1,0,.918-0.919A0.922,0.922,0,0,0,584.679,408.823Zm4.914,10.3h1.3v-3.907a3.148,3.148,0,0,1,.54-2.017,1.635,1.635,0,0,1,1.315-.576,1.466,1.466,0,0,1,1.224.54,2.2,2.2,0,0,1,.342,1.368v4.592h1.3v-4.628a3.324,3.324,0,0,0-.433-2,2.534,2.534,0,0,0-2.142-1.026,2.636,2.636,0,0,0-2.143,1.044V411.65h-1.3v7.472Zm15.085-6.41a3.107,3.107,0,0,0-2.557-1.242,3.683,3.683,0,0,0-2.556,1.008,3.919,3.919,0,0,0-1.081,2.9,4.05,4.05,0,0,0,1.081,2.953,3.578,3.578,0,0,0,2.556,1.008,3.149,3.149,0,0,0,2.557-1.261v1.081a3.473,3.473,0,0,1-.414,1.908,2.094,2.094,0,0,1-1.981,1.045,2.311,2.311,0,0,1-1.8-.721,2.352,2.352,0,0,1-.576-1.548h-1.279a3.369,3.369,0,0,0,.973,2.413,3.7,3.7,0,0,0,2.665,1.008,3.634,3.634,0,0,0,2.988-1.386,4.7,4.7,0,0,0,.721-2.935V411.65h-1.3v1.062Zm-2.412-.09a2.4,2.4,0,0,1,1.692.666,2.954,2.954,0,0,1,.792,2.107,3.028,3.028,0,0,1-.846,2.16,2.212,2.212,0,0,1-1.638.631,2.261,2.261,0,0,1-1.6-.613,2.88,2.88,0,0,1-.846-2.2,2.845,2.845,0,0,1,.756-2.053A2.316,2.316,0,0,1,602.266,412.622Zm17.694,4a2.967,2.967,0,0,1-.775,1.026,2.272,2.272,0,0,1-1.53.541,2.394,2.394,0,0,1-2.377-2.539h5.816a5.017,5.017,0,0,0-.7-2.809,3.344,3.344,0,0,0-2.827-1.368c-2.251,0-3.619,1.728-3.619,3.961a3.576,3.576,0,0,0,3.691,3.907,3.63,3.63,0,0,0,2.485-.918,4.489,4.489,0,0,0,.918-1.207Zm-4.592-2.053a2.271,2.271,0,0,1,2.2-1.944,2.236,2.236,0,0,1,2.2,1.944h-4.394Zm8.6-8.57v13.126h1.3V406h-1.3Zm8.785,6.824a2.156,2.156,0,0,0-2.053-1.35,2.008,2.008,0,0,0-2.178,2.088,1.622,1.622,0,0,0,.342,1.1,4.859,4.859,0,0,0,1.818,1.1c0.7,0.306,1.207.54,1.207,1.242a1.16,1.16,0,0,1-1.225,1.189,1.691,1.691,0,0,1-1.512-1.225l-1.117.468a2.673,2.673,0,0,0,2.611,1.909,2.377,2.377,0,0,0,2.575-2.449,1.768,1.768,0,0,0-.4-1.206,4.549,4.549,0,0,0-1.873-1.153c-0.846-.36-1.206-0.522-1.206-1.062a0.825,0.825,0,0,1,.9-0.846,1.147,1.147,0,0,1,1.045.756Zm8.64,3.8a2.976,2.976,0,0,1-.774,1.026,2.272,2.272,0,0,1-1.531.541,2.394,2.394,0,0,1-2.376-2.539h5.815a5.017,5.017,0,0,0-.7-2.809A3.343,3.343,0,0,0,639,411.47c-2.25,0-3.619,1.728-3.619,3.961a3.576,3.576,0,0,0,3.691,3.907,3.627,3.627,0,0,0,2.485-.918,4.489,4.489,0,0,0,.918-1.207Zm-4.591-2.053a2.27,2.27,0,0,1,2.2-1.944,2.236,2.236,0,0,1,2.2,1.944h-4.393Zm14.021-7.454v12.01h1.332v-12.01h-1.332Zm-117.877,31.6a3.091,3.091,0,0,0-2.557-1.242,3.946,3.946,0,0,0,0,7.868,3.149,3.149,0,0,0,2.557-1.261v1.045h1.3V437.65h-1.3v1.062Zm-2.413-.09a2.8,2.8,0,0,1,0,5.563c-1.548,0-2.448-1.206-2.448-2.808A2.483,2.483,0,0,1,530.537,438.622ZM537.592,432v13.126h1.3V432h-1.3Zm4.644,13.126h1.3v-3.943a3.225,3.225,0,0,1,.432-2.017,1.258,1.258,0,0,1,1.045-.468,1.333,1.333,0,0,1,.756.252l0.612-1.17a2.737,2.737,0,0,0-1.152-.306,2.078,2.078,0,0,0-1.693.99v-0.81h-1.3v7.472Zm11.342-2.5a2.967,2.967,0,0,1-.775,1.026,2.271,2.271,0,0,1-1.53.54,2.393,2.393,0,0,1-2.377-2.538h5.816a5.017,5.017,0,0,0-.7-2.809,3.344,3.344,0,0,0-2.827-1.368c-2.251,0-3.619,1.728-3.619,3.961a3.576,3.576,0,0,0,3.691,3.907,3.629,3.629,0,0,0,2.485-.918,4.489,4.489,0,0,0,.918-1.207Zm-4.592-2.053a2.271,2.271,0,0,1,2.2-1.944,2.236,2.236,0,0,1,2.2,1.944h-4.394Zm14.33-1.854a3.094,3.094,0,0,0-2.557-1.242,3.946,3.946,0,0,0,0,7.868,3.152,3.152,0,0,0,2.557-1.261v1.045h1.3V437.65h-1.3v1.062Zm-2.413-.09a2.8,2.8,0,0,1,0,5.563c-1.549,0-2.449-1.206-2.449-2.808A2.483,2.483,0,0,1,560.9,438.622Zm12.78,0.09a3.091,3.091,0,0,0-2.557-1.242,3.946,3.946,0,0,0,0,7.868,3.149,3.149,0,0,0,2.557-1.261v1.045h1.3V432h-1.3v6.716Zm-2.412-.09a2.8,2.8,0,0,1,0,5.563c-1.549,0-2.449-1.206-2.449-2.808A2.483,2.483,0,0,1,571.271,438.622Zm7.036,10.641h1.441l5.491-11.613H583.8L581.368,443l-2.647-5.347h-1.476l3.439,6.77Zm17.785-3.925a3.934,3.934,0,1,0-3.961-3.925A3.832,3.832,0,0,0,596.092,445.338Zm0-6.716a2.786,2.786,0,1,1-2.629,2.791A2.587,2.587,0,0,1,596.092,438.622Zm5.758-.972,3.673,7.994,2.3-5.582,2.305,5.582,3.709-7.994H612.4l-2.232,5.077-2.323-5.654-2.341,5.654-2.214-5.077H601.85Zm14.256,7.472h1.3v-3.907a3.148,3.148,0,0,1,.54-2.017,1.633,1.633,0,0,1,1.314-.576,1.467,1.467,0,0,1,1.225.54,2.2,2.2,0,0,1,.342,1.368v4.592h1.3v-4.628a3.331,3.331,0,0,0-.432-2,2.534,2.534,0,0,0-2.142-1.026,2.636,2.636,0,0,0-2.143,1.044V437.65h-1.3v7.472Zm9.288-.72a0.9,0.9,0,1,0,.9-0.9A0.915,0.915,0,0,0,625.394,444.4Zm4.9-7.563,0.846,0.342,1.819-4.069-1.206-.432Zm2.629,0,0.846,0.342,1.819-4.069-1.171-.432Z"/>
  <path id="CJ_McCOLLUM_Pro_Basketball_Player" data-name="CJ McCOLLUM Pro Basketball Player" class="cls-1" d="M545.487,215V206.36a0.347,0.347,0,0,0-.352,0c0,4.192-3.168,8.352-7.04,8.352a4.722,4.722,0,0,1-3.584-1.216c-1.472-1.536-2.047-4.768-2.047-10.3s0.575-8.767,2.047-10.3a4.357,4.357,0,0,1,3.424-1.216c3.136,0,6.624,4.128,6.624,7.3a0.347,0.347,0,0,0,.352,0v-7.584a0.347,0.347,0,0,0-.352,0,1.594,1.594,0,0,1-1.6.768c-1.472,0-3.488-.864-5.024-0.864-6.015,0-10.367,5.536-10.367,11.9,0,6.336,4.48,11.871,10.527,11.871,1.76,0,4.16-1.023,5.6-1.023a1.353,1.353,0,0,1,1.44.959A0.654,0.654,0,0,0,545.487,215Zm20.768-22.782a0.408,0.408,0,0,0,0-.384H555.791a0.414,0.414,0,0,0,0,.384h2.816c0.128,0,.192.032,0.192,0.128v19.743c0,1.76-.608,2.624-2.112,2.624a2.29,2.29,0,0,1-2.271-2.048c0-1.5,1.6-1.056,1.6-3.1a2.582,2.582,0,0,0-2.5-2.592,2.932,2.932,0,0,0-2.688,3.072c0,2.5,2.976,5.023,5.855,5.023,3.936,0,6.56-2.175,6.56-5.887V192.345c0-.1.064-0.128,0.224-0.128h2.784Zm-13.025,60.7a0.78,0.78,0,0,0,0-.384h-2.816c-0.16,0-.224-0.032-0.224-0.128V230.745c0-.1.064-0.128,0.224-0.128h2.816a0.78,0.78,0,0,0,0-.384h-7.3a0.682,0.682,0,0,0-.448.576l-4.9,15.551-5.7-15.551a0.621,0.621,0,0,0-.48-0.576h-7.327a0.408,0.408,0,0,0,0,.384H529.9c0.128,0,.16.032,0.16,0.128v21.663c0,0.1-.032.128-0.16,0.128h-2.816a0.408,0.408,0,0,0,0,.384h6.367a0.408,0.408,0,0,0,0-.384h-2.783c-0.16,0-.192-0.032-0.192-0.128V231.225l8.031,22.111a0.292,0.292,0,0,0,.384,0l6.848-21.887v20.959c0,0.1-.064.128-0.192,0.128h-2.784a0.408,0.408,0,0,0,0,.384H553.23Zm16.7-2.752a0.275,0.275,0,0,0-.224-0.192,6.556,6.556,0,0,1-5.471,2.848,2.609,2.609,0,0,1-2.016-.7c-0.864-.9-1.184-2.3-1.184-6.016s0.32-5.12,1.184-6.016a2.609,2.609,0,0,1,2.016-.7c1.631,0,2.591.416,2.591,1.663,0,1.024-.384.9-0.384,1.76a1.271,1.271,0,0,0,1.408,1.216,1.331,1.331,0,0,0,1.472-1.472c0-1.664-2.08-3.551-5.087-3.551A7.1,7.1,0,1,0,569.935,250.168Zm23.359,3.232v-8.64a0.347,0.347,0,0,0-.352,0c0,4.192-3.167,8.352-7.039,8.352a4.722,4.722,0,0,1-3.584-1.216c-1.472-1.536-2.048-4.768-2.048-10.3s0.576-8.767,2.048-10.3a4.357,4.357,0,0,1,3.424-1.216c3.136,0,6.623,4.128,6.623,7.3a0.347,0.347,0,0,0,.352,0v-7.584a0.347,0.347,0,0,0-.352,0,1.593,1.593,0,0,1-1.6.768c-1.472,0-3.488-.864-5.024-0.864-6.016,0-10.367,5.536-10.367,11.9,0,6.336,4.479,11.872,10.527,11.872,1.76,0,4.16-1.024,5.6-1.024a1.353,1.353,0,0,1,1.44.96A0.654,0.654,0,0,0,593.294,253.4Zm27.136-11.808c0-6.591-4.64-11.9-10.367-11.9-5.984,0-10.336,5.536-10.336,11.9,0,6.56,4.64,11.872,10.336,11.872C615.79,253.464,620.43,248.152,620.43,241.592Zm-4.9,0c0,6.336-.576,8.768-2.047,10.3a4.442,4.442,0,0,1-3.424,1.216,4.3,4.3,0,0,1-3.36-1.216c-1.5-1.536-2.08-3.968-2.08-10.3,0-5.535.576-8.767,2.08-10.3a4.3,4.3,0,0,1,3.36-1.216,4.442,4.442,0,0,1,3.424,1.216C614.958,232.825,615.534,236.057,615.534,241.592Zm28.736,11.232v-7.712a0.347,0.347,0,0,0-.352,0c0,3.264-2.272,7.424-7.071,7.424h-2.784a0.129,0.129,0,0,1-.16-0.128V230.745a0.129,0.129,0,0,1,.16-0.128h2.816a0.408,0.408,0,0,0,0-.384H626.447a0.408,0.408,0,0,0,0,.384h2.816a0.129,0.129,0,0,1,.16.128v21.663a0.129,0.129,0,0,1-.16.128h-2.816a0.408,0.408,0,0,0,0,.384h17.727A0.085,0.085,0,0,0,644.27,252.824Zm22.88,0v-7.712a0.347,0.347,0,0,0-.352,0c0,3.264-2.272,7.424-7.072,7.424h-2.784a0.129,0.129,0,0,1-.16-0.128V230.745a0.129,0.129,0,0,1,.16-0.128h2.816a0.408,0.408,0,0,0,0-.384H649.327a0.408,0.408,0,0,0,0,.384h2.816a0.129,0.129,0,0,1,.16.128v21.663a0.129,0.129,0,0,1-.16.128h-2.816a0.408,0.408,0,0,0,0,.384h17.727A0.085,0.085,0,0,0,667.15,252.824Zm26.239-22.207a0.408,0.408,0,0,0,0-.384h-6.463a0.408,0.408,0,0,0,0,.384h2.879c0.128,0,.192.032,0.192,0.128V246.2c0,3.936-1.951,6.624-6.431,6.624-3.584,0-4.576-2.368-4.576-6.24V230.745c0-.1.064-0.128,0.224-0.128h2.816a0.408,0.408,0,0,0,0-.384H671.567a0.408,0.408,0,0,0,0,.384h2.816c0.128,0,.192.032,0.192,0.128v15.839c0,4.768,3.391,6.88,8.159,6.88,5.344,0,7.679-2.848,7.679-7.264V230.745a0.129,0.129,0,0,1,.16-0.128h2.816Zm30.752,22.3a0.78,0.78,0,0,0,0-.384h-2.816c-0.16,0-.224-0.032-0.224-0.128V230.745c0-.1.064-0.128,0.224-0.128h2.816a0.78,0.78,0,0,0,0-.384h-7.3a0.682,0.682,0,0,0-.448.576l-4.9,15.551-5.7-15.551a0.621,0.621,0,0,0-.48-0.576H698a0.408,0.408,0,0,0,0,.384h2.815c0.128,0,.16.032,0.16,0.128v21.663c0,0.1-.032.128-0.16,0.128H698a0.408,0.408,0,0,0,0,.384h6.367a0.408,0.408,0,0,0,0-.384h-2.784c-0.16,0-.192-0.032-0.192-0.128V231.225l8.032,22.111a0.292,0.292,0,0,0,.384,0l6.847-21.887v20.959c0,0.1-.064.128-0.192,0.128h-2.783a0.408,0.408,0,0,0,0,.384h10.463Zm-197.457,28h1.531l0.738-5.654h1.152c1.531,0,2.773-.036,3.763-0.81a3.644,3.644,0,0,0,1.387-3.043,3.209,3.209,0,0,0-1.153-2.593c-0.972-.774-2.142-0.774-3.655-0.774h-2.07Zm2.449-7,0.612-4.483h1.116a3.665,3.665,0,0,1,1.963.342,1.862,1.862,0,0,1,.864,1.693,2.223,2.223,0,0,1-1.224,2.142,5.462,5.462,0,0,1-2.287.306h-1.044Zm12.555,0.271,0.36-1.423a2.008,2.008,0,0,0-.81-0.18,2.843,2.843,0,0,0-2.359,1.567l0.216-1.279h-1.387l-1.062,8.049h1.369l0.5-3.8c0.288-2.124.972-3.169,2.232-3.169A2.045,2.045,0,0,1,541.688,274.186Zm1.726,3.042a3.814,3.814,0,0,0,4.051,4.034c2.629,0,4.52-1.927,4.52-4.826a3.847,3.847,0,0,0-4.034-3.853A4.5,4.5,0,0,0,543.414,277.228Zm4.465-3.511a2.74,2.74,0,0,1,2.719,2.971,3.163,3.163,0,0,1-3.043,3.457,2.7,2.7,0,0,1-2.737-2.953A3.184,3.184,0,0,1,547.879,273.717Zm12.761,7.2H563c1.944,0,3.331-.036,4.357-0.739a3.678,3.678,0,0,0,1.53-3.151,2.774,2.774,0,0,0-2.232-2.826,2.885,2.885,0,0,0,2.358-3.079,2.94,2.94,0,0,0-.99-2.323c-0.828-.7-1.908-0.756-3.4-0.756h-2.287Zm1.692-1.369,0.613-4.627h1.332a4.206,4.206,0,0,1,2.143.36,1.912,1.912,0,0,1,.936,1.746,2.3,2.3,0,0,1-1.314,2.2,7.219,7.219,0,0,1-2.809.324h-0.9Zm0.775-5.942,0.558-4.177h1.152a3.59,3.59,0,0,1,1.837.306,1.774,1.774,0,0,1,.846,1.6,2.085,2.085,0,0,1-1.188,1.98,5.386,5.386,0,0,1-2.179.288h-1.026Zm15.391-.738-0.216,1.621a2.922,2.922,0,0,0-2.935-1.909c-2.359,0-4.141,1.927-4.141,4.609,0,2.449,1.458,4.052,3.475,4.052a3.433,3.433,0,0,0,2.935-1.531l-0.2,1.207h1.4l1.062-8.049H578.5Zm-3.331,7.094a2.536,2.536,0,0,1-2.539-2.773,3.094,3.094,0,0,1,3.043-3.367c1.333,0,2.3,1.063,2.3,2.737C577.976,278.561,576.68,279.965,575.167,279.965Zm6.64-.216a3.722,3.722,0,0,0,3.169,1.513c1.837,0,2.953-1.009,2.953-2.629,0-1.261-.666-1.747-2-2.323-1.009-.432-1.639-0.666-1.639-1.35a1.337,1.337,0,0,1,1.459-1.171,2.366,2.366,0,0,1,1.98.991l0.846-1.009a3.6,3.6,0,0,0-2.736-1.188,2.643,2.643,0,0,0-2.917,2.539c0,1.152.648,1.62,1.908,2.232,1.1,0.541,1.747.685,1.747,1.477a1.391,1.391,0,0,1-1.639,1.278,2.574,2.574,0,0,1-2.232-1.422Zm10.891-3.385,1.188-9.075H592.5l-1.8,13.631h1.387l0.576-4.268,3.277,4.268h1.837l-3.457-4.376,4.411-3.673h-1.945Zm13.7-.378H601.41a2.761,2.761,0,0,1,2.772-2.269A2.06,2.06,0,0,1,606.4,275.986Zm1.332,1.152c0.018-.216.018-0.432,0.018-0.63,0-2.5-1.314-3.925-3.547-3.925a4.377,4.377,0,0,0-4.321,4.663,3.7,3.7,0,0,0,3.925,4.016,4.165,4.165,0,0,0,3.385-1.819l-0.972-.792a3.029,3.029,0,0,1-2.467,1.4c-1.512,0-2.467-1.044-2.467-2.773v-0.144h6.446Zm2.752,3.782h1.4l0.9-6.879h1.782l0.144-1.17h-1.764l0.432-3.241h-1.422l-0.415,3.241h-1.494l-0.162,1.17h1.494Zm7.02,0,0.2-1.567a2.946,2.946,0,0,0,2.935,1.909,3.813,3.813,0,0,0,3.079-1.513,5.048,5.048,0,0,0,1.044-3.025c0-2.538-1.44-4.123-3.493-4.123a3.46,3.46,0,0,0-2.9,1.53l0.919-6.842h-1.4l-1.8,13.631H617.5Zm3.3-7a2.511,2.511,0,0,1,2.539,2.755,3.093,3.093,0,0,1-3.043,3.367c-1.332,0-2.305-1.062-2.305-2.737C617.987,275.3,619.284,273.915,620.8,273.915Zm13.7-1.044-0.216,1.621a2.923,2.923,0,0,0-2.935-1.909c-2.359,0-4.141,1.927-4.141,4.609,0,2.449,1.458,4.052,3.475,4.052a3.432,3.432,0,0,0,2.934-1.531l-0.2,1.207h1.4l1.062-8.049H634.5Zm-3.331,7.094a2.535,2.535,0,0,1-2.539-2.773,3.093,3.093,0,0,1,3.043-3.367c1.332,0,2.3,1.063,2.3,2.737C633.973,278.561,632.676,279.965,631.164,279.965Zm8.711,0.955,1.782-13.631h-1.4l-1.8,13.631h1.423Zm5.238,0,1.782-13.631h-1.4l-1.8,13.631h1.423Zm9.971,0h1.531l0.738-5.654h1.152c1.531,0,2.773-.036,3.763-0.81a3.644,3.644,0,0,0,1.387-3.043,3.209,3.209,0,0,0-1.153-2.593c-0.972-.774-2.142-0.774-3.655-0.774h-2.07Zm2.449-7,0.612-4.483h1.116a3.665,3.665,0,0,1,1.963.342,1.862,1.862,0,0,1,.864,1.693,2.223,2.223,0,0,1-1.224,2.142,5.465,5.465,0,0,1-2.287.306h-1.044Zm9.306,7,1.782-13.631h-1.4l-1.8,13.631h1.423Zm10.963-8.049-0.216,1.621a2.921,2.921,0,0,0-2.935-1.909c-2.358,0-4.141,1.927-4.141,4.609,0,2.449,1.458,4.052,3.475,4.052a3.433,3.433,0,0,0,2.935-1.531l-0.2,1.207h1.4l1.063-8.049H677.8Zm-3.331,7.094a2.536,2.536,0,0,1-2.539-2.773,3.094,3.094,0,0,1,3.043-3.367c1.333,0,2.3,1.063,2.3,2.737C677.28,278.561,675.984,279.965,674.471,279.965Zm6.569,4.88h1.566l6.932-11.974h-1.6l-3.133,5.744-1.657-5.744h-1.494l2.2,7.166Zm16.256-8.859h-4.988a2.762,2.762,0,0,1,2.773-2.269A2.06,2.06,0,0,1,697.3,275.986Zm1.332,1.152c0.018-.216.018-0.432,0.018-0.63,0-2.5-1.314-3.925-3.547-3.925a4.376,4.376,0,0,0-4.321,4.663,3.7,3.7,0,0,0,3.925,4.016,4.166,4.166,0,0,0,3.385-1.819l-0.972-.792a3.032,3.032,0,0,1-2.467,1.4c-1.513,0-2.467-1.044-2.467-2.773v-0.144h6.446Zm7.451-2.952,0.36-1.423a2.008,2.008,0,0,0-.81-0.18,2.845,2.845,0,0,0-2.359,1.567l0.216-1.279H702.1l-1.062,8.049h1.368l0.5-3.8c0.288-2.124.973-3.169,2.233-3.169A2.045,2.045,0,0,1,706.079,274.186Z"/>
  <path class="cls-1" d="M126,657h151.01v3H126v-3Z"/>
  <path id="SHOP_the_look" data-name="SHOP the look" class="cls-1" d="M132.725,637.182a4.84,4.84,0,0,0-3.05-1.056,3.235,3.235,0,0,0-2.54.976,3.348,3.348,0,0,0-.894,2.4,2.69,2.69,0,0,0,.616,1.855,3.432,3.432,0,0,0,1.432.848l0.847,0.3a4.947,4.947,0,0,1,1.2.592,0.956,0.956,0,0,1,.354.768,1.123,1.123,0,0,1-.37.864,1.6,1.6,0,0,1-1.078.368,2.319,2.319,0,0,1-1.293-.384A6.318,6.318,0,0,1,127,643.9l-1.232,1.76a6.545,6.545,0,0,0,1.509,1.167,4.217,4.217,0,0,0,2.033.448,3.457,3.457,0,0,0,3.819-3.727,2.718,2.718,0,0,0-.755-1.984,4.07,4.07,0,0,0-1.4-.816l-0.77-.3a4.07,4.07,0,0,1-1.294-.608,0.76,0.76,0,0,1-.23-0.591,0.973,0.973,0,0,1,.261-0.672,1.256,1.256,0,0,1,1-.368,2.45,2.45,0,0,1,1.725.768Zm7.254-.816h-2.371v10.67h2.371v-4.527h4.1v4.527h2.371v-10.67h-2.371v4.063h-4.1v-4.063Zm16.619-.24a5.4,5.4,0,0,0-4.02,1.568,6.078,6.078,0,0,0-1.586,4.047,5.418,5.418,0,0,0,5.606,5.535,5.379,5.379,0,0,0,3.973-1.567,5.836,5.836,0,0,0,0-8.031A5.375,5.375,0,0,0,156.6,636.126Zm-0.016,2.272a3.228,3.228,0,0,1,2.264.912,3.429,3.429,0,0,1,.893,2.4,3.261,3.261,0,0,1-.893,2.384,3.05,3.05,0,0,1-2.279.912,2.957,2.957,0,0,1-2.2-.88,3.246,3.246,0,0,1-.94-2.4,3.328,3.328,0,0,1,.909-2.415A3.088,3.088,0,0,1,156.582,638.4Zm10.135-2.032v10.67h2.372v-3.743h1.448a3.417,3.417,0,0,0,2.617-.944,3.5,3.5,0,0,0,.878-2.512,3.351,3.351,0,0,0-1-2.591,3.759,3.759,0,0,0-2.695-.88h-3.619Zm2.372,2.016h0.8a1.8,1.8,0,0,1,1.324.4,1.437,1.437,0,0,1,.385,1.039,1.516,1.516,0,0,1-.385,1.056,1.768,1.768,0,0,1-1.278.4h-0.847v-2.9Zm21.408,0.064v-2.08h-6.838v2.08h2.233v8.59h2.372v-8.59H190.5Zm6.392-2.08h-2.371v10.67h2.371v-4.527h4.1v4.527h2.372v-10.67h-2.372v4.063h-4.1v-4.063Zm17.3,0h-5.806v10.67h5.806v-2.079h-3.434v-2.368h3.264v-2.08h-3.264v-2.063h3.434v-2.08Zm11.059,0v10.67H230.8v-2.079h-3.187v-8.591h-2.372Zm14.477-.24a5.4,5.4,0,0,0-4.019,1.568,6.078,6.078,0,0,0-1.586,4.047,5.416,5.416,0,0,0,5.6,5.535,5.375,5.375,0,0,0,3.973-1.567,5.833,5.833,0,0,0,0-8.031A5.372,5.372,0,0,0,239.721,636.126Zm-0.015,2.272a3.232,3.232,0,0,1,2.264.912,3.429,3.429,0,0,1,.893,2.4,3.261,3.261,0,0,1-.893,2.384,3.05,3.05,0,0,1-2.279.912,2.961,2.961,0,0,1-2.2-.88,3.249,3.249,0,0,1-.939-2.4,3.328,3.328,0,0,1,.909-2.415A3.088,3.088,0,0,1,239.706,638.4Zm15.263-2.272a5.4,5.4,0,0,0-4.019,1.568,6.078,6.078,0,0,0-1.586,4.047,5.416,5.416,0,0,0,5.6,5.535,5.375,5.375,0,0,0,3.973-1.567,5.833,5.833,0,0,0,0-8.031A5.372,5.372,0,0,0,254.969,636.126Zm-0.015,2.272a3.232,3.232,0,0,1,2.264.912,3.429,3.429,0,0,1,.893,2.4,3.261,3.261,0,0,1-.893,2.384,3.051,3.051,0,0,1-2.28.912,2.959,2.959,0,0,1-2.2-.88,3.249,3.249,0,0,1-.939-2.4,3.328,3.328,0,0,1,.909-2.415A3.088,3.088,0,0,1,254.954,638.4Zm12.507-2.032h-2.372v10.67h2.372V642.3l3.68,4.735h3.049l-4.481-5.615,4.158-5.055h-2.9l-3.511,4.447v-4.447Z"/>
  <path class="cls-2" d="M769,778h151.01v3H769v-3Z"/>
  <path id="SHOP_the_look-2" data-name="SHOP the look" class="cls-2" d="M775.725,758.182a4.84,4.84,0,0,0-3.05-1.056,3.235,3.235,0,0,0-2.54.976,3.352,3.352,0,0,0-.894,2.4,2.69,2.69,0,0,0,.616,1.855,3.429,3.429,0,0,0,1.433.848l0.846,0.3a4.947,4.947,0,0,1,1.2.592,0.956,0.956,0,0,1,.354.768,1.123,1.123,0,0,1-.37.864,1.6,1.6,0,0,1-1.078.368,2.319,2.319,0,0,1-1.293-.384A6.367,6.367,0,0,1,770,764.9l-1.232,1.76a6.567,6.567,0,0,0,1.509,1.167,4.217,4.217,0,0,0,2.033.448,3.457,3.457,0,0,0,3.819-3.727,2.718,2.718,0,0,0-.755-1.984,4.07,4.07,0,0,0-1.4-.816l-0.77-.3a4.07,4.07,0,0,1-1.294-.608,0.76,0.76,0,0,1-.231-0.591,0.974,0.974,0,0,1,.262-0.672,1.256,1.256,0,0,1,1-.368,2.45,2.45,0,0,1,1.725.768Zm7.254-.816h-2.371v10.67h2.371v-4.527h4.1v4.527h2.371v-10.67h-2.371v4.063h-4.1v-4.063Zm16.618-.24a5.4,5.4,0,0,0-4.019,1.568,6.078,6.078,0,0,0-1.586,4.047,5.418,5.418,0,0,0,5.605,5.535,5.379,5.379,0,0,0,3.974-1.567,5.836,5.836,0,0,0,0-8.031A5.376,5.376,0,0,0,799.6,757.126Zm-0.015,2.272a3.23,3.23,0,0,1,2.264.912,3.429,3.429,0,0,1,.893,2.4,3.261,3.261,0,0,1-.893,2.384,3.05,3.05,0,0,1-2.279.912,2.957,2.957,0,0,1-2.2-.88,3.246,3.246,0,0,1-.94-2.4,3.328,3.328,0,0,1,.909-2.415A3.088,3.088,0,0,1,799.582,759.4Zm10.135-2.032v10.67h2.372v-3.743h1.447a3.418,3.418,0,0,0,2.618-.944,3.5,3.5,0,0,0,.878-2.512,3.351,3.351,0,0,0-1-2.591,3.758,3.758,0,0,0-2.695-.88h-3.619Zm2.372,2.016h0.8a1.8,1.8,0,0,1,1.324.4,1.437,1.437,0,0,1,.385,1.039,1.516,1.516,0,0,1-.385,1.056,1.768,1.768,0,0,1-1.278.4h-0.847v-2.9Zm21.408,0.064v-2.08h-6.838v2.08h2.233v8.59h2.372v-8.59H833.5Zm6.392-2.08h-2.371v10.67h2.371v-4.527h4.1v4.527h2.372v-10.67h-2.372v4.063h-4.1v-4.063Zm17.3,0h-5.806v10.67h5.806v-2.079h-3.434v-2.368h3.264v-2.08h-3.264v-2.063h3.434v-2.08Zm11.059,0v10.67H873.8v-2.079h-3.187v-8.591h-2.372Zm14.477-.24a5.4,5.4,0,0,0-4.019,1.568,6.078,6.078,0,0,0-1.586,4.047,5.416,5.416,0,0,0,5.605,5.535,5.375,5.375,0,0,0,3.973-1.567,5.833,5.833,0,0,0,0-8.031A5.372,5.372,0,0,0,882.721,757.126Zm-0.015,2.272a3.232,3.232,0,0,1,2.264.912,3.429,3.429,0,0,1,.893,2.4,3.261,3.261,0,0,1-.893,2.384,3.05,3.05,0,0,1-2.279.912,2.961,2.961,0,0,1-2.2-.88,3.249,3.249,0,0,1-.939-2.4,3.328,3.328,0,0,1,.909-2.415A3.088,3.088,0,0,1,882.706,759.4Zm15.263-2.272a5.4,5.4,0,0,0-4.019,1.568,6.078,6.078,0,0,0-1.586,4.047,5.416,5.416,0,0,0,5.605,5.535,5.375,5.375,0,0,0,3.973-1.567,5.833,5.833,0,0,0,0-8.031A5.372,5.372,0,0,0,897.969,757.126Zm-0.015,2.272a3.23,3.23,0,0,1,2.264.912,3.429,3.429,0,0,1,.893,2.4,3.261,3.261,0,0,1-.893,2.384,3.05,3.05,0,0,1-2.279.912,2.961,2.961,0,0,1-2.2-.88,3.249,3.249,0,0,1-.939-2.4,3.333,3.333,0,0,1,.908-2.415A3.092,3.092,0,0,1,897.954,759.4Zm12.507-2.032h-2.372v10.67h2.372V763.3l3.68,4.735h3.049l-4.481-5.615,4.158-5.055h-2.895l-3.511,4.447v-4.447Z"/>
  <path id="CJ_is_wearing_the_Mason_tapered_fit._" data-name="CJ is wearing the Mason tapered fit. " class="cls-2" d="M777.731,730.1a5.661,5.661,0,0,0-3.547-1.188,6.212,6.212,0,1,0-.072,12.424,6.254,6.254,0,0,0,3.619-1.17v-1.657a5.461,5.461,0,0,1-1.386,1.008,5,5,0,0,1-2.233.558,4.952,4.952,0,0,1-.018-9.9,5.119,5.119,0,0,1,2.071.468,5.917,5.917,0,0,1,1.566,1.116V730.1Zm4.984-.99v8.679a2.715,2.715,0,0,1-.451,1.944,1.266,1.266,0,0,1-.9.342,1.942,1.942,0,0,1-1.368-.666l-0.739,1.045a2.727,2.727,0,0,0,2.143.882,2.469,2.469,0,0,0,1.909-.756,3.93,3.93,0,0,0,.738-2.827v-8.643h-1.332Zm10.1,4.538v7.472h1.3V733.65h-1.3Zm-0.27-2.827a0.918,0.918,0,1,0,.918-0.919A0.922,0.922,0,0,0,792.542,730.823Zm9.055,4a2.156,2.156,0,0,0-2.053-1.35,2.008,2.008,0,0,0-2.178,2.088,1.622,1.622,0,0,0,.342,1.1,4.859,4.859,0,0,0,1.818,1.1c0.7,0.306,1.207.54,1.207,1.242a1.16,1.16,0,0,1-1.225,1.188A1.69,1.69,0,0,1,798,738.961l-1.116.468a2.671,2.671,0,0,0,2.61,1.909,2.377,2.377,0,0,0,2.575-2.449,1.768,1.768,0,0,0-.4-1.206,4.549,4.549,0,0,0-1.873-1.153c-0.846-.36-1.206-0.522-1.206-1.062a0.825,0.825,0,0,1,.9-0.846,1.146,1.146,0,0,1,1.045.756Zm7.108-1.17,3.673,7.994,2.3-5.582,2.3,5.582,3.71-7.994h-1.441l-2.233,5.077-2.322-5.654-2.341,5.654-2.215-5.077h-1.44Zm19.8,4.969a2.976,2.976,0,0,1-.774,1.026,2.275,2.275,0,0,1-1.531.54,2.393,2.393,0,0,1-2.377-2.538h5.816a5.017,5.017,0,0,0-.7-2.809,3.343,3.343,0,0,0-2.827-1.368c-2.251,0-3.619,1.728-3.619,3.961a3.576,3.576,0,0,0,3.691,3.907,3.629,3.629,0,0,0,2.485-.918,4.489,4.489,0,0,0,.918-1.207Zm-4.592-2.053a2.271,2.271,0,0,1,2.2-1.944,2.236,2.236,0,0,1,2.2,1.944h-4.394Zm14.33-1.854a3.093,3.093,0,0,0-2.557-1.242,3.946,3.946,0,0,0,0,7.868,3.152,3.152,0,0,0,2.557-1.261v1.045h1.3V733.65h-1.3v1.062Zm-2.413-.09a2.8,2.8,0,0,1,0,5.563c-1.549,0-2.449-1.206-2.449-2.808A2.484,2.484,0,0,1,835.832,734.622Zm7.055,6.5h1.3v-3.943a3.225,3.225,0,0,1,.432-2.017,1.255,1.255,0,0,1,1.045-.468,1.333,1.333,0,0,1,.756.252l0.612-1.17a2.737,2.737,0,0,0-1.152-.306,2.076,2.076,0,0,0-1.693.99v-0.81h-1.3v7.472Zm6.227-7.472v7.472h1.3V733.65h-1.3Zm-0.27-2.827a0.919,0.919,0,1,0,.919-0.919A0.923,0.923,0,0,0,848.844,730.823Zm4.914,10.3h1.3v-3.907a3.148,3.148,0,0,1,.54-2.017,1.633,1.633,0,0,1,1.314-.576,1.468,1.468,0,0,1,1.225.54,2.2,2.2,0,0,1,.342,1.368v4.592h1.3v-4.628a3.331,3.331,0,0,0-.432-2,2.534,2.534,0,0,0-2.143-1.026,2.635,2.635,0,0,0-2.142,1.044V733.65h-1.3v7.472Zm15.086-6.41a3.109,3.109,0,0,0-2.557-1.242,3.685,3.685,0,0,0-2.557,1.008,3.919,3.919,0,0,0-1.08,2.9,4.05,4.05,0,0,0,1.08,2.953,3.581,3.581,0,0,0,2.557,1.008,3.151,3.151,0,0,0,2.557-1.261v1.081a3.473,3.473,0,0,1-.414,1.908,2.1,2.1,0,0,1-1.981,1.045,2.311,2.311,0,0,1-1.8-.721,2.347,2.347,0,0,1-.577-1.548h-1.278a3.368,3.368,0,0,0,.972,2.413,3.7,3.7,0,0,0,2.665,1.008,3.635,3.635,0,0,0,2.989-1.386,4.7,4.7,0,0,0,.72-2.935V733.65h-1.3v1.062Zm-2.413-.09a2.4,2.4,0,0,1,1.693.666,2.954,2.954,0,0,1,.792,2.107,3.028,3.028,0,0,1-.846,2.16,2.215,2.215,0,0,1-1.639.63,2.26,2.26,0,0,1-1.6-.612,2.877,2.877,0,0,1-.847-2.2,2.842,2.842,0,0,1,.757-2.053A2.316,2.316,0,0,1,866.431,734.622Zm14.777,0.216V733.65h-1.3v-2.7h-1.3v2.7h-0.793v1.188h0.793v6.284h1.3v-6.284h1.3Zm2.123,6.284h1.3v-3.907a3.148,3.148,0,0,1,.54-2.017,1.633,1.633,0,0,1,1.314-.576,1.467,1.467,0,0,1,1.225.54,2.2,2.2,0,0,1,.342,1.368v4.592h1.3v-4.628a3.331,3.331,0,0,0-.432-2,2.534,2.534,0,0,0-2.143-1.026,2.635,2.635,0,0,0-2.142,1.044V728h-1.3v13.126Zm14.726-2.5a2.976,2.976,0,0,1-.774,1.026,2.274,2.274,0,0,1-1.531.54,2.393,2.393,0,0,1-2.376-2.538h5.815a5.017,5.017,0,0,0-.7-2.809,3.343,3.343,0,0,0-2.827-1.368c-2.25,0-3.619,1.728-3.619,3.961a3.576,3.576,0,0,0,3.691,3.907,3.629,3.629,0,0,0,2.485-.918,4.489,4.489,0,0,0,.918-1.207Zm-4.591-2.053a2.27,2.27,0,0,1,2.2-1.944,2.236,2.236,0,0,1,2.2,1.944h-4.393Zm14.975,4.556,1.189-8.355,4.033,8.859,4.087-8.859,1.134,8.355h1.369l-1.873-12.694-4.7,10.155-4.61-10.137-2,12.676h1.368Zm20.881-6.41a3.091,3.091,0,0,0-2.556-1.242,3.946,3.946,0,0,0,0,7.868,3.149,3.149,0,0,0,2.556-1.261v1.045h1.3V733.65h-1.3v1.062Zm-2.412-.09a2.8,2.8,0,0,1,0,5.563c-1.549,0-2.449-1.206-2.449-2.808A2.483,2.483,0,0,1,926.91,734.622Zm11.2,0.2a2.157,2.157,0,0,0-2.053-1.35,2.009,2.009,0,0,0-2.179,2.088,1.622,1.622,0,0,0,.342,1.1,4.873,4.873,0,0,0,1.819,1.1c0.7,0.306,1.206.54,1.206,1.242a1.159,1.159,0,0,1-1.224,1.188,1.69,1.69,0,0,1-1.512-1.224l-1.117.468A2.672,2.672,0,0,0,936,741.338a2.377,2.377,0,0,0,2.575-2.449,1.768,1.768,0,0,0-.4-1.206,4.557,4.557,0,0,0-1.873-1.153c-0.846-.36-1.206-0.522-1.206-1.062a0.825,0.825,0,0,1,.9-0.846,1.145,1.145,0,0,1,1.044.756Zm6.587,6.518a3.934,3.934,0,1,0-3.961-3.925A3.832,3.832,0,0,0,944.693,741.338Zm0-6.716a2.786,2.786,0,1,1-2.629,2.791A2.586,2.586,0,0,1,944.693,734.622Zm6.839,6.5h1.3v-3.907a3.143,3.143,0,0,1,.541-2.017,1.633,1.633,0,0,1,1.314-.576,1.466,1.466,0,0,1,1.224.54,2.2,2.2,0,0,1,.342,1.368v4.592h1.3v-4.628a3.331,3.331,0,0,0-.432-2,2.536,2.536,0,0,0-2.143-1.026,2.638,2.638,0,0,0-2.143,1.044V733.65h-1.3v7.472Zm17.082-6.284V733.65h-1.3v-2.7h-1.3v2.7h-0.792v1.188h0.792v6.284h1.3v-6.284h1.3Zm7.849-.126a3.091,3.091,0,0,0-2.557-1.242,3.946,3.946,0,0,0,0,7.868,3.149,3.149,0,0,0,2.557-1.261v1.045h1.3V733.65h-1.3v1.062Zm-2.413-.09a2.8,2.8,0,0,1,0,5.563c-1.548,0-2.448-1.206-2.448-2.808A2.483,2.483,0,0,1,974.05,734.622Zm8.351,5.455a3.173,3.173,0,0,0,2.611,1.261,3.636,3.636,0,0,0,3.583-3.907,3.7,3.7,0,0,0-3.637-3.961,3.215,3.215,0,0,0-2.557,1.224V733.65h-1.3v11.613h1.3v-5.186Zm2.431,0.108a2.556,2.556,0,0,1-2.5-2.772,2.593,2.593,0,0,1,2.485-2.791,2.563,2.563,0,0,1,2.449,2.809A2.516,2.516,0,0,1,984.832,740.185Zm12.186-1.566a2.976,2.976,0,0,1-.774,1.026,2.271,2.271,0,0,1-1.53.54,2.393,2.393,0,0,1-2.377-2.538h5.816a5.017,5.017,0,0,0-.7-2.809,3.346,3.346,0,0,0-2.827-1.368c-2.251,0-3.619,1.728-3.619,3.961a3.576,3.576,0,0,0,3.691,3.907,3.626,3.626,0,0,0,2.484-.918,4.473,4.473,0,0,0,.919-1.207Zm-4.591-2.053a2.27,2.27,0,0,1,2.2-1.944,2.236,2.236,0,0,1,2.2,1.944h-4.393Zm8.6,4.556h1.3v-3.943a3.2,3.2,0,0,1,.43-2.017,1.252,1.252,0,0,1,1.04-.468,1.344,1.344,0,0,1,.76.252l0.61-1.17a2.7,2.7,0,0,0-1.15-.306,2.057,2.057,0,0,0-1.69.99v-0.81h-1.3v7.472Zm11.34-2.5a2.963,2.963,0,0,1-.77,1.026,2.271,2.271,0,0,1-1.53.54,2.4,2.4,0,0,1-2.38-2.538h5.82a5.052,5.052,0,0,0-.71-2.809,3.327,3.327,0,0,0-2.82-1.368c-2.25,0-3.62,1.728-3.62,3.961a3.575,3.575,0,0,0,3.69,3.907,3.616,3.616,0,0,0,2.48-.918,4.338,4.338,0,0,0,.92-1.207Zm-4.59-2.053a2.274,2.274,0,0,1,2.2-1.944,2.224,2.224,0,0,1,2.19,1.944h-4.39Zm14.33-1.854a3.1,3.1,0,0,0-2.56-1.242,3.947,3.947,0,0,0,0,7.868,3.145,3.145,0,0,0,2.56-1.261v1.045h1.3V728h-1.3v6.716Zm-2.41-.09a2.8,2.8,0,0,1,0,5.563c-1.55,0-2.45-1.206-2.45-2.808A2.483,2.483,0,0,1,1019.7,734.622Zm15.31,0.216V733.65h-1.83v-2.809a2.1,2.1,0,0,1,.25-1.171,1.87,1.87,0,0,1,2.7,0,2.2,2.2,0,0,1,.25,1.171v0.306h1.3v-0.306a3.588,3.588,0,0,0-.43-1.963,3.327,3.327,0,0,0-4.94,0,3.273,3.273,0,0,0-.43,1.963v2.809h-0.72v1.188h0.72v6.284h1.3v-6.284h1.83Zm1.37-1.188v7.472h1.3V733.65h-1.3Zm7.27,1.188V733.65h-1.29v-2.7h-1.3v2.7h-0.79v1.188h0.79v6.284h1.3v-6.284h1.29Zm2.06,5.564a0.9,0.9,0,1,0,.9-0.9A0.912,0.912,0,0,0,1045.71,740.4Z"/>
</svg>
