<svg xmlns="http://www.w3.org/2000/svg" width="1400" height="165" viewBox="0 0 1400 165">
  <defs>
    <style>
      .cls-1, .cls-2 {
        fill-rule: evenodd;
      }

      .cls-2 {
        fill: #fff;
      }
    </style>
  </defs>
  <path id="Rectangle_87_copy_4" data-name="Rectangle 87 copy 4" class="cls-1" d="M291.205,6H1134L1020.88,559H178Z"/>
  <path id="AVAILABLE_IN_FOUR_DISTINCT_FITS" data-name="AVAILABLE IN FOUR DISTINCT FITS" class="cls-2" d="M418.015,50.164h4.657l0.888-3.072h6.649l0.864,3.072h4.656L429.8,33h-5.856Zm6.553-6.409,1.728-5.664c0.072-.264.288-1.032,0.6-2.3q0.468,1.908.576,2.3l1.752,5.664h-4.656Zm22.066,6.409h3.553L457.387,33h-4.968l-3.408,9.6c-0.072.192-.288,0.96-0.6,2.3q-0.468-2.016-.576-2.3L444.4,33h-4.968Zm14.482,0h4.657l0.888-3.072h6.648l0.865,3.072h4.656L472.9,33h-5.856Zm6.553-6.409,1.728-5.664c0.072-.264.288-1.032,0.6-2.3q0.468,1.908.576,2.3l1.752,5.664h-4.656Zm17.711,6.409h4.729V33H485.38V50.164Zm13.3,0h10.489V46.156h-5.809V33h-4.68V50.164Zm15.552,0h4.656l0.888-3.072h6.649l0.864,3.072h4.656L526.013,33h-5.857Zm6.552-6.409,1.729-5.664c0.072-.264.288-1.032,0.6-2.3q0.468,1.908.576,2.3l1.752,5.664H520.78Zm21.936,2.9V42.915h1.7c2.016,0,2.976.312,2.976,1.944,0,1.416-1.056,1.8-3.048,1.8h-1.632Zm-4.344,3.5h4.848c2.808,0,4.849-.048,6.385-0.864a4.325,4.325,0,0,0,2.232-4.032,3.975,3.975,0,0,0-3.888-4.344c2.184-.6,3.12-1.656,3.12-3.624a3.821,3.821,0,0,0-2.424-3.7,12.955,12.955,0,0,0-5.065-.6h-5.208V50.164Zm4.344-10.3V36.411h1.008c1.9,0,2.952.216,2.952,1.752,0,1.416-1.056,1.7-3.024,1.7h-0.936Zm16.728,10.3h10.488V46.156h-5.808V33h-4.68V50.164Zm17.567,0h10.513v-3.84h-5.952v-2.9h5.616V39.747h-5.616V36.771h5.952V33H577.011V50.164Zm30.84,0h4.728V33h-4.728V50.164Zm13.3,0h4.512V41.691a28.437,28.437,0,0,0-.264-3.384,24.272,24.272,0,0,0,1.56,3l6.481,8.857h4.488V33h-4.488v8.473a28.439,28.439,0,0,0,.264,3.384,25.672,25.672,0,0,0-1.56-3.024L625.659,33h-4.512V50.164Zm37.559,0h4.561V43.419h5.616V39.747h-5.616V36.771h5.952V33H658.706V50.164Zm26.3-3.5c-2.737,0-4.489-2.208-4.489-5.04,0-2.808,1.848-5.041,4.489-5.041,2.616,0,4.488,2.256,4.488,5.041C689.5,44.427,687.675,46.66,685.011,46.66Zm9.168-5.04a8.724,8.724,0,0,0-2.664-6.361,9.3,9.3,0,0,0-12.985,0,8.875,8.875,0,0,0,.648,13.3,9.451,9.451,0,0,0,5.833,2.064,9.352,9.352,0,0,0,6.5-2.64A8.739,8.739,0,0,0,694.179,41.619ZM701.81,33v9.265c0,2.688.12,4.7,1.488,6.265,1.224,1.416,3.24,2.088,6.144,2.088,5.449,0,7.633-2.232,7.633-7.417V33h-4.656v8.233c0,3.672-.12,5.448-2.977,5.448-2.424,0-2.976-1.32-2.976-4.368V33H701.81Zm28.008,8.113V36.6h0.936c1.944,0,2.832.576,2.832,2.376,0,1.512-.936,2.136-2.9,2.136h-0.864Zm-4.392,9.049h4.392V43.443l3.936,6.721h5.281l-4.681-6.913a4.547,4.547,0,0,0,3.841-4.9,5.093,5.093,0,0,0-1.92-4.2C734.81,33.026,732.986,33,730.61,33h-5.184V50.164Zm37.128-3.84V36.843h0.792c3.528,0,5.28,1.344,5.28,4.752,0,3.36-1.7,4.728-5.28,4.728h-0.792Zm-4.633,3.84H762.7c2.856,0,5.232-.1,7.368-1.608a8.094,8.094,0,0,0,3.313-6.961,8.035,8.035,0,0,0-3.313-6.961C767.81,33.05,765.242,33,762.049,33h-4.128V50.164Zm23.3,0h4.728V33h-4.728V50.164Zm14.064-5.544-2.112,3.48a8.229,8.229,0,0,0,6.1,2.52c4.033,0,6.577-2.472,6.577-6.049,0-3.168-1.68-4.3-4.729-5.112-1.56-.408-2.736-0.672-2.736-1.9a1.638,1.638,0,0,1,1.9-1.44,5.207,5.207,0,0,1,3.289,1.368l1.464-3.36a8.671,8.671,0,0,0-5.089-1.536c-3.6,0-5.928,2.376-5.928,5.569,0,2.688,1.512,3.936,4.608,4.752,1.944,0.5,2.88.912,2.88,2.28a1.9,1.9,0,0,1-2.136,1.776C798,46.972,796.657,46.18,795.289,44.619Zm20.448,5.544h4.68V37.059h3.841V33H811.92v4.056h3.817V50.164Zm15.719,0h4.729V33h-4.729V50.164Zm13.3,0h4.513V41.691A28.437,28.437,0,0,0,849,38.307a24.272,24.272,0,0,0,1.56,3l6.48,8.857h4.489V33h-4.489v8.473a28.439,28.439,0,0,0,.264,3.384,25.672,25.672,0,0,0-1.56-3.024L849.265,33h-4.513V50.164Zm37.681-16.489a9.918,9.918,0,0,0-4.44-1.08c-5.065,0-8.713,3.816-8.713,9s3.648,9,8.713,9a9.919,9.919,0,0,0,4.44-1.08V44.4a5.134,5.134,0,0,1-3.96,2.064,4.5,4.5,0,0,1-4.513-4.776c0-2.9,1.8-4.968,4.513-4.968a5.134,5.134,0,0,1,3.96,2.064V33.674Zm9.911,16.489h4.68V37.059h3.841V33H888.528v4.056h3.816V50.164Zm27.911,0h4.561V43.419h5.616V39.747h-5.616V36.771h5.952V33H920.255V50.164Zm17.976,0h4.729V33h-4.729V50.164Zm15.768,0h4.681V37.059h3.84V33H950.183v4.056H954V50.164Zm16.368-5.544-2.112,3.48a8.229,8.229,0,0,0,6.1,2.52c4.033,0,6.577-2.472,6.577-6.049,0-3.168-1.68-4.3-4.729-5.112-1.56-.408-2.736-0.672-2.736-1.9a1.638,1.638,0,0,1,1.9-1.44,5.2,5.2,0,0,1,3.289,1.368l1.464-3.36a8.669,8.669,0,0,0-5.089-1.536c-3.6,0-5.928,2.376-5.928,5.569,0,2.688,1.512,3.936,4.608,4.752,1.944,0.5,2.881.912,2.881,2.28a1.9,1.9,0,0,1-2.137,1.776C973.079,46.972,971.735,46.18,970.367,44.619Z"/>
</svg>
