<svg xmlns="http://www.w3.org/2000/svg" data-name="STRETCH ICON" width="641" height="838"><rect id="backgroundrect" width="100%" height="100%" x="0" y="0" fill="none" stroke="none"/>
  <defs>
    <style>
      .cls-1 {
        fill: #231f20;
      }

      .cls-1, .cls-2 {
        fill-rule: evenodd;
      }
    </style>
  </defs>
  
  
  
  
  
  
  
  
  
  
<g class="currentLayer"><title>Layer 1</title><path id="Moves_with_your_body_for_maximum_mobility_and_ultimate_comfort." data-name="Moves with your body for maximum mobility and ultimate comfort." class="cls-1" d="M65.872,356.27l4.863-11.31,2,10.694h1.826l-3.19-16.349-5.5,13-5.5-13-3.19,16.349h1.826l1.98-10.694Zm11.241-5.5a5.159,5.159,0,0,0,1.562,3.741,5.271,5.271,0,0,0,3.785,1.562,5.368,5.368,0,0,0,3.784-1.584,5.234,5.234,0,0,0,0-7.46,5.308,5.308,0,0,0-3.784-1.562,5.248,5.248,0,0,0-3.785,1.541A5.168,5.168,0,0,0,77.113,350.769Zm1.782,0a3.557,3.557,0,1,1,3.565,3.719A3.613,3.613,0,0,1,78.9,350.769Zm15.862,5.5L99.6,345.818H97.705l-2.97,6.865-2.948-6.865H89.894Zm16.523-5.281v-0.33c0-3.256-1.849-5.215-4.731-5.215-2.861,0-4.907,2.157-4.907,5.259,0,3.213,2.024,5.369,5.017,5.369a4.909,4.909,0,0,0,4.555-2.685l-1.277-.858a3.6,3.6,0,0,1-3.19,2.135,3.231,3.231,0,0,1-3.257-3.521v-0.154h7.79Zm-1.805-1.364H103.49a2.881,2.881,0,0,1,2.993-2.707A2.7,2.7,0,0,1,109.475,349.625Zm4.4,4.379a4.05,4.05,0,0,0,3.873,2.068c2.178,0,3.586-1.3,3.586-3.125,0-1.606-.946-2.31-2.86-2.926-1.629-.528-2.531-0.66-2.531-1.694a1.517,1.517,0,0,1,1.672-1.475,2.328,2.328,0,0,1,2.245,1.409l1.364-.836a3.516,3.516,0,0,0-3.5-1.959c-2.091,0-3.477,1.254-3.477,2.971,0,1.936,1.452,2.354,3.873,3.19,1.034,0.352,1.54.748,1.54,1.5a1.606,1.606,0,0,1-1.848,1.475,2.651,2.651,0,0,1-2.509-1.563Zm24.707-8.538h-0.264l-2.993,7.063-2.618-6.711h-1.87l4.378,10.452,3.235-7.547,3.234,7.547,4.379-10.452H144.17l-2.641,6.711Zm10.383,10.188h1.694v-9.836h-1.694v9.836Zm-0.4-14.566a1.232,1.232,0,0,0,2.464.022,1.25,1.25,0,0,0-1.232-1.255A1.231,1.231,0,0,0,148.568,341.088Zm7,6.117v8.449h1.716v-8.449h1.8v-1.387h-1.8v-3.96h-1.716v3.96h-1.805v1.387h1.805Zm6.533,8.449h1.672v-5.083a3.784,3.784,0,0,1,.573-2.6,3,3,0,0,1,2.4-1.057c1.76,0,2.574.969,2.574,2.949v5.787h1.716v-6.689c0-2.223-1.408-3.5-3.7-3.5a4.041,4.041,0,0,0-3.587,1.871V339H162.1v16.657Zm20.548,4.8h1.892l6.6-14.632H189.29l-3.037,7.063-2.86-7.063h-1.936l3.85,8.868Zm10.384-9.681a5.159,5.159,0,0,0,1.562,3.741,5.27,5.27,0,0,0,3.784,1.562,5.367,5.367,0,0,0,3.785-1.584,5.235,5.235,0,0,0,0-7.46,5.308,5.308,0,0,0-3.785-1.562,5.247,5.247,0,0,0-3.784,1.541A5.168,5.168,0,0,0,193.029,350.769Zm1.782,0a3.557,3.557,0,1,1,3.564,3.719A3.613,3.613,0,0,1,194.811,350.769Zm14.212-4.951h-1.761v5.743c0,2.971,1.563,4.511,4.467,4.511,2.948,0,4.489-1.54,4.489-4.511v-5.743H214.5v4.841c0,2.6-.572,3.807-2.728,3.807s-2.75-1.211-2.75-3.807v-4.841Zm11.571,9.836h1.673v-4.8c0-2.574.88-3.85,2.662-3.85a3.161,3.161,0,0,1,1.034.2l0.572-1.519a3.383,3.383,0,0,0-1.144-.2c-1.5,0-2.42.7-3.3,2.377v-2.047h-1.5v9.836ZM236.984,339v16.657h1.606v-1.782a4.008,4.008,0,0,0,3.587,2.2c2.816,0,4.709-2.091,4.709-5.3,0-3.3-1.893-5.3-4.643-5.3a3.8,3.8,0,0,0-3.587,2.2V339h-1.672Zm1.606,11.794c0-2.222,1.365-3.652,3.345-3.652,1.958,0,3.168,1.254,3.168,3.432,0,2.464-1.254,3.873-3.212,3.873C239.867,354.444,238.59,353.123,238.59,350.791Zm11.286-.022a5.159,5.159,0,0,0,1.562,3.741,5.27,5.27,0,0,0,3.785,1.562,5.367,5.367,0,0,0,3.784-1.584,5.235,5.235,0,0,0,0-7.46,5.307,5.307,0,0,0-3.784-1.562,5.247,5.247,0,0,0-3.785,1.541A5.168,5.168,0,0,0,249.876,350.769Zm1.782,0a3.557,3.557,0,1,1,3.565,3.719A3.613,3.613,0,0,1,251.658,350.769ZM273.439,339h-1.672v8.67a3.794,3.794,0,0,0-3.587-2.2c-2.75,0-4.642,2-4.642,5.3,0,3.212,1.892,5.3,4.708,5.3a3.974,3.974,0,0,0,3.565-2.2v1.782h1.628V339Zm-1.628,11.794c0,2.332-1.276,3.653-3.3,3.653-1.958,0-3.19-1.409-3.19-3.873,0-2.178,1.21-3.432,3.168-3.432C270.469,347.139,271.811,348.569,271.811,350.791Zm5.762,9.659h1.893l6.6-14.632h-1.849l-3.036,7.063-2.86-7.063h-1.937l3.851,8.868Zm-219.6,25.2h1.716v-8.449h2.574v-1.387H59.645V373.2c0-1.892.044-2.794,1.3-2.794a2.7,2.7,0,0,1,1.32.352v-1.739a4.556,4.556,0,0,0-1.452-.22c-2.354,0-2.838,1.233-2.838,4.181v2.838H56.081v1.387h1.892v8.449Zm6.225-4.885a5.159,5.159,0,0,0,1.562,3.741,5.271,5.271,0,0,0,3.785,1.562,5.368,5.368,0,0,0,3.785-1.584,5.233,5.233,0,0,0,0-7.459,5.3,5.3,0,0,0-3.785-1.563,5.251,5.251,0,0,0-3.785,1.54A5.172,5.172,0,0,0,64.2,380.769Zm1.782,0a3.557,3.557,0,1,1,3.564,3.719A3.614,3.614,0,0,1,65.981,380.769Zm12.65,4.885H80.3v-4.8c0-2.574.88-3.851,2.662-3.851a3.165,3.165,0,0,1,1.034.2l0.572-1.519a3.384,3.384,0,0,0-1.144-.2c-1.5,0-2.42.7-3.3,2.377v-2.047h-1.5v9.836Zm30.076,0h1.672v-6.689a3.205,3.205,0,0,0-3.5-3.5,3.889,3.889,0,0,0-3.5,2,3.31,3.31,0,0,0-3.3-2,3.823,3.823,0,0,0-3.41,1.871v-1.519H95.02v9.836h1.628v-5.083a3.979,3.979,0,0,1,.528-2.6,2.787,2.787,0,0,1,2.244-1.057c1.672,0,2.442.969,2.442,2.949v5.787h1.628v-5.083a3.972,3.972,0,0,1,.551-2.6,2.744,2.744,0,0,1,2.222-1.057c1.672,0,2.442.969,2.442,2.949v5.787Zm15.223-9.836h-1.672v1.849a3.8,3.8,0,0,0-3.608-2.2c-2.751,0-4.621,2-4.621,5.3,0,3.213,1.892,5.3,4.709,5.3a3.956,3.956,0,0,0,3.564-2.2v1.783h1.628v-9.836Zm-1.628,5.017c0,2.266-1.232,3.565-3.212,3.565-2.091,0-3.279-1.343-3.279-3.719,0-2.244,1.188-3.542,3.213-3.542C120.915,377.139,122.3,378.547,122.3,380.835Zm4.376,4.819h2.091l2.662-3.807,2.685,3.807h2.09l-3.807-5.083,3.7-4.753h-2.09l-2.575,3.521-2.552-3.521h-2.091l3.675,4.753Zm12.431,0H140.8v-9.836h-1.694v9.836Zm-0.4-14.566a1.232,1.232,0,0,0,2.464.022,1.25,1.25,0,0,0-1.232-1.255A1.231,1.231,0,0,0,138.712,371.088Zm20.417,14.566H160.8v-6.689a3.206,3.206,0,0,0-3.5-3.5,3.887,3.887,0,0,0-3.5,2,3.311,3.311,0,0,0-3.3-2,3.823,3.823,0,0,0-3.41,1.871v-1.519h-1.651v9.836h1.629v-5.083a3.98,3.98,0,0,1,.528-2.6,2.787,2.787,0,0,1,2.244-1.057c1.672,0,2.442.969,2.442,2.949v5.787h1.629v-5.083a3.978,3.978,0,0,1,.55-2.6,2.744,2.744,0,0,1,2.222-1.057c1.672,0,2.442.969,2.442,2.949v5.787Zm7.655-9.836h-1.761v5.743c0,2.971,1.562,4.511,4.467,4.511,2.948,0,4.489-1.54,4.489-4.511v-5.743h-1.717v4.841c0,2.6-.572,3.807-2.728,3.807s-2.75-1.211-2.75-3.807v-4.841Zm25.235,9.836h1.672v-6.689a3.205,3.205,0,0,0-3.5-3.5,3.889,3.889,0,0,0-3.5,2,3.31,3.31,0,0,0-3.3-2,3.825,3.825,0,0,0-3.411,1.871v-1.519h-1.65v9.836h1.628v-5.083a3.973,3.973,0,0,1,.529-2.6,2.787,2.787,0,0,1,2.244-1.057c1.672,0,2.442.969,2.442,2.949v5.787H186.8v-5.083a3.972,3.972,0,0,1,.551-2.6,2.744,2.744,0,0,1,2.222-1.057c1.672,0,2.442.969,2.442,2.949v5.787Zm27.346,0h1.672v-6.689a3.205,3.205,0,0,0-3.5-3.5,3.887,3.887,0,0,0-3.5,2,3.31,3.31,0,0,0-3.3-2,3.824,3.824,0,0,0-3.411,1.871v-1.519h-1.65v9.836h1.628v-5.083a3.98,3.98,0,0,1,.528-2.6,2.787,2.787,0,0,1,2.245-1.057c1.672,0,2.442.969,2.442,2.949v5.787h1.628v-5.083a3.978,3.978,0,0,1,.55-2.6,2.745,2.745,0,0,1,2.223-1.057c1.672,0,2.442.969,2.442,2.949v5.787Zm5.278-4.885a5.159,5.159,0,0,0,1.562,3.741,5.27,5.27,0,0,0,3.784,1.562,5.367,5.367,0,0,0,3.785-1.584,5.233,5.233,0,0,0,0-7.459,5.3,5.3,0,0,0-3.785-1.563,5.25,5.25,0,0,0-3.784,1.54A5.172,5.172,0,0,0,224.643,380.769Zm1.782,0a3.557,3.557,0,1,1,3.564,3.719A3.614,3.614,0,0,1,226.425,380.769ZM239.052,369v16.657h1.607v-1.783a4,4,0,0,0,3.586,2.2c2.817,0,4.709-2.09,4.709-5.3,0-3.3-1.892-5.3-4.643-5.3a3.793,3.793,0,0,0-3.586,2.2V369h-1.673Zm1.607,11.794c0-2.222,1.364-3.652,3.344-3.652,1.958,0,3.169,1.254,3.169,3.432,0,2.464-1.255,3.873-3.213,3.873C241.935,384.444,240.659,383.123,240.659,380.791Zm12.165,4.863h1.695v-9.836h-1.695v9.836Zm-0.4-14.566a1.233,1.233,0,0,0,2.465.022,1.25,1.25,0,0,0-1.233-1.255A1.231,1.231,0,0,0,252.428,371.088Zm6.82,14.566h1.716V369h-1.716v16.657Zm6.424,0h1.694v-9.836h-1.694v9.836Zm-0.4-14.566a1.232,1.232,0,0,0,2.464.022,1.25,1.25,0,0,0-1.232-1.255A1.231,1.231,0,0,0,265.276,371.088Zm7,6.117v8.449h1.716v-8.449h1.8v-1.387h-1.8v-3.96h-1.716v3.96h-1.805v1.387h1.805Zm6.137,13.245H280.3l6.6-14.632h-1.848l-3.036,7.063-2.861-7.063h-1.936l3.851,8.868ZM67.8,405.818H66.125v1.849a3.8,3.8,0,0,0-3.609-2.2c-2.75,0-4.621,2-4.621,5.3,0,3.213,1.892,5.3,4.709,5.3a3.956,3.956,0,0,0,3.565-2.2v1.783H67.8v-9.836Zm-1.628,5.017c0,2.266-1.232,3.565-3.212,3.565-2.09,0-3.278-1.343-3.278-3.719,0-2.244,1.188-3.542,3.212-3.542C64.783,407.139,66.169,408.547,66.169,410.835Zm6.093,4.819h1.672v-5.083a3.789,3.789,0,0,1,.572-2.6,3,3,0,0,1,2.4-1.056c1.76,0,2.574.968,2.574,2.948v5.787h1.716v-6.689c0-2.223-1.408-3.5-3.7-3.5a4.039,4.039,0,0,0-3.587,1.871v-1.519h-1.65v9.836ZM94.769,399H93.1v8.67a3.793,3.793,0,0,0-3.587-2.2c-2.75,0-4.643,2-4.643,5.3,0,3.213,1.892,5.3,4.709,5.3a3.972,3.972,0,0,0,3.565-2.2v1.783h1.628V399Zm-1.628,11.794c0,2.332-1.276,3.653-3.3,3.653-1.958,0-3.19-1.409-3.19-3.873,0-2.178,1.21-3.432,3.168-3.432C91.8,407.139,93.141,408.569,93.141,410.791Zm15.333-4.973h-1.761v5.743c0,2.971,1.562,4.511,4.467,4.511,2.948,0,4.489-1.54,4.489-4.511v-5.743h-1.717v4.841c0,2.6-.572,3.807-2.728,3.807s-2.75-1.211-2.75-3.807v-4.841Zm11.637,9.836h1.716V399h-1.716v16.657Zm6.6-8.449v8.449h1.716v-8.449h1.805v-1.387h-1.805v-3.96h-1.716v3.96h-1.8v1.387h1.8Zm6.622,8.449h1.694v-9.836h-1.694v9.836Zm-0.4-14.566a1.232,1.232,0,0,0,2.464.022,1.25,1.25,0,0,0-1.232-1.255A1.231,1.231,0,0,0,132.937,401.088Zm20.417,14.566h1.673v-6.689a3.206,3.206,0,0,0-3.5-3.5,3.887,3.887,0,0,0-3.5,2,3.311,3.311,0,0,0-3.3-2,3.823,3.823,0,0,0-3.41,1.871v-1.519h-1.651v9.836H141.3v-5.083a3.98,3.98,0,0,1,.528-2.6,2.786,2.786,0,0,1,2.244-1.056c1.672,0,2.442.968,2.442,2.948v5.787h1.629v-5.083a3.978,3.978,0,0,1,.55-2.6,2.743,2.743,0,0,1,2.222-1.056c1.672,0,2.442.968,2.442,2.948v5.787Zm15.224-9.836h-1.673v1.849a3.8,3.8,0,0,0-3.608-2.2c-2.751,0-4.621,2-4.621,5.3,0,3.213,1.892,5.3,4.709,5.3a3.956,3.956,0,0,0,3.564-2.2v1.783h1.629v-9.836Zm-1.629,5.017c0,2.266-1.232,3.565-3.212,3.565-2.09,0-3.279-1.343-3.279-3.719,0-2.244,1.189-3.542,3.213-3.542C165.563,407.139,166.949,408.547,166.949,410.835Zm6.357-3.63v8.449h1.716v-8.449h1.8v-1.387h-1.8v-3.96h-1.716v3.96h-1.8v1.387h1.8Zm15.313,3.784v-0.33c0-3.256-1.848-5.215-4.731-5.215-2.86,0-4.906,2.157-4.906,5.259,0,3.212,2.024,5.369,5.016,5.369a4.907,4.907,0,0,0,4.555-2.685l-1.276-.858a3.6,3.6,0,0,1-3.191,2.135,3.23,3.23,0,0,1-3.256-3.521v-0.154h7.789Zm-1.8-1.364H180.83a2.879,2.879,0,0,1,2.992-2.706A2.7,2.7,0,0,1,186.815,409.625Zm20.57,3.7a5.042,5.042,0,0,1-3.037,1.123,3.676,3.676,0,0,1,.132-7.349,4.942,4.942,0,0,1,2.729.858v-1.8a7.017,7.017,0,0,0-3.059-.682,5.036,5.036,0,0,0-5.127,5.369,4.876,4.876,0,0,0,5.061,5.237,6.493,6.493,0,0,0,3.3-.792v-1.959Zm2.638-2.552a5.159,5.159,0,0,0,1.562,3.741,5.274,5.274,0,0,0,3.785,1.562,5.367,5.367,0,0,0,3.784-1.584,5.232,5.232,0,0,0,0-7.46,5.307,5.307,0,0,0-3.784-1.562,5.251,5.251,0,0,0-3.785,1.541A5.168,5.168,0,0,0,210.023,410.769Zm1.782,0a3.557,3.557,0,1,1,3.565,3.719A3.614,3.614,0,0,1,211.805,410.769Zm26.314,4.885h1.672v-6.689a3.205,3.205,0,0,0-3.5-3.5,3.887,3.887,0,0,0-3.5,2,3.31,3.31,0,0,0-3.3-2,3.823,3.823,0,0,0-3.411,1.871v-1.519h-1.65v9.836h1.628v-5.083a3.98,3.98,0,0,1,.528-2.6,2.787,2.787,0,0,1,2.245-1.056c1.672,0,2.442.968,2.442,2.948v5.787H232.9v-5.083a3.978,3.978,0,0,1,.55-2.6,2.744,2.744,0,0,1,2.223-1.056c1.672,0,2.442.968,2.442,2.948v5.787Zm6.51,0h1.716v-8.449h2.574v-1.387H246.3V403.2c0-1.892.044-2.794,1.3-2.794a2.7,2.7,0,0,1,1.32.352v-1.739a4.555,4.555,0,0,0-1.452-.22c-2.354,0-2.838,1.232-2.838,4.181v2.838h-1.892v1.387h1.892v8.449Zm6.225-4.885a5.156,5.156,0,0,0,1.563,3.741,5.27,5.27,0,0,0,3.784,1.562,5.371,5.371,0,0,0,3.785-1.584,5.235,5.235,0,0,0,0-7.46,5.311,5.311,0,0,0-3.785-1.562,5.247,5.247,0,0,0-3.784,1.541A5.165,5.165,0,0,0,250.854,410.769Zm1.783,0a3.557,3.557,0,1,1,3.564,3.719A3.613,3.613,0,0,1,252.637,410.769Zm12.649,4.885h1.672v-4.8c0-2.574.88-3.85,2.663-3.85a3.161,3.161,0,0,1,1.034.2l0.572-1.519a3.383,3.383,0,0,0-1.144-.2c-1.5,0-2.421.7-3.3,2.377v-2.047h-1.5v9.836Zm9.064-8.449v8.449h1.716v-8.449h1.805v-1.387h-1.805v-3.96H274.35v3.96h-1.8v1.387h1.8Zm6.776,7.393a1.245,1.245,0,0,0,1.276,1.254,1.264,1.264,0,0,0,1.3-1.254A1.287,1.287,0,0,0,281.126,414.6Z"/><path id="STRETCH" class="cls-2" d="M104.105,316.379l-1.761,2.9a6.861,6.861,0,0,0,5.081,2.1c3.361,0,5.481-2.06,5.481-5.041,0-2.641-1.4-3.581-3.94-4.261-1.3-.34-2.281-0.56-2.281-1.58a1.366,1.366,0,0,1,1.58-1.2,4.338,4.338,0,0,1,2.741,1.141l1.22-2.8a7.224,7.224,0,0,0-4.241-1.28A4.58,4.58,0,0,0,103.044,311c0,2.24,1.261,3.281,3.841,3.961,1.62,0.42,2.4.76,2.4,1.9a1.58,1.58,0,0,1-1.781,1.48A4.706,4.706,0,0,1,104.105,316.379ZM126.145,321h3.9V310.078h3.2V306.7H122.964v3.381h3.181V321Zm21.66-7.542V309.7h0.78c1.62,0,2.361.48,2.361,1.98,0,1.26-.781,1.78-2.421,1.78h-0.72ZM144.144,321h3.661v-5.6l3.281,5.6h4.4l-3.9-5.761a3.79,3.79,0,0,0,3.2-4.081,4.246,4.246,0,0,0-1.6-3.5c-1.22-.94-2.74-0.96-4.721-0.96h-4.321V321Zm21.82,0h8.762v-3.2h-4.961v-2.42h4.681v-3.061h-4.681v-2.48h4.961V306.7h-8.762V321Zm22.4,0h3.9V310.078h3.2V306.7H185.183v3.381h3.181V321Zm27.991-13.743a8.273,8.273,0,0,0-3.7-.9,7.505,7.505,0,0,0,0,15,8.273,8.273,0,0,0,3.7-.9V316.2a4.282,4.282,0,0,1-3.3,1.72,3.749,3.749,0,0,1-3.761-3.981c0-2.42,1.5-4.14,3.761-4.14a4.282,4.282,0,0,1,3.3,1.72v-4.261ZM227.552,321h3.9v-5.821h5.2V321h3.9V306.7h-3.9v5.561h-5.2V306.7h-3.9V321Z"/><path id="Engineered_to_maintain_shape_after_multiple_washes_and_wears." data-name="Engineered to maintain shape after multiple washes and wears." class="cls-1" d="M340.723,355.654h8.295v-1.738h-6.425v-6.029h6.425v-1.739h-6.425v-4.51h6.425v-1.717h-8.295v15.733Zm12.386,0h1.672v-5.083a3.789,3.789,0,0,1,.572-2.6,3,3,0,0,1,2.4-1.057c1.76,0,2.574.969,2.574,2.949v5.787h1.716v-6.689c0-2.223-1.408-3.5-3.7-3.5a4.04,4.04,0,0,0-3.587,1.871v-1.519h-1.65v9.836Zm22.507-9.836h-1.672v1.827a3.819,3.819,0,0,0-3.609-2.179c-2.75,0-4.62,1.959-4.62,5.237,0,3.19,1.892,5.259,4.708,5.259a3.951,3.951,0,0,0,3.565-2.179v1.651a4.194,4.194,0,0,1-.418,2.244,3.028,3.028,0,0,1-2.817,1.3c-1.892,0-2.926-.858-2.926-2.31v-0.132h-1.892c0.066,2.464,1.782,3.916,4.8,3.916a5.162,5.162,0,0,0,3.961-1.474c0.924-.99.924-2.09,0.924-3.5v-9.66Zm-1.628,4.951c0,2.266-1.232,3.587-3.213,3.587-2.09,0-3.278-1.343-3.278-3.719,0-2.244,1.188-3.542,3.212-3.542C372.6,347.1,373.988,348.481,373.988,350.769Zm6.225,4.885h1.694v-9.836h-1.694v9.836Zm-0.4-14.566a1.232,1.232,0,0,0,2.464.022,1.25,1.25,0,0,0-1.232-1.255A1.231,1.231,0,0,0,379.817,341.088Zm6.732,14.566h1.672v-5.083a3.789,3.789,0,0,1,.572-2.6,3,3,0,0,1,2.4-1.057c1.761,0,2.575.969,2.575,2.949v5.787h1.716v-6.689c0-2.223-1.408-3.5-3.7-3.5a4.038,4.038,0,0,0-3.586,1.871v-1.519h-1.65v9.836Zm22.133-4.665v-0.33c0-3.256-1.849-5.215-4.731-5.215-2.86,0-4.907,2.157-4.907,5.259,0,3.213,2.025,5.369,5.017,5.369a4.908,4.908,0,0,0,4.555-2.685l-1.277-.858a3.6,3.6,0,0,1-3.19,2.135,3.23,3.23,0,0,1-3.256-3.521v-0.154h7.789Zm-1.805-1.364h-5.984a2.88,2.88,0,0,1,2.992-2.707A2.7,2.7,0,0,1,406.877,349.625Zm14.212,1.364v-0.33c0-3.256-1.848-5.215-4.73-5.215-2.861,0-4.907,2.157-4.907,5.259,0,3.213,2.024,5.369,5.017,5.369a4.906,4.906,0,0,0,4.554-2.685l-1.276-.858a3.6,3.6,0,0,1-3.19,2.135,3.231,3.231,0,0,1-3.257-3.521v-0.154h7.789Zm-1.8-1.364H413.3a2.881,2.881,0,0,1,2.993-2.707A2.7,2.7,0,0,1,419.285,349.625Zm5.455,6.029h1.672v-4.8c0-2.574.88-3.85,2.663-3.85a3.161,3.161,0,0,1,1.034.2l0.572-1.519a3.383,3.383,0,0,0-1.144-.2c-1.5,0-2.421.7-3.3,2.377v-2.047h-1.5v9.836Zm17.579-4.665v-0.33c0-3.256-1.848-5.215-4.73-5.215-2.861,0-4.907,2.157-4.907,5.259,0,3.213,2.024,5.369,5.017,5.369a4.906,4.906,0,0,0,4.554-2.685l-1.276-.858a3.6,3.6,0,0,1-3.19,2.135,3.23,3.23,0,0,1-3.257-3.521v-0.154h7.789Zm-1.8-1.364H434.53a2.88,2.88,0,0,1,2.993-2.707A2.7,2.7,0,0,1,440.515,349.625ZM455.1,339h-1.672v8.67a3.793,3.793,0,0,0-3.587-2.2c-2.75,0-4.642,2-4.642,5.3,0,3.212,1.892,5.3,4.708,5.3a3.973,3.973,0,0,0,3.565-2.2v1.782H455.1V339Zm-1.628,11.794c0,2.332-1.276,3.653-3.3,3.653-1.958,0-3.19-1.409-3.19-3.873,0-2.178,1.21-3.432,3.168-3.432C452.131,347.139,453.473,348.569,453.473,350.791Zm14.013-3.586v8.449H469.2v-8.449h1.8v-1.387h-1.8v-3.96h-1.716v3.96h-1.805v1.387h1.805Zm5.741,3.564a5.159,5.159,0,0,0,1.562,3.741,5.274,5.274,0,0,0,3.785,1.562,5.371,5.371,0,0,0,3.785-1.584,5.235,5.235,0,0,0,0-7.46,5.311,5.311,0,0,0-3.785-1.562,5.251,5.251,0,0,0-3.785,1.541A5.168,5.168,0,0,0,473.227,350.769Zm1.782,0a3.557,3.557,0,1,1,3.565,3.719A3.614,3.614,0,0,1,475.009,350.769Zm33.9,4.885h1.672v-6.689a3.205,3.205,0,0,0-3.5-3.5,3.887,3.887,0,0,0-3.5,2,3.31,3.31,0,0,0-3.3-2,3.823,3.823,0,0,0-3.411,1.871v-1.519h-1.65v9.836h1.628v-5.083a3.98,3.98,0,0,1,.528-2.6,2.787,2.787,0,0,1,2.245-1.057c1.672,0,2.442.969,2.442,2.949v5.787H503.7v-5.083a3.978,3.978,0,0,1,.55-2.6,2.745,2.745,0,0,1,2.223-1.057c1.672,0,2.442.969,2.442,2.949v5.787Zm15.223-9.836h-1.672v1.849a3.8,3.8,0,0,0-3.609-2.2c-2.75,0-4.62,2-4.62,5.3,0,3.212,1.892,5.3,4.708,5.3a3.957,3.957,0,0,0,3.565-2.2v1.782h1.628v-9.836Zm-1.628,5.017c0,2.266-1.232,3.565-3.213,3.565-2.09,0-3.278-1.343-3.278-3.719,0-2.244,1.188-3.542,3.212-3.542C521.122,347.139,522.508,348.547,522.508,350.835Zm6.18,4.819h1.7v-9.836h-1.7v9.836Zm-0.4-14.566a1.233,1.233,0,0,0,2.465.022,1.25,1.25,0,0,0-1.232-1.255A1.231,1.231,0,0,0,528.292,341.088Zm6.732,14.566H536.7v-5.083a3.784,3.784,0,0,1,.573-2.6,3,3,0,0,1,2.4-1.057c1.76,0,2.574.969,2.574,2.949v5.787h1.717v-6.689c0-2.223-1.409-3.5-3.7-3.5a4.041,4.041,0,0,0-3.587,1.871v-1.519h-1.65v9.836Zm13.618-8.449v8.449h1.716v-8.449h1.805v-1.387h-1.805v-3.96h-1.716v3.96h-1.8v1.387h1.8Zm15.687-1.387h-1.672v1.849a3.8,3.8,0,0,0-3.609-2.2c-2.75,0-4.62,2-4.62,5.3,0,3.212,1.892,5.3,4.708,5.3a3.957,3.957,0,0,0,3.565-2.2v1.782h1.628v-9.836Zm-1.628,5.017c0,2.266-1.232,3.565-3.213,3.565-2.09,0-3.278-1.343-3.278-3.719,0-2.244,1.188-3.542,3.212-3.542C561.315,347.139,562.7,348.547,562.7,350.835Zm6.18,4.819h1.7v-9.836h-1.7v9.836Zm-0.4-14.566a1.233,1.233,0,0,0,2.465.022,1.25,1.25,0,0,0-1.232-1.255A1.231,1.231,0,0,0,568.485,341.088Zm6.732,14.566h1.672v-5.083a3.784,3.784,0,0,1,.573-2.6,3,3,0,0,1,2.4-1.057c1.76,0,2.574.969,2.574,2.949v5.787h1.716v-6.689c0-2.223-1.408-3.5-3.7-3.5a4.041,4.041,0,0,0-3.587,1.871v-1.519h-1.65v9.836ZM357.3,384a4.049,4.049,0,0,0,3.873,2.069c2.178,0,3.586-1.3,3.586-3.125,0-1.606-.946-2.31-2.86-2.926-1.629-.528-2.531-0.66-2.531-1.694a1.517,1.517,0,0,1,1.673-1.475,2.328,2.328,0,0,1,2.244,1.409l1.364-.836a3.516,3.516,0,0,0-3.5-1.959c-2.091,0-3.477,1.254-3.477,2.971,0,1.936,1.452,2.354,3.873,3.19,1.034,0.352,1.54.748,1.54,1.5a1.605,1.605,0,0,1-1.848,1.475,2.651,2.651,0,0,1-2.509-1.563Zm11.088,1.651h1.672v-5.083a3.789,3.789,0,0,1,.572-2.6,3.006,3.006,0,0,1,2.4-1.057c1.76,0,2.574.969,2.574,2.949v5.787h1.716v-6.689c0-2.223-1.408-3.5-3.7-3.5a4.041,4.041,0,0,0-3.587,1.871V369h-1.65v16.657Zm22.507-9.836h-1.672v1.849a3.8,3.8,0,0,0-3.608-2.2c-2.751,0-4.621,2-4.621,5.3,0,3.213,1.892,5.3,4.709,5.3a3.956,3.956,0,0,0,3.564-2.2v1.783H390.9v-9.836Zm-1.628,5.017c0,2.266-1.232,3.565-3.212,3.565-2.091,0-3.279-1.343-3.279-3.719,0-2.244,1.188-3.542,3.213-3.542C387.881,377.139,389.267,378.547,389.267,380.835Zm6.093,9.615h1.672v-6.579a3.793,3.793,0,0,0,3.586,2.2c2.751,0,4.643-1.98,4.643-5.3,0-3.234-1.892-5.3-4.709-5.3a3.964,3.964,0,0,0-3.586,2.2v-1.849H395.36V390.45Zm1.628-9.681c0-2.332,1.276-3.675,3.3-3.675,1.959,0,3.191,1.409,3.191,3.873,0,2.178-1.21,3.455-3.169,3.455C398.33,384.422,396.988,382.991,396.988,380.769Zm20.835,0.22v-0.33c0-3.256-1.849-5.215-4.731-5.215-2.86,0-4.907,2.157-4.907,5.259,0,3.212,2.025,5.369,5.017,5.369a4.908,4.908,0,0,0,4.555-2.685l-1.276-.858a3.6,3.6,0,0,1-3.191,2.135,3.23,3.23,0,0,1-3.256-3.521v-0.154h7.789Zm-1.805-1.364h-5.984a2.88,2.88,0,0,1,2.992-2.707A2.7,2.7,0,0,1,416.018,379.625Zm22.177-3.807h-1.673v1.849a3.8,3.8,0,0,0-3.608-2.2c-2.751,0-4.621,2-4.621,5.3,0,3.213,1.892,5.3,4.709,5.3a3.956,3.956,0,0,0,3.564-2.2v1.783H438.2v-9.836Zm-1.629,5.017c0,2.266-1.232,3.565-3.212,3.565-2.09,0-3.279-1.343-3.279-3.719,0-2.244,1.189-3.542,3.213-3.542C435.18,377.139,436.566,378.547,436.566,380.835Zm6.533,4.819h1.716v-8.449h2.575v-1.387h-2.619V373.2c0-1.892.044-2.794,1.3-2.794a2.7,2.7,0,0,1,1.321.352v-1.739a4.561,4.561,0,0,0-1.453-.22c-2.354,0-2.838,1.233-2.838,4.181v2.838h-1.892v1.387H443.1v8.449Zm7.282-8.449v8.449H452.1v-8.449h1.8v-1.387h-1.8v-3.96h-1.716v3.96h-1.8v1.387h1.8Zm15.313,3.784v-0.33c0-3.256-1.849-5.215-4.731-5.215-2.86,0-4.907,2.157-4.907,5.259,0,3.212,2.025,5.369,5.017,5.369a4.909,4.909,0,0,0,4.555-2.685l-1.277-.858a3.6,3.6,0,0,1-3.19,2.135,3.231,3.231,0,0,1-3.257-3.521v-0.154h7.79Zm-1.805-1.364H457.9a2.881,2.881,0,0,1,2.993-2.707A2.7,2.7,0,0,1,463.889,379.625Zm5.455,6.029h1.672v-4.8c0-2.574.881-3.851,2.663-3.851a3.164,3.164,0,0,1,1.034.2l0.572-1.519a3.383,3.383,0,0,0-1.144-.2c-1.5,0-2.42.7-3.3,2.377v-2.047h-1.5v9.836Zm30.076,0h1.672v-6.689a3.205,3.205,0,0,0-3.5-3.5,3.888,3.888,0,0,0-3.5,2,3.31,3.31,0,0,0-3.3-2,3.824,3.824,0,0,0-3.411,1.871v-1.519h-1.65v9.836h1.628v-5.083a3.98,3.98,0,0,1,.528-2.6,2.789,2.789,0,0,1,2.245-1.057c1.672,0,2.442.969,2.442,2.949v5.787h1.628v-5.083a3.978,3.978,0,0,1,.55-2.6,2.746,2.746,0,0,1,2.223-1.057c1.672,0,2.442.969,2.442,2.949v5.787Zm7.654-9.836h-1.76v5.743c0,2.971,1.562,4.511,4.467,4.511,2.948,0,4.488-1.54,4.488-4.511v-5.743h-1.716v4.841c0,2.6-.572,3.807-2.728,3.807s-2.751-1.211-2.751-3.807v-4.841Zm11.638,9.836h1.716V369h-1.716v16.657Zm6.6-8.449v8.449h1.716v-8.449h1.8v-1.387h-1.8v-3.96h-1.716v3.96h-1.805v1.387h1.805Zm6.621,8.449h1.7v-9.836h-1.7v9.836Zm-0.4-14.566a1.233,1.233,0,0,0,2.465.022,1.25,1.25,0,0,0-1.233-1.255A1.231,1.231,0,0,0,531.537,371.088Zm6.732,19.362h1.672v-6.579a3.794,3.794,0,0,0,3.587,2.2c2.75,0,4.643-1.98,4.643-5.3,0-3.234-1.893-5.3-4.709-5.3a3.966,3.966,0,0,0-3.587,2.2v-1.849h-1.606V390.45Zm1.628-9.681c0-2.332,1.277-3.675,3.3-3.675,1.958,0,3.19,1.409,3.19,3.873,0,2.178-1.21,3.455-3.168,3.455C541.24,384.422,539.9,382.991,539.9,380.769Zm12.144,4.885h1.716V369h-1.716v16.657Zm15.115-4.665v-0.33c0-3.256-1.848-5.215-4.731-5.215-2.86,0-4.906,2.157-4.906,5.259,0,3.212,2.024,5.369,5.016,5.369a4.907,4.907,0,0,0,4.555-2.685l-1.276-.858a3.6,3.6,0,0,1-3.191,2.135,3.23,3.23,0,0,1-3.256-3.521v-0.154h7.789Zm-1.8-1.364h-5.985a2.88,2.88,0,0,1,2.992-2.707A2.7,2.7,0,0,1,565.352,379.625ZM370.357,405.466h-0.264l-2.992,7.063-2.619-6.711h-1.87l4.379,10.452,3.234-7.547,3.235,7.547,4.378-10.452h-1.892l-2.64,6.711Zm19.448,0.352h-1.672v1.849a3.8,3.8,0,0,0-3.608-2.2c-2.751,0-4.621,2-4.621,5.3,0,3.213,1.892,5.3,4.709,5.3a3.956,3.956,0,0,0,3.564-2.2v1.783h1.628v-9.836Zm-1.628,5.017c0,2.266-1.232,3.565-3.212,3.565-2.091,0-3.279-1.343-3.279-3.719,0-2.244,1.188-3.542,3.213-3.542C386.791,407.139,388.177,408.547,388.177,410.835ZM393.236,414a4.05,4.05,0,0,0,3.872,2.068c2.178,0,3.587-1.3,3.587-3.125,0-1.606-.946-2.31-2.861-2.926-1.628-.528-2.53-0.66-2.53-1.694a1.517,1.517,0,0,1,1.672-1.475,2.328,2.328,0,0,1,2.244,1.409l1.365-.836a3.517,3.517,0,0,0-3.5-1.959c-2.09,0-3.476,1.254-3.476,2.971,0,1.936,1.452,2.354,3.872,3.19,1.034,0.352,1.54.748,1.54,1.5a1.605,1.605,0,0,1-1.848,1.475,2.651,2.651,0,0,1-2.508-1.563Zm11.088,1.65H406v-5.083a3.789,3.789,0,0,1,.572-2.6,3,3,0,0,1,2.4-1.056c1.761,0,2.575.968,2.575,2.948v5.787h1.716v-6.689c0-2.223-1.408-3.5-3.7-3.5a4.038,4.038,0,0,0-3.586,1.871V399h-1.65v16.657Zm22.133-4.665v-0.33c0-3.256-1.849-5.215-4.731-5.215-2.86,0-4.907,2.157-4.907,5.259,0,3.212,2.025,5.369,5.017,5.369a4.908,4.908,0,0,0,4.555-2.685l-1.276-.858a3.6,3.6,0,0,1-3.191,2.135,3.23,3.23,0,0,1-3.256-3.521v-0.154h7.789Zm-1.8-1.364h-5.985a2.879,2.879,0,0,1,2.992-2.706A2.7,2.7,0,0,1,424.653,409.625Zm4.4,4.379a4.05,4.05,0,0,0,3.873,2.068c2.178,0,3.586-1.3,3.586-3.125,0-1.606-.946-2.31-2.86-2.926-1.628-.528-2.531-0.66-2.531-1.694a1.518,1.518,0,0,1,1.673-1.475,2.328,2.328,0,0,1,2.244,1.409l1.364-.836a3.516,3.516,0,0,0-3.5-1.959c-2.091,0-3.477,1.254-3.477,2.971,0,1.936,1.452,2.354,3.873,3.19,1.034,0.352,1.54.748,1.54,1.5a1.605,1.605,0,0,1-1.848,1.475,2.652,2.652,0,0,1-2.509-1.563Zm27.832-8.186H455.21v1.849a3.8,3.8,0,0,0-3.608-2.2c-2.751,0-4.621,2-4.621,5.3,0,3.213,1.892,5.3,4.709,5.3a3.956,3.956,0,0,0,3.564-2.2v1.783h1.629v-9.836Zm-1.629,5.017c0,2.266-1.232,3.565-3.212,3.565-2.09,0-3.279-1.343-3.279-3.719,0-2.244,1.189-3.542,3.213-3.542C453.868,407.139,455.254,408.547,455.254,410.835Zm6.093,4.819h1.672v-5.083a3.789,3.789,0,0,1,.572-2.6,3,3,0,0,1,2.4-1.056c1.76,0,2.574.968,2.574,2.948v5.787h1.716v-6.689c0-2.223-1.408-3.5-3.7-3.5A4.039,4.039,0,0,0,463,407.337v-1.519h-1.65v9.836ZM483.854,399h-1.672v8.67a3.793,3.793,0,0,0-3.587-2.2c-2.75,0-4.642,2-4.642,5.3,0,3.213,1.892,5.3,4.708,5.3a3.973,3.973,0,0,0,3.565-2.2v1.783h1.628V399Zm-1.628,11.794c0,2.332-1.276,3.653-3.3,3.653-1.958,0-3.19-1.409-3.19-3.873,0-2.178,1.21-3.432,3.168-3.432C480.884,407.139,482.226,408.569,482.226,410.791ZM502,405.466h-0.264l-2.992,7.063-2.619-6.711h-1.87l4.379,10.452,3.234-7.547,3.235,7.547,4.378-10.452h-1.892l-2.64,6.711Zm19.074,5.523v-0.33c0-3.256-1.848-5.215-4.73-5.215-2.861,0-4.907,2.157-4.907,5.259,0,3.212,2.024,5.369,5.017,5.369a4.906,4.906,0,0,0,4.554-2.685l-1.276-.858a3.6,3.6,0,0,1-3.19,2.135,3.231,3.231,0,0,1-3.257-3.521v-0.154h7.789Zm-1.8-1.364h-5.985a2.88,2.88,0,0,1,2.993-2.706A2.7,2.7,0,0,1,519.273,409.625Zm14.586-3.807h-1.672v1.849a3.8,3.8,0,0,0-3.608-2.2c-2.751,0-4.621,2-4.621,5.3,0,3.213,1.892,5.3,4.709,5.3a3.956,3.956,0,0,0,3.564-2.2v1.783h1.628v-9.836Zm-1.628,5.017c0,2.266-1.232,3.565-3.212,3.565-2.091,0-3.279-1.343-3.279-3.719,0-2.244,1.188-3.542,3.213-3.542C530.845,407.139,532.231,408.547,532.231,410.835Zm6.115,4.819h1.672v-4.8c0-2.574.88-3.85,2.662-3.85a3.161,3.161,0,0,1,1.034.2l0.573-1.519a3.393,3.393,0,0,0-1.145-.2c-1.5,0-2.42.7-3.3,2.377v-2.047h-1.5v9.836Zm7.765-1.65a4.052,4.052,0,0,0,3.873,2.068c2.178,0,3.587-1.3,3.587-3.125,0-1.606-.947-2.31-2.861-2.926-1.628-.528-2.53-0.66-2.53-1.694a1.517,1.517,0,0,1,1.672-1.475,2.328,2.328,0,0,1,2.244,1.409l1.365-.836a3.518,3.518,0,0,0-3.5-1.959c-2.09,0-3.476,1.254-3.476,2.971,0,1.936,1.452,2.354,3.872,3.19,1.034,0.352,1.54.748,1.54,1.5a1.605,1.605,0,0,1-1.848,1.475,2.651,2.651,0,0,1-2.508-1.563Zm11.331,0.594a1.245,1.245,0,0,0,1.276,1.254,1.264,1.264,0,0,0,1.3-1.254A1.287,1.287,0,0,0,557.442,414.6Z"/><path id="RETAINS_FIT" data-name="RETAINS FIT" class="cls-2" d="M363.167,313.458V309.7h0.781c1.62,0,2.36.48,2.36,1.98,0,1.26-.78,1.78-2.42,1.78h-0.721ZM359.507,321h3.66v-5.6l3.281,5.6h4.4l-3.9-5.761a3.79,3.79,0,0,0,3.2-4.081,4.246,4.246,0,0,0-1.6-3.5c-1.221-.94-2.741-0.96-4.721-0.96h-4.321V321Zm21.819,0h8.762v-3.2h-4.961v-2.42h4.681v-3.061h-4.681v-2.48h4.961V306.7h-8.762V321Zm22.4,0h3.9V310.078h3.2V306.7H400.546v3.381h3.181V321Zm15.484,0h3.881l0.74-2.561h5.541l0.72,2.561h3.881l-4.941-14.3h-4.881Zm5.461-5.341,1.44-4.721c0.06-.22.24-0.86,0.5-1.921q0.39,1.591.48,1.921l1.461,4.721h-3.881ZM444.431,321h3.941V306.7h-3.941V321Zm16.08,0h3.761v-7.062a23.723,23.723,0,0,0-.221-2.82,20.3,20.3,0,0,0,1.3,2.5l5.4,7.382h3.741V306.7h-3.741v7.061a23.693,23.693,0,0,0,.22,2.821,21.552,21.552,0,0,0-1.3-2.521l-5.4-7.361h-3.761V321Zm26.68-4.621-1.761,2.9a6.861,6.861,0,0,0,5.081,2.1c3.361,0,5.481-2.06,5.481-5.041,0-2.641-1.4-3.581-3.94-4.261-1.3-.34-2.281-0.56-2.281-1.58a1.366,1.366,0,0,1,1.58-1.2,4.338,4.338,0,0,1,2.741,1.141l1.22-2.8a7.224,7.224,0,0,0-4.241-1.28A4.58,4.58,0,0,0,486.13,311c0,2.24,1.261,3.281,3.841,3.961,1.621,0.42,2.4.76,2.4,1.9a1.579,1.579,0,0,1-1.781,1.48A4.706,4.706,0,0,1,487.191,316.379ZM522.43,321h3.8v-5.621h4.681v-3.061h-4.681v-2.48h4.961V306.7H522.43V321Zm19.98,0h3.941V306.7H542.41V321Zm18.14,0h3.9V310.078h3.2V306.7H557.37v3.381h3.18V321Z"/><path id="Minimal_water_penetration_keeps_you_dry_all_day." data-name="Minimal water penetration keeps you dry all day." class="cls-1" d="M106.515,740.27l4.863-11.31,2,10.694h1.827l-3.191-16.349-5.5,13-5.5-13-3.19,16.349H99.65l1.981-10.694Zm12.121-.616h1.694v-9.836h-1.694v9.836Zm-0.4-14.566a1.232,1.232,0,0,0,2.464.022,1.25,1.25,0,0,0-1.232-1.255A1.231,1.231,0,0,0,118.24,725.088Zm6.732,14.566h1.672v-5.083a3.789,3.789,0,0,1,.572-2.6,3,3,0,0,1,2.4-1.057c1.76,0,2.574.969,2.574,2.949v5.787h1.716v-6.689c0-2.223-1.408-3.5-3.7-3.5a4.039,4.039,0,0,0-3.587,1.871v-1.519h-1.65v9.836Zm13.442,0h1.694v-9.836h-1.694v9.836Zm-0.4-14.566a1.232,1.232,0,0,0,2.464.022,1.25,1.25,0,0,0-1.232-1.255A1.231,1.231,0,0,0,138.018,725.088Zm20.417,14.566h1.673v-6.689a3.206,3.206,0,0,0-3.5-3.5,3.887,3.887,0,0,0-3.5,2,3.311,3.311,0,0,0-3.3-2,3.823,3.823,0,0,0-3.41,1.871v-1.519h-1.651v9.836h1.629v-5.083a3.98,3.98,0,0,1,.528-2.6,2.787,2.787,0,0,1,2.244-1.057c1.672,0,2.442.969,2.442,2.949v5.787h1.629v-5.083a3.978,3.978,0,0,1,.55-2.6,2.744,2.744,0,0,1,2.222-1.057c1.672,0,2.442.969,2.442,2.949v5.787Zm15.224-9.836h-1.673v1.849a3.8,3.8,0,0,0-3.608-2.2c-2.751,0-4.621,2-4.621,5.3,0,3.212,1.892,5.3,4.709,5.3a3.957,3.957,0,0,0,3.564-2.2v1.782h1.629v-9.836Zm-1.629,5.017c0,2.266-1.232,3.565-3.212,3.565-2.09,0-3.279-1.343-3.279-3.719,0-2.244,1.189-3.542,3.213-3.542C170.644,731.139,172.03,732.547,172.03,734.835Zm6.181,4.819h1.716V723h-1.716v16.657Zm19.955-10.188H197.9l-2.993,7.063-2.618-6.711H190.42L194.8,740.27l3.235-7.547,3.234,7.547,4.379-10.452h-1.893l-2.64,6.711Zm19.448,0.352h-1.673v1.849a3.8,3.8,0,0,0-3.608-2.2c-2.75,0-4.621,2-4.621,5.3,0,3.212,1.893,5.3,4.709,5.3a3.957,3.957,0,0,0,3.564-2.2v1.782h1.629v-9.836Zm-1.629,5.017c0,2.266-1.232,3.565-3.212,3.565-2.09,0-3.278-1.343-3.278-3.719,0-2.244,1.188-3.542,3.212-3.542C214.6,731.139,215.985,732.547,215.985,734.835Zm6.357-3.63v8.449h1.716v-8.449h1.805v-1.387h-1.805v-3.96h-1.716v3.96h-1.8v1.387h1.8Zm15.313,3.784v-0.33c0-3.256-1.848-5.215-4.731-5.215-2.86,0-4.906,2.157-4.906,5.259,0,3.213,2.024,5.369,5.016,5.369a4.907,4.907,0,0,0,4.555-2.685l-1.276-.858a3.6,3.6,0,0,1-3.191,2.135,3.23,3.23,0,0,1-3.256-3.521v-0.154h7.789Zm-1.8-1.364h-5.985a2.88,2.88,0,0,1,2.992-2.707A2.7,2.7,0,0,1,235.851,733.625Zm5.455,6.029h1.672v-4.8c0-2.574.88-3.85,2.662-3.85a3.135,3.135,0,0,1,1.034.2l0.572-1.519a3.383,3.383,0,0,0-1.144-.2c-1.5,0-2.42.7-3.3,2.377v-2.047h-1.5v9.836ZM79.873,774.45h1.672v-6.579a3.793,3.793,0,0,0,3.587,2.2c2.75,0,4.643-1.98,4.643-5.3,0-3.234-1.892-5.3-4.709-5.3a3.965,3.965,0,0,0-3.586,2.2v-1.849H79.873V774.45Zm1.628-9.681c0-2.332,1.276-3.675,3.3-3.675,1.958,0,3.19,1.409,3.19,3.873,0,2.178-1.21,3.455-3.168,3.455C82.843,768.422,81.5,766.991,81.5,764.769Zm20.835,0.22v-0.33c0-3.256-1.849-5.215-4.731-5.215-2.86,0-4.907,2.157-4.907,5.259,0,3.212,2.024,5.369,5.017,5.369a4.909,4.909,0,0,0,4.555-2.685l-1.277-.858a3.6,3.6,0,0,1-3.19,2.135,3.23,3.23,0,0,1-3.257-3.521v-0.154h7.79Zm-1.8-1.364H94.547a2.88,2.88,0,0,1,2.992-2.707A2.7,2.7,0,0,1,100.531,763.625Zm5.433,6.029h1.672v-5.083a3.784,3.784,0,0,1,.573-2.6,3,3,0,0,1,2.4-1.057c1.76,0,2.574.969,2.574,2.949v5.787H114.9v-6.689c0-2.223-1.408-3.5-3.7-3.5a4.041,4.041,0,0,0-3.587,1.871v-1.519h-1.65v9.836Zm22.133-4.665v-0.33c0-3.256-1.848-5.215-4.73-5.215-2.861,0-4.907,2.157-4.907,5.259,0,3.212,2.024,5.369,5.017,5.369a4.906,4.906,0,0,0,4.554-2.685l-1.276-.858a3.6,3.6,0,0,1-3.19,2.135,3.23,3.23,0,0,1-3.257-3.521v-0.154H128.1Zm-1.8-1.364h-5.985a2.88,2.88,0,0,1,2.993-2.707A2.7,2.7,0,0,1,126.293,763.625Zm5.7-2.42v8.449h1.716v-8.449h1.8v-1.387h-1.8v-3.96H131.99v3.96h-1.8v1.387h1.8Zm6.556,8.449h1.672v-4.8c0-2.574.88-3.851,2.662-3.851a3.164,3.164,0,0,1,1.034.2l0.572-1.519a3.383,3.383,0,0,0-1.144-.2c-1.5,0-2.42.7-3.3,2.377v-2.047h-1.5v9.836Zm17.953-9.836h-1.672v1.849a3.8,3.8,0,0,0-3.609-2.2c-2.75,0-4.621,2-4.621,5.3,0,3.213,1.893,5.3,4.709,5.3a3.958,3.958,0,0,0,3.565-2.2v1.783H156.5v-9.836Zm-1.628,5.017c0,2.266-1.233,3.565-3.213,3.565-2.09,0-3.278-1.343-3.278-3.719,0-2.244,1.188-3.542,3.212-3.542C153.484,761.139,154.871,762.547,154.871,764.835Zm6.356-3.63v8.449h1.716v-8.449h1.8v-1.387h-1.8v-3.96h-1.716v3.96h-1.8v1.387h1.8Zm6.622,8.449h1.694v-9.836h-1.694v9.836Zm-0.4-14.566a1.232,1.232,0,0,0,2.464.022,1.25,1.25,0,0,0-1.232-1.255A1.231,1.231,0,0,0,167.453,755.088Zm5.94,9.681a5.159,5.159,0,0,0,1.562,3.741,5.27,5.27,0,0,0,3.784,1.562,5.367,5.367,0,0,0,3.785-1.584,5.233,5.233,0,0,0,0-7.459,5.3,5.3,0,0,0-3.785-1.563,5.25,5.25,0,0,0-3.784,1.54A5.172,5.172,0,0,0,173.393,764.769Zm1.782,0a3.557,3.557,0,1,1,3.564,3.719A3.614,3.614,0,0,1,175.175,764.769Zm12.627,4.885h1.673v-5.083a3.789,3.789,0,0,1,.572-2.6,3,3,0,0,1,2.4-1.057c1.76,0,2.574.969,2.574,2.949v5.787h1.717v-6.689c0-2.223-1.409-3.5-3.7-3.5a4.038,4.038,0,0,0-3.586,1.871v-1.519H187.8v9.836Zm20.966,0h1.694v-5.193l5.061,5.193h2.354l-5.346-5.325,4.906-4.511h-2.244l-4.731,4.467V753h-1.694v16.657Zm20.7-4.665v-0.33c0-3.256-1.848-5.215-4.73-5.215-2.861,0-4.907,2.157-4.907,5.259,0,3.212,2.024,5.369,5.017,5.369a4.906,4.906,0,0,0,4.554-2.685l-1.276-.858a3.6,3.6,0,0,1-3.19,2.135,3.23,3.23,0,0,1-3.257-3.521v-0.154h7.789Zm-1.8-1.364h-5.985a2.88,2.88,0,0,1,2.993-2.707A2.7,2.7,0,0,1,227.667,763.625Zm14.212,1.364v-0.33c0-3.256-1.848-5.215-4.731-5.215-2.86,0-4.906,2.157-4.906,5.259,0,3.212,2.024,5.369,5.016,5.369a4.907,4.907,0,0,0,4.555-2.685l-1.276-.858a3.6,3.6,0,0,1-3.191,2.135,3.23,3.23,0,0,1-3.256-3.521v-0.154h7.789Zm-1.8-1.364H234.09a2.88,2.88,0,0,1,2.992-2.707A2.7,2.7,0,0,1,240.075,763.625Zm5.433,10.825h1.672v-6.579a3.793,3.793,0,0,0,3.586,2.2c2.751,0,4.643-1.98,4.643-5.3,0-3.234-1.892-5.3-4.709-5.3a3.964,3.964,0,0,0-3.586,2.2v-1.849h-1.606V774.45Zm1.628-9.681c0-2.332,1.276-3.675,3.3-3.675,1.959,0,3.191,1.409,3.191,3.873,0,2.178-1.21,3.455-3.169,3.455C248.478,768.422,247.136,766.991,247.136,764.769ZM258.157,768a4.051,4.051,0,0,0,3.873,2.068c2.178,0,3.586-1.3,3.586-3.125,0-1.606-.946-2.31-2.86-2.926-1.628-.528-2.53-0.66-2.53-1.694a1.517,1.517,0,0,1,1.672-1.475,2.328,2.328,0,0,1,2.244,1.409l1.364-.836a3.516,3.516,0,0,0-3.5-1.959c-2.09,0-3.477,1.254-3.477,2.971,0,1.936,1.453,2.354,3.873,3.19,1.034,0.352,1.54.748,1.54,1.5A1.605,1.605,0,0,1,262.1,768.6a2.651,2.651,0,0,1-2.508-1.563ZM92.271,804.45h1.892l6.6-14.632H98.916l-3.036,7.063-2.86-7.063H91.083l3.851,8.868Zm10.384-9.681a5.159,5.159,0,0,0,1.562,3.741A5.27,5.27,0,0,0,108,800.072a5.367,5.367,0,0,0,3.784-1.584,5.235,5.235,0,0,0,0-7.46A5.307,5.307,0,0,0,108,789.466a5.247,5.247,0,0,0-3.785,1.541A5.168,5.168,0,0,0,102.655,794.769Zm1.782,0A3.557,3.557,0,1,1,108,798.488,3.613,3.613,0,0,1,104.437,794.769Zm14.212-4.951h-1.76v5.743c0,2.971,1.562,4.511,4.466,4.511,2.949,0,4.489-1.54,4.489-4.511v-5.743h-1.716v4.841c0,2.6-.572,3.807-2.729,3.807s-2.75-1.211-2.75-3.807v-4.841ZM146.942,783H145.27v8.67a3.8,3.8,0,0,0-3.587-2.2c-2.75,0-4.643,2-4.643,5.3,0,3.213,1.893,5.3,4.709,5.3a3.974,3.974,0,0,0,3.565-2.2v1.783h1.628V783Zm-1.628,11.794c0,2.332-1.277,3.653-3.3,3.653-1.958,0-3.19-1.409-3.19-3.873,0-2.178,1.21-3.432,3.168-3.432C143.971,791.139,145.314,792.569,145.314,794.791Zm6.18,4.863h1.673v-4.8c0-2.574.88-3.85,2.662-3.85a3.161,3.161,0,0,1,1.034.2l0.572-1.519a3.383,3.383,0,0,0-1.144-.2c-1.5,0-2.42.7-3.3,2.377v-2.047h-1.5v9.836Zm8.4,4.8h1.892l6.6-14.632h-1.848l-3.036,7.063-2.861-7.063H158.71l3.851,8.868Zm27.919-14.632h-1.672v1.849a3.8,3.8,0,0,0-3.608-2.2c-2.751,0-4.621,2-4.621,5.3,0,3.213,1.892,5.3,4.708,5.3a3.956,3.956,0,0,0,3.565-2.2v1.783h1.628v-9.836Zm-1.628,5.017c0,2.266-1.232,3.565-3.212,3.565-2.091,0-3.279-1.343-3.279-3.719,0-2.244,1.188-3.542,3.213-3.542C184.8,791.139,186.189,792.547,186.189,794.835Zm6.181,4.819h1.716V783H192.37v16.657Zm6.423,0h1.717V783h-1.717v16.657ZM221.872,783H220.2v8.67a3.793,3.793,0,0,0-3.586-2.2c-2.751,0-4.643,2-4.643,5.3,0,3.213,1.892,5.3,4.709,5.3a3.972,3.972,0,0,0,3.564-2.2v1.783h1.628V783Zm-1.628,11.794c0,2.332-1.276,3.653-3.3,3.653-1.959,0-3.191-1.409-3.191-3.873,0-2.178,1.21-3.432,3.169-3.432C218.9,791.139,220.244,792.569,220.244,794.791Zm15.312-4.973h-1.672v1.849a3.8,3.8,0,0,0-3.609-2.2c-2.75,0-4.62,2-4.62,5.3,0,3.213,1.892,5.3,4.708,5.3a3.956,3.956,0,0,0,3.565-2.2v1.783h1.628v-9.836Zm-1.628,5.017c0,2.266-1.232,3.565-3.212,3.565-2.091,0-3.279-1.343-3.279-3.719,0-2.244,1.188-3.542,3.213-3.542C232.542,791.139,233.928,792.547,233.928,794.835Zm5.7,9.615h1.892l6.6-14.632h-1.849l-3.036,7.063-2.86-7.063h-1.937l3.851,8.868ZM249.1,798.6a1.245,1.245,0,0,0,1.277,1.254,1.264,1.264,0,0,0,1.3-1.254A1.288,1.288,0,0,0,249.1,798.6Z"/><path id="WATER_RESISTANT" data-name="WATER RESISTANT" class="cls-2" d="M132.344,666.7H129.2l-1.8,6.841c-0.18.681-.36,1.4-0.5,2.141-0.12-.7-0.26-1.42-0.44-2.141l-1.641-6.841h-3.941l4.041,14.3h3.621l1.741-6.1c0.16-.54.3-1.181,0.48-1.921q0.33,1.38.48,1.921L133,681h3.621l4.041-14.3h-3.941l-1.68,6.8c-0.12.5-.261,1.2-0.441,2.1a21.045,21.045,0,0,0-.46-2.1ZM148.95,681h3.881l0.74-2.561h5.541l0.72,2.561h3.881l-4.941-14.3h-4.881Zm5.461-5.341,1.441-4.721c0.06-.22.24-0.86,0.5-1.921q0.39,1.591.48,1.921l1.46,4.721h-3.881ZM175.3,681h3.9V670.078h3.2V666.7H172.115v3.381H175.3V681Zm18,0h8.762v-3.2H197.1v-2.42h4.681v-3.061H197.1v-2.48h4.961V666.7H193.3V681Zm24-7.542V669.7h0.78c1.62,0,2.36.48,2.36,1.98,0,1.26-.78,1.78-2.42,1.78H217.3ZM213.635,681H217.3v-5.6l3.28,5.6h4.4l-3.9-5.761a3.79,3.79,0,0,0,3.2-4.081,4.246,4.246,0,0,0-1.6-3.5c-1.221-.94-2.741-0.96-4.721-0.96h-4.321V681ZM88.517,697.458V693.7H89.3c1.62,0,2.361.48,2.361,1.98,0,1.26-.78,1.78-2.421,1.78h-0.72ZM84.857,705h3.661v-5.6L91.8,705h4.4l-3.9-5.761a3.79,3.79,0,0,0,3.2-4.081,4.246,4.246,0,0,0-1.6-3.5c-1.22-.94-2.741-0.96-4.721-0.96H84.857V705Zm21.82,0h8.762v-3.2h-4.961v-2.42h4.681v-3.061h-4.681v-2.48h4.961V690.7h-8.762V705Zm20.98-4.621-1.76,2.9a6.858,6.858,0,0,0,5.081,2.1c3.361,0,5.481-2.06,5.481-5.041,0-2.641-1.4-3.581-3.941-4.261-1.3-.34-2.28-0.56-2.28-1.58a1.366,1.366,0,0,1,1.58-1.2,4.342,4.342,0,0,1,2.741,1.141l1.22-2.8a7.226,7.226,0,0,0-4.241-1.28A4.58,4.58,0,0,0,126.6,695c0,2.24,1.26,3.281,3.841,3.961,1.62,0.42,2.4.76,2.4,1.9a1.579,1.579,0,0,1-1.78,1.48A4.707,4.707,0,0,1,127.656,700.379ZM147.736,705h3.941V690.7h-3.941V705Zm16.72-4.621-1.76,2.9a6.858,6.858,0,0,0,5.081,2.1c3.36,0,5.481-2.06,5.481-5.041,0-2.641-1.4-3.581-3.941-4.261-1.3-.34-2.281-0.56-2.281-1.58a1.367,1.367,0,0,1,1.581-1.2,4.337,4.337,0,0,1,2.74,1.141l1.221-2.8a7.228,7.228,0,0,0-4.241-1.28A4.58,4.58,0,0,0,163.4,695c0,2.24,1.26,3.281,3.841,3.961,1.62,0.42,2.4.76,2.4,1.9a1.579,1.579,0,0,1-1.78,1.48A4.706,4.706,0,0,1,164.456,700.379ZM186.5,705h3.9V694.078h3.2V690.7H183.315v3.381H186.5V705Zm15.484,0h3.881l0.74-2.561h5.541L212.863,705h3.88L211.8,690.7h-4.881Zm5.461-5.341,1.441-4.721c0.06-.22.24-0.86,0.5-1.921q0.39,1.591.48,1.921l1.46,4.721h-3.881ZM227.1,705h3.761v-7.062a23.694,23.694,0,0,0-.22-2.82,20.212,20.212,0,0,0,1.3,2.5l5.4,7.382h3.741V690.7h-3.741v7.061a23.693,23.693,0,0,0,.22,2.821,21.552,21.552,0,0,0-1.3-2.521l-5.4-7.361H227.1V705Zm28.1,0h3.9V694.078h3.2V690.7H252.02v3.381H255.2V705Z"/><path id="Ultra-tough_defense_against_spills_and_stains_for_worry-free_we" data-name="Ultra-tough defense against spills and stains for worry-free we" class="cls-1" d="M358.828,723.921v9.792c0,4.247,2,6.359,6.1,6.359s6.095-2.112,6.095-6.359v-9.792h-1.892v9.792c0,3.146-1.276,4.621-4.2,4.621s-4.2-1.475-4.2-4.621v-9.792h-1.893Zm16.918,15.733h1.716V723h-1.716v16.657Zm6.6-8.449v8.449h1.716v-8.449h1.8v-1.387h-1.8v-3.96h-1.716v3.96h-1.8v1.387h1.8Zm6.556,8.449h1.672v-4.8c0-2.574.88-3.85,2.662-3.85a3.135,3.135,0,0,1,1.034.2l0.573-1.519a3.393,3.393,0,0,0-1.145-.2c-1.5,0-2.42.7-3.3,2.377v-2.047h-1.5v9.836Zm17.953-9.836h-1.672v1.849a3.8,3.8,0,0,0-3.609-2.2c-2.75,0-4.62,2-4.62,5.3,0,3.212,1.892,5.3,4.708,5.3a3.958,3.958,0,0,0,3.565-2.2v1.782h1.628v-9.836Zm-1.628,5.017c0,2.266-1.232,3.565-3.213,3.565-2.09,0-3.278-1.343-3.278-3.719,0-2.244,1.188-3.542,3.212-3.542C403.841,731.139,405.227,732.547,405.227,734.835Zm5.894-.924v1.694h5.017v-1.694h-5.017Zm9.614-2.706v8.449h1.717v-8.449h1.8v-1.387h-1.8v-3.96h-1.717v3.96h-1.8v1.387h1.8Zm5.742,3.564a5.159,5.159,0,0,0,1.562,3.741,5.27,5.27,0,0,0,3.785,1.562,5.367,5.367,0,0,0,3.784-1.584,5.235,5.235,0,0,0,0-7.46,5.307,5.307,0,0,0-3.784-1.562,5.247,5.247,0,0,0-3.785,1.541A5.168,5.168,0,0,0,426.477,734.769Zm1.782,0a3.557,3.557,0,1,1,3.565,3.719A3.613,3.613,0,0,1,428.259,734.769Zm14.212-4.951h-1.76v5.743c0,2.971,1.562,4.511,4.466,4.511,2.949,0,4.489-1.54,4.489-4.511v-5.743H447.95v4.841c0,2.6-.572,3.807-2.729,3.807s-2.75-1.211-2.75-3.807v-4.841Zm20.7,0H461.5v1.827a3.82,3.82,0,0,0-3.609-2.179c-2.75,0-4.621,1.959-4.621,5.237,0,3.19,1.893,5.259,4.709,5.259a3.952,3.952,0,0,0,3.565-2.179v1.651a4.194,4.194,0,0,1-.418,2.244,3.029,3.029,0,0,1-2.817,1.3c-1.892,0-2.926-.858-2.926-2.31v-0.132h-1.893c0.066,2.464,1.783,3.916,4.8,3.916a5.163,5.163,0,0,0,3.961-1.474c0.924-.99.924-2.09,0.924-3.5v-9.66Zm-1.628,4.951c0,2.266-1.233,3.587-3.213,3.587-2.09,0-3.278-1.343-3.278-3.719,0-2.244,1.188-3.542,3.212-3.542C460.159,731.1,461.546,732.481,461.546,734.769Zm6.137,4.885h1.672v-5.083a3.789,3.789,0,0,1,.572-2.6,3,3,0,0,1,2.4-1.057c1.76,0,2.575.969,2.575,2.949v5.787h1.716v-6.689c0-2.223-1.408-3.5-3.7-3.5a4.038,4.038,0,0,0-3.586,1.871V723h-1.65v16.657ZM497.78,723h-1.673v8.67a3.793,3.793,0,0,0-3.586-2.2c-2.751,0-4.643,2-4.643,5.3,0,3.212,1.892,5.3,4.709,5.3a3.972,3.972,0,0,0,3.564-2.2v1.782h1.629V723Zm-1.629,11.794c0,2.332-1.276,3.653-3.3,3.653-1.958,0-3.191-1.409-3.191-3.873,0-2.178,1.211-3.432,3.169-3.432C494.809,731.139,496.151,732.569,496.151,734.791Zm14.938,0.2v-0.33c0-3.256-1.848-5.215-4.73-5.215-2.861,0-4.907,2.157-4.907,5.259,0,3.213,2.024,5.369,5.017,5.369a4.906,4.906,0,0,0,4.554-2.685l-1.276-.858a3.6,3.6,0,0,1-3.19,2.135,3.23,3.23,0,0,1-3.257-3.521v-0.154h7.789Zm-1.8-1.364H503.3a2.88,2.88,0,0,1,2.993-2.707A2.7,2.7,0,0,1,509.285,733.625Zm5.873,6.029h1.716v-8.449h2.575v-1.387H516.83V727.2c0-1.892.044-2.794,1.3-2.794a2.7,2.7,0,0,1,1.321.352v-1.739A4.561,4.561,0,0,0,518,722.8c-2.354,0-2.838,1.232-2.838,4.181v2.838h-1.892v1.387h1.892v8.449Zm15.8-4.665v-0.33c0-3.256-1.848-5.215-4.731-5.215-2.86,0-4.906,2.157-4.906,5.259,0,3.213,2.024,5.369,5.016,5.369a4.907,4.907,0,0,0,4.555-2.685l-1.276-.858a3.6,3.6,0,0,1-3.191,2.135,3.23,3.23,0,0,1-3.256-3.521v-0.154h7.789Zm-1.8-1.364h-5.985a2.88,2.88,0,0,1,2.992-2.707A2.7,2.7,0,0,1,529.151,733.625Zm5.432,6.029h1.673v-5.083a3.789,3.789,0,0,1,.572-2.6,3,3,0,0,1,2.4-1.057c1.76,0,2.575.969,2.575,2.949v5.787h1.716v-6.689c0-2.223-1.408-3.5-3.7-3.5a4.038,4.038,0,0,0-3.586,1.871v-1.519h-1.651v9.836ZM546.9,738a4.05,4.05,0,0,0,3.873,2.068c2.178,0,3.586-1.3,3.586-3.125,0-1.606-.946-2.31-2.86-2.926-1.628-.528-2.531-0.66-2.531-1.694a1.518,1.518,0,0,1,1.673-1.475,2.328,2.328,0,0,1,2.244,1.409l1.364-.836a3.516,3.516,0,0,0-3.5-1.959c-2.091,0-3.477,1.254-3.477,2.971,0,1.936,1.452,2.354,3.873,3.19,1.034,0.352,1.54.748,1.54,1.5a1.606,1.606,0,0,1-1.848,1.475,2.652,2.652,0,0,1-2.509-1.563Zm19.868-3.015v-0.33c0-3.256-1.849-5.215-4.731-5.215-2.861,0-4.907,2.157-4.907,5.259,0,3.213,2.024,5.369,5.017,5.369a4.906,4.906,0,0,0,4.554-2.685l-1.276-.858a3.6,3.6,0,0,1-3.19,2.135,3.231,3.231,0,0,1-3.257-3.521v-0.154h7.79Zm-1.8-1.364h-5.985a2.881,2.881,0,0,1,2.993-2.707A2.7,2.7,0,0,1,564.966,733.625ZM346.554,759.818h-1.672v1.849a3.8,3.8,0,0,0-3.608-2.2c-2.751,0-4.621,2-4.621,5.3,0,3.213,1.892,5.3,4.709,5.3a3.956,3.956,0,0,0,3.564-2.2v1.783h1.628v-9.836Zm-1.628,5.017c0,2.266-1.232,3.565-3.212,3.565-2.091,0-3.279-1.343-3.279-3.719,0-2.244,1.188-3.542,3.213-3.542C343.54,761.139,344.926,762.547,344.926,764.835Zm15.246-5.017H358.5v1.827a3.819,3.819,0,0,0-3.609-2.179c-2.75,0-4.62,1.959-4.62,5.237,0,3.191,1.892,5.259,4.708,5.259a3.951,3.951,0,0,0,3.565-2.179v1.651a4.194,4.194,0,0,1-.418,2.244,3.028,3.028,0,0,1-2.817,1.3c-1.892,0-2.926-.858-2.926-2.31v-0.132h-1.892c0.066,2.464,1.782,3.916,4.8,3.916a5.162,5.162,0,0,0,3.961-1.474c0.924-.99.924-2.09,0.924-3.5v-9.66Zm-1.628,4.951c0,2.266-1.232,3.587-3.213,3.587-2.09,0-3.278-1.343-3.278-3.719,0-2.244,1.188-3.543,3.212-3.543C357.158,761.094,358.544,762.481,358.544,764.769Zm15.29-4.951h-1.672v1.849a3.8,3.8,0,0,0-3.609-2.2c-2.75,0-4.62,2-4.62,5.3,0,3.213,1.892,5.3,4.708,5.3a3.956,3.956,0,0,0,3.565-2.2v1.783h1.628v-9.836Zm-1.628,5.017c0,2.266-1.232,3.565-3.213,3.565-2.09,0-3.278-1.343-3.278-3.719,0-2.244,1.188-3.542,3.212-3.542C370.82,761.139,372.206,762.547,372.206,764.835Zm6.18,4.819h1.695v-9.836h-1.695v9.836Zm-0.4-14.566a1.233,1.233,0,0,0,2.465.022,1.25,1.25,0,0,0-1.232-1.255A1.231,1.231,0,0,0,377.99,755.088Zm6.732,14.566h1.672v-5.083a3.784,3.784,0,0,1,.573-2.6,3,3,0,0,1,2.4-1.057c1.76,0,2.574.969,2.574,2.949v5.787h1.716v-6.689c0-2.223-1.408-3.5-3.7-3.5a4.041,4.041,0,0,0-3.587,1.871v-1.519h-1.65v9.836Zm12.32-1.65a4.05,4.05,0,0,0,3.872,2.068c2.179,0,3.587-1.3,3.587-3.125,0-1.606-.946-2.31-2.86-2.926-1.629-.528-2.531-0.66-2.531-1.694a1.517,1.517,0,0,1,1.672-1.475,2.328,2.328,0,0,1,2.245,1.409l1.364-.836a3.516,3.516,0,0,0-3.5-1.959c-2.09,0-3.476,1.254-3.476,2.971,0,1.936,1.452,2.354,3.872,3.19,1.035,0.352,1.541.748,1.541,1.5a1.606,1.606,0,0,1-1.849,1.475,2.651,2.651,0,0,1-2.508-1.563Zm11.352-6.8v8.449h1.716v-8.449h1.805v-1.387H410.11v-3.96h-1.716v3.96h-1.8v1.387h1.8Zm13.089,6.8a4.052,4.052,0,0,0,3.873,2.068c2.178,0,3.587-1.3,3.587-3.125,0-1.606-.947-2.31-2.861-2.926-1.628-.528-2.53-0.66-2.53-1.694a1.517,1.517,0,0,1,1.672-1.475,2.328,2.328,0,0,1,2.244,1.409l1.365-.836a3.518,3.518,0,0,0-3.5-1.959c-2.09,0-3.476,1.254-3.476,2.971,0,1.936,1.452,2.354,3.872,3.19,1.034,0.352,1.54.748,1.54,1.5a1.605,1.605,0,0,1-1.848,1.475,2.651,2.651,0,0,1-2.508-1.563Zm11.089,6.446h1.672v-6.579a3.793,3.793,0,0,0,3.586,2.2c2.751,0,4.643-1.98,4.643-5.3,0-3.234-1.892-5.3-4.709-5.3a3.964,3.964,0,0,0-3.586,2.2v-1.849h-1.606V774.45Zm1.628-9.681c0-2.332,1.276-3.675,3.3-3.675,1.959,0,3.191,1.409,3.191,3.873,0,2.178-1.21,3.455-3.169,3.455C435.542,768.422,434.2,766.991,434.2,764.769Zm12.143,4.885h1.695v-9.836h-1.695v9.836Zm-0.4-14.566a1.233,1.233,0,0,0,2.465.022,1.25,1.25,0,0,0-1.232-1.255A1.231,1.231,0,0,0,445.947,755.088Zm6.82,14.566h1.716V753h-1.716v16.657Zm6.424,0h1.716V753h-1.716v16.657Zm5.3-1.65a4.05,4.05,0,0,0,3.872,2.068c2.178,0,3.587-1.3,3.587-3.125,0-1.606-.947-2.31-2.861-2.926-1.628-.528-2.53-0.66-2.53-1.694a1.517,1.517,0,0,1,1.672-1.475,2.328,2.328,0,0,1,2.244,1.409l1.365-.836a3.517,3.517,0,0,0-3.5-1.959c-2.09,0-3.476,1.254-3.476,2.971,0,1.936,1.452,2.354,3.872,3.19,1.034,0.352,1.54.748,1.54,1.5a1.605,1.605,0,0,1-1.848,1.475,2.651,2.651,0,0,1-2.508-1.563Zm27.831-8.186h-1.672v1.849a3.8,3.8,0,0,0-3.609-2.2c-2.75,0-4.621,2-4.621,5.3,0,3.213,1.893,5.3,4.709,5.3a3.957,3.957,0,0,0,3.565-2.2v1.783h1.628v-9.836Zm-1.628,5.017c0,2.266-1.233,3.565-3.213,3.565-2.09,0-3.278-1.343-3.278-3.719,0-2.244,1.188-3.542,3.212-3.542C489.309,761.139,490.7,762.547,490.7,764.835Zm6.092,4.819h1.673v-5.083a3.789,3.789,0,0,1,.572-2.6,3,3,0,0,1,2.4-1.057c1.76,0,2.574.969,2.574,2.949v5.787h1.717v-6.689c0-2.223-1.409-3.5-3.7-3.5a4.041,4.041,0,0,0-3.587,1.871v-1.519h-1.65v9.836ZM519.295,753h-1.672v8.67a3.793,3.793,0,0,0-3.586-2.2c-2.751,0-4.643,2-4.643,5.3,0,3.213,1.892,5.3,4.709,5.3a3.972,3.972,0,0,0,3.564-2.2v1.783h1.628V753Zm-1.628,11.794c0,2.332-1.276,3.653-3.3,3.653-1.959,0-3.191-1.409-3.191-3.873,0-2.178,1.21-3.432,3.169-3.432C516.325,761.139,517.667,762.569,517.667,764.791ZM530.382,768a4.05,4.05,0,0,0,3.872,2.068c2.179,0,3.587-1.3,3.587-3.125,0-1.606-.946-2.31-2.861-2.926-1.628-.528-2.53-0.66-2.53-1.694a1.517,1.517,0,0,1,1.672-1.475,2.329,2.329,0,0,1,2.245,1.409l1.364-.836a3.517,3.517,0,0,0-3.5-1.959c-2.09,0-3.476,1.254-3.476,2.971,0,1.936,1.452,2.354,3.872,3.19,1.034,0.352,1.541.748,1.541,1.5a1.606,1.606,0,0,1-1.849,1.475,2.651,2.651,0,0,1-2.508-1.563Zm11.352-6.8v8.449h1.716v-8.449h1.8v-1.387h-1.8v-3.96h-1.716v3.96h-1.8v1.387h1.8Zm15.687-1.387h-1.672v1.849a3.8,3.8,0,0,0-3.609-2.2c-2.75,0-4.621,2-4.621,5.3,0,3.213,1.893,5.3,4.709,5.3a3.958,3.958,0,0,0,3.565-2.2v1.783h1.628v-9.836Zm-1.628,5.017c0,2.266-1.233,3.565-3.213,3.565-2.09,0-3.278-1.343-3.278-3.719,0-2.244,1.188-3.542,3.212-3.542C554.406,761.139,555.793,762.547,555.793,764.835Zm6.18,4.819h1.694v-9.836h-1.694v9.836Zm-0.4-14.566a1.232,1.232,0,0,0,2.464.022,1.25,1.25,0,0,0-1.232-1.255A1.231,1.231,0,0,0,561.577,755.088Zm6.732,14.566h1.672v-5.083a3.789,3.789,0,0,1,.572-2.6,3,3,0,0,1,2.4-1.057c1.76,0,2.574.969,2.574,2.949v5.787h1.716v-6.689c0-2.223-1.408-3.5-3.7-3.5a4.039,4.039,0,0,0-3.587,1.871v-1.519h-1.65v9.836Zm12.32-1.65a4.05,4.05,0,0,0,3.872,2.068c2.178,0,3.587-1.3,3.587-3.125,0-1.606-.946-2.31-2.861-2.926-1.628-.528-2.53-0.66-2.53-1.694a1.517,1.517,0,0,1,1.672-1.475,2.328,2.328,0,0,1,2.244,1.409l1.365-.836a3.517,3.517,0,0,0-3.5-1.959c-2.09,0-3.476,1.254-3.476,2.971,0,1.936,1.452,2.354,3.872,3.19,1.034,0.352,1.54.748,1.54,1.5a1.605,1.605,0,0,1-1.848,1.475,2.651,2.651,0,0,1-2.508-1.563ZM360.1,799.654h1.717v-8.449h2.574v-1.387h-2.618V787.2c0-1.892.044-2.794,1.3-2.794a2.7,2.7,0,0,1,1.32.352v-1.739a4.555,4.555,0,0,0-1.452-.22c-2.354,0-2.839,1.232-2.839,4.181v2.838h-1.892v1.387H360.1v8.449Zm6.226-4.885a5.159,5.159,0,0,0,1.562,3.741,5.272,5.272,0,0,0,3.785,1.562,5.367,5.367,0,0,0,3.784-1.584,5.232,5.232,0,0,0,0-7.46,5.307,5.307,0,0,0-3.784-1.562,5.249,5.249,0,0,0-3.785,1.541A5.168,5.168,0,0,0,366.326,794.769Zm1.782,0a3.557,3.557,0,1,1,3.565,3.719A3.613,3.613,0,0,1,368.108,794.769Zm12.65,4.885h1.672v-4.8c0-2.574.88-3.85,2.662-3.85a3.171,3.171,0,0,1,1.035.2l0.572-1.519a3.384,3.384,0,0,0-1.145-.2c-1.5,0-2.42.7-3.3,2.377v-2.047h-1.5v9.836Zm22.419-10.188h-0.264l-2.993,7.063-2.618-6.711h-1.871l4.379,10.452,3.235-7.547,3.234,7.547,4.379-10.452h-1.893l-2.64,6.711Zm9.5,5.3a5.159,5.159,0,0,0,1.562,3.741,5.274,5.274,0,0,0,3.785,1.562,5.371,5.371,0,0,0,3.785-1.584,5.235,5.235,0,0,0,0-7.46,5.311,5.311,0,0,0-3.785-1.562,5.251,5.251,0,0,0-3.785,1.541A5.168,5.168,0,0,0,412.679,794.769Zm1.783,0a3.557,3.557,0,1,1,3.564,3.719A3.613,3.613,0,0,1,414.462,794.769Zm12.649,4.885h1.672v-4.8c0-2.574.88-3.85,2.663-3.85a3.161,3.161,0,0,1,1.034.2l0.572-1.519a3.383,3.383,0,0,0-1.144-.2c-1.5,0-2.421.7-3.3,2.377v-2.047h-1.5v9.836Zm8.822,0h1.672v-4.8c0-2.574.88-3.85,2.663-3.85a3.161,3.161,0,0,1,1.034.2l0.572-1.519a3.383,3.383,0,0,0-1.144-.2c-1.5,0-2.421.7-3.3,2.377v-2.047h-1.5v9.836Zm8.4,4.8h1.892l6.6-14.632h-1.848l-3.037,7.063-2.86-7.063h-1.936l3.85,8.868Zm10.569-10.539v1.694h5.017v-1.694h-5.017Zm9.79,5.743h1.717v-8.449h2.574v-1.387h-2.618V787.2c0-1.892.044-2.794,1.3-2.794a2.7,2.7,0,0,1,1.32.352v-1.739a4.555,4.555,0,0,0-1.452-.22c-2.354,0-2.839,1.232-2.839,4.181v2.838H462.8v1.387H464.7v8.449Zm7.04,0h1.672v-4.8c0-2.574.88-3.85,2.663-3.85a3.161,3.161,0,0,1,1.034.2l0.572-1.519a3.383,3.383,0,0,0-1.144-.2c-1.5,0-2.421.7-3.3,2.377v-2.047h-1.5v9.836Zm17.579-4.665v-0.33c0-3.256-1.848-5.215-4.73-5.215-2.861,0-4.907,2.157-4.907,5.259,0,3.212,2.024,5.369,5.017,5.369a4.906,4.906,0,0,0,4.554-2.685l-1.276-.858a3.6,3.6,0,0,1-3.19,2.135,3.23,3.23,0,0,1-3.257-3.521v-0.154h7.789Zm-1.8-1.364h-5.985a2.879,2.879,0,0,1,2.993-2.706A2.7,2.7,0,0,1,487.511,793.625Zm14.212,1.364v-0.33c0-3.256-1.848-5.215-4.731-5.215-2.86,0-4.906,2.157-4.906,5.259,0,3.212,2.024,5.369,5.016,5.369a4.907,4.907,0,0,0,4.555-2.685l-1.276-.858a3.6,3.6,0,0,1-3.191,2.135,3.23,3.23,0,0,1-3.256-3.521v-0.154h7.789Zm-1.8-1.364h-5.985a2.879,2.879,0,0,1,2.992-2.706A2.7,2.7,0,0,1,499.919,793.625Zm19.052-4.159h-0.264l-2.993,7.063-2.618-6.711h-1.871L515.6,800.27l3.235-7.547,3.234,7.547,4.379-10.452h-1.893l-2.64,6.711Zm19.074,5.523v-0.33c0-3.256-1.849-5.215-4.731-5.215-2.86,0-4.907,2.157-4.907,5.259,0,3.212,2.025,5.369,5.017,5.369a4.909,4.909,0,0,0,4.555-2.685l-1.277-.858a3.6,3.6,0,0,1-3.19,2.135,3.23,3.23,0,0,1-3.256-3.521v-0.154h7.789Zm-1.8-1.364h-5.984a2.879,2.879,0,0,1,2.992-2.706A2.7,2.7,0,0,1,536.24,793.625Zm14.587-3.807h-1.673v1.849a3.8,3.8,0,0,0-3.608-2.2c-2.751,0-4.621,2-4.621,5.3,0,3.213,1.892,5.3,4.709,5.3a3.956,3.956,0,0,0,3.564-2.2v1.783h1.629v-9.836Zm-1.629,5.017c0,2.266-1.232,3.565-3.212,3.565-2.09,0-3.279-1.343-3.279-3.719,0-2.244,1.189-3.542,3.213-3.542C547.812,791.139,549.2,792.547,549.2,794.835Zm6.115,4.819h1.672v-4.8c0-2.574.88-3.85,2.662-3.85a3.162,3.162,0,0,1,1.035.2l0.572-1.519a3.383,3.383,0,0,0-1.144-.2c-1.5,0-2.421.7-3.3,2.377v-2.047h-1.5v9.836Zm6.8-1.056a1.245,1.245,0,0,0,1.276,1.254,1.264,1.264,0,0,0,1.3-1.254A1.287,1.287,0,0,0,562.11,798.6Z"/><path id="STAIN_RESISTANT" data-name="STAIN RESISTANT" class="cls-2" d="M416.916,676.379l-1.76,2.9a6.86,6.86,0,0,0,5.081,2.1c3.361,0,5.481-2.06,5.481-5.041,0-2.641-1.4-3.581-3.941-4.261-1.3-.34-2.28-0.56-2.28-1.58a1.366,1.366,0,0,1,1.58-1.2,4.34,4.34,0,0,1,2.741,1.141l1.22-2.8a7.226,7.226,0,0,0-4.241-1.28A4.58,4.58,0,0,0,415.856,671c0,2.24,1.26,3.281,3.841,3.961,1.62,0.42,2.4.76,2.4,1.9a1.579,1.579,0,0,1-1.78,1.48A4.709,4.709,0,0,1,416.916,676.379ZM438.957,681h3.9V670.078h3.2V666.7H435.776v3.381h3.181V681Zm15.484,0h3.88l0.741-2.561H464.6l0.72,2.561H469.2l-4.941-14.3h-4.881Zm5.461-5.341,1.44-4.721c0.06-.22.24-0.86,0.5-1.921q0.39,1.591.48,1.921l1.461,4.721H459.9ZM479.661,681H483.6V666.7h-3.941V681Zm16.08,0h3.76v-7.062a23.694,23.694,0,0,0-.22-2.82,20.139,20.139,0,0,0,1.3,2.5l5.4,7.382h3.741V666.7h-3.741v7.061a23.693,23.693,0,0,0,.22,2.821,21.142,21.142,0,0,0-1.3-2.52l-5.4-7.362h-3.76V681ZM378.517,697.458V693.7h0.78c1.621,0,2.361.48,2.361,1.98,0,1.26-.78,1.78-2.421,1.78h-0.72ZM374.856,705h3.661v-5.6L381.8,705h4.4l-3.9-5.761a3.79,3.79,0,0,0,3.2-4.081,4.244,4.244,0,0,0-1.6-3.5c-1.22-.94-2.74-0.96-4.721-0.96h-4.321V705Zm21.82,0h8.762v-3.2h-4.961v-2.42h4.681v-3.061h-4.681v-2.48h4.961V690.7h-8.762V705Zm20.98-4.621-1.76,2.9a6.858,6.858,0,0,0,5.081,2.1c3.361,0,5.481-2.06,5.481-5.041,0-2.641-1.4-3.581-3.941-4.261-1.3-.34-2.28-0.56-2.28-1.58a1.366,1.366,0,0,1,1.58-1.2,4.342,4.342,0,0,1,2.741,1.141l1.22-2.8a7.226,7.226,0,0,0-4.241-1.28A4.58,4.58,0,0,0,416.6,695c0,2.24,1.26,3.281,3.841,3.961,1.62,0.42,2.4.76,2.4,1.9a1.579,1.579,0,0,1-1.78,1.48A4.707,4.707,0,0,1,417.656,700.379ZM437.736,705h3.941V690.7h-3.941V705Zm16.72-4.621-1.76,2.9a6.858,6.858,0,0,0,5.081,2.1c3.36,0,5.481-2.06,5.481-5.041,0-2.641-1.4-3.581-3.941-4.261-1.3-.34-2.281-0.56-2.281-1.58a1.367,1.367,0,0,1,1.581-1.2,4.337,4.337,0,0,1,2.74,1.141l1.221-2.8a7.228,7.228,0,0,0-4.241-1.28A4.58,4.58,0,0,0,453.4,695c0,2.24,1.26,3.281,3.841,3.961,1.62,0.42,2.4.76,2.4,1.9a1.579,1.579,0,0,1-1.78,1.48A4.706,4.706,0,0,1,454.456,700.379ZM476.5,705h3.9V694.078h3.2V690.7H473.315v3.381H476.5V705Zm15.484,0h3.881l0.74-2.561h5.541L502.863,705h3.88L501.8,690.7h-4.881Zm5.461-5.341,1.441-4.721c0.06-.22.24-0.86,0.5-1.921q0.39,1.591.48,1.921l1.46,4.721h-3.881ZM517.1,705h3.761v-7.062a23.694,23.694,0,0,0-.22-2.82,20.212,20.212,0,0,0,1.3,2.5l5.4,7.382h3.741V690.7h-3.741v7.061a23.512,23.512,0,0,0,.221,2.821,21.647,21.647,0,0,0-1.3-2.521l-5.4-7.361H517.1V705Zm28.1,0h3.9V694.078h3.2V690.7H542.02v3.381H545.2V705Z"/><path id="TAILORING_PERFORMANCE" data-name="TAILORING + PERFORMANCE" class="cls-2" d="M87.766,60.164h6.169V48.619h3.432V43H84.333v5.617h3.432V60.164Zm13.109,0H107.5L108.028,58h4.656l0.552,2.16h6.625L113.86,43H107Zm8.185-6.241,0.528-1.944a17.4,17.4,0,0,0,.7-3.768h0.12a17.4,17.4,0,0,0,.7,3.768l0.528,1.944H109.06Zm16.679,6.241H132V43h-6.265V60.164Zm14.4,0h12.169V54.6h-6V43h-6.169V60.164Zm36.6-8.545a8.814,8.814,0,0,0-2.593-6.409,9.639,9.639,0,0,0-13.153,0A9.189,9.189,0,0,0,161,58a9.576,9.576,0,0,0,13.129.024A8.739,8.739,0,0,0,176.741,51.619Zm-9.169,3.24a2.923,2.923,0,0,1-2.9-3.24c0-1.992,1.224-3.264,2.9-3.264s2.88,1.272,2.88,3.264S169.252,54.859,167.572,54.859Zm16.559,5.3h6.048V54.5l3,5.665h6.912l-4.584-6.985c1.992-.24,3.312-1.944,3.312-4.392,0-3.672-2.352-5.785-6.937-5.785h-7.752V60.164Zm6.048-12.745h0.96a1.6,1.6,0,0,1,1.825,1.7,1.58,1.58,0,0,1-1.825,1.656h-0.96v-3.36Zm16.056,12.745H212.5V43h-6.264V60.164Zm14.4,0h5.953V53.971a17.55,17.55,0,0,0-.192-2.712l5.28,8.9h6.1V43h-5.953v6.241a17.176,17.176,0,0,0,.193,2.736L226.683,43h-6.049V60.164Zm36-6.145a1.859,1.859,0,0,1-2.112,1.416c-1.968,0-3.144-1.392-3.144-3.816,0-2.4,1.248-3.84,3-3.84a2.74,2.74,0,0,1,2.448,1.416l5.5-2.04a8.9,8.9,0,0,0-8.041-4.536,9.151,9.151,0,0,0-6.577,2.568,8.833,8.833,0,0,0-2.592,6.433,8.738,8.738,0,0,0,2.592,6.432,9.648,9.648,0,0,0,13.994-.936,9.342,9.342,0,0,0,1.776-5.856,11.483,11.483,0,0,0-.048-1.272h-9.481v4.032h2.688Zm36.96-8.161h-3.289V51.4H284.93V54.6h5.376v5.569H293.6V54.6h5.376V51.4H293.6V45.859Zm33.983,1.92h0.96c1.2,0,1.824.552,1.824,1.44s-0.624,1.416-1.824,1.416h-0.96V47.779Zm-6.193,12.385h6.169V55.1H329.5c4.56,0,6.745-1.68,6.745-5.833,0-4.464-2.425-6.265-7.489-6.265h-7.369V60.164Zm21.792,0h11.617V55.507h-5.568v-1.8h4.92V49.315h-4.92V47.659h5.424V43H343.177V60.164Zm18.912,0h6.049V54.5l3,5.665h6.912l-4.584-6.985c1.992-.24,3.312-1.944,3.312-4.392,0-3.672-2.352-5.785-6.936-5.785h-7.753V60.164Zm6.049-12.745h0.96a1.6,1.6,0,0,1,1.824,1.7,1.58,1.58,0,0,1-1.824,1.656h-0.96v-3.36Zm15.935,12.745h6.168v-6.12h4.8V49.651h-4.8V47.659h5.305V43H384.073V60.164Zm36.121-8.545a8.817,8.817,0,0,0-2.592-6.409,9.639,9.639,0,0,0-13.153,0,9.189,9.189,0,0,0,0,12.793,9.576,9.576,0,0,0,13.129.024A8.742,8.742,0,0,0,420.194,51.619Zm-9.169,3.24a2.923,2.923,0,0,1-2.9-3.24c0-1.992,1.224-3.264,2.9-3.264s2.881,1.272,2.881,3.264S412.706,54.859,411.025,54.859Zm16.559,5.3h6.049V54.5l3,5.665h6.913l-4.585-6.985c1.992-.24,3.313-1.944,3.313-4.392,0-3.672-2.353-5.785-6.937-5.785h-7.753V60.164Zm6.049-12.745h0.96a1.6,1.6,0,0,1,1.824,1.7,1.58,1.58,0,0,1-1.824,1.656h-0.96v-3.36Zm31.608,12.745h6.049L468.578,43h-6.361l-1.272,4.176a32.022,32.022,0,0,0-1.176,5.088h-0.1a27.587,27.587,0,0,0-1.128-5.016L457.321,43H450.96l-2.928,17.162h6.048l0.745-6.793c0.1-.912.168-1.968,0.264-3.144a25.532,25.532,0,0,0,.768,3.336l1.968,6.6H461.5l1.968-6.6a25.532,25.532,0,0,0,.768-3.336c0.12,1.392.192,2.448,0.264,3.144Zm10.271,0h6.624L482.664,58h4.657l0.552,2.16H494.5L488.5,43h-6.865Zm8.184-6.241,0.529-1.944a17.4,17.4,0,0,0,.7-3.768h0.12a17.4,17.4,0,0,0,.7,3.768l0.528,1.944H483.7Zm16.56,6.241h5.952V53.971a17.55,17.55,0,0,0-.192-2.712l5.281,8.9h6.1V43h-5.952v6.241a17.278,17.278,0,0,0,.192,2.736L506.3,43h-6.048V60.164Zm37.705-10.345V43.458a9.915,9.915,0,0,0-4.033-.864,8.822,8.822,0,0,0-9.193,9.025,8.677,8.677,0,0,0,3.553,7.225,9.283,9.283,0,0,0,5.568,1.776,10.62,10.62,0,0,0,4.033-.816l0.192-6.457a6.492,6.492,0,0,1-3.817,1.584,3.068,3.068,0,0,1-3.24-3.312,3.187,3.187,0,0,1,3.36-3.408A5.05,5.05,0,0,1,537.961,49.819Zm7.51,10.345h11.617V55.507H551.52v-1.8h4.92V49.315h-4.92V47.659h5.424V43H545.471V60.164Z"/></g></svg>