<svg xmlns="http://www.w3.org/2000/svg" width="575" height="499" viewBox="0 0 575 499">
  <defs>
    <style>
      .cls-1 {
        fill: #fff;
      }

      .cls-1, .cls-2 {
        fill-rule: evenodd;
      }
    </style>
  </defs>
  <path id="_I_wear_these_pants_all_the_time._They_ve_got_great_stretch_and" data-name="“I wear these pants all the time. They’ve got great stretch and" class="cls-1" d="M375.533,158.362l-1.034-.418-2.223,4.972,1.43,0.528Zm3.212,0-1.034-.418-2.222,4.972,1.474,0.528Zm4.267,0v14.676h1.628V158.362h-1.628Zm11.021,5.544,4.489,9.77,2.816-6.821,2.817,6.821,4.532-9.77h-1.76l-2.728,6.2L401.36,163.2l-2.86,6.909-2.707-6.2h-1.76Zm24.2,6.073a3.637,3.637,0,0,1-.946,1.254,2.771,2.771,0,0,1-1.87.661,2.926,2.926,0,0,1-2.905-3.1h7.107a6.13,6.13,0,0,0-.858-3.432,4.085,4.085,0,0,0-3.454-1.673c-2.751,0-4.423,2.113-4.423,4.841,0,3.389,2.31,4.775,4.511,4.775a4.432,4.432,0,0,0,3.036-1.122,5.467,5.467,0,0,0,1.122-1.475Zm-5.611-2.508a2.776,2.776,0,0,1,2.685-2.376,2.732,2.732,0,0,1,2.684,2.376h-5.369Zm17.513-2.266a3.778,3.778,0,0,0-3.125-1.519c-2.332,0-4.444,1.629-4.444,4.775,0,3.213,2.134,4.841,4.444,4.841a3.852,3.852,0,0,0,3.125-1.54v1.276h1.584v-9.132h-1.584v1.3Zm-2.949-.11a3.421,3.421,0,0,1,0,6.8c-1.892,0-2.992-1.475-2.992-3.433A3.034,3.034,0,0,1,427.187,165.1Zm8.624,7.943H437.4v-4.819a3.94,3.94,0,0,1,.528-2.464,1.533,1.533,0,0,1,1.276-.572,1.63,1.63,0,0,1,.924.308l0.748-1.431a3.346,3.346,0,0,0-1.408-.374A2.537,2.537,0,0,0,437.4,164.9v-0.991h-1.584v9.132Zm17.05-7.679v-1.453h-1.585v-3.3h-1.584v3.3h-0.968v1.453h0.968v7.679h1.584v-7.679h1.585Zm2.6,7.679h1.584v-4.775a3.846,3.846,0,0,1,.66-2.464,2,2,0,0,1,1.606-.7,1.794,1.794,0,0,1,1.5.66,2.684,2.684,0,0,1,.418,1.672v5.611h1.584v-5.655a4.072,4.072,0,0,0-.528-2.442,3.1,3.1,0,0,0-2.619-1.255,3.221,3.221,0,0,0-2.618,1.277V157h-1.584v16.041Zm18-3.059a3.637,3.637,0,0,1-.946,1.254,2.776,2.776,0,0,1-1.871.661,2.925,2.925,0,0,1-2.9-3.1h7.107a6.13,6.13,0,0,0-.858-3.432,4.087,4.087,0,0,0-3.455-1.673c-2.75,0-4.422,2.113-4.422,4.841,0,3.389,2.31,4.775,4.51,4.775a4.434,4.434,0,0,0,3.037-1.122,5.467,5.467,0,0,0,1.122-1.475Zm-5.611-2.508a2.775,2.775,0,0,1,2.684-2.376,2.733,2.733,0,0,1,2.685,2.376h-5.369Zm15.576-2.134a2.633,2.633,0,0,0-2.508-1.651,2.456,2.456,0,0,0-2.663,2.553,1.983,1.983,0,0,0,.418,1.342,5.97,5.97,0,0,0,2.223,1.342c0.858,0.374,1.474.66,1.474,1.518a1.418,1.418,0,0,1-1.5,1.453,2.067,2.067,0,0,1-1.848-1.5l-1.365.572a3.266,3.266,0,0,0,3.191,2.333,2.9,2.9,0,0,0,3.146-2.993,2.161,2.161,0,0,0-.484-1.474,5.551,5.551,0,0,0-2.288-1.408c-1.034-.44-1.474-0.638-1.474-1.3a1.009,1.009,0,0,1,1.1-1.034,1.4,1.4,0,0,1,1.276.924Zm10.56,4.642a3.637,3.637,0,0,1-.946,1.254,2.771,2.771,0,0,1-1.87.661,2.925,2.925,0,0,1-2.9-3.1h7.107a6.13,6.13,0,0,0-.858-3.432,4.085,4.085,0,0,0-3.454-1.673c-2.751,0-4.423,2.113-4.423,4.841,0,3.389,2.31,4.775,4.511,4.775a4.432,4.432,0,0,0,3.036-1.122,5.467,5.467,0,0,0,1.122-1.475Zm-5.611-2.508a2.776,2.776,0,0,1,2.685-2.376,2.732,2.732,0,0,1,2.684,2.376h-5.369Zm18.326,4.291a3.876,3.876,0,0,0,3.19,1.54c2.773,0,4.379-2.267,4.379-4.775,0-2.464-1.584-4.841-4.445-4.841a3.925,3.925,0,0,0-3.124,1.5v-1.277h-1.584V178.1h1.584v-6.336Zm2.97,0.132a3.124,3.124,0,0,1-3.058-3.389,3.169,3.169,0,0,1,3.036-3.41,3.132,3.132,0,0,1,2.993,3.432A3.076,3.076,0,0,1,509.663,171.894Zm15.114-6.689a3.778,3.778,0,0,0-3.124-1.519c-2.333,0-4.445,1.629-4.445,4.775,0,3.213,2.134,4.841,4.445,4.841a3.851,3.851,0,0,0,3.124-1.54v1.276h1.585v-9.132h-1.585v1.3Zm-2.948-.11a3.421,3.421,0,0,1,0,6.8c-1.892,0-2.993-1.475-2.993-3.433A3.035,3.035,0,0,1,521.829,165.1Zm8.623,7.943h1.584v-4.775a3.846,3.846,0,0,1,.66-2.464,2,2,0,0,1,1.607-.7,1.792,1.792,0,0,1,1.5.66,2.684,2.684,0,0,1,.418,1.672v5.611H537.8v-5.655a4.072,4.072,0,0,0-.528-2.442,3.1,3.1,0,0,0-2.618-1.255,3.222,3.222,0,0,0-2.619,1.277v-1.057h-1.584v9.132Zm14.652-7.679v-1.453H543.52v-3.3h-1.584v3.3h-0.968v1.453h0.968v7.679h1.584v-7.679H545.1Zm7.656-.022a2.633,2.633,0,0,0-2.508-1.651,2.456,2.456,0,0,0-2.663,2.553,1.983,1.983,0,0,0,.418,1.342,5.97,5.97,0,0,0,2.223,1.342c0.858,0.374,1.474.66,1.474,1.518a1.418,1.418,0,0,1-1.5,1.453,2.067,2.067,0,0,1-1.848-1.5l-1.365.572a3.266,3.266,0,0,0,3.191,2.333,2.9,2.9,0,0,0,3.146-2.993,2.161,2.161,0,0,0-.484-1.474,5.551,5.551,0,0,0-2.288-1.408c-1.034-.44-1.474-0.638-1.474-1.3a1.009,1.009,0,0,1,1.1-1.034,1.4,1.4,0,0,1,1.276.924ZM379.493,195.205a3.778,3.778,0,0,0-3.124-1.519c-2.333,0-4.445,1.629-4.445,4.775,0,3.213,2.134,4.841,4.445,4.841a3.851,3.851,0,0,0,3.124-1.54v1.276h1.584v-9.132h-1.584v1.3Zm-2.948-.11a3.421,3.421,0,0,1,0,6.8c-1.892,0-2.993-1.475-2.993-3.433A3.035,3.035,0,0,1,376.545,195.1Zm8.623-8.1v16.041h1.584V187h-1.584Zm5.676,0v16.041h1.584V187h-1.584Zm15.114,8.362v-1.453h-1.584v-3.3h-1.585v3.3h-0.968v1.453h0.968v7.679h1.585v-7.679h1.584Zm2.595,7.679h1.584v-4.775a3.846,3.846,0,0,1,.66-2.464,2,2,0,0,1,1.607-.7,1.792,1.792,0,0,1,1.5.66,2.684,2.684,0,0,1,.418,1.672v5.611H415.9v-5.655a4.072,4.072,0,0,0-.528-2.442,3.1,3.1,0,0,0-2.618-1.255,3.222,3.222,0,0,0-2.619,1.277V187h-1.584v16.041Zm18-3.059a3.637,3.637,0,0,1-.946,1.254,2.772,2.772,0,0,1-1.871.661,2.925,2.925,0,0,1-2.9-3.1h7.107a6.13,6.13,0,0,0-.858-3.432,4.086,4.086,0,0,0-3.455-1.673c-2.75,0-4.422,2.113-4.422,4.841,0,3.389,2.31,4.775,4.51,4.775a4.433,4.433,0,0,0,3.037-1.122,5.467,5.467,0,0,0,1.122-1.475Zm-5.611-2.508a2.775,2.775,0,0,1,2.684-2.376,2.733,2.733,0,0,1,2.685,2.376h-5.369Zm19.954-2.112v-1.453h-1.584v-3.3h-1.585v3.3h-0.968v1.453h0.968v7.679h1.585v-7.679h1.584Zm2.6-1.453v9.132h1.584v-9.132h-1.584Zm-0.33-3.454a1.122,1.122,0,1,0,1.122-1.122A1.127,1.127,0,0,0,443.158,190.452Zm6.006,12.586h1.584v-4.973c0-1.1.2-2.97,2-2.97,1.673,0,1.651,1.892,1.651,2.53v5.413h1.584v-5.083c0-1.1.2-2.86,2.024-2.86,1.5,0,1.628,1.364,1.628,2.4v5.545h1.585v-5.787c0-1.3-.264-3.565-2.971-3.565a3.047,3.047,0,0,0-2.75,1.475,2.734,2.734,0,0,0-2.487-1.475,2.65,2.65,0,0,0-2.266,1.189v-0.969h-1.584v9.132Zm22.947-3.059a3.637,3.637,0,0,1-.946,1.254,2.772,2.772,0,0,1-1.871.661,2.925,2.925,0,0,1-2.9-3.1H473.5a6.13,6.13,0,0,0-.858-3.432,4.086,4.086,0,0,0-3.455-1.673c-2.75,0-4.422,2.113-4.422,4.841,0,3.389,2.31,4.775,4.51,4.775a4.433,4.433,0,0,0,3.037-1.122,5.467,5.467,0,0,0,1.122-1.475Zm-5.611-2.508a2.775,2.775,0,0,1,2.684-2.376,2.733,2.733,0,0,1,2.685,2.376H466.5Zm10.428,4.687a1.1,1.1,0,1,0,1.1-1.1A1.118,1.118,0,0,0,476.928,202.158Zm20-12.256v-1.54h-8.757v1.54h3.565v13.136h1.628V189.9h3.564Zm1.319,13.136h1.585v-4.775a3.846,3.846,0,0,1,.66-2.464,2,2,0,0,1,1.606-.7,1.792,1.792,0,0,1,1.5.66,2.684,2.684,0,0,1,.418,1.672v5.611h1.584v-5.655a4.072,4.072,0,0,0-.528-2.442,3.1,3.1,0,0,0-2.618-1.255,3.221,3.221,0,0,0-2.618,1.277V187h-1.585v16.041Zm18-3.059a3.637,3.637,0,0,1-.946,1.254,2.771,2.771,0,0,1-1.87.661,2.925,2.925,0,0,1-2.905-3.1h7.107a6.13,6.13,0,0,0-.858-3.432,4.085,4.085,0,0,0-3.454-1.673c-2.751,0-4.423,2.113-4.423,4.841,0,3.389,2.31,4.775,4.511,4.775a4.432,4.432,0,0,0,3.036-1.122,5.467,5.467,0,0,0,1.122-1.475Zm-5.611-2.508a2.775,2.775,0,0,1,2.685-2.376A2.732,2.732,0,0,1,516,197.471h-5.369ZM521.125,208.1h1.76l6.711-14.192h-1.76l-2.971,6.535-3.234-6.535h-1.8l4.2,8.274Zm11.022-15.182,1.034,0.418,2.222-4.972-1.474-.528Zm5.807,0.99,4.489,9.726,4.489-9.726h-1.761l-2.728,6.161-2.728-6.161h-1.761Zm18.525,6.073a3.637,3.637,0,0,1-.946,1.254,2.771,2.771,0,0,1-1.87.661,2.925,2.925,0,0,1-2.9-3.1h7.107a6.122,6.122,0,0,0-.859-3.432,4.085,4.085,0,0,0-3.454-1.673c-2.75,0-4.423,2.113-4.423,4.841,0,3.389,2.311,4.775,4.511,4.775a4.432,4.432,0,0,0,3.036-1.122,5.471,5.471,0,0,0,1.123-1.475Zm-5.61-2.508a2.775,2.775,0,0,1,2.684-2.376,2.732,2.732,0,0,1,2.684,2.376h-5.368ZM379.493,225.205a3.8,3.8,0,0,0-3.124-1.519,4.5,4.5,0,0,0-3.125,1.233,4.789,4.789,0,0,0-1.32,3.542,4.947,4.947,0,0,0,1.32,3.609,4.376,4.376,0,0,0,3.125,1.232,3.851,3.851,0,0,0,3.124-1.54v1.32a4.244,4.244,0,0,1-.506,2.332,2.56,2.56,0,0,1-2.42,1.276,2.83,2.83,0,0,1-2.2-.88,2.874,2.874,0,0,1-.7-1.892H372.1a4.114,4.114,0,0,0,1.188,2.948,4.524,4.524,0,0,0,3.257,1.232A4.442,4.442,0,0,0,380.2,236.4a5.744,5.744,0,0,0,.88-3.586v-8.912h-1.584v1.3Zm-2.948-.11a2.927,2.927,0,0,1,2.068.814,3.61,3.61,0,0,1,.968,2.574,3.7,3.7,0,0,1-1.034,2.64,2.7,2.7,0,0,1-2,.771,2.759,2.759,0,0,1-1.958-.749,3.517,3.517,0,0,1-1.035-2.684,3.476,3.476,0,0,1,.924-2.508A2.834,2.834,0,0,1,376.545,225.1Zm12.892,8.207a4.808,4.808,0,1,0-4.841-4.8A4.684,4.684,0,0,0,389.437,233.3Zm0-8.207a3.4,3.4,0,1,1-3.213,3.41A3.16,3.16,0,0,1,389.437,225.1Zm11.571,0.264v-1.453h-1.584v-3.3H397.84v3.3h-0.969v1.453h0.969v7.679h1.584v-7.679h1.584Zm15.818-.154a3.8,3.8,0,0,0-3.124-1.519,4.5,4.5,0,0,0-3.125,1.233,4.789,4.789,0,0,0-1.32,3.542,4.947,4.947,0,0,0,1.32,3.609A4.374,4.374,0,0,0,413.7,233.3a3.851,3.851,0,0,0,3.124-1.54v1.32a4.244,4.244,0,0,1-.506,2.332,2.56,2.56,0,0,1-2.42,1.276,2.829,2.829,0,0,1-2.2-.88,2.874,2.874,0,0,1-.7-1.892h-1.562a4.114,4.114,0,0,0,1.188,2.948,4.522,4.522,0,0,0,3.257,1.232,4.442,4.442,0,0,0,3.652-1.694,5.744,5.744,0,0,0,.88-3.586v-8.912h-1.584v1.3Zm-2.948-.11a2.927,2.927,0,0,1,2.068.814,3.61,3.61,0,0,1,.968,2.574,3.7,3.7,0,0,1-1.034,2.64,2.7,2.7,0,0,1-2,.771,2.761,2.761,0,0,1-1.959-.749,3.519,3.519,0,0,1-1.034-2.684,3.476,3.476,0,0,1,.924-2.508A2.833,2.833,0,0,1,413.878,225.1Zm8.623,7.943h1.584v-4.819a3.94,3.94,0,0,1,.528-2.464,1.533,1.533,0,0,1,1.276-.572,1.63,1.63,0,0,1,.924.308l0.749-1.431a3.354,3.354,0,0,0-1.409-.374,2.537,2.537,0,0,0-2.068,1.211v-0.991H422.5v9.132Zm13.861-3.059a3.637,3.637,0,0,1-.946,1.254,2.772,2.772,0,0,1-1.871.661,2.925,2.925,0,0,1-2.9-3.1h7.107a6.13,6.13,0,0,0-.858-3.432,4.086,4.086,0,0,0-3.455-1.673c-2.75,0-4.422,2.113-4.422,4.841,0,3.389,2.31,4.775,4.51,4.775a4.433,4.433,0,0,0,3.037-1.122,5.451,5.451,0,0,0,1.122-1.475Zm-5.611-2.508a2.775,2.775,0,0,1,2.684-2.376,2.733,2.733,0,0,1,2.685,2.376h-5.369Zm17.513-2.266a3.78,3.78,0,0,0-3.125-1.519c-2.332,0-4.445,1.629-4.445,4.775,0,3.213,2.135,4.841,4.445,4.841a3.855,3.855,0,0,0,3.125-1.54v1.276h1.584v-9.132h-1.584v1.3Zm-2.949-.11a3.421,3.421,0,0,1,0,6.8c-1.892,0-2.992-1.475-2.992-3.433A3.034,3.034,0,0,1,445.315,225.1Zm11.836,0.264v-1.453h-1.585v-3.3h-1.584v3.3h-0.968v1.453h0.968v7.679h1.584v-7.679h1.585Zm13.881-.022a2.633,2.633,0,0,0-2.508-1.651,2.455,2.455,0,0,0-2.662,2.553,1.983,1.983,0,0,0,.418,1.342,5.955,5.955,0,0,0,2.222,1.342c0.858,0.374,1.474.66,1.474,1.518a1.418,1.418,0,0,1-1.5,1.453,2.067,2.067,0,0,1-1.848-1.5l-1.364.572a3.265,3.265,0,0,0,3.19,2.333,2.905,2.905,0,0,0,3.147-2.993,2.157,2.157,0,0,0-.485-1.474,5.551,5.551,0,0,0-2.288-1.408c-1.034-.44-1.474-0.638-1.474-1.3a1.009,1.009,0,0,1,1.1-1.034,1.4,1.4,0,0,1,1.276.924Zm7,0.022v-1.453h-1.584v-3.3H474.86v3.3h-0.969v1.453h0.969v7.679h1.584v-7.679h1.584Zm2.595,7.679h1.584v-4.819a3.937,3.937,0,0,1,.529-2.464,1.533,1.533,0,0,1,1.276-.572,1.63,1.63,0,0,1,.924.308l0.748-1.431a3.346,3.346,0,0,0-1.408-.374,2.542,2.542,0,0,0-2.069,1.211v-0.991h-1.584v9.132Zm13.861-3.059a3.637,3.637,0,0,1-.946,1.254,2.771,2.771,0,0,1-1.87.661,2.926,2.926,0,0,1-2.905-3.1h7.108a6.13,6.13,0,0,0-.859-3.432,4.085,4.085,0,0,0-3.454-1.673c-2.751,0-4.423,2.113-4.423,4.841,0,3.389,2.311,4.775,4.511,4.775a4.432,4.432,0,0,0,3.036-1.122,5.451,5.451,0,0,0,1.122-1.475Zm-5.611-2.508a2.776,2.776,0,0,1,2.685-2.376,2.732,2.732,0,0,1,2.684,2.376h-5.369Zm13.728-2.112v-1.453h-1.584v-3.3h-1.584v3.3h-0.968v1.453h0.968v7.679h1.584v-7.679H502.6Zm9.747-.792a4.828,4.828,0,0,0-2.839-.881,4.809,4.809,0,1,0,0,9.616,4.877,4.877,0,0,0,2.9-.946v-1.893a3.891,3.891,0,0,1-2.949,1.431,3.4,3.4,0,0,1,.022-6.8,3.683,3.683,0,0,1,2.861,1.364v-1.892Zm3.585,8.471h1.584v-4.775a3.846,3.846,0,0,1,.66-2.464,2,2,0,0,1,1.606-.7,1.792,1.792,0,0,1,1.5.66,2.684,2.684,0,0,1,.418,1.672v5.611h1.585v-5.655a4.072,4.072,0,0,0-.528-2.442,3.1,3.1,0,0,0-2.619-1.255,3.221,3.221,0,0,0-2.618,1.277V217h-1.584v16.041Zm-136.44,22.167a3.778,3.778,0,0,0-3.124-1.519c-2.333,0-4.445,1.629-4.445,4.775,0,3.213,2.134,4.841,4.445,4.841a3.851,3.851,0,0,0,3.124-1.54v1.276h1.584v-9.132h-1.584v1.3Zm-2.948-.11a3.421,3.421,0,0,1,0,6.8c-1.892,0-2.993-1.475-2.993-3.433A3.035,3.035,0,0,1,376.545,255.1Zm8.623,7.943h1.584v-4.775a3.846,3.846,0,0,1,.66-2.464,2,2,0,0,1,1.606-.7,1.792,1.792,0,0,1,1.5.66,2.684,2.684,0,0,1,.418,1.672v5.611h1.584v-5.655a4.072,4.072,0,0,0-.528-2.442,3.1,3.1,0,0,0-2.618-1.255,3.222,3.222,0,0,0-2.619,1.277v-1.057h-1.584v9.132Zm18.437-7.833a3.78,3.78,0,0,0-3.125-1.519c-2.332,0-4.444,1.629-4.444,4.775,0,3.213,2.134,4.841,4.444,4.841a3.853,3.853,0,0,0,3.125-1.54v1.276h1.584V247h-1.584v8.208Zm-2.949-.11a3.421,3.421,0,0,1,0,6.8c-1.892,0-2.992-1.475-2.992-3.433A3.034,3.034,0,0,1,400.656,255.1Zm14.849,7.943h1.584v-4.819a3.94,3.94,0,0,1,.528-2.464,1.533,1.533,0,0,1,1.276-.572,1.63,1.63,0,0,1,.925.308l0.748-1.431a3.346,3.346,0,0,0-1.408-.374,2.538,2.538,0,0,0-2.069,1.211v-0.991h-1.584v9.132Zm13.861-3.059a3.65,3.65,0,0,1-.946,1.255,2.776,2.776,0,0,1-1.87.66,2.925,2.925,0,0,1-2.905-3.1h7.107a6.13,6.13,0,0,0-.858-3.432,4.085,4.085,0,0,0-3.454-1.673c-2.751,0-4.423,2.113-4.423,4.841,0,3.389,2.31,4.775,4.511,4.775a4.432,4.432,0,0,0,3.036-1.122,5.467,5.467,0,0,0,1.122-1.475Zm-5.611-2.508a2.775,2.775,0,0,1,2.685-2.376,2.732,2.732,0,0,1,2.684,2.376h-5.369Zm17.667-2.9a4.828,4.828,0,0,0-2.839-.881,4.809,4.809,0,1,0,0,9.616,4.877,4.877,0,0,0,2.9-.946v-1.893a3.891,3.891,0,0,1-2.949,1.431,3.4,3.4,0,0,1,.022-6.8,3.683,3.683,0,0,1,2.861,1.364v-1.892Zm7.853,8.735a4.808,4.808,0,1,0-4.841-4.8A4.684,4.684,0,0,0,449.275,263.3Zm0-8.207a3.4,3.4,0,1,1-3.212,3.41A3.161,3.161,0,0,1,449.275,255.1Zm7.039-1.189,4.489,9.726,4.488-9.726h-1.76l-2.728,6.161-2.729-6.161h-1.76Zm18.525,6.073a3.65,3.65,0,0,1-.946,1.255,2.776,2.776,0,0,1-1.87.66,2.925,2.925,0,0,1-2.905-3.1h7.107a6.13,6.13,0,0,0-.858-3.432,4.085,4.085,0,0,0-3.454-1.673c-2.751,0-4.423,2.113-4.423,4.841,0,3.389,2.31,4.775,4.511,4.775a4.432,4.432,0,0,0,3.036-1.122,5.467,5.467,0,0,0,1.122-1.475Zm-5.611-2.508a2.775,2.775,0,0,1,2.685-2.376,2.732,2.732,0,0,1,2.684,2.376h-5.369Zm10.516,5.567h1.584v-4.819a3.94,3.94,0,0,1,.528-2.464,1.533,1.533,0,0,1,1.276-.572,1.63,1.63,0,0,1,.924.308l0.749-1.431a3.35,3.35,0,0,0-1.409-.374,2.537,2.537,0,0,0-2.068,1.211v-0.991h-1.584v9.132Zm8.271,5.06h1.761l6.711-14.192h-1.761l-2.97,6.535-3.234-6.535h-1.805l4.2,8.274Zm9.812-2.134,1.034,0.418,2.223-4.972-1.453-.529ZM379.493,285.205a3.778,3.778,0,0,0-3.124-1.519c-2.333,0-4.445,1.629-4.445,4.775,0,3.213,2.134,4.841,4.445,4.841a3.851,3.851,0,0,0,3.124-1.54v1.276h1.584v-9.132h-1.584v1.3Zm-2.948-.11a3.421,3.421,0,0,1,0,6.8c-1.892,0-2.993-1.475-2.993-3.433A3.035,3.035,0,0,1,376.545,285.1Zm8.623,7.943h1.584v-4.775a3.846,3.846,0,0,1,.66-2.464,2,2,0,0,1,1.606-.7,1.792,1.792,0,0,1,1.5.66,2.684,2.684,0,0,1,.418,1.672v5.611h1.584v-5.655a4.072,4.072,0,0,0-.528-2.442,3.1,3.1,0,0,0-2.618-1.255,3.222,3.222,0,0,0-2.619,1.277v-1.057h-1.584v9.132Zm24.662-7.833a3.778,3.778,0,0,0-3.124-1.519c-2.332,0-4.445,1.629-4.445,4.775,0,3.213,2.135,4.841,4.445,4.841a3.851,3.851,0,0,0,3.124-1.54v1.276h1.585v-9.132H409.83v1.3Zm-2.948-.11a3.421,3.421,0,0,1,0,6.8c-1.892,0-2.993-1.475-2.993-3.433A3.035,3.035,0,0,1,406.882,285.1Zm8.623-8.1v16.041h1.584V277h-1.584Zm5.676,0v16.041h1.584V277h-1.584Zm5.28,12.168h4.84v-1.628h-4.84v1.628Zm15.532-3.96a3.778,3.778,0,0,0-3.124-1.519c-2.332,0-4.445,1.629-4.445,4.775,0,3.213,2.135,4.841,4.445,4.841a3.851,3.851,0,0,0,3.124-1.54v1.276h1.585v-9.132h-1.585v1.3Zm-2.948-.11a3.421,3.421,0,0,1,0,6.8c-1.892,0-2.992-1.475-2.992-3.433A3.034,3.034,0,0,1,439.045,285.1Zm8.623,7.943h1.584v-4.819a3.94,3.94,0,0,1,.528-2.464,1.537,1.537,0,0,1,1.277-.572,1.63,1.63,0,0,1,.924.308l0.748-1.431a3.346,3.346,0,0,0-1.408-.374,2.54,2.54,0,0,0-2.069,1.211v-0.991h-1.584v9.132Zm11.353,0.264a4.808,4.808,0,1,0-4.841-4.8A4.684,4.684,0,0,0,459.021,293.3Zm0-8.207a3.4,3.4,0,1,1-3.213,3.41A3.16,3.16,0,0,1,459.021,285.1Zm9.943-1.189H467.38v5.5a3.631,3.631,0,0,0,.836,2.751,3.985,3.985,0,0,0,5.589,0,3.631,3.631,0,0,0,.836-2.751v-5.5h-1.584v5.325a3.108,3.108,0,0,1-.44,1.958,2.183,2.183,0,0,1-3.213,0,3.108,3.108,0,0,1-.44-1.958v-5.325Zm9.768,9.132h1.584v-4.775a3.846,3.846,0,0,1,.66-2.464,2,2,0,0,1,1.606-.7,1.792,1.792,0,0,1,1.5.66,2.679,2.679,0,0,1,.419,1.672v5.611h1.584v-5.655a4.072,4.072,0,0,0-.528-2.442,3.1,3.1,0,0,0-2.619-1.255,3.221,3.221,0,0,0-2.618,1.277v-1.057h-1.584v9.132Zm18.436-7.833a3.778,3.778,0,0,0-3.124-1.519c-2.332,0-4.445,1.629-4.445,4.775,0,3.213,2.135,4.841,4.445,4.841a3.851,3.851,0,0,0,3.124-1.54v1.276h1.585V277h-1.585v8.208Zm-2.948-.11a3.421,3.421,0,0,1,0,6.8c-1.892,0-2.992-1.475-2.992-3.433A3.034,3.034,0,0,1,494.22,285.1Zm13.529-1.189,4.488,9.77,2.817-6.821,2.816,6.821,4.533-9.77h-1.761l-2.728,6.2-2.838-6.909-2.861,6.909-2.706-6.2h-1.76Zm17.424,0v9.132h1.584v-9.132h-1.584Zm-0.33-3.454a1.122,1.122,0,1,0,1.122-1.122A1.127,1.127,0,0,0,524.843,280.452Zm6,12.586h1.585v-4.775a3.846,3.846,0,0,1,.66-2.464,2,2,0,0,1,1.606-.7,1.792,1.792,0,0,1,1.5.66,2.684,2.684,0,0,1,.418,1.672v5.611H538.2v-5.655a4.072,4.072,0,0,0-.528-2.442,3.1,3.1,0,0,0-2.618-1.255,3.221,3.221,0,0,0-2.618,1.277v-1.057h-1.585v9.132Zm10.472,2.926,1.034,0.418,2.222-4.972-1.452-.529ZM372.5,313.906v9.132h1.584v-9.132H372.5Zm-0.33-3.454a1.122,1.122,0,1,0,1.122-1.122A1.127,1.127,0,0,0,372.166,310.452Zm9.879,4.907v-1.453H379.8V310.1a2.744,2.744,0,0,1,.2-1.32,1.11,1.11,0,0,1,1.012-.484,2.874,2.874,0,0,1,1.035.2v-1.541a3.063,3.063,0,0,0-1.123-.2,2.841,2.841,0,0,0-1.826.594,3.162,3.162,0,0,0-.88,2.575v3.982h-0.88v1.453h0.88v7.679H379.8v-7.679h2.245Zm8.711,12.739h1.76l6.711-14.192h-1.76l-2.971,6.535-3.234-6.535h-1.805l4.2,8.274Zm15.51-4.8a4.808,4.808,0,1,0-4.841-4.8A4.684,4.684,0,0,0,406.266,323.3Zm0-8.207a3.4,3.4,0,1,1-3.213,3.41A3.16,3.16,0,0,1,406.266,315.1Zm9.943-1.189h-1.584v5.5a3.631,3.631,0,0,0,.836,2.751,3.985,3.985,0,0,0,5.589,0,3.631,3.631,0,0,0,.836-2.751v-5.5H420.3v5.325a3.108,3.108,0,0,1-.44,1.958,2.183,2.183,0,0,1-3.213,0,3.108,3.108,0,0,1-.44-1.958v-5.325Zm22.991,1.3a3.781,3.781,0,0,0-3.125-1.519c-2.332,0-4.445,1.629-4.445,4.775,0,3.213,2.135,4.841,4.445,4.841a3.855,3.855,0,0,0,3.125-1.54v1.276h1.584v-9.132H439.2v1.3Zm-2.949-.11a3.421,3.421,0,0,1,0,6.8c-1.892,0-2.992-1.475-2.992-3.433A3.034,3.034,0,0,1,436.251,315.1Zm13.684,0.242a2.633,2.633,0,0,0-2.508-1.651,2.456,2.456,0,0,0-2.663,2.553,1.983,1.983,0,0,0,.418,1.342,5.953,5.953,0,0,0,2.223,1.342c0.858,0.374,1.474.66,1.474,1.518a1.418,1.418,0,0,1-1.5,1.453,2.067,2.067,0,0,1-1.849-1.5l-1.364.572a3.266,3.266,0,0,0,3.191,2.333,2.9,2.9,0,0,0,3.146-2.993,2.161,2.161,0,0,0-.484-1.474,5.551,5.551,0,0,0-2.288-1.408c-1.035-.44-1.475-0.638-1.475-1.3a1.009,1.009,0,0,1,1.1-1.034,1.4,1.4,0,0,1,1.276.924Zm3.783-8.34v16.041H455.3v-3.763l0.4-.4,3.653,4.159h2.068l-4.621-5.215,3.917-3.917h-2.068L455.3,317.3V307h-1.584Zm16.61,16.041h1.584v-4.973c0-1.1.2-2.97,2-2.97,1.672,0,1.65,1.892,1.65,2.53v5.413h1.585v-5.083c0-1.1.2-2.86,2.024-2.86,1.5,0,1.628,1.364,1.628,2.4v5.545h1.584v-5.787c0-1.3-.264-3.565-2.97-3.565a3.047,3.047,0,0,0-2.75,1.475,2.737,2.737,0,0,0-2.487-1.475,2.65,2.65,0,0,0-2.266,1.189v-0.969h-1.584v9.132Zm22.947-3.059a3.653,3.653,0,0,1-.947,1.254,2.771,2.771,0,0,1-1.87.661,2.925,2.925,0,0,1-2.9-3.1h7.107a6.13,6.13,0,0,0-.858-3.432,4.087,4.087,0,0,0-3.455-1.673c-2.75,0-4.423,2.113-4.423,4.841,0,3.389,2.311,4.775,4.511,4.775a4.436,4.436,0,0,0,3.037-1.122,5.467,5.467,0,0,0,1.122-1.475Zm-5.611-2.508a2.775,2.775,0,0,1,2.684-2.376,2.732,2.732,0,0,1,2.684,2.376h-5.368Zm10.427,4.687a1.1,1.1,0,1,0,1.1-1.1A1.118,1.118,0,0,0,498.091,322.158Zm5.984-9.242,1.034,0.418,2.223-4.972-1.475-.528Zm3.213,0,1.034,0.418,2.222-4.972-1.43-.528Z"/>
  <path id="MATT_RYAN_Pro_Football_Player" data-name="MATT RYAN Pro Football Player" class="cls-1" d="M395.23,23.52a0.78,0.78,0,0,0,0-.384h-2.816c-0.16,0-.224-0.032-0.224-0.128V1.345c0-.1.064-0.128,0.224-0.128h2.816a0.78,0.78,0,0,0,0-.384h-7.3a0.682,0.682,0,0,0-.448.576l-4.9,15.551L376.9,1.409a0.62,0.62,0,0,0-.48-0.576h-7.327a0.408,0.408,0,0,0,0,.384H371.9c0.128,0,.16.032,0.16,0.128V23.008c0,0.1-.032.128-0.16,0.128h-2.816a0.408,0.408,0,0,0,0,.384h6.367a0.408,0.408,0,0,0,0-.384h-2.783c-0.16,0-.192-0.032-0.192-0.128V1.825l8.031,22.11a0.292,0.292,0,0,0,.384,0l6.848-21.886V23.008c0,0.1-.064.128-0.192,0.128h-2.784a0.408,0.408,0,0,0,0,.384H395.23Zm26.176,0a0.408,0.408,0,0,0,0-.384h-2.72a0.386,0.386,0,0,1-.256-0.1L409.919,0.385a0.292,0.292,0,0,0-.384,0l-7.648,21.407c-0.447,1.248-.511,1.344-0.8,1.344h-2.432a0.408,0.408,0,0,0,0,.384h6.111a0.292,0.292,0,0,0,0-.384h-2.784c-0.16,0-.128-0.192.256-1.344l2.144-5.888h6.848l2.432,7.136c0.032,0.032-.032.1-0.128,0.1h-2.88a0.292,0.292,0,0,0,0,.384h10.751Zm-10.335-8h-6.56l3.36-9.471Zm31.935-6.847V0.929a0.076,0.076,0,0,0-.064-0.1H423.3a0.1,0.1,0,0,0-.1.1V8.673a0.408,0.408,0,0,0,.384,0c0-3.712,2.111-7.455,6.719-7.455h0.32c0.128,0,.192.032,0.192,0.128V23.008c0,0.1-.064.128-0.192,0.128h-2.784a0.408,0.408,0,0,0,0,.384h10.432a0.408,0.408,0,0,0,0-.384h-2.816c-0.128,0-.192-0.032-0.192-0.128V1.345c0-.1.064-0.128,0.192-0.128h0.352c4.607,0,6.847,3.744,6.847,7.455A0.347,0.347,0,0,0,443.006,8.673Zm24.32,0V0.929a0.076,0.076,0,0,0-.064-0.1H447.615a0.1,0.1,0,0,0-.1.1V8.673a0.408,0.408,0,0,0,.384,0c0-3.712,2.112-7.455,6.72-7.455h0.32c0.128,0,.192.032,0.192,0.128V23.008c0,0.1-.064.128-0.192,0.128h-2.784a0.408,0.408,0,0,0,0,.384H462.59a0.408,0.408,0,0,0,0-.384h-2.816c-0.128,0-.192-0.032-0.192-0.128V1.345c0-.1.064-0.128,0.192-0.128h0.352c4.608,0,6.848,3.744,6.848,7.455A0.347,0.347,0,0,0,467.326,8.673Zm36.255,14.271a0.342,0.342,0,0,0-.224-0.288,2.283,2.283,0,0,1-1.824.8c-1.184,0-1.952-1.024-1.952-2.656V17.92c0-3.168-1.952-6.111-6.943-6.207,3.487-.1,6.015-2.4,6.015-5.312,0-3.136-2.912-5.568-7.647-5.568h-9.887a0.408,0.408,0,0,0,0,.384h2.815a0.129,0.129,0,0,1,.16.128V23.008a0.129,0.129,0,0,1-.16.128h-2.815a0.408,0.408,0,0,0,0,.384H491.39a0.78,0.78,0,0,0,0-.384h-2.656c-0.128,0-.192-0.032-0.192-0.128V11.9h1.888c2.88,0,4.608,1.056,4.608,3.872v2.08c0,4.576,2.975,6.208,5.6,6.208A3.845,3.845,0,0,0,503.581,22.944ZM494.174,6.529c0,4.064-.64,4.992-3.744,4.992h-1.888V1.345c0-.1.064-0.128,0.192-0.128h1.5C493.214,1.217,494.174,2.529,494.174,6.529Zm31.967-5.312a0.408,0.408,0,0,0,0-.384h-6.464a0.408,0.408,0,0,0,0,.384h3.008c0.224,0,.192.1-0.384,1.344L517.6,12.7,511.806,1.345c0.032-.064,0-0.128.128-0.128H515.2a0.408,0.408,0,0,0,0-.384H503.742a0.414,0.414,0,0,0,0,.384h3.008a0.332,0.332,0,0,1,.256.128l6.24,12.287v9.375c0,0.1-.064.128-0.192,0.128H510.27a0.408,0.408,0,0,0,0,.384H520.7a0.408,0.408,0,0,0,0-.384h-2.784c-0.16,0-.224-0.032-0.224-0.128V13.376L522.365,3.3c0.928-1.952,1.088-2.08,1.28-2.08h2.5Zm23.168,22.3a0.408,0.408,0,0,0,0-.384h-2.72a0.386,0.386,0,0,1-.256-0.1L537.822,0.385a0.292,0.292,0,0,0-.384,0l-7.647,21.407c-0.448,1.248-.512,1.344-0.8,1.344h-2.432a0.408,0.408,0,0,0,0,.384h6.111a0.292,0.292,0,0,0,0-.384h-2.783c-0.16,0-.128-0.192.256-1.344l2.143-5.888h6.848l2.432,7.136c0.032,0.032-.032.1-0.128,0.1h-2.88a0.292,0.292,0,0,0,0,.384h10.751Zm-10.335-8h-6.56l3.36-9.471Zm35.007-14.3a0.408,0.408,0,0,0,0-.384h-6.367a0.408,0.408,0,0,0,0,.384h2.815c0.128,0,.192.032,0.192,0.128V16.256L561.054,1.409a0.9,0.9,0,0,0-.7-0.576h-7.775a0.292,0.292,0,0,0,0,.384h2.783c0.16,0,.192.032,0.192,0.128V23.008c0,0.1-.032.128-0.192,0.128h-2.783a0.292,0.292,0,0,0,0,.384h6.367a0.408,0.408,0,0,0,0-.384h-2.816c-0.128,0-.16-0.032-0.16-0.128V1.537l14.623,22.4c0.1,0.128.416,0.1,0.416,0V1.345c0-.1.064-0.128,0.192-0.128h2.784ZM368.76,51.52h1.7l0.82-6.281h1.28c1.7,0,3.081-.04,4.181-0.9a4.049,4.049,0,0,0,1.54-3.381A3.568,3.568,0,0,0,377,38.077c-1.08-.86-2.381-0.86-4.061-0.86h-2.3Zm2.721-7.782,0.68-4.981h1.24a4.075,4.075,0,0,1,2.181.38,2.068,2.068,0,0,1,.96,1.88,2.471,2.471,0,0,1-1.36,2.38,6.072,6.072,0,0,1-2.541.34h-1.16Zm13.949,0.3,0.4-1.58a2.231,2.231,0,0,0-.9-0.2A3.159,3.159,0,0,0,382.31,44l0.24-1.42h-1.541l-1.18,8.942h1.52l0.56-4.221c0.321-2.361,1.081-3.521,2.481-3.521A2.284,2.284,0,0,1,385.43,44.038Zm1.919,3.381a4.236,4.236,0,0,0,4.5,4.481c2.921,0,5.021-2.14,5.021-5.361a4.273,4.273,0,0,0-4.481-4.281A5,5,0,0,0,387.349,47.419Zm4.961-3.9a3.044,3.044,0,0,1,3.021,3.3c0,2.24-1.441,3.841-3.381,3.841a3,3,0,0,1-3.041-3.281C388.909,45.118,390.37,43.518,392.31,43.518Zm14.159,8h1.72l0.92-6.941h5.642l0.2-1.54h-5.642l0.561-4.261h5.641l0.22-1.56h-7.382Zm10.248-4.1a4.237,4.237,0,0,0,4.5,4.481c2.921,0,5.021-2.14,5.021-5.361a4.273,4.273,0,0,0-4.481-4.281A5,5,0,0,0,416.717,47.419Zm4.961-3.9a3.044,3.044,0,0,1,3.021,3.3c0,2.24-1.44,3.841-3.381,3.841a3,3,0,0,1-3.04-3.281C418.278,45.118,419.738,43.518,421.678,43.518Zm7.059,3.9a4.237,4.237,0,0,0,4.5,4.481c2.921,0,5.021-2.14,5.021-5.361a4.273,4.273,0,0,0-4.481-4.281A5,5,0,0,0,428.737,47.419Zm4.961-3.9a3.044,3.044,0,0,1,3.021,3.3c0,2.24-1.44,3.841-3.381,3.841a3,3,0,0,1-3.04-3.281C430.3,45.118,431.758,43.518,433.7,43.518Zm7.679,8h1.561l1-7.642h1.98l0.16-1.3h-1.96l0.48-3.6h-1.58l-0.46,3.6H440.9l-0.18,1.3h1.66Zm7.8,0,0.22-1.74a3.273,3.273,0,0,0,3.261,2.12,4.237,4.237,0,0,0,3.421-1.68,5.609,5.609,0,0,0,1.16-3.361c0-2.821-1.6-4.581-3.881-4.581a3.844,3.844,0,0,0-3.221,1.7l1.021-7.6H449.6l-2,15.143h1.58Zm3.661-7.782a2.79,2.79,0,0,1,2.821,3.061,3.437,3.437,0,0,1-3.381,3.741c-1.48,0-2.561-1.18-2.561-3.041C449.717,45.278,451.158,43.738,452.838,43.738Zm15.22-1.16-0.24,1.8a3.246,3.246,0,0,0-3.26-2.12c-2.621,0-4.6,2.14-4.6,5.121,0,2.721,1.62,4.5,3.86,4.5a3.812,3.812,0,0,0,3.261-1.7l-0.22,1.34h1.56l1.181-8.942h-1.541Zm-3.7,7.882a2.817,2.817,0,0,1-2.821-3.081,3.436,3.436,0,0,1,3.381-3.741c1.48,0,2.56,1.18,2.56,3.041C467.478,48.9,466.038,50.459,464.358,50.459Zm9.679,1.06,1.98-15.143h-1.56l-2,15.143h1.581Zm5.82,0,1.98-15.143h-1.56l-2,15.143h1.581Zm11.079,0h1.7l0.82-6.281h1.28c1.7,0,3.081-.04,4.181-0.9a4.049,4.049,0,0,0,1.54-3.381,3.568,3.568,0,0,0-1.28-2.881c-1.08-.86-2.381-0.86-4.061-0.86h-2.3Zm2.721-7.782,0.68-4.981h1.24a4.073,4.073,0,0,1,2.181.38,2.068,2.068,0,0,1,.96,1.88,2.471,2.471,0,0,1-1.36,2.38,6.072,6.072,0,0,1-2.541.34h-1.16ZM504,51.52l1.98-15.143h-1.56l-2,15.143H504Zm12.181-8.942-0.24,1.8a3.247,3.247,0,0,0-3.261-2.12c-2.62,0-4.6,2.14-4.6,5.121,0,2.721,1.62,4.5,3.861,4.5a3.814,3.814,0,0,0,3.261-1.7l-0.22,1.34h1.56l1.18-8.942h-1.54Zm-3.7,7.882a2.817,2.817,0,0,1-2.821-3.081,3.437,3.437,0,0,1,3.381-3.741c1.48,0,2.561,1.18,2.561,3.041C515.6,48.9,514.157,50.459,512.477,50.459Zm7.3,5.421h1.74l7.7-13.3h-1.781l-3.48,6.381-1.841-6.381h-1.66l2.44,7.962Zm18.061-9.842H532.3a3.067,3.067,0,0,1,3.081-2.521A2.288,2.288,0,0,1,537.837,46.038Zm1.481,1.28c0.02-.24.02-0.48,0.02-0.7,0-2.781-1.461-4.361-3.941-4.361a4.862,4.862,0,0,0-4.8,5.181,4.113,4.113,0,0,0,4.361,4.461,4.626,4.626,0,0,0,3.76-2.02l-1.08-.88a3.365,3.365,0,0,1-2.74,1.56c-1.681,0-2.741-1.16-2.741-3.081v-0.16h7.162Zm8.279-3.281,0.4-1.58a2.231,2.231,0,0,0-.9-0.2A3.161,3.161,0,0,0,544.476,44l0.24-1.42h-1.54L542,51.52h1.52l0.56-4.221c0.32-2.361,1.08-3.521,2.481-3.521A2.284,2.284,0,0,1,547.6,44.038Z"/>
  <path id="Matt_is_wearing_the_Fulton_skinny_fit._" data-name="Matt is wearing the Fulton skinny fit.   " class="cls-2" d="M1.225,494.664l1.056-7.427,3.585,7.875L9.5,487.237l1.008,7.427h1.217l-1.665-11.285-4.178,9.028-4.1-9.012L0.008,494.664H1.225Zm18.561-5.7a2.746,2.746,0,0,0-2.273-1.105,3.508,3.508,0,0,0,0,7,2.8,2.8,0,0,0,2.273-1.121v0.929h1.152v-6.643H19.786v0.945Zm-2.145-.081a2.489,2.489,0,0,1,0,4.946A2.493,2.493,0,0,1,17.642,488.885Zm8.607,0.193v-1.057H25.1v-2.4H23.944v2.4h-0.7v1.057h0.7v5.586H25.1v-5.586h1.152Zm4.544,0v-1.057H29.64v-2.4H28.488v2.4h-0.7v1.057h0.7v5.586H29.64v-5.586h1.152Zm6.415-1.057v6.643H38.36v-6.643H37.207Zm-0.24-2.513a0.816,0.816,0,1,0,.816-0.816A0.82,0.82,0,0,0,36.967,485.508Zm8.05,3.554a1.916,1.916,0,0,0-1.825-1.2,1.786,1.786,0,0,0-1.937,1.857,1.442,1.442,0,0,0,.3.976,4.347,4.347,0,0,0,1.617.977,1.262,1.262,0,0,1,1.072,1.1,1.031,1.031,0,0,1-1.088,1.056,1.5,1.5,0,0,1-1.345-1.088l-0.992.416a2.376,2.376,0,0,0,2.321,1.7,2.113,2.113,0,0,0,2.289-2.177,1.571,1.571,0,0,0-.352-1.072,4.026,4.026,0,0,0-1.665-1.025c-0.752-.32-1.072-0.464-1.072-0.944a0.735,0.735,0,0,1,.8-0.753,1.019,1.019,0,0,1,.928.673Zm6.318-1.041,3.265,7.107,2.049-4.962,2.049,4.962,3.3-7.107H60.714l-1.985,4.514-2.065-5.026-2.081,5.026-1.969-4.514H51.335Zm17.6,4.418a2.646,2.646,0,0,1-.688.912,2.02,2.02,0,0,1-1.361.48,2.127,2.127,0,0,1-2.113-2.256h5.17a4.459,4.459,0,0,0-.624-2.5,2.97,2.97,0,0,0-2.513-1.217,3.221,3.221,0,0,0-3.217,3.522,3.179,3.179,0,0,0,3.281,3.473,3.225,3.225,0,0,0,2.209-.816,3.992,3.992,0,0,0,.816-1.073Zm-4.082-1.825a2.019,2.019,0,0,1,1.953-1.729,1.989,1.989,0,0,1,1.953,1.729H64.855Zm12.738-1.648a2.746,2.746,0,0,0-2.273-1.105,3.508,3.508,0,0,0,0,7,2.8,2.8,0,0,0,2.273-1.121v0.929h1.152v-6.643H77.593v0.945Zm-2.145-.081a2.489,2.489,0,0,1,0,4.946A2.493,2.493,0,0,1,75.448,488.885Zm6.271,5.779h1.152v-3.506a2.864,2.864,0,0,1,.384-1.792,1.116,1.116,0,0,1,.928-0.416,1.186,1.186,0,0,1,.672.224l0.544-1.041a2.434,2.434,0,0,0-1.024-.272,1.846,1.846,0,0,0-1.5.88v-0.72H81.718v6.643Zm5.536-6.643v6.643h1.153v-6.643H87.254Zm-0.24-2.513a0.816,0.816,0,1,0,.816-0.816A0.82,0.82,0,0,0,87.014,485.508Zm4.368,9.156h1.152V491.19a2.8,2.8,0,0,1,.48-1.792,1.454,1.454,0,0,1,1.168-.513,1.3,1.3,0,0,1,1.089.481,1.952,1.952,0,0,1,.3,1.216v4.082h1.153V490.55a2.965,2.965,0,0,0-.384-1.777,2.253,2.253,0,0,0-1.9-.912,2.343,2.343,0,0,0-1.9.928v-0.768H91.382v6.643Zm13.41-5.7a2.762,2.762,0,0,0-2.273-1.105,3.276,3.276,0,0,0-2.273.9,3.486,3.486,0,0,0-.96,2.577,3.6,3.6,0,0,0,.96,2.626,3.183,3.183,0,0,0,2.273.9,2.8,2.8,0,0,0,2.273-1.121V494.7a3.092,3.092,0,0,1-.368,1.7,1.863,1.863,0,0,1-1.761.928,2.059,2.059,0,0,1-1.6-.64,2.093,2.093,0,0,1-.512-1.377H99.414a2.993,2.993,0,0,0,.864,2.145,3.291,3.291,0,0,0,2.369.9,3.232,3.232,0,0,0,2.657-1.232,4.182,4.182,0,0,0,.64-2.609v-6.483h-1.152v0.945Zm-2.145-.081a2.134,2.134,0,0,1,1.5.593,2.625,2.625,0,0,1,.7,1.872,2.693,2.693,0,0,1-.752,1.921,1.969,1.969,0,0,1-1.457.56,2.013,2.013,0,0,1-1.425-.544,2.56,2.56,0,0,1-.752-1.953,2.528,2.528,0,0,1,.672-1.824A2.061,2.061,0,0,1,102.647,488.885Zm13.135,0.193v-1.057H114.63v-2.4h-1.153v2.4h-0.7v1.057h0.7v5.586h1.153v-5.586h1.152Zm1.887,5.586h1.153V491.19a2.8,2.8,0,0,1,.48-1.792,1.453,1.453,0,0,1,1.168-.513,1.306,1.306,0,0,1,1.089.481,1.952,1.952,0,0,1,.3,1.216v4.082h1.152V490.55a2.966,2.966,0,0,0-.384-1.777,2.253,2.253,0,0,0-1.905-.912,2.342,2.342,0,0,0-1.9.928V483h-1.153v11.669Zm13.09-2.225a2.645,2.645,0,0,1-.688.912,2.021,2.021,0,0,1-1.361.48,2.128,2.128,0,0,1-2.113-2.256h5.17a4.459,4.459,0,0,0-.624-2.5,2.969,2.969,0,0,0-2.513-1.217,3.221,3.221,0,0,0-3.217,3.522,3.179,3.179,0,0,0,3.281,3.473,3.224,3.224,0,0,0,2.209-.816,3.992,3.992,0,0,0,.816-1.073Zm-4.082-1.825a2.02,2.02,0,0,1,1.953-1.729,1.988,1.988,0,0,1,1.953,1.729h-3.906Zm17.33-6.626h-4.866v10.676h1.184v-5.282h3.554v-1.121h-3.554v-3.153h3.682v-1.12Zm3.406,4.033h-1.152v4a2.643,2.643,0,0,0,.608,2,2.9,2.9,0,0,0,4.065,0,2.639,2.639,0,0,0,.609-2v-4H150.39V491.9a2.26,2.26,0,0,1-.32,1.424,1.589,1.589,0,0,1-2.337,0,2.26,2.26,0,0,1-.32-1.424v-3.874Zm7.1-5.026v11.669h1.153V483h-1.153Zm6.465,6.083v-1.057h-1.152v-2.4h-1.153v2.4h-0.7v1.057h0.7v5.586h1.153v-5.586h1.152Zm4.992,5.778a3.5,3.5,0,1,0-3.521-3.49A3.408,3.408,0,0,0,165.973,494.856Zm0-5.971a2.477,2.477,0,1,1-2.337,2.481A2.3,2.3,0,0,1,165.973,488.885Zm6.079,5.779H173.2V491.19a2.8,2.8,0,0,1,.48-1.792,1.456,1.456,0,0,1,1.169-.513,1.3,1.3,0,0,1,1.088.481,1.953,1.953,0,0,1,.305,1.216v4.082H177.4V490.55a2.966,2.966,0,0,0-.384-1.777,2.254,2.254,0,0,0-1.905-.912,2.345,2.345,0,0,0-1.905.928v-0.768h-1.152v6.643Zm16.529-5.6a1.916,1.916,0,0,0-1.825-1.2,1.786,1.786,0,0,0-1.937,1.857,1.442,1.442,0,0,0,.3.976,4.358,4.358,0,0,0,1.617.977,1.263,1.263,0,0,1,1.073,1.1,1.031,1.031,0,0,1-1.089,1.056,1.5,1.5,0,0,1-1.344-1.088l-0.993.416a2.375,2.375,0,0,0,2.321,1.7A2.113,2.113,0,0,0,189,492.679a1.572,1.572,0,0,0-.352-1.072,4.024,4.024,0,0,0-1.665-1.025c-0.752-.32-1.072-0.464-1.072-0.944a0.734,0.734,0,0,1,.8-0.753,1.019,1.019,0,0,1,.928.673Zm2.75-6.067v11.669h1.153v-2.737l0.288-.288,2.657,3.025h1.5l-3.361-3.794,2.849-2.849h-1.5l-2.433,2.465V483h-1.153Zm7.552,5.026v6.643h1.153v-6.643h-1.153Zm-0.24-2.513a0.817,0.817,0,1,0,.816-0.816A0.819,0.819,0,0,0,198.643,485.508Zm4.368,9.156h1.152V491.19a2.8,2.8,0,0,1,.481-1.792,1.453,1.453,0,0,1,1.168-.513,1.306,1.306,0,0,1,1.089.481,1.952,1.952,0,0,1,.3,1.216v4.082h1.152V490.55a2.966,2.966,0,0,0-.384-1.777,2.253,2.253,0,0,0-1.905-.912,2.347,2.347,0,0,0-1.905.928v-0.768h-1.152v6.643Zm8.32,0h1.152V491.19a2.8,2.8,0,0,1,.48-1.792,1.456,1.456,0,0,1,1.169-.513,1.3,1.3,0,0,1,1.088.481,1.946,1.946,0,0,1,.305,1.216v4.082h1.152V490.55a2.966,2.966,0,0,0-.384-1.777,2.254,2.254,0,0,0-1.905-.912,2.345,2.345,0,0,0-1.905.928v-0.768h-1.152v6.643Zm8.3,3.681h1.28l4.882-10.324h-1.28l-2.161,4.754L220,488.021H218.69l3.057,6.019Zm15.52-9.267v-1.057h-1.632v-2.5a1.835,1.835,0,0,1,.224-1.04,1.663,1.663,0,0,1,2.4,0,2.012,2.012,0,0,1,.224,1.04V485.8h1.152v-0.272a3.163,3.163,0,0,0-.384-1.745,2.512,2.512,0,0,0-2.193-.976,2.475,2.475,0,0,0-2.193.976,2.863,2.863,0,0,0-.384,1.745v2.5h-0.64v1.057h0.64v5.586h1.153v-5.586h1.632Zm1.217-1.057v6.643h1.152v-6.643h-1.152Zm6.463,1.057v-1.057h-1.152v-2.4H240.53v2.4h-0.7v1.057h0.7v5.586h1.153v-5.586h1.152Zm1.823,4.946a0.8,0.8,0,1,0,.8-0.8A0.813,0.813,0,0,0,244.658,494.024Z"/>
  <path class="cls-1" d="M370,104h151.01v3H370v-3Z"/>
  <path id="SHOP_the_look" data-name="SHOP the look" class="cls-1" d="M376.725,84.182a4.84,4.84,0,0,0-3.05-1.056,3.235,3.235,0,0,0-2.54.976,3.351,3.351,0,0,0-.894,2.4,2.69,2.69,0,0,0,.616,1.856,3.433,3.433,0,0,0,1.432.848l0.847,0.3a4.947,4.947,0,0,1,1.2.592,0.956,0.956,0,0,1,.354.768,1.123,1.123,0,0,1-.37.864,1.6,1.6,0,0,1-1.078.368,2.319,2.319,0,0,1-1.293-.384A6.323,6.323,0,0,1,371,90.9l-1.232,1.76a6.57,6.57,0,0,0,1.509,1.168,4.218,4.218,0,0,0,2.033.448,3.458,3.458,0,0,0,3.819-3.727,2.718,2.718,0,0,0-.755-1.984,4.071,4.071,0,0,0-1.4-.816l-0.77-.3a4.073,4.073,0,0,1-1.294-.608,0.763,0.763,0,0,1-.231-0.592,0.973,0.973,0,0,1,.262-0.672,1.256,1.256,0,0,1,1-.368,2.451,2.451,0,0,1,1.725.768Zm7.254-.816h-2.371v10.67h2.371V89.509h4.1v4.527h2.371V83.366h-2.371v4.063h-4.1V83.366Zm16.619-.24a5.4,5.4,0,0,0-4.02,1.568,6.079,6.079,0,0,0-1.586,4.047,5.419,5.419,0,0,0,5.606,5.535,5.376,5.376,0,0,0,3.973-1.568,5.836,5.836,0,0,0,0-8.031A5.375,5.375,0,0,0,400.6,83.126ZM400.582,85.4a3.228,3.228,0,0,1,2.264.912,3.433,3.433,0,0,1,.893,2.4,3.26,3.26,0,0,1-.893,2.384,3.05,3.05,0,0,1-2.279.912,2.958,2.958,0,0,1-2.2-.88,3.245,3.245,0,0,1-.94-2.4,3.332,3.332,0,0,1,.909-2.416A3.088,3.088,0,0,1,400.582,85.4Zm10.135-2.032v10.67h2.372V90.293h1.448a3.418,3.418,0,0,0,2.617-.944,3.5,3.5,0,0,0,.878-2.512,3.351,3.351,0,0,0-1-2.592,3.758,3.758,0,0,0-2.695-.88h-3.619Zm2.372,2.016h0.8a1.8,1.8,0,0,1,1.324.4,1.438,1.438,0,0,1,.385,1.04,1.516,1.516,0,0,1-.385,1.056,1.768,1.768,0,0,1-1.278.4h-0.847v-2.9ZM434.5,85.446v-2.08h-6.838v2.08h2.233v8.591h2.372V85.446H434.5Zm6.392-2.08h-2.371v10.67h2.371V89.509h4.1v4.527h2.372V83.366h-2.372v4.063h-4.1V83.366Zm17.3,0h-5.806v10.67h5.806v-2.08h-3.434V89.589h3.264v-2.08h-3.264V85.446h3.434v-2.08Zm11.059,0v10.67H474.8v-2.08h-3.187V83.366h-2.372Zm14.477-.24a5.4,5.4,0,0,0-4.019,1.568,6.079,6.079,0,0,0-1.586,4.047,5.417,5.417,0,0,0,5.605,5.535,5.372,5.372,0,0,0,3.973-1.568,5.833,5.833,0,0,0,0-8.031A5.372,5.372,0,0,0,483.721,83.126ZM483.706,85.4a3.23,3.23,0,0,1,2.264.912,3.433,3.433,0,0,1,.893,2.4,3.26,3.26,0,0,1-.893,2.384,3.05,3.05,0,0,1-2.279.912,2.961,2.961,0,0,1-2.2-.88,3.249,3.249,0,0,1-.939-2.4,3.332,3.332,0,0,1,.909-2.416A3.088,3.088,0,0,1,483.706,85.4Zm15.263-2.272a5.4,5.4,0,0,0-4.019,1.568,6.079,6.079,0,0,0-1.586,4.047,5.417,5.417,0,0,0,5.605,5.535,5.372,5.372,0,0,0,3.973-1.568,5.833,5.833,0,0,0,0-8.031A5.372,5.372,0,0,0,498.969,83.126ZM498.954,85.4a3.232,3.232,0,0,1,2.264.912,3.433,3.433,0,0,1,.893,2.4,3.26,3.26,0,0,1-.893,2.384,3.051,3.051,0,0,1-2.28.912,2.961,2.961,0,0,1-2.2-.88,3.249,3.249,0,0,1-.939-2.4,3.332,3.332,0,0,1,.909-2.416A3.088,3.088,0,0,1,498.954,85.4Zm12.507-2.032h-2.372v10.67h2.372V89.3l3.68,4.735h3.049l-4.481-5.615,4.158-5.055h-2.895l-3.511,4.447V83.366Z"/>
</svg>
