<svg xmlns="http://www.w3.org/2000/svg" data-name="STRETCH ICON" width="641" height="838"><rect id="backgroundrect" width="100%" height="100%" fill="none"/><defs><style>.cls-1{fill:#231f20}.cls-1,.cls-2{fill-rule:evenodd}</style></defs><g class="currentLayer"><path id="Moves_with_your_body_for_maximum_mobility_and_ultimate_comfort." data-name="Moves with your body for maximum mobility and ultimate comfort." class="cls-1" d="M65.872 356.27l4.863-11.31 2 10.694h1.826l-3.19-16.349-5.5 13-5.5-13-3.19 16.349h1.826l1.98-10.694zm11.241-5.5a5.159 5.159 0 0 0 1.562 3.741 5.271 5.271 0 0 0 3.785 1.562 5.368 5.368 0 0 0 3.784-1.584 5.234 5.234 0 0 0 0-7.46 5.308 5.308 0 0 0-3.784-1.562 5.248 5.248 0 0 0-3.785 1.541 5.168 5.168 0 0 0-1.562 3.761zm1.782 0a3.557 3.557 0 1 1 3.565 3.719 3.613 3.613 0 0 1-3.56-3.72zm15.862 5.5l4.843-10.452h-1.895l-2.97 6.865-2.948-6.865h-1.893zm16.523-5.281v-.33c0-3.256-1.849-5.215-4.731-5.215-2.861 0-4.907 2.157-4.907 5.259 0 3.213 2.024 5.369 5.017 5.369a4.909 4.909 0 0 0 4.555-2.685l-1.277-.858a3.6 3.6 0 0 1-3.19 2.135 3.231 3.231 0 0 1-3.257-3.521v-.154h7.79zm-1.805-1.364h-5.985a2.881 2.881 0 0 1 2.993-2.707 2.7 2.7 0 0 1 2.992 2.707zm4.4 4.379a4.05 4.05 0 0 0 3.873 2.068c2.178 0 3.586-1.3 3.586-3.125 0-1.606-.946-2.31-2.86-2.926-1.629-.528-2.531-.66-2.531-1.694a1.517 1.517 0 0 1 1.672-1.475 2.328 2.328 0 0 1 2.245 1.409l1.364-.836a3.516 3.516 0 0 0-3.5-1.959c-2.091 0-3.477 1.254-3.477 2.971 0 1.936 1.452 2.354 3.873 3.19 1.034.352 1.54.748 1.54 1.5a1.606 1.606 0 0 1-1.848 1.475 2.651 2.651 0 0 1-2.509-1.563zm24.707-8.538h-.264l-2.993 7.063-2.618-6.711h-1.87l4.378 10.452 3.235-7.547 3.234 7.547 4.379-10.452h-1.893l-2.641 6.711zm10.383 10.188h1.694v-9.836h-1.694v9.836zm-.4-14.566a1.232 1.232 0 0 0 2.464.022 1.25 1.25 0 0 0-1.232-1.255 1.231 1.231 0 0 0-1.229 1.233zm7 6.117v8.449h1.716v-8.449h1.8v-1.387h-1.8v-3.96h-1.716v3.96h-1.805v1.387h1.805zm6.533 8.449h1.672v-5.083a3.784 3.784 0 0 1 .573-2.6 3 3 0 0 1 2.4-1.057c1.76 0 2.574.969 2.574 2.949v5.787h1.716v-6.689c0-2.223-1.408-3.5-3.7-3.5a4.041 4.041 0 0 0-3.587 1.871V339H162.1v16.657zm20.548 4.8h1.892l6.6-14.632h-1.848l-3.037 7.063-2.86-7.063h-1.936l3.85 8.868zm10.384-9.681a5.159 5.159 0 0 0 1.562 3.741 5.27 5.27 0 0 0 3.784 1.562 5.367 5.367 0 0 0 3.785-1.584 5.235 5.235 0 0 0 0-7.46 5.308 5.308 0 0 0-3.785-1.562 5.247 5.247 0 0 0-3.784 1.541 5.168 5.168 0 0 0-1.563 3.758zm1.782 0a3.557 3.557 0 1 1 3.564 3.719 3.613 3.613 0 0 1-3.565-3.723zm14.212-4.951h-1.761v5.743c0 2.971 1.563 4.511 4.467 4.511 2.948 0 4.489-1.54 4.489-4.511v-5.743H214.5v4.841c0 2.6-.572 3.807-2.728 3.807s-2.75-1.211-2.75-3.807v-4.841zm11.571 9.836h1.673v-4.8c0-2.574.88-3.85 2.662-3.85a3.161 3.161 0 0 1 1.034.2l.572-1.519a3.383 3.383 0 0 0-1.144-.2c-1.5 0-2.42.7-3.3 2.377v-2.047h-1.5v9.836zM236.984 339v16.657h1.606v-1.782a4.008 4.008 0 0 0 3.587 2.2c2.816 0 4.709-2.091 4.709-5.3 0-3.3-1.893-5.3-4.643-5.3a3.8 3.8 0 0 0-3.587 2.2V339h-1.672zm1.606 11.794c0-2.222 1.365-3.652 3.345-3.652 1.958 0 3.168 1.254 3.168 3.432 0 2.464-1.254 3.873-3.212 3.873-2.024-.003-3.301-1.324-3.301-3.656zm11.286-.022a5.159 5.159 0 0 0 1.562 3.741 5.27 5.27 0 0 0 3.785 1.562 5.367 5.367 0 0 0 3.784-1.584 5.235 5.235 0 0 0 0-7.46 5.307 5.307 0 0 0-3.784-1.562 5.247 5.247 0 0 0-3.785 1.541 5.168 5.168 0 0 0-1.562 3.759zm1.782 0a3.557 3.557 0 1 1 3.565 3.719 3.613 3.613 0 0 1-3.565-3.722zM273.439 339h-1.672v8.67a3.794 3.794 0 0 0-3.587-2.2c-2.75 0-4.642 2-4.642 5.3 0 3.212 1.892 5.3 4.708 5.3a3.974 3.974 0 0 0 3.565-2.2v1.782h1.628V339zm-1.628 11.794c0 2.332-1.276 3.653-3.3 3.653-1.958 0-3.19-1.409-3.19-3.873 0-2.178 1.21-3.432 3.168-3.432 1.98-.003 3.322 1.427 3.322 3.649zm5.762 9.659h1.893l6.6-14.632h-1.849l-3.036 7.063-2.86-7.063h-1.937l3.851 8.868zm-219.6 25.2h1.716v-8.449h2.574v-1.387h-2.618V373.2c0-1.892.044-2.794 1.3-2.794a2.7 2.7 0 0 1 1.32.352v-1.739a4.556 4.556 0 0 0-1.452-.22c-2.354 0-2.838 1.233-2.838 4.181v2.838h-1.894v1.387h1.892v8.449zm6.225-4.885a5.159 5.159 0 0 0 1.562 3.741 5.271 5.271 0 0 0 3.785 1.562 5.368 5.368 0 0 0 3.785-1.584 5.233 5.233 0 0 0 0-7.459 5.3 5.3 0 0 0-3.785-1.563 5.251 5.251 0 0 0-3.785 1.54 5.172 5.172 0 0 0-1.56 3.764zm1.782 0a3.557 3.557 0 1 1 3.564 3.719 3.614 3.614 0 0 1-3.563-3.718zm12.65 4.885h1.67v-4.8c0-2.574.88-3.851 2.662-3.851a3.165 3.165 0 0 1 1.034.2l.572-1.519a3.384 3.384 0 0 0-1.144-.2c-1.5 0-2.42.7-3.3 2.377v-2.047h-1.5v9.836zm30.076 0h1.672v-6.689a3.205 3.205 0 0 0-3.5-3.5 3.889 3.889 0 0 0-3.5 2 3.31 3.31 0 0 0-3.3-2 3.823 3.823 0 0 0-3.41 1.871v-1.519H95.02v9.836h1.628v-5.083a3.979 3.979 0 0 1 .528-2.6 2.787 2.787 0 0 1 2.244-1.057c1.672 0 2.442.969 2.442 2.949v5.787h1.628v-5.083a3.972 3.972 0 0 1 .551-2.6 2.744 2.744 0 0 1 2.222-1.057c1.672 0 2.442.969 2.442 2.949v5.787zm15.223-9.836h-1.672v1.849a3.8 3.8 0 0 0-3.608-2.2c-2.751 0-4.621 2-4.621 5.3 0 3.213 1.892 5.3 4.709 5.3a3.956 3.956 0 0 0 3.564-2.2v1.783h1.628v-9.836zm-1.628 5.017c0 2.266-1.232 3.565-3.212 3.565-2.091 0-3.279-1.343-3.279-3.719 0-2.244 1.188-3.542 3.213-3.542 1.892.001 3.277 1.409 3.277 3.697zm4.376 4.819h2.091l2.662-3.807 2.685 3.807h2.09l-3.807-5.083 3.7-4.753h-2.09l-2.575 3.521-2.552-3.521h-2.091l3.675 4.753zm12.431 0h1.692v-9.836h-1.694v9.836zm-.4-14.566a1.232 1.232 0 0 0 2.464.022 1.25 1.25 0 0 0-1.232-1.255 1.231 1.231 0 0 0-1.228 1.234zm20.417 14.566h1.675v-6.689a3.206 3.206 0 0 0-3.5-3.5 3.887 3.887 0 0 0-3.5 2 3.311 3.311 0 0 0-3.3-2 3.823 3.823 0 0 0-3.41 1.871v-1.519h-1.651v9.836h1.629v-5.083a3.98 3.98 0 0 1 .528-2.6 2.787 2.787 0 0 1 2.244-1.057c1.672 0 2.442.969 2.442 2.949v5.787h1.629v-5.083a3.978 3.978 0 0 1 .55-2.6 2.744 2.744 0 0 1 2.222-1.057c1.672 0 2.442.969 2.442 2.949v5.787zm7.655-9.836h-1.761v5.743c0 2.971 1.562 4.511 4.467 4.511 2.948 0 4.489-1.54 4.489-4.511v-5.743h-1.717v4.841c0 2.6-.572 3.807-2.728 3.807s-2.75-1.211-2.75-3.807v-4.841zm25.235 9.836h1.672v-6.689a3.205 3.205 0 0 0-3.5-3.5 3.889 3.889 0 0 0-3.5 2 3.31 3.31 0 0 0-3.3-2 3.825 3.825 0 0 0-3.411 1.871v-1.519h-1.65v9.836h1.628v-5.083a3.973 3.973 0 0 1 .529-2.6 2.787 2.787 0 0 1 2.244-1.057c1.672 0 2.442.969 2.442 2.949v5.787h1.631v-5.083a3.972 3.972 0 0 1 .551-2.6 2.744 2.744 0 0 1 2.222-1.057c1.672 0 2.442.969 2.442 2.949v5.787zm27.346 0h1.672v-6.689a3.205 3.205 0 0 0-3.5-3.5 3.887 3.887 0 0 0-3.5 2 3.31 3.31 0 0 0-3.3-2 3.824 3.824 0 0 0-3.411 1.871v-1.519h-1.65v9.836h1.628v-5.083a3.98 3.98 0 0 1 .528-2.6 2.787 2.787 0 0 1 2.245-1.057c1.672 0 2.442.969 2.442 2.949v5.787h1.628v-5.083a3.978 3.978 0 0 1 .55-2.6 2.745 2.745 0 0 1 2.223-1.057c1.672 0 2.442.969 2.442 2.949v5.787zm5.278-4.885a5.159 5.159 0 0 0 1.562 3.741 5.27 5.27 0 0 0 3.784 1.562 5.367 5.367 0 0 0 3.785-1.584 5.233 5.233 0 0 0 0-7.459 5.3 5.3 0 0 0-3.785-1.563 5.25 5.25 0 0 0-3.784 1.54 5.172 5.172 0 0 0-1.558 3.764zm1.782 0a3.557 3.557 0 1 1 3.564 3.719 3.614 3.614 0 0 1-3.56-3.718zM239.052 369v16.657h1.607v-1.783a4 4 0 0 0 3.586 2.2c2.817 0 4.709-2.09 4.709-5.3 0-3.3-1.892-5.3-4.643-5.3a3.793 3.793 0 0 0-3.586 2.2V369h-1.673zm1.607 11.794c0-2.222 1.364-3.652 3.344-3.652 1.958 0 3.169 1.254 3.169 3.432 0 2.464-1.255 3.873-3.213 3.873-2.024-.003-3.3-1.324-3.3-3.656zm12.165 4.863h1.695v-9.836h-1.695v9.836zm-.4-14.566a1.233 1.233 0 0 0 2.465.022 1.25 1.25 0 0 0-1.233-1.255 1.231 1.231 0 0 0-1.228 1.23zm6.82 14.566h1.716V369h-1.716v16.657zm6.424 0h1.694v-9.836h-1.694v9.836zm-.4-14.566a1.232 1.232 0 0 0 2.464.022 1.25 1.25 0 0 0-1.232-1.255 1.231 1.231 0 0 0-1.224 1.23zm7 6.117v8.449h1.716v-8.449h1.8v-1.387h-1.8v-3.96h-1.716v3.96h-1.805v1.387h1.805zm6.137 13.245h1.895l6.6-14.632h-1.848l-3.036 7.063-2.861-7.063h-1.936l3.851 8.868zM67.8 405.818h-1.675v1.849a3.8 3.8 0 0 0-3.609-2.2c-2.75 0-4.621 2-4.621 5.3 0 3.213 1.892 5.3 4.709 5.3a3.956 3.956 0 0 0 3.565-2.2v1.783H67.8v-9.836zm-1.628 5.017c0 2.266-1.232 3.565-3.212 3.565-2.09 0-3.278-1.343-3.278-3.719 0-2.244 1.188-3.542 3.212-3.542 1.889 0 3.275 1.408 3.275 3.696zm6.093 4.819h1.672v-5.083a3.789 3.789 0 0 1 .572-2.6 3 3 0 0 1 2.4-1.056c1.76 0 2.574.968 2.574 2.948v5.787h1.716v-6.689c0-2.223-1.408-3.5-3.7-3.5a4.039 4.039 0 0 0-3.587 1.871v-1.519h-1.65v9.836zM94.769 399H93.1v8.67a3.793 3.793 0 0 0-3.587-2.2c-2.75 0-4.643 2-4.643 5.3 0 3.213 1.892 5.3 4.709 5.3a3.972 3.972 0 0 0 3.565-2.2v1.783h1.628V399zm-1.628 11.794c0 2.332-1.276 3.653-3.3 3.653-1.958 0-3.19-1.409-3.19-3.873 0-2.178 1.21-3.432 3.168-3.432 1.981-.003 3.322 1.427 3.322 3.649zm15.333-4.973h-1.761v5.743c0 2.971 1.562 4.511 4.467 4.511 2.948 0 4.489-1.54 4.489-4.511v-5.743h-1.717v4.841c0 2.6-.572 3.807-2.728 3.807s-2.75-1.211-2.75-3.807v-4.841zm11.637 9.836h1.716V399h-1.716v16.657zm6.6-8.449v8.449h1.716v-8.449h1.805v-1.387h-1.805v-3.96h-1.716v3.96h-1.8v1.387h1.8zm6.622 8.449h1.694v-9.836h-1.694v9.836zm-.4-14.566a1.232 1.232 0 0 0 2.464.022 1.25 1.25 0 0 0-1.232-1.255 1.231 1.231 0 0 0-1.228 1.23zm20.417 14.566h1.673v-6.689a3.206 3.206 0 0 0-3.5-3.5 3.887 3.887 0 0 0-3.5 2 3.311 3.311 0 0 0-3.3-2 3.823 3.823 0 0 0-3.41 1.871v-1.519h-1.651v9.836h1.638v-5.083a3.98 3.98 0 0 1 .528-2.6 2.786 2.786 0 0 1 2.244-1.056c1.672 0 2.442.968 2.442 2.948v5.787h1.629v-5.083a3.978 3.978 0 0 1 .55-2.6 2.743 2.743 0 0 1 2.222-1.056c1.672 0 2.442.968 2.442 2.948v5.787zm15.224-9.836h-1.673v1.849a3.8 3.8 0 0 0-3.608-2.2c-2.751 0-4.621 2-4.621 5.3 0 3.213 1.892 5.3 4.709 5.3a3.956 3.956 0 0 0 3.564-2.2v1.783h1.629v-9.836zm-1.629 5.017c0 2.266-1.232 3.565-3.212 3.565-2.09 0-3.279-1.343-3.279-3.719 0-2.244 1.189-3.542 3.213-3.542 1.896-.003 3.282 1.405 3.282 3.693zm6.357-3.63v8.449h1.716v-8.449h1.8v-1.387h-1.8v-3.96h-1.716v3.96h-1.8v1.387h1.8zm15.313 3.784v-.33c0-3.256-1.848-5.215-4.731-5.215-2.86 0-4.906 2.157-4.906 5.259 0 3.212 2.024 5.369 5.016 5.369a4.907 4.907 0 0 0 4.555-2.685l-1.276-.858a3.6 3.6 0 0 1-3.191 2.135 3.23 3.23 0 0 1-3.256-3.521v-.154h7.789zm-1.8-1.364h-5.985a2.879 2.879 0 0 1 2.992-2.706 2.7 2.7 0 0 1 2.993 2.703zm20.57 3.7a5.042 5.042 0 0 1-3.037 1.123 3.676 3.676 0 0 1 .132-7.349 4.942 4.942 0 0 1 2.729.858v-1.8a7.017 7.017 0 0 0-3.059-.682 5.036 5.036 0 0 0-5.127 5.369 4.876 4.876 0 0 0 5.061 5.237 6.493 6.493 0 0 0 3.3-.792v-1.959zm2.638-2.552a5.159 5.159 0 0 0 1.562 3.741 5.274 5.274 0 0 0 3.785 1.562 5.367 5.367 0 0 0 3.784-1.584 5.232 5.232 0 0 0 0-7.46 5.307 5.307 0 0 0-3.784-1.562 5.251 5.251 0 0 0-3.785 1.541 5.168 5.168 0 0 0-1.562 3.755zm1.782 0a3.557 3.557 0 1 1 3.565 3.719 3.614 3.614 0 0 1-3.565-3.726zm26.314 4.885h1.672v-6.689a3.205 3.205 0 0 0-3.5-3.5 3.887 3.887 0 0 0-3.5 2 3.31 3.31 0 0 0-3.3-2 3.823 3.823 0 0 0-3.411 1.871v-1.519h-1.65v9.836h1.628v-5.083a3.98 3.98 0 0 1 .528-2.6 2.787 2.787 0 0 1 2.245-1.056c1.672 0 2.442.968 2.442 2.948v5.787h1.627v-5.083a3.978 3.978 0 0 1 .55-2.6 2.744 2.744 0 0 1 2.223-1.056c1.672 0 2.442.968 2.442 2.948v5.787zm6.51 0h1.716v-8.449h2.574v-1.387H246.3V403.2c0-1.892.044-2.794 1.3-2.794a2.7 2.7 0 0 1 1.32.352v-1.739a4.555 4.555 0 0 0-1.452-.22c-2.354 0-2.838 1.232-2.838 4.181v2.838h-1.892v1.387h1.892v8.449zm6.225-4.885a5.156 5.156 0 0 0 1.563 3.741 5.27 5.27 0 0 0 3.784 1.562 5.371 5.371 0 0 0 3.785-1.584 5.235 5.235 0 0 0 0-7.46 5.311 5.311 0 0 0-3.785-1.562 5.247 5.247 0 0 0-3.784 1.541 5.165 5.165 0 0 0-1.563 3.755zm1.783 0a3.557 3.557 0 1 1 3.564 3.719 3.613 3.613 0 0 1-3.564-3.726zm12.649 4.885h1.672v-4.8c0-2.574.88-3.85 2.663-3.85a3.161 3.161 0 0 1 1.034.2l.572-1.519a3.383 3.383 0 0 0-1.144-.2c-1.5 0-2.421.7-3.3 2.377v-2.047h-1.5v9.836zm9.064-8.449v8.449h1.716v-8.449h1.805v-1.387h-1.805v-3.96h-1.716v3.96h-1.8v1.387h1.8zm6.776 7.393a1.245 1.245 0 0 0 1.276 1.254 1.264 1.264 0 0 0 1.3-1.254 1.287 1.287 0 0 0-2.576-.005z"/><path id="STRETCH" class="cls-2" d="M104.105 316.379l-1.761 2.9a6.861 6.861 0 0 0 5.081 2.1c3.361 0 5.481-2.06 5.481-5.041 0-2.641-1.4-3.581-3.94-4.261-1.3-.34-2.281-.56-2.281-1.58a1.366 1.366 0 0 1 1.58-1.2 4.338 4.338 0 0 1 2.741 1.141l1.22-2.8a7.224 7.224 0 0 0-4.241-1.28 4.58 4.58 0 0 0-4.941 4.642c0 2.24 1.261 3.281 3.841 3.961 1.62.42 2.4.76 2.4 1.9a1.58 1.58 0 0 1-1.781 1.48 4.706 4.706 0 0 1-3.399-1.962zm22.04 4.621h3.9v-10.922h3.2V306.7h-10.281v3.381h3.181V321zm21.66-7.542V309.7h.78c1.62 0 2.361.48 2.361 1.98 0 1.26-.781 1.78-2.421 1.78h-.72zM144.144 321h3.661v-5.6l3.281 5.6h4.4l-3.9-5.761a3.79 3.79 0 0 0 3.2-4.081 4.246 4.246 0 0 0-1.6-3.5c-1.22-.94-2.74-.96-4.721-.96h-4.321V321zm21.82 0h8.762v-3.2h-4.961v-2.42h4.681v-3.061h-4.681v-2.48h4.961V306.7h-8.762V321zm22.4 0h3.9v-10.922h3.2V306.7h-10.281v3.381h3.181V321zm27.991-13.743a8.273 8.273 0 0 0-3.7-.9 7.505 7.505 0 0 0 0 15 8.273 8.273 0 0 0 3.7-.9V316.2a4.282 4.282 0 0 1-3.3 1.72 3.749 3.749 0 0 1-3.761-3.981c0-2.42 1.5-4.14 3.761-4.14a4.282 4.282 0 0 1 3.3 1.72v-4.261zM227.552 321h3.9v-5.821h5.2V321h3.9v-14.3h-3.9v5.561h-5.2V306.7h-3.9V321z"/><path id="Engineered_to_maintain_shape_after_multiple_washes_and_wears." data-name="Engineered to maintain shape after multiple washes and wears." class="cls-1" d="M340.723 355.654h8.295v-1.738h-6.425v-6.029h6.425v-1.739h-6.425v-4.51h6.425v-1.717h-8.295v15.733zm12.386 0h1.672v-5.083a3.789 3.789 0 0 1 .572-2.6 3 3 0 0 1 2.4-1.057c1.76 0 2.574.969 2.574 2.949v5.787h1.716v-6.689c0-2.223-1.408-3.5-3.7-3.5a4.04 4.04 0 0 0-3.587 1.871v-1.519h-1.65v9.836zm22.507-9.836h-1.672v1.827a3.819 3.819 0 0 0-3.609-2.179c-2.75 0-4.62 1.959-4.62 5.237 0 3.19 1.892 5.259 4.708 5.259a3.951 3.951 0 0 0 3.565-2.179v1.651a4.194 4.194 0 0 1-.418 2.244 3.028 3.028 0 0 1-2.817 1.3c-1.892 0-2.926-.858-2.926-2.31v-.132h-1.892c.066 2.464 1.782 3.916 4.8 3.916a5.162 5.162 0 0 0 3.961-1.474c.924-.99.924-2.09.924-3.5v-9.66zm-1.628 4.951c0 2.266-1.232 3.587-3.213 3.587-2.09 0-3.278-1.343-3.278-3.719 0-2.244 1.188-3.542 3.212-3.542 1.891.005 3.279 1.386 3.279 3.674zm6.225 4.885h1.694v-9.836h-1.694v9.836zm-.4-14.566a1.232 1.232 0 0 0 2.464.022 1.25 1.25 0 0 0-1.232-1.255 1.231 1.231 0 0 0-1.228 1.233zm6.732 14.566h1.672v-5.083a3.789 3.789 0 0 1 .572-2.6 3 3 0 0 1 2.4-1.057c1.761 0 2.575.969 2.575 2.949v5.787h1.716v-6.689c0-2.223-1.408-3.5-3.7-3.5a4.038 4.038 0 0 0-3.586 1.871v-1.519h-1.65v9.836zm22.133-4.665v-.33c0-3.256-1.849-5.215-4.731-5.215-2.86 0-4.907 2.157-4.907 5.259 0 3.213 2.025 5.369 5.017 5.369a4.908 4.908 0 0 0 4.555-2.685l-1.277-.858a3.6 3.6 0 0 1-3.19 2.135 3.23 3.23 0 0 1-3.256-3.521v-.154h7.789zm-1.805-1.364h-5.984a2.88 2.88 0 0 1 2.992-2.707 2.7 2.7 0 0 1 2.996 2.707zm14.212 1.364v-.33c0-3.256-1.848-5.215-4.73-5.215-2.861 0-4.907 2.157-4.907 5.259 0 3.213 2.024 5.369 5.017 5.369a4.906 4.906 0 0 0 4.554-2.685l-1.276-.858a3.6 3.6 0 0 1-3.19 2.135 3.231 3.231 0 0 1-3.257-3.521v-.154h7.789zm-1.8-1.364H413.3a2.881 2.881 0 0 1 2.993-2.707 2.7 2.7 0 0 1 2.992 2.707zm5.455 6.029h1.672v-4.8c0-2.574.88-3.85 2.663-3.85a3.161 3.161 0 0 1 1.034.2l.572-1.519a3.383 3.383 0 0 0-1.144-.2c-1.5 0-2.421.7-3.3 2.377v-2.047h-1.5v9.836zm17.579-4.665v-.33c0-3.256-1.848-5.215-4.73-5.215-2.861 0-4.907 2.157-4.907 5.259 0 3.213 2.024 5.369 5.017 5.369a4.906 4.906 0 0 0 4.554-2.685l-1.276-.858a3.6 3.6 0 0 1-3.19 2.135 3.23 3.23 0 0 1-3.257-3.521v-.154h7.789zm-1.8-1.364h-5.989a2.88 2.88 0 0 1 2.993-2.707 2.7 2.7 0 0 1 2.992 2.707zM455.1 339h-1.672v8.67a3.793 3.793 0 0 0-3.587-2.2c-2.75 0-4.642 2-4.642 5.3 0 3.212 1.892 5.3 4.708 5.3a3.973 3.973 0 0 0 3.565-2.2v1.782h1.628V339zm-1.628 11.794c0 2.332-1.276 3.653-3.3 3.653-1.958 0-3.19-1.409-3.19-3.873 0-2.178 1.21-3.432 3.168-3.432 1.981-.003 3.323 1.427 3.323 3.649zm14.013-3.586v8.449h1.715v-8.449h1.8v-1.387h-1.8v-3.96h-1.716v3.96h-1.805v1.387h1.805zm5.741 3.564a5.159 5.159 0 0 0 1.562 3.741 5.274 5.274 0 0 0 3.785 1.562 5.371 5.371 0 0 0 3.785-1.584 5.235 5.235 0 0 0 0-7.46 5.311 5.311 0 0 0-3.785-1.562 5.251 5.251 0 0 0-3.785 1.541 5.168 5.168 0 0 0-1.561 3.759zm1.782 0a3.557 3.557 0 1 1 3.565 3.719 3.614 3.614 0 0 1-3.564-3.722zm33.9 4.885h1.672v-6.689a3.205 3.205 0 0 0-3.5-3.5 3.887 3.887 0 0 0-3.5 2 3.31 3.31 0 0 0-3.3-2 3.823 3.823 0 0 0-3.411 1.871v-1.519h-1.65v9.836h1.628v-5.083a3.98 3.98 0 0 1 .528-2.6 2.787 2.787 0 0 1 2.245-1.057c1.672 0 2.442.969 2.442 2.949v5.787h1.638v-5.083a3.978 3.978 0 0 1 .55-2.6 2.745 2.745 0 0 1 2.223-1.057c1.672 0 2.442.969 2.442 2.949v5.787zm15.223-9.836h-1.672v1.849a3.8 3.8 0 0 0-3.609-2.2c-2.75 0-4.62 2-4.62 5.3 0 3.212 1.892 5.3 4.708 5.3a3.957 3.957 0 0 0 3.565-2.2v1.782h1.628v-9.836zm-1.628 5.017c0 2.266-1.232 3.565-3.213 3.565-2.09 0-3.278-1.343-3.278-3.719 0-2.244 1.188-3.542 3.212-3.542 1.898-.003 3.284 1.405 3.284 3.693zm6.18 4.819h1.7v-9.836h-1.7v9.836zm-.4-14.566a1.233 1.233 0 0 0 2.465.022 1.25 1.25 0 0 0-1.232-1.255 1.231 1.231 0 0 0-1.224 1.23zm6.732 14.566h1.685v-5.083a3.784 3.784 0 0 1 .573-2.6 3 3 0 0 1 2.4-1.057c1.76 0 2.574.969 2.574 2.949v5.787h1.717v-6.689c0-2.223-1.409-3.5-3.7-3.5a4.041 4.041 0 0 0-3.587 1.871v-1.519h-1.65v9.836zm13.618-8.449v8.449h1.716v-8.449h1.805v-1.387h-1.805v-3.96h-1.716v3.96h-1.8v1.387h1.8zm15.687-1.387h-1.672v1.849a3.8 3.8 0 0 0-3.609-2.2c-2.75 0-4.62 2-4.62 5.3 0 3.212 1.892 5.3 4.708 5.3a3.957 3.957 0 0 0 3.565-2.2v1.782h1.628v-9.836zm-1.628 5.017c0 2.266-1.232 3.565-3.213 3.565-2.09 0-3.278-1.343-3.278-3.719 0-2.244 1.188-3.542 3.212-3.542 1.902-.003 3.287 1.405 3.287 3.693zm6.18 4.819h1.7v-9.836h-1.7v9.836zm-.4-14.566a1.233 1.233 0 0 0 2.465.022 1.25 1.25 0 0 0-1.232-1.255 1.231 1.231 0 0 0-1.22 1.23zm6.732 14.566h1.672v-5.083a3.784 3.784 0 0 1 .573-2.6 3 3 0 0 1 2.4-1.057c1.76 0 2.574.969 2.574 2.949v5.787h1.716v-6.689c0-2.223-1.408-3.5-3.7-3.5a4.041 4.041 0 0 0-3.587 1.871v-1.519h-1.65v9.836zM357.3 384a4.049 4.049 0 0 0 3.873 2.069c2.178 0 3.586-1.3 3.586-3.125 0-1.606-.946-2.31-2.86-2.926-1.629-.528-2.531-.66-2.531-1.694a1.517 1.517 0 0 1 1.673-1.475 2.328 2.328 0 0 1 2.244 1.409l1.364-.836a3.516 3.516 0 0 0-3.5-1.959c-2.091 0-3.477 1.254-3.477 2.971 0 1.936 1.452 2.354 3.873 3.19 1.034.352 1.54.748 1.54 1.5a1.605 1.605 0 0 1-1.848 1.475 2.651 2.651 0 0 1-2.509-1.563zm11.088 1.651h1.672v-5.083a3.789 3.789 0 0 1 .572-2.6 3.006 3.006 0 0 1 2.4-1.057c1.76 0 2.574.969 2.574 2.949v5.787h1.716v-6.689c0-2.223-1.408-3.5-3.7-3.5a4.041 4.041 0 0 0-3.587 1.871V369h-1.65v16.657zm22.507-9.836h-1.672v1.849a3.8 3.8 0 0 0-3.608-2.2c-2.751 0-4.621 2-4.621 5.3 0 3.213 1.892 5.3 4.709 5.3a3.956 3.956 0 0 0 3.564-2.2v1.783h1.633v-9.836zm-1.628 5.017c0 2.266-1.232 3.565-3.212 3.565-2.091 0-3.279-1.343-3.279-3.719 0-2.244 1.188-3.542 3.213-3.542 1.892.003 3.278 1.411 3.278 3.699zm6.093 9.615h1.672v-6.579a3.793 3.793 0 0 0 3.586 2.2c2.751 0 4.643-1.98 4.643-5.3 0-3.234-1.892-5.3-4.709-5.3a3.964 3.964 0 0 0-3.586 2.2v-1.849h-1.606v14.631zm1.628-9.681c0-2.332 1.276-3.675 3.3-3.675 1.959 0 3.191 1.409 3.191 3.873 0 2.178-1.21 3.455-3.169 3.455-1.98.003-3.322-1.428-3.322-3.65zm20.835.22v-.33c0-3.256-1.849-5.215-4.731-5.215-2.86 0-4.907 2.157-4.907 5.259 0 3.212 2.025 5.369 5.017 5.369a4.908 4.908 0 0 0 4.555-2.685l-1.276-.858a3.6 3.6 0 0 1-3.191 2.135 3.23 3.23 0 0 1-3.256-3.521v-.154h7.789zm-1.805-1.364h-5.984a2.88 2.88 0 0 1 2.992-2.707 2.7 2.7 0 0 1 2.992 2.71zm22.177-3.807h-1.673v1.849a3.8 3.8 0 0 0-3.608-2.2c-2.751 0-4.621 2-4.621 5.3 0 3.213 1.892 5.3 4.709 5.3a3.956 3.956 0 0 0 3.564-2.2v1.783h1.634v-9.836zm-1.629 5.017c0 2.266-1.232 3.565-3.212 3.565-2.09 0-3.279-1.343-3.279-3.719 0-2.244 1.189-3.542 3.213-3.542 1.892.003 3.278 1.411 3.278 3.699zm6.533 4.819h1.716v-8.449h2.575v-1.387h-2.619V373.2c0-1.892.044-2.794 1.3-2.794a2.7 2.7 0 0 1 1.321.352v-1.739a4.561 4.561 0 0 0-1.453-.22c-2.354 0-2.838 1.233-2.838 4.181v2.838h-1.892v1.387h1.891v8.449zm7.282-8.449v8.449h1.719v-8.449h1.8v-1.387h-1.8v-3.96h-1.716v3.96h-1.8v1.387h1.8zm15.313 3.784v-.33c0-3.256-1.849-5.215-4.731-5.215-2.86 0-4.907 2.157-4.907 5.259 0 3.212 2.025 5.369 5.017 5.369a4.909 4.909 0 0 0 4.555-2.685l-1.277-.858a3.6 3.6 0 0 1-3.19 2.135 3.231 3.231 0 0 1-3.257-3.521v-.154h7.79zm-1.805-1.364H457.9a2.881 2.881 0 0 1 2.993-2.707 2.7 2.7 0 0 1 2.996 2.71zm5.455 6.029h1.672v-4.8c0-2.574.881-3.851 2.663-3.851a3.164 3.164 0 0 1 1.034.2l.572-1.519a3.383 3.383 0 0 0-1.144-.2c-1.5 0-2.42.7-3.3 2.377v-2.047h-1.5v9.836zm30.076 0h1.672v-6.689a3.205 3.205 0 0 0-3.5-3.5 3.888 3.888 0 0 0-3.5 2 3.31 3.31 0 0 0-3.3-2 3.824 3.824 0 0 0-3.411 1.871v-1.519h-1.65v9.836h1.628v-5.083a3.98 3.98 0 0 1 .528-2.6 2.789 2.789 0 0 1 2.245-1.057c1.672 0 2.442.969 2.442 2.949v5.787h1.628v-5.083a3.978 3.978 0 0 1 .55-2.6 2.746 2.746 0 0 1 2.223-1.057c1.672 0 2.442.969 2.442 2.949v5.787zm7.654-9.836h-1.76v5.743c0 2.971 1.562 4.511 4.467 4.511 2.948 0 4.488-1.54 4.488-4.511v-5.743h-1.716v4.841c0 2.6-.572 3.807-2.728 3.807s-2.751-1.211-2.751-3.807v-4.841zm11.638 9.836h1.716V369h-1.716v16.657zm6.6-8.449v8.449h1.716v-8.449h1.8v-1.387h-1.8v-3.96h-1.716v3.96h-1.805v1.387h1.805zm6.621 8.449h1.7v-9.836h-1.7v9.836zm-.4-14.566a1.233 1.233 0 0 0 2.465.022 1.25 1.25 0 0 0-1.233-1.255 1.231 1.231 0 0 0-1.228 1.236zm6.732 19.362h1.672v-6.579a3.794 3.794 0 0 0 3.587 2.2c2.75 0 4.643-1.98 4.643-5.3 0-3.234-1.893-5.3-4.709-5.3a3.966 3.966 0 0 0-3.587 2.2v-1.849h-1.606v14.631zm1.628-9.681c0-2.332 1.277-3.675 3.3-3.675 1.958 0 3.19 1.409 3.19 3.873 0 2.178-1.21 3.455-3.168 3.455-1.975.003-3.315-1.428-3.315-3.65zm12.144 4.885h1.716V369h-1.716v16.657zm15.115-4.665v-.33c0-3.256-1.848-5.215-4.731-5.215-2.86 0-4.906 2.157-4.906 5.259 0 3.212 2.024 5.369 5.016 5.369a4.907 4.907 0 0 0 4.555-2.685l-1.276-.858a3.6 3.6 0 0 1-3.191 2.135 3.23 3.23 0 0 1-3.256-3.521v-.154h7.789zm-1.8-1.364h-5.985a2.88 2.88 0 0 1 2.992-2.707 2.7 2.7 0 0 1 2.993 2.71zm-194.995 25.844h-.264l-2.992 7.063-2.619-6.711h-1.87l4.379 10.452 3.234-7.547 3.235 7.547 4.378-10.452h-1.892l-2.64 6.711zm19.448.352h-1.672v1.849a3.8 3.8 0 0 0-3.608-2.2c-2.751 0-4.621 2-4.621 5.3 0 3.213 1.892 5.3 4.709 5.3a3.956 3.956 0 0 0 3.564-2.2v1.783h1.628v-9.836zm-1.628 5.017c0 2.266-1.232 3.565-3.212 3.565-2.091 0-3.279-1.343-3.279-3.719 0-2.244 1.188-3.542 3.213-3.542 1.892 0 3.278 1.408 3.278 3.696zm5.059 3.165a4.05 4.05 0 0 0 3.872 2.068c2.178 0 3.587-1.3 3.587-3.125 0-1.606-.946-2.31-2.861-2.926-1.628-.528-2.53-.66-2.53-1.694a1.517 1.517 0 0 1 1.672-1.475 2.328 2.328 0 0 1 2.244 1.409l1.365-.836a3.517 3.517 0 0 0-3.5-1.959c-2.09 0-3.476 1.254-3.476 2.971 0 1.936 1.452 2.354 3.872 3.19 1.034.352 1.54.748 1.54 1.5a1.605 1.605 0 0 1-1.848 1.475 2.651 2.651 0 0 1-2.508-1.563zm11.088 1.65H406v-5.083a3.789 3.789 0 0 1 .572-2.6 3 3 0 0 1 2.4-1.056c1.761 0 2.575.968 2.575 2.948v5.787h1.716v-6.689c0-2.223-1.408-3.5-3.7-3.5a4.038 4.038 0 0 0-3.586 1.871V399h-1.65v16.657zm22.133-4.665v-.33c0-3.256-1.849-5.215-4.731-5.215-2.86 0-4.907 2.157-4.907 5.259 0 3.212 2.025 5.369 5.017 5.369a4.908 4.908 0 0 0 4.555-2.685l-1.276-.858a3.6 3.6 0 0 1-3.191 2.135 3.23 3.23 0 0 1-3.256-3.521v-.154h7.789zm-1.8-1.364h-5.985a2.879 2.879 0 0 1 2.992-2.706 2.7 2.7 0 0 1 2.989 2.71zm4.4 4.379a4.05 4.05 0 0 0 3.873 2.068c2.178 0 3.586-1.3 3.586-3.125 0-1.606-.946-2.31-2.86-2.926-1.628-.528-2.531-.66-2.531-1.694a1.518 1.518 0 0 1 1.673-1.475 2.328 2.328 0 0 1 2.244 1.409l1.364-.836a3.516 3.516 0 0 0-3.5-1.959c-2.091 0-3.477 1.254-3.477 2.971 0 1.936 1.452 2.354 3.873 3.19 1.034.352 1.54.748 1.54 1.5a1.605 1.605 0 0 1-1.848 1.475 2.652 2.652 0 0 1-2.509-1.563zm27.832-8.186h-1.679v1.849a3.8 3.8 0 0 0-3.608-2.2c-2.751 0-4.621 2-4.621 5.3 0 3.213 1.892 5.3 4.709 5.3a3.956 3.956 0 0 0 3.564-2.2v1.783h1.629v-9.836zm-1.629 5.017c0 2.266-1.232 3.565-3.212 3.565-2.09 0-3.279-1.343-3.279-3.719 0-2.244 1.189-3.542 3.213-3.542 1.886.004 3.272 1.412 3.272 3.7zm6.093 4.819h1.672v-5.083a3.789 3.789 0 0 1 .572-2.6 3 3 0 0 1 2.4-1.056c1.76 0 2.574.968 2.574 2.948v5.787h1.716v-6.689c0-2.223-1.408-3.5-3.7-3.5a4.039 4.039 0 0 0-3.587 1.88v-1.519h-1.65v9.836zM483.854 399h-1.672v8.67a3.793 3.793 0 0 0-3.587-2.2c-2.75 0-4.642 2-4.642 5.3 0 3.213 1.892 5.3 4.708 5.3a3.973 3.973 0 0 0 3.565-2.2v1.783h1.628V399zm-1.628 11.794c0 2.332-1.276 3.653-3.3 3.653-1.958 0-3.19-1.409-3.19-3.873 0-2.178 1.21-3.432 3.168-3.432 1.98-.003 3.322 1.427 3.322 3.649zM502 405.466h-.264l-2.992 7.063-2.619-6.711h-1.87l4.379 10.452 3.234-7.547 3.235 7.547 4.378-10.452h-1.892l-2.64 6.711zm19.074 5.523v-.33c0-3.256-1.848-5.215-4.73-5.215-2.861 0-4.907 2.157-4.907 5.259 0 3.212 2.024 5.369 5.017 5.369a4.906 4.906 0 0 0 4.554-2.685l-1.276-.858a3.6 3.6 0 0 1-3.19 2.135 3.231 3.231 0 0 1-3.257-3.521v-.154h7.789zm-1.8-1.364h-5.985a2.88 2.88 0 0 1 2.993-2.706 2.7 2.7 0 0 1 2.991 2.706zm14.586-3.807h-1.672v1.849a3.8 3.8 0 0 0-3.608-2.2c-2.751 0-4.621 2-4.621 5.3 0 3.213 1.892 5.3 4.709 5.3a3.956 3.956 0 0 0 3.564-2.2v1.783h1.628v-9.836zm-1.628 5.017c0 2.266-1.232 3.565-3.212 3.565-2.091 0-3.279-1.343-3.279-3.719 0-2.244 1.188-3.542 3.213-3.542 1.891 0 3.277 1.408 3.277 3.696zm6.115 4.819h1.672v-4.8c0-2.574.88-3.85 2.662-3.85a3.161 3.161 0 0 1 1.034.2l.573-1.519a3.393 3.393 0 0 0-1.145-.2c-1.5 0-2.42.7-3.3 2.377v-2.047h-1.5v9.836zm7.765-1.65a4.052 4.052 0 0 0 3.873 2.068c2.178 0 3.587-1.3 3.587-3.125 0-1.606-.947-2.31-2.861-2.926-1.628-.528-2.53-.66-2.53-1.694a1.517 1.517 0 0 1 1.672-1.475 2.328 2.328 0 0 1 2.244 1.409l1.365-.836a3.518 3.518 0 0 0-3.5-1.959c-2.09 0-3.476 1.254-3.476 2.971 0 1.936 1.452 2.354 3.872 3.19 1.034.352 1.54.748 1.54 1.5a1.605 1.605 0 0 1-1.848 1.475 2.651 2.651 0 0 1-2.508-1.563zm11.331.594a1.245 1.245 0 0 0 1.276 1.254 1.264 1.264 0 0 0 1.3-1.254 1.287 1.287 0 0 0-2.577.002z"/><path id="RETAINS_FIT" data-name="RETAINS FIT" class="cls-2" d="M363.167 313.458V309.7h.781c1.62 0 2.36.48 2.36 1.98 0 1.26-.78 1.78-2.42 1.78h-.721zm-3.66 7.542h3.66v-5.6l3.281 5.6h4.4l-3.9-5.761a3.79 3.79 0 0 0 3.2-4.081 4.246 4.246 0 0 0-1.6-3.5c-1.221-.94-2.741-.96-4.721-.96h-4.321V321zm21.819 0h8.762v-3.2h-4.961v-2.42h4.681v-3.061h-4.681v-2.48h4.961V306.7h-8.762V321zm22.4 0h3.9v-10.922h3.2V306.7h-10.28v3.381h3.181V321zm15.484 0h3.881l.74-2.561h5.541l.72 2.561h3.881l-4.941-14.3h-4.881zm5.461-5.341l1.44-4.721c.06-.22.24-.86.5-1.921q.39 1.591.48 1.921l1.461 4.721h-3.881zm19.76 5.341h3.941v-14.3h-3.941V321zm16.08 0h3.761v-7.062a23.723 23.723 0 0 0-.221-2.82 20.3 20.3 0 0 0 1.3 2.5l5.4 7.382h3.741v-14.3h-3.741v7.061a23.693 23.693 0 0 0 .22 2.821 21.552 21.552 0 0 0-1.3-2.521l-5.4-7.361h-3.761V321zm26.68-4.621l-1.761 2.9a6.861 6.861 0 0 0 5.081 2.1c3.361 0 5.481-2.06 5.481-5.041 0-2.641-1.4-3.581-3.94-4.261-1.3-.34-2.281-.56-2.281-1.58a1.366 1.366 0 0 1 1.58-1.2 4.338 4.338 0 0 1 2.741 1.141l1.22-2.8a7.224 7.224 0 0 0-4.241-1.28A4.58 4.58 0 0 0 486.13 311c0 2.24 1.261 3.281 3.841 3.961 1.621.42 2.4.76 2.4 1.9a1.579 1.579 0 0 1-1.781 1.48 4.706 4.706 0 0 1-3.399-1.962zM522.43 321h3.8v-5.621h4.681v-3.061h-4.681v-2.48h4.961V306.7h-8.761V321zm19.98 0h3.941v-14.3h-3.941V321zm18.14 0h3.9v-10.922h3.2V306.7h-10.28v3.381h3.18V321z"/><path id="Minimal_water_penetration_keeps_you_dry_all_day." data-name="Minimal water penetration keeps you dry all day." class="cls-1" d="M106.515 740.27l4.863-11.31 2 10.694h1.827l-3.191-16.349-5.5 13-5.5-13-3.19 16.349h1.826l1.981-10.694zm12.121-.616h1.694v-9.836h-1.694v9.836zm-.4-14.566a1.232 1.232 0 0 0 2.464.022 1.25 1.25 0 0 0-1.232-1.255 1.231 1.231 0 0 0-1.228 1.233zm6.732 14.566h1.672v-5.083a3.789 3.789 0 0 1 .572-2.6 3 3 0 0 1 2.4-1.057c1.76 0 2.574.969 2.574 2.949v5.787h1.716v-6.689c0-2.223-1.408-3.5-3.7-3.5a4.039 4.039 0 0 0-3.587 1.871v-1.519h-1.65v9.836zm13.442 0h1.694v-9.836h-1.694v9.836zm-.4-14.566a1.232 1.232 0 0 0 2.464.022 1.25 1.25 0 0 0-1.232-1.255 1.231 1.231 0 0 0-1.224 1.233zm20.417 14.566h1.673v-6.689a3.206 3.206 0 0 0-3.5-3.5 3.887 3.887 0 0 0-3.5 2 3.311 3.311 0 0 0-3.3-2 3.823 3.823 0 0 0-3.41 1.871v-1.519h-1.651v9.836h1.629v-5.083a3.98 3.98 0 0 1 .528-2.6 2.787 2.787 0 0 1 2.244-1.057c1.672 0 2.442.969 2.442 2.949v5.787h1.629v-5.083a3.978 3.978 0 0 1 .55-2.6 2.744 2.744 0 0 1 2.222-1.057c1.672 0 2.442.969 2.442 2.949v5.787zm15.224-9.836h-1.673v1.849a3.8 3.8 0 0 0-3.608-2.2c-2.751 0-4.621 2-4.621 5.3 0 3.212 1.892 5.3 4.709 5.3a3.957 3.957 0 0 0 3.564-2.2v1.782h1.629v-9.836zm-1.629 5.017c0 2.266-1.232 3.565-3.212 3.565-2.09 0-3.279-1.343-3.279-3.719 0-2.244 1.189-3.542 3.213-3.542 1.9 0 3.286 1.408 3.286 3.696zm6.181 4.819h1.716V723h-1.716v16.657zm19.955-10.188h-.258l-2.993 7.063-2.618-6.711h-1.869l4.38 10.452 3.235-7.547 3.234 7.547 4.379-10.452h-1.893l-2.64 6.711zm19.448.352h-1.673v1.849a3.8 3.8 0 0 0-3.608-2.2c-2.75 0-4.621 2-4.621 5.3 0 3.212 1.893 5.3 4.709 5.3a3.957 3.957 0 0 0 3.564-2.2v1.782h1.629v-9.836zm-1.629 5.017c0 2.266-1.232 3.565-3.212 3.565-2.09 0-3.278-1.343-3.278-3.719 0-2.244 1.188-3.542 3.212-3.542 1.901 0 3.286 1.408 3.286 3.696zm6.357-3.63v8.449h1.716v-8.449h1.805v-1.387h-1.805v-3.96h-1.716v3.96h-1.8v1.387h1.8zm15.313 3.784v-.33c0-3.256-1.848-5.215-4.731-5.215-2.86 0-4.906 2.157-4.906 5.259 0 3.213 2.024 5.369 5.016 5.369a4.907 4.907 0 0 0 4.555-2.685l-1.276-.858a3.6 3.6 0 0 1-3.191 2.135 3.23 3.23 0 0 1-3.256-3.521v-.154h7.789zm-1.8-1.364h-5.985a2.88 2.88 0 0 1 2.992-2.707 2.7 2.7 0 0 1 2.997 2.707zm5.455 6.029h1.672v-4.8c0-2.574.88-3.85 2.662-3.85a3.135 3.135 0 0 1 1.034.2l.572-1.519a3.383 3.383 0 0 0-1.144-.2c-1.5 0-2.42.7-3.3 2.377v-2.047h-1.5v9.836zM79.873 774.45h1.672v-6.579a3.793 3.793 0 0 0 3.587 2.2c2.75 0 4.643-1.98 4.643-5.3 0-3.234-1.892-5.3-4.709-5.3a3.965 3.965 0 0 0-3.586 2.2v-1.849h-1.607v14.628zm1.628-9.681c0-2.332 1.276-3.675 3.3-3.675 1.958 0 3.19 1.409 3.19 3.873 0 2.178-1.21 3.455-3.168 3.455-1.98 0-3.323-1.431-3.323-3.653zm20.835.22v-.33c0-3.256-1.849-5.215-4.731-5.215-2.86 0-4.907 2.157-4.907 5.259 0 3.212 2.024 5.369 5.017 5.369a4.909 4.909 0 0 0 4.555-2.685l-1.277-.858a3.6 3.6 0 0 1-3.19 2.135 3.23 3.23 0 0 1-3.257-3.521v-.154h7.79zm-1.8-1.364h-5.989a2.88 2.88 0 0 1 2.992-2.707 2.7 2.7 0 0 1 2.992 2.707zm5.433 6.029h1.672v-5.083a3.784 3.784 0 0 1 .573-2.6 3 3 0 0 1 2.4-1.057c1.76 0 2.574.969 2.574 2.949v5.787h1.712v-6.689c0-2.223-1.408-3.5-3.7-3.5a4.041 4.041 0 0 0-3.587 1.871v-1.519h-1.65v9.836zm22.133-4.665v-.33c0-3.256-1.848-5.215-4.73-5.215-2.861 0-4.907 2.157-4.907 5.259 0 3.212 2.024 5.369 5.017 5.369a4.906 4.906 0 0 0 4.554-2.685l-1.276-.858a3.6 3.6 0 0 1-3.19 2.135 3.23 3.23 0 0 1-3.257-3.521v-.154h7.787zm-1.8-1.364h-5.985a2.88 2.88 0 0 1 2.993-2.707 2.7 2.7 0 0 1 2.983 2.707zm5.7-2.42v8.449h1.716v-8.449h1.8v-1.387h-1.8v-3.96h-1.728v3.96h-1.8v1.387h1.8zm6.556 8.449h1.672v-4.8c0-2.574.88-3.851 2.662-3.851a3.164 3.164 0 0 1 1.034.2l.572-1.519a3.383 3.383 0 0 0-1.144-.2c-1.5 0-2.42.7-3.3 2.377v-2.047h-1.5v9.836zm17.953-9.836h-1.672v1.849a3.8 3.8 0 0 0-3.609-2.2c-2.75 0-4.621 2-4.621 5.3 0 3.213 1.893 5.3 4.709 5.3a3.958 3.958 0 0 0 3.565-2.2v1.783h1.617v-9.836zm-1.628 5.017c0 2.266-1.233 3.565-3.213 3.565-2.09 0-3.278-1.343-3.278-3.719 0-2.244 1.188-3.542 3.212-3.542 1.88 0 3.267 1.408 3.267 3.696zm6.356-3.63v8.449h1.716v-8.449h1.8v-1.387h-1.8v-3.96h-1.716v3.96h-1.8v1.387h1.8zm6.622 8.449h1.694v-9.836h-1.694v9.836zm-.4-14.566a1.232 1.232 0 0 0 2.464.022 1.25 1.25 0 0 0-1.232-1.255 1.231 1.231 0 0 0-1.24 1.233zm5.94 9.681a5.159 5.159 0 0 0 1.562 3.741 5.27 5.27 0 0 0 3.784 1.562 5.367 5.367 0 0 0 3.785-1.584 5.233 5.233 0 0 0 0-7.459 5.3 5.3 0 0 0-3.785-1.563 5.25 5.25 0 0 0-3.784 1.54 5.172 5.172 0 0 0-1.57 3.763zm1.782 0a3.557 3.557 0 1 1 3.564 3.719 3.614 3.614 0 0 1-3.572-3.719zm12.627 4.885h1.673v-5.083a3.789 3.789 0 0 1 .572-2.6 3 3 0 0 1 2.4-1.057c1.76 0 2.574.969 2.574 2.949v5.787h1.717v-6.689c0-2.223-1.409-3.5-3.7-3.5a4.038 4.038 0 0 0-3.586 1.871v-1.519h-1.66v9.836zm20.966 0h1.694v-5.193l5.061 5.193h2.354l-5.346-5.325 4.906-4.511h-2.244l-4.731 4.467V753h-1.694v16.657zm20.7-4.665v-.33c0-3.256-1.848-5.215-4.73-5.215-2.861 0-4.907 2.157-4.907 5.259 0 3.212 2.024 5.369 5.017 5.369a4.906 4.906 0 0 0 4.554-2.685l-1.276-.858a3.6 3.6 0 0 1-3.19 2.135 3.23 3.23 0 0 1-3.257-3.521v-.154h7.789zm-1.8-1.364h-5.985a2.88 2.88 0 0 1 2.993-2.707 2.7 2.7 0 0 1 2.983 2.707zm14.212 1.364v-.33c0-3.256-1.848-5.215-4.731-5.215-2.86 0-4.906 2.157-4.906 5.259 0 3.212 2.024 5.369 5.016 5.369a4.907 4.907 0 0 0 4.555-2.685l-1.276-.858a3.6 3.6 0 0 1-3.191 2.135 3.23 3.23 0 0 1-3.256-3.521v-.154h7.789zm-1.8-1.364h-5.998a2.88 2.88 0 0 1 2.992-2.707 2.7 2.7 0 0 1 2.993 2.707zm5.433 10.825h1.672v-6.579a3.793 3.793 0 0 0 3.586 2.2c2.751 0 4.643-1.98 4.643-5.3 0-3.234-1.892-5.3-4.709-5.3a3.964 3.964 0 0 0-3.586 2.2v-1.849h-1.606v14.628zm1.628-9.681c0-2.332 1.276-3.675 3.3-3.675 1.959 0 3.191 1.409 3.191 3.873 0 2.178-1.21 3.455-3.169 3.455-1.993 0-3.335-1.431-3.335-3.653zM258.157 768a4.051 4.051 0 0 0 3.873 2.068c2.178 0 3.586-1.3 3.586-3.125 0-1.606-.946-2.31-2.86-2.926-1.628-.528-2.53-.66-2.53-1.694a1.517 1.517 0 0 1 1.672-1.475 2.328 2.328 0 0 1 2.244 1.409l1.364-.836a3.516 3.516 0 0 0-3.5-1.959c-2.09 0-3.477 1.254-3.477 2.971 0 1.936 1.453 2.354 3.873 3.19 1.034.352 1.54.748 1.54 1.5a1.605 1.605 0 0 1-1.842 1.477 2.651 2.651 0 0 1-2.508-1.563zM92.271 804.45h1.892l6.6-14.632h-1.847l-3.036 7.063-2.86-7.063h-1.937l3.851 8.868zm10.384-9.681a5.159 5.159 0 0 0 1.562 3.741 5.27 5.27 0 0 0 3.783 1.562 5.367 5.367 0 0 0 3.784-1.584 5.235 5.235 0 0 0 0-7.46 5.307 5.307 0 0 0-3.784-1.562 5.247 5.247 0 0 0-3.785 1.541 5.168 5.168 0 0 0-1.56 3.762zm1.782 0a3.557 3.557 0 1 1 3.563 3.719 3.613 3.613 0 0 1-3.563-3.719zm14.212-4.951h-1.76v5.743c0 2.971 1.562 4.511 4.466 4.511 2.949 0 4.489-1.54 4.489-4.511v-5.743h-1.716v4.841c0 2.6-.572 3.807-2.729 3.807s-2.75-1.211-2.75-3.807v-4.841zM146.942 783h-1.672v8.67a3.8 3.8 0 0 0-3.587-2.2c-2.75 0-4.643 2-4.643 5.3 0 3.213 1.893 5.3 4.709 5.3a3.974 3.974 0 0 0 3.565-2.2v1.783h1.628V783zm-1.628 11.794c0 2.332-1.277 3.653-3.3 3.653-1.958 0-3.19-1.409-3.19-3.873 0-2.178 1.21-3.432 3.168-3.432 1.979-.003 3.322 1.427 3.322 3.649zm6.18 4.863h1.673v-4.8c0-2.574.88-3.85 2.662-3.85a3.161 3.161 0 0 1 1.034.2l.572-1.519a3.383 3.383 0 0 0-1.144-.2c-1.5 0-2.42.7-3.3 2.377v-2.047h-1.5v9.836zm8.4 4.8h1.892l6.6-14.632h-1.848l-3.036 7.063-2.861-7.063h-1.931l3.851 8.868zm27.919-14.632h-1.672v1.849a3.8 3.8 0 0 0-3.608-2.2c-2.751 0-4.621 2-4.621 5.3 0 3.213 1.892 5.3 4.708 5.3a3.956 3.956 0 0 0 3.565-2.2v1.783h1.628v-9.836zm-1.628 5.017c0 2.266-1.232 3.565-3.212 3.565-2.091 0-3.279-1.343-3.279-3.719 0-2.244 1.188-3.542 3.213-3.542 1.893-.007 3.282 1.401 3.282 3.689zm6.181 4.819h1.716V783h-1.712v16.657zm6.423 0h1.717V783h-1.717v16.657zM221.872 783H220.2v8.67a3.793 3.793 0 0 0-3.586-2.2c-2.751 0-4.643 2-4.643 5.3 0 3.213 1.892 5.3 4.709 5.3a3.972 3.972 0 0 0 3.564-2.2v1.783h1.628V783zm-1.628 11.794c0 2.332-1.276 3.653-3.3 3.653-1.959 0-3.191-1.409-3.191-3.873 0-2.178 1.21-3.432 3.169-3.432 1.978-.003 3.322 1.427 3.322 3.649zm15.312-4.973h-1.672v1.849a3.8 3.8 0 0 0-3.609-2.2c-2.75 0-4.62 2-4.62 5.3 0 3.213 1.892 5.3 4.708 5.3a3.956 3.956 0 0 0 3.565-2.2v1.783h1.628v-9.836zm-1.628 5.017c0 2.266-1.232 3.565-3.212 3.565-2.091 0-3.279-1.343-3.279-3.719 0-2.244 1.188-3.542 3.213-3.542 1.892-.003 3.278 1.405 3.278 3.693zm5.7 9.615h1.892l6.6-14.632h-1.849l-3.036 7.063-2.86-7.063h-1.937l3.851 8.868zm9.472-5.853a1.245 1.245 0 0 0 1.277 1.254 1.264 1.264 0 0 0 1.3-1.254 1.288 1.288 0 0 0-2.577 0z"/><path id="WATER_RESISTANT" data-name="WATER RESISTANT" class="cls-2" d="M132.344 666.7H129.2l-1.8 6.841c-.18.681-.36 1.4-.5 2.141-.12-.7-.26-1.42-.44-2.141l-1.641-6.841h-3.941l4.041 14.3h3.621l1.741-6.1c.16-.54.3-1.181.48-1.921q.33 1.38.48 1.921L133 681h3.621l4.041-14.3h-3.941l-1.68 6.8c-.12.5-.261 1.2-.441 2.1a21.045 21.045 0 0 0-.46-2.1zM148.95 681h3.881l.74-2.561h5.541l.72 2.561h3.881l-4.941-14.3h-4.881zm5.461-5.341l1.441-4.721c.06-.22.24-.86.5-1.921q.39 1.591.48 1.921l1.46 4.721h-3.881zM175.3 681h3.9v-10.922h3.2V666.7h-10.285v3.381h3.185V681zm18 0h8.762v-3.2H197.1v-2.42h4.681v-3.061H197.1v-2.48h4.961V666.7H193.3V681zm24-7.542V669.7h.78c1.62 0 2.36.48 2.36 1.98 0 1.26-.78 1.78-2.42 1.78h-.72zM213.635 681h3.665v-5.6l3.28 5.6h4.4l-3.9-5.761a3.79 3.79 0 0 0 3.2-4.081 4.246 4.246 0 0 0-1.6-3.5c-1.221-.94-2.741-.96-4.721-.96h-4.321V681zM88.517 697.458V693.7h.783c1.62 0 2.361.48 2.361 1.98 0 1.26-.78 1.78-2.421 1.78h-.72zM84.857 705h3.661v-5.6L91.8 705h4.4l-3.9-5.761a3.79 3.79 0 0 0 3.2-4.081 4.246 4.246 0 0 0-1.6-3.5c-1.22-.94-2.741-.96-4.721-.96h-4.322V705zm21.82 0h8.762v-3.2h-4.961v-2.42h4.681v-3.061h-4.681v-2.48h4.961V690.7h-8.762V705zm20.98-4.621l-1.76 2.9a6.858 6.858 0 0 0 5.081 2.1c3.361 0 5.481-2.06 5.481-5.041 0-2.641-1.4-3.581-3.941-4.261-1.3-.34-2.28-.56-2.28-1.58a1.366 1.366 0 0 1 1.58-1.2 4.342 4.342 0 0 1 2.741 1.141l1.22-2.8a7.226 7.226 0 0 0-4.241-1.28A4.58 4.58 0 0 0 126.6 695c0 2.24 1.26 3.281 3.841 3.961 1.62.42 2.4.76 2.4 1.9a1.579 1.579 0 0 1-1.78 1.48 4.707 4.707 0 0 1-3.405-1.962zM147.736 705h3.941v-14.3h-3.941V705zm16.72-4.621l-1.76 2.9a6.858 6.858 0 0 0 5.081 2.1c3.36 0 5.481-2.06 5.481-5.041 0-2.641-1.4-3.581-3.941-4.261-1.3-.34-2.281-.56-2.281-1.58a1.367 1.367 0 0 1 1.581-1.2 4.337 4.337 0 0 1 2.74 1.141l1.221-2.8a7.228 7.228 0 0 0-4.241-1.28A4.58 4.58 0 0 0 163.4 695c0 2.24 1.26 3.281 3.841 3.961 1.62.42 2.4.76 2.4 1.9a1.579 1.579 0 0 1-1.78 1.48 4.706 4.706 0 0 1-3.405-1.962zM186.5 705h3.9v-10.922h3.2V690.7h-10.285v3.381h3.185V705zm15.484 0h3.881l.74-2.561h5.541l.717 2.561h3.88l-4.943-14.3h-4.881zm5.461-5.341l1.441-4.721c.06-.22.24-.86.5-1.921q.39 1.591.48 1.921l1.46 4.721h-3.881zM227.1 705h3.761v-7.062a23.694 23.694 0 0 0-.22-2.82 20.212 20.212 0 0 0 1.3 2.5l5.4 7.382h3.741v-14.3h-3.741v7.061a23.693 23.693 0 0 0 .22 2.821 21.552 21.552 0 0 0-1.3-2.521l-5.4-7.361H227.1V705zm28.1 0h3.9v-10.922h3.2V690.7h-10.28v3.381h3.18V705z"/><path id="Ultra-tough_defense_against_spills_and_stains_for_worry-free_we" data-name="Ultra-tough defense against spills and stains for worry-free we" class="cls-1" d="M358.828 723.921v9.792c0 4.247 2 6.359 6.1 6.359s6.095-2.112 6.095-6.359v-9.792h-1.892v9.792c0 3.146-1.276 4.621-4.2 4.621s-4.2-1.475-4.2-4.621v-9.792h-1.893zm16.918 15.733h1.716V723h-1.716v16.657zm6.6-8.449v8.449h1.716v-8.449h1.8v-1.387h-1.8v-3.96h-1.716v3.96h-1.8v1.387h1.8zm6.556 8.449h1.672v-4.8c0-2.574.88-3.85 2.662-3.85a3.135 3.135 0 0 1 1.034.2l.573-1.519a3.393 3.393 0 0 0-1.145-.2c-1.5 0-2.42.7-3.3 2.377v-2.047h-1.5v9.836zm17.953-9.836h-1.672v1.849a3.8 3.8 0 0 0-3.609-2.2c-2.75 0-4.62 2-4.62 5.3 0 3.212 1.892 5.3 4.708 5.3a3.958 3.958 0 0 0 3.565-2.2v1.782h1.628v-9.836zm-1.628 5.017c0 2.266-1.232 3.565-3.213 3.565-2.09 0-3.278-1.343-3.278-3.719 0-2.244 1.188-3.542 3.212-3.542 1.893 0 3.279 1.408 3.279 3.696zm5.894-.924v1.694h5.017v-1.694h-5.017zm9.614-2.706v8.449h1.717v-8.449h1.8v-1.387h-1.8v-3.96h-1.717v3.96h-1.8v1.387h1.8zm5.742 3.564a5.159 5.159 0 0 0 1.562 3.741 5.27 5.27 0 0 0 3.785 1.562 5.367 5.367 0 0 0 3.784-1.584 5.235 5.235 0 0 0 0-7.46 5.307 5.307 0 0 0-3.784-1.562 5.247 5.247 0 0 0-3.785 1.541 5.168 5.168 0 0 0-1.562 3.762zm1.782 0a3.557 3.557 0 1 1 3.565 3.719 3.613 3.613 0 0 1-3.565-3.719zm14.212-4.951h-1.76v5.743c0 2.971 1.562 4.511 4.466 4.511 2.949 0 4.489-1.54 4.489-4.511v-5.743h-1.716v4.841c0 2.6-.572 3.807-2.729 3.807s-2.75-1.211-2.75-3.807v-4.841zm20.7 0H461.5v1.827a3.82 3.82 0 0 0-3.609-2.179c-2.75 0-4.621 1.959-4.621 5.237 0 3.19 1.893 5.259 4.709 5.259a3.952 3.952 0 0 0 3.565-2.179v1.651a4.194 4.194 0 0 1-.418 2.244 3.029 3.029 0 0 1-2.817 1.3c-1.892 0-2.926-.858-2.926-2.31v-.132h-1.893c.066 2.464 1.783 3.916 4.8 3.916a5.163 5.163 0 0 0 3.961-1.474c.924-.99.924-2.09.924-3.5v-9.66zm-1.628 4.951c0 2.266-1.233 3.587-3.213 3.587-2.09 0-3.278-1.343-3.278-3.719 0-2.244 1.188-3.542 3.212-3.542 1.895.005 3.282 1.386 3.282 3.674zm6.137 4.885h1.672v-5.083a3.789 3.789 0 0 1 .572-2.6 3 3 0 0 1 2.4-1.057c1.76 0 2.575.969 2.575 2.949v5.787h1.716v-6.689c0-2.223-1.408-3.5-3.7-3.5a4.038 4.038 0 0 0-3.586 1.871V723h-1.65v16.657zM497.78 723h-1.673v8.67a3.793 3.793 0 0 0-3.586-2.2c-2.751 0-4.643 2-4.643 5.3 0 3.212 1.892 5.3 4.709 5.3a3.972 3.972 0 0 0 3.564-2.2v1.782h1.629V723zm-1.629 11.794c0 2.332-1.276 3.653-3.3 3.653-1.958 0-3.191-1.409-3.191-3.873 0-2.178 1.211-3.432 3.169-3.432 1.98-.003 3.322 1.427 3.322 3.649zm14.938.2v-.33c0-3.256-1.848-5.215-4.73-5.215-2.861 0-4.907 2.157-4.907 5.259 0 3.213 2.024 5.369 5.017 5.369a4.906 4.906 0 0 0 4.554-2.685l-1.276-.858a3.6 3.6 0 0 1-3.19 2.135 3.23 3.23 0 0 1-3.257-3.521v-.154h7.789zm-1.8-1.364H503.3a2.88 2.88 0 0 1 2.993-2.707 2.7 2.7 0 0 1 2.992 2.702zm5.873 6.029h1.716v-8.449h2.575v-1.387h-2.623V727.2c0-1.892.044-2.794 1.3-2.794a2.7 2.7 0 0 1 1.321.352v-1.739A4.561 4.561 0 0 0 518 722.8c-2.354 0-2.838 1.232-2.838 4.181v2.838h-1.892v1.387h1.892v8.449zm15.8-4.665v-.33c0-3.256-1.848-5.215-4.731-5.215-2.86 0-4.906 2.157-4.906 5.259 0 3.213 2.024 5.369 5.016 5.369a4.907 4.907 0 0 0 4.555-2.685l-1.276-.858a3.6 3.6 0 0 1-3.191 2.135 3.23 3.23 0 0 1-3.256-3.521v-.154h7.789zm-1.8-1.364h-5.985a2.88 2.88 0 0 1 2.992-2.707 2.7 2.7 0 0 1 2.982 2.702zm5.432 6.029h1.673v-5.083a3.789 3.789 0 0 1 .572-2.6 3 3 0 0 1 2.4-1.057c1.76 0 2.575.969 2.575 2.949v5.787h1.716v-6.689c0-2.223-1.408-3.5-3.7-3.5a4.038 4.038 0 0 0-3.586 1.871v-1.519h-1.651v9.836zM546.9 738a4.05 4.05 0 0 0 3.873 2.068c2.178 0 3.586-1.3 3.586-3.125 0-1.606-.946-2.31-2.86-2.926-1.628-.528-2.531-.66-2.531-1.694a1.518 1.518 0 0 1 1.673-1.475 2.328 2.328 0 0 1 2.244 1.409l1.364-.836a3.516 3.516 0 0 0-3.5-1.959c-2.091 0-3.477 1.254-3.477 2.971 0 1.936 1.452 2.354 3.873 3.19 1.034.352 1.54.748 1.54 1.5a1.606 1.606 0 0 1-1.848 1.475 2.652 2.652 0 0 1-2.509-1.563zm19.868-3.015v-.33c0-3.256-1.849-5.215-4.731-5.215-2.861 0-4.907 2.157-4.907 5.259 0 3.213 2.024 5.369 5.017 5.369a4.906 4.906 0 0 0 4.554-2.685l-1.276-.858a3.6 3.6 0 0 1-3.19 2.135 3.231 3.231 0 0 1-3.257-3.521v-.154h7.79zm-1.8-1.364h-5.985a2.881 2.881 0 0 1 2.993-2.707 2.7 2.7 0 0 1 2.99 2.711zm-218.414 26.197h-1.672v1.849a3.8 3.8 0 0 0-3.608-2.2c-2.751 0-4.621 2-4.621 5.3 0 3.213 1.892 5.3 4.709 5.3a3.956 3.956 0 0 0 3.564-2.2v1.783h1.628v-9.836zm-1.628 5.017c0 2.266-1.232 3.565-3.212 3.565-2.091 0-3.279-1.343-3.279-3.719 0-2.244 1.188-3.542 3.213-3.542 1.892 0 3.278 1.408 3.278 3.696zm15.246-5.017H358.5v1.827a3.819 3.819 0 0 0-3.609-2.179c-2.75 0-4.62 1.959-4.62 5.237 0 3.191 1.892 5.259 4.708 5.259a3.951 3.951 0 0 0 3.565-2.179v1.651a4.194 4.194 0 0 1-.418 2.244 3.028 3.028 0 0 1-2.817 1.3c-1.892 0-2.926-.858-2.926-2.31v-.132h-1.892c.066 2.464 1.782 3.916 4.8 3.916a5.162 5.162 0 0 0 3.961-1.474c.924-.99.924-2.09.924-3.5v-9.66zm-1.628 4.951c0 2.266-1.232 3.587-3.213 3.587-2.09 0-3.278-1.343-3.278-3.719 0-2.244 1.188-3.543 3.212-3.543 1.893 0 3.279 1.387 3.279 3.675zm15.29-4.951h-1.672v1.849a3.8 3.8 0 0 0-3.609-2.2c-2.75 0-4.62 2-4.62 5.3 0 3.213 1.892 5.3 4.708 5.3a3.956 3.956 0 0 0 3.565-2.2v1.783h1.628v-9.836zm-1.628 5.017c0 2.266-1.232 3.565-3.213 3.565-2.09 0-3.278-1.343-3.278-3.719 0-2.244 1.188-3.542 3.212-3.542 1.893 0 3.279 1.408 3.279 3.696zm6.18 4.819h1.695v-9.836h-1.695v9.836zm-.4-14.566a1.233 1.233 0 0 0 2.465.022 1.25 1.25 0 0 0-1.232-1.255 1.231 1.231 0 0 0-1.229 1.233zm6.732 14.566h1.672v-5.083a3.784 3.784 0 0 1 .573-2.6 3 3 0 0 1 2.4-1.057c1.76 0 2.574.969 2.574 2.949v5.787h1.716v-6.689c0-2.223-1.408-3.5-3.7-3.5a4.041 4.041 0 0 0-3.587 1.871v-1.519h-1.65v9.836zm12.32-1.65a4.05 4.05 0 0 0 3.872 2.068c2.179 0 3.587-1.3 3.587-3.125 0-1.606-.946-2.31-2.86-2.926-1.629-.528-2.531-.66-2.531-1.694a1.517 1.517 0 0 1 1.672-1.475 2.328 2.328 0 0 1 2.245 1.409l1.364-.836a3.516 3.516 0 0 0-3.5-1.959c-2.09 0-3.476 1.254-3.476 2.971 0 1.936 1.452 2.354 3.872 3.19 1.035.352 1.541.748 1.541 1.5a1.606 1.606 0 0 1-1.849 1.475 2.651 2.651 0 0 1-2.508-1.563zm11.352-6.8v8.449h1.716v-8.449h1.805v-1.387h-1.801v-3.96h-1.716v3.96h-1.8v1.387h1.8zm13.089 6.8a4.052 4.052 0 0 0 3.873 2.068c2.178 0 3.587-1.3 3.587-3.125 0-1.606-.947-2.31-2.861-2.926-1.628-.528-2.53-.66-2.53-1.694a1.517 1.517 0 0 1 1.672-1.475 2.328 2.328 0 0 1 2.244 1.409l1.365-.836a3.518 3.518 0 0 0-3.5-1.959c-2.09 0-3.476 1.254-3.476 2.971 0 1.936 1.452 2.354 3.872 3.19 1.034.352 1.54.748 1.54 1.5a1.605 1.605 0 0 1-1.848 1.475 2.651 2.651 0 0 1-2.508-1.563zm11.089 6.446h1.672v-6.579a3.793 3.793 0 0 0 3.586 2.2c2.751 0 4.643-1.98 4.643-5.3 0-3.234-1.892-5.3-4.709-5.3a3.964 3.964 0 0 0-3.586 2.2v-1.849h-1.606v14.628zm1.628-9.681c0-2.332 1.276-3.675 3.3-3.675 1.959 0 3.191 1.409 3.191 3.873 0 2.178-1.21 3.455-3.169 3.455-1.976 0-3.318-1.431-3.318-3.653zm12.143 4.885h1.695v-9.836h-1.695v9.836zm-.4-14.566a1.233 1.233 0 0 0 2.465.022 1.25 1.25 0 0 0-1.232-1.255 1.231 1.231 0 0 0-1.225 1.233zm6.82 14.566h1.716V753h-1.716v16.657zm6.424 0h1.716V753h-1.716v16.657zm5.3-1.65a4.05 4.05 0 0 0 3.872 2.068c2.178 0 3.587-1.3 3.587-3.125 0-1.606-.947-2.31-2.861-2.926-1.628-.528-2.53-.66-2.53-1.694a1.517 1.517 0 0 1 1.672-1.475 2.328 2.328 0 0 1 2.244 1.409l1.365-.836a3.517 3.517 0 0 0-3.5-1.959c-2.09 0-3.476 1.254-3.476 2.971 0 1.936 1.452 2.354 3.872 3.19 1.034.352 1.54.748 1.54 1.5a1.605 1.605 0 0 1-1.848 1.475 2.651 2.651 0 0 1-2.508-1.563zm27.831-8.186h-1.672v1.849a3.8 3.8 0 0 0-3.609-2.2c-2.75 0-4.621 2-4.621 5.3 0 3.213 1.893 5.3 4.709 5.3a3.957 3.957 0 0 0 3.565-2.2v1.783h1.628v-9.836zm-1.628 5.017c0 2.266-1.233 3.565-3.213 3.565-2.09 0-3.278-1.343-3.278-3.719 0-2.244 1.188-3.542 3.212-3.542 1.902 0 3.293 1.408 3.293 3.696zm6.092 4.819h1.673v-5.083a3.789 3.789 0 0 1 .572-2.6 3 3 0 0 1 2.4-1.057c1.76 0 2.574.969 2.574 2.949v5.787h1.717v-6.689c0-2.223-1.409-3.5-3.7-3.5a4.041 4.041 0 0 0-3.587 1.871v-1.519h-1.65v9.836zM519.295 753h-1.672v8.67a3.793 3.793 0 0 0-3.586-2.2c-2.751 0-4.643 2-4.643 5.3 0 3.213 1.892 5.3 4.709 5.3a3.972 3.972 0 0 0 3.564-2.2v1.783h1.628V753zm-1.628 11.794c0 2.332-1.276 3.653-3.3 3.653-1.959 0-3.191-1.409-3.191-3.873 0-2.178 1.21-3.432 3.169-3.432 1.98-.003 3.322 1.427 3.322 3.649zM530.382 768a4.05 4.05 0 0 0 3.872 2.068c2.179 0 3.587-1.3 3.587-3.125 0-1.606-.946-2.31-2.861-2.926-1.628-.528-2.53-.66-2.53-1.694a1.517 1.517 0 0 1 1.672-1.475 2.329 2.329 0 0 1 2.245 1.409l1.364-.836a3.517 3.517 0 0 0-3.5-1.959c-2.09 0-3.476 1.254-3.476 2.971 0 1.936 1.452 2.354 3.872 3.19 1.034.352 1.541.748 1.541 1.5a1.606 1.606 0 0 1-1.849 1.475 2.651 2.651 0 0 1-2.508-1.563zm11.352-6.8v8.449h1.716V761.2h1.8v-1.387h-1.8v-3.96h-1.716v3.96h-1.8v1.387h1.8zm15.687-1.387h-1.672v1.849a3.8 3.8 0 0 0-3.609-2.2c-2.75 0-4.621 2-4.621 5.3 0 3.213 1.893 5.3 4.709 5.3a3.958 3.958 0 0 0 3.565-2.2v1.783h1.628v-9.836zm-1.628 5.017c0 2.266-1.233 3.565-3.213 3.565-2.09 0-3.278-1.343-3.278-3.719 0-2.244 1.188-3.542 3.212-3.542 1.892.005 3.279 1.413 3.279 3.701zm6.18 4.819h1.694v-9.836h-1.694v9.836zm-.4-14.566a1.232 1.232 0 0 0 2.464.022 1.25 1.25 0 0 0-1.232-1.255 1.231 1.231 0 0 0-1.228 1.238zm6.732 14.566h1.672v-5.083a3.789 3.789 0 0 1 .572-2.6 3 3 0 0 1 2.4-1.057c1.76 0 2.574.969 2.574 2.949v5.787h1.716v-6.689c0-2.223-1.408-3.5-3.7-3.5a4.039 4.039 0 0 0-3.587 1.871v-1.519h-1.65v9.836zm12.32-1.65a4.05 4.05 0 0 0 3.872 2.068c2.178 0 3.587-1.3 3.587-3.125 0-1.606-.946-2.31-2.861-2.926-1.628-.528-2.53-.66-2.53-1.694a1.517 1.517 0 0 1 1.672-1.475 2.328 2.328 0 0 1 2.244 1.409l1.365-.836a3.517 3.517 0 0 0-3.5-1.959c-2.09 0-3.476 1.254-3.476 2.971 0 1.936 1.452 2.354 3.872 3.19 1.034.352 1.54.748 1.54 1.5a1.605 1.605 0 0 1-1.848 1.475 2.651 2.651 0 0 1-2.508-1.563zM360.1 799.654h1.717v-8.449h2.574v-1.387h-2.618V787.2c0-1.892.044-2.794 1.3-2.794a2.7 2.7 0 0 1 1.32.352v-1.739a4.555 4.555 0 0 0-1.452-.22c-2.354 0-2.839 1.232-2.839 4.181v2.838h-1.892v1.387h1.89v8.449zm6.226-4.885a5.159 5.159 0 0 0 1.562 3.741 5.272 5.272 0 0 0 3.785 1.562 5.367 5.367 0 0 0 3.784-1.584 5.232 5.232 0 0 0 0-7.46 5.307 5.307 0 0 0-3.784-1.562 5.249 5.249 0 0 0-3.785 1.541 5.168 5.168 0 0 0-1.562 3.762zm1.782 0a3.557 3.557 0 1 1 3.565 3.719 3.613 3.613 0 0 1-3.565-3.719zm12.65 4.885h1.672v-4.8c0-2.574.88-3.85 2.662-3.85a3.171 3.171 0 0 1 1.035.2l.572-1.519a3.384 3.384 0 0 0-1.145-.2c-1.5 0-2.42.7-3.3 2.377v-2.047h-1.5v9.836zm22.419-10.188h-.264l-2.993 7.063-2.618-6.711h-1.871l4.379 10.452 3.235-7.547 3.234 7.547 4.379-10.452h-1.893l-2.64 6.711zm9.5 5.3a5.159 5.159 0 0 0 1.562 3.741 5.274 5.274 0 0 0 3.785 1.562 5.371 5.371 0 0 0 3.785-1.584 5.235 5.235 0 0 0 0-7.46 5.311 5.311 0 0 0-3.785-1.562 5.251 5.251 0 0 0-3.785 1.541 5.168 5.168 0 0 0-1.56 3.765zm1.783 0a3.557 3.557 0 1 1 3.564 3.719 3.613 3.613 0 0 1-3.562-3.716zm12.649 4.885h1.672v-4.8c0-2.574.88-3.85 2.663-3.85a3.161 3.161 0 0 1 1.034.2l.572-1.519a3.383 3.383 0 0 0-1.144-.2c-1.5 0-2.421.7-3.3 2.377v-2.047h-1.5v9.836zm8.822 0h1.672v-4.8c0-2.574.88-3.85 2.663-3.85a3.161 3.161 0 0 1 1.034.2l.572-1.519a3.383 3.383 0 0 0-1.144-.2c-1.5 0-2.421.7-3.3 2.377v-2.047h-1.5v9.836zm8.4 4.8h1.892l6.6-14.632h-1.848l-3.037 7.063-2.86-7.063h-1.936l3.85 8.868zm10.569-10.539v1.694h5.017v-1.694H454.9zm9.79 5.743h1.717v-8.449h2.574v-1.387h-2.618V787.2c0-1.892.044-2.794 1.3-2.794a2.7 2.7 0 0 1 1.32.352v-1.739a4.555 4.555 0 0 0-1.452-.22c-2.354 0-2.839 1.232-2.839 4.181v2.838H462.8v1.387h1.9v8.449zm7.04 0h1.672v-4.8c0-2.574.88-3.85 2.663-3.85a3.161 3.161 0 0 1 1.034.2l.572-1.519a3.383 3.383 0 0 0-1.144-.2c-1.5 0-2.421.7-3.3 2.377v-2.047h-1.5v9.836zm17.579-4.665v-.33c0-3.256-1.848-5.215-4.73-5.215-2.861 0-4.907 2.157-4.907 5.259 0 3.212 2.024 5.369 5.017 5.369a4.906 4.906 0 0 0 4.554-2.685l-1.276-.858a3.6 3.6 0 0 1-3.19 2.135 3.23 3.23 0 0 1-3.257-3.521v-.154h7.789zm-1.8-1.364h-5.985a2.879 2.879 0 0 1 2.993-2.706 2.7 2.7 0 0 1 2.994 2.705zm14.212 1.364v-.33c0-3.256-1.848-5.215-4.731-5.215-2.86 0-4.906 2.157-4.906 5.259 0 3.212 2.024 5.369 5.016 5.369a4.907 4.907 0 0 0 4.555-2.685l-1.276-.858a3.6 3.6 0 0 1-3.191 2.135 3.23 3.23 0 0 1-3.256-3.521v-.154h7.789zm-1.8-1.364h-5.985a2.879 2.879 0 0 1 2.992-2.706 2.7 2.7 0 0 1 2.991 2.705zm19.052-4.159h-.264l-2.993 7.063-2.618-6.711h-1.871l4.373 10.451 3.235-7.547 3.234 7.547 4.379-10.452h-1.893l-2.64 6.711zm19.074 5.523v-.33c0-3.256-1.849-5.215-4.731-5.215-2.86 0-4.907 2.157-4.907 5.259 0 3.212 2.025 5.369 5.017 5.369a4.909 4.909 0 0 0 4.555-2.685l-1.277-.858a3.6 3.6 0 0 1-3.19 2.135 3.23 3.23 0 0 1-3.256-3.521v-.154h7.789zm-1.8-1.364h-5.984a2.879 2.879 0 0 1 2.992-2.706 2.7 2.7 0 0 1 2.985 2.705zm14.587-3.807h-1.673v1.849a3.8 3.8 0 0 0-3.608-2.2c-2.751 0-4.621 2-4.621 5.3 0 3.213 1.892 5.3 4.709 5.3a3.956 3.956 0 0 0 3.564-2.2v1.783h1.629v-9.836zm-1.629 5.017c0 2.266-1.232 3.565-3.212 3.565-2.09 0-3.279-1.343-3.279-3.719 0-2.244 1.189-3.542 3.213-3.542 1.885-.001 3.273 1.407 3.273 3.695zm6.115 4.819h1.672v-4.8c0-2.574.88-3.85 2.662-3.85a3.162 3.162 0 0 1 1.035.2l.572-1.519a3.383 3.383 0 0 0-1.144-.2c-1.5 0-2.421.7-3.3 2.377v-2.047h-1.5v9.836zm6.8-1.056a1.245 1.245 0 0 0 1.276 1.254 1.264 1.264 0 0 0 1.3-1.254 1.287 1.287 0 0 0-2.586.001z"/><path id="STAIN_RESISTANT" data-name="STAIN RESISTANT" class="cls-2" d="M416.916 676.379l-1.76 2.9a6.86 6.86 0 0 0 5.081 2.1c3.361 0 5.481-2.06 5.481-5.041 0-2.641-1.4-3.581-3.941-4.261-1.3-.34-2.28-.56-2.28-1.58a1.366 1.366 0 0 1 1.58-1.2 4.34 4.34 0 0 1 2.741 1.141l1.22-2.8a7.226 7.226 0 0 0-4.241-1.28 4.58 4.58 0 0 0-4.941 4.642c0 2.24 1.26 3.281 3.841 3.961 1.62.42 2.4.76 2.4 1.9a1.579 1.579 0 0 1-1.78 1.48 4.709 4.709 0 0 1-3.401-1.962zM438.957 681h3.9v-10.922h3.2V666.7h-10.281v3.381h3.181V681zm15.484 0h3.88l.741-2.561h5.538l.72 2.561h3.88l-4.941-14.3h-4.881zm5.461-5.341l1.44-4.721c.06-.22.24-.86.5-1.921q.39 1.591.48 1.921l1.461 4.721H459.9zM479.661 681h3.939v-14.3h-3.941V681zm16.08 0h3.76v-7.062a23.694 23.694 0 0 0-.22-2.82 20.139 20.139 0 0 0 1.3 2.5l5.4 7.382h3.741v-14.3h-3.741v7.061a23.693 23.693 0 0 0 .22 2.821 21.142 21.142 0 0 0-1.3-2.52l-5.4-7.362h-3.76V681zm-117.224 16.458V693.7h.78c1.621 0 2.361.48 2.361 1.98 0 1.26-.78 1.78-2.421 1.78h-.72zM374.856 705h3.661v-5.6l3.283 5.6h4.4l-3.9-5.761a3.79 3.79 0 0 0 3.2-4.081 4.244 4.244 0 0 0-1.6-3.5c-1.22-.94-2.74-.96-4.721-.96h-4.321V705zm21.82 0h8.762v-3.2h-4.961v-2.42h4.681v-3.061h-4.681v-2.48h4.961V690.7h-8.762V705zm20.98-4.621l-1.76 2.9a6.858 6.858 0 0 0 5.081 2.1c3.361 0 5.481-2.06 5.481-5.041 0-2.641-1.4-3.581-3.941-4.261-1.3-.34-2.28-.56-2.28-1.58a1.366 1.366 0 0 1 1.58-1.2 4.342 4.342 0 0 1 2.741 1.141l1.22-2.8a7.226 7.226 0 0 0-4.241-1.28A4.58 4.58 0 0 0 416.6 695c0 2.24 1.26 3.281 3.841 3.961 1.62.42 2.4.76 2.4 1.9a1.579 1.579 0 0 1-1.78 1.48 4.707 4.707 0 0 1-3.405-1.962zm20.08 4.621h3.941v-14.3h-3.941V705zm16.72-4.621l-1.76 2.9a6.858 6.858 0 0 0 5.081 2.1c3.36 0 5.481-2.06 5.481-5.041 0-2.641-1.4-3.581-3.941-4.261-1.3-.34-2.281-.56-2.281-1.58a1.367 1.367 0 0 1 1.581-1.2 4.337 4.337 0 0 1 2.74 1.141l1.221-2.8a7.228 7.228 0 0 0-4.241-1.28A4.58 4.58 0 0 0 453.4 695c0 2.24 1.26 3.281 3.841 3.961 1.62.42 2.4.76 2.4 1.9a1.579 1.579 0 0 1-1.78 1.48 4.706 4.706 0 0 1-3.405-1.962zM476.5 705h3.9v-10.922h3.2V690.7h-10.285v3.381h3.185V705zm15.484 0h3.881l.74-2.561h5.541l.717 2.561h3.88l-4.943-14.3h-4.881zm5.461-5.341l1.441-4.721c.06-.22.24-.86.5-1.921q.39 1.591.48 1.921l1.46 4.721h-3.881zM517.1 705h3.761v-7.062a23.694 23.694 0 0 0-.22-2.82 20.212 20.212 0 0 0 1.3 2.5l5.4 7.382h3.741v-14.3h-3.741v7.061a23.512 23.512 0 0 0 .221 2.821 21.647 21.647 0 0 0-1.3-2.521l-5.4-7.361H517.1V705zm28.1 0h3.9v-10.922h3.2V690.7h-10.28v3.381h3.18V705z"/><path id="TAILORING_PERFORMANCE" data-name="TAILORING + PERFORMANCE" class="cls-2" d="M87.766 60.164h6.169V48.619h3.432V43H84.333v5.617h3.432v11.547zm13.109 0h6.625l.528-2.164h4.656l.552 2.16h6.625L113.86 43H107zm8.185-6.241l.528-1.944a17.4 17.4 0 0 0 .7-3.768h.12a17.4 17.4 0 0 0 .7 3.768l.528 1.944h-2.576zm16.679 6.241H132V43h-6.265v17.164zm14.4 0h12.169V54.6h-6V43h-6.169v17.164zm36.6-8.545a8.814 8.814 0 0 0-2.593-6.409 9.639 9.639 0 0 0-13.153 0A9.189 9.189 0 0 0 161 58a9.576 9.576 0 0 0 13.129.024 8.739 8.739 0 0 0 2.612-6.405zm-9.169 3.24a2.923 2.923 0 0 1-2.9-3.24c0-1.992 1.224-3.264 2.9-3.264s2.88 1.272 2.88 3.264-1.198 3.24-2.878 3.24zm16.559 5.3h6.048V54.5l3 5.665h6.912l-4.584-6.985c1.992-.24 3.312-1.944 3.312-4.392 0-3.672-2.352-5.785-6.937-5.785h-7.752v17.161zm6.048-12.745h.96a1.6 1.6 0 0 1 1.825 1.7 1.58 1.58 0 0 1-1.825 1.656h-.96v-3.36zm16.056 12.745h6.267V43h-6.264v17.164zm14.4 0h5.953v-6.188a17.55 17.55 0 0 0-.192-2.712l5.28 8.9h6.1V43h-5.953v6.241a17.176 17.176 0 0 0 .193 2.736L226.683 43h-6.049v17.164zm36-6.145a1.859 1.859 0 0 1-2.112 1.416c-1.968 0-3.144-1.392-3.144-3.816 0-2.4 1.248-3.84 3-3.84a2.74 2.74 0 0 1 2.448 1.416l5.5-2.04a8.9 8.9 0 0 0-8.041-4.536 9.151 9.151 0 0 0-6.577 2.568 8.833 8.833 0 0 0-2.592 6.433 8.738 8.738 0 0 0 2.592 6.432 9.648 9.648 0 0 0 13.994-.936 9.342 9.342 0 0 0 1.776-5.856 11.483 11.483 0 0 0-.048-1.272h-9.481v4.032h2.688zm36.96-8.161h-3.289V51.4h-5.374v3.2h5.376v5.569h3.294V54.6h5.376v-3.2H293.6v-5.541zm33.983 1.92h.96c1.2 0 1.824.552 1.824 1.44s-.624 1.416-1.824 1.416h-.96v-2.85zm-6.193 12.385h6.169V55.1h1.948c4.56 0 6.745-1.68 6.745-5.833 0-4.464-2.425-6.265-7.489-6.265h-7.369v17.162zm21.792 0h11.617v-4.651h-5.568v-1.8h4.92v-4.392h-4.92v-1.656h5.424V43h-11.471v17.164zm18.912 0h6.049V54.5l3 5.665h6.912l-4.584-6.985c1.992-.24 3.312-1.944 3.312-4.392 0-3.672-2.352-5.785-6.936-5.785h-7.753v17.161zm6.049-12.745h.96a1.6 1.6 0 0 1 1.824 1.7 1.58 1.58 0 0 1-1.824 1.656h-.96v-3.36zm15.935 12.745h6.168v-6.12h4.8v-4.387h-4.8v-1.992h5.305V43h-11.471v17.164zm36.121-8.545a8.817 8.817 0 0 0-2.592-6.409 9.639 9.639 0 0 0-13.153 0 9.189 9.189 0 0 0 0 12.793 9.576 9.576 0 0 0 13.129.024 8.742 8.742 0 0 0 2.618-6.402zm-9.169 3.24a2.923 2.923 0 0 1-2.9-3.24c0-1.992 1.224-3.264 2.9-3.264s2.881 1.272 2.881 3.264-1.198 3.246-2.879 3.246zm16.559 5.3h6.049V54.5l3 5.665h6.913l-4.585-6.985c1.992-.24 3.313-1.944 3.313-4.392 0-3.672-2.353-5.785-6.937-5.785h-7.753v17.161zm6.049-12.745h.96a1.6 1.6 0 0 1 1.824 1.7 1.58 1.58 0 0 1-1.824 1.656h-.96v-3.36zm31.608 12.745h6.049L468.578 43h-6.361l-1.272 4.176a32.022 32.022 0 0 0-1.176 5.088h-.1a27.587 27.587 0 0 0-1.128-5.016L457.321 43h-6.361l-2.928 17.162h6.048l.745-6.793c.1-.912.168-1.968.264-3.144a25.532 25.532 0 0 0 .768 3.336l1.968 6.6h3.675l1.968-6.6a25.532 25.532 0 0 0 .768-3.336c.12 1.392.192 2.448.264 3.144zm10.271 0h6.624l.53-2.153h4.657l.552 2.16h6.627l-6-17.16h-6.865zm8.184-6.241l.529-1.944a17.4 17.4 0 0 0 .7-3.768h.12a17.4 17.4 0 0 0 .7 3.768l.528 1.944H483.7zm16.56 6.241h5.952v-6.182a17.55 17.55 0 0 0-.192-2.712l5.281 8.9h6.1V43h-5.952v6.241a17.278 17.278 0 0 0 .192 2.736L506.3 43h-6.048v17.164zm37.705-10.345v-6.35a9.915 9.915 0 0 0-4.033-.864 8.822 8.822 0 0 0-9.193 9.025 8.677 8.677 0 0 0 3.553 7.225 9.283 9.283 0 0 0 5.568 1.776 10.62 10.62 0 0 0 4.033-.816l.192-6.457a6.492 6.492 0 0 1-3.817 1.584 3.068 3.068 0 0 1-3.24-3.312 3.187 3.187 0 0 1 3.36-3.408 5.05 5.05 0 0 1 3.579 1.608zm7.51 10.345h11.617v-4.646h-5.566v-1.8h4.92v-4.392h-4.92v-1.656h5.424V43h-11.473v17.164z"/></g></svg>