<svg xmlns="http://www.w3.org/2000/svg" width="640" height="1035" viewBox="0 0 640 1035">
  <defs>
    <style>
      .cls-1 {
        fill: #fff;
      }

      .cls-1, .cls-2 {
        fill-rule: evenodd;
      }
    </style>
  </defs>
  <path id="_4_PRO_ATHLETES_ARE_READY_TO_SHOW_YOU_HOW." data-name="4 PRO ATHLETES ARE READY TO SHOW YOU HOW." class="cls-1" d="M76.763,509.1l1.392-2.112a13.2,13.2,0,0,0,1.176-2.136,10.581,10.581,0,0,0-.12,1.92V509.1H76.763Zm1.992,7.9h5.88v-3.408h1.848V509.1H84.635v-9.264H77.867L71.41,509.1v4.489h7.345V517Zm31.535-12.385h0.961c1.2,0,1.824.552,1.824,1.44s-0.624,1.416-1.824,1.416H110.29v-2.856ZM104.1,517h6.168v-5.064h1.945c4.56,0,6.744-1.681,6.744-5.833,0-4.464-2.424-6.264-7.488-6.264H104.1V517Zm20.592,0h6.048v-5.665l3,5.665h6.912l-4.584-6.985c1.992-.24,3.312-1.944,3.312-4.392,0-3.672-2.352-5.784-6.937-5.784H124.69V517Zm6.048-12.745h0.96a1.6,1.6,0,0,1,1.825,1.7,1.58,1.58,0,0,1-1.825,1.656h-0.96v-3.36Zm32.473,4.2a8.816,8.816,0,0,0-2.592-6.408,9.639,9.639,0,0,0-13.153,0,9.186,9.186,0,0,0,0,12.793,9.576,9.576,0,0,0,13.129.024A8.743,8.743,0,0,0,163.211,508.455Zm-9.169,3.241a2.924,2.924,0,0,1-2.9-3.241c0-1.992,1.224-3.264,2.9-3.264s2.88,1.272,2.88,3.264S155.722,511.7,154.042,511.7Zm24.911,5.3h6.624l0.528-2.16h4.657l0.552,2.16h6.624l-6-17.161h-6.865Zm8.184-6.241,0.528-1.944a17.4,17.4,0,0,0,.7-3.768h0.12a17.4,17.4,0,0,0,.7,3.768l0.529,1.944h-2.569ZM203.7,517h6.168V505.455H213.3v-5.616H200.271v5.616H203.7V517Zm15.192,0h6.168v-6.049h3.768V517H235V499.839h-6.169v5.712h-3.768v-5.712H218.9V517Zm22.944,0h12.169v-5.568h-6V499.839h-6.168V517Zm17.664,0H271.12v-4.656h-5.569v-1.8h4.92v-4.392h-4.92V504.5h5.425v-4.656H259.5V517Zm19.92,0h6.168V505.455h3.433v-5.616H275.99v5.616h3.433V517Zm15.191,0h11.617v-4.656h-5.568v-1.8h4.92v-4.392h-4.92V504.5h5.424v-4.656H294.614V517Zm16.152-1.464a13.476,13.476,0,0,0,6.745,1.92c4.488,0,7.416-2.784,7.416-6.457a4.58,4.58,0,0,0-3.816-4.608c-2.04-.456-3.192-0.576-3.192-1.416,0-.5.48-0.816,1.344-0.816a6.142,6.142,0,0,1,3.528,1.344l1.872-4.488a11.911,11.911,0,0,0-5.784-1.56c-4.368,0-7.177,2.64-7.177,6.24,0,2.5,1.488,4.1,4.417,4.728,1.416,0.312,2.28.408,2.28,1.2,0,0.552-.48.888-1.368,0.888a8.014,8.014,0,0,1-4.3-1.777ZM86.36,549h6.625l0.528-2.16h4.656L98.721,549h6.625l-6-17.162H92.481Zm8.185-6.241,0.528-1.944a17.4,17.4,0,0,0,.7-3.768h0.12a17.406,17.406,0,0,0,.7,3.768l0.528,1.944H94.545ZM109.9,549h6.048v-5.665l3,5.665h6.912l-4.584-6.985c1.992-.24,3.312-1.944,3.312-4.392,0-3.672-2.352-5.785-6.936-5.785H109.9V549Zm6.048-12.745h0.961a1.6,1.6,0,0,1,1.824,1.7,1.58,1.58,0,0,1-1.824,1.656h-0.961v-3.36ZM130.688,549h11.617v-4.656h-5.569v-1.8h4.921v-4.392h-4.921V536.5h5.425v-4.657H130.688V549Zm29.543,0h6.049v-5.665l3,5.665h6.913l-4.585-6.985c1.992-.24,3.313-1.944,3.313-4.392,0-3.672-2.353-5.785-6.937-5.785h-7.753V549Zm6.049-12.745h0.96a1.6,1.6,0,0,1,1.824,1.7,1.58,1.58,0,0,1-1.824,1.656h-0.96v-3.36ZM181.015,549h11.617v-4.656h-5.568v-1.8h4.92v-4.392h-4.92V536.5h5.424v-4.657H181.015V549Zm15.432,0h6.624l0.528-2.16h4.657l0.552,2.16h6.624l-6-17.162h-6.865Zm8.184-6.241,0.528-1.944a17.331,17.331,0,0,0,.7-3.768h0.12a17.4,17.4,0,0,0,.7,3.768l0.528,1.944h-2.569ZM219.991,549h4.536c3.432,0,6.073-.168,8.305-1.7a8.419,8.419,0,0,0-1.056-14.377c-1.584-.792-3.817-1.081-6.793-1.081h-4.992V549Zm6.12-5.232v-6.649h0.264c2.5,0,3.745,1.056,3.745,3.312C230.12,542.759,228.848,543.72,226.111,543.768Zm18.8,5.232h6.217v-7.585l5.952-9.577H250.1l-1.416,3.337a13.576,13.576,0,0,0-.528,1.416,13.728,13.728,0,0,0-.5-1.416l-1.441-3.337h-7.032l5.736,9.577V549Zm30.144,0h6.168V537.455h3.433v-5.617H271.625v5.617h3.432V549Zm32.929-8.545a8.816,8.816,0,0,0-2.592-6.408,9.636,9.636,0,0,0-13.153,0,9.189,9.189,0,0,0,0,12.793,9.576,9.576,0,0,0,13.129.024A8.743,8.743,0,0,0,307.986,540.455Zm-9.169,3.241a2.924,2.924,0,0,1-2.9-3.241c0-1.992,1.224-3.264,2.9-3.264s2.881,1.272,2.881,3.264S300.5,543.7,298.817,543.7ZM68.18,579.536a13.475,13.475,0,0,0,6.745,1.92c4.488,0,7.417-2.784,7.417-6.457a4.58,4.58,0,0,0-3.816-4.608c-2.04-.456-3.192-0.576-3.192-1.416,0-.5.48-0.816,1.344-0.816a6.143,6.143,0,0,1,3.528,1.344l1.872-4.488a11.914,11.914,0,0,0-5.784-1.561c-4.368,0-7.177,2.641-7.177,6.241,0,2.5,1.488,4.1,4.416,4.728,1.416,0.312,2.28.408,2.28,1.2,0,0.552-.48.888-1.368,0.888a8.01,8.01,0,0,1-4.3-1.777ZM88,581h6.168v-6.049h3.768V581h6.169V563.838H97.941v5.713H94.173v-5.713H88V581Zm40.682-8.545a8.816,8.816,0,0,0-2.592-6.408,9.638,9.638,0,0,0-13.154,0,9.189,9.189,0,0,0,0,12.793,9.578,9.578,0,0,0,13.13.024A8.743,8.743,0,0,0,128.686,572.455Zm-9.169,3.241a2.924,2.924,0,0,1-2.9-3.241c0-1.992,1.224-3.264,2.9-3.264s2.88,1.272,2.88,3.264S121.2,575.7,119.517,575.7Zm25.368-3.385H145.1a17.225,17.225,0,0,0,.48,2.833l1.3,5.856h5.376l5.017-17.162h-6.193l-1.344,7.561a23.363,23.363,0,0,0-.384,3.384h-0.144a16.559,16.559,0,0,0-.408-2.928l-1.632-8.017h-4.344l-1.633,8.017a16.559,16.559,0,0,0-.408,2.928h-0.144a23.363,23.363,0,0,0-.384-3.384l-1.344-7.561h-6.192L137.732,581h5.377l1.3-5.856A17.225,17.225,0,0,0,144.885,572.311ZM176.54,581h6.216v-7.585l5.953-9.577h-6.985l-1.416,3.337a13.576,13.576,0,0,0-.528,1.416,13.728,13.728,0,0,0-.5-1.416l-1.44-3.337H170.8l5.737,9.577V581Zm33.4-8.545a8.816,8.816,0,0,0-2.592-6.408,9.636,9.636,0,0,0-13.153,0,9.189,9.189,0,0,0,0,12.793,9.576,9.576,0,0,0,13.129.024A8.743,8.743,0,0,0,209.935,572.455Zm-9.168,3.241a3.273,3.273,0,0,1,0-6.5c1.68,0,2.88,1.272,2.88,3.264S202.447,575.7,200.767,575.7Zm15.166-2.545a9.2,9.2,0,0,0,.985,4.993,7.893,7.893,0,0,0,6.888,3.312c3.1,0,5.593-1.248,6.889-3.312a9.2,9.2,0,0,0,1.008-4.993v-9.313h-6.169V573.2c0,1.8-.312,2.857-1.728,2.857-1.44,0-1.7-1.057-1.7-2.857v-9.361h-6.169v9.313ZM250.325,581h6.169v-6.049h3.768V581h6.169V563.838h-6.169v5.713h-3.768v-5.713h-6.169V581Zm40.682-8.545a8.812,8.812,0,0,0-2.593-6.408,9.636,9.636,0,0,0-13.153,0,9.189,9.189,0,0,0,0,12.793,9.576,9.576,0,0,0,13.129.024A8.74,8.74,0,0,0,291.007,572.455Zm-9.169,3.241a2.924,2.924,0,0,1-2.9-3.241c0-1.992,1.224-3.264,2.9-3.264s2.88,1.272,2.88,3.264S283.518,575.7,281.838,575.7Zm25.368-3.385h0.216a17.225,17.225,0,0,0,.48,2.833L309.2,581h5.376l5.017-17.162H313.4l-1.344,7.561a23.363,23.363,0,0,0-.384,3.384h-0.144a16.559,16.559,0,0,0-.408-2.928l-1.632-8.017h-4.345l-1.632,8.017a16.559,16.559,0,0,0-.408,2.928h-0.144a23.363,23.363,0,0,0-.384-3.384l-1.344-7.561h-6.192L300.053,581h5.376l1.3-5.856A17.225,17.225,0,0,0,307.206,572.311Zm13.2,6.241a3.386,3.386,0,1,0,3.337-2.808A3.084,3.084,0,0,0,320.4,578.552Z"/>
  <path class="cls-1" d="M353,1002h151.01v3H353v-3Z"/>
  <path id="SHOP_the_look" data-name="SHOP the look" class="cls-1" d="M358.384,981.985a4.932,4.932,0,0,0-3.11-1.077,3.3,3.3,0,0,0-2.592,1,3.419,3.419,0,0,0-.911,2.448,2.743,2.743,0,0,0,.628,1.893,3.5,3.5,0,0,0,1.461.864l0.864,0.31a5.066,5.066,0,0,1,1.225.6,0.975,0.975,0,0,1,.362.783,1.148,1.148,0,0,1-.377.882,1.633,1.633,0,0,1-1.1.375,2.371,2.371,0,0,1-1.32-.392,6.438,6.438,0,0,1-.973-0.832l-1.257,1.8a6.682,6.682,0,0,0,1.539,1.191,4.3,4.3,0,0,0,2.074.457,3.525,3.525,0,0,0,3.895-3.8,2.775,2.775,0,0,0-.769-2.023,4.155,4.155,0,0,0-1.43-.832l-0.785-.311a4.138,4.138,0,0,1-1.32-.62,0.775,0.775,0,0,1-.235-0.6,1,1,0,0,1,.267-0.686,1.282,1.282,0,0,1,1.021-.375,2.5,2.5,0,0,1,1.759.783Zm7.4-.833h-2.419v10.884h2.419v-4.618h4.178v4.618h2.419V981.152h-2.419V985.3h-4.178v-4.145Zm16.95-.244a5.51,5.51,0,0,0-4.1,1.6,6.2,6.2,0,0,0-1.618,4.128,5.525,5.525,0,0,0,5.717,5.646,5.482,5.482,0,0,0,4.053-1.6,5.949,5.949,0,0,0,0-8.191A5.48,5.48,0,0,0,382.734,980.908Zm-0.015,2.317a3.3,3.3,0,0,1,2.309.93,3.5,3.5,0,0,1,.911,2.448,3.325,3.325,0,0,1-.911,2.431,3.113,3.113,0,0,1-2.325.93,3.016,3.016,0,0,1-2.246-.9,3.315,3.315,0,0,1-.959-2.448,3.4,3.4,0,0,1,.927-2.464A3.156,3.156,0,0,1,382.719,983.225Zm10.337-2.073v10.884h2.42v-3.818h1.476a3.487,3.487,0,0,0,2.67-.963,3.572,3.572,0,0,0,.9-2.562,3.42,3.42,0,0,0-1.021-2.643,3.836,3.836,0,0,0-2.749-.9h-3.692Zm2.42,2.056h0.816a1.837,1.837,0,0,1,1.351.408,1.466,1.466,0,0,1,.393,1.061,1.548,1.548,0,0,1-.393,1.077,1.8,1.8,0,0,1-1.3.408h-0.863v-2.954Zm21.836,0.066v-2.122h-6.975v2.122h2.278v8.762h2.419v-8.762h2.278Zm6.52-2.122h-2.419v10.884h2.419v-4.618h4.178v4.618h2.419V981.152H428.01V985.3h-4.178v-4.145Zm17.641,0h-5.922v10.884h5.922v-2.121h-3.5V987.5h3.33v-2.121h-3.33v-2.105h3.5v-2.122Zm11.281,0v10.884h5.67v-2.121h-3.251v-8.763h-2.419Zm14.767-.244a5.512,5.512,0,0,0-4.1,1.6,6.2,6.2,0,0,0-1.618,4.128,5.527,5.527,0,0,0,5.718,5.646,5.481,5.481,0,0,0,4.052-1.6,5.949,5.949,0,0,0,0-8.191A5.48,5.48,0,0,0,467.521,980.908Zm-0.016,2.317a3.294,3.294,0,0,1,2.309.93,3.5,3.5,0,0,1,.911,2.448,3.325,3.325,0,0,1-.911,2.431,3.113,3.113,0,0,1-2.325.93,3.016,3.016,0,0,1-2.246-.9,3.314,3.314,0,0,1-.958-2.448,3.4,3.4,0,0,1,.927-2.464A3.152,3.152,0,0,1,467.505,983.225Zm15.569-2.317a5.512,5.512,0,0,0-4.1,1.6,6.2,6.2,0,0,0-1.618,4.128,5.525,5.525,0,0,0,5.718,5.646,5.481,5.481,0,0,0,4.052-1.6,5.949,5.949,0,0,0,0-8.191A5.48,5.48,0,0,0,483.074,980.908Zm-0.016,2.317a3.294,3.294,0,0,1,2.309.93,3.5,3.5,0,0,1,.911,2.448,3.325,3.325,0,0,1-.911,2.431,3.113,3.113,0,0,1-2.325.93,3.016,3.016,0,0,1-2.246-.9,3.314,3.314,0,0,1-.958-2.448,3.4,3.4,0,0,1,.926-2.464A3.156,3.156,0,0,1,483.058,983.225Zm12.757-2.073H493.4v10.884h2.419v-4.83l3.754,4.83h3.11l-4.571-5.727,4.241-5.157H499.4l-3.581,4.537v-4.537Z"/>
  <path id="KEVIN_LOVE_Pro_Basketball_Player" data-name="KEVIN LOVE Pro Basketball Player" class="cls-1" d="M395.931,884.52a0.292,0.292,0,0,0,0-.384h-3.008a0.771,0.771,0,0,1-.288-0.1l-9.887-13.823,5.7-6.656c1.088-1.216,1.184-1.344,1.44-1.344h2.527a0.757,0.757,0,0,0,0-.384h-6.239a0.408,0.408,0,0,0,0,.384h2.656c0.192,0,.256.1-0.864,1.344l-8.128,9.535V862.345a0.129,0.129,0,0,1,.16-0.128h2.816a0.408,0.408,0,0,0,0-.384H372.381a0.408,0.408,0,0,0,0,.384H375.2a0.129,0.129,0,0,1,.16.128v21.663a0.129,0.129,0,0,1-.16.128h-2.816a0.408,0.408,0,0,0,0,.384h10.431a0.408,0.408,0,0,0,0-.384H380a0.129,0.129,0,0,1-.16-0.128v-10.72l7.52,10.752c0.032,0.032,0,.1-0.128.1h-3.04a0.408,0.408,0,0,0,0,.384h11.743Zm20.224-.1V877a0.347,0.347,0,0,0-.352,0c0,3.3-2.272,7.136-7.487,7.136h-3.168c-0.16,0-.224-0.032-0.224-0.128V873.064h0.736a4.229,4.229,0,0,1,4.192,4.32,0.291,0.291,0,0,0,.32,0v-9.023a0.291,0.291,0,0,0-.32,0,4.209,4.209,0,0,1-4.192,4.319h-0.736V862.345c0-.1.064-0.128,0.224-0.128h3.072c3.968,0,5.887,3.52,5.887,6.5a0.408,0.408,0,0,0,.384,0v-6.784c0-.032,0-0.1-0.128-0.1H397.5a0.408,0.408,0,0,0,0,.384h2.815c0.128,0,.192.032,0.192,0.128v21.663c0,0.1-.064.128-0.192,0.128H397.5a0.408,0.408,0,0,0,0,.384h18.558A0.085,0.085,0,0,0,416.155,884.424Zm27.04-22.207a0.408,0.408,0,0,0,0-.384h-6.5a0.408,0.408,0,0,0,0,.384h2.88c0.192,0,.224.1-0.192,1.344l-5.375,15.583-6.976-16.8c-0.032-.1,0-0.128.128-0.128h3.264a0.408,0.408,0,0,0,0-.384H419.069a0.408,0.408,0,0,0,0,.384h2.911a0.213,0.213,0,0,1,.256.128L431.964,885a0.336,0.336,0,0,0,.416,0l7.359-21.438c0.448-1.216.544-1.344,0.768-1.344H443.2Zm13.728,22.3a0.408,0.408,0,0,0,0-.384h-2.815c-0.128,0-.192-0.032-0.192-0.128V862.345c0-.1.064-0.128,0.192-0.128h2.815a0.408,0.408,0,0,0,0-.384H446.492a0.408,0.408,0,0,0,0,.384h2.816a0.129,0.129,0,0,1,.16.128v21.663a0.129,0.129,0,0,1-.16.128h-2.816a0.408,0.408,0,0,0,0,.384h10.431Zm26.912-22.3a0.408,0.408,0,0,0,0-.384h-6.368a0.408,0.408,0,0,0,0,.384h2.816c0.128,0,.192.032,0.192,0.128v14.911l-9.567-14.847a0.9,0.9,0,0,0-.7-0.576h-7.776a0.292,0.292,0,0,0,0,.384h2.784c0.16,0,.192.032,0.192,0.128v21.663c0,0.1-.032.128-0.192,0.128h-2.784a0.292,0.292,0,0,0,0,.384H468.8a0.408,0.408,0,0,0,0-.384H465.98c-0.128,0-.16-0.032-0.16-0.128V862.537l14.623,22.4c0.1,0.128.416,0.095,0.416,0V862.345c0-.1.064-0.128,0.192-0.128h2.784Zm-84.367,60.607v-7.712a0.347,0.347,0,0,0-.352,0c0,3.264-2.272,7.424-7.072,7.424H389.26a0.129,0.129,0,0,1-.16-0.128V900.745a0.129,0.129,0,0,1,.16-0.128h2.816a0.408,0.408,0,0,0,0-.384H381.645a0.408,0.408,0,0,0,0,.384h2.816a0.129,0.129,0,0,1,.16.128v21.663a0.129,0.129,0,0,1-.16.128h-2.816a0.408,0.408,0,0,0,0,.384h17.727A0.085,0.085,0,0,0,399.468,922.824Zm26.079-11.232c0-6.591-4.64-11.9-10.367-11.9-5.984,0-10.335,5.536-10.335,11.9,0,6.56,4.639,11.872,10.335,11.872C420.907,923.464,425.547,918.152,425.547,911.592Zm-4.9,0c0,6.336-.576,8.768-2.047,10.3a4.442,4.442,0,0,1-3.424,1.216,4.3,4.3,0,0,1-3.36-1.216c-1.5-1.536-2.08-3.968-2.08-10.3,0-5.535.576-8.767,2.08-10.3a4.3,4.3,0,0,1,3.36-1.216,4.442,4.442,0,0,1,3.424,1.216C420.075,902.825,420.651,906.057,420.651,911.592Zm31.872-10.975a0.408,0.408,0,0,0,0-.384h-6.5a0.408,0.408,0,0,0,0,.384h2.88c0.192,0,.224.1-0.192,1.344l-5.376,15.583-6.976-16.8c-0.032-.1,0-0.128.128-0.128h3.264a0.408,0.408,0,0,0,0-.384H428.4a0.408,0.408,0,0,0,0,.384h2.912a0.213,0.213,0,0,1,.256.128l9.727,22.654a0.336,0.336,0,0,0,.416,0l7.36-21.438c0.447-1.216.544-1.344,0.767-1.344h2.688Zm21.92,22.207V915.4a0.347,0.347,0,0,0-.352,0c0,3.3-2.272,7.136-7.487,7.136h-3.168c-0.16,0-.224-0.032-0.224-0.128V911.464h0.736a4.229,4.229,0,0,1,4.192,4.32,0.291,0.291,0,0,0,.32,0v-9.023a0.291,0.291,0,0,0-.32,0,4.209,4.209,0,0,1-4.192,4.319h-0.736V900.745c0-.1.064-0.128,0.224-0.128h3.072c3.968,0,5.887,3.52,5.887,6.5a0.408,0.408,0,0,0,.384,0v-6.784c0-.032,0-0.1-0.128-0.1H455.789a0.408,0.408,0,0,0,0,.384H458.6c0.128,0,.192.032,0.192,0.128v21.663c0,0.1-.064.128-0.192,0.128h-2.815a0.408,0.408,0,0,0,0,.384h18.558A0.085,0.085,0,0,0,474.443,922.824Zm-146.165,28.1h1.7l0.821-6.282h1.28c1.7,0,3.08-.04,4.181-0.9a4.048,4.048,0,0,0,1.54-3.381,3.567,3.567,0,0,0-1.28-2.88c-1.08-.861-2.381-0.861-4.061-0.861h-2.3ZM331,943.138l0.68-4.981h1.24a4.071,4.071,0,0,1,2.18.38,2.067,2.067,0,0,1,.961,1.88A2.47,2.47,0,0,1,334.7,942.8a6.066,6.066,0,0,1-2.54.34H331Zm13.949,0.3,0.4-1.58a2.231,2.231,0,0,0-.9-0.2,3.162,3.162,0,0,0-2.621,1.74l0.24-1.42h-1.54l-1.18,8.942h1.52l0.56-4.221c0.32-2.361,1.081-3.521,2.481-3.521A2.284,2.284,0,0,1,344.948,943.438Zm1.919,3.381a4.237,4.237,0,0,0,4.5,4.481c2.92,0,5.021-2.141,5.021-5.362a4.273,4.273,0,0,0-4.481-4.28A5,5,0,0,0,346.867,946.819Zm4.961-3.9a3.044,3.044,0,0,1,3.02,3.3c0,2.24-1.44,3.84-3.38,3.84a3,3,0,0,1-3.041-3.28C348.427,944.518,349.887,942.918,351.828,942.918Zm14.179,8h2.62c2.161,0,3.7-.04,4.841-0.821a4.087,4.087,0,0,0,1.7-3.5,3.084,3.084,0,0,0-2.481-3.141,3.2,3.2,0,0,0,2.621-3.421,3.263,3.263,0,0,0-1.1-2.58c-0.92-.78-2.12-0.841-3.78-0.841h-2.541Zm1.88-1.521,0.68-5.141h1.48a4.671,4.671,0,0,1,2.381.4,2.125,2.125,0,0,1,1.04,1.941,2.551,2.551,0,0,1-1.46,2.44,8.015,8.015,0,0,1-3.121.36h-1Zm0.86-6.6,0.62-4.641h1.281a3.985,3.985,0,0,1,2.04.34,1.97,1.97,0,0,1,.94,1.78,2.318,2.318,0,0,1-1.32,2.2,5.979,5.979,0,0,1-2.421.32h-1.14Zm17.1-.82-0.24,1.8a3.246,3.246,0,0,0-3.261-2.12c-2.62,0-4.6,2.14-4.6,5.121,0,2.72,1.62,4.5,3.86,4.5a3.813,3.813,0,0,0,3.261-1.7l-0.22,1.341h1.56l1.181-8.942h-1.541Zm-3.7,7.881a2.816,2.816,0,0,1-2.82-3.08,3.436,3.436,0,0,1,3.381-3.741c1.48,0,2.56,1.18,2.56,3.041C385.268,948.3,383.828,949.859,382.147,949.859Zm7.379-.24a4.134,4.134,0,0,0,3.521,1.681c2.04,0,3.281-1.121,3.281-2.921,0-1.4-.741-1.94-2.221-2.581-1.12-.48-1.82-0.74-1.82-1.5a1.484,1.484,0,0,1,1.62-1.3,2.63,2.63,0,0,1,2.2,1.1l0.941-1.12a4,4,0,0,0-3.041-1.32,2.936,2.936,0,0,0-3.241,2.82c0,1.28.721,1.8,2.121,2.481,1.22,0.6,1.94.76,1.94,1.64,0,0.84-.68,1.42-1.82,1.42a2.861,2.861,0,0,1-2.481-1.58Zm12.1-3.761,1.321-10.082h-1.541l-2,15.144h1.54l0.64-4.741,3.641,4.741h2.041l-3.841-4.861,4.9-4.081h-2.161Zm15.221-.42h-5.541a3.067,3.067,0,0,1,3.081-2.52A2.288,2.288,0,0,1,416.847,945.438Zm1.481,1.281c0.02-.24.02-0.48,0.02-0.7,0-2.78-1.461-4.36-3.941-4.36a4.862,4.862,0,0,0-4.8,5.181,4.113,4.113,0,0,0,4.361,4.461,4.627,4.627,0,0,0,3.76-2.021l-1.08-.88a3.366,3.366,0,0,1-2.74,1.56c-1.681,0-2.741-1.16-2.741-3.08v-0.16h7.162Zm3.058,4.2h1.56l1-7.642h1.981l0.16-1.3h-1.961l0.48-3.6h-1.58l-0.46,3.6h-1.66l-0.18,1.3h1.66Zm7.8,0,0.22-1.741a3.272,3.272,0,0,0,3.26,2.121,4.237,4.237,0,0,0,3.421-1.681,5.608,5.608,0,0,0,1.16-3.36c0-2.821-1.6-4.581-3.88-4.581a3.842,3.842,0,0,0-3.221,1.7l1.02-7.6h-1.56l-2,15.144h1.581Zm3.66-7.782a2.789,2.789,0,0,1,2.821,3.061,3.436,3.436,0,0,1-3.381,3.74c-1.48,0-2.56-1.18-2.56-3.04C429.726,944.678,431.166,943.138,432.846,943.138Zm15.221-1.16-0.24,1.8a3.247,3.247,0,0,0-3.261-2.12c-2.621,0-4.6,2.14-4.6,5.121,0,2.72,1.62,4.5,3.861,4.5a3.816,3.816,0,0,0,3.261-1.7l-0.22,1.341h1.56l1.18-8.942h-1.54Zm-3.7,7.881a2.817,2.817,0,0,1-2.821-3.08,3.437,3.437,0,0,1,3.381-3.741c1.48,0,2.561,1.18,2.561,3.041C447.487,948.3,446.046,949.859,444.366,949.859Zm9.679,1.061,1.981-15.144h-1.561l-2,15.144h1.58Zm5.82,0,1.981-15.144h-1.561l-2,15.144h1.58Zm11.08,0h1.7l0.82-6.282h1.28c1.7,0,3.081-.04,4.181-0.9a4.046,4.046,0,0,0,1.541-3.381,3.565,3.565,0,0,0-1.281-2.88c-1.08-.861-2.38-0.861-4.06-0.861h-2.3Zm2.72-7.782,0.68-4.981h1.241a4.071,4.071,0,0,1,2.18.38,2.068,2.068,0,0,1,.96,1.88,2.471,2.471,0,0,1-1.36,2.381,6.069,6.069,0,0,1-2.541.34h-1.16Zm10.34,7.782,1.98-15.144h-1.56l-2,15.144h1.58Zm12.181-8.942-0.24,1.8a3.246,3.246,0,0,0-3.261-2.12c-2.62,0-4.6,2.14-4.6,5.121,0,2.72,1.621,4.5,3.861,4.5a3.813,3.813,0,0,0,3.261-1.7l-0.22,1.341h1.56l1.181-8.942h-1.541Zm-3.7,7.881a2.816,2.816,0,0,1-2.82-3.08,3.436,3.436,0,0,1,3.381-3.741c1.48,0,2.56,1.18,2.56,3.041C495.606,948.3,494.166,949.859,492.485,949.859Zm7.3,5.421h1.74l7.7-13.3h-1.78l-3.481,6.381-1.84-6.381h-1.661l2.441,7.961Zm18.062-9.842H512.3a3.069,3.069,0,0,1,3.081-2.52A2.288,2.288,0,0,1,517.846,945.438Zm1.48,1.281c0.02-.24.02-0.48,0.02-0.7,0-2.78-1.46-4.36-3.941-4.36a4.862,4.862,0,0,0-4.8,5.181,4.113,4.113,0,0,0,4.361,4.461,4.629,4.629,0,0,0,3.761-2.021l-1.08-.88a3.369,3.369,0,0,1-2.741,1.56c-1.68,0-2.741-1.16-2.741-3.08v-0.16h7.162Zm8.279-3.281,0.4-1.58a2.231,2.231,0,0,0-.9-0.2,3.159,3.159,0,0,0-2.62,1.74l0.24-1.42h-1.541L522,950.92h1.52l0.561-4.221c0.32-2.361,1.08-3.521,2.48-3.521A2.284,2.284,0,0,1,527.605,943.438Z"/>
  <path class="cls-1" d="M113,347.985h170.01V398H113V347.985Z"/>
  <path id="Shop_now" data-name="Shop now" class="cls-2" d="M153.109,367.985a4.912,4.912,0,0,0-3.1-1.077,3.29,3.29,0,0,0-2.586,1,3.422,3.422,0,0,0-.909,2.448,2.747,2.747,0,0,0,.627,1.893,3.472,3.472,0,0,0,1.457.864l0.862,0.31a5.036,5.036,0,0,1,1.223.6,0.976,0.976,0,0,1,.36.784,1.147,1.147,0,0,1-.376.881,1.624,1.624,0,0,1-1.1.375,2.356,2.356,0,0,1-1.316-.392,6.336,6.336,0,0,1-.972-0.832l-1.254,1.795a6.665,6.665,0,0,0,1.536,1.191,4.277,4.277,0,0,0,2.069.457,3.955,3.955,0,0,0,2.962-1.109,4,4,0,0,0,.925-2.693,2.777,2.777,0,0,0-.768-2.023,4.148,4.148,0,0,0-1.426-.832l-0.784-.31a4.142,4.142,0,0,1-1.317-.621,0.779,0.779,0,0,1-.235-0.6,0.994,0.994,0,0,1,.267-0.686,1.276,1.276,0,0,1,1.018-.375,2.493,2.493,0,0,1,1.756.783Zm7.3-.833H158v10.884h2.414v-4.618h4.169v4.618H167V367.152h-2.414V371.3h-4.169v-4.145Zm16.833-.244a5.5,5.5,0,0,0-4.091,1.6,6.21,6.21,0,0,0-1.614,4.128,5.52,5.52,0,0,0,5.705,5.646,5.464,5.464,0,0,0,4.044-1.6,5.961,5.961,0,0,0,0-8.192A5.466,5.466,0,0,0,177.246,366.908Zm-0.015,2.317a3.285,3.285,0,0,1,2.3.93,3.506,3.506,0,0,1,.909,2.448,3.329,3.329,0,0,1-.909,2.431,3.1,3.1,0,0,1-2.32.93,3.007,3.007,0,0,1-2.241-.9,3.317,3.317,0,0,1-.957-2.448,3.406,3.406,0,0,1,.925-2.464A3.139,3.139,0,0,1,177.231,369.225Zm10.234-2.073v10.884h2.414v-3.818h1.473a3.477,3.477,0,0,0,2.665-.963,3.577,3.577,0,0,0,.893-2.562,3.424,3.424,0,0,0-1.018-2.643,3.822,3.822,0,0,0-2.743-.9h-3.684Zm2.414,2.057h0.815a1.831,1.831,0,0,1,1.348.407,1.47,1.47,0,0,1,.392,1.061,1.552,1.552,0,0,1-.392,1.077,1.8,1.8,0,0,1-1.3.408h-0.862v-2.953Zm18.1,8.827v-7.049l5.674,7.049h2.1V367.152h-2.414v7.017l-5.674-7.017h-2.1v10.884h2.414Zm18.024-11.128a5.5,5.5,0,0,0-4.091,1.6,6.21,6.21,0,0,0-1.614,4.128,5.52,5.52,0,0,0,5.705,5.646,5.464,5.464,0,0,0,4.044-1.6,5.961,5.961,0,0,0,0-8.192A5.466,5.466,0,0,0,226.006,366.908Zm-0.015,2.317a3.285,3.285,0,0,1,2.3.93,3.506,3.506,0,0,1,.909,2.448,3.329,3.329,0,0,1-.909,2.431,3.1,3.1,0,0,1-2.32.93,3.007,3.007,0,0,1-2.241-.9,3.317,3.317,0,0,1-.957-2.448,3.406,3.406,0,0,1,.925-2.464A3.139,3.139,0,0,1,225.991,369.225Zm8.7-2.073,3.558,10.884h2.038l2.194-6.608,2.195,6.608h2.037l3.558-10.884h-2.508l-2.225,7.213-2.226-7.213h-1.661l-2.226,7.213-2.226-7.213h-2.508Z"/>
  <path class="cls-1" d="M121.629,312.785a8.694,8.694,0,0,0,6.919-8.743,8.313,8.313,0,0,0-2.44-6.006c-2.017-1.993-4.849-3-8.415-3-0.642,0-15.714.009-15.847,0.015a11.163,11.163,0,0,0-7.694,2.99,8.318,8.318,0,0,0-2.442,6.006,9.05,9.05,0,0,0,2.615,6.45,5.893,5.893,0,0,0,.767.623l-0.257.121A8.558,8.558,0,0,0,90,319.106a9.345,9.345,0,0,0,3.074,6.928c2.165,2.028,4.88,2.932,8.8,2.932h9.95V313.025H117.8l9.308,15.871,0.04,0.07h3.936l-9.634-16.139Zm-13.2,12.7h-7.191a8.255,8.255,0,0,1-5.946-2,6.115,6.115,0,0,1-1.9-4.411,5.848,5.848,0,0,1,1.695-4.055,6.835,6.835,0,0,1,3.822-1.916,7.07,7.07,0,0,1,1.055-.079h8.465v12.458Zm0-15.753c-2.712,0-7.656-.013-7.833-0.028a6.847,6.847,0,0,1-1.2-.208,5.805,5.805,0,0,1-1.084-.413,5.374,5.374,0,0,1-1.374-.983,5.818,5.818,0,0,1-1.7-4.109,5.088,5.088,0,0,1,.62-2.46,4.955,4.955,0,0,1,.935-1.2,5.4,5.4,0,0,1,1.323-1,6.244,6.244,0,0,1,.627-0.293c0.111-.044.222-0.086,0.337-0.124a7.02,7.02,0,0,1,.722-0.2c0.257-.058.523-0.108,0.789-0.145a12.041,12.041,0,0,1,1.31-.106l6.532-.008V309.73Zm3.395,0V298.453h6.052c2.567,0,4.342.6,5.592,1.88a4.962,4.962,0,0,1,1.549,3.656,5.817,5.817,0,0,1-1.7,4.109,5.95,5.95,0,0,1-4.3,1.632h-7.192Zm26.19-.03v-5.2H134.7v5.2h-5.157v3.345H134.7v5.2h3.318v-5.2h5.156V309.7h-5.156Zm18.794-11.327h4.528v12.049h3.309V298.373h4.528v-3.134H156.811v3.134Zm22.873-3.236h-2.836l-6.384,14.731-0.239.554h3.424l1.467-3.476h6.235l1.446,3.476h3.508l-6.518-15.049Zm0.411,8.777H176.37l1.856-4.363Zm10.584,6.508h3.29V295.239h-3.29v15.183Zm12.062-15.183H199.45v15.183h10.794v-3.093h-7.5v-12.09Zm17.795-.246a7.782,7.782,0,0,0-7.875,7.878,7.645,7.645,0,0,0,7.835,7.8,7.793,7.793,0,0,0,7.875-7.877A7.645,7.645,0,0,0,220.536,294.993Zm-0.04,3.114a4.509,4.509,0,0,1,4.462,4.764,4.46,4.46,0,0,1-4.422,4.685,4.52,4.52,0,0,1-4.462-4.766A4.458,4.458,0,0,1,220.5,298.107Zm24.615,2.072a4.778,4.778,0,0,0-1.3-3.387,6.1,6.1,0,0,0-4.393-1.553h-6.756v15.183h3.291V305.4H238.5l3.387,4.847,0.117,0.17h3.924l-3.986-5.639A4.634,4.634,0,0,0,245.111,300.179Zm-3.328.183c0,1.243-.975,2.013-2.548,2.013h-3.279v-4.041h3.258C240.387,298.334,241.783,298.686,241.783,300.362ZM250,310.422h3.291V295.239H250v15.183Zm18.74-5.991-7.009-9.123-0.053-.069h-2.909v15.183h3.251V300.94l7.235,9.412,0.053,0.07h2.681V295.239H268.74v9.192Zm14.829-2.838v2.989h3.65v2.1a5.523,5.523,0,0,1-3.057.9c-2.628,0-4.463-1.968-4.463-4.787a4.482,4.482,0,0,1,4.238-4.683,5.192,5.192,0,0,1,3.746,1.446l0.3,0.26,1.771-2.522-0.3-.251a7.307,7.307,0,0,0-5.416-2.047,7.723,7.723,0,0,0-7.754,7.878,7.538,7.538,0,0,0,7.793,7.8,8.523,8.523,0,0,0,5.888-2.336l0.135-.119v-6.619h-6.533Zm14.806,6.041h3.083v-3.555H305v-3.035h-3.542v-3.553h-3.083v3.553h-3.542v3.035h3.542v3.555Zm-136.721,9.019h-4.843v12.153h2.8v-3.638h1.817c2.934,0,4.906-1.733,4.906-4.313C166.334,318.3,164.5,316.653,161.654,316.653Zm-2.043,2.645h1.879a1.708,1.708,0,0,1,2.012,1.636c0,0.99-.771,1.6-2.012,1.6h-1.879V319.3Zm12.677,4.691h5.631v-2.613h-5.631v-2.11h6.354v-2.613h-9.156v12.153h9.234v-2.612h-6.432v-2.205Zm20.455-3.346a3.877,3.877,0,0,0-1.049-2.742,4.942,4.942,0,0,0-3.536-1.248h-5.419v12.153h2.8v-3.945h1.84l2.762,3.945h3.346l-3.177-4.487A3.735,3.735,0,0,0,192.743,320.643Zm-2.829.145c0,0.924-.71,1.475-1.9,1.475h-2.475V319.3H188C188.873,319.3,189.914,319.557,189.914,320.788Zm6.591,8.018h2.8V324.2h5.662v-2.645h-5.662V319.3h6.385v-2.645h-9.185v12.153Zm17.741-12.346a6.224,6.224,0,0,0-6.3,6.3A6.117,6.117,0,0,0,214.214,329a6.237,6.237,0,0,0,6.3-6.307A6.115,6.115,0,0,0,214.246,316.46Zm3.376,6.3a3.4,3.4,0,0,1-3.376,3.575,3.452,3.452,0,0,1-3.4-3.643,3.4,3.4,0,0,1,3.372-3.576,3.475,3.475,0,0,1,3.408,3.608v0.036Zm15.82-2.121a3.861,3.861,0,0,0-1.056-2.742,4.909,4.909,0,0,0-3.529-1.248h-5.42v12.153h2.8v-3.945h1.836l2.762,3.945h3.347l-3.177-4.487A3.736,3.736,0,0,0,233.442,320.643Zm-2.833.145c0,0.924-.711,1.475-1.9,1.475h-2.471V319.3H228.7C229.567,319.3,230.609,319.557,230.609,320.788Zm12.283,0.862-3.192-5h-2.741v12.153h2.766v-7.123l2.758,4.162,0.128,0.182h0.5l2.908-4.377v7.156h2.8V316.653h-2.741Zm16.4-5.08h-2.364L251.758,328.5l-0.13.3h2.93l1.149-2.732h4.759l1.142,2.732h3l-5.2-11.992Zm0.1,6.907h-2.6l1.3-3.052Zm15.86,0.2-5.277-6.854-0.123-.166h-2.444v12.153h2.766v-7.244l5.453,7.08,0.124,0.164h2.268V316.653h-2.767v7.02Zm15.385,1.309a4.01,4.01,0,0,1-2.943,1.357A3.405,3.405,0,0,1,284.4,322.7a3.368,3.368,0,0,1,3.294-3.576,4,4,0,0,1,2.865,1.3l0.314,0.282,1.811-2.09-0.289-.276a6.191,6.191,0,0,0-4.682-1.878A6.273,6.273,0,0,0,287.63,329a6.2,6.2,0,0,0,4.854-2.134l0.283-.291-1.84-1.875Zm7.932,1.212v-2.205H304.2v-2.613h-5.631v-2.11h6.354v-2.613h-9.156v12.153H305v-2.612h-6.432Z"/>
  <path id="RAPID_MOVEMENT_CHINO" data-name="RAPID MOVEMENT CHINO" class="cls-1" d="M98.035,143.643h12.6v-11.8l6.25,11.8h14.4l-9.551-14.551c4.15-.5,6.9-4.05,6.9-9.151,0-7.651-4.9-12.051-14.452-12.051H98.035v35.753Zm12.6-26.552h2c2.5,0,3.8,1.35,3.8,3.55s-1.35,3.45-3.8,3.45h-2v-7Zm28.448,26.552h13.8l1.1-4.5h9.7l1.15,4.5h13.8l-12.5-35.753h-14.3Zm17.051-13,1.1-4.05a36.276,36.276,0,0,0,1.45-7.851h0.251a36.276,36.276,0,0,0,1.45,7.851l1.1,4.05h-5.351Zm47.4-12.8h2c2.5,0,3.8,1.15,3.8,3s-1.3,2.95-3.8,2.95h-2v-5.95Zm-12.9,25.8h12.851V133.092h4.05c9.5,0,14.052-3.5,14.052-12.151,0-9.3-5.051-13.051-15.6-13.051H190.634v35.753Zm45.649,0h13.052V107.89H236.283v35.753Zm30,0h9.451c7.151,0,12.651-.35,17.3-3.55a17.54,17.54,0,0,0-2.2-29.953c-3.3-1.65-7.951-2.25-14.152-2.25h-10.4v35.753Zm12.752-10.9V118.891h0.55c5.2,0,7.8,2.2,7.8,6.9C287.385,130.642,284.735,132.642,279.035,132.742ZM49.2,203.643H61.8L56.153,167.89H42.9l-2.65,8.7a66.7,66.7,0,0,0-2.45,10.6H37.6a57.455,57.455,0,0,0-2.35-10.451L32.7,167.89H19.449l-6.1,35.753h12.6l1.55-14.151c0.2-1.9.35-4.1,0.55-6.551a53.161,53.161,0,0,0,1.6,6.951l4.1,13.751H41.4l4.1-13.751a53.162,53.162,0,0,0,1.6-6.951c0.25,2.9.4,5.1,0.55,6.551Zm59.35-17.8a18.37,18.37,0,0,0-5.4-13.352,20.083,20.083,0,0,0-27.4,0,19.142,19.142,0,0,0,0,26.653,19.949,19.949,0,0,0,27.353.05A18.213,18.213,0,0,0,108.552,185.842Zm-19.1,6.75c-3.5,0-6.051-2.6-6.051-6.75s2.55-6.8,6.051-6.8,6,2.65,6,6.8S92.951,192.592,89.45,192.592Zm42.121,11.051h11.951l13.6-35.753H143.472l-4,13.251a51.4,51.4,0,0,0-1.85,8.151h-0.25a41.055,41.055,0,0,0-1.751-8.451l-3.8-12.951h-13.9Zm37.149,0h24.2v-9.7h-11.6v-3.75h10.251v-9.151H181.321v-3.45h11.3v-9.7h-23.9v35.753Zm72.053,0h12.6l-5.651-35.753H234.472l-2.65,8.7a66.689,66.689,0,0,0-2.45,10.6h-0.2a57.53,57.53,0,0,0-2.351-10.451l-2.55-8.851H211.02l-6.1,35.753h12.6l1.551-14.151c0.2-1.9.35-4.1,0.55-6.551a53.163,53.163,0,0,0,1.6,6.951l4.1,13.751h7.651l4.1-13.751a53.163,53.163,0,0,0,1.6-6.951c0.251,2.9.4,5.1,0.551,6.551Zm26.146,0h24.2v-9.7h-11.6v-3.75h10.251v-9.151H279.521v-3.45h11.3v-9.7h-23.9v35.753Zm39.4,0h12.4v-12.9a36.553,36.553,0,0,0-.4-5.65l11,18.551h12.7V167.89h-12.4v13a36,36,0,0,0,.4,5.7l-11.1-18.7h-12.6v35.753Zm56.85,0H376.02V179.591h7.151v-11.7H356.018v11.7h7.151v24.052ZM119.687,242.091V228.84a20.644,20.644,0,0,0-8.4-1.8c-11.1,0-19.152,7.951-19.152,18.8a18.08,18.08,0,0,0,7.4,15.051,19.344,19.344,0,0,0,11.6,3.7,22.114,22.114,0,0,0,8.4-1.7l0.4-13.451c-2.85,2.1-5.3,3.3-7.951,3.3-4.2,0-6.75-2.8-6.75-6.9,0-4.351,2.85-7.1,7-7.1A10.513,10.513,0,0,1,119.687,242.091Zm15.647,21.552h12.851v-12.6h7.851v12.6h12.851V227.89H156.036v11.9h-7.851v-11.9H135.334v35.753Zm50.55,0h13.051V227.89H185.884v35.753Zm30,0h12.4v-12.9a36.553,36.553,0,0,0-.4-5.65l11,18.551h12.7V227.89h-12.4v13a36.011,36.011,0,0,0,.4,5.7l-11.1-18.7h-12.6v35.753Zm89.2-17.8a18.367,18.367,0,0,0-5.4-13.352,20.081,20.081,0,0,0-27.4,0,19.141,19.141,0,0,0,0,26.653,19.948,19.948,0,0,0,27.352.05A18.21,18.21,0,0,0,305.087,245.842Zm-19.1,6.75c-3.5,0-6.051-2.6-6.051-6.75s2.551-6.8,6.051-6.8,6,2.65,6,6.8S289.485,252.592,285.985,252.592Z"/>
  <path id="THE_NEW" data-name="THE NEW" class="cls-1" d="M126.708,82.155H133L135.205,70.2h3.552l0.96-5.209H126.228L125.244,70.2h3.672Zm16.536,0h6.216l1.152-6.169H154l-1.152,6.169h6.216l3.192-17.162h-6.24l-1.08,5.929h-3.385l1.081-5.929h-6.217Zm23.807,0h12.29l0.864-4.657h-6.1l0.336-1.848H179.7l0.792-4.344h-5.257l0.312-1.656h5.593l0.84-4.656H170.22Zm32.664,0H206l0.888-4.8a30.711,30.711,0,0,0,.552-4.056l3.168,8.857H216.9l3.168-17.162h-6.217L212.2,73.922a23.243,23.243,0,0,0-1.056-3.48l-1.968-5.449h-6.289Zm25.152,0h12.289L238.02,77.5h-6.1l0.336-1.848h5.256l0.792-4.344h-5.256l0.312-1.656h5.592l0.84-4.656H228.035Zm21.72,0h6.193l2.592-6.121a24.672,24.672,0,0,0,1.1-3.336l0.576,9.457h6.265l7.344-17.162h-6.528l-2.377,6.145a30.111,30.111,0,0,0-1.056,3.288l-0.6-9.433h-4.944l-3.745,9.529c0.048-.6.072-1.2,0.072-1.848q0-1.116-.072-2.376l-0.216-5.3h-5.976Z"/>
</svg>
