<svg xmlns="http://www.w3.org/2000/svg" width="640" height="1035"><defs><style>.cls-1{fill:#fff;fill-rule:evenodd}</style></defs><path id="_4_PRO_ATHLETES_ARE_READY_TO_SHOW_YOU_HOW." data-name="4 PRO ATHLETES ARE READY TO SHOW YOU HOW." class="cls-1" d="M76.763 509.1l1.392-2.112a13.2 13.2 0 0 0 1.176-2.136 10.581 10.581 0 0 0-.12 1.92v2.328h-2.448zm1.992 7.9h5.88v-3.408h1.848V509.1h-1.848v-9.264h-6.768L71.41 509.1v4.489h7.345V517zm31.535-12.385h.961c1.2 0 1.824.552 1.824 1.44s-.624 1.416-1.824 1.416h-.961v-2.856zM104.1 517h6.168v-5.064h1.945c4.56 0 6.744-1.681 6.744-5.833 0-4.464-2.424-6.264-7.488-6.264H104.1V517zm20.592 0h6.048v-5.665l3 5.665h6.912l-4.584-6.985c1.992-.24 3.312-1.944 3.312-4.392 0-3.672-2.352-5.784-6.937-5.784h-7.753V517zm6.048-12.745h.96a1.6 1.6 0 0 1 1.825 1.7 1.58 1.58 0 0 1-1.825 1.656h-.96v-3.36zm32.473 4.2a8.816 8.816 0 0 0-2.592-6.408 9.639 9.639 0 0 0-13.153 0 9.186 9.186 0 0 0 0 12.793 9.576 9.576 0 0 0 13.129.024 8.743 8.743 0 0 0 2.614-6.409zm-9.169 3.241a2.924 2.924 0 0 1-2.9-3.241c0-1.992 1.224-3.264 2.9-3.264s2.88 1.272 2.88 3.264-1.202 3.245-2.882 3.245zm24.911 5.3h6.624l.528-2.16h4.657l.552 2.16h6.624l-6-17.161h-6.865zm8.184-6.241l.528-1.944a17.4 17.4 0 0 0 .7-3.768h.12a17.4 17.4 0 0 0 .7 3.768l.529 1.944h-2.569zM203.7 517h6.168v-11.545h3.432v-5.616h-13.029v5.616h3.429V517zm15.192 0h6.168v-6.049h3.768V517H235v-17.161h-6.169v5.712h-3.768v-5.712H218.9V517zm22.944 0h12.169v-5.568h-6v-11.593h-6.168V517zm17.664 0h11.62v-4.656h-5.569v-1.8h4.92v-4.392h-4.92V504.5h5.425v-4.656H259.5V517zm19.92 0h6.168v-11.545h3.433v-5.616H275.99v5.616h3.433V517zm15.191 0h11.617v-4.656h-5.568v-1.8h4.92v-4.392h-4.92V504.5h5.424v-4.656h-11.47V517zm16.152-1.464a13.476 13.476 0 0 0 6.745 1.92c4.488 0 7.416-2.784 7.416-6.457a4.58 4.58 0 0 0-3.816-4.608c-2.04-.456-3.192-.576-3.192-1.416 0-.5.48-.816 1.344-.816a6.142 6.142 0 0 1 3.528 1.344l1.872-4.488a11.911 11.911 0 0 0-5.784-1.56c-4.368 0-7.177 2.64-7.177 6.24 0 2.5 1.488 4.1 4.417 4.728 1.416.312 2.28.408 2.28 1.2 0 .552-.48.888-1.368.888a8.014 8.014 0 0 1-4.3-1.777zM86.36 549h6.625l.528-2.16h4.656l.552 2.16h6.625l-6-17.162h-6.865zm8.185-6.241l.528-1.944a17.4 17.4 0 0 0 .7-3.768h.12a17.406 17.406 0 0 0 .7 3.768l.528 1.944h-2.576zM109.9 549h6.048v-5.665l3 5.665h6.912l-4.584-6.985c1.992-.24 3.312-1.944 3.312-4.392 0-3.672-2.352-5.785-6.936-5.785H109.9V549zm6.048-12.745h.961a1.6 1.6 0 0 1 1.824 1.7 1.58 1.58 0 0 1-1.824 1.656h-.961v-3.36zM130.688 549h11.617v-4.656h-5.569v-1.8h4.921v-4.392h-4.921V536.5h5.425v-4.657h-11.473V549zm29.543 0h6.049v-5.665l3 5.665h6.913l-4.585-6.985c1.992-.24 3.313-1.944 3.313-4.392 0-3.672-2.353-5.785-6.937-5.785h-7.753V549zm6.049-12.745h.96a1.6 1.6 0 0 1 1.824 1.7 1.58 1.58 0 0 1-1.824 1.656h-.96v-3.36zM181.015 549h11.617v-4.656h-5.568v-1.8h4.92v-4.392h-4.92V536.5h5.424v-4.657h-11.473V549zm15.432 0h6.624l.528-2.16h4.657l.552 2.16h6.624l-6-17.162h-6.865zm8.184-6.241l.528-1.944a17.331 17.331 0 0 0 .7-3.768h.12a17.4 17.4 0 0 0 .7 3.768l.528 1.944h-2.569zm15.36 6.241h4.536c3.432 0 6.073-.168 8.305-1.7a8.419 8.419 0 0 0-1.056-14.377c-1.584-.792-3.817-1.081-6.793-1.081h-4.992V549zm6.12-5.232v-6.649h.264c2.5 0 3.745 1.056 3.745 3.312 0 2.328-1.272 3.289-4.009 3.337zm18.8 5.232h6.217v-7.585l5.952-9.577h-6.98l-1.416 3.337a13.576 13.576 0 0 0-.528 1.416 13.728 13.728 0 0 0-.5-1.416l-1.441-3.337h-7.032l5.736 9.577V549zm30.144 0h6.168v-11.545h3.433v-5.617h-13.031v5.617h3.432V549zm32.929-8.545a8.816 8.816 0 0 0-2.592-6.408 9.636 9.636 0 0 0-13.153 0 9.189 9.189 0 0 0 0 12.793 9.576 9.576 0 0 0 13.129.024 8.743 8.743 0 0 0 2.618-6.409zm-9.169 3.241a2.924 2.924 0 0 1-2.9-3.241c0-1.992 1.224-3.264 2.9-3.264s2.881 1.272 2.881 3.264-1.196 3.245-2.879 3.245zM68.18 579.536a13.475 13.475 0 0 0 6.745 1.92c4.488 0 7.417-2.784 7.417-6.457a4.58 4.58 0 0 0-3.816-4.608c-2.04-.456-3.192-.576-3.192-1.416 0-.5.48-.816 1.344-.816a6.143 6.143 0 0 1 3.528 1.344l1.872-4.488a11.914 11.914 0 0 0-5.784-1.561c-4.368 0-7.177 2.641-7.177 6.241 0 2.5 1.488 4.1 4.416 4.728 1.416.312 2.28.408 2.28 1.2 0 .552-.48.888-1.368.888a8.01 8.01 0 0 1-4.3-1.777zM88 581h6.168v-6.049h3.768V581h6.169v-17.162h-6.164v5.713h-3.768v-5.713H88V581zm40.682-8.545a8.816 8.816 0 0 0-2.592-6.408 9.638 9.638 0 0 0-13.154 0 9.189 9.189 0 0 0 0 12.793 9.578 9.578 0 0 0 13.13.024 8.743 8.743 0 0 0 2.62-6.409zm-9.169 3.241a2.924 2.924 0 0 1-2.9-3.241c0-1.992 1.224-3.264 2.9-3.264s2.88 1.272 2.88 3.264-1.193 3.245-2.876 3.245zm25.368-3.385h.219a17.225 17.225 0 0 0 .48 2.833l1.3 5.856h5.376l5.017-17.162h-6.193l-1.344 7.561a23.363 23.363 0 0 0-.384 3.384h-.144a16.559 16.559 0 0 0-.408-2.928l-1.632-8.017h-4.344l-1.633 8.017a16.559 16.559 0 0 0-.408 2.928h-.144a23.363 23.363 0 0 0-.384-3.384l-1.344-7.561h-6.192L137.732 581h5.377l1.3-5.856a17.225 17.225 0 0 0 .476-2.833zM176.54 581h6.216v-7.585l5.953-9.577h-6.985l-1.416 3.337a13.576 13.576 0 0 0-.528 1.416 13.728 13.728 0 0 0-.5-1.416l-1.44-3.337h-7.04l5.737 9.577V581zm33.4-8.545a8.816 8.816 0 0 0-2.592-6.408 9.636 9.636 0 0 0-13.153 0 9.189 9.189 0 0 0 0 12.793 9.576 9.576 0 0 0 13.129.024 8.743 8.743 0 0 0 2.611-6.409zm-9.168 3.241a3.273 3.273 0 0 1 0-6.5c1.68 0 2.88 1.272 2.88 3.264s-1.205 3.24-2.885 3.24zm15.166-2.545a9.2 9.2 0 0 0 .985 4.993 7.893 7.893 0 0 0 6.888 3.312c3.1 0 5.593-1.248 6.889-3.312a9.2 9.2 0 0 0 1.008-4.993v-9.313h-6.169v9.362c0 1.8-.312 2.857-1.728 2.857-1.44 0-1.7-1.057-1.7-2.857v-9.361h-6.169v9.313zM250.325 581h6.169v-6.049h3.768V581h6.169v-17.162h-6.169v5.713h-3.768v-5.713h-6.169V581zm40.682-8.545a8.812 8.812 0 0 0-2.593-6.408 9.636 9.636 0 0 0-13.153 0 9.189 9.189 0 0 0 0 12.793 9.576 9.576 0 0 0 13.129.024 8.74 8.74 0 0 0 2.617-6.409zm-9.169 3.241a2.924 2.924 0 0 1-2.9-3.241c0-1.992 1.224-3.264 2.9-3.264s2.88 1.272 2.88 3.264-1.2 3.245-2.88 3.245zm25.368-3.385h.216a17.225 17.225 0 0 0 .48 2.833L309.2 581h5.376l5.017-17.162H313.4l-1.344 7.561a23.363 23.363 0 0 0-.384 3.384h-.144a16.559 16.559 0 0 0-.408-2.928l-1.632-8.017h-4.345l-1.632 8.017a16.559 16.559 0 0 0-.408 2.928h-.144a23.363 23.363 0 0 0-.384-3.384l-1.344-7.561h-6.192L300.053 581h5.376l1.3-5.856a17.225 17.225 0 0 0 .477-2.833zm13.2 6.241a3.386 3.386 0 1 0 3.337-2.808 3.084 3.084 0 0 0-3.343 2.808z"/><path class="cls-1" d="M353 1002h151.01v3H353v-3z"/><path id="SHOP_the_look" data-name="SHOP the look" class="cls-1" d="M358.384 981.985a4.932 4.932 0 0 0-3.11-1.077 3.3 3.3 0 0 0-2.592 1 3.419 3.419 0 0 0-.911 2.448 2.743 2.743 0 0 0 .628 1.893 3.5 3.5 0 0 0 1.461.864l.864.31a5.066 5.066 0 0 1 1.225.6.975.975 0 0 1 .362.783 1.148 1.148 0 0 1-.377.882 1.633 1.633 0 0 1-1.1.375 2.371 2.371 0 0 1-1.32-.392 6.438 6.438 0 0 1-.973-.832l-1.257 1.8a6.682 6.682 0 0 0 1.539 1.191 4.3 4.3 0 0 0 2.074.457 3.525 3.525 0 0 0 3.895-3.8 2.775 2.775 0 0 0-.769-2.023 4.155 4.155 0 0 0-1.43-.832l-.785-.311a4.138 4.138 0 0 1-1.32-.62.775.775 0 0 1-.235-.6 1 1 0 0 1 .267-.686 1.282 1.282 0 0 1 1.021-.375 2.5 2.5 0 0 1 1.759.783zm7.4-.833h-2.419v10.884h2.419v-4.618h4.178v4.618h2.419v-10.884h-2.419v4.148h-4.178v-4.145zm16.95-.244a5.51 5.51 0 0 0-4.1 1.6 6.2 6.2 0 0 0-1.618 4.128 5.525 5.525 0 0 0 5.717 5.646 5.482 5.482 0 0 0 4.053-1.6 5.949 5.949 0 0 0 0-8.191 5.48 5.48 0 0 0-4.052-1.583zm-.015 2.317a3.3 3.3 0 0 1 2.309.93 3.5 3.5 0 0 1 .911 2.448 3.325 3.325 0 0 1-.911 2.431 3.113 3.113 0 0 1-2.325.93 3.016 3.016 0 0 1-2.246-.9 3.315 3.315 0 0 1-.959-2.448 3.4 3.4 0 0 1 .927-2.464 3.156 3.156 0 0 1 2.294-.927zm10.337-2.073v10.884h2.42v-3.818h1.476a3.487 3.487 0 0 0 2.67-.963 3.572 3.572 0 0 0 .9-2.562 3.42 3.42 0 0 0-1.021-2.643 3.836 3.836 0 0 0-2.749-.9h-3.692zm2.42 2.056h.816a1.837 1.837 0 0 1 1.351.408 1.466 1.466 0 0 1 .393 1.061 1.548 1.548 0 0 1-.393 1.077 1.8 1.8 0 0 1-1.3.408h-.863v-2.954zm21.836.066v-2.122h-6.975v2.122h2.278v8.762h2.419v-8.762h2.278zm6.52-2.122h-2.419v10.884h2.419v-4.618h4.178v4.618h2.419v-10.884h-2.419v4.148h-4.178v-4.145zm17.641 0h-5.922v10.884h5.922v-2.121h-3.5V987.5h3.33v-2.121h-3.33v-2.105h3.5v-2.122zm11.281 0v10.884h5.67v-2.121h-3.251v-8.763h-2.419zm14.767-.244a5.512 5.512 0 0 0-4.1 1.6 6.2 6.2 0 0 0-1.618 4.128 5.527 5.527 0 0 0 5.718 5.646 5.481 5.481 0 0 0 4.052-1.6 5.949 5.949 0 0 0 0-8.191 5.48 5.48 0 0 0-4.052-1.583zm-.016 2.317a3.294 3.294 0 0 1 2.309.93 3.5 3.5 0 0 1 .911 2.448 3.325 3.325 0 0 1-.911 2.431 3.113 3.113 0 0 1-2.325.93 3.016 3.016 0 0 1-2.246-.9 3.314 3.314 0 0 1-.958-2.448 3.4 3.4 0 0 1 .927-2.464 3.152 3.152 0 0 1 2.293-.927zm15.569-2.317a5.512 5.512 0 0 0-4.1 1.6 6.2 6.2 0 0 0-1.618 4.128 5.525 5.525 0 0 0 5.718 5.646 5.481 5.481 0 0 0 4.052-1.6 5.949 5.949 0 0 0 0-8.191 5.48 5.48 0 0 0-4.052-1.583zm-.016 2.317a3.294 3.294 0 0 1 2.309.93 3.5 3.5 0 0 1 .911 2.448 3.325 3.325 0 0 1-.911 2.431 3.113 3.113 0 0 1-2.325.93 3.016 3.016 0 0 1-2.246-.9 3.314 3.314 0 0 1-.958-2.448 3.4 3.4 0 0 1 .926-2.464 3.156 3.156 0 0 1 2.294-.927zm12.757-2.073H493.4v10.884h2.419v-4.83l3.754 4.83h3.11l-4.571-5.727 4.241-5.157H499.4l-3.581 4.537v-4.537z"/><path id="KEVIN_LOVE_Pro_Basketball_Player" data-name="KEVIN LOVE Pro Basketball Player" class="cls-1" d="M395.931 884.52a.292.292 0 0 0 0-.384h-3.008a.771.771 0 0 1-.288-.1l-9.887-13.823 5.7-6.656c1.088-1.216 1.184-1.344 1.44-1.344h2.527a.757.757 0 0 0 0-.384h-6.239a.408.408 0 0 0 0 .384h2.656c.192 0 .256.1-.864 1.344l-8.128 9.535v-10.747a.129.129 0 0 1 .16-.128h2.816a.408.408 0 0 0 0-.384h-10.435a.408.408 0 0 0 0 .384h2.819a.129.129 0 0 1 .16.128v21.663a.129.129 0 0 1-.16.128h-2.816a.408.408 0 0 0 0 .384h10.431a.408.408 0 0 0 0-.384H380a.129.129 0 0 1-.16-.128v-10.72l7.52 10.752c.032.032 0 .1-.128.1h-3.04a.408.408 0 0 0 0 .384h11.743zm20.224-.1V877a.347.347 0 0 0-.352 0c0 3.3-2.272 7.136-7.487 7.136h-3.168c-.16 0-.224-.032-.224-.128v-10.944h.736a4.229 4.229 0 0 1 4.192 4.32.291.291 0 0 0 .32 0v-9.023a.291.291 0 0 0-.32 0 4.209 4.209 0 0 1-4.192 4.319h-.736v-10.335c0-.1.064-.128.224-.128h3.072c3.968 0 5.887 3.52 5.887 6.5a.408.408 0 0 0 .384 0v-6.784c0-.032 0-.1-.128-.1H397.5a.408.408 0 0 0 0 .384h2.815c.128 0 .192.032.192.128v21.663c0 .1-.064.128-.192.128H397.5a.408.408 0 0 0 0 .384h18.558a.085.085 0 0 0 .097-.096zm27.04-22.207a.408.408 0 0 0 0-.384h-6.5a.408.408 0 0 0 0 .384h2.88c.192 0 .224.1-.192 1.344l-5.375 15.583-6.976-16.8c-.032-.1 0-.128.128-.128h3.264a.408.408 0 0 0 0-.384h-11.355a.408.408 0 0 0 0 .384h2.911a.213.213 0 0 1 .256.128l9.728 22.66a.336.336 0 0 0 .416 0l7.359-21.438c.448-1.216.544-1.344.768-1.344h2.693zm13.728 22.3a.408.408 0 0 0 0-.384h-2.815c-.128 0-.192-.032-.192-.128v-21.656c0-.1.064-.128.192-.128h2.815a.408.408 0 0 0 0-.384h-10.431a.408.408 0 0 0 0 .384h2.816a.129.129 0 0 1 .16.128v21.663a.129.129 0 0 1-.16.128h-2.816a.408.408 0 0 0 0 .384h10.431zm26.912-22.3a.408.408 0 0 0 0-.384h-6.368a.408.408 0 0 0 0 .384h2.816c.128 0 .192.032.192.128v14.911l-9.567-14.847a.9.9 0 0 0-.7-.576h-7.776a.292.292 0 0 0 0 .384h2.784c.16 0 .192.032.192.128v21.663c0 .1-.032.128-.192.128h-2.784a.292.292 0 0 0 0 .384h6.368a.408.408 0 0 0 0-.384h-2.82c-.128 0-.16-.032-.16-.128v-21.467l14.623 22.4c.1.128.416.095.416 0v-22.592c0-.1.064-.128.192-.128h2.784zm-84.367 60.607v-7.712a.347.347 0 0 0-.352 0c0 3.264-2.272 7.424-7.072 7.424h-2.784a.129.129 0 0 1-.16-.128v-21.659a.129.129 0 0 1 .16-.128h2.816a.408.408 0 0 0 0-.384h-10.431a.408.408 0 0 0 0 .384h2.816a.129.129 0 0 1 .16.128v21.663a.129.129 0 0 1-.16.128h-2.816a.408.408 0 0 0 0 .384h17.727a.085.085 0 0 0 .096-.096zm26.079-11.232c0-6.591-4.64-11.9-10.367-11.9-5.984 0-10.335 5.536-10.335 11.9 0 6.56 4.639 11.872 10.335 11.872 5.727.004 10.367-5.308 10.367-11.868zm-4.9 0c0 6.336-.576 8.768-2.047 10.3a4.442 4.442 0 0 1-3.424 1.216 4.3 4.3 0 0 1-3.36-1.216c-1.5-1.536-2.08-3.968-2.08-10.3 0-5.535.576-8.767 2.08-10.3a4.3 4.3 0 0 1 3.36-1.216 4.442 4.442 0 0 1 3.424 1.216c1.475 1.537 2.051 4.769 2.051 10.304zm31.872-10.975a.408.408 0 0 0 0-.384h-6.5a.408.408 0 0 0 0 .384h2.88c.192 0 .224.1-.192 1.344l-5.376 15.583-6.976-16.8c-.032-.1 0-.128.128-.128h3.264a.408.408 0 0 0 0-.384H428.4a.408.408 0 0 0 0 .384h2.912a.213.213 0 0 1 .256.128l9.727 22.654a.336.336 0 0 0 .416 0l7.36-21.438c.447-1.216.544-1.344.767-1.344h2.688zm21.92 22.207v-7.42a.347.347 0 0 0-.352 0c0 3.3-2.272 7.136-7.487 7.136h-3.168c-.16 0-.224-.032-.224-.128v-10.944h.736a4.229 4.229 0 0 1 4.192 4.32.291.291 0 0 0 .32 0v-9.023a.291.291 0 0 0-.32 0 4.209 4.209 0 0 1-4.192 4.319h-.736v-10.335c0-.1.064-.128.224-.128h3.072c3.968 0 5.887 3.52 5.887 6.5a.408.408 0 0 0 .384 0v-6.784c0-.032 0-.1-.128-.1h-16.858a.408.408 0 0 0 0 .384h2.811c.128 0 .192.032.192.128v21.663c0 .1-.064.128-.192.128h-2.815a.408.408 0 0 0 0 .384h18.558a.085.085 0 0 0 .1-.096zm-146.165 28.1h1.7l.821-6.282h1.28c1.7 0 3.08-.04 4.181-.9a4.048 4.048 0 0 0 1.54-3.381 3.567 3.567 0 0 0-1.28-2.88c-1.08-.861-2.381-.861-4.061-.861h-2.3zm2.726-7.782l.68-4.981h1.24a4.071 4.071 0 0 1 2.18.38 2.067 2.067 0 0 1 .961 1.88 2.47 2.47 0 0 1-1.361 2.383 6.066 6.066 0 0 1-2.54.34H331zm13.949.3l.4-1.58a2.231 2.231 0 0 0-.9-.2 3.162 3.162 0 0 0-2.621 1.74l.24-1.42h-1.54l-1.18 8.942h1.52l.56-4.221c.32-2.361 1.081-3.521 2.481-3.521a2.284 2.284 0 0 1 1.039.26zm1.919 3.381a4.237 4.237 0 0 0 4.5 4.481c2.92 0 5.021-2.141 5.021-5.362a4.273 4.273 0 0 0-4.481-4.28 5 5 0 0 0-5.041 5.161zm4.961-3.9a3.044 3.044 0 0 1 3.02 3.3c0 2.24-1.44 3.84-3.38 3.84a3 3 0 0 1-3.041-3.28c-.001-2.261 1.459-3.861 3.4-3.861zm14.179 8h2.62c2.161 0 3.7-.04 4.841-.821a4.087 4.087 0 0 0 1.7-3.5 3.084 3.084 0 0 0-2.481-3.141 3.2 3.2 0 0 0 2.621-3.421 3.263 3.263 0 0 0-1.1-2.58c-.92-.78-2.12-.841-3.78-.841h-2.541zm1.88-1.521l.68-5.141h1.48a4.671 4.671 0 0 1 2.381.4 2.125 2.125 0 0 1 1.04 1.941 2.551 2.551 0 0 1-1.46 2.44 8.015 8.015 0 0 1-3.121.36h-1zm.86-6.6l.62-4.641h1.281a3.985 3.985 0 0 1 2.04.34 1.97 1.97 0 0 1 .94 1.78 2.318 2.318 0 0 1-1.32 2.2 5.979 5.979 0 0 1-2.421.32h-1.14zm17.1-.82l-.24 1.8a3.246 3.246 0 0 0-3.261-2.12c-2.62 0-4.6 2.14-4.6 5.121 0 2.72 1.62 4.5 3.86 4.5a3.813 3.813 0 0 0 3.261-1.7l-.22 1.341h1.56l1.181-8.942h-1.541zm-3.7 7.881a2.816 2.816 0 0 1-2.82-3.08 3.436 3.436 0 0 1 3.381-3.741c1.48 0 2.56 1.18 2.56 3.041-.001 2.221-1.441 3.78-3.122 3.78zm7.379-.24a4.134 4.134 0 0 0 3.521 1.681c2.04 0 3.281-1.121 3.281-2.921 0-1.4-.741-1.94-2.221-2.581-1.12-.48-1.82-.74-1.82-1.5a1.484 1.484 0 0 1 1.62-1.3 2.63 2.63 0 0 1 2.2 1.1l.941-1.12a4 4 0 0 0-3.041-1.32 2.936 2.936 0 0 0-3.241 2.82c0 1.28.721 1.8 2.121 2.481 1.22.6 1.94.76 1.94 1.64 0 .84-.68 1.42-1.82 1.42a2.861 2.861 0 0 1-2.481-1.58zm12.1-3.761l1.321-10.082h-1.541l-2 15.144h1.54l.64-4.741 3.641 4.741h2.041l-3.841-4.861 4.9-4.081h-2.161zm15.221-.42h-5.541a3.067 3.067 0 0 1 3.081-2.52 2.288 2.288 0 0 1 2.459 2.52zm1.481 1.281c.02-.24.02-.48.02-.7 0-2.78-1.461-4.36-3.941-4.36a4.862 4.862 0 0 0-4.8 5.181 4.113 4.113 0 0 0 4.361 4.461 4.627 4.627 0 0 0 3.76-2.021l-1.08-.88a3.366 3.366 0 0 1-2.74 1.56c-1.681 0-2.741-1.16-2.741-3.08v-.16h7.162zm3.058 4.2h1.56l1-7.642h1.981l.16-1.3h-1.961l.48-3.6h-1.58l-.46 3.6h-1.66l-.18 1.3h1.66zm7.8 0l.22-1.741a3.272 3.272 0 0 0 3.26 2.121 4.237 4.237 0 0 0 3.421-1.681 5.608 5.608 0 0 0 1.16-3.36c0-2.821-1.6-4.581-3.88-4.581a3.842 3.842 0 0 0-3.221 1.7l1.02-7.6h-1.56l-2 15.144h1.581zm3.66-7.782a2.789 2.789 0 0 1 2.821 3.061 3.436 3.436 0 0 1-3.381 3.74c-1.48 0-2.56-1.18-2.56-3.04-.001-2.22 1.439-3.76 3.119-3.76zm15.221-1.16l-.24 1.8a3.247 3.247 0 0 0-3.261-2.12c-2.621 0-4.6 2.14-4.6 5.121 0 2.72 1.62 4.5 3.861 4.5a3.816 3.816 0 0 0 3.261-1.7l-.22 1.341h1.56l1.18-8.942h-1.54zm-3.7 7.881a2.817 2.817 0 0 1-2.821-3.08 3.437 3.437 0 0 1 3.381-3.741c1.48 0 2.561 1.18 2.561 3.041-.002 2.222-1.443 3.781-3.123 3.781zm9.679 1.061l1.981-15.144h-1.561l-2 15.144h1.58zm5.82 0l1.981-15.144h-1.561l-2 15.144h1.58zm11.08 0h1.7l.82-6.282h1.28c1.7 0 3.081-.04 4.181-.9a4.046 4.046 0 0 0 1.541-3.381 3.565 3.565 0 0 0-1.281-2.88c-1.08-.861-2.38-.861-4.06-.861h-2.3zm2.72-7.782l.68-4.981h1.241a4.071 4.071 0 0 1 2.18.38 2.068 2.068 0 0 1 .96 1.88 2.471 2.471 0 0 1-1.36 2.381 6.069 6.069 0 0 1-2.541.34h-1.16zm10.34 7.782l1.98-15.144h-1.56l-2 15.144h1.58zm12.181-8.942l-.24 1.8a3.246 3.246 0 0 0-3.261-2.12c-2.62 0-4.6 2.14-4.6 5.121 0 2.72 1.621 4.5 3.861 4.5a3.813 3.813 0 0 0 3.261-1.7l-.22 1.341h1.56l1.181-8.942h-1.541zm-3.7 7.881a2.816 2.816 0 0 1-2.82-3.08 3.436 3.436 0 0 1 3.381-3.741c1.48 0 2.56 1.18 2.56 3.041-.003 2.222-1.443 3.781-3.124 3.781zm7.3 5.421h1.74l7.7-13.3h-1.78l-3.481 6.381-1.84-6.381h-1.661l2.441 7.961zm18.062-9.842h-5.55a3.069 3.069 0 0 1 3.081-2.52 2.288 2.288 0 0 1 2.465 2.521zm1.48 1.281c.02-.24.02-.48.02-.7 0-2.78-1.46-4.36-3.941-4.36a4.862 4.862 0 0 0-4.8 5.181 4.113 4.113 0 0 0 4.361 4.461 4.629 4.629 0 0 0 3.761-2.021l-1.08-.88a3.369 3.369 0 0 1-2.741 1.56c-1.68 0-2.741-1.16-2.741-3.08v-.16h7.162zm8.279-3.281l.4-1.58a2.231 2.231 0 0 0-.9-.2 3.159 3.159 0 0 0-2.62 1.74l.24-1.42h-1.541L522 950.92h1.52l.561-4.221c.32-2.361 1.08-3.521 2.48-3.521a2.284 2.284 0 0 1 1.044.26z"/><path class="cls-1" d="M113 347.985h170.01V398H113v-50.015z"/><path id="Shop_now" data-name="Shop now" d="M153.109 367.985a4.912 4.912 0 0 0-3.1-1.077 3.29 3.29 0 0 0-2.586 1 3.422 3.422 0 0 0-.909 2.448 2.747 2.747 0 0 0 .627 1.893 3.472 3.472 0 0 0 1.457.864l.862.31a5.036 5.036 0 0 1 1.223.6.976.976 0 0 1 .36.784 1.147 1.147 0 0 1-.376.881 1.624 1.624 0 0 1-1.1.375 2.356 2.356 0 0 1-1.316-.392 6.336 6.336 0 0 1-.972-.832l-1.254 1.795a6.665 6.665 0 0 0 1.536 1.191 4.277 4.277 0 0 0 2.069.457 3.955 3.955 0 0 0 2.962-1.109 4 4 0 0 0 .925-2.693 2.777 2.777 0 0 0-.768-2.023 4.148 4.148 0 0 0-1.426-.832l-.784-.31a4.142 4.142 0 0 1-1.317-.621.779.779 0 0 1-.235-.6.994.994 0 0 1 .267-.686 1.276 1.276 0 0 1 1.018-.375 2.493 2.493 0 0 1 1.756.783zm7.3-.833H158v10.884h2.414v-4.618h4.169v4.618H167v-10.884h-2.414v4.148h-4.169v-4.145zm16.833-.244a5.5 5.5 0 0 0-4.091 1.6 6.21 6.21 0 0 0-1.614 4.128 5.52 5.52 0 0 0 5.705 5.646 5.464 5.464 0 0 0 4.044-1.6 5.961 5.961 0 0 0 0-8.192 5.466 5.466 0 0 0-4.04-1.582zm-.015 2.317a3.285 3.285 0 0 1 2.3.93 3.506 3.506 0 0 1 .909 2.448 3.329 3.329 0 0 1-.909 2.431 3.1 3.1 0 0 1-2.32.93 3.007 3.007 0 0 1-2.241-.9 3.317 3.317 0 0 1-.957-2.448 3.406 3.406 0 0 1 .925-2.464 3.139 3.139 0 0 1 2.297-.927zm10.234-2.073v10.884h2.414v-3.818h1.473a3.477 3.477 0 0 0 2.665-.963 3.577 3.577 0 0 0 .893-2.562 3.424 3.424 0 0 0-1.018-2.643 3.822 3.822 0 0 0-2.743-.9h-3.684zm2.414 2.057h.815a1.831 1.831 0 0 1 1.348.407 1.47 1.47 0 0 1 .392 1.061 1.552 1.552 0 0 1-.392 1.077 1.8 1.8 0 0 1-1.3.408h-.862v-2.953zm18.1 8.827v-7.049l5.674 7.049h2.1v-10.884h-2.414v7.017l-5.674-7.017h-2.1v10.884h2.414zm18.024-11.128a5.5 5.5 0 0 0-4.091 1.6 6.21 6.21 0 0 0-1.614 4.128 5.52 5.52 0 0 0 5.705 5.646 5.464 5.464 0 0 0 4.044-1.6 5.961 5.961 0 0 0 0-8.192 5.466 5.466 0 0 0-4.037-1.582zm-.015 2.317a3.285 3.285 0 0 1 2.3.93 3.506 3.506 0 0 1 .909 2.448 3.329 3.329 0 0 1-.909 2.431 3.1 3.1 0 0 1-2.32.93 3.007 3.007 0 0 1-2.241-.9 3.317 3.317 0 0 1-.957-2.448 3.406 3.406 0 0 1 .925-2.464 3.139 3.139 0 0 1 2.3-.927zm8.7-2.073l3.558 10.884h2.038l2.194-6.608 2.195 6.608h2.037l3.558-10.884h-2.508l-2.225 7.213-2.226-7.213h-1.661l-2.226 7.213-2.226-7.213h-2.508z" fill-rule="evenodd"/><path class="cls-1" d="M121.629 312.785a8.694 8.694 0 0 0 6.919-8.743 8.313 8.313 0 0 0-2.44-6.006c-2.017-1.993-4.849-3-8.415-3-.642 0-15.714.009-15.847.015a11.163 11.163 0 0 0-7.694 2.99 8.318 8.318 0 0 0-2.442 6.006 9.05 9.05 0 0 0 2.615 6.45 5.893 5.893 0 0 0 .767.623l-.257.121A8.558 8.558 0 0 0 90 319.106a9.345 9.345 0 0 0 3.074 6.928c2.165 2.028 4.88 2.932 8.8 2.932h9.95v-15.941h5.976l9.308 15.871.04.07h3.936l-9.634-16.139zm-13.2 12.7h-7.191a8.255 8.255 0 0 1-5.946-2 6.115 6.115 0 0 1-1.9-4.411 5.848 5.848 0 0 1 1.695-4.055 6.835 6.835 0 0 1 3.822-1.916 7.07 7.07 0 0 1 1.055-.079h8.465v12.458zm0-15.753c-2.712 0-7.656-.013-7.833-.028a6.847 6.847 0 0 1-1.2-.208 5.805 5.805 0 0 1-1.084-.413 5.374 5.374 0 0 1-1.374-.983 5.818 5.818 0 0 1-1.7-4.109 5.088 5.088 0 0 1 .62-2.46 4.955 4.955 0 0 1 .935-1.2 5.4 5.4 0 0 1 1.323-1 6.244 6.244 0 0 1 .627-.293 6.13 6.13 0 0 1 .337-.124 7.02 7.02 0 0 1 .722-.2c.257-.058.523-.108.789-.145a12.041 12.041 0 0 1 1.31-.106l6.532-.008v11.275zm3.395 0v-11.279h6.052c2.567 0 4.342.6 5.592 1.88a4.962 4.962 0 0 1 1.549 3.656 5.817 5.817 0 0 1-1.7 4.109 5.95 5.95 0 0 1-4.3 1.632h-7.192zm26.19-.03v-5.2H134.7v5.2h-5.157v3.345h5.157v5.2h3.318v-5.2h5.156V309.7h-5.156zm18.794-11.327h4.528v12.049h3.309v-12.051h4.528v-3.134h-12.362v3.134zm22.873-3.236h-2.836l-6.384 14.731-.239.554h3.424l1.467-3.476h6.235l1.446 3.476h3.508l-6.518-15.049zm.411 8.777h-3.722l1.856-4.363zm10.584 6.508h3.29v-15.185h-3.29v15.183zm12.062-15.183h-3.288v15.183h10.794v-3.093h-7.5v-12.09zm17.795-.246a7.782 7.782 0 0 0-7.875 7.878 7.645 7.645 0 0 0 7.835 7.8 7.793 7.793 0 0 0 7.875-7.877 7.645 7.645 0 0 0-7.832-7.803zm-.04 3.114a4.509 4.509 0 0 1 4.462 4.764 4.46 4.46 0 0 1-4.422 4.685 4.52 4.52 0 0 1-4.462-4.766 4.458 4.458 0 0 1 4.429-4.685zm24.615 2.072a4.778 4.778 0 0 0-1.3-3.387 6.1 6.1 0 0 0-4.393-1.553h-6.756v15.183h3.291V305.4h2.55l3.387 4.847.117.17h3.924l-3.986-5.639a4.634 4.634 0 0 0 3.169-4.599zm-3.328.183c0 1.243-.975 2.013-2.548 2.013h-3.279v-4.041h3.258c1.176-.002 2.572.35 2.572 2.026zm8.22 10.058h3.291v-15.183H250v15.183zm18.74-5.991l-7.009-9.123-.053-.069h-2.909v15.183h3.251v-9.482l7.235 9.412.053.07h2.681v-15.183h-3.249v9.192zm14.829-2.838v2.989h3.65v2.1a5.523 5.523 0 0 1-3.057.9c-2.628 0-4.463-1.968-4.463-4.787a4.482 4.482 0 0 1 4.238-4.683 5.192 5.192 0 0 1 3.746 1.446l.3.26 1.771-2.522-.3-.251a7.307 7.307 0 0 0-5.416-2.047 7.723 7.723 0 0 0-7.754 7.878 7.538 7.538 0 0 0 7.793 7.8 8.523 8.523 0 0 0 5.888-2.336l.135-.119v-6.619h-6.533zm14.806 6.041h3.083v-3.555H305v-3.035h-3.542v-3.553h-3.083v3.553h-3.542v3.035h3.542v3.555zm-136.721 9.019h-4.843v12.153h2.8v-3.638h1.817c2.934 0 4.906-1.733 4.906-4.313 0-2.555-1.834-4.202-4.68-4.202zm-2.043 2.645h1.879a1.708 1.708 0 0 1 2.012 1.636c0 .99-.771 1.6-2.012 1.6h-1.879V319.3zm12.677 4.691h5.631v-2.613h-5.631v-2.11h6.354v-2.613h-9.156v12.153h9.234v-2.612h-6.432v-2.205zm20.455-3.346a3.877 3.877 0 0 0-1.049-2.742 4.942 4.942 0 0 0-3.536-1.248h-5.419v12.153h2.8v-3.945h1.84l2.762 3.945h3.346l-3.177-4.487a3.735 3.735 0 0 0 2.433-3.676zm-2.829.145c0 .924-.71 1.475-1.9 1.475h-2.475V319.3H188c.873 0 1.914.257 1.914 1.488zm6.591 8.018h2.8V324.2h5.662v-2.645h-5.662V319.3h6.385v-2.645h-9.185v12.153zm17.741-12.346a6.224 6.224 0 0 0-6.3 6.3 6.117 6.117 0 0 0 6.268 6.24 6.237 6.237 0 0 0 6.3-6.307 6.115 6.115 0 0 0-6.268-6.233zm3.376 6.3a3.4 3.4 0 0 1-3.376 3.575 3.452 3.452 0 0 1-3.4-3.643 3.4 3.4 0 0 1 3.372-3.576 3.475 3.475 0 0 1 3.408 3.608v.036zm15.82-2.121a3.861 3.861 0 0 0-1.056-2.742 4.909 4.909 0 0 0-3.529-1.248h-5.42v12.153h2.8v-3.945h1.836l2.762 3.945h3.347l-3.177-4.487a3.736 3.736 0 0 0 2.437-3.672zm-2.833.145c0 .924-.711 1.475-1.9 1.475h-2.471V319.3h2.462c.867 0 1.909.257 1.909 1.488zm12.283.862l-3.192-5h-2.741v12.153h2.766v-7.123l2.758 4.162.128.182h.5l2.908-4.377v7.156h2.8v-12.146h-2.741zm16.4-5.08h-2.364l-5.17 11.934-.13.3h2.93l1.149-2.732h4.759l1.142 2.732h3l-5.2-11.992zm.1 6.907h-2.6l1.3-3.052zm15.86.2l-5.277-6.854-.123-.166h-2.444v12.153h2.766v-7.244l5.453 7.08.124.164h2.268v-12.153h-2.767v7.02zm15.385 1.309a4.01 4.01 0 0 1-2.943 1.357 3.405 3.405 0 0 1-3.294-3.639 3.368 3.368 0 0 1 3.294-3.576 4 4 0 0 1 2.865 1.3l.314.282 1.811-2.09-.289-.276a6.191 6.191 0 0 0-4.682-1.878A6.273 6.273 0 0 0 287.63 329a6.2 6.2 0 0 0 4.854-2.134l.283-.291-1.84-1.875zm7.932 1.212v-2.205h5.631v-2.613h-5.631v-2.11h6.354v-2.613h-9.156v12.153H305v-2.612h-6.432z"/><path id="RAPID_MOVEMENT_CHINO" data-name="RAPID MOVEMENT CHINO" class="cls-1" d="M98.035 143.643h12.6v-11.8l6.25 11.8h14.4l-9.551-14.551c4.15-.5 6.9-4.05 6.9-9.151 0-7.651-4.9-12.051-14.452-12.051H98.035v35.753zm12.6-26.552h2c2.5 0 3.8 1.35 3.8 3.55s-1.35 3.45-3.8 3.45h-2v-7zm28.448 26.552h13.8l1.1-4.5h9.7l1.15 4.5h13.8l-12.5-35.753h-14.3zm17.051-13l1.1-4.05a36.276 36.276 0 0 0 1.45-7.851h.251a36.276 36.276 0 0 0 1.45 7.851l1.1 4.05h-5.351zm47.4-12.8h2c2.5 0 3.8 1.15 3.8 3s-1.3 2.95-3.8 2.95h-2v-5.95zm-12.9 25.8h12.851v-10.551h4.05c9.5 0 14.052-3.5 14.052-12.151 0-9.3-5.051-13.051-15.6-13.051h-15.353v35.753zm45.649 0h13.052V107.89h-13.052v35.753zm30 0h9.451c7.151 0 12.651-.35 17.3-3.55a17.54 17.54 0 0 0-2.2-29.953c-3.3-1.65-7.951-2.25-14.152-2.25h-10.4v35.753zm12.752-10.9v-13.852h.55c5.2 0 7.8 2.2 7.8 6.9 0 4.851-2.65 6.851-8.35 6.951zM49.2 203.643h12.6l-5.647-35.753H42.9l-2.65 8.7a66.7 66.7 0 0 0-2.45 10.6h-.2a57.455 57.455 0 0 0-2.35-10.451l-2.55-8.849H19.449l-6.1 35.753h12.6l1.55-14.151c.2-1.9.35-4.1.55-6.551a53.161 53.161 0 0 0 1.6 6.951l4.1 13.751H41.4l4.1-13.751a53.162 53.162 0 0 0 1.6-6.951c.25 2.9.4 5.1.55 6.551zm59.35-17.8a18.37 18.37 0 0 0-5.4-13.352 20.083 20.083 0 0 0-27.4 0 19.142 19.142 0 0 0 0 26.653 19.949 19.949 0 0 0 27.353.05 18.213 18.213 0 0 0 5.449-13.352zm-19.1 6.75c-3.5 0-6.051-2.6-6.051-6.75s2.55-6.8 6.051-6.8 6 2.65 6 6.8-2.499 6.749-6 6.749zm42.121 11.051h11.951l13.6-35.753h-13.65l-4 13.251a51.4 51.4 0 0 0-1.85 8.151h-.25a41.055 41.055 0 0 0-1.751-8.451l-3.8-12.951h-13.9zm37.149 0h24.2v-9.7h-11.6v-3.75h10.251v-9.151h-10.25v-3.45h11.3v-9.7h-23.9v35.753zm72.053 0h12.6l-5.651-35.753h-13.25l-2.65 8.7a66.689 66.689 0 0 0-2.45 10.6h-.2a57.53 57.53 0 0 0-2.351-10.451l-2.55-8.851H211.02l-6.1 35.753h12.6l1.551-14.151c.2-1.9.35-4.1.55-6.551a53.163 53.163 0 0 0 1.6 6.951l4.1 13.751h7.651l4.1-13.751a53.163 53.163 0 0 0 1.6-6.951c.251 2.9.4 5.1.551 6.551zm26.146 0h24.2v-9.7h-11.6v-3.75h10.251v-9.151h-10.249v-3.45h11.3v-9.7h-23.9v35.753zm39.4 0h12.4v-12.9a36.553 36.553 0 0 0-.4-5.65l11 18.551h12.7V167.89h-12.4v13a36 36 0 0 0 .4 5.7l-11.1-18.7h-12.6v35.753zm56.85 0h12.851v-24.053h7.151v-11.7h-27.153v11.7h7.151v24.052zm-243.482 38.447V228.84a20.644 20.644 0 0 0-8.4-1.8c-11.1 0-19.152 7.951-19.152 18.8a18.08 18.08 0 0 0 7.4 15.051 19.344 19.344 0 0 0 11.6 3.7 22.114 22.114 0 0 0 8.4-1.7l.4-13.451c-2.85 2.1-5.3 3.3-7.951 3.3-4.2 0-6.75-2.8-6.75-6.9 0-4.351 2.85-7.1 7-7.1a10.513 10.513 0 0 1 7.453 3.351zm15.647 21.552h12.851v-12.6h7.851v12.6h12.851V227.89h-12.851v11.9h-7.851v-11.9h-12.851v35.753zm50.55 0h13.051V227.89h-13.051v35.753zm30 0h12.4v-12.9a36.553 36.553 0 0 0-.4-5.65l11 18.551h12.7V227.89h-12.4v13a36.011 36.011 0 0 0 .4 5.7l-11.1-18.7h-12.6v35.753zm89.2-17.8a18.367 18.367 0 0 0-5.4-13.352 20.081 20.081 0 0 0-27.4 0 19.141 19.141 0 0 0 0 26.653 19.948 19.948 0 0 0 27.352.05 18.21 18.21 0 0 0 5.451-13.352zm-19.1 6.75c-3.5 0-6.051-2.6-6.051-6.75s2.551-6.8 6.051-6.8 6 2.65 6 6.8-2.499 6.749-5.999 6.749z"/><path id="THE_NEW" data-name="THE NEW" class="cls-1" d="M126.708 82.155H133l2.205-11.955h3.552l.96-5.209h-13.489l-.984 5.209h3.672zm16.536 0h6.216l1.152-6.169H154l-1.152 6.169h6.216l3.192-17.162h-6.24l-1.08 5.929h-3.385l1.081-5.929h-6.217zm23.807 0h12.29l.864-4.657h-6.1l.336-1.848h5.259l.792-4.344h-5.257l.312-1.656h5.593l.84-4.656h-11.76zm32.664 0H206l.888-4.8a30.711 30.711 0 0 0 .552-4.056l3.168 8.857h6.292l3.168-17.162h-6.217l-1.651 8.928a23.243 23.243 0 0 0-1.056-3.48l-1.968-5.449h-6.289zm25.152 0h12.289l.864-4.655h-6.1l.336-1.848h5.256l.792-4.344h-5.256l.312-1.656h5.592l.84-4.656h-11.757zm21.72 0h6.193l2.592-6.121a24.672 24.672 0 0 0 1.1-3.336l.576 9.457h6.265l7.344-17.162h-6.528l-2.377 6.145a30.111 30.111 0 0 0-1.056 3.288l-.6-9.433h-4.944l-3.745 9.529c.048-.6.072-1.2.072-1.848q0-1.116-.072-2.376l-.216-5.3h-5.976z"/></svg>