<svg xmlns="http://www.w3.org/2000/svg" width="575" height="499"><defs><style>.cls-1{fill:#fff;fill-rule:evenodd}</style></defs><path id="_I_wear_these_pants_all_the_time._They_ve_got_great_stretch_and" data-name="“I wear these pants all the time. They’ve got great stretch and" class="cls-1" d="M375.533 158.362l-1.034-.418-2.223 4.972 1.43.528zm3.212 0l-1.034-.418-2.222 4.972 1.474.528zm4.267 0v14.676h1.628v-14.676h-1.628zm11.021 5.544l4.489 9.77 2.816-6.821 2.817 6.821 4.532-9.77h-1.76l-2.728 6.2-2.839-6.906-2.86 6.909-2.707-6.2h-1.76zm24.2 6.073a3.637 3.637 0 0 1-.946 1.254 2.771 2.771 0 0 1-1.87.661 2.926 2.926 0 0 1-2.905-3.1h7.107a6.13 6.13 0 0 0-.858-3.432 4.085 4.085 0 0 0-3.454-1.673c-2.751 0-4.423 2.113-4.423 4.841 0 3.389 2.31 4.775 4.511 4.775a4.432 4.432 0 0 0 3.036-1.122 5.467 5.467 0 0 0 1.122-1.475zm-5.611-2.508a2.776 2.776 0 0 1 2.685-2.376 2.732 2.732 0 0 1 2.684 2.376h-5.369zm17.513-2.266a3.778 3.778 0 0 0-3.125-1.519c-2.332 0-4.444 1.629-4.444 4.775 0 3.213 2.134 4.841 4.444 4.841a3.852 3.852 0 0 0 3.125-1.54v1.276h1.584v-9.132h-1.584v1.3zm-2.949-.11a3.421 3.421 0 0 1 0 6.8c-1.892 0-2.992-1.475-2.992-3.433a3.034 3.034 0 0 1 2.993-3.362zm8.624 7.943h1.59v-4.819a3.94 3.94 0 0 1 .528-2.464 1.533 1.533 0 0 1 1.276-.572 1.63 1.63 0 0 1 .924.308l.748-1.431a3.346 3.346 0 0 0-1.408-.374 2.537 2.537 0 0 0-2.068 1.214v-.991h-1.584v9.132zm17.05-7.679v-1.453h-1.585v-3.3h-1.584v3.3h-.968v1.453h.968v7.679h1.584v-7.679h1.585zm2.6 7.679h1.584v-4.775a3.846 3.846 0 0 1 .66-2.464 2 2 0 0 1 1.606-.7 1.794 1.794 0 0 1 1.5.66 2.684 2.684 0 0 1 .418 1.672v5.611h1.584v-5.655a4.072 4.072 0 0 0-.528-2.442 3.1 3.1 0 0 0-2.619-1.255 3.221 3.221 0 0 0-2.618 1.277V157h-1.584v16.041zm18-3.059a3.637 3.637 0 0 1-.946 1.254 2.776 2.776 0 0 1-1.871.661 2.925 2.925 0 0 1-2.9-3.1h7.107a6.13 6.13 0 0 0-.858-3.432 4.087 4.087 0 0 0-3.455-1.673c-2.75 0-4.422 2.113-4.422 4.841 0 3.389 2.31 4.775 4.51 4.775a4.434 4.434 0 0 0 3.037-1.122 5.467 5.467 0 0 0 1.122-1.475zm-5.611-2.508a2.775 2.775 0 0 1 2.684-2.376 2.733 2.733 0 0 1 2.685 2.376h-5.369zm15.576-2.134a2.633 2.633 0 0 0-2.508-1.651 2.456 2.456 0 0 0-2.663 2.553 1.983 1.983 0 0 0 .418 1.342 5.97 5.97 0 0 0 2.223 1.342c.858.374 1.474.66 1.474 1.518a1.418 1.418 0 0 1-1.5 1.453 2.067 2.067 0 0 1-1.848-1.5l-1.365.572a3.266 3.266 0 0 0 3.191 2.333 2.9 2.9 0 0 0 3.146-2.993 2.161 2.161 0 0 0-.484-1.474 5.551 5.551 0 0 0-2.288-1.408c-1.034-.44-1.474-.638-1.474-1.3a1.009 1.009 0 0 1 1.1-1.034 1.4 1.4 0 0 1 1.276.924zm10.56 4.642a3.637 3.637 0 0 1-.946 1.254 2.771 2.771 0 0 1-1.87.661 2.925 2.925 0 0 1-2.9-3.1h7.107a6.13 6.13 0 0 0-.858-3.432 4.085 4.085 0 0 0-3.454-1.673c-2.751 0-4.423 2.113-4.423 4.841 0 3.389 2.31 4.775 4.511 4.775a4.432 4.432 0 0 0 3.036-1.122 5.467 5.467 0 0 0 1.122-1.475zm-5.611-2.508a2.776 2.776 0 0 1 2.685-2.376 2.732 2.732 0 0 1 2.684 2.376h-5.369zm18.326 4.291a3.876 3.876 0 0 0 3.19 1.54c2.773 0 4.379-2.267 4.379-4.775 0-2.464-1.584-4.841-4.445-4.841a3.925 3.925 0 0 0-3.124 1.5v-1.277h-1.584V178.1h1.584v-6.336zm2.97.132a3.124 3.124 0 0 1-3.058-3.389 3.169 3.169 0 0 1 3.036-3.41 3.132 3.132 0 0 1 2.993 3.432 3.076 3.076 0 0 1-2.978 3.367zm15.114-6.689a3.778 3.778 0 0 0-3.124-1.519c-2.333 0-4.445 1.629-4.445 4.775 0 3.213 2.134 4.841 4.445 4.841a3.851 3.851 0 0 0 3.124-1.54v1.276h1.585v-9.132h-1.585v1.3zm-2.948-.11a3.421 3.421 0 0 1 0 6.8c-1.892 0-2.993-1.475-2.993-3.433a3.035 3.035 0 0 1 2.986-3.362zm8.623 7.943h1.584v-4.775a3.846 3.846 0 0 1 .66-2.464 2 2 0 0 1 1.607-.7 1.792 1.792 0 0 1 1.5.66 2.684 2.684 0 0 1 .418 1.672v5.611h1.572v-5.655a4.072 4.072 0 0 0-.528-2.442 3.1 3.1 0 0 0-2.618-1.255 3.222 3.222 0 0 0-2.619 1.277v-1.057h-1.584v9.132zm14.652-7.679v-1.453h-1.591v-3.3h-1.584v3.3h-.968v1.453h.968v7.679h1.584v-7.679h1.58zm7.656-.022a2.633 2.633 0 0 0-2.508-1.651 2.456 2.456 0 0 0-2.663 2.553 1.983 1.983 0 0 0 .418 1.342 5.97 5.97 0 0 0 2.223 1.342c.858.374 1.474.66 1.474 1.518a1.418 1.418 0 0 1-1.5 1.453 2.067 2.067 0 0 1-1.848-1.5l-1.365.572a3.266 3.266 0 0 0 3.191 2.333 2.9 2.9 0 0 0 3.146-2.993 2.161 2.161 0 0 0-.484-1.474 5.551 5.551 0 0 0-2.288-1.408c-1.034-.44-1.474-.638-1.474-1.3a1.009 1.009 0 0 1 1.1-1.034 1.4 1.4 0 0 1 1.276.924zm-173.274 29.868a3.778 3.778 0 0 0-3.124-1.519c-2.333 0-4.445 1.629-4.445 4.775 0 3.213 2.134 4.841 4.445 4.841a3.851 3.851 0 0 0 3.124-1.54v1.276h1.584v-9.132h-1.584v1.3zm-2.948-.11a3.421 3.421 0 0 1 0 6.8c-1.892 0-2.993-1.475-2.993-3.433a3.035 3.035 0 0 1 2.993-3.362zm8.623-8.1v16.041h1.584V187h-1.584zm5.676 0v16.041h1.584V187h-1.584zm15.114 8.362v-1.453h-1.584v-3.3h-1.585v3.3h-.968v1.453h.968v7.679h1.585v-7.679h1.584zm2.595 7.679h1.584v-4.775a3.846 3.846 0 0 1 .66-2.464 2 2 0 0 1 1.607-.7 1.792 1.792 0 0 1 1.5.66 2.684 2.684 0 0 1 .418 1.672v5.611h1.578v-5.655a4.072 4.072 0 0 0-.528-2.442 3.1 3.1 0 0 0-2.618-1.255 3.222 3.222 0 0 0-2.619 1.277V187h-1.584v16.041zm18-3.059a3.637 3.637 0 0 1-.946 1.254 2.772 2.772 0 0 1-1.871.661 2.925 2.925 0 0 1-2.9-3.1h7.107a6.13 6.13 0 0 0-.858-3.432 4.086 4.086 0 0 0-3.455-1.673c-2.75 0-4.422 2.113-4.422 4.841 0 3.389 2.31 4.775 4.51 4.775a4.433 4.433 0 0 0 3.037-1.122 5.467 5.467 0 0 0 1.122-1.475zm-5.611-2.508a2.775 2.775 0 0 1 2.684-2.376 2.733 2.733 0 0 1 2.685 2.376h-5.369zm19.954-2.112v-1.453h-1.584v-3.3h-1.585v3.3h-.968v1.453h.968v7.679h1.585v-7.679h1.584zm2.6-1.453v9.132h1.584v-9.132h-1.584zm-.33-3.454a1.122 1.122 0 1 0 1.122-1.122 1.127 1.127 0 0 0-1.13 1.124zm6.006 12.586h1.584v-4.973c0-1.1.2-2.97 2-2.97 1.673 0 1.651 1.892 1.651 2.53v5.413h1.584v-5.083c0-1.1.2-2.86 2.024-2.86 1.5 0 1.628 1.364 1.628 2.4v5.545h1.585v-5.787c0-1.3-.264-3.565-2.971-3.565a3.047 3.047 0 0 0-2.75 1.475 2.734 2.734 0 0 0-2.487-1.475 2.65 2.65 0 0 0-2.266 1.189v-.969h-1.584v9.132zm22.947-3.059a3.637 3.637 0 0 1-.946 1.254 2.772 2.772 0 0 1-1.871.661 2.925 2.925 0 0 1-2.9-3.1h7.098a6.13 6.13 0 0 0-.858-3.432 4.086 4.086 0 0 0-3.455-1.673c-2.75 0-4.422 2.113-4.422 4.841 0 3.389 2.31 4.775 4.51 4.775a4.433 4.433 0 0 0 3.037-1.122 5.467 5.467 0 0 0 1.122-1.475zm-5.611-2.508a2.775 2.775 0 0 1 2.684-2.376 2.733 2.733 0 0 1 2.685 2.376H466.5zm10.428 4.687a1.1 1.1 0 1 0 1.1-1.1 1.118 1.118 0 0 0-1.108 1.102zm20-12.256v-1.54h-8.757v1.54h3.565v13.136h1.628V189.9h3.564zm1.319 13.136h1.585v-4.775a3.846 3.846 0 0 1 .66-2.464 2 2 0 0 1 1.606-.7 1.792 1.792 0 0 1 1.5.66 2.684 2.684 0 0 1 .418 1.672v5.611h1.584v-5.655a4.072 4.072 0 0 0-.528-2.442 3.1 3.1 0 0 0-2.618-1.255 3.221 3.221 0 0 0-2.618 1.277V187h-1.585v16.041zm18-3.059a3.637 3.637 0 0 1-.946 1.254 2.771 2.771 0 0 1-1.87.661 2.925 2.925 0 0 1-2.905-3.1h7.107a6.13 6.13 0 0 0-.858-3.432 4.085 4.085 0 0 0-3.454-1.673c-2.751 0-4.423 2.113-4.423 4.841 0 3.389 2.31 4.775 4.511 4.775a4.432 4.432 0 0 0 3.036-1.122 5.467 5.467 0 0 0 1.122-1.475zm-5.611-2.508a2.775 2.775 0 0 1 2.685-2.376 2.732 2.732 0 0 1 2.671 2.378h-5.369zm10.481 10.631h1.76l6.711-14.192h-1.76l-2.971 6.535-3.234-6.535h-1.8l4.2 8.274zm11.022-15.182l1.034.418 2.222-4.972-1.474-.528zm5.807.99l4.489 9.726 4.489-9.726h-1.761l-2.728 6.161-2.728-6.161h-1.761zm18.525 6.073a3.637 3.637 0 0 1-.946 1.254 2.771 2.771 0 0 1-1.87.661 2.925 2.925 0 0 1-2.9-3.1h7.107a6.122 6.122 0 0 0-.859-3.432 4.085 4.085 0 0 0-3.454-1.673c-2.75 0-4.423 2.113-4.423 4.841 0 3.389 2.311 4.775 4.511 4.775a4.432 4.432 0 0 0 3.036-1.122 5.471 5.471 0 0 0 1.123-1.475zm-5.61-2.508a2.775 2.775 0 0 1 2.684-2.376 2.732 2.732 0 0 1 2.684 2.376h-5.368zm-171.376 27.732a3.8 3.8 0 0 0-3.124-1.519 4.5 4.5 0 0 0-3.125 1.233 4.789 4.789 0 0 0-1.32 3.542 4.947 4.947 0 0 0 1.32 3.609 4.376 4.376 0 0 0 3.125 1.232 3.851 3.851 0 0 0 3.124-1.54v1.32a4.244 4.244 0 0 1-.506 2.332 2.56 2.56 0 0 1-2.42 1.276 2.83 2.83 0 0 1-2.2-.88 2.874 2.874 0 0 1-.7-1.892H372.1a4.114 4.114 0 0 0 1.188 2.948 4.524 4.524 0 0 0 3.257 1.232 4.442 4.442 0 0 0 3.655-1.698 5.744 5.744 0 0 0 .88-3.586v-8.912h-1.584v1.3zm-2.948-.11a2.927 2.927 0 0 1 2.068.814 3.61 3.61 0 0 1 .968 2.574 3.7 3.7 0 0 1-1.034 2.64 2.7 2.7 0 0 1-2 .771 2.759 2.759 0 0 1-1.958-.749 3.517 3.517 0 0 1-1.035-2.684 3.476 3.476 0 0 1 .924-2.508 2.834 2.834 0 0 1 2.067-.853zm12.892 8.207a4.808 4.808 0 1 0-4.841-4.8 4.684 4.684 0 0 0 4.841 4.798zm0-8.207a3.4 3.4 0 1 1-3.213 3.41 3.16 3.16 0 0 1 3.213-3.405zm11.571.264v-1.453h-1.584v-3.3h-1.584v3.3h-.969v1.453h.969v7.679h1.584v-7.679h1.584zm15.818-.154a3.8 3.8 0 0 0-3.124-1.519 4.5 4.5 0 0 0-3.125 1.233 4.789 4.789 0 0 0-1.32 3.542 4.947 4.947 0 0 0 1.32 3.609 4.374 4.374 0 0 0 3.123 1.23 3.851 3.851 0 0 0 3.124-1.54v1.32a4.244 4.244 0 0 1-.506 2.332 2.56 2.56 0 0 1-2.42 1.276 2.829 2.829 0 0 1-2.2-.88 2.874 2.874 0 0 1-.7-1.892h-1.562a4.114 4.114 0 0 0 1.188 2.948 4.522 4.522 0 0 0 3.257 1.232 4.442 4.442 0 0 0 3.652-1.694 5.744 5.744 0 0 0 .88-3.586v-8.912h-1.584v1.3zm-2.948-.11a2.927 2.927 0 0 1 2.068.814 3.61 3.61 0 0 1 .968 2.574 3.7 3.7 0 0 1-1.034 2.64 2.7 2.7 0 0 1-2 .771 2.761 2.761 0 0 1-1.959-.749 3.519 3.519 0 0 1-1.034-2.684 3.476 3.476 0 0 1 .924-2.508 2.833 2.833 0 0 1 2.067-.853zm8.623 7.943h1.584v-4.819a3.94 3.94 0 0 1 .528-2.464 1.533 1.533 0 0 1 1.276-.572 1.63 1.63 0 0 1 .924.308l.749-1.431a3.354 3.354 0 0 0-1.409-.374 2.537 2.537 0 0 0-2.068 1.211v-.991H422.5v9.132zm13.861-3.059a3.637 3.637 0 0 1-.946 1.254 2.772 2.772 0 0 1-1.871.661 2.925 2.925 0 0 1-2.9-3.1h7.107a6.13 6.13 0 0 0-.858-3.432 4.086 4.086 0 0 0-3.455-1.673c-2.75 0-4.422 2.113-4.422 4.841 0 3.389 2.31 4.775 4.51 4.775a4.433 4.433 0 0 0 3.037-1.122 5.451 5.451 0 0 0 1.122-1.475zm-5.611-2.508a2.775 2.775 0 0 1 2.684-2.376 2.733 2.733 0 0 1 2.685 2.376h-5.369zm17.513-2.266a3.78 3.78 0 0 0-3.125-1.519c-2.332 0-4.445 1.629-4.445 4.775 0 3.213 2.135 4.841 4.445 4.841a3.855 3.855 0 0 0 3.125-1.54v1.276h1.584v-9.132h-1.584v1.3zm-2.949-.11a3.421 3.421 0 0 1 0 6.8c-1.892 0-2.992-1.475-2.992-3.433a3.034 3.034 0 0 1 2.992-3.362zm11.836.264v-1.453h-1.585v-3.3h-1.584v3.3h-.968v1.453h.968v7.679h1.584v-7.679h1.585zm13.881-.022a2.633 2.633 0 0 0-2.508-1.651 2.455 2.455 0 0 0-2.662 2.553 1.983 1.983 0 0 0 .418 1.342 5.955 5.955 0 0 0 2.222 1.342c.858.374 1.474.66 1.474 1.518a1.418 1.418 0 0 1-1.5 1.453 2.067 2.067 0 0 1-1.848-1.5l-1.364.572a3.265 3.265 0 0 0 3.19 2.333 2.905 2.905 0 0 0 3.147-2.993 2.157 2.157 0 0 0-.485-1.474 5.551 5.551 0 0 0-2.288-1.408c-1.034-.44-1.474-.638-1.474-1.3a1.009 1.009 0 0 1 1.1-1.034 1.4 1.4 0 0 1 1.276.924zm7 .022v-1.453h-1.584v-3.3h-1.588v3.3h-.969v1.453h.969v7.679h1.584v-7.679h1.584zm2.595 7.679h1.584v-4.819a3.937 3.937 0 0 1 .529-2.464 1.533 1.533 0 0 1 1.276-.572 1.63 1.63 0 0 1 .924.308l.748-1.431a3.346 3.346 0 0 0-1.408-.374 2.542 2.542 0 0 0-2.069 1.211v-.991h-1.584v9.132zm13.861-3.059a3.637 3.637 0 0 1-.946 1.254 2.771 2.771 0 0 1-1.87.661 2.926 2.926 0 0 1-2.905-3.1h7.108a6.13 6.13 0 0 0-.859-3.432 4.085 4.085 0 0 0-3.454-1.673c-2.751 0-4.423 2.113-4.423 4.841 0 3.389 2.311 4.775 4.511 4.775a4.432 4.432 0 0 0 3.036-1.122 5.451 5.451 0 0 0 1.122-1.475zm-5.611-2.508a2.776 2.776 0 0 1 2.685-2.376 2.732 2.732 0 0 1 2.684 2.376h-5.369zm13.728-2.112v-1.453h-1.584v-3.3h-1.584v3.3h-.968v1.453h.968v7.679h1.584v-7.679h1.579zm9.747-.792a4.828 4.828 0 0 0-2.839-.881 4.809 4.809 0 1 0 0 9.616 4.877 4.877 0 0 0 2.9-.946v-1.893a3.891 3.891 0 0 1-2.949 1.431 3.4 3.4 0 0 1 .022-6.8 3.683 3.683 0 0 1 2.861 1.364v-1.892zm3.585 8.471h1.584v-4.775a3.846 3.846 0 0 1 .66-2.464 2 2 0 0 1 1.606-.7 1.792 1.792 0 0 1 1.5.66 2.684 2.684 0 0 1 .418 1.672v5.611h1.585v-5.655a4.072 4.072 0 0 0-.528-2.442 3.1 3.1 0 0 0-2.619-1.255 3.221 3.221 0 0 0-2.618 1.277V217h-1.584v16.041zm-136.44 22.167a3.778 3.778 0 0 0-3.124-1.519c-2.333 0-4.445 1.629-4.445 4.775 0 3.213 2.134 4.841 4.445 4.841a3.851 3.851 0 0 0 3.124-1.54v1.276h1.584v-9.132h-1.584v1.3zm-2.948-.11a3.421 3.421 0 0 1 0 6.8c-1.892 0-2.993-1.475-2.993-3.433a3.035 3.035 0 0 1 2.989-3.362zm8.623 7.943h1.584v-4.775a3.846 3.846 0 0 1 .66-2.464 2 2 0 0 1 1.606-.7 1.792 1.792 0 0 1 1.5.66 2.684 2.684 0 0 1 .418 1.672v5.611h1.584v-5.655a4.072 4.072 0 0 0-.528-2.442 3.1 3.1 0 0 0-2.618-1.255 3.222 3.222 0 0 0-2.619 1.277v-1.057h-1.584v9.132zm18.437-7.833a3.78 3.78 0 0 0-3.125-1.519c-2.332 0-4.444 1.629-4.444 4.775 0 3.213 2.134 4.841 4.444 4.841a3.853 3.853 0 0 0 3.125-1.54v1.276h1.584V247h-1.584v8.208zm-2.949-.11a3.421 3.421 0 0 1 0 6.8c-1.892 0-2.992-1.475-2.992-3.433a3.034 3.034 0 0 1 2.988-3.362zm14.849 7.943h1.584v-4.819a3.94 3.94 0 0 1 .528-2.464 1.533 1.533 0 0 1 1.276-.572 1.63 1.63 0 0 1 .925.308l.748-1.431a3.346 3.346 0 0 0-1.408-.374 2.538 2.538 0 0 0-2.069 1.211v-.991h-1.584v9.132zm13.861-3.059a3.65 3.65 0 0 1-.946 1.255 2.776 2.776 0 0 1-1.87.66 2.925 2.925 0 0 1-2.905-3.1h7.107a6.13 6.13 0 0 0-.858-3.432 4.085 4.085 0 0 0-3.454-1.673c-2.751 0-4.423 2.113-4.423 4.841 0 3.389 2.31 4.775 4.511 4.775a4.432 4.432 0 0 0 3.036-1.122 5.467 5.467 0 0 0 1.122-1.475zm-5.611-2.508a2.775 2.775 0 0 1 2.685-2.376 2.732 2.732 0 0 1 2.684 2.376h-5.369zm17.667-2.9a4.828 4.828 0 0 0-2.839-.881 4.809 4.809 0 1 0 0 9.616 4.877 4.877 0 0 0 2.9-.946v-1.893a3.891 3.891 0 0 1-2.949 1.431 3.4 3.4 0 0 1 .022-6.8 3.683 3.683 0 0 1 2.861 1.364v-1.892zm7.853 8.735a4.808 4.808 0 1 0-4.841-4.8 4.684 4.684 0 0 0 4.837 4.794zm0-8.207a3.4 3.4 0 1 1-3.212 3.41 3.161 3.161 0 0 1 3.208-3.409zm7.039-1.189l4.489 9.726 4.488-9.726h-1.76l-2.728 6.161-2.729-6.161h-1.76zm18.525 6.073a3.65 3.65 0 0 1-.946 1.255 2.776 2.776 0 0 1-1.87.66 2.925 2.925 0 0 1-2.905-3.1h7.107a6.13 6.13 0 0 0-.858-3.432 4.085 4.085 0 0 0-3.454-1.673c-2.751 0-4.423 2.113-4.423 4.841 0 3.389 2.31 4.775 4.511 4.775a4.432 4.432 0 0 0 3.036-1.122 5.467 5.467 0 0 0 1.122-1.475zm-5.611-2.508a2.775 2.775 0 0 1 2.685-2.376 2.732 2.732 0 0 1 2.684 2.376h-5.369zm10.516 5.567h1.584v-4.819a3.94 3.94 0 0 1 .528-2.464 1.533 1.533 0 0 1 1.276-.572 1.63 1.63 0 0 1 .924.308l.749-1.431a3.35 3.35 0 0 0-1.409-.374 2.537 2.537 0 0 0-2.068 1.211v-.991h-1.584v9.132zm8.271 5.06h1.761l6.711-14.192h-1.761l-2.97 6.535-3.234-6.535h-1.805l4.2 8.274zm9.812-2.134l1.034.418 2.223-4.972-1.453-.529zm-118.338 19.237a3.778 3.778 0 0 0-3.124-1.519c-2.333 0-4.445 1.629-4.445 4.775 0 3.213 2.134 4.841 4.445 4.841a3.851 3.851 0 0 0 3.124-1.54v1.276h1.584v-9.132h-1.584v1.3zm-2.948-.11a3.421 3.421 0 0 1 0 6.8c-1.892 0-2.993-1.475-2.993-3.433a3.035 3.035 0 0 1 2.993-3.362zm8.623 7.943h1.584v-4.775a3.846 3.846 0 0 1 .66-2.464 2 2 0 0 1 1.606-.7 1.792 1.792 0 0 1 1.5.66 2.684 2.684 0 0 1 .418 1.672v5.611h1.584v-5.655a4.072 4.072 0 0 0-.528-2.442 3.1 3.1 0 0 0-2.618-1.255 3.222 3.222 0 0 0-2.619 1.277v-1.057h-1.584v9.132zm24.662-7.833a3.778 3.778 0 0 0-3.124-1.519c-2.332 0-4.445 1.629-4.445 4.775 0 3.213 2.135 4.841 4.445 4.841a3.851 3.851 0 0 0 3.124-1.54v1.276h1.585v-9.132h-1.585v1.3zm-2.948-.11a3.421 3.421 0 0 1 0 6.8c-1.892 0-2.993-1.475-2.993-3.433a3.035 3.035 0 0 1 2.993-3.362zm8.623-8.1v16.041h1.584V277h-1.584zm5.676 0v16.041h1.584V277h-1.584zm5.28 12.168h4.84v-1.628h-4.84v1.628zm15.532-3.96a3.778 3.778 0 0 0-3.124-1.519c-2.332 0-4.445 1.629-4.445 4.775 0 3.213 2.135 4.841 4.445 4.841a3.851 3.851 0 0 0 3.124-1.54v1.276h1.585v-9.132h-1.585v1.3zm-2.948-.11a3.421 3.421 0 0 1 0 6.8c-1.892 0-2.992-1.475-2.992-3.433a3.034 3.034 0 0 1 2.992-3.36zm8.623 7.943h1.584v-4.819a3.94 3.94 0 0 1 .528-2.464 1.537 1.537 0 0 1 1.277-.572 1.63 1.63 0 0 1 .924.308l.748-1.431a3.346 3.346 0 0 0-1.408-.374 2.54 2.54 0 0 0-2.069 1.211v-.991h-1.584v9.132zm11.353.264a4.808 4.808 0 1 0-4.841-4.8 4.684 4.684 0 0 0 4.841 4.8zm0-8.207a3.4 3.4 0 1 1-3.213 3.41 3.16 3.16 0 0 1 3.213-3.403zm9.943-1.189h-1.584v5.5a3.631 3.631 0 0 0 .836 2.751 3.985 3.985 0 0 0 5.589 0 3.631 3.631 0 0 0 .836-2.751v-5.5h-1.584v5.325a3.108 3.108 0 0 1-.44 1.958 2.183 2.183 0 0 1-3.213 0 3.108 3.108 0 0 1-.44-1.958v-5.325zm9.768 9.132h1.584v-4.775a3.846 3.846 0 0 1 .66-2.464 2 2 0 0 1 1.606-.7 1.792 1.792 0 0 1 1.5.66 2.679 2.679 0 0 1 .419 1.672v5.611h1.584v-5.655a4.072 4.072 0 0 0-.528-2.442 3.1 3.1 0 0 0-2.619-1.255 3.221 3.221 0 0 0-2.618 1.277v-1.057h-1.584v9.132zm18.436-7.833a3.778 3.778 0 0 0-3.124-1.519c-2.332 0-4.445 1.629-4.445 4.775 0 3.213 2.135 4.841 4.445 4.841a3.851 3.851 0 0 0 3.124-1.54v1.276h1.585V277h-1.585v8.208zm-2.948-.11a3.421 3.421 0 0 1 0 6.8c-1.892 0-2.992-1.475-2.992-3.433a3.034 3.034 0 0 1 2.992-3.36zm13.529-1.189l4.488 9.77 2.817-6.821 2.816 6.821 4.533-9.77h-1.761l-2.728 6.2-2.838-6.909-2.861 6.909-2.706-6.2h-1.76zm17.424 0v9.132h1.584v-9.132h-1.584zm-.33-3.454a1.122 1.122 0 1 0 1.122-1.122 1.127 1.127 0 0 0-1.122 1.124zm6 12.586h1.585v-4.775a3.846 3.846 0 0 1 .66-2.464 2 2 0 0 1 1.606-.7 1.792 1.792 0 0 1 1.5.66 2.684 2.684 0 0 1 .418 1.672v5.611h1.588v-5.655a4.072 4.072 0 0 0-.528-2.442 3.1 3.1 0 0 0-2.618-1.255 3.221 3.221 0 0 0-2.618 1.277v-1.057h-1.585v9.132zm10.472 2.926l1.034.418 2.222-4.972-1.452-.529zM372.5 313.906v9.132h1.584v-9.132H372.5zm-.33-3.454a1.122 1.122 0 1 0 1.122-1.122 1.127 1.127 0 0 0-1.126 1.122zm9.879 4.907v-1.453H379.8V310.1a2.744 2.744 0 0 1 .2-1.32 1.11 1.11 0 0 1 1.012-.484 2.874 2.874 0 0 1 1.035.2v-1.541a3.063 3.063 0 0 0-1.123-.2 2.841 2.841 0 0 0-1.826.594 3.162 3.162 0 0 0-.88 2.575v3.982h-.88v1.453h.88v7.679h1.582v-7.679h2.245zm8.711 12.739h1.76l6.711-14.192h-1.76l-2.971 6.535-3.234-6.535h-1.805l4.2 8.274zm15.51-4.8a4.808 4.808 0 1 0-4.841-4.8 4.684 4.684 0 0 0 4.837 4.802zm0-8.207a3.4 3.4 0 1 1-3.213 3.41 3.16 3.16 0 0 1 3.209-3.401zm9.943-1.189h-1.584v5.5a3.631 3.631 0 0 0 .836 2.751 3.985 3.985 0 0 0 5.589 0 3.631 3.631 0 0 0 .836-2.751v-5.5h-1.59v5.325a3.108 3.108 0 0 1-.44 1.958 2.183 2.183 0 0 1-3.213 0 3.108 3.108 0 0 1-.44-1.958v-5.325zm22.991 1.3a3.781 3.781 0 0 0-3.125-1.519c-2.332 0-4.445 1.629-4.445 4.775 0 3.213 2.135 4.841 4.445 4.841a3.855 3.855 0 0 0 3.125-1.54v1.276h1.584v-9.132H439.2v1.3zm-2.949-.11a3.421 3.421 0 0 1 0 6.8c-1.892 0-2.992-1.475-2.992-3.433a3.034 3.034 0 0 1 2.988-3.359zm13.684.242a2.633 2.633 0 0 0-2.508-1.651 2.456 2.456 0 0 0-2.663 2.553 1.983 1.983 0 0 0 .418 1.342 5.953 5.953 0 0 0 2.223 1.342c.858.374 1.474.66 1.474 1.518a1.418 1.418 0 0 1-1.5 1.453 2.067 2.067 0 0 1-1.849-1.5l-1.364.572a3.266 3.266 0 0 0 3.191 2.333 2.9 2.9 0 0 0 3.146-2.993 2.161 2.161 0 0 0-.484-1.474 5.551 5.551 0 0 0-2.288-1.408c-1.035-.44-1.475-.638-1.475-1.3a1.009 1.009 0 0 1 1.1-1.034 1.4 1.4 0 0 1 1.276.924zm3.783-8.34v16.041h1.578v-3.763l.4-.4 3.653 4.159h2.068l-4.621-5.215 3.917-3.917h-2.068L455.3 317.3V307h-1.584zm16.61 16.041h1.584v-4.973c0-1.1.2-2.97 2-2.97 1.672 0 1.65 1.892 1.65 2.53v5.413h1.585v-5.083c0-1.1.2-2.86 2.024-2.86 1.5 0 1.628 1.364 1.628 2.4v5.545h1.584v-5.787c0-1.3-.264-3.565-2.97-3.565a3.047 3.047 0 0 0-2.75 1.475 2.737 2.737 0 0 0-2.487-1.475 2.65 2.65 0 0 0-2.266 1.189v-.969h-1.584v9.132zm22.947-3.059a3.653 3.653 0 0 1-.947 1.254 2.771 2.771 0 0 1-1.87.661 2.925 2.925 0 0 1-2.9-3.1h7.107a6.13 6.13 0 0 0-.858-3.432 4.087 4.087 0 0 0-3.455-1.673c-2.75 0-4.423 2.113-4.423 4.841 0 3.389 2.311 4.775 4.511 4.775a4.436 4.436 0 0 0 3.037-1.122 5.467 5.467 0 0 0 1.122-1.475zm-5.611-2.508a2.775 2.775 0 0 1 2.684-2.376 2.732 2.732 0 0 1 2.684 2.376h-5.368zm10.427 4.687a1.1 1.1 0 1 0 1.1-1.1 1.118 1.118 0 0 0-1.104 1.103zm5.984-9.242l1.034.418 2.223-4.972-1.475-.528zm3.213 0l1.034.418 2.222-4.972-1.43-.528z"/><path id="MATT_RYAN_Pro_Football_Player" data-name="MATT RYAN Pro Football Player" class="cls-1" d="M395.23 23.52a.78.78 0 0 0 0-.384h-2.816c-.16 0-.224-.032-.224-.128V1.345c0-.1.064-.128.224-.128h2.816a.78.78 0 0 0 0-.384h-7.3a.682.682 0 0 0-.448.576l-4.9 15.551L376.9 1.409a.62.62 0 0 0-.48-.576h-7.327a.408.408 0 0 0 0 .384h2.807c.128 0 .16.032.16.128v21.663c0 .1-.032.128-.16.128h-2.816a.408.408 0 0 0 0 .384h6.367a.408.408 0 0 0 0-.384h-2.783c-.16 0-.192-.032-.192-.128V1.825l8.031 22.11a.292.292 0 0 0 .384 0l6.848-21.886v20.959c0 .1-.064.128-.192.128h-2.784a.408.408 0 0 0 0 .384h10.467zm26.176 0a.408.408 0 0 0 0-.384h-2.72a.386.386 0 0 1-.256-.1L409.919.385a.292.292 0 0 0-.384 0l-7.648 21.407c-.447 1.248-.511 1.344-.8 1.344h-2.432a.408.408 0 0 0 0 .384h6.111a.292.292 0 0 0 0-.384h-2.784c-.16 0-.128-.192.256-1.344l2.144-5.888h6.848l2.432 7.136c.032.032-.032.1-.128.1h-2.88a.292.292 0 0 0 0 .384h10.751zm-10.335-8h-6.56l3.36-9.471zm31.935-6.847V.929a.076.076 0 0 0-.064-.1H423.3a.1.1 0 0 0-.1.1v7.744a.408.408 0 0 0 .384 0c0-3.712 2.111-7.455 6.719-7.455h.32c.128 0 .192.032.192.128v21.662c0 .1-.064.128-.192.128h-2.784a.408.408 0 0 0 0 .384h10.432a.408.408 0 0 0 0-.384h-2.816c-.128 0-.192-.032-.192-.128V1.345c0-.1.064-.128.192-.128h.352c4.607 0 6.847 3.744 6.847 7.455a.347.347 0 0 0 .352.001zm24.32 0V.929a.076.076 0 0 0-.064-.1h-19.647a.1.1 0 0 0-.1.1v7.744a.408.408 0 0 0 .384 0c0-3.712 2.112-7.455 6.72-7.455h.32c.128 0 .192.032.192.128v21.662c0 .1-.064.128-.192.128h-2.784a.408.408 0 0 0 0 .384h10.435a.408.408 0 0 0 0-.384h-2.816c-.128 0-.192-.032-.192-.128V1.345c0-.1.064-.128.192-.128h.352c4.608 0 6.848 3.744 6.848 7.455a.347.347 0 0 0 .352.001zm36.255 14.271a.342.342 0 0 0-.224-.288 2.283 2.283 0 0 1-1.824.8c-1.184 0-1.952-1.024-1.952-2.656v-2.88c0-3.168-1.952-6.111-6.943-6.207 3.487-.1 6.015-2.4 6.015-5.312 0-3.136-2.912-5.568-7.647-5.568h-9.887a.408.408 0 0 0 0 .384h2.815a.129.129 0 0 1 .16.128v21.663a.129.129 0 0 1-.16.128h-2.815a.408.408 0 0 0 0 .384h10.271a.78.78 0 0 0 0-.384h-2.656c-.128 0-.192-.032-.192-.128V11.9h1.888c2.88 0 4.608 1.056 4.608 3.872v2.08c0 4.576 2.975 6.208 5.6 6.208a3.845 3.845 0 0 0 2.943-1.116zm-9.407-16.415c0 4.064-.64 4.992-3.744 4.992h-1.888V1.345c0-.1.064-.128.192-.128h1.5c2.98 0 3.94 1.312 3.94 5.312zm31.967-5.312a.408.408 0 0 0 0-.384h-6.464a.408.408 0 0 0 0 .384h3.008c.224 0 .192.1-.384 1.344L517.6 12.7l-5.794-11.355c.032-.064 0-.128.128-.128h3.266a.408.408 0 0 0 0-.384h-11.458a.414.414 0 0 0 0 .384h3.008a.332.332 0 0 1 .256.128l6.24 12.287v9.375c0 .1-.064.128-.192.128h-2.784a.408.408 0 0 0 0 .384h10.43a.408.408 0 0 0 0-.384h-2.784c-.16 0-.224-.032-.224-.128v-9.631L522.365 3.3c.928-1.952 1.088-2.08 1.28-2.08h2.5zm23.168 22.3a.408.408 0 0 0 0-.384h-2.72a.386.386 0 0 1-.256-.1L537.822.385a.292.292 0 0 0-.384 0l-7.647 21.407c-.448 1.248-.512 1.344-.8 1.344h-2.432a.408.408 0 0 0 0 .384h6.111a.292.292 0 0 0 0-.384h-2.783c-.16 0-.128-.192.256-1.344l2.143-5.888h6.848l2.432 7.136c.032.032-.032.1-.128.1h-2.88a.292.292 0 0 0 0 .384h10.751zm-10.335-8h-6.56l3.36-9.471zm35.007-14.3a.408.408 0 0 0 0-.384h-6.367a.408.408 0 0 0 0 .384h2.815c.128 0 .192.032.192.128v14.911l-9.567-14.847a.9.9 0 0 0-.7-.576h-7.775a.292.292 0 0 0 0 .384h2.783c.16 0 .192.032.192.128v21.663c0 .1-.032.128-.192.128h-2.783a.292.292 0 0 0 0 .384h6.367a.408.408 0 0 0 0-.384h-2.816c-.128 0-.16-.032-.16-.128V1.537l14.623 22.4c.1.128.416.1.416 0V1.345c0-.1.064-.128.192-.128h2.784zM368.76 51.52h1.7l.82-6.281h1.28c1.7 0 3.081-.04 4.181-.9a4.049 4.049 0 0 0 1.54-3.381A3.568 3.568 0 0 0 377 38.077c-1.08-.86-2.381-.86-4.061-.86h-2.3zm2.721-7.782l.68-4.981h1.24a4.075 4.075 0 0 1 2.181.38 2.068 2.068 0 0 1 .96 1.88 2.471 2.471 0 0 1-1.36 2.38 6.072 6.072 0 0 1-2.541.34h-1.16zm13.949.3l.4-1.58a2.231 2.231 0 0 0-.9-.2A3.159 3.159 0 0 0 382.31 44l.24-1.42h-1.541l-1.18 8.942h1.52l.56-4.221c.321-2.361 1.081-3.521 2.481-3.521a2.284 2.284 0 0 1 1.04.258zm1.919 3.381a4.236 4.236 0 0 0 4.5 4.481c2.921 0 5.021-2.14 5.021-5.361a4.273 4.273 0 0 0-4.481-4.281 5 5 0 0 0-5.04 5.161zm4.961-3.9a3.044 3.044 0 0 1 3.021 3.3c0 2.24-1.441 3.841-3.381 3.841a3 3 0 0 1-3.041-3.281c0-2.261 1.461-3.861 3.401-3.861zm14.159 8h1.72l.92-6.941h5.642l.2-1.54h-5.642l.561-4.261h5.641l.22-1.56h-7.382zm10.248-4.1a4.237 4.237 0 0 0 4.5 4.481c2.921 0 5.021-2.14 5.021-5.361a4.273 4.273 0 0 0-4.481-4.281 5 5 0 0 0-5.04 5.161zm4.961-3.9a3.044 3.044 0 0 1 3.021 3.3c0 2.24-1.44 3.841-3.381 3.841a3 3 0 0 1-3.04-3.281c0-2.261 1.46-3.861 3.4-3.861zm7.059 3.9a4.237 4.237 0 0 0 4.5 4.481c2.921 0 5.021-2.14 5.021-5.361a4.273 4.273 0 0 0-4.481-4.281 5 5 0 0 0-5.04 5.161zm4.961-3.9a3.044 3.044 0 0 1 3.021 3.3c0 2.24-1.44 3.841-3.381 3.841a3 3 0 0 1-3.04-3.281c.002-2.261 1.46-3.861 3.402-3.861zm7.679 8h1.561l1-7.642h1.98l.16-1.3h-1.96l.48-3.6h-1.58l-.46 3.6H440.9l-.18 1.3h1.66zm7.8 0l.22-1.74a3.273 3.273 0 0 0 3.261 2.12 4.237 4.237 0 0 0 3.421-1.68 5.609 5.609 0 0 0 1.16-3.361c0-2.821-1.6-4.581-3.881-4.581a3.844 3.844 0 0 0-3.221 1.7l1.021-7.6H449.6l-2 15.143h1.58zm3.661-7.782a2.79 2.79 0 0 1 2.821 3.061 3.437 3.437 0 0 1-3.381 3.741c-1.48 0-2.561-1.18-2.561-3.041 0-2.22 1.441-3.76 3.121-3.76zm15.22-1.16l-.24 1.8a3.246 3.246 0 0 0-3.26-2.12c-2.621 0-4.6 2.14-4.6 5.121 0 2.721 1.62 4.5 3.86 4.5a3.812 3.812 0 0 0 3.261-1.7l-.22 1.34h1.56l1.181-8.942h-1.541zm-3.7 7.882a2.817 2.817 0 0 1-2.821-3.081 3.436 3.436 0 0 1 3.381-3.741c1.48 0 2.56 1.18 2.56 3.041 0 2.222-1.44 3.781-3.12 3.781zm9.679 1.06l1.98-15.143h-1.56l-2 15.143h1.581zm5.82 0l1.98-15.143h-1.56l-2 15.143h1.581zm11.079 0h1.7l.82-6.281h1.28c1.7 0 3.081-.04 4.181-.9a4.049 4.049 0 0 0 1.54-3.381 3.568 3.568 0 0 0-1.28-2.881c-1.08-.86-2.381-.86-4.061-.86h-2.3zm2.721-7.782l.68-4.981h1.24a4.073 4.073 0 0 1 2.181.38 2.068 2.068 0 0 1 .96 1.88 2.471 2.471 0 0 1-1.36 2.38 6.072 6.072 0 0 1-2.541.34h-1.16zM504 51.52l1.98-15.143h-1.56l-2 15.143H504zm12.181-8.942l-.24 1.8a3.247 3.247 0 0 0-3.261-2.12c-2.62 0-4.6 2.14-4.6 5.121 0 2.721 1.62 4.5 3.861 4.5a3.814 3.814 0 0 0 3.261-1.7l-.22 1.34h1.56l1.18-8.942h-1.54zm-3.7 7.882a2.817 2.817 0 0 1-2.821-3.081 3.437 3.437 0 0 1 3.381-3.741c1.48 0 2.561 1.18 2.561 3.041-.002 2.221-1.445 3.78-3.125 3.78zm7.3 5.421h1.74l7.7-13.3h-1.781l-3.48 6.381-1.841-6.381h-1.66l2.44 7.962zm18.061-9.842H532.3a3.067 3.067 0 0 1 3.081-2.521 2.288 2.288 0 0 1 2.456 2.52zm1.481 1.28c.02-.24.02-.48.02-.7 0-2.781-1.461-4.361-3.941-4.361a4.862 4.862 0 0 0-4.8 5.181 4.113 4.113 0 0 0 4.361 4.461 4.626 4.626 0 0 0 3.76-2.02l-1.08-.88a3.365 3.365 0 0 1-2.74 1.56c-1.681 0-2.741-1.16-2.741-3.081v-.16h7.162zm8.279-3.281l.4-1.58a2.231 2.231 0 0 0-.9-.2A3.161 3.161 0 0 0 544.476 44l.24-1.42h-1.54L542 51.52h1.52l.56-4.221c.32-2.361 1.08-3.521 2.481-3.521a2.284 2.284 0 0 1 1.039.26z"/><path id="Matt_is_wearing_the_Fulton_skinny_fit._" data-name="Matt is wearing the Fulton skinny fit." d="M1.225 494.664l1.056-7.427 3.585 7.875 3.634-7.875 1.008 7.427h1.217l-1.665-11.285-4.178 9.028-4.1-9.012-1.774 11.269h1.217zm18.561-5.7a2.746 2.746 0 0 0-2.273-1.105 3.508 3.508 0 0 0 0 7 2.8 2.8 0 0 0 2.273-1.121v.929h1.152v-6.643h-1.152v.945zm-2.145-.081a2.489 2.489 0 0 1 0 4.946 2.493 2.493 0 0 1 .001-4.944zm8.607.193v-1.057H25.1v-2.4h-1.156v2.4h-.7v1.057h.7v5.586H25.1v-5.586h1.152zm4.544 0v-1.057H29.64v-2.4h-1.152v2.4h-.7v1.057h.7v5.586h1.152v-5.586h1.152zm6.415-1.057v6.643h1.153v-6.643h-1.153zm-.24-2.513a.816.816 0 1 0 .816-.816.82.82 0 0 0-.816.818zm8.05 3.554a1.916 1.916 0 0 0-1.825-1.2 1.786 1.786 0 0 0-1.937 1.857 1.442 1.442 0 0 0 .3.976 4.347 4.347 0 0 0 1.617.977 1.262 1.262 0 0 1 1.072 1.1 1.031 1.031 0 0 1-1.088 1.056 1.5 1.5 0 0 1-1.345-1.088l-.992.416a2.376 2.376 0 0 0 2.321 1.7 2.113 2.113 0 0 0 2.289-2.177 1.571 1.571 0 0 0-.352-1.072 4.026 4.026 0 0 0-1.665-1.025c-.752-.32-1.072-.464-1.072-.944a.735.735 0 0 1 .8-.753 1.019 1.019 0 0 1 .928.673zm6.318-1.041l3.265 7.107 2.049-4.962 2.049 4.962 3.3-7.107h-1.284l-1.985 4.514-2.065-5.026-2.081 5.026-1.969-4.514h-1.279zm17.6 4.418a2.646 2.646 0 0 1-.688.912 2.02 2.02 0 0 1-1.361.48 2.127 2.127 0 0 1-2.113-2.256h5.17a4.459 4.459 0 0 0-.624-2.5 2.97 2.97 0 0 0-2.513-1.217 3.221 3.221 0 0 0-3.217 3.522 3.179 3.179 0 0 0 3.281 3.473 3.225 3.225 0 0 0 2.209-.816 3.992 3.992 0 0 0 .816-1.073zm-4.082-1.825a2.019 2.019 0 0 1 1.953-1.729 1.989 1.989 0 0 1 1.953 1.729h-3.904zm12.738-1.648a2.746 2.746 0 0 0-2.273-1.105 3.508 3.508 0 0 0 0 7 2.8 2.8 0 0 0 2.273-1.121v.929h1.152v-6.643h-1.15v.945zm-2.145-.081a2.489 2.489 0 0 1 0 4.946 2.493 2.493 0 0 1 .002-4.944zm6.271 5.779h1.152v-3.506a2.864 2.864 0 0 1 .384-1.792 1.116 1.116 0 0 1 .928-.416 1.186 1.186 0 0 1 .672.224l.544-1.041a2.434 2.434 0 0 0-1.024-.272 1.846 1.846 0 0 0-1.5.88v-.72h-1.155v6.643zm5.536-6.643v6.643h1.153v-6.643h-1.152zm-.24-2.513a.816.816 0 1 0 .816-.816.82.82 0 0 0-.815.818zm4.368 9.156h1.152v-3.472a2.8 2.8 0 0 1 .48-1.792 1.454 1.454 0 0 1 1.168-.513 1.3 1.3 0 0 1 1.089.481 1.952 1.952 0 0 1 .3 1.216v4.082h1.153v-4.114a2.965 2.965 0 0 0-.384-1.777 2.253 2.253 0 0 0-1.9-.912 2.343 2.343 0 0 0-1.9.928v-.768h-1.157v6.643zm13.41-5.7a2.762 2.762 0 0 0-2.273-1.105 3.276 3.276 0 0 0-2.273.9 3.486 3.486 0 0 0-.96 2.577 3.6 3.6 0 0 0 .96 2.626 3.183 3.183 0 0 0 2.273.9 2.8 2.8 0 0 0 2.273-1.121v.961a3.092 3.092 0 0 1-.368 1.7 1.863 1.863 0 0 1-1.761.928 2.059 2.059 0 0 1-1.6-.64 2.093 2.093 0 0 1-.512-1.377h-1.136a2.993 2.993 0 0 0 .864 2.145 3.291 3.291 0 0 0 2.369.9 3.232 3.232 0 0 0 2.657-1.232 4.182 4.182 0 0 0 .64-2.609v-6.483h-1.152v.945zm-2.145-.081a2.134 2.134 0 0 1 1.5.593 2.625 2.625 0 0 1 .7 1.872 2.693 2.693 0 0 1-.752 1.921 1.969 1.969 0 0 1-1.457.56 2.013 2.013 0 0 1-1.425-.544 2.56 2.56 0 0 1-.752-1.953 2.528 2.528 0 0 1 .672-1.824 2.061 2.061 0 0 1 1.515-.621zm13.135.193v-1.057h-1.151v-2.4h-1.153v2.4h-.7v1.057h.7v5.586h1.153v-5.586h1.152zm1.887 5.586h1.153v-3.47a2.8 2.8 0 0 1 .48-1.792 1.453 1.453 0 0 1 1.168-.513 1.306 1.306 0 0 1 1.089.481 1.952 1.952 0 0 1 .3 1.216v4.082h1.152v-4.114a2.966 2.966 0 0 0-.384-1.777 2.253 2.253 0 0 0-1.905-.912 2.342 2.342 0 0 0-1.9.928V483h-1.153v11.669zm13.09-2.225a2.645 2.645 0 0 1-.688.912 2.021 2.021 0 0 1-1.361.48 2.128 2.128 0 0 1-2.113-2.256h5.17a4.459 4.459 0 0 0-.624-2.5 2.969 2.969 0 0 0-2.513-1.217 3.221 3.221 0 0 0-3.217 3.522 3.179 3.179 0 0 0 3.281 3.473 3.224 3.224 0 0 0 2.209-.816 3.992 3.992 0 0 0 .816-1.073zm-4.082-1.825a2.02 2.02 0 0 1 1.953-1.729 1.988 1.988 0 0 1 1.953 1.729h-3.906zm17.33-6.626h-4.866v10.676h1.184v-5.282h3.554v-1.121h-3.554v-3.153h3.682v-1.12zm3.406 4.033h-1.152v4a2.643 2.643 0 0 0 .608 2 2.9 2.9 0 0 0 4.065 0 2.639 2.639 0 0 0 .609-2v-4h-1.152v3.883a2.26 2.26 0 0 1-.32 1.424 1.589 1.589 0 0 1-2.337 0 2.26 2.26 0 0 1-.32-1.424v-3.874zm7.1-5.026v11.669h1.153V483h-1.153zm6.465 6.083v-1.057h-1.152v-2.4h-1.153v2.4h-.7v1.057h.7v5.586h1.153v-5.586h1.152zm4.992 5.778a3.5 3.5 0 1 0-3.521-3.49 3.408 3.408 0 0 0 3.525 3.494zm0-5.971a2.477 2.477 0 1 1-2.337 2.481 2.3 2.3 0 0 1 2.341-2.477zm6.079 5.779h1.152v-3.47a2.8 2.8 0 0 1 .48-1.792 1.456 1.456 0 0 1 1.169-.513 1.3 1.3 0 0 1 1.088.481 1.953 1.953 0 0 1 .305 1.216v4.082h1.158v-4.114a2.966 2.966 0 0 0-.384-1.777 2.254 2.254 0 0 0-1.905-.912 2.345 2.345 0 0 0-1.905.928v-.768h-1.152v6.643zm16.529-5.6a1.916 1.916 0 0 0-1.825-1.2 1.786 1.786 0 0 0-1.937 1.857 1.442 1.442 0 0 0 .3.976 4.358 4.358 0 0 0 1.617.977 1.263 1.263 0 0 1 1.073 1.1 1.031 1.031 0 0 1-1.089 1.056 1.5 1.5 0 0 1-1.344-1.088l-.993.416a2.375 2.375 0 0 0 2.321 1.7 2.113 2.113 0 0 0 2.3-2.175 1.572 1.572 0 0 0-.352-1.072 4.024 4.024 0 0 0-1.665-1.025c-.752-.32-1.072-.464-1.072-.944a.734.734 0 0 1 .8-.753 1.019 1.019 0 0 1 .928.673zm2.75-6.067v11.669h1.153v-2.737l.288-.288 2.657 3.025h1.5l-3.361-3.794 2.849-2.849h-1.5l-2.433 2.465V483h-1.153zm7.552 5.026v6.643h1.153v-6.643h-1.153zm-.24-2.513a.817.817 0 1 0 .816-.816.819.819 0 0 0-.812.818zm4.368 9.156h1.152v-3.472a2.8 2.8 0 0 1 .481-1.792 1.453 1.453 0 0 1 1.168-.513 1.306 1.306 0 0 1 1.089.481 1.952 1.952 0 0 1 .3 1.216v4.082h1.152v-4.114a2.966 2.966 0 0 0-.384-1.777 2.253 2.253 0 0 0-1.905-.912 2.347 2.347 0 0 0-1.905.928v-.768h-1.152v6.643zm8.32 0h1.152v-3.472a2.8 2.8 0 0 1 .48-1.792 1.456 1.456 0 0 1 1.169-.513 1.3 1.3 0 0 1 1.088.481 1.946 1.946 0 0 1 .305 1.216v4.082h1.152v-4.114a2.966 2.966 0 0 0-.384-1.777 2.254 2.254 0 0 0-1.905-.912 2.345 2.345 0 0 0-1.905.928v-.768h-1.152v6.643zm8.3 3.681h1.28l4.882-10.324h-1.28l-2.161 4.754-2.348-4.752h-1.31l3.057 6.019zm15.52-9.267v-1.057h-1.632v-2.5a1.835 1.835 0 0 1 .224-1.04 1.663 1.663 0 0 1 2.4 0 2.012 2.012 0 0 1 .224 1.04v.281h1.152v-.272a3.163 3.163 0 0 0-.384-1.745 2.512 2.512 0 0 0-2.193-.976 2.475 2.475 0 0 0-2.193.976 2.863 2.863 0 0 0-.384 1.745v2.5h-.64v1.057h.64v5.586h1.153v-5.586h1.632zm1.217-1.057v6.643h1.152v-6.643h-1.152zm6.463 1.057v-1.057h-1.152v-2.4h-1.145v2.4h-.7v1.057h.7v5.586h1.153v-5.586h1.152zm1.823 4.946a.8.8 0 1 0 .8-.8.813.813 0 0 0-.792.802z" fill-rule="evenodd"/><path class="cls-1" d="M370 104h151.01v3H370v-3z"/><path id="SHOP_the_look" data-name="SHOP the look" class="cls-1" d="M376.725 84.182a4.84 4.84 0 0 0-3.05-1.056 3.235 3.235 0 0 0-2.54.976 3.351 3.351 0 0 0-.894 2.4 2.69 2.69 0 0 0 .616 1.856 3.433 3.433 0 0 0 1.432.848l.847.3a4.947 4.947 0 0 1 1.2.592.956.956 0 0 1 .354.768 1.123 1.123 0 0 1-.37.864 1.6 1.6 0 0 1-1.078.368 2.319 2.319 0 0 1-1.293-.384A6.323 6.323 0 0 1 371 90.9l-1.232 1.76a6.57 6.57 0 0 0 1.509 1.168 4.218 4.218 0 0 0 2.033.448 3.458 3.458 0 0 0 3.819-3.727 2.718 2.718 0 0 0-.755-1.984 4.071 4.071 0 0 0-1.4-.816l-.77-.3a4.073 4.073 0 0 1-1.294-.608.763.763 0 0 1-.231-.592.973.973 0 0 1 .262-.672 1.256 1.256 0 0 1 1-.368 2.451 2.451 0 0 1 1.725.768zm7.254-.816h-2.371v10.67h2.371v-4.527h4.1v4.527h2.371v-10.67h-2.371v4.063h-4.1v-4.063zm16.619-.24a5.4 5.4 0 0 0-4.02 1.568 6.079 6.079 0 0 0-1.586 4.047 5.419 5.419 0 0 0 5.606 5.535 5.376 5.376 0 0 0 3.973-1.568 5.836 5.836 0 0 0 0-8.031 5.375 5.375 0 0 0-3.971-1.551zm-.016 2.274a3.228 3.228 0 0 1 2.264.912 3.433 3.433 0 0 1 .893 2.4 3.26 3.26 0 0 1-.893 2.384 3.05 3.05 0 0 1-2.279.912 2.958 2.958 0 0 1-2.2-.88 3.245 3.245 0 0 1-.94-2.4 3.332 3.332 0 0 1 .909-2.416 3.088 3.088 0 0 1 2.246-.912zm10.135-2.032v10.67h2.372v-3.745h1.448a3.418 3.418 0 0 0 2.617-.944 3.5 3.5 0 0 0 .878-2.512 3.351 3.351 0 0 0-1-2.592 3.758 3.758 0 0 0-2.695-.88h-3.619zm2.372 2.016h.8a1.8 1.8 0 0 1 1.324.4 1.438 1.438 0 0 1 .385 1.04 1.516 1.516 0 0 1-.385 1.056 1.768 1.768 0 0 1-1.278.4h-.847v-2.9zm21.411.062v-2.08h-6.838v2.08h2.233v8.591h2.372v-8.591h2.233zm6.392-2.08h-2.371v10.67h2.371v-4.527h4.1v4.527h2.372v-10.67h-2.372v4.063h-4.1v-4.063zm17.3 0h-5.806v10.67h5.806v-2.08h-3.434v-2.367h3.264v-2.08h-3.264v-2.063h3.434v-2.08zm11.059 0v10.67h5.549v-2.08h-3.187v-8.59h-2.372zm14.477-.24a5.4 5.4 0 0 0-4.019 1.568 6.079 6.079 0 0 0-1.586 4.047 5.417 5.417 0 0 0 5.605 5.535 5.372 5.372 0 0 0 3.973-1.568 5.833 5.833 0 0 0 0-8.031 5.372 5.372 0 0 0-3.98-1.551zm-.022 2.274a3.23 3.23 0 0 1 2.264.912 3.433 3.433 0 0 1 .893 2.4 3.26 3.26 0 0 1-.893 2.384 3.05 3.05 0 0 1-2.279.912 2.961 2.961 0 0 1-2.2-.88 3.249 3.249 0 0 1-.939-2.4 3.332 3.332 0 0 1 .909-2.416 3.088 3.088 0 0 1 2.245-.912zm15.263-2.272a5.4 5.4 0 0 0-4.019 1.568 6.079 6.079 0 0 0-1.586 4.047 5.417 5.417 0 0 0 5.605 5.535 5.372 5.372 0 0 0 3.973-1.568 5.833 5.833 0 0 0 0-8.031 5.372 5.372 0 0 0-3.973-1.553zm-.015 2.272a3.232 3.232 0 0 1 2.264.912 3.433 3.433 0 0 1 .893 2.4 3.26 3.26 0 0 1-.893 2.384 3.051 3.051 0 0 1-2.28.912 2.961 2.961 0 0 1-2.2-.88 3.249 3.249 0 0 1-.939-2.4 3.332 3.332 0 0 1 .909-2.416 3.088 3.088 0 0 1 2.246-.912zm12.507-2.032h-2.372v10.67h2.372V89.3l3.68 4.735h3.049l-4.481-5.615 4.158-5.055h-2.895l-3.511 4.447v-4.446z"/></svg>