<svg id="CTA_underline_copy" data-name="CTA_underline copy" xmlns="http://www.w3.org/2000/svg" width="640" height="680" viewBox="0 0 640 680">
  <defs>
    <style>
      .cls-1 {
        fill: #fff;
      }

      .cls-1, .cls-2 {
        fill-rule: evenodd;
      }
    </style>
  </defs>
  <path id="_Tees_polos_or_button-downs_these_chinos_work_with_everything" data-name="“Tees, polos or button-downs, these chinos work with everything" class="cls-1" d="M47.533,336.362l-1.034-.418-2.222,4.972,1.43,0.528Zm3.212,0-1.034-.418-2.222,4.972,1.474,0.528Zm12.364,1.54v-1.54H54.352v1.54h3.565v13.136h1.628V337.9h3.564Zm7.832,10.077a3.638,3.638,0,0,1-.946,1.254,2.772,2.772,0,0,1-1.87.661,2.926,2.926,0,0,1-2.9-3.1h7.107a6.129,6.129,0,0,0-.858-3.432,4.086,4.086,0,0,0-3.454-1.673c-2.75,0-4.423,2.113-4.423,4.841,0,3.389,2.31,4.775,4.511,4.775a4.433,4.433,0,0,0,3.036-1.122,5.467,5.467,0,0,0,1.122-1.475Zm-5.611-2.508a2.775,2.775,0,0,1,2.684-2.376,2.733,2.733,0,0,1,2.684,2.376H65.33Zm17.293,2.508a3.638,3.638,0,0,1-.946,1.254,2.772,2.772,0,0,1-1.87.661,2.925,2.925,0,0,1-2.9-3.1h7.107a6.13,6.13,0,0,0-.858-3.432,4.086,4.086,0,0,0-3.454-1.673c-2.75,0-4.423,2.113-4.423,4.841,0,3.389,2.31,4.775,4.511,4.775a4.433,4.433,0,0,0,3.036-1.122,5.465,5.465,0,0,0,1.122-1.475Zm-5.611-2.508A2.775,2.775,0,0,1,79.7,343.1a2.733,2.733,0,0,1,2.684,2.376H77.012Zm15.576-2.134a2.634,2.634,0,0,0-2.508-1.651,2.455,2.455,0,0,0-2.662,2.553,1.982,1.982,0,0,0,.418,1.342,5.956,5.956,0,0,0,2.222,1.342c0.858,0.374,1.474.66,1.474,1.518a1.418,1.418,0,0,1-1.5,1.453,2.067,2.067,0,0,1-1.848-1.5l-1.364.572a3.266,3.266,0,0,0,3.191,2.333,2.9,2.9,0,0,0,3.146-2.993,2.161,2.161,0,0,0-.484-1.474,5.552,5.552,0,0,0-2.288-1.408c-1.034-.44-1.474-0.638-1.474-1.3a1.009,1.009,0,0,1,1.1-1.034,1.4,1.4,0,0,1,1.276.924ZM95.4,353.964l1.034,0.418,2.222-4.972-1.452-.529Zm15.906-4.2a3.876,3.876,0,0,0,3.19,1.54c2.772,0,4.379-2.267,4.379-4.775,0-2.464-1.585-4.841-4.445-4.841a3.925,3.925,0,0,0-3.124,1.5v-1.277h-1.585V356.1h1.585v-6.336Zm2.97,0.132a3.124,3.124,0,0,1-3.058-3.389,3.169,3.169,0,0,1,3.036-3.41,3.131,3.131,0,0,1,2.992,3.432A3.076,3.076,0,0,1,114.279,349.894Zm12.386,1.408a4.808,4.808,0,1,0-4.841-4.8A4.683,4.683,0,0,0,126.665,351.3Zm0-8.207a3.4,3.4,0,1,1-3.213,3.41A3.16,3.16,0,0,1,126.665,343.1Zm8.359-8.1v16.041h1.584V335h-1.584Zm9.944,16.305a4.808,4.808,0,1,0-4.841-4.8A4.683,4.683,0,0,0,144.968,351.3Zm0-8.207a3.4,3.4,0,1,1-3.212,3.41A3.161,3.161,0,0,1,144.968,343.1Zm13.42,0.242a2.633,2.633,0,0,0-2.508-1.651,2.456,2.456,0,0,0-2.663,2.553,1.983,1.983,0,0,0,.418,1.342,5.953,5.953,0,0,0,2.223,1.342c0.858,0.374,1.474.66,1.474,1.518a1.418,1.418,0,0,1-1.5,1.453,2.067,2.067,0,0,1-1.849-1.5l-1.364.572a3.266,3.266,0,0,0,3.191,2.333,2.9,2.9,0,0,0,3.146-2.993,2.161,2.161,0,0,0-.484-1.474,5.551,5.551,0,0,0-2.288-1.408c-1.034-.44-1.475-0.638-1.475-1.3a1.01,1.01,0,0,1,1.1-1.034,1.4,1.4,0,0,1,1.276.924Zm14.277,7.965a4.808,4.808,0,1,0-4.84-4.8A4.683,4.683,0,0,0,172.665,351.3Zm0-8.207a3.4,3.4,0,1,1-3.212,3.41A3.161,3.161,0,0,1,172.665,343.1Zm8.359,7.943h1.585v-4.819a3.94,3.94,0,0,1,.528-2.464,1.533,1.533,0,0,1,1.276-.572,1.63,1.63,0,0,1,.924.308l0.748-1.431a3.346,3.346,0,0,0-1.408-.374,2.537,2.537,0,0,0-2.068,1.211v-0.991h-1.585v9.132ZM46.08,379.762a3.877,3.877,0,0,0,3.191,1.54c2.772,0,4.379-2.267,4.379-4.775,0-2.464-1.584-4.841-4.445-4.841a3.926,3.926,0,0,0-3.125,1.5V365H44.5v16.041H46.08v-1.276Zm2.971,0.132a3.124,3.124,0,0,1-3.058-3.389,3.169,3.169,0,0,1,3.036-3.41,3.131,3.131,0,0,1,2.992,3.432A3.076,3.076,0,0,1,49.051,379.894Zm9.7-7.988H57.168v5.5A3.631,3.631,0,0,0,58,380.158a3.985,3.985,0,0,0,5.589,0,3.631,3.631,0,0,0,.836-2.751v-5.5H62.845v5.325a3.108,3.108,0,0,1-.44,1.958,2.182,2.182,0,0,1-3.212,0,3.107,3.107,0,0,1-.44-1.958v-5.325Zm12.98,1.453v-1.453H70.148v-3.3H68.564v3.3H67.6v1.453h0.968v7.679h1.584v-7.679h1.584Zm6.248,0v-1.453H76.4v-3.3H74.811v3.3H73.843v1.453h0.968v7.679H76.4v-7.679H77.98Zm6.864,7.943a4.808,4.808,0,1,0-4.841-4.8A4.684,4.684,0,0,0,84.844,381.3Zm0-8.207a3.4,3.4,0,1,1-3.212,3.41A3.161,3.161,0,0,1,84.844,373.1Zm8.359,7.943h1.584v-4.775a3.846,3.846,0,0,1,.66-2.464,2,2,0,0,1,1.606-.7,1.792,1.792,0,0,1,1.5.66,2.684,2.684,0,0,1,.418,1.672v5.611h1.585v-5.655a4.072,4.072,0,0,0-.528-2.442,3.1,3.1,0,0,0-2.619-1.255,3.221,3.221,0,0,0-2.618,1.277v-1.057H93.2v9.132Zm11.043-3.873h4.841v-1.628h-4.841v1.628Zm15.533-3.96a3.778,3.778,0,0,0-3.124-1.519c-2.333,0-4.445,1.629-4.445,4.775,0,3.213,2.134,4.841,4.445,4.841a3.851,3.851,0,0,0,3.124-1.54v1.276h1.584V365h-1.584v8.208Zm-2.948-.11a3.421,3.421,0,0,1,0,6.8c-1.893,0-2.993-1.475-2.993-3.433A3.035,3.035,0,0,1,116.831,373.1Zm12.891,8.207a4.808,4.808,0,1,0-4.84-4.8A4.684,4.684,0,0,0,129.722,381.3Zm0-8.207a3.4,3.4,0,1,1-3.212,3.41A3.161,3.161,0,0,1,129.722,373.1Zm7.039-1.189,4.489,9.77,2.816-6.821,2.817,6.821,4.532-9.77h-1.76l-2.728,6.2-2.839-6.909-2.86,6.909-2.706-6.2h-1.761Zm17.424,9.132h1.585v-4.775a3.846,3.846,0,0,1,.66-2.464,2,2,0,0,1,1.606-.7,1.792,1.792,0,0,1,1.5.66,2.684,2.684,0,0,1,.418,1.672v5.611h1.584v-5.655a4.072,4.072,0,0,0-.528-2.442,3.1,3.1,0,0,0-2.618-1.255,3.221,3.221,0,0,0-2.618,1.277v-1.057h-1.585v9.132Zm16.5-7.7a2.634,2.634,0,0,0-2.509-1.651,2.455,2.455,0,0,0-2.662,2.553,1.983,1.983,0,0,0,.418,1.342,5.955,5.955,0,0,0,2.222,1.342c0.859,0.374,1.475.66,1.475,1.518a1.418,1.418,0,0,1-1.5,1.453,2.067,2.067,0,0,1-1.848-1.5l-1.364.572a3.265,3.265,0,0,0,3.19,2.333,2.9,2.9,0,0,0,3.147-2.993,2.161,2.161,0,0,0-.484-1.474,5.549,5.549,0,0,0-2.289-1.408c-1.034-.44-1.474-0.638-1.474-1.3a1.009,1.009,0,0,1,1.1-1.034,1.4,1.4,0,0,1,1.277.924Zm2.815,10.627,1.034,0.418,2.222-4.973-1.452-.528Zm17.534-10.605v-1.453H189.45v-3.3h-1.584v3.3H186.9v1.453h0.968v7.679h1.584v-7.679h1.585Zm2.595,7.679h1.584v-4.775a3.846,3.846,0,0,1,.66-2.464,2,2,0,0,1,1.607-.7,1.792,1.792,0,0,1,1.5.66,2.684,2.684,0,0,1,.418,1.672v5.611h1.584v-5.655a4.072,4.072,0,0,0-.528-2.442,3.1,3.1,0,0,0-2.618-1.255,3.222,3.222,0,0,0-2.619,1.277V365H193.63v16.041Zm18-3.059a3.637,3.637,0,0,1-.946,1.254,2.774,2.774,0,0,1-1.871.661,2.925,2.925,0,0,1-2.9-3.1h7.107a6.13,6.13,0,0,0-.858-3.432,4.086,4.086,0,0,0-3.455-1.673c-2.75,0-4.422,2.113-4.422,4.841,0,3.389,2.31,4.775,4.51,4.775a4.433,4.433,0,0,0,3.037-1.122,5.451,5.451,0,0,0,1.122-1.475Zm-5.611-2.508A2.775,2.775,0,0,1,208.7,373.1a2.733,2.733,0,0,1,2.685,2.376h-5.369Zm15.576-2.134a2.633,2.633,0,0,0-2.508-1.651,2.455,2.455,0,0,0-2.662,2.553,1.983,1.983,0,0,0,.418,1.342,5.955,5.955,0,0,0,2.222,1.342c0.858,0.374,1.474.66,1.474,1.518a1.418,1.418,0,0,1-1.5,1.453,2.067,2.067,0,0,1-1.848-1.5l-1.365.572a3.267,3.267,0,0,0,3.191,2.333,2.9,2.9,0,0,0,3.146-2.993,2.161,2.161,0,0,0-.484-1.474,5.551,5.551,0,0,0-2.288-1.408c-1.034-.44-1.474-0.638-1.474-1.3a1.009,1.009,0,0,1,1.1-1.034,1.4,1.4,0,0,1,1.276.924Zm10.56,4.642a3.637,3.637,0,0,1-.946,1.254,2.771,2.771,0,0,1-1.87.661,2.926,2.926,0,0,1-2.905-3.1h7.108a6.138,6.138,0,0,0-.859-3.432,4.085,4.085,0,0,0-3.454-1.673c-2.751,0-4.423,2.113-4.423,4.841,0,3.389,2.311,4.775,4.511,4.775a4.432,4.432,0,0,0,3.036-1.122,5.451,5.451,0,0,0,1.122-1.475Zm-5.611-2.508a2.776,2.776,0,0,1,2.685-2.376,2.732,2.732,0,0,1,2.684,2.376h-5.369Zm-174.894,27.1a4.829,4.829,0,0,0-2.839-.881,4.809,4.809,0,1,0,0,9.616,4.877,4.877,0,0,0,2.9-.946v-1.893a3.891,3.891,0,0,1-2.948,1.431,3.4,3.4,0,0,1,.022-6.8,3.684,3.684,0,0,1,2.861,1.364v-1.892Zm3.585,8.471h1.584v-4.775a3.846,3.846,0,0,1,.66-2.464,2,2,0,0,1,1.606-.7,1.792,1.792,0,0,1,1.5.66A2.684,2.684,0,0,1,61,405.427v5.611h1.584v-5.655a4.072,4.072,0,0,0-.528-2.442,3.1,3.1,0,0,0-2.618-1.255,3.221,3.221,0,0,0-2.618,1.277V395H55.232v16.041Zm11.44-9.132v9.132h1.584v-9.132H66.672Zm-0.33-3.454a1.122,1.122,0,1,0,1.122-1.122A1.127,1.127,0,0,0,66.342,398.452Zm6.006,12.586h1.584v-4.775a3.846,3.846,0,0,1,.66-2.464,2,2,0,0,1,1.606-.7,1.792,1.792,0,0,1,1.5.66,2.684,2.684,0,0,1,.418,1.672v5.611H79.7v-5.655a4.072,4.072,0,0,0-.528-2.442,3.1,3.1,0,0,0-2.618-1.255,3.222,3.222,0,0,0-2.618,1.277v-1.057H72.348v9.132ZM88.056,411.3a4.808,4.808,0,1,0-4.841-4.8A4.684,4.684,0,0,0,88.056,411.3Zm0-8.207a3.4,3.4,0,1,1-3.213,3.41A3.161,3.161,0,0,1,88.056,403.1Zm13.42,0.242a2.634,2.634,0,0,0-2.509-1.651,2.455,2.455,0,0,0-2.662,2.553,1.983,1.983,0,0,0,.418,1.342,5.957,5.957,0,0,0,2.222,1.342c0.858,0.374,1.474.66,1.474,1.518a1.417,1.417,0,0,1-1.5,1.453,2.067,2.067,0,0,1-1.848-1.5l-1.364.572A3.265,3.265,0,0,0,98.9,411.3a2.9,2.9,0,0,0,3.147-2.993,2.161,2.161,0,0,0-.484-1.474,5.557,5.557,0,0,0-2.289-1.408c-1.034-.44-1.474-0.638-1.474-1.3a1.009,1.009,0,0,1,1.1-1.034,1.4,1.4,0,0,1,1.276.924Zm8.688-1.431,4.489,9.77,2.816-6.821,2.817,6.821,4.532-9.77h-1.76l-2.728,6.2-2.839-6.909-2.86,6.909-2.707-6.2h-1.76Zm21.693,9.4a4.808,4.808,0,1,0-4.841-4.8A4.684,4.684,0,0,0,131.857,411.3Zm0-8.207a3.4,3.4,0,1,1-3.213,3.41A3.16,3.16,0,0,1,131.857,403.1Zm8.359,7.943H141.8v-4.819a3.94,3.94,0,0,1,.528-2.464,1.533,1.533,0,0,1,1.276-.572,1.635,1.635,0,0,1,.925.308l0.748-1.431a3.35,3.35,0,0,0-1.409-.374A2.537,2.537,0,0,0,141.8,402.9v-0.991h-1.584v9.132ZM147.828,395v16.041h1.584v-3.763l0.4-.4,3.652,4.159h2.069l-4.621-5.215,3.917-3.917h-2.069l-3.344,3.389V395h-1.584Zm15.289,6.909,4.489,9.77,2.816-6.821,2.817,6.821,4.532-9.77h-1.76l-2.728,6.2-2.839-6.909-2.86,6.909-2.707-6.2h-1.76Zm17.424,0v9.132h1.584v-9.132h-1.584Zm-0.33-3.454a1.122,1.122,0,1,0,1.122-1.122A1.127,1.127,0,0,0,180.211,398.452Zm9.218,4.907v-1.453h-1.584v-3.3h-1.584v3.3h-0.968v1.453h0.968v7.679h1.584v-7.679h1.584Zm2.6,7.679h1.584v-4.775a3.846,3.846,0,0,1,.66-2.464,2,2,0,0,1,1.606-.7,1.792,1.792,0,0,1,1.5.66,2.679,2.679,0,0,1,.419,1.672v5.611h1.584v-5.655a4.072,4.072,0,0,0-.528-2.442,3.1,3.1,0,0,0-2.619-1.255,3.221,3.221,0,0,0-2.618,1.277V395h-1.584v16.041ZM51.273,437.979a3.638,3.638,0,0,1-.946,1.254,2.772,2.772,0,0,1-1.87.661,2.925,2.925,0,0,1-2.9-3.1h7.107a6.129,6.129,0,0,0-.858-3.432,4.086,4.086,0,0,0-3.454-1.673c-2.75,0-4.423,2.113-4.423,4.841,0,3.389,2.31,4.775,4.511,4.775a4.433,4.433,0,0,0,3.036-1.122,5.467,5.467,0,0,0,1.122-1.475Zm-5.611-2.508a2.775,2.775,0,0,1,2.684-2.376,2.733,2.733,0,0,1,2.684,2.376H45.662Zm9.2-3.565,4.489,9.726,4.489-9.726h-1.76l-2.728,6.161-2.728-6.161h-1.76Zm18.525,6.073a3.636,3.636,0,0,1-.946,1.254,2.772,2.772,0,0,1-1.87.661,2.925,2.925,0,0,1-2.9-3.1h7.107a6.129,6.129,0,0,0-.858-3.432,4.086,4.086,0,0,0-3.454-1.673c-2.75,0-4.423,2.113-4.423,4.841,0,3.389,2.31,4.775,4.511,4.775a4.433,4.433,0,0,0,3.037-1.122,5.467,5.467,0,0,0,1.122-1.475Zm-5.611-2.508a2.775,2.775,0,0,1,2.684-2.376,2.733,2.733,0,0,1,2.684,2.376H67.772Zm10.516,5.567h1.584v-4.819a3.939,3.939,0,0,1,.528-2.464,1.534,1.534,0,0,1,1.276-.572,1.63,1.63,0,0,1,.924.308l0.748-1.431a3.346,3.346,0,0,0-1.408-.374,2.538,2.538,0,0,0-2.068,1.211v-0.991H78.288v9.132Zm8.272,5.06h1.76l6.711-14.192H93.27l-2.97,6.535-3.234-6.535h-1.8l4.2,8.274Zm14.454-12.739v-1.453H99.429v-3.3H97.845v3.3H96.877v1.453h0.968v7.679h1.584v-7.679h1.584Zm2.6,7.679h1.584v-4.775a3.846,3.846,0,0,1,.66-2.464,2,2,0,0,1,1.606-.7,1.792,1.792,0,0,1,1.5.66,2.679,2.679,0,0,1,.419,1.672v5.611h1.584v-5.655a4.072,4.072,0,0,0-.528-2.442,3.1,3.1,0,0,0-2.619-1.255,3.221,3.221,0,0,0-2.618,1.277V425h-1.584v16.041Zm11.439-9.132v9.132h1.585v-9.132h-1.585Zm-0.33-3.454a1.123,1.123,0,1,0,1.123-1.122A1.127,1.127,0,0,0,114.718,428.452Zm6.006,12.586h1.585v-4.775a3.84,3.84,0,0,1,.66-2.464,2,2,0,0,1,1.606-.7,1.792,1.792,0,0,1,1.5.66,2.684,2.684,0,0,1,.418,1.672v5.611h1.584v-5.655a4.072,4.072,0,0,0-.528-2.442,3.1,3.1,0,0,0-2.618-1.255,3.221,3.221,0,0,0-2.618,1.277v-1.057h-1.585v9.132Zm18.437-7.833a3.8,3.8,0,0,0-3.125-1.519,4.5,4.5,0,0,0-3.124,1.233,4.789,4.789,0,0,0-1.32,3.542,4.947,4.947,0,0,0,1.32,3.609,4.373,4.373,0,0,0,3.124,1.232,3.852,3.852,0,0,0,3.125-1.54v1.32a4.244,4.244,0,0,1-.506,2.332,2.56,2.56,0,0,1-2.42,1.276,2.828,2.828,0,0,1-2.2-.88,2.874,2.874,0,0,1-.7-1.892h-1.562a4.114,4.114,0,0,0,1.188,2.948,4.522,4.522,0,0,0,3.257,1.232,4.442,4.442,0,0,0,3.652-1.694,5.744,5.744,0,0,0,.88-3.586v-8.912h-1.584v1.3Zm-2.948-.11a2.927,2.927,0,0,1,2.068.814,3.61,3.61,0,0,1,.968,2.574,3.7,3.7,0,0,1-1.034,2.64,2.7,2.7,0,0,1-2,.771,2.759,2.759,0,0,1-1.959-.749,3.519,3.519,0,0,1-1.034-2.684,3.476,3.476,0,0,1,.924-2.508A2.831,2.831,0,0,1,136.213,433.1Zm21.625,4.884a3.637,3.637,0,0,1-.946,1.254,2.771,2.771,0,0,1-1.87.661,2.925,2.925,0,0,1-2.9-3.1h7.107a6.13,6.13,0,0,0-.859-3.432,4.085,4.085,0,0,0-3.454-1.673c-2.751,0-4.423,2.113-4.423,4.841,0,3.389,2.311,4.775,4.511,4.775a4.432,4.432,0,0,0,3.036-1.122,5.491,5.491,0,0,0,1.123-1.475Zm-5.61-2.508a2.775,2.775,0,0,1,2.684-2.376,2.732,2.732,0,0,1,2.684,2.376h-5.368ZM162.743,425v16.041h1.584V425h-1.584Zm10.737,8.34a2.634,2.634,0,0,0-2.509-1.651,2.455,2.455,0,0,0-2.662,2.553,1.983,1.983,0,0,0,.418,1.342,5.955,5.955,0,0,0,2.222,1.342c0.858,0.374,1.474.66,1.474,1.518a1.418,1.418,0,0,1-1.5,1.453,2.067,2.067,0,0,1-1.848-1.5l-1.364.572a3.265,3.265,0,0,0,3.19,2.333,2.9,2.9,0,0,0,3.147-2.993,2.161,2.161,0,0,0-.484-1.474,5.557,5.557,0,0,0-2.289-1.408c-1.034-.44-1.474-0.638-1.474-1.3a1.009,1.009,0,0,1,1.1-1.034,1.4,1.4,0,0,1,1.276.924Zm10.56,4.642a3.637,3.637,0,0,1-.946,1.254,2.776,2.776,0,0,1-1.871.661,2.925,2.925,0,0,1-2.9-3.1h7.107a6.13,6.13,0,0,0-.858-3.432,4.086,4.086,0,0,0-3.455-1.673c-2.75,0-4.422,2.113-4.422,4.841,0,3.389,2.31,4.775,4.51,4.775a4.434,4.434,0,0,0,3.037-1.122,5.467,5.467,0,0,0,1.122-1.475Zm-5.611-2.508a2.775,2.775,0,0,1,2.684-2.376,2.733,2.733,0,0,1,2.685,2.376h-5.369Zm17.137-9.109v14.676h1.628V426.362h-1.628ZM51.493,463.205a3.778,3.778,0,0,0-3.124-1.519c-2.332,0-4.445,1.629-4.445,4.775,0,3.213,2.134,4.841,4.445,4.841a3.852,3.852,0,0,0,3.124-1.54v1.276h1.584v-9.132H51.493v1.3Zm-2.948-.11a3.421,3.421,0,0,1,0,6.8c-1.892,0-2.992-1.475-2.992-3.433A3.035,3.035,0,0,1,48.545,463.1Zm8.623-8.1v16.041h1.584V455H57.168Zm5.676,16.041h1.584v-4.819a3.939,3.939,0,0,1,.528-2.464,1.533,1.533,0,0,1,1.276-.572,1.63,1.63,0,0,1,.924.308L67.9,462.06a3.347,3.347,0,0,0-1.408-.374,2.538,2.538,0,0,0-2.068,1.211v-0.991H62.844v9.132ZM76.7,467.979a3.638,3.638,0,0,1-.946,1.254,2.772,2.772,0,0,1-1.87.661,2.925,2.925,0,0,1-2.9-3.1h7.107a6.13,6.13,0,0,0-.858-3.432,4.086,4.086,0,0,0-3.454-1.673c-2.75,0-4.423,2.113-4.423,4.841,0,3.389,2.31,4.775,4.511,4.775A4.433,4.433,0,0,0,76.9,470.18a5.467,5.467,0,0,0,1.122-1.475Zm-5.611-2.508a2.775,2.775,0,0,1,2.684-2.376,2.733,2.733,0,0,1,2.684,2.376H71.094Zm17.513-2.266a3.778,3.778,0,0,0-3.124-1.519c-2.332,0-4.445,1.629-4.445,4.775,0,3.213,2.134,4.841,4.445,4.841a3.852,3.852,0,0,0,3.124-1.54v1.276h1.584v-9.132H88.607v1.3Zm-2.948-.11a3.421,3.421,0,0,1,0,6.8c-1.892,0-2.992-1.475-2.992-3.433A3.035,3.035,0,0,1,85.658,463.1Zm15.62,0.11a3.778,3.778,0,0,0-3.124-1.519c-2.332,0-4.445,1.629-4.445,4.775,0,3.213,2.134,4.841,4.445,4.841a3.851,3.851,0,0,0,3.124-1.54v1.276h1.584V455h-1.584v8.208Zm-2.948-.11a3.421,3.421,0,0,1,0,6.8c-1.892,0-2.992-1.475-2.992-3.433A3.035,3.035,0,0,1,98.33,463.1Zm8.6,13h1.76l6.711-14.192h-1.76l-2.971,6.535-3.234-6.535h-1.8l4.2,8.274Zm21.736-4.8a4.808,4.808,0,1,0-4.841-4.8A4.684,4.684,0,0,0,128.667,471.3Zm0-8.207a3.4,3.4,0,1,1-3.212,3.41A3.161,3.161,0,0,1,128.667,463.1Zm7.039-1.189,4.489,9.77,2.816-6.821,2.816,6.821,4.533-9.77H148.6l-2.729,6.2-2.838-6.909-2.86,6.909-2.707-6.2h-1.76Zm17.424,9.132h1.584v-4.775a3.846,3.846,0,0,1,.66-2.464,2,2,0,0,1,1.607-.7,1.792,1.792,0,0,1,1.5.66,2.684,2.684,0,0,1,.418,1.672v5.611h1.584v-5.655a4.072,4.072,0,0,0-.528-2.442,3.1,3.1,0,0,0-2.618-1.255,3.222,3.222,0,0,0-2.619,1.277v-1.057H153.13v9.132Zm11.352-.88a1.1,1.1,0,1,0,1.1-1.1A1.118,1.118,0,0,0,164.482,470.158Zm5.984-9.242,1.034,0.418,2.222-4.972-1.474-.528Zm3.212,0,1.034,0.418,2.222-4.972-1.43-.528Z"/>
  <path id="CJ_McCOLLUM_Pro_Basketball_Player" data-name="CJ McCOLLUM Pro Basketball Player" class="cls-1" d="M62.487,144v-8.64a0.347,0.347,0,0,0-.352,0c0,4.192-3.168,8.352-7.039,8.352a4.721,4.721,0,0,1-3.584-1.216c-1.472-1.536-2.048-4.768-2.048-10.3s0.576-8.767,2.048-10.3a4.356,4.356,0,0,1,3.424-1.216c3.136,0,6.623,4.128,6.623,7.3a0.347,0.347,0,0,0,.352,0v-7.584a0.347,0.347,0,0,0-.352,0,1.594,1.594,0,0,1-1.6.768c-1.472,0-3.488-.864-5.024-0.864-6.016,0-10.367,5.536-10.367,11.9,0,6.336,4.48,11.872,10.527,11.872,1.76,0,4.16-1.024,5.6-1.024a1.353,1.353,0,0,1,1.44.96A0.675,0.675,0,0,0,62.487,144Zm20.768-22.783a0.408,0.408,0,0,0,0-.384H72.791a0.409,0.409,0,0,0,0,.384h2.816c0.128,0,.192.032,0.192,0.128v19.743c0,1.76-.608,2.624-2.112,2.624a2.291,2.291,0,0,1-2.272-2.048c0-1.5,1.6-1.056,1.6-3.1a2.583,2.583,0,0,0-2.5-2.592,2.932,2.932,0,0,0-2.688,3.072c0,2.5,2.976,5.024,5.856,5.024,3.936,0,6.56-2.176,6.56-5.888V121.345c0-.1.064-0.128,0.224-0.128h2.784ZM70.23,181.92a0.78,0.78,0,0,0,0-.384H67.414c-0.16,0-.224-0.032-0.224-0.128V159.745c0-.1.064-0.128,0.224-0.128H70.23a0.78,0.78,0,0,0,0-.384h-7.3a0.682,0.682,0,0,0-.448.576l-4.9,15.551-5.7-15.551a0.621,0.621,0,0,0-.48-0.576H44.088a0.408,0.408,0,0,0,0,.384H46.9c0.128,0,.16.032,0.16,0.128v21.663c0,0.1-.032.128-0.16,0.128H44.088a0.408,0.408,0,0,0,0,.384h6.368a0.409,0.409,0,0,0,0-.384H47.672c-0.16,0-.192-0.032-0.192-0.128V160.225l8.031,22.11a0.29,0.29,0,0,0,.384,0l6.848-21.886v20.959c0,0.1-.064.128-0.192,0.128H59.767a0.408,0.408,0,0,0,0,.384H70.23Zm16.705-2.752a0.275,0.275,0,0,0-.224-0.192,6.556,6.556,0,0,1-5.472,2.848,2.609,2.609,0,0,1-2.016-.7c-0.864-.9-1.184-2.3-1.184-6.016s0.32-5.12,1.184-6.016a2.608,2.608,0,0,1,2.016-.7c1.632,0,2.592.415,2.592,1.663,0,1.024-.384.9-0.384,1.76a1.271,1.271,0,0,0,1.408,1.216,1.331,1.331,0,0,0,1.472-1.472c0-1.664-2.08-3.551-5.088-3.551A7.1,7.1,0,1,0,86.935,179.168Zm23.359,3.231V173.76a0.347,0.347,0,0,0-.352,0c0,4.192-3.167,8.352-7.039,8.352a4.721,4.721,0,0,1-3.584-1.216c-1.472-1.536-2.048-4.768-2.048-10.3s0.576-8.767,2.048-10.3a4.356,4.356,0,0,1,3.424-1.216c3.136,0,6.623,4.128,6.623,7.3a0.347,0.347,0,0,0,.352,0v-7.584a0.347,0.347,0,0,0-.352,0,1.594,1.594,0,0,1-1.6.768c-1.471,0-3.487-.864-5.023-0.864-6.016,0-10.367,5.536-10.367,11.9,0,6.336,4.48,11.871,10.527,11.871,1.76,0,4.16-1.023,5.6-1.023a1.353,1.353,0,0,1,1.44.959A0.635,0.635,0,0,0,110.294,182.4Zm27.136-11.807c0-6.591-4.64-11.9-10.367-11.9-5.984,0-10.336,5.536-10.336,11.9,0,6.56,4.64,11.871,10.336,11.871C132.79,182.463,137.43,177.152,137.43,170.592Zm-4.9,0c0,6.336-.576,8.768-2.048,10.3a4.439,4.439,0,0,1-3.423,1.216,4.3,4.3,0,0,1-3.36-1.216c-1.5-1.536-2.08-3.968-2.08-10.3,0-5.535.576-8.767,2.08-10.3a4.3,4.3,0,0,1,3.36-1.216,4.439,4.439,0,0,1,3.423,1.216C131.958,161.825,132.534,165.057,132.534,170.592Zm28.736,11.232v-7.712a0.347,0.347,0,0,0-.352,0c0,3.264-2.272,7.424-7.071,7.424h-2.784a0.129,0.129,0,0,1-.16-0.128V159.745a0.129,0.129,0,0,1,.16-0.128h2.816a0.408,0.408,0,0,0,0-.384H143.447a0.408,0.408,0,0,0,0,.384h2.816a0.129,0.129,0,0,1,.16.128v21.663a0.129,0.129,0,0,1-.16.128h-2.816a0.408,0.408,0,0,0,0,.384h17.727A0.085,0.085,0,0,0,161.27,181.824Zm22.88,0v-7.712a0.347,0.347,0,0,0-.352,0c0,3.264-2.272,7.424-7.072,7.424h-2.784a0.129,0.129,0,0,1-.16-0.128V159.745a0.129,0.129,0,0,1,.16-0.128h2.816a0.408,0.408,0,0,0,0-.384H166.327a0.408,0.408,0,0,0,0,.384h2.816a0.129,0.129,0,0,1,.16.128v21.663a0.129,0.129,0,0,1-.16.128h-2.816a0.408,0.408,0,0,0,0,.384h17.727A0.085,0.085,0,0,0,184.15,181.824Zm26.239-22.207a0.408,0.408,0,0,0,0-.384h-6.463a0.408,0.408,0,0,0,0,.384h2.879c0.128,0,.192.032,0.192,0.128V175.2c0,3.936-1.951,6.624-6.431,6.624-3.584,0-4.576-2.368-4.576-6.24V159.745c0-.1.064-0.128,0.224-0.128h2.816a0.408,0.408,0,0,0,0-.384H188.567a0.408,0.408,0,0,0,0,.384h2.816c0.128,0,.192.032,0.192,0.128v15.839c0,4.768,3.391,6.879,8.159,6.879,5.344,0,7.679-2.847,7.679-7.263V159.745a0.129,0.129,0,0,1,.16-0.128h2.816Zm30.752,22.3a0.78,0.78,0,0,0,0-.384h-2.816c-0.16,0-.224-0.032-0.224-0.128V159.745c0-.1.064-0.128,0.224-0.128h2.816a0.78,0.78,0,0,0,0-.384h-7.3a0.682,0.682,0,0,0-.448.576L228.5,175.36l-5.7-15.551a0.621,0.621,0,0,0-.48-0.576H215a0.408,0.408,0,0,0,0,.384h2.815c0.128,0,.16.032,0.16,0.128v21.663c0,0.1-.032.128-0.16,0.128H215a0.408,0.408,0,0,0,0,.384h6.367a0.408,0.408,0,0,0,0-.384h-2.784c-0.16,0-.192-0.032-0.192-0.128V160.225l8.032,22.11a0.29,0.29,0,0,0,.384,0l6.847-21.886v20.959c0,0.1-.064.128-0.192,0.128h-2.783a0.408,0.408,0,0,0,0,.384h10.463Zm-197.457,28h1.531l0.738-5.654h1.152c1.53,0,2.773-.036,3.763-0.81a3.645,3.645,0,0,0,1.387-3.043A3.211,3.211,0,0,0,51.1,197.82c-0.972-.774-2.143-0.774-3.655-0.774H45.377Zm2.449-7,0.612-4.483h1.116a3.665,3.665,0,0,1,1.963.342,1.861,1.861,0,0,1,.864,1.693,2.223,2.223,0,0,1-1.224,2.142,5.463,5.463,0,0,1-2.287.306H46.133Zm12.555,0.271,0.36-1.423a2.009,2.009,0,0,0-.81-0.18,2.844,2.844,0,0,0-2.359,1.567l0.216-1.279H54.709l-1.062,8.049h1.368l0.5-3.8c0.288-2.124.972-3.169,2.233-3.169A2.046,2.046,0,0,1,58.688,203.186Zm1.726,3.042a3.814,3.814,0,0,0,4.051,4.034c2.629,0,4.519-1.927,4.519-4.826a3.846,3.846,0,0,0-4.033-3.853A4.5,4.5,0,0,0,60.414,206.228Zm4.465-3.511a2.74,2.74,0,0,1,2.719,2.971,3.164,3.164,0,0,1-3.043,3.457,2.7,2.7,0,0,1-2.737-2.953A3.183,3.183,0,0,1,64.879,202.717Zm12.761,7.2H80c1.945,0,3.331-.036,4.357-0.739a3.678,3.678,0,0,0,1.53-3.151,2.774,2.774,0,0,0-2.233-2.826,2.885,2.885,0,0,0,2.359-3.079,2.939,2.939,0,0,0-.99-2.323c-0.828-.7-1.909-0.756-3.4-0.756H79.333Zm1.692-1.369,0.612-4.627h1.332a4.2,4.2,0,0,1,2.143.36,1.912,1.912,0,0,1,.936,1.746,2.3,2.3,0,0,1-1.314,2.2,7.215,7.215,0,0,1-2.809.324h-0.9Zm0.774-5.942,0.558-4.177h1.152a3.589,3.589,0,0,1,1.837.306,1.774,1.774,0,0,1,.846,1.6,2.085,2.085,0,0,1-1.188,1.98,5.382,5.382,0,0,1-2.179.288H80.107Zm15.391-.738-0.216,1.621a2.922,2.922,0,0,0-2.935-1.909c-2.359,0-4.141,1.927-4.141,4.609,0,2.449,1.459,4.052,3.475,4.052a3.433,3.433,0,0,0,2.935-1.531l-0.2,1.207h1.4l1.062-8.049H95.5Zm-3.331,7.094a2.535,2.535,0,0,1-2.539-2.773,3.093,3.093,0,0,1,3.043-3.367c1.332,0,2.3,1.063,2.3,2.737C94.976,207.561,93.68,208.965,92.167,208.965Zm6.64-.216a3.72,3.72,0,0,0,3.169,1.513c1.837,0,2.953-1.009,2.953-2.629,0-1.261-.666-1.747-2-2.323-1.009-.432-1.639-0.666-1.639-1.35a1.337,1.337,0,0,1,1.459-1.171,2.368,2.368,0,0,1,1.98.991l0.846-1.009a3.6,3.6,0,0,0-2.736-1.188,2.643,2.643,0,0,0-2.917,2.539c0,1.152.648,1.62,1.908,2.232,1.1,0.541,1.747.685,1.747,1.477a1.391,1.391,0,0,1-1.639,1.278,2.575,2.575,0,0,1-2.232-1.422Zm10.891-3.385,1.188-9.075H109.5l-1.8,13.631h1.387l0.576-4.268,3.277,4.268h1.837l-3.458-4.376,4.412-3.673h-1.945Zm13.7-.378H118.41a2.761,2.761,0,0,1,2.772-2.269A2.06,2.06,0,0,1,123.4,204.986Zm1.332,1.152c0.018-.216.018-0.432,0.018-0.63,0-2.5-1.314-3.925-3.547-3.925a4.377,4.377,0,0,0-4.321,4.663,3.7,3.7,0,0,0,3.925,4.016,4.165,4.165,0,0,0,3.385-1.819l-0.972-.792a3.029,3.029,0,0,1-2.467,1.4c-1.512,0-2.466-1.044-2.466-2.773v-0.144h6.445Zm2.752,3.782h1.405l0.9-6.879h1.782l0.144-1.17h-1.764l0.432-3.241h-1.422l-0.415,3.241h-1.494l-0.162,1.17h1.494Zm7.02,0,0.2-1.567a2.946,2.946,0,0,0,2.935,1.909,3.813,3.813,0,0,0,3.079-1.513,5.048,5.048,0,0,0,1.044-3.025c0-2.538-1.44-4.123-3.493-4.123a3.459,3.459,0,0,0-2.9,1.531l0.919-6.843h-1.405l-1.8,13.631H134.5Zm3.295-7a2.511,2.511,0,0,1,2.539,2.755,3.093,3.093,0,0,1-3.043,3.367c-1.332,0-2.305-1.062-2.305-2.737C134.987,204.3,136.284,202.915,137.8,202.915Zm13.7-1.044-0.216,1.621a2.923,2.923,0,0,0-2.935-1.909c-2.359,0-4.141,1.927-4.141,4.609,0,2.449,1.458,4.052,3.475,4.052a3.432,3.432,0,0,0,2.934-1.531l-0.2,1.207h1.405l1.062-8.049H151.5Zm-3.331,7.094a2.535,2.535,0,0,1-2.539-2.773,3.093,3.093,0,0,1,3.043-3.367c1.332,0,2.305,1.063,2.305,2.737C150.973,207.561,149.676,208.965,148.164,208.965Zm8.711,0.955,1.782-13.631h-1.4l-1.8,13.631h1.423Zm5.238,0,1.782-13.631h-1.4l-1.8,13.631h1.423Zm9.971,0h1.531l0.738-5.654h1.152c1.531,0,2.773-.036,3.763-0.81a3.644,3.644,0,0,0,1.387-3.043,3.209,3.209,0,0,0-1.153-2.593c-0.972-.774-2.142-0.774-3.655-0.774h-2.07Zm2.449-7,0.612-4.483h1.116a3.665,3.665,0,0,1,1.963.342,1.862,1.862,0,0,1,.864,1.693,2.223,2.223,0,0,1-1.224,2.142,5.465,5.465,0,0,1-2.287.306h-1.044Zm9.306,7,1.782-13.631h-1.4l-1.8,13.631h1.423Zm10.963-8.049-0.216,1.621a2.921,2.921,0,0,0-2.935-1.909c-2.358,0-4.141,1.927-4.141,4.609,0,2.449,1.458,4.052,3.475,4.052a3.433,3.433,0,0,0,2.935-1.531l-0.2,1.207h1.4l1.063-8.049H194.8Zm-3.331,7.094a2.536,2.536,0,0,1-2.539-2.773,3.094,3.094,0,0,1,3.043-3.367c1.333,0,2.305,1.063,2.305,2.737C194.28,207.561,192.984,208.965,191.471,208.965Zm6.569,4.88h1.566l6.932-11.974h-1.6l-3.133,5.744-1.657-5.744h-1.494l2.2,7.166Zm16.256-8.859h-4.988a2.762,2.762,0,0,1,2.773-2.269A2.06,2.06,0,0,1,214.3,204.986Zm1.332,1.152c0.018-.216.018-0.432,0.018-0.63,0-2.5-1.314-3.925-3.547-3.925a4.376,4.376,0,0,0-4.321,4.663,3.7,3.7,0,0,0,3.925,4.016,4.166,4.166,0,0,0,3.385-1.819l-0.972-.792a3.032,3.032,0,0,1-2.467,1.4c-1.513,0-2.467-1.044-2.467-2.773v-0.144h6.446Zm7.451-2.952,0.36-1.423a2.008,2.008,0,0,0-.81-0.18,2.845,2.845,0,0,0-2.359,1.567l0.216-1.279H219.1l-1.062,8.049h1.368l0.5-3.8c0.288-2.124.973-3.169,2.233-3.169A2.045,2.045,0,0,1,223.079,203.186Z"/>
  <path class="cls-1" d="M43,274h151.01v3H43v-3Z"/>
  <path id="SHOP_the_look" data-name="SHOP the look" class="cls-1" d="M49.725,254.182a4.838,4.838,0,0,0-3.049-1.056,3.237,3.237,0,0,0-2.541.976,3.352,3.352,0,0,0-.893,2.4,2.69,2.69,0,0,0,.616,1.855,3.427,3.427,0,0,0,1.432.848l0.847,0.3a4.933,4.933,0,0,1,1.2.592,0.954,0.954,0,0,1,.354.768,1.122,1.122,0,0,1-.37.864,1.6,1.6,0,0,1-1.078.368,2.321,2.321,0,0,1-1.294-.384A6.346,6.346,0,0,1,44,260.9l-1.232,1.76a6.555,6.555,0,0,0,1.509,1.167,4.215,4.215,0,0,0,2.033.448,3.456,3.456,0,0,0,3.819-3.727,2.72,2.72,0,0,0-.755-1.984,4.08,4.08,0,0,0-1.4-.816l-0.77-.3a4.06,4.06,0,0,1-1.294-.608,0.761,0.761,0,0,1-.231-0.591,0.974,0.974,0,0,1,.262-0.672,1.255,1.255,0,0,1,1-.368,2.451,2.451,0,0,1,1.725.768Zm7.255-.816H54.608v10.67h2.372v-4.527h4.1v4.527h2.372v-10.67H61.076v4.063h-4.1v-4.063Zm16.618-.24a5.4,5.4,0,0,0-4.019,1.568,6.078,6.078,0,0,0-1.586,4.047,5.417,5.417,0,0,0,5.605,5.535,5.377,5.377,0,0,0,3.973-1.567,5.835,5.835,0,0,0,0-8.031A5.374,5.374,0,0,0,73.6,253.126ZM73.582,255.4a3.229,3.229,0,0,1,2.264.912,3.429,3.429,0,0,1,.893,2.4,3.259,3.259,0,0,1-.893,2.384,3.05,3.05,0,0,1-2.279.912,2.958,2.958,0,0,1-2.2-.88,3.248,3.248,0,0,1-.939-2.4,3.33,3.33,0,0,1,.909-2.415A3.09,3.09,0,0,1,73.582,255.4Zm10.135-2.032v10.67h2.371v-3.743h1.448a3.419,3.419,0,0,0,2.618-.944,3.5,3.5,0,0,0,.878-2.512,3.352,3.352,0,0,0-1-2.591,3.759,3.759,0,0,0-2.7-.88H83.717Zm2.371,2.016h0.8a1.8,1.8,0,0,1,1.324.4,1.437,1.437,0,0,1,.385,1.039,1.518,1.518,0,0,1-.385,1.056,1.768,1.768,0,0,1-1.278.4H86.089v-2.895Zm21.408,0.064v-2.08h-6.838v2.08h2.233v8.59h2.372v-8.59H107.5Zm6.392-2.08h-2.371v10.67h2.371v-4.527h4.1v4.527h2.372v-10.67h-2.372v4.063h-4.1v-4.063Zm17.3,0h-5.806v10.67h5.806v-2.079h-3.434v-2.368h3.264v-2.08h-3.264v-2.063h3.434v-2.08Zm11.059,0v10.67H147.8v-2.079h-3.187v-8.591h-2.372Zm14.477-.24a5.4,5.4,0,0,0-4.019,1.568,6.078,6.078,0,0,0-1.586,4.047,5.416,5.416,0,0,0,5.6,5.535,5.375,5.375,0,0,0,3.973-1.567,5.833,5.833,0,0,0,0-8.031A5.372,5.372,0,0,0,156.721,253.126Zm-0.015,2.272a3.232,3.232,0,0,1,2.264.912,3.429,3.429,0,0,1,.893,2.4,3.261,3.261,0,0,1-.893,2.384,3.05,3.05,0,0,1-2.279.912,2.961,2.961,0,0,1-2.2-.88,3.249,3.249,0,0,1-.939-2.4,3.328,3.328,0,0,1,.909-2.415A3.088,3.088,0,0,1,156.706,255.4Zm15.263-2.272a5.4,5.4,0,0,0-4.019,1.568,6.078,6.078,0,0,0-1.586,4.047,5.416,5.416,0,0,0,5.6,5.535,5.375,5.375,0,0,0,3.973-1.567,5.833,5.833,0,0,0,0-8.031A5.372,5.372,0,0,0,171.969,253.126Zm-0.015,2.272a3.232,3.232,0,0,1,2.264.912,3.429,3.429,0,0,1,.893,2.4,3.261,3.261,0,0,1-.893,2.384,3.05,3.05,0,0,1-2.279.912,2.961,2.961,0,0,1-2.2-.88,3.249,3.249,0,0,1-.939-2.4,3.328,3.328,0,0,1,.909-2.415A3.088,3.088,0,0,1,171.954,255.4Zm12.507-2.032h-2.372v10.67h2.372V259.3l3.68,4.735h3.049l-4.481-5.615,4.158-5.055h-2.895l-3.511,4.447v-4.447Z"/>
  <path id="CJ_is_wearing_the_Mason_tapered_fit._" data-name="CJ is wearing the Mason tapered fit. " class="cls-2" d="M321.54,606.868a5.03,5.03,0,0,0-3.153-1.057,5.523,5.523,0,1,0-.064,11.045,5.556,5.556,0,0,0,3.217-1.041v-1.472a4.845,4.845,0,0,1-1.233.9,4.437,4.437,0,0,1-1.984.5,4.4,4.4,0,0,1-.016-8.8,4.546,4.546,0,0,1,1.84.416,5.25,5.25,0,0,1,1.393.992v-1.472Zm4.429-.88V613.7a2.418,2.418,0,0,1-.4,1.728,1.128,1.128,0,0,1-.8.3,1.726,1.726,0,0,1-1.216-.592l-0.656.929a2.421,2.421,0,0,0,1.9.784,2.193,2.193,0,0,0,1.7-.672,3.494,3.494,0,0,0,.656-2.513v-7.683h-1.184Zm8.975,4.033v6.643H336.1v-6.643h-1.152Zm-0.24-2.513a0.817,0.817,0,1,0,.816-0.816A0.819,0.819,0,0,0,334.7,607.508Zm8.049,3.554a1.915,1.915,0,0,0-1.824-1.2,1.786,1.786,0,0,0-1.937,1.857,1.442,1.442,0,0,0,.3.976,4.341,4.341,0,0,0,1.617.977,1.262,1.262,0,0,1,1.072,1.1,1.031,1.031,0,0,1-1.088,1.056,1.5,1.5,0,0,1-1.345-1.088l-0.992.416a2.375,2.375,0,0,0,2.321,1.7,2.113,2.113,0,0,0,2.289-2.177,1.568,1.568,0,0,0-.353-1.072,4.025,4.025,0,0,0-1.664-1.025c-0.753-.32-1.073-0.464-1.073-0.944a0.735,0.735,0,0,1,.8-0.753,1.019,1.019,0,0,1,.928.673Zm6.318-1.041,3.265,7.107,2.049-4.962,2.049,4.962,3.3-7.107h-1.28l-1.985,4.514-2.065-5.026-2.081,5.026-1.968-4.514h-1.281Zm17.6,4.418a2.645,2.645,0,0,1-.688.912,2.019,2.019,0,0,1-1.36.48,2.127,2.127,0,0,1-2.113-2.256h5.17a4.459,4.459,0,0,0-.624-2.5,2.972,2.972,0,0,0-2.513-1.217,3.221,3.221,0,0,0-3.218,3.522,3.18,3.18,0,0,0,3.282,3.473,3.223,3.223,0,0,0,2.208-.816,3.976,3.976,0,0,0,.817-1.073Zm-4.081-1.825a2.019,2.019,0,0,1,1.953-1.729,1.988,1.988,0,0,1,1.952,1.729h-3.905Zm12.737-1.648a2.745,2.745,0,0,0-2.273-1.105,3.508,3.508,0,0,0,0,7,2.8,2.8,0,0,0,2.273-1.121v0.929h1.153v-6.643h-1.153v0.945Zm-2.145-.081a2.489,2.489,0,0,1,0,4.946A2.493,2.493,0,0,1,373.184,610.885Zm6.271,5.779h1.152v-3.506a2.856,2.856,0,0,1,.385-1.792,1.116,1.116,0,0,1,.928-0.417,1.188,1.188,0,0,1,.672.225l0.544-1.041a2.433,2.433,0,0,0-1.024-.272,1.847,1.847,0,0,0-1.5.88v-0.72h-1.152v6.643Zm5.536-6.643v6.643h1.152v-6.643h-1.152Zm-0.24-2.513a0.816,0.816,0,1,0,.816-0.816A0.819,0.819,0,0,0,384.751,607.508Zm4.368,9.156h1.152V613.19a2.8,2.8,0,0,1,.48-1.792,1.455,1.455,0,0,1,1.169-.513,1.3,1.3,0,0,1,1.088.481,1.952,1.952,0,0,1,.3,1.216v4.082h1.153V612.55a2.966,2.966,0,0,0-.384-1.777,2.255,2.255,0,0,0-1.905-.912,2.343,2.343,0,0,0-1.9.928v-0.768h-1.152v6.643Zm13.409-5.7a2.76,2.76,0,0,0-2.272-1.105,3.274,3.274,0,0,0-2.273.9,3.483,3.483,0,0,0-.961,2.577,3.6,3.6,0,0,0,.961,2.626,3.181,3.181,0,0,0,2.273.9,2.8,2.8,0,0,0,2.272-1.121V616.7a3.092,3.092,0,0,1-.368,1.7,1.862,1.862,0,0,1-1.76.928,2.057,2.057,0,0,1-1.6-.64,2.1,2.1,0,0,1-.512-1.377H397.15a2.99,2.99,0,0,0,.865,2.145,3.289,3.289,0,0,0,2.369.9,3.232,3.232,0,0,0,2.657-1.232,4.182,4.182,0,0,0,.64-2.609v-6.483h-1.153v0.945Zm-2.144-.081a2.13,2.13,0,0,1,1.5.593,2.626,2.626,0,0,1,.705,1.872,2.693,2.693,0,0,1-.753,1.921,1.965,1.965,0,0,1-1.456.56,2.01,2.01,0,0,1-1.425-.544,2.56,2.56,0,0,1-.752-1.953,2.528,2.528,0,0,1,.672-1.824A2.059,2.059,0,0,1,400.384,610.885Zm13.135,0.193v-1.057h-1.153v-2.4h-1.152v2.4h-0.7v1.057h0.7v5.586h1.152v-5.586h1.153Zm1.887,5.586h1.152V613.19a2.8,2.8,0,0,1,.48-1.792,1.456,1.456,0,0,1,1.169-.513,1.3,1.3,0,0,1,1.088.481,1.953,1.953,0,0,1,.305,1.216v4.082h1.152V612.55a2.966,2.966,0,0,0-.384-1.777,2.254,2.254,0,0,0-1.9-.912,2.345,2.345,0,0,0-1.905.928V605h-1.152v11.669Zm13.09-2.225a2.636,2.636,0,0,1-.689.912,2.019,2.019,0,0,1-1.36.48,2.127,2.127,0,0,1-2.113-2.256h5.17a4.459,4.459,0,0,0-.624-2.5,2.971,2.971,0,0,0-2.513-1.217,3.221,3.221,0,0,0-3.217,3.522,3.179,3.179,0,0,0,3.281,3.473,3.226,3.226,0,0,0,2.209-.816,3.992,3.992,0,0,0,.816-1.073Zm-4.082-1.825a2.019,2.019,0,0,1,1.953-1.729,1.989,1.989,0,0,1,1.953,1.729h-3.906Zm13.312,4.05,1.056-7.427,3.586,7.875L446,609.237l1.009,7.427h1.216l-1.665-11.285-4.177,9.028-4.1-9.012-1.777,11.269h1.217Zm18.561-5.7a2.745,2.745,0,0,0-2.273-1.105,3.508,3.508,0,0,0,0,7,2.8,2.8,0,0,0,2.273-1.121v0.929h1.153v-6.643h-1.153v0.945Zm-2.145-.081a2.489,2.489,0,0,1,0,4.946A2.493,2.493,0,0,1,454.142,610.885Zm9.952,0.177a1.915,1.915,0,0,0-1.824-1.2,1.786,1.786,0,0,0-1.937,1.857,1.442,1.442,0,0,0,.3.976,4.341,4.341,0,0,0,1.617.977,1.262,1.262,0,0,1,1.072,1.1,1.031,1.031,0,0,1-1.088,1.056,1.5,1.5,0,0,1-1.345-1.088l-0.992.416a2.375,2.375,0,0,0,2.321,1.7,2.113,2.113,0,0,0,2.289-2.177,1.568,1.568,0,0,0-.353-1.072,4.025,4.025,0,0,0-1.664-1.025c-0.753-.32-1.073-0.464-1.073-0.944a0.735,0.735,0,0,1,.8-0.753,1.019,1.019,0,0,1,.928.673Zm5.856,5.794a3.5,3.5,0,1,0-3.521-3.49A3.407,3.407,0,0,0,469.95,616.856Zm0-5.971a2.477,2.477,0,1,1-2.337,2.481A2.3,2.3,0,0,1,469.95,610.885Zm6.079,5.779h1.152V613.19a2.8,2.8,0,0,1,.48-1.792,1.454,1.454,0,0,1,1.169-.513,1.3,1.3,0,0,1,1.088.481,1.952,1.952,0,0,1,.3,1.216v4.082h1.153V612.55a2.966,2.966,0,0,0-.384-1.777,2.255,2.255,0,0,0-1.9-.912,2.343,2.343,0,0,0-1.905.928v-0.768h-1.152v6.643Zm15.184-5.586v-1.057h-1.152v-2.4h-1.153v2.4h-0.7v1.057h0.7v5.586h1.153v-5.586h1.152Zm6.977-.112a2.745,2.745,0,0,0-2.273-1.105,3.508,3.508,0,0,0,0,7,2.8,2.8,0,0,0,2.273-1.121v0.929h1.152v-6.643H498.19v0.945Zm-2.145-.081a2.489,2.489,0,0,1,0,4.946A2.493,2.493,0,0,1,496.045,610.885Zm7.423,4.85a2.819,2.819,0,0,0,2.321,1.121,3.232,3.232,0,0,0,3.185-3.473,3.289,3.289,0,0,0-3.233-3.522,2.857,2.857,0,0,0-2.273,1.088v-0.928h-1.152v10.324h1.152v-4.61Zm2.161,0.1a2.272,2.272,0,0,1-2.225-2.465,2.306,2.306,0,0,1,2.209-2.481,2.279,2.279,0,0,1,2.177,2.5A2.236,2.236,0,0,1,505.629,615.831Zm10.832-1.392a2.645,2.645,0,0,1-.688.912,2.019,2.019,0,0,1-1.36.48,2.127,2.127,0,0,1-2.113-2.256h5.17a4.459,4.459,0,0,0-.624-2.5,2.972,2.972,0,0,0-2.513-1.217,3.221,3.221,0,0,0-3.218,3.522,3.18,3.18,0,0,0,3.282,3.473,3.227,3.227,0,0,0,2.209-.816,3.992,3.992,0,0,0,.816-1.073Zm-4.081-1.825a2.019,2.019,0,0,1,1.953-1.729,1.988,1.988,0,0,1,1.952,1.729h-3.9Zm7.647,4.05h1.153v-3.506a2.865,2.865,0,0,1,.384-1.792,1.116,1.116,0,0,1,.928-0.417,1.193,1.193,0,0,1,.673.225l0.544-1.041a2.438,2.438,0,0,0-1.025-.272,1.845,1.845,0,0,0-1.5.88v-0.72h-1.153v6.643Zm10.082-2.225a2.645,2.645,0,0,1-.688.912,2.019,2.019,0,0,1-1.361.48,2.127,2.127,0,0,1-2.112-2.256h5.17a4.451,4.451,0,0,0-.625-2.5,2.969,2.969,0,0,0-2.513-1.217,3.221,3.221,0,0,0-3.217,3.522,3.179,3.179,0,0,0,3.281,3.473,3.224,3.224,0,0,0,2.209-.816,4,4,0,0,0,.817-1.073Zm-4.081-1.825a2.019,2.019,0,0,1,1.952-1.729,1.988,1.988,0,0,1,1.953,1.729h-3.9Zm12.737-1.648a2.745,2.745,0,0,0-2.273-1.105,3.508,3.508,0,0,0,0,7,2.8,2.8,0,0,0,2.273-1.121v0.929h1.153V605h-1.153v5.971Zm-2.145-.081a2.489,2.489,0,0,1,0,4.946A2.493,2.493,0,0,1,536.62,610.885Zm13.616,0.193v-1.057H548.6v-2.5a1.835,1.835,0,0,1,.224-1.04,1.663,1.663,0,0,1,2.4,0,2.012,2.012,0,0,1,.224,1.04V607.8h1.153v-0.272a3.163,3.163,0,0,0-.384-1.745,2.514,2.514,0,0,0-2.193-.976,2.473,2.473,0,0,0-2.193.976,2.863,2.863,0,0,0-.384,1.745v2.5H546.81v1.057h0.641v5.586H548.6v-5.586h1.633Zm1.216-1.057v6.643h1.153v-6.643h-1.153Zm6.463,1.057v-1.057h-1.152v-2.4h-1.152v2.4h-0.705v1.057h0.705v5.586h1.152v-5.586h1.152Zm1.823,4.946a0.8,0.8,0,1,0,.8-0.8A0.813,0.813,0,0,0,559.738,616.024Z"/>
</svg>
