<svg id="CTA_underline_copy" data-name="CTA_underline copy" xmlns="http://www.w3.org/2000/svg" width="640" height="680"><defs><style>.cls-1{fill:#fff;fill-rule:evenodd}</style></defs><path id="_So_comfortable_and_easy_to_move_in_I_was_a_fan_instantly._" data-name="“So comfortable and easy to move in—I was a fan instantly.”" class="cls-1" d="M394.533 339.362l-1.035-.418-2.222 4.972 1.43.528zm3.212 0l-1.034-.418-2.222 4.972 1.474.528zm12.122 2.046a4.438 4.438 0 0 0-1.43-1.628 3.975 3.975 0 0 0-2.354-.66 3.792 3.792 0 0 0-4.115 3.784 3.047 3.047 0 0 0 1.012 2.4 6.481 6.481 0 0 0 1.958 1.211l1.321.616a6.4 6.4 0 0 1 1.76 1.012 2.189 2.189 0 0 1 .726 1.716 3 3 0 0 1-5.061 2.09 3.463 3.463 0 0 1-.88-1.87l-1.584.44a5.322 5.322 0 0 0 1.364 2.6 4.71 4.71 0 0 0 7.833-3.323 3.531 3.531 0 0 0-1.056-2.662 7.128 7.128 0 0 0-2.266-1.386l-1.408-.617a4.785 4.785 0 0 1-1.541-.924 1.539 1.539 0 0 1-.55-1.276 2.252 2.252 0 0 1 2.465-2.266 2.64 2.64 0 0 1 1.65.506 3.536 3.536 0 0 1 .858 1.1zm8.513 12.892a4.808 4.808 0 1 0-4.84-4.8 4.684 4.684 0 0 0 4.84 4.8zm0-8.207a3.4 3.4 0 1 1-3.212 3.41 3.161 3.161 0 0 1 3.212-3.403zm21.736-.528a4.827 4.827 0 0 0-2.838-.881 4.809 4.809 0 1 0 0 9.616 4.876 4.876 0 0 0 2.9-.946v-1.893a3.89 3.89 0 0 1-2.948 1.431 3.4 3.4 0 0 1 .022-6.8 3.683 3.683 0 0 1 2.86 1.364v-1.892zm7.854 8.735a4.808 4.808 0 1 0-4.841-4.8 4.684 4.684 0 0 0 4.841 4.8zm0-8.207a3.4 3.4 0 1 1-3.213 3.41 3.16 3.16 0 0 1 3.213-3.403zm8.359 7.943h1.584v-4.973c0-1.1.2-2.97 2-2.97 1.672 0 1.65 1.892 1.65 2.53v5.413h1.585v-5.083c0-1.1.2-2.86 2.024-2.86 1.5 0 1.628 1.364 1.628 2.4v5.545h1.584v-5.787c0-1.3-.264-3.565-2.97-3.565a3.047 3.047 0 0 0-2.75 1.475 2.736 2.736 0 0 0-2.487-1.475 2.65 2.65 0 0 0-2.266 1.189v-.969h-1.584v9.132zm20.042-7.679v-1.453h-2.244V341.1a2.744 2.744 0 0 1 .2-1.32 1.11 1.11 0 0 1 1.012-.484 2.873 2.873 0 0 1 1.034.2v-1.541a3.061 3.061 0 0 0-1.122-.2 2.841 2.841 0 0 0-1.826.594 3.162 3.162 0 0 0-.88 2.575v3.982h-.881v1.453h.881v7.679h1.584v-7.679h2.244zm6.776 7.943a4.808 4.808 0 1 0-4.841-4.8 4.684 4.684 0 0 0 4.841 4.8zm0-8.207a3.4 3.4 0 1 1-3.212 3.41 3.16 3.16 0 0 1 3.212-3.403zm8.359 7.943h1.584v-4.819a3.94 3.94 0 0 1 .528-2.464 1.534 1.534 0 0 1 1.277-.572 1.63 1.63 0 0 1 .924.308l.748-1.431a3.346 3.346 0 0 0-1.408-.374 2.538 2.538 0 0 0-2.069 1.211v-.991h-1.584v9.132zm11.264-7.679v-1.453h-1.584v-3.3H499.6v3.3h-.969v1.453h.969v7.679h1.584v-7.679h1.584zm9.592-.154a3.778 3.778 0 0 0-3.124-1.519c-2.332 0-4.445 1.629-4.445 4.775 0 3.213 2.135 4.841 4.445 4.841a3.851 3.851 0 0 0 3.124-1.54v1.276h1.585v-9.132h-1.585v1.3zm-2.948-.11a3.421 3.421 0 0 1 0 6.8c-1.892 0-2.992-1.475-2.992-3.433a3.034 3.034 0 0 1 2.992-3.36zm10.207 6.667a3.878 3.878 0 0 0 3.191 1.54c2.772 0 4.378-2.267 4.378-4.775 0-2.464-1.584-4.841-4.444-4.841a3.926 3.926 0 0 0-3.125 1.5V338h-1.584v16.041h1.584v-1.276zm2.971.132a3.124 3.124 0 0 1-3.059-3.389 3.169 3.169 0 0 1 3.037-3.41 3.131 3.131 0 0 1 2.992 3.432 3.076 3.076 0 0 1-2.97 3.369zm8.117-14.9v16.041h1.584V338h-1.584zm12.453 12.982a3.64 3.64 0 0 1-.947 1.254 2.771 2.771 0 0 1-1.87.661 2.925 2.925 0 0 1-2.9-3.1h7.107a6.13 6.13 0 0 0-.858-3.432 4.087 4.087 0 0 0-3.455-1.673c-2.75 0-4.423 2.113-4.423 4.841 0 3.389 2.311 4.775 4.511 4.775a4.436 4.436 0 0 0 3.037-1.122 5.467 5.467 0 0 0 1.122-1.475zm-5.611-2.508a2.775 2.775 0 0 1 2.684-2.376 2.734 2.734 0 0 1 2.685 2.376h-5.369zm23.738-2.266a3.778 3.778 0 0 0-3.124-1.519c-2.333 0-4.445 1.629-4.445 4.775 0 3.213 2.134 4.841 4.445 4.841a3.851 3.851 0 0 0 3.124-1.54v1.276h1.584v-9.132h-1.584v1.3zm-2.948-.11a3.421 3.421 0 0 1 0 6.8c-1.893 0-2.993-1.475-2.993-3.433a3.035 3.035 0 0 1 2.993-3.357zm8.623 7.943h1.584v-4.775a3.846 3.846 0 0 1 .66-2.464 2 2 0 0 1 1.606-.7 1.792 1.792 0 0 1 1.5.66 2.679 2.679 0 0 1 .419 1.672v5.611h1.584v-5.655a4.072 4.072 0 0 0-.528-2.442 3.1 3.1 0 0 0-2.619-1.255 3.221 3.221 0 0 0-2.618 1.277v-1.057h-1.584v9.132zM585.4 346.2a3.778 3.778 0 0 0-3.124-1.519c-2.332 0-4.445 1.629-4.445 4.775 0 3.213 2.135 4.841 4.445 4.841a3.851 3.851 0 0 0 3.124-1.54v1.276h1.585V338H585.4v8.208zm-2.948-.11a3.421 3.421 0 0 1 0 6.8c-1.892 0-2.992-1.475-2.992-3.433a3.034 3.034 0 0 1 2.992-3.357zm-184.179 34.889a3.65 3.65 0 0 1-.946 1.255 2.776 2.776 0 0 1-1.87.66 2.926 2.926 0 0 1-2.9-3.1h7.107a6.13 6.13 0 0 0-.858-3.432 4.085 4.085 0 0 0-3.454-1.673c-2.751 0-4.423 2.113-4.423 4.841 0 3.389 2.31 4.775 4.511 4.775a4.432 4.432 0 0 0 3.036-1.122 5.467 5.467 0 0 0 1.122-1.475zm-5.611-2.508a2.776 2.776 0 0 1 2.685-2.376 2.732 2.732 0 0 1 2.684 2.376h-5.369zm17.513-2.266a3.778 3.778 0 0 0-3.124-1.519c-2.333 0-4.445 1.629-4.445 4.775 0 3.213 2.134 4.841 4.445 4.841a3.851 3.851 0 0 0 3.124-1.54v1.276h1.584v-9.132h-1.584v1.3zm-2.948-.11a3.421 3.421 0 0 1 0 6.8c-1.893 0-2.993-1.475-2.993-3.433a3.035 3.035 0 0 1 2.993-3.362zm13.683.242a2.633 2.633 0 0 0-2.508-1.651 2.455 2.455 0 0 0-2.662 2.553 1.983 1.983 0 0 0 .418 1.342 5.955 5.955 0 0 0 2.222 1.342c.858.374 1.474.66 1.474 1.518a1.418 1.418 0 0 1-1.5 1.453 2.067 2.067 0 0 1-1.848-1.5l-1.364.572a3.265 3.265 0 0 0 3.19 2.333 2.9 2.9 0 0 0 3.146-2.993 2.161 2.161 0 0 0-.484-1.474 5.551 5.551 0 0 0-2.288-1.408c-1.034-.44-1.474-.638-1.474-1.3a1.009 1.009 0 0 1 1.1-1.034 1.4 1.4 0 0 1 1.276.924zm3.761 12.761h1.761l6.711-14.192h-1.761l-2.97 6.535-3.235-6.535h-1.8l4.2 8.274zm20.68-12.739v-1.453h-1.584v-3.3h-1.584v3.3h-.968v1.453h.968v7.679h1.584v-7.679h1.584zm6.864 7.943a4.808 4.808 0 1 0-4.84-4.8 4.684 4.684 0 0 0 4.84 4.798zm0-8.207a3.4 3.4 0 1 1-3.212 3.41 3.161 3.161 0 0 1 3.212-3.405zm14.585 7.943h1.584v-4.973c0-1.1.2-2.97 2-2.97 1.672 0 1.65 1.892 1.65 2.53v5.413h1.584v-5.083c0-1.1.2-2.86 2.024-2.86 1.5 0 1.629 1.364 1.629 2.4v5.545h1.584v-5.787c0-1.3-.264-3.565-2.971-3.565a3.047 3.047 0 0 0-2.75 1.475 2.734 2.734 0 0 0-2.486-1.475 2.652 2.652 0 0 0-2.267 1.189v-.969H466.8v9.132zm20.439.264a4.808 4.808 0 1 0-4.841-4.8 4.684 4.684 0 0 0 4.841 4.798zm0-8.207a3.4 3.4 0 1 1-3.213 3.41 3.16 3.16 0 0 1 3.213-3.405zm7.039-1.189l4.488 9.726 4.489-9.726H501.5l-2.729 6.161-2.728-6.161h-1.76zm18.525 6.073a3.641 3.641 0 0 1-.947 1.255 2.776 2.776 0 0 1-1.87.66 2.925 2.925 0 0 1-2.9-3.1h7.107a6.13 6.13 0 0 0-.858-3.432 4.087 4.087 0 0 0-3.455-1.673c-2.75 0-4.422 2.113-4.422 4.841 0 3.389 2.31 4.775 4.51 4.775A4.434 4.434 0 0 0 513 383.18a5.467 5.467 0 0 0 1.122-1.475zm-5.611-2.508a2.775 2.775 0 0 1 2.684-2.376 2.733 2.733 0 0 1 2.685 2.376h-5.369zm16.741-3.565v9.132h1.584v-9.132h-1.584zm-.33-3.454a1.122 1.122 0 1 0 1.122-1.122 1.127 1.127 0 0 0-1.125 1.122zm6.006 12.586h1.584v-4.775a3.846 3.846 0 0 1 .66-2.464 2 2 0 0 1 1.606-.7 1.792 1.792 0 0 1 1.5.66 2.684 2.684 0 0 1 .418 1.672v5.611h1.584v-5.655a4.072 4.072 0 0 0-.528-2.442 3.1 3.1 0 0 0-2.618-1.255 3.222 3.222 0 0 0-2.619 1.277v-1.057h-1.584v9.132zm11.484-3.983h14.522v-1.408h-14.522v1.408zm19.051-10.693v14.676h1.629v-14.676h-1.629zm-169.968 35.544l4.489 9.77 2.816-6.821 2.816 6.821 4.533-9.77h-1.76l-2.729 6.2-2.841-6.906-2.86 6.909-2.707-6.2h-1.76zm24.421 1.3a3.778 3.778 0 0 0-3.124-1.519c-2.333 0-4.445 1.629-4.445 4.775 0 3.213 2.134 4.841 4.445 4.841a3.851 3.851 0 0 0 3.124-1.54v1.276h1.584v-9.132H414.6v1.3zm-2.948-.11a3.421 3.421 0 0 1 0 6.8c-1.893 0-2.993-1.475-2.993-3.433a3.035 3.035 0 0 1 2.993-3.363zm13.683.242a2.633 2.633 0 0 0-2.508-1.651 2.455 2.455 0 0 0-2.662 2.553 1.983 1.983 0 0 0 .418 1.342 5.955 5.955 0 0 0 2.222 1.342c.858.374 1.474.66 1.474 1.518a1.418 1.418 0 0 1-1.5 1.453 2.067 2.067 0 0 1-1.848-1.5l-1.364.572a3.265 3.265 0 0 0 3.19 2.333 2.905 2.905 0 0 0 3.147-2.993 2.157 2.157 0 0 0-.485-1.474 5.551 5.551 0 0 0-2.288-1.408c-1.034-.44-1.474-.638-1.474-1.3a1.009 1.009 0 0 1 1.1-1.034 1.4 1.4 0 0 1 1.276.924zm17.006-.132a3.778 3.778 0 0 0-3.124-1.519c-2.333 0-4.445 1.629-4.445 4.775 0 3.213 2.134 4.841 4.445 4.841a3.851 3.851 0 0 0 3.124-1.54v1.276h1.584v-9.132h-1.584v1.3zm-2.948-.11a3.421 3.421 0 0 1 0 6.8c-1.892 0-2.993-1.475-2.993-3.433a3.035 3.035 0 0 1 2.993-3.363zm18.721.264v-1.453h-2.244V401.1a2.744 2.744 0 0 1 .2-1.32 1.11 1.11 0 0 1 1.012-.484 2.873 2.873 0 0 1 1.034.2v-1.541a3.061 3.061 0 0 0-1.122-.2 2.836 2.836 0 0 0-1.826.6 3.159 3.159 0 0 0-.88 2.574v3.982h-.885v1.453h.881v7.679h1.584v-7.679h2.244zm9.5-.154a3.778 3.778 0 0 0-3.124-1.519c-2.332 0-4.445 1.629-4.445 4.775 0 3.213 2.135 4.841 4.445 4.841a3.851 3.851 0 0 0 3.124-1.54v1.276h1.589v-9.132h-1.585v1.3zm-2.948-.11a3.421 3.421 0 0 1 0 6.8c-1.892 0-2.992-1.475-2.992-3.433a3.034 3.034 0 0 1 2.996-3.363zm8.623 7.943h1.584v-4.775a3.846 3.846 0 0 1 .66-2.464 2 2 0 0 1 1.607-.7 1.792 1.792 0 0 1 1.5.66 2.684 2.684 0 0 1 .418 1.672v5.611h1.584v-5.655a4.072 4.072 0 0 0-.528-2.442 3.1 3.1 0 0 0-2.618-1.255 3.222 3.222 0 0 0-2.619 1.277v-1.057h-1.584v9.132zm17.665-9.132v9.132h1.585v-9.132h-1.585zm-.33-3.454a1.123 1.123 0 1 0 1.123-1.122 1.127 1.127 0 0 0-1.119 1.121zm6.006 12.586h1.585v-4.775a3.846 3.846 0 0 1 .66-2.464 2 2 0 0 1 1.606-.7 1.792 1.792 0 0 1 1.5.66 2.684 2.684 0 0 1 .418 1.672v5.611h1.584v-5.655a4.072 4.072 0 0 0-.528-2.442 3.1 3.1 0 0 0-2.618-1.255 3.221 3.221 0 0 0-2.618 1.277v-1.057h-1.585v9.132zm16.5-7.7a2.634 2.634 0 0 0-2.509-1.651 2.455 2.455 0 0 0-2.662 2.553 1.983 1.983 0 0 0 .418 1.342 5.955 5.955 0 0 0 2.222 1.342c.858.374 1.475.66 1.475 1.518a1.418 1.418 0 0 1-1.5 1.453 2.067 2.067 0 0 1-1.848-1.5l-1.364.572a3.265 3.265 0 0 0 3.19 2.333 2.9 2.9 0 0 0 3.147-2.993 2.161 2.161 0 0 0-.484-1.474 5.549 5.549 0 0 0-2.289-1.408c-1.034-.44-1.474-.638-1.474-1.3a1.009 1.009 0 0 1 1.1-1.034 1.4 1.4 0 0 1 1.277.924zm7 .022v-1.453h-1.584v-3.3h-1.584v3.3h-.968v1.453h.968v7.679h1.584v-7.679h1.584zm9.593-.154a3.781 3.781 0 0 0-3.125-1.519c-2.332 0-4.445 1.629-4.445 4.775 0 3.213 2.135 4.841 4.445 4.841a3.855 3.855 0 0 0 3.125-1.54v1.276h1.58v-9.132h-1.58v1.3zm-2.949-.11a3.421 3.421 0 0 1 0 6.8c-1.892 0-2.992-1.475-2.992-3.433a3.034 3.034 0 0 1 2.992-3.364zm8.623 7.943h1.584v-4.775a3.841 3.841 0 0 1 .661-2.464 2 2 0 0 1 1.606-.7 1.792 1.792 0 0 1 1.5.66 2.684 2.684 0 0 1 .418 1.672v5.611h1.584v-5.655a4.072 4.072 0 0 0-.528-2.442 3.1 3.1 0 0 0-2.618-1.255 3.223 3.223 0 0 0-2.619 1.277v-1.057h-1.584v9.132zm14.652-7.679v-1.453h-1.584v-3.3h-1.584v3.3h-.968v1.453h.968v7.679h1.584v-7.679h1.584zm2.6-8.362v16.041h1.584V398h-1.584zm5.653 21.1h1.761l6.711-14.192h-1.761l-2.97 6.535-3.234-6.535H557l4.2 8.274zm10.208-5.94a1.1 1.1 0 1 0 1.1-1.1 1.118 1.118 0 0 0-1.107 1.099zm5.984-9.242l1.034.418 2.223-4.972-1.475-.528zm3.213 0l1.034.418 2.222-4.972-1.43-.528z"/><path id="DIDI_GREGORIUS_Pro_Baseball_Player" data-name="DIDI GREGORIUS Pro Baseball Player" class="cls-1" d="M411.726 151.192c0-6.271-4.607-11.359-10.3-11.359h-10.178a.408.408 0 0 0 0 .384h2.784c.128 0 .192.032.192.128v21.663c0 .1-.064.128-.192.128h-2.784a.408.408 0 0 0 0 .384h10.175c5.696 0 10.303-5.088 10.303-11.328zm-4.895 0c0 6.048-.544 8.32-2.016 9.792a4.406 4.406 0 0 1-3.392 1.152h-2.56q-.192 0-.192-.1v-21.691c0-.1.064-.128.192-.128h2.56a4.529 4.529 0 0 1 3.392 1.152c1.472 1.472 2.016 4.544 2.016 9.823zm21.376 11.328a.408.408 0 0 0 0-.384h-2.816c-.128 0-.192-.032-.192-.128v-21.663c0-.1.064-.128.192-.128h2.816a.408.408 0 0 0 0-.384h-10.431a.408.408 0 0 0 0 .384h2.815a.129.129 0 0 1 .16.128v21.663a.129.129 0 0 1-.16.128h-2.815a.408.408 0 0 0 0 .384h10.431zm26.143-11.328c0-6.271-4.608-11.359-10.3-11.359h-10.178a.408.408 0 0 0 0 .384h2.783c.128 0 .192.032.192.128v21.663c0 .1-.064.128-.192.128h-2.783a.408.408 0 0 0 0 .384h10.175c5.695 0 10.303-5.088 10.303-11.328zm-4.9 0c0 6.048-.544 8.32-2.015 9.792a4.406 4.406 0 0 1-3.392 1.152h-2.56q-.192 0-.192-.1v-21.691c0-.1.064-.128.192-.128h2.56a4.529 4.529 0 0 1 3.392 1.152c1.475 1.472 2.019 4.544 2.019 9.823zm21.38 11.328a.408.408 0 0 0 0-.384h-2.815c-.128 0-.192-.032-.192-.128v-21.663c0-.1.064-.128.192-.128h2.815a.408.408 0 0 0 0-.384H460.4a.408.408 0 0 0 0 .384h2.816a.129.129 0 0 1 .16.128v21.663a.129.129 0 0 1-.16.128H460.4a.408.408 0 0 0 0 .384h10.43zm-58.016 29.824a.408.408 0 0 0 0-.384h-10.463a.78.78 0 0 0 0 .384h2.816q.192 0 .192.1v5.792c0 1.792-.992 2.88-3.872 2.88a4.245 4.245 0 0 1-3.387-1.216c-1.5-1.536-1.631-4.384-1.631-10.3 0-5.535.575-8.767 2.015-10.3a4.442 4.442 0 0 1 3.424-1.216c3.264 0 5.92 4.224 5.92 7.392a.408.408 0 0 0 .384 0v-7.68a.4.4 0 0 0-.384 0 1.473 1.473 0 0 1-1.568.768c-1.152 0-2.816-.864-4.352-.864-5.983 0-10.335 5.536-10.335 11.9 0 6.144 3.776 11.871 9.919 11.871 3.584 0 5.088-1.535 6.528-1.535a1.23 1.23 0 0 1 1.376 1.088.451.451 0 0 0 .448.032v-8.616q0-.1.192-.1h2.783zm25.92 8a.342.342 0 0 0-.224-.288 2.284 2.284 0 0 1-1.824.8c-1.184 0-1.952-1.024-1.952-2.656v-2.88c0-3.168-1.952-6.112-6.943-6.208 3.488-.1 6.015-2.4 6.015-5.311 0-3.136-2.911-5.568-7.647-5.568h-9.887a.408.408 0 0 0 0 .384h2.815a.129.129 0 0 1 .16.128v21.663a.129.129 0 0 1-.16.128h-2.815a.408.408 0 0 0 0 .384h10.271a.78.78 0 0 0 0-.384h-2.656c-.128 0-.192-.032-.192-.128V189.3h1.888c2.88 0 4.608 1.056 4.608 3.872v2.08c0 4.576 2.975 6.207 5.6 6.207a3.845 3.845 0 0 0 2.943-1.115zm-9.407-16.415c0 4.063-.64 4.991-3.744 4.991H423.7v-10.175c0-.1.064-.128.192-.128h1.5c2.975 0 3.935 1.312 3.935 5.312zm30.719 16.9V193.4a.347.347 0 0 0-.352 0c0 3.3-2.272 7.136-7.487 7.136h-3.168c-.16 0-.224-.032-.224-.128v-10.944h.736a4.229 4.229 0 0 1 4.191 4.32.291.291 0 0 0 .32 0v-9.023a.291.291 0 0 0-.32 0 4.209 4.209 0 0 1-4.191 4.319h-.736v-10.335c0-.1.064-.128.224-.128h3.072c3.967 0 5.887 3.52 5.887 6.5a.408.408 0 0 0 .384 0v-6.784c0-.032 0-.1-.128-.1h-16.863a.408.408 0 0 0 0 .384h2.816c.128 0 .192.032.192.128v21.663c0 .1-.064.128-.192.128h-2.816a.408.408 0 0 0 0 .384h18.559a.085.085 0 0 0 .096-.096zm26.816-8.48a.408.408 0 0 0 0-.384H476.4a.78.78 0 0 0 0 .384h2.816q.192 0 .192.1v5.792c0 1.792-.992 2.88-3.872 2.88a4.244 4.244 0 0 1-3.391-1.216c-1.5-1.536-1.632-4.384-1.632-10.3 0-5.535.576-8.767 2.016-10.3a4.441 4.441 0 0 1 3.423-1.216c3.264 0 5.92 4.224 5.92 7.392a.408.408 0 0 0 .384 0v-7.68a.4.4 0 0 0-.384 0 1.473 1.473 0 0 1-1.568.768c-1.152 0-2.816-.864-4.352-.864-5.983 0-10.335 5.536-10.335 11.9 0 6.144 3.776 11.871 9.919 11.871 3.584 0 5.088-1.535 6.528-1.535a1.23 1.23 0 0 1 1.376 1.088.451.451 0 0 0 .448.032v-8.621q0-.1.192-.1h2.784zm24.479-2.752c0-6.591-4.639-11.9-10.367-11.9-5.983 0-10.335 5.536-10.335 11.9 0 6.56 4.64 11.871 10.335 11.871 5.726-.005 10.367-5.316 10.367-11.876zm-4.895 0c0 6.336-.576 8.768-2.048 10.3a4.442 4.442 0 0 1-3.424 1.216 4.3 4.3 0 0 1-3.36-1.216c-1.5-1.536-2.079-3.968-2.079-10.3 0-5.535.575-8.767 2.079-10.3a4.3 4.3 0 0 1 3.36-1.216 4.442 4.442 0 0 1 3.424 1.216c1.472 1.528 2.048 4.76 2.048 10.295zm33.375 10.752a.342.342 0 0 0-.224-.288 2.284 2.284 0 0 1-1.824.8c-1.184 0-1.952-1.024-1.952-2.656v-2.88c0-3.168-1.951-6.112-6.943-6.208 3.488-.1 6.015-2.4 6.015-5.311 0-3.136-2.911-5.568-7.647-5.568h-9.887a.408.408 0 0 0 0 .384h2.816a.129.129 0 0 1 .16.128v21.663a.129.129 0 0 1-.16.128h-2.816a.408.408 0 0 0 0 .384h10.271a.78.78 0 0 0 0-.384h-2.656c-.128 0-.192-.032-.192-.128V189.3h1.888c2.88 0 4.608 1.056 4.608 3.872v2.08c0 4.576 2.976 6.207 5.6 6.207a3.845 3.845 0 0 0 2.943-1.115zm-9.407-16.415c0 4.063-.64 4.991-3.744 4.991h-1.888v-10.18c0-.1.064-.128.192-.128h1.5c2.98 0 3.94 1.312 3.94 5.312zm22.528 16.991a.408.408 0 0 0 0-.384h-2.816c-.128 0-.192-.032-.192-.128v-21.668c0-.1.064-.128.192-.128h2.816a.408.408 0 0 0 0-.384H542.51a.408.408 0 0 0 0 .384h2.816a.129.129 0 0 1 .16.128v21.663a.129.129 0 0 1-.16.128h-2.816a.408.408 0 0 0 0 .384h10.432zm26.847-22.3a.408.408 0 0 0 0-.384h-6.464a.408.408 0 0 0 0 .384h2.88c.128 0 .192.032.192.128V194.2c0 3.936-1.952 6.624-6.431 6.624-3.584 0-4.576-2.368-4.576-6.24v-15.839c0-.1.064-.128.224-.128h2.816a.408.408 0 0 0 0-.384h-10.464a.408.408 0 0 0 0 .384h2.816c.128 0 .192.032.192.128v15.839c0 4.768 3.392 6.879 8.16 6.879 5.343 0 7.679-2.847 7.679-7.263v-15.455a.129.129 0 0 1 .16-.128h2.816zm20.384 15.167c0-3.9-2.56-5.344-6.655-6.879-4-1.44-5.7-2.72-5.7-5.024a3.762 3.762 0 0 1 4.1-3.808 5.786 5.786 0 0 1 5.439 5.76.347.347 0 0 0 .352 0v-6.048c0-.1-.352-.1-.352 0a1.118 1.118 0 0 1-1.311.768c-1.6 0-2.4-.864-4.16-.864-3.2 0-6.144 3.04-6.144 7.168 0 3.807 2.368 5.407 5.344 6.5 4.9 1.792 6.783 2.528 6.783 5.632 0 2.08-1.663 4.128-5.343 4.128-4.128 0-7.072-4.96-7.072-7.52a.292.292 0 0 0-.384 0v7.776c0 .095.32.095.384 0a1.7 1.7 0 0 1 1.728-1.216c1.344 0 3.136 1.311 5.376 1.311a7.58 7.58 0 0 0 7.615-7.692zM390.684 228.92h1.531l.738-5.654h1.152c1.531 0 2.773-.036 3.763-.81a3.644 3.644 0 0 0 1.387-3.043 3.209 3.209 0 0 0-1.153-2.593c-.972-.774-2.142-.774-3.655-.774h-2.07zm2.449-7l.612-4.483h1.116a3.665 3.665 0 0 1 1.963.342 1.862 1.862 0 0 1 .864 1.693 2.223 2.223 0 0 1-1.224 2.142 5.462 5.462 0 0 1-2.287.306h-1.044zm12.555.271l.36-1.423a2.008 2.008 0 0 0-.81-.18 2.844 2.844 0 0 0-2.359 1.566l.216-1.278h-1.387l-1.062 8.049h1.369l.5-3.8c.288-2.124.972-3.169 2.232-3.169a2.048 2.048 0 0 1 .941.23zm1.726 3.042a3.814 3.814 0 0 0 4.051 4.034c2.629 0 4.52-1.927 4.52-4.826a3.847 3.847 0 0 0-4.034-3.853 4.5 4.5 0 0 0-4.537 4.64zm4.465-3.511a2.74 2.74 0 0 1 2.719 2.971 3.163 3.163 0 0 1-3.043 3.457 2.7 2.7 0 0 1-2.737-2.953 3.184 3.184 0 0 1 3.061-3.48zm12.761 7.2H427c1.944 0 3.331-.036 4.357-.739a3.678 3.678 0 0 0 1.53-3.151 2.774 2.774 0 0 0-2.232-2.826 2.885 2.885 0 0 0 2.358-3.079 2.94 2.94 0 0 0-.99-2.323c-.828-.7-1.908-.756-3.4-.756h-2.287zm1.692-1.369l.613-4.627h1.332a4.206 4.206 0 0 1 2.143.36 1.912 1.912 0 0 1 .936 1.746 2.3 2.3 0 0 1-1.314 2.2 7.219 7.219 0 0 1-2.809.324h-.9zm.775-5.942l.558-4.177h1.152a3.59 3.59 0 0 1 1.837.306 1.774 1.774 0 0 1 .846 1.6 2.085 2.085 0 0 1-1.188 1.98 5.386 5.386 0 0 1-2.179.288h-1.026zm15.391-.738l-.216 1.621a2.921 2.921 0 0 0-2.935-1.909c-2.359 0-4.141 1.927-4.141 4.609 0 2.449 1.458 4.052 3.475 4.052a3.433 3.433 0 0 0 2.935-1.531l-.2 1.207h1.4l1.062-8.049H442.5zm-3.331 7.094a2.536 2.536 0 0 1-2.539-2.773 3.094 3.094 0 0 1 3.043-3.367c1.333 0 2.305 1.063 2.305 2.737 0 1.997-1.297 3.401-2.809 3.401zm6.64-.216a3.722 3.722 0 0 0 3.169 1.513c1.837 0 2.953-1.009 2.953-2.629 0-1.261-.666-1.747-2-2.323-1.009-.432-1.639-.666-1.639-1.35a1.337 1.337 0 0 1 1.459-1.171 2.368 2.368 0 0 1 1.98.991l.846-1.009a3.6 3.6 0 0 0-2.736-1.188 2.643 2.643 0 0 0-2.917 2.539c0 1.152.648 1.62 1.908 2.232 1.1.541 1.747.685 1.747 1.477a1.391 1.391 0 0 1-1.639 1.278 2.574 2.574 0 0 1-2.232-1.422zM461 223.986h-4.987a2.761 2.761 0 0 1 2.773-2.269 2.06 2.06 0 0 1 2.214 2.269zm1.333 1.152c.018-.216.018-.432.018-.63 0-2.5-1.315-3.925-3.547-3.925a4.377 4.377 0 0 0-4.322 4.663 3.7 3.7 0 0 0 3.926 4.016 4.168 4.168 0 0 0 3.385-1.819l-.973-.792a3.029 3.029 0 0 1-2.467 1.4c-1.512 0-2.466-1.044-2.466-2.773v-.144h6.446zm3.706 3.782l.2-1.567a2.945 2.945 0 0 0 2.935 1.909 3.816 3.816 0 0 0 3.079-1.513 5.048 5.048 0 0 0 1.044-3.025c0-2.538-1.441-4.123-3.493-4.123a3.457 3.457 0 0 0-2.9 1.531l.918-6.843h-1.4l-1.8 13.631h1.423zm3.295-7a2.511 2.511 0 0 1 2.538 2.755 3.092 3.092 0 0 1-3.042 3.367c-1.333 0-2.305-1.062-2.305-2.737.001-2.005 1.297-3.39 2.81-3.39zm13.7-1.044l-.216 1.621a2.921 2.921 0 0 0-2.935-1.909c-2.358 0-4.141 1.927-4.141 4.609 0 2.449 1.458 4.052 3.475 4.052a3.433 3.433 0 0 0 2.935-1.531l-.2 1.207h1.4l1.063-8.049h-1.387zm-3.331 7.094a2.536 2.536 0 0 1-2.539-2.773 3.094 3.094 0 0 1 3.043-3.367c1.333 0 2.305 1.063 2.305 2.737-.001 1.994-1.297 3.398-2.812 3.398zm8.711.955l1.783-13.631h-1.405l-1.8 13.631h1.422zm5.238 0l1.783-13.631h-1.405l-1.8 13.631h1.422zm9.972 0h1.53l.738-5.654h1.153c1.53 0 2.773-.036 3.763-.81a3.646 3.646 0 0 0 1.386-3.043 3.211 3.211 0 0 0-1.152-2.593c-.972-.774-2.143-.774-3.655-.774h-2.071zm2.448-7l.613-4.483h1.115a3.664 3.664 0 0 1 1.962.342 1.86 1.86 0 0 1 .865 1.693 2.222 2.222 0 0 1-1.225 2.142 5.46 5.46 0 0 1-2.286.306h-1.045zm9.306 7l1.783-13.631h-1.4l-1.8 13.631h1.422zm10.964-8.049l-.216 1.621a2.923 2.923 0 0 0-2.935-1.909c-2.359 0-4.141 1.927-4.141 4.609 0 2.449 1.458 4.052 3.475 4.052a3.432 3.432 0 0 0 2.934-1.531l-.2 1.207h1.4l1.062-8.049h-1.386zm-3.331 7.094a2.535 2.535 0 0 1-2.539-2.773 3.093 3.093 0 0 1 3.043-3.367c1.332 0 2.3 1.063 2.3 2.737.004 1.994-1.293 3.398-2.805 3.398zm6.568 4.88h1.567l6.932-11.974h-1.6l-3.133 5.744-1.656-5.744h-1.499l2.2 7.166zm16.256-8.859h-4.987a2.761 2.761 0 0 1 2.772-2.269 2.06 2.06 0 0 1 2.214 2.264zm1.333 1.152c.018-.216.018-.432.018-.63 0-2.5-1.315-3.925-3.548-3.925a4.377 4.377 0 0 0-4.321 4.663 3.7 3.7 0 0 0 3.925 4.016 4.165 4.165 0 0 0 3.385-1.819l-.972-.792a3.029 3.029 0 0 1-2.467 1.4c-1.512 0-2.466-1.044-2.466-2.773v-.144h6.446zm7.451-2.952l.36-1.423a2.008 2.008 0 0 0-.81-.18 2.844 2.844 0 0 0-2.359 1.566l.216-1.278h-1.386l-1.063 8.049h1.369l.5-3.8c.288-2.124.972-3.169 2.232-3.169a2.045 2.045 0 0 1 .94.23z"/><path class="cls-1" d="M390 295h151.01v3H390v-3z"/><path id="SHOP_the_look" data-name="SHOP the look" class="cls-1" d="M396.725 275.182a4.84 4.84 0 0 0-3.05-1.056 3.239 3.239 0 0 0-2.541.976 3.351 3.351 0 0 0-.893 2.4 2.69 2.69 0 0 0 .616 1.855 3.432 3.432 0 0 0 1.432.848l.847.3a4.947 4.947 0 0 1 1.2.592.956.956 0 0 1 .354.768 1.123 1.123 0 0 1-.37.864 1.6 1.6 0 0 1-1.078.368 2.319 2.319 0 0 1-1.293-.384 6.367 6.367 0 0 1-.949-.813l-1.232 1.76a6.567 6.567 0 0 0 1.509 1.167 4.217 4.217 0 0 0 2.033.448 3.457 3.457 0 0 0 3.819-3.727 2.718 2.718 0 0 0-.755-1.984 4.07 4.07 0 0 0-1.4-.816l-.77-.3a4.07 4.07 0 0 1-1.294-.608.761.761 0 0 1-.231-.591.974.974 0 0 1 .262-.672 1.256 1.256 0 0 1 1-.368 2.45 2.45 0 0 1 1.725.768zm7.254-.816h-2.371v10.67h2.371v-4.527h4.1v4.527h2.371v-10.67h-2.371v4.063h-4.1v-4.063zm16.619-.24a5.4 5.4 0 0 0-4.02 1.568 6.078 6.078 0 0 0-1.586 4.047 5.418 5.418 0 0 0 5.606 5.535 5.379 5.379 0 0 0 3.973-1.567 5.836 5.836 0 0 0 0-8.031 5.375 5.375 0 0 0-3.971-1.552zm-.016 2.272a3.228 3.228 0 0 1 2.264.912 3.429 3.429 0 0 1 .893 2.4 3.261 3.261 0 0 1-.893 2.384 3.05 3.05 0 0 1-2.279.912 2.957 2.957 0 0 1-2.2-.88 3.246 3.246 0 0 1-.94-2.4 3.328 3.328 0 0 1 .909-2.415 3.088 3.088 0 0 1 2.246-.911zm10.135-2.032v10.67h2.372v-3.743h1.448a3.417 3.417 0 0 0 2.617-.944 3.5 3.5 0 0 0 .878-2.512 3.351 3.351 0 0 0-1-2.591 3.759 3.759 0 0 0-2.695-.88h-3.619zm2.372 2.016h.8a1.8 1.8 0 0 1 1.324.4 1.437 1.437 0 0 1 .385 1.039 1.516 1.516 0 0 1-.385 1.056 1.768 1.768 0 0 1-1.278.4h-.847v-2.895zm21.408.064v-2.08h-6.838v2.08h2.233v8.59h2.372v-8.59h2.236zm6.392-2.08h-2.371v10.67h2.371v-4.527h4.1v4.527h2.372v-10.67h-2.372v4.063h-4.1v-4.063zm17.3 0h-5.806v10.67h5.806v-2.079h-3.434v-2.368h3.264v-2.08h-3.264v-2.063h3.434v-2.08zm11.059 0v10.67h5.552v-2.079h-3.187v-8.591h-2.372zm14.477-.24a5.4 5.4 0 0 0-4.019 1.568 6.078 6.078 0 0 0-1.586 4.047 5.416 5.416 0 0 0 5.605 5.535 5.375 5.375 0 0 0 3.973-1.567 5.833 5.833 0 0 0 0-8.031 5.372 5.372 0 0 0-3.977-1.552zm-.015 2.272a3.23 3.23 0 0 1 2.264.912 3.429 3.429 0 0 1 .893 2.4 3.261 3.261 0 0 1-.893 2.384 3.05 3.05 0 0 1-2.279.912 2.961 2.961 0 0 1-2.2-.88 3.249 3.249 0 0 1-.939-2.4 3.328 3.328 0 0 1 .909-2.415 3.088 3.088 0 0 1 2.241-.911zm15.263-2.272a5.4 5.4 0 0 0-4.019 1.568 6.078 6.078 0 0 0-1.586 4.047 5.416 5.416 0 0 0 5.605 5.535 5.375 5.375 0 0 0 3.973-1.567 5.833 5.833 0 0 0 0-8.031 5.372 5.372 0 0 0-3.977-1.552zm-.015 2.272a3.232 3.232 0 0 1 2.264.912 3.429 3.429 0 0 1 .893 2.4 3.261 3.261 0 0 1-.893 2.384 3.051 3.051 0 0 1-2.28.912 2.96 2.96 0 0 1-2.2-.88 3.249 3.249 0 0 1-.939-2.4 3.328 3.328 0 0 1 .909-2.415 3.088 3.088 0 0 1 2.242-.911zm12.507-2.032h-2.372v10.67h2.372V280.3l3.68 4.735h3.049l-4.481-5.615 4.158-5.055h-2.895l-3.511 4.447v-4.447z"/><path id="Didi_is_wearing_the_Aiden_slim_fit._" data-name="Didi is wearing the Aiden slim fit." d="M21.377 615.664h2.161a5.343 5.343 0 0 0 3.906-1.233 5.08 5.08 0 0 0 1.873-4.1 5.2 5.2 0 0 0-1.825-4.1 5.809 5.809 0 0 0-3.938-1.249h-2.177v10.677zm1.184-9.556H23.6c2.7 0 4.5 1.665 4.5 4.226a4.085 4.085 0 0 1-1.441 3.249 4.563 4.563 0 0 1-3.057.96h-1.041v-8.435zM32 609.021v6.643h1.152v-6.643H32zm-.24-2.513a.816.816 0 1 0 .816-.816.82.82 0 0 0-.816.816zm9.458 3.458a2.746 2.746 0 0 0-2.273-1.105 3.508 3.508 0 0 0 0 7 2.8 2.8 0 0 0 2.273-1.121v.929h1.152V604h-1.152v5.971zm-2.145-.081a2.489 2.489 0 0 1 0 4.946 2.493 2.493 0 0 1 0-4.946zm6.111-.864v6.643h1.153v-6.643h-1.153zm-.24-2.513a.816.816 0 1 0 .816-.816.82.82 0 0 0-.816.816zm8.9 2.513v6.643h1.153v-6.643H53.84zm-.24-2.513a.816.816 0 1 0 .816-.816.82.82 0 0 0-.82.816zm8.05 3.554a1.916 1.916 0 0 0-1.825-1.2 1.786 1.786 0 0 0-1.937 1.857 1.442 1.442 0 0 0 .3.976 4.346 4.346 0 0 0 1.617.977 1.262 1.262 0 0 1 1.072 1.1 1.031 1.031 0 0 1-1.088 1.056 1.5 1.5 0 0 1-1.345-1.088l-.992.416a2.376 2.376 0 0 0 2.321 1.7 2.113 2.113 0 0 0 2.289-2.177 1.571 1.571 0 0 0-.352-1.072 4.028 4.028 0 0 0-1.665-1.025c-.752-.32-1.072-.464-1.072-.944a.735.735 0 0 1 .8-.753 1.02 1.02 0 0 1 .928.673zm6.318-1.041l3.265 7.107 2.049-4.962 2.049 4.962 3.3-7.107h-1.288l-1.985 4.514-2.062-5.026-2.081 5.026-1.969-4.514h-1.28zm17.6 4.418a2.645 2.645 0 0 1-.688.912 2.02 2.02 0 0 1-1.361.48 2.127 2.127 0 0 1-2.113-2.256h5.17a4.459 4.459 0 0 0-.624-2.5 2.97 2.97 0 0 0-2.513-1.217 3.221 3.221 0 0 0-3.217 3.521 3.179 3.179 0 0 0 3.281 3.474 3.225 3.225 0 0 0 2.209-.816 3.994 3.994 0 0 0 .816-1.073zm-4.082-1.825a2.019 2.019 0 0 1 1.953-1.729 1.989 1.989 0 0 1 1.953 1.729h-3.909zm12.738-1.648a2.746 2.746 0 0 0-2.273-1.105 3.508 3.508 0 0 0 0 7 2.8 2.8 0 0 0 2.273-1.121v.929h1.152v-6.643h-1.155v.945zm-2.145-.081a2.489 2.489 0 0 1 0 4.946 2.493 2.493 0 0 1-.003-4.946zm6.271 5.779H99.5v-3.506a2.864 2.864 0 0 1 .384-1.792 1.115 1.115 0 0 1 .929-.416 1.185 1.185 0 0 1 .672.224l.544-1.041a2.433 2.433 0 0 0-1.024-.272 1.845 1.845 0 0 0-1.5.88v-.72h-1.154v6.643zm5.535-6.643v6.643h1.153v-6.643h-1.153zm-.24-2.513a.817.817 0 1 0 .817-.816.82.82 0 0 0-.82.816zm4.368 9.156h1.153v-3.474a2.8 2.8 0 0 1 .48-1.792 1.453 1.453 0 0 1 1.168-.513 1.3 1.3 0 0 1 1.089.481 1.952 1.952 0 0 1 .3 1.216v4.082h1.152v-4.114a2.966 2.966 0 0 0-.384-1.777 2.252 2.252 0 0 0-1.9-.912 2.343 2.343 0 0 0-1.905.928v-.768h-1.153v6.643zm13.41-5.7a2.76 2.76 0 0 0-2.273-1.105 3.278 3.278 0 0 0-2.273.9 3.487 3.487 0 0 0-.96 2.577 3.6 3.6 0 0 0 .96 2.626 3.185 3.185 0 0 0 2.273.9 2.8 2.8 0 0 0 2.273-1.121v.959a3.092 3.092 0 0 1-.368 1.7 1.862 1.862 0 0 1-1.761.928 2.056 2.056 0 0 1-1.6-.64 2.094 2.094 0 0 1-.513-1.377h-1.136a2.994 2.994 0 0 0 .864 2.145 3.293 3.293 0 0 0 2.369.9 3.231 3.231 0 0 0 2.657-1.232 4.177 4.177 0 0 0 .641-2.609v-6.483h-1.153v.945zm-2.145-.081a2.13 2.13 0 0 1 1.505.593 2.625 2.625 0 0 1 .7 1.872 2.693 2.693 0 0 1-.752 1.921 1.966 1.966 0 0 1-1.457.56 2.009 2.009 0 0 1-1.424-.544 2.558 2.558 0 0 1-.753-1.953 2.525 2.525 0 0 1 .673-1.824 2.059 2.059 0 0 1 1.505-.623zm13.136.193v-1.057h-1.153v-2.4h-1.155v2.4h-.705v1.057h.705v5.586h1.152v-5.586h1.153zm1.886 5.586h1.153v-3.472a2.8 2.8 0 0 1 .48-1.792 1.454 1.454 0 0 1 1.169-.513 1.3 1.3 0 0 1 1.088.481 1.952 1.952 0 0 1 .3 1.216v4.082h1.153v-4.114a2.959 2.959 0 0 0-.385-1.777 2.252 2.252 0 0 0-1.9-.912 2.343 2.343 0 0 0-1.905.928V604H134.3v11.669zm13.09-2.225a2.645 2.645 0 0 1-.688.912 2.019 2.019 0 0 1-1.36.48 2.127 2.127 0 0 1-2.113-2.256h5.17a4.451 4.451 0 0 0-.625-2.5 2.969 2.969 0 0 0-2.513-1.217 3.221 3.221 0 0 0-3.217 3.521 3.179 3.179 0 0 0 3.281 3.474 3.224 3.224 0 0 0 2.209-.816 3.976 3.976 0 0 0 .817-1.073zm-4.081-1.825a2.019 2.019 0 0 1 1.952-1.729 1.988 1.988 0 0 1 1.953 1.729h-3.908zm19.6 4.05h1.312l-4.785-11.189-4.914 11.189h1.312l1.281-3.009h4.545zm-5.33-4.13l1.825-4.274 1.792 4.274h-3.617zm8.655-2.513v6.643h1.152v-6.643h-1.152zm-.238-2.511a.816.816 0 1 0 .816-.816.819.819 0 0 0-.816.816zm9.458 3.458a2.747 2.747 0 0 0-2.273-1.105 3.508 3.508 0 0 0 0 7 2.8 2.8 0 0 0 2.273-1.121v.929h1.152V604h-1.152v5.971zm-2.145-.081a2.489 2.489 0 0 1 0 4.946 2.493 2.493 0 0 1-.003-4.946zm11.2 3.554a2.645 2.645 0 0 1-.688.912 2.019 2.019 0 0 1-1.36.48 2.127 2.127 0 0 1-2.113-2.256h5.17a4.459 4.459 0 0 0-.624-2.5 2.972 2.972 0 0 0-2.513-1.217 3.221 3.221 0 0 0-3.218 3.521 3.179 3.179 0 0 0 3.282 3.474 3.227 3.227 0 0 0 2.209-.816 3.992 3.992 0 0 0 .816-1.073zm-4.081-1.825a2.019 2.019 0 0 1 1.953-1.729 1.988 1.988 0 0 1 1.952 1.729h-3.905zm7.647 4.05h1.153v-3.474a2.8 2.8 0 0 1 .48-1.792 1.453 1.453 0 0 1 1.168-.513 1.3 1.3 0 0 1 1.089.481 1.952 1.952 0 0 1 .3 1.216v4.082h1.152v-4.114a2.966 2.966 0 0 0-.384-1.777 2.253 2.253 0 0 0-1.905-.912 2.342 2.342 0 0 0-1.9.928v-.768h-1.153v6.643zm16.529-5.6a1.915 1.915 0 0 0-1.824-1.2 1.786 1.786 0 0 0-1.937 1.857 1.442 1.442 0 0 0 .3.976 4.341 4.341 0 0 0 1.617.977 1.262 1.262 0 0 1 1.072 1.1 1.031 1.031 0 0 1-1.088 1.056 1.5 1.5 0 0 1-1.345-1.088l-.992.416a2.375 2.375 0 0 0 2.321 1.7 2.113 2.113 0 0 0 2.289-2.177 1.573 1.573 0 0 0-.353-1.072 4.025 4.025 0 0 0-1.664-1.025c-.753-.32-1.073-.464-1.073-.944a.735.735 0 0 1 .8-.753 1.019 1.019 0 0 1 .928.673zm2.748-6.064v11.669h1.152V604h-1.152zm4.128 5.026v6.643h1.152v-6.643h-1.152zm-.241-2.513a.817.817 0 1 0 .817-.816.82.82 0 0 0-.817.811zm4.368 9.156h1.153v-3.618c0-.8.144-2.161 1.456-2.161 1.217 0 1.2 1.377 1.2 1.841v3.938h1.152v-3.7c0-.8.145-2.081 1.473-2.081 1.088 0 1.185.993 1.185 1.745v4.034h1.152v-4.21c0-.944-.192-2.593-2.161-2.593a2.218 2.218 0 0 0-2 1.073 1.987 1.987 0 0 0-1.808-1.073 1.929 1.929 0 0 0-1.649.864v-.7h-1.153v6.643zm19.105-5.586v-1.057h-1.632v-2.5a1.835 1.835 0 0 1 .224-1.04 1.663 1.663 0 0 1 2.4 0 2.012 2.012 0 0 1 .224 1.04v.274h1.152v-.272a3.163 3.163 0 0 0-.384-1.745 2.513 2.513 0 0 0-2.193-.976 2.474 2.474 0 0 0-2.193.976 2.863 2.863 0 0 0-.384 1.745v2.5h-.64v1.057h.64v5.586h1.153v-5.586h1.632zm1.217-1.057v6.643h1.152v-6.643h-1.152zm6.463 1.057v-1.057h-1.152v-2.4h-1.153v2.4h-.7v1.057h.7v5.586h1.153v-5.586h1.156zm1.823 4.946a.8.8 0 1 0 .8-.8.813.813 0 0 0-.8.795z" fill-rule="evenodd"/></svg>