<svg xmlns="http://www.w3.org/2000/svg" width="645" height="162"><defs><style>.cls-2{fill-rule:evenodd;fill:#fff}</style></defs><path id="Rectangle_87_copy_4" data-name="Rectangle 87 copy 4" d="M72.588 0H613l-72.534 354H0z" fill-rule="evenodd"/><path id="AVAILABLE_IN_FOUR_DISTINCT_FITS" data-name="AVAILABLE IN FOUR DISTINCT FITS" class="cls-2" d="M212.989 37.164h4.656l.888-3.072h6.649l.864 3.072h4.654L224.774 20h-5.857zm6.552-6.409l1.728-5.664c.072-.264.288-1.032.6-2.3q.468 1.908.576 2.3l1.753 5.664h-4.657zm22.066 6.409h3.553L252.36 20h-4.968l-3.408 9.6c-.072.192-.288.96-.6 2.3q-.468-2.016-.576-2.3l-3.433-9.6h-4.968zm14.483 0h4.656l.888-3.072h6.649l.864 3.072h4.653L267.875 20h-5.857zm6.552-6.409l1.728-5.664c.072-.264.288-1.032.6-2.3q.468 1.908.576 2.3l1.753 5.664h-4.657zm17.711 6.409h4.729V20h-4.729v17.164zm13.3 0h10.489v-4.008h-5.812V20h-4.681v17.164zm15.552 0h4.656l.888-3.072h6.649l.864 3.072h4.657L320.986 20h-5.856zm6.553-6.409l1.728-5.664c.072-.264.288-1.032.6-2.3q.468 1.908.576 2.3l1.752 5.664h-4.656zm21.935 2.9v-3.74h1.7c2.017 0 2.977.312 2.977 1.944 0 1.416-1.057 1.8-3.049 1.8h-1.632zm-4.344 3.5h4.848c2.808 0 4.849-.048 6.385-.864a4.325 4.325 0 0 0 2.232-4.032 3.975 3.975 0 0 0-3.888-4.344c2.184-.6 3.12-1.656 3.12-3.624a3.821 3.821 0 0 0-2.424-3.7 12.953 12.953 0 0 0-5.065-.6h-5.208v17.173zm4.344-10.3v-3.444h1.007c1.9 0 2.953.216 2.953 1.752 0 1.416-1.057 1.7-3.025 1.7h-.936zm16.728 10.3h10.489v-3.999h-5.81V20h-4.68v17.164zm17.568 0H382.5v-3.84h-5.953v-2.9h5.616v-3.668h-5.616v-2.976h5.953V20h-10.515v17.164zm30.839 0h4.728V20h-4.728v17.164zm13.3 0h4.512v-8.464a28.437 28.437 0 0 0-.264-3.384 24.263 24.263 0 0 0 1.56 3l6.481 8.857h4.483V20h-4.488v8.473a28.44 28.44 0 0 0 .264 3.384 25.672 25.672 0 0 0-1.56-3.024L420.632 20h-4.512v17.164zm-252.752 28.8h4.561v-6.736h5.616v-3.672h-5.616v-2.976h5.952V48.8h-10.521v17.164zm26.305-3.5c-2.736 0-4.489-2.208-4.489-5.04 0-2.808 1.849-5.041 4.489-5.041 2.616 0 4.488 2.256 4.488 5.041-.008 2.812-1.832 5.045-4.496 5.045zm9.169-5.04a8.721 8.721 0 0 0-2.665-6.361 9.3 9.3 0 0 0-12.985 0 8.875 8.875 0 0 0 .648 13.3 9.451 9.451 0 0 0 5.833 2.064 9.352 9.352 0 0 0 6.5-2.64 8.736 8.736 0 0 0 2.661-6.359zm7.63-8.617v9.265c0 2.688.12 4.7 1.488 6.265 1.224 1.416 3.24 2.088 6.144 2.088 5.449 0 7.633-2.232 7.633-7.417V48.8h-4.656v8.233c0 3.672-.12 5.449-2.977 5.449-2.424 0-2.976-1.32-2.976-4.368V48.8h-4.656zm28.008 8.113V52.4h.936c1.944 0 2.832.576 2.832 2.376 0 1.512-.936 2.136-2.9 2.136h-.876zm-4.392 9.049h4.392v-6.717l3.936 6.721h5.276l-4.68-6.913a4.547 4.547 0 0 0 3.84-4.9 5.093 5.093 0 0 0-1.92-4.2c-1.464-1.128-3.289-1.152-5.665-1.152h-5.184v17.165zm37.128-3.84v-9.477h.792c3.528 0 5.28 1.344 5.28 4.752 0 3.36-1.7 4.728-5.28 4.728h-.792zm-4.633 3.84h4.777c2.856 0 5.232-.1 7.368-1.608a8.091 8.091 0 0 0 3.313-6.961 8.033 8.033 0 0 0-3.313-6.961c-2.256-1.584-4.824-1.632-8.016-1.632h-4.129v17.166zm23.3 0h4.728V48.8h-4.728v17.164zm14.064-5.545l-2.112 3.48a8.229 8.229 0 0 0 6.1 2.52c4.033 0 6.577-2.472 6.577-6.049 0-3.168-1.68-4.3-4.729-5.112-1.56-.408-2.736-.672-2.736-1.9a1.638 1.638 0 0 1 1.9-1.44 5.2 5.2 0 0 1 3.289 1.368l1.464-3.36a8.668 8.668 0 0 0-5.089-1.536c-3.6 0-5.928 2.376-5.928 5.569 0 2.688 1.512 3.936 4.608 4.752 1.944.5 2.88.912 2.88 2.28a1.9 1.9 0 0 1-2.136 1.776c-1.38.009-2.724-.783-4.092-2.344zm20.445 5.549h4.68V52.859h3.841V48.8h-12.338v4.056h3.817v13.108zm15.72 0h4.728V48.8h-4.728v17.164zm13.295 0h4.513v-8.473a28.437 28.437 0 0 0-.264-3.384 24.263 24.263 0 0 0 1.56 3l6.481 8.857h4.488V48.8H361.7v8.473a28.44 28.44 0 0 0 .264 3.384 25.766 25.766 0 0 0-1.561-3.024l-6.48-8.833h-4.513v17.164zm37.685-16.49a9.918 9.918 0 0 0-4.44-1.08c-5.065 0-8.713 3.816-8.713 9s3.648 9 8.713 9a9.919 9.919 0 0 0 4.44-1.08V60.2a5.134 5.134 0 0 1-3.96 2.064 4.5 4.5 0 0 1-4.512-4.776c0-2.9 1.8-4.968 4.512-4.968a5.134 5.134 0 0 1 3.96 2.064v-5.11zm9.911 16.489h4.681V52.859h3.84V48.8H393.19v4.056h3.816v13.108zm27.912 0h4.56v-6.744h5.616v-3.672h-5.616v-2.976h5.952V48.8h-10.517v17.164zm17.975 0h4.729V48.8h-4.729v17.164zm15.768 0h4.681V52.859h3.84V48.8h-12.342v4.056h3.816v13.108zm16.368-5.545l-2.112 3.48a8.229 8.229 0 0 0 6.1 2.52c4.033 0 6.577-2.472 6.577-6.049 0-3.168-1.68-4.3-4.728-5.112-1.561-.408-2.737-.672-2.737-1.9a1.638 1.638 0 0 1 1.9-1.44 5.2 5.2 0 0 1 3.289 1.368l1.464-3.36a8.667 8.667 0 0 0-5.088-1.536c-3.6 0-5.929 2.376-5.929 5.569 0 2.688 1.512 3.936 4.608 4.752 1.945.5 2.881.912 2.881 2.28a1.9 1.9 0 0 1-2.137 1.776c-1.381.006-2.722-.786-4.093-2.347z"/><path class="cls-2" d="M129 86.985h383.991V137H129V86.985z"/><path id="SHOP_RAPID_MOVEMENT_CHINOS" data-name="SHOP RAPID MOVEMENT CHINOS" d="M172.916 107.985a4.916 4.916 0 0 0-3.1-1.077 3.293 3.293 0 0 0-2.586 1 3.422 3.422 0 0 0-.909 2.448 2.752 2.752 0 0 0 .627 1.893 3.481 3.481 0 0 0 1.458.864l.862.31a5.03 5.03 0 0 1 1.222.6.973.973 0 0 1 .361.783 1.151 1.151 0 0 1-.376.882 1.626 1.626 0 0 1-1.1.375 2.359 2.359 0 0 1-1.317-.392 6.432 6.432 0 0 1-.972-.832l-1.254 1.8a6.665 6.665 0 0 0 1.536 1.191 4.282 4.282 0 0 0 2.069.457 3.956 3.956 0 0 0 2.963-1.109 4 4 0 0 0 .924-2.693 2.777 2.777 0 0 0-.768-2.023 4.139 4.139 0 0 0-1.426-.832l-.784-.311a4.1 4.1 0 0 1-1.316-.62.775.775 0 0 1-.235-.6.993.993 0 0 1 .266-.686 1.278 1.278 0 0 1 1.019-.375 2.49 2.49 0 0 1 1.755.783zm7.3-.833h-2.413v10.884h2.413v-4.618h4.17v4.618h2.414v-10.884h-2.413v4.148h-4.17v-4.145zm16.834-.244a5.494 5.494 0 0 0-4.091 1.6 6.205 6.205 0 0 0-1.615 4.128 5.522 5.522 0 0 0 5.706 5.646 5.462 5.462 0 0 0 4.043-1.6 5.96 5.96 0 0 0 0-8.191 5.461 5.461 0 0 0-4.04-1.583zm-.016 2.317a3.283 3.283 0 0 1 2.3.93 3.506 3.506 0 0 1 .909 2.448 3.329 3.329 0 0 1-.909 2.431 3.1 3.1 0 0 1-2.32.93 3.007 3.007 0 0 1-2.241-.9 3.317 3.317 0 0 1-.956-2.448 3.4 3.4 0 0 1 .925-2.464 3.138 3.138 0 0 1 2.295-.927zm10.235-2.073v10.884h2.414v-3.818h1.473a3.475 3.475 0 0 0 2.664-.963 3.577 3.577 0 0 0 .894-2.562 3.425 3.425 0 0 0-1.019-2.643 3.822 3.822 0 0 0-2.743-.9h-3.683zm2.414 2.056h.817a1.829 1.829 0 0 1 1.347.408 1.466 1.466 0 0 1 .392 1.061 1.547 1.547 0 0 1-.392 1.077 1.792 1.792 0 0 1-1.3.408h-.862v-2.954zm15.688-2.056v10.884h2.414v-4.291l2.821 4.291h2.947l-3.213-4.454a3.261 3.261 0 0 0 1.458-.833 3.047 3.047 0 0 0 .815-2.219 3.353 3.353 0 0 0-.909-2.431 3.654 3.654 0 0 0-2.665-.947h-3.668zm2.414 1.959h.564a2.285 2.285 0 0 1 1.333.342 1.343 1.343 0 0 1 .485 1.11 1.5 1.5 0 0 1-.391 1.061 1.934 1.934 0 0 1-1.442.473h-.549v-2.986zm16.943 8.925h2.508l-4.122-10.884h-2.21l-4.217 10.884h2.513l.8-2.056h3.949zm-4.028-3.981l1.3-3.655 1.285 3.655H240.7zm10.454-6.9v10.884h2.414v-3.818h1.473a3.474 3.474 0 0 0 2.664-.963 3.577 3.577 0 0 0 .894-2.562 3.425 3.425 0 0 0-1.019-2.643 3.822 3.822 0 0 0-2.743-.9h-3.683zm2.414 2.056h.815a1.833 1.833 0 0 1 1.348.408 1.47 1.47 0 0 1 .391 1.061 1.551 1.551 0 0 1-.391 1.077 1.8 1.8 0 0 1-1.3.408h-.862v-2.954zm9.341-2.056v10.884h2.414v-10.887h-2.414zm7.492 0v10.884h3.385a5.5 5.5 0 0 0 4.123-1.631 5.858 5.858 0 0 0-.079-7.751 5.376 5.376 0 0 0-4.122-1.5H270.4zm2.414 2.122h.642a3.364 3.364 0 0 1 2.539.93 3.289 3.289 0 0 1 .862 2.35 3.471 3.471 0 0 1-1.018 2.627 3.664 3.664 0 0 1-2.383.734h-.642v-6.641zm19.388 8.762l.83-6.494 2.618 6.494h.849l2.618-6.494.83 6.494h2.414l-1.677-10.884h-2.006l-2.6 6.511-2.6-6.511h-2.006l-1.677 10.884h2.414zm19.921-11.128a5.494 5.494 0 0 0-4.091 1.6 6.205 6.205 0 0 0-1.615 4.128 5.52 5.52 0 0 0 5.706 5.646 5.462 5.462 0 0 0 4.043-1.6 5.96 5.96 0 0 0 0-8.191 5.461 5.461 0 0 0-4.04-1.586zm-.016 2.317a3.283 3.283 0 0 1 2.3.93 3.506 3.506 0 0 1 .909 2.448 3.329 3.329 0 0 1-.909 2.431 3.1 3.1 0 0 1-2.32.93 3.007 3.007 0 0 1-2.241-.9 3.317 3.317 0 0 1-.956-2.448 3.4 3.4 0 0 1 .925-2.464 3.138 3.138 0 0 1 2.295-.93zm8.62-2.073l4.436 10.884h1.63l4.436-10.884h-2.6l-2.649 6.968-2.649-6.968h-2.6zm20.36 0h-5.909v10.884h5.909v-2.121h-3.5V113.5h3.323v-2.121H337.6v-2.105h3.5v-2.122zm6.63 10.884l.831-6.494 2.617 6.494h.847l2.617-6.494.831 6.494h2.414l-1.675-10.887h-2.007l-2.6 6.511-2.6-6.511h-2.006l-1.678 10.884h2.414zm20.611-10.884h-5.909v10.884h5.909v-2.121h-3.5V113.5h3.323v-2.121h-3.323v-2.105h3.5v-2.122zm7.115 10.884v-7.049l5.674 7.049h2.1v-10.887h-2.414v7.017l-5.674-7.017h-2.1v10.884h2.413zm18.746-8.762v-2.122h-6.959v2.122h2.273v8.762h2.413v-8.762h2.273zm17.961 5.531a3.232 3.232 0 0 1-2.4 1.126 3.118 3.118 0 0 1-2.257-.913 3.347 3.347 0 0 1-.909-2.4 3.559 3.559 0 0 1 .988-2.513 2.869 2.869 0 0 1 2.131-.849 3.261 3.261 0 0 1 2.445 1.159v-2.905a6.026 6.026 0 0 0-2.507-.6 5.434 5.434 0 0 0-3.9 1.566 6 6 0 0 0 0 8.224 5.479 5.479 0 0 0 4.106 1.583 4.7 4.7 0 0 0 2.3-.587v-2.889zm7.085-7.653h-2.414v10.884h2.414v-4.618h4.169v4.618h2.414v-10.887h-2.414v4.148h-4.169v-4.145zm11.661 0v10.884h2.414v-10.887H430.9zm9.906 10.884v-7.049l5.673 7.049h2.1v-10.887h-2.414v7.017l-5.674-7.017h-2.1v10.884h2.414zm18.024-11.128a5.5 5.5 0 0 0-4.091 1.6 6.21 6.21 0 0 0-1.614 4.128 5.52 5.52 0 0 0 5.7 5.646 5.464 5.464 0 0 0 4.044-1.6 5.96 5.96 0 0 0 0-8.191 5.463 5.463 0 0 0-4.036-1.586zm-.016 2.317a3.283 3.283 0 0 1 2.3.93 3.5 3.5 0 0 1 .909 2.448 3.325 3.325 0 0 1-.909 2.431 3.1 3.1 0 0 1-2.319.93 3.009 3.009 0 0 1-2.242-.9 3.321 3.321 0 0 1-.956-2.448 3.406 3.406 0 0 1 .925-2.464 3.138 3.138 0 0 1 2.295-.93zm16.708-1.24a4.912 4.912 0 0 0-3.1-1.077 3.291 3.291 0 0 0-2.586 1 3.422 3.422 0 0 0-.909 2.448 2.747 2.747 0 0 0 .627 1.893 3.472 3.472 0 0 0 1.457.864l.862.31a5.036 5.036 0 0 1 1.223.6.975.975 0 0 1 .36.783 1.148 1.148 0 0 1-.376.882 1.624 1.624 0 0 1-1.1.375 2.356 2.356 0 0 1-1.316-.392 6.336 6.336 0 0 1-.972-.832l-1.254 1.8a6.665 6.665 0 0 0 1.536 1.191 4.28 4.28 0 0 0 2.069.457 3.955 3.955 0 0 0 2.962-1.109 4 4 0 0 0 .925-2.693 2.777 2.777 0 0 0-.768-2.023 4.148 4.148 0 0 0-1.426-.832l-.784-.311a4.124 4.124 0 0 1-1.317-.62.779.779 0 0 1-.235-.6.994.994 0 0 1 .267-.686 1.276 1.276 0 0 1 1.018-.375 2.493 2.493 0 0 1 1.756.783z" fill="#010101" fill-rule="evenodd"/></svg>